<svg height="512" viewBox="0 0 512 512" width="512" xmlns="http://www.w3.org/2000/svg"><g><g><g fill="#57a4ff"><path d="m296 176q0 .765-.03 1.53l-20.03-2.93a8.017 8.017 0 0 0 -9.08 6.76l-5 34.2-.01.01a40.278 40.278 0 0 1 -5.85.43h-104a32 32 0 1 1 0-64c.46 0 .93.01 1.39.03a52.006 52.006 0 0 1 94.9-15.28 40 40 0 0 1 47.71 39.25z"/><path d="m448.3 101.57a24 24 0 0 0 -47.64-5.73c3.72-25.44 5.35-65.28-37.08-78.15l.01-.05c56.08 8.21 88.19 53.34 84.71 83.93z"/><path d="m353.16 88.89a24 24 0 1 0 -47.49-6.96c3.72-25.43 13.58-64.06 57.91-64.24z"/></g><path d="m363.59 17.64-.01.05" fill="none"/><path d="m305.671 81.934 3.087 89.39" fill="none"/><path d="m372.083 180.592 28.576-84.755" fill="none"/><g><g fill="#57a4ff"><path d="m277.87 271.91 23.74 3.48-3.47 23.74-23.75-3.47z"/><path d="m363.01 187.35-9.27 63.32-21.43-19.3-26.06 12.35 9.27-63.32z"/><path d="m363.01 187.35-9.27 63.32-21.43-19.3-26.06 12.35 9.27-63.32z"/><path d="m301.61 275.39-3.47 23.74-23.75-3.47 3.48-23.75z"/></g><path d="m325.359 278.861 23.747 3.476" fill="none"/><path d="m321.884 302.608 7.915 1.159" fill="none"/></g><path d="m48 437.455a58.184 58.184 0 0 0 58.182 58.181h151.273a46.546 46.546 0 1 0 0-93.091c-.669 0-1.353.015-2.022.044a75.646 75.646 0 0 0 -138.033-22.225 58.182 58.182 0 0 0 -69.4 57.091z" fill="#57a4ff"/><path d="m298.26 471.49a32.853 32.853 0 0 0 5.74.51h104a40 40 0 1 0 -7.71-79.25 52.006 52.006 0 0 0 -94.9 15.28c-.46-.02-.93-.03-1.39-.03a31.846 31.846 0 0 0 -17.17 4.99z" fill="#57a4ff"/></g><g fill="#004fac"><path d="m434.21 45.84c-17.46-19.29-42.13-32.11-69.46-36.11s-54.64 1.22-76.9 14.69c-20.19 12.23-34.15 30.15-37.34 47.94a8 8 0 0 0 15.72 2.97 16 16 0 0 1 31.53 5.45 2.13 2.13 0 0 0 -.03.25c-.02.16-.03.31-.04.46-.01.11-.01.22-.01.33 0 .04-.01.08-.01.12 0 .06.01.11.01.17a.335.335 0 0 0 0 .1l2.6 75.26a48.091 48.091 0 0 0 -44.28-29.47c-1.29 0-2.58.05-3.88.16a60.014 60.014 0 0 0 -104.8 16.11 40 40 0 0 0 4.68 79.73h100.54l-12.13 82.85a16 16 0 0 0 13.51 18.15l126.65 18.54h.01a16.572 16.572 0 0 0 2.32.17 16.021 16.021 0 0 0 15.82-13.68l18.54-126.66a16.006 16.006 0 0 0 -13.51-18.14l-23.62-3.46 28.09-83.31a.142.142 0 0 1 .02-.06v-.01a.037.037 0 0 1 .01-.03c.04-.11.07-.23.1-.34.02-.09.05-.17.07-.26.01-.03.02-.06.03-.1.02-.11.04-.23.06-.34s.05-.21.06-.32a16 16 0 0 1 31.77 3.81 7.984 7.984 0 0 0 7.13 8.71 7.887 7.887 0 0 0 .84.05 8 8 0 0 0 7.94-7.1c2.04-17.96-6.2-39.13-22.04-56.63zm-79.99-19.39-4.96 33.87a32.027 32.027 0 0 0 -28.31-5.78c6.96-16.51 17.78-25.56 33.27-28.09zm-67.66 20.35c-.67-.1-1.34-.18-2.01-.23a82.776 82.776 0 0 1 11.59-8.46 92.6 92.6 0 0 1 22.47-9.76 61.757 61.757 0 0 0 -5.89 7.59 82.839 82.839 0 0 0 -9.07 19.03 31.728 31.728 0 0 0 -17.09-8.17zm-134.56 161.2a24.032 24.032 0 0 1 -24-24 23.979 23.979 0 0 1 24-24c.34 0 .69.01 1.03.02a8.006 8.006 0 0 0 8.15-6.16 44 44 0 0 1 80.3-12.91 8 8 0 0 0 8.35 3.65 32 32 0 0 1 37.19 23.54l-9.92-1.45a16 16 0 0 0 -18.15 13.51l-4.07 27.8zm249.43-6.94-18.53 126.65h-.01l-126.65-18.54 18.54-126.65 31.66 4.64-8.11 55.4a8 8 0 0 0 11.34 8.39l21.25-10.07 17.47 15.74a8 8 0 0 0 13.27-4.79l8.11-55.41zm-85.1 29.03 5.94-40.62 31.67 4.64-5.95 40.62-10.32-9.31a8.029 8.029 0 0 0 -8.79-1.28zm76.47-135.98-28.3 83.93a8.754 8.754 0 0 0 -.33 1.39l-9.36-1.37-38.14-5.58a7.079 7.079 0 0 0 .09-1.13c0-.1-.01-.2-.01-.3l-3.05-88.52a15.962 15.962 0 0 1 18.03-12.95 16.023 16.023 0 0 1 13.52 18.15 7.684 7.684 0 0 0 -.09 1.17 8 8 0 0 0 15.84 1.56 3.941 3.941 0 0 0 .08-.42 15.994 15.994 0 0 1 28.66-7.23 15.849 15.849 0 0 1 3.06 11.3zm-11.25-33.41a31.793 31.793 0 0 0 -16.46 1.94l4.96-33.88c14.11 6.87 21.89 18.64 23.82 36.45a31.981 31.981 0 0 0 -12.32-4.51zm47.49 6.95a31.748 31.748 0 0 0 -18.72 2.93 83.1 83.1 0 0 0 -3.23-20.83 62.608 62.608 0 0 0 -3.47-8.96 93.037 93.037 0 0 1 18.73 15.79 82.75 82.75 0 0 1 8.68 11.42c-.66-.13-1.32-.25-1.99-.35z"/><path d="m302.771 267.47-23.747-3.476a8 8 0 0 0 -9.074 6.758l-3.476 23.748a8 8 0 0 0 6.757 9.074l23.747 3.476a8.138 8.138 0 0 0 1.169.085 8 8 0 0 0 7.905-6.843l3.476-23.747a8 8 0 0 0 -6.757-9.075zm-11.392 22.589-7.915-1.159 1.159-7.916 7.915 1.159z"/><path d="m350.265 274.421-23.747-3.476a8 8 0 0 0 -2.317 15.832l23.747 3.476a8 8 0 0 0 2.317-15.832z"/><path d="m330.958 295.851-7.916-1.159a8 8 0 1 0 -2.316 15.832l7.915 1.159a8.134 8.134 0 0 0 1.168.085 8 8 0 0 0 1.149-15.917z"/><path d="m408 384c-1.29 0-2.58.05-3.88.16a60.014 60.014 0 0 0 -104.8 16.11 40.013 40.013 0 0 0 -11.81 3.29 54.323 54.323 0 0 0 -25.96-8.86 83.686 83.686 0 0 0 -79.73-58.34 83.1 83.1 0 0 0 -68.28 35.32 67.238 67.238 0 0 0 -7.36-.41 66.185 66.185 0 0 0 0 132.37h151.27a54.521 54.521 0 0 0 44.94-23.68c.54.03 1.07.04 1.61.04h104a48 48 0 0 0 0-96zm-150.55 103.64h-151.27a50.185 50.185 0 0 1 0-100.37 50.89 50.89 0 0 1 9.68.94 8 8 0 0 0 8.35-3.65 67.645 67.645 0 0 1 123.44 19.86 7.984 7.984 0 0 0 8.13 6.16c.56-.02 1.12-.03 1.67-.03a38.5 38.5 0 0 1 24.12 8.46c.12.11.25.21.38.31a38.555 38.555 0 0 1 -24.5 68.32zm150.55-23.64h-98.09a54.535 54.535 0 0 0 -8.92-47.81 24.7 24.7 0 0 1 4.04-.17 8.016 8.016 0 0 0 8.15-6.16 44 44 0 0 1 80.3-12.91 8 8 0 0 0 8.35 3.65 32 32 0 1 1 6.17 63.4z"/></g></g></svg>