<svg width="38" height="38" viewBox="0 0 38 38" fill="none" xmlns="http://www.w3.org/2000/svg">
<rect width="38" height="38" rx="8" fill="transparent"/>
<mask id="mask0" mask-type="alpha" maskUnits="userSpaceOnUse" x="0" y="0" width="38" height="38">
<rect width="38" height="38" fill="#4164A9"/>
</mask>
<g mask="url(#mask0)">
<path d="M27.1455 16.3387L27.279 16.7473L27.6991 16.8387L29.3337 17.194V20.8061L27.6991 21.1615L27.279 21.2528L27.1455 21.6615C27.0094 22.0782 26.8407 22.4849 26.6415 22.8767L26.4466 23.2602L26.6792 23.6221L27.5842 25.0298L25.03 27.584L23.6224 26.679L23.2605 26.4463L22.8769 26.6413C22.4851 26.8405 22.0785 27.0091 21.6618 27.1452L21.2531 27.2787L21.1617 27.6988L20.8064 29.3334H17.1943L16.8389 27.6988L16.7476 27.2787L16.3389 27.1452C15.9222 27.0091 15.5155 26.8405 15.1237 26.6413L14.7402 26.4463L14.3783 26.679L12.9706 27.584L10.4165 25.0298L11.3214 23.6221L11.5541 23.2602L11.3591 22.8767C11.1599 22.4849 10.9913 22.0782 10.8552 21.6615L10.7217 21.2528L10.3016 21.1615L8.66699 20.8061V17.194L10.3016 16.8387L10.7217 16.7473L10.8552 16.3387C10.9913 15.9219 11.1599 15.5153 11.3591 15.1235L11.5541 14.74L11.3214 14.378L10.4165 12.9704L12.9706 10.4162L14.3783 11.3212L14.7402 11.5538L15.1237 11.3589C15.5155 11.1597 15.9222 10.991 16.3389 10.8549L16.7476 10.7215L16.8389 10.3013L17.1943 8.66675H20.8064L21.1617 10.3013L21.2531 10.7215L21.6618 10.8549C22.0785 10.991 22.4851 11.1597 22.8769 11.3589L23.2605 11.5538L23.6224 11.3212L25.03 10.4162L27.5842 12.9704L26.6792 14.378L26.4466 14.74L26.6415 15.1235C26.8407 15.5153 27.0094 15.9219 27.1455 16.3387ZM17.2093 29.4027L17.2093 29.4025L17.2093 29.4027ZM20.7913 8.59751L20.7914 8.59763L20.7913 8.59751ZM19.0003 23.7242C21.6058 23.7242 23.7244 21.6056 23.7244 19.0001C23.7244 16.3946 21.6058 14.276 19.0003 14.276C16.3948 14.276 14.2762 16.3946 14.2762 19.0001C14.2762 21.6056 16.3948 23.7242 19.0003 23.7242Z" stroke="white" stroke-width="1.5"/>
</g>
</svg>
