<svg width="38" height="38" viewBox="0 0 38 38" fill="none" xmlns="http://www.w3.org/2000/svg">
<rect width="38" height="38" rx="10.3333" fill="transparent"/>
<mask id="mask0" mask-type="alpha" maskUnits="userSpaceOnUse" x="0" y="0" width="38" height="38">
<rect width="38" height="38" fill="#4164A9"/>
</mask>
<g mask="url(#mask0)">
<path d="M27.6775 12.2128L27.811 12.6215L28.2311 12.7128L29.3334 12.9524V15.4112L28.2311 15.6508L27.811 15.7421L27.6775 16.1508C27.5769 16.459 27.4521 16.7598 27.3048 17.0497L27.1098 17.4332L27.3425 17.7951L27.9527 18.7444L26.2141 20.483L25.2649 19.8728L24.903 19.6401L24.5194 19.835C24.2296 19.9824 23.9288 20.1071 23.6206 20.2078L23.2119 20.3413L23.1205 20.7614L22.8809 21.8636H20.4222L20.1826 20.7614L20.0912 20.3413L19.6825 20.2078C19.3743 20.1071 19.0735 19.9824 18.7837 19.835L18.4001 19.6401L18.0382 19.8728L17.089 20.483L15.3504 18.7444L15.9606 17.7951L16.1933 17.4332L15.9983 17.0497C15.851 16.7598 15.7262 16.459 15.6256 16.1508L15.4921 15.7421L15.0719 15.6508L13.9697 15.4112V12.9524L15.0719 12.7128L15.4921 12.6215L15.6256 12.2128C15.7262 11.9046 15.851 11.6038 15.9983 11.3139L16.1933 10.9304L15.9606 10.5685L15.3504 9.61926L17.089 7.88064L18.0382 8.49089L18.4001 8.72355L18.7837 8.52859C19.0735 8.38125 19.3743 8.2565 19.6825 8.15583L20.0912 8.02235L20.1826 7.60222L20.4222 6.5H22.8809L23.1205 7.60222L23.2119 8.02235L23.6206 8.15584C23.9288 8.2565 24.2296 8.38125 24.5194 8.52859L24.903 8.72355L25.2649 8.49089L26.2141 7.88064L27.9527 9.61926L27.3425 10.5685L27.1098 10.9304L27.3048 11.3139C27.4521 11.6038 27.5769 11.9046 27.6775 12.2128ZM20.4643 22.0576L20.4643 22.0575L20.4643 22.0576ZM17.2293 20.6233L17.229 20.623C17.2291 20.6231 17.2292 20.6232 17.2293 20.6233ZM22.8387 6.30599L22.8388 6.30611L22.8387 6.30599ZM21.6515 17.9552C23.7328 17.9552 25.4249 16.2631 25.4249 14.1818C25.4249 12.1006 23.7328 10.4085 21.6515 10.4085C19.5703 10.4085 17.8782 12.1006 17.8782 14.1818C17.8782 16.2631 19.5703 17.9552 21.6515 17.9552Z" stroke="white" stroke-width="1.5"/>
<path d="M16.4307 25.2156L16.5178 25.4822L16.7918 25.5418L17.5108 25.6981V27.3019L16.7918 27.4582L16.5178 27.5178L16.4307 27.7844C16.365 27.9854 16.2837 28.1816 16.1875 28.3707L16.0604 28.6209L16.2121 28.8569L16.6102 29.4761L15.4761 30.6102L14.8569 30.2121L14.6209 30.0604L14.3707 30.1876C14.1816 30.2837 13.9854 30.365 13.7844 30.4307L13.5178 30.5178L13.4582 30.7918L13.3019 31.5108H11.6981L11.5418 30.7918L11.4822 30.5178L11.2156 30.4307C11.0146 30.365 10.8184 30.2837 10.6293 30.1876L10.3791 30.0604L10.1431 30.2121L9.52388 30.6102L8.38979 29.4761L8.78786 28.8569L8.93962 28.6209L8.81245 28.3707C8.71634 28.1816 8.63497 27.9854 8.5693 27.7844L8.48223 27.5178L8.20819 27.4582L7.48922 27.3019V25.6981L8.20819 25.5418L8.48223 25.4822L8.5693 25.2156C8.63497 25.0146 8.71634 24.8184 8.81245 24.6293L8.93962 24.3791L8.78786 24.1431L8.38979 23.5239L9.52388 22.3898L10.1431 22.7879L10.3791 22.9396L10.6293 22.8124C10.8184 22.7163 11.0146 22.635 11.2156 22.5693L11.4822 22.4822L11.5418 22.2082L11.6981 21.4892H13.3019L13.4582 22.2082L13.5178 22.4822L13.7844 22.5693C13.9854 22.635 14.1816 22.7163 14.3707 22.8124L14.6209 22.9396L14.8569 22.7879L15.4761 22.3898L16.6102 23.5239L16.2121 24.1431L16.0604 24.3791L16.1875 24.6293C16.2837 24.8184 16.365 25.0146 16.4307 25.2156ZM15.3845 30.7018C15.3846 30.7017 15.3847 30.7016 15.3849 30.7015L15.3846 30.7017L15.3845 30.7018ZM11.7256 31.6373L11.7256 31.6373L11.7256 31.6373ZM13.2744 21.3627L13.2744 21.3627L13.2744 21.3627ZM12.5 28.9613C13.8576 28.9613 14.9613 27.8576 14.9613 26.5C14.9613 25.1424 13.8576 24.0387 12.5 24.0387C11.1424 24.0387 10.0387 25.1424 10.0387 26.5C10.0387 27.8576 11.1424 28.9613 12.5 28.9613Z" stroke="white" stroke-width="0.978436"/>
<path d="M25.0014 27.6827L25.0568 27.8523L25.2312 27.8902L25.6887 27.9897V29.0103L25.2312 29.1098L25.0568 29.1477L25.0014 29.3173C24.9596 29.4453 24.9078 29.5701 24.8466 29.6904L24.7657 29.8496L24.8623 29.9999L25.1156 30.3939L24.3939 31.1156L23.9999 30.8623L23.8496 30.7657L23.6904 30.8466C23.5701 30.9078 23.4453 30.9596 23.3173 31.0014L23.1477 31.0568L23.1098 31.2312L23.0103 31.6887H21.9897L21.8902 31.2312L21.8523 31.0568L21.6827 31.0014C21.5547 30.9596 21.4299 30.9078 21.3096 30.8466L21.1504 30.7657L21.0001 30.8623L20.6061 31.1156L19.8844 30.3939L20.1377 29.9999L20.2343 29.8496L20.1534 29.6904C20.0922 29.5701 20.0404 29.4453 19.9986 29.3173L19.9432 29.1477L19.7688 29.1098L19.3113 29.0103V27.9897L19.7688 27.8902L19.9432 27.8523L19.9986 27.6827C20.0404 27.5547 20.0922 27.4299 20.1534 27.3096L20.2343 27.1504L20.1377 27.0001L19.8844 26.6061L20.6061 25.8844L21.0001 26.1377L21.1504 26.2343L21.3096 26.1534C21.4299 26.0922 21.5547 26.0404 21.6827 25.9986L21.8523 25.9432L21.8902 25.7688L21.9897 25.3113H23.0103L23.1098 25.7688L23.1477 25.9432L23.3173 25.9986C23.4453 26.0404 23.5701 26.0922 23.6904 26.1534L23.8496 26.2343L23.9999 26.1377L24.3939 25.8844L25.1156 26.6061L24.8623 27.0001L24.7657 27.1504L24.8466 27.3096C24.9078 27.4299 24.9596 27.5547 25.0014 27.6827ZM22.9928 31.7692C22.9928 31.7691 22.9928 31.7691 22.9928 31.7691L22.9928 31.7692ZM22.0072 31.7692L22.0072 31.7692L22.0072 31.7692ZM22.0072 25.2308C22.0072 25.2309 22.0072 25.2309 22.0072 25.2309L22.0072 25.2308ZM22.9928 25.2308L22.9928 25.2308L22.9928 25.2308ZM22.5 30.0663C23.3639 30.0663 24.0663 29.3639 24.0663 28.5C24.0663 27.6361 23.3639 26.9337 22.5 26.9337C21.6361 26.9337 20.9337 27.6361 20.9337 28.5C20.9337 29.3639 21.6361 30.0663 22.5 30.0663Z" stroke="white" stroke-width="0.622641"/>
</g>
</svg>
