<svg width="59" height="59" viewBox="0 0 59 59" fill="none" xmlns="http://www.w3.org/2000/svg">
<g clip-path="url(#clip0)">
<path d="M37.6383 21.375C36.8751 21.375 36.2566 21.9935 36.2566 22.7567V48.8715C36.2566 49.6341 36.8751 50.2532 37.6383 50.2532C38.4015 50.2532 39.0201 49.6341 39.0201 48.8715V22.7567C39.0201 21.9935 38.4015 21.375 37.6383 21.375Z" fill="#4164A9"/>
<path d="M21.3336 21.375C20.5704 21.375 19.9519 21.9935 19.9519 22.7567V48.8715C19.9519 49.6341 20.5704 50.2532 21.3336 50.2532C22.0968 50.2532 22.7154 49.6341 22.7154 48.8715V22.7567C22.7154 21.9935 22.0968 21.375 21.3336 21.375Z" fill="#4164A9"/>
<path d="M9.45095 17.5649V51.6078C9.45095 53.6199 10.1888 55.5095 11.4777 56.8653C12.7606 58.2249 14.5461 58.9968 16.4146 59H42.5574C44.4265 58.9968 46.212 58.2249 47.4944 56.8653C48.7833 55.5095 49.5211 53.6199 49.5211 51.6078V17.5649C52.0832 16.8848 53.7435 14.4096 53.4007 11.7805C53.0574 9.15198 50.8181 7.18571 48.1669 7.18517H41.0925V5.45801C41.1006 4.00558 40.5264 2.61089 39.4981 1.58485C38.4699 0.55935 37.0731 -0.0116927 35.6207 0.000181548H23.3514C21.8989 -0.0116927 20.5021 0.55935 19.4739 1.58485C18.4457 2.61089 17.8714 4.00558 17.8795 5.45801V7.18517H10.8051C8.15396 7.18571 5.91458 9.15198 5.57131 11.7805C5.22858 14.4096 6.88881 16.8848 9.45095 17.5649ZM42.5574 56.2365H16.4146C14.0522 56.2365 12.2144 54.2071 12.2144 51.6078V17.6863H46.7576V51.6078C46.7576 54.2071 44.9198 56.2365 42.5574 56.2365ZM20.643 5.45801C20.6338 4.73854 20.9166 4.04606 21.4272 3.53816C21.9372 3.03027 22.6313 2.75123 23.3514 2.76364H35.6207C36.3407 2.75123 37.0348 3.03027 37.5448 3.53816C38.0554 4.04552 38.3383 4.73854 38.3291 5.45801V7.18517H20.643V5.45801ZM10.8051 9.94863H48.1669C49.5405 9.94863 50.654 11.0621 50.654 12.4357C50.654 13.8094 49.5405 14.9229 48.1669 14.9229H10.8051C9.43152 14.9229 8.31804 13.8094 8.31804 12.4357C8.31804 11.0621 9.43152 9.94863 10.8051 9.94863Z" fill="#4164A9"/>
<path d="M29.486 21.375C28.7228 21.375 28.1042 21.9935 28.1042 22.7567V48.8715C28.1042 49.6341 28.7228 50.2532 29.486 50.2532C30.2492 50.2532 30.8677 49.6341 30.8677 48.8715V22.7567C30.8677 21.9935 30.2492 21.375 29.486 21.375Z" fill="#4164A9"/>
</g>
<defs>
<clipPath id="clip0">
<rect width="59" height="59" fill="white"/>
</clipPath>
</defs>
</svg>
