<svg width="50" height="50" viewBox="0 0 50 50" fill="none" xmlns="http://www.w3.org/2000/svg">
<circle cx="25" cy="25" r="25" fill="#4164A9"/>
<g clip-path="url(#clip0)">
<path d="M34.2281 18.4908C33.2148 13.4069 28.2721 10.1071 23.1882 11.1204C19.4698 11.8615 16.5623 14.7671 15.8189 18.4851C12.2142 18.9005 9.62857 22.1593 10.0438 25.7642C10.426 29.0819 13.236 31.5849 16.5756 31.5826H21.2686C21.787 31.5826 22.2072 31.1624 22.2072 30.644C22.2072 30.1256 21.787 29.7053 21.2686 29.7053H16.5756C13.9835 29.69 11.895 27.5765 11.9101 24.9846C11.9254 22.3926 14.0389 20.3038 16.631 20.3191C17.1093 20.3191 17.5113 19.9593 17.5639 19.4837C18.0404 15.3643 21.7664 12.411 25.886 12.8876C29.3495 13.2881 32.0817 16.0203 32.4822 19.4837C32.5609 19.9678 32.9802 20.3223 33.4705 20.3191C36.0626 20.3191 38.1637 22.4203 38.1637 25.0123C38.1637 27.6042 36.0626 29.7053 33.4705 29.7053H28.7775C28.2591 29.7053 27.8389 30.1256 27.8389 30.644C27.8389 31.1624 28.2591 31.5826 28.7775 31.5826H33.4707C37.0992 31.56 40.0225 28.6001 40 24.9716C39.9794 21.6672 37.508 18.8923 34.2281 18.4908Z" fill="white"/>
<path d="M28.3411 33.5068L25.9616 35.8869V24.0737C25.9616 23.5552 25.5414 23.135 25.0232 23.135C24.5048 23.135 24.0846 23.5552 24.0846 24.0737V35.8869L21.7051 33.5068C21.3451 33.1337 20.7507 33.1234 20.3778 33.4837C20.005 33.8437 19.9947 34.4379 20.3547 34.8107C20.3625 34.8187 20.3701 34.8263 20.3778 34.8338L24.3586 38.8155C24.4455 38.9022 24.5485 38.9711 24.6618 39.0183C24.8928 39.116 25.1535 39.116 25.3846 39.0183C25.4979 38.9711 25.6009 38.9022 25.6877 38.8155L29.6684 34.8338C30.0412 34.4738 30.0515 33.8796 29.6915 33.5068C29.3312 33.1339 28.7371 33.1236 28.3642 33.4837C28.3564 33.4912 28.3486 33.4988 28.3411 33.5068Z" fill="white"/>
</g>
<defs>
<clipPath id="clip0">
<rect x="10" y="10" width="30" height="30" fill="white"/>
</clipPath>
</defs>
</svg>
