<svg width="50" height="50" viewBox="0 0 50 50" fill="none" xmlns="http://www.w3.org/2000/svg">
<circle cx="25" cy="25" r="25" fill="#4164A9"/>
<path d="M33 16H34C34.2762 16 34.5 15.7762 34.5 15.5C34.5 15.2239 34.2762 15.0001 34 15.0001H33C32.7238 15.0001 32.5 15.2239 32.5 15.5C32.5 15.7762 32.7239 16 33 16Z" fill="white"/>
<path d="M30 16H31C31.2762 16 31.5 15.7762 31.5 15.5C31.5 15.2239 31.2762 15.0001 31 15.0001H30C29.7238 15.0001 29.5 15.2239 29.5 15.5C29.5 15.7762 29.7239 16 30 16Z" fill="white"/>
<path d="M17.5 17.0001C18.3284 17.0001 19 16.3285 19 15.5001C19 14.6717 18.3284 14.0001 17.5 14.0001C16.6716 14.0001 16 14.6716 16 15.5001C16 16.3285 16.6716 17.0001 17.5 17.0001ZM17.5 15.0001C17.7762 15.0001 18 15.2239 18 15.5001C18 15.7762 17.7762 16 17.5 16C17.2238 16 17 15.7762 17 15.5001C17 15.2239 17.2238 15.0001 17.5 15.0001Z" fill="white"/>
<path d="M17.5 20.0001C16.6716 20.0001 16 20.6717 16 21.5001C16 22.3285 16.6715 23.0001 17.5 23.0001C18.3285 23.0001 19 22.3285 19 21.5001C19 20.6716 18.3284 20.0001 17.5 20.0001ZM17.5 22C17.2238 22 17 21.7762 17 21.5001C17 21.2239 17.2238 21.0001 17.5 21.0001C17.7762 21.0001 18 21.2239 18 21.5001C18 21.7762 17.7762 22 17.5 22Z" fill="white"/>
<path d="M39 31V25.5C38.9974 24.8666 38.5972 24.3031 38 24.092V21.25C37.9983 20.012 37.2934 18.8825 36.182 18.337C36.7011 17.8672 36.9982 17.2003 37 16.5001V14.5C36.9984 13.12 35.8801 12.0017 34.5 12H15.5C14.12 12.0017 13.0016 13.12 13 14.5V16.5C13.0022 17.29 13.379 18.0321 14.0155 18.5C13.379 18.9679 13.0022 19.71 13 20.5V22.5C13.0022 23.2899 13.379 24.032 14.0155 24.4999C13.379 24.9679 13.0022 25.71 13 26.4999V28.4999C13.0016 29.8799 14.12 30.9982 15.5 30.9999H30.0001C30.0001 32.1045 30.8955 32.9999 32 32.9999H37C38.1046 33.0001 39 32.1047 39 31ZM37 21.25V24H32V21.25C32.0014 20.008 33.008 19.0014 34.25 19H34.5001C34.5252 18.9987 34.5504 18.9987 34.5756 19C34.5831 19 34.5896 18.9975 34.5966 19H34.7501C35.9921 19.0014 36.9987 20.008 37 21.25ZM14 16.5001V14.5C14 13.6716 14.6716 13 15.5 13H34.5001C35.3285 13 36.0001 13.6716 36.0001 14.5V16.5C36.0001 17.3284 35.3285 18 34.5001 18H15.5C14.6716 18.0001 14 17.3285 14 16.5001ZM30 25.5001V30.0001H15.5C14.6716 30.0001 14 29.3285 14 28.5001V26.5001C14 25.6717 14.6716 25.0001 15.5 25.0001H30.0921C30.0328 25.1602 30.0017 25.3293 30 25.5001ZM15.5 24.0001C14.6716 24.0001 14 23.3285 14 22.5001V20.5001C14 19.6717 14.6716 19.0001 15.5 19.0001H31.9106C31.3266 19.6035 31.0001 20.4104 31.0001 21.2501V24.0001H15.5ZM38.0001 26.0001H37.5001C37.2239 26.0001 37.0001 26.2239 37.0001 26.5C37.0001 26.7762 37.2239 27 37.5001 27H38.0001V28H37.5001C37.2239 28 37.0001 28.2239 37.0001 28.5C37.0001 28.7762 37.2239 29 37.5001 29H38.0001V30H37.5001C37.2239 30 37.0001 30.2239 37.0001 30.5C37.0001 30.7762 37.2239 31 37.5001 31H38.0001C38.0001 31.5523 37.5523 32 37 32H32C31.4477 32 31 31.5523 31 31H31.5C31.7762 31 32 30.7761 32 30.5C32 30.2239 31.7762 30 31.5 30H31V29.0001H31.5C31.7762 29.0001 32 28.7762 32 28.5001C32 28.2239 31.7762 28.0001 31.5 28.0001H31V27.0001H31.5C31.7762 27.0001 32 26.7763 32 26.5001C32 26.2239 31.7762 26.0001 31.5 26.0001H31V25.5001C31 25.224 31.2239 25.0002 31.5 25.0002H37.5C37.7762 25.0002 38 25.224 38 25.5001V26.0001H38.0001Z" fill="white"/>
<path d="M17.5 29C18.3284 29 19 28.3284 19 27.5C19 26.6716 18.3284 26 17.5 26C16.6716 26 16 26.6716 16 27.5C16 28.3284 16.6716 29 17.5 29ZM17.5 27C17.7762 27 18 27.2239 18 27.5C18 27.7761 17.7762 28 17.5 28C17.2238 28 17 27.7762 17 27.5C17 27.2238 17.2238 27 17.5 27Z" fill="white"/>
<path d="M36 36.5001H29.5C29.5 35.9478 29.0523 35.5 28.5 35.5H26.5V32.5C26.5 32.2239 26.2761 32.0001 26 32.0001H24.0001C23.7239 32.0001 23.5001 32.2239 23.5001 32.5V35.5H21.5001C20.9478 35.5 20.5001 35.9478 20.5001 36.5001H10.5C10.2238 36.5001 10 36.7239 10 37C10 37.2762 10.2238 37.5 10.5 37.5H20.5C20.5 38.0523 20.9477 38.5 21.5 38.5H28.5001C29.0524 38.5 29.5001 38.0523 29.5001 37.5H36.0001C36.2762 37.5 36.5001 37.2762 36.5001 37C36.5001 36.7239 36.2762 36.5001 36 36.5001ZM24.5 33.0001H25.5001V35.5001H24.5V33.0001ZM28.5 37.5001H21.5V36.5001H28.5001V37.5001H28.5Z" fill="white"/>
<path d="M39.5 36.5001H38C37.7238 36.5001 37.5 36.7239 37.5 37C37.5 37.2762 37.7238 37.5 38 37.5H39.5C39.7761 37.5 40 37.2762 40 37C40 36.7239 39.7761 36.5001 39.5 36.5001Z" fill="white"/>
<path d="M34.4999 26.0001C33.7702 25.9987 33.1459 26.5238 33.0223 27.243C32.8986 27.9621 33.3117 28.6656 34 28.9081V30.0001C34 30.2762 34.2238 30.5001 34.4999 30.5001C34.7761 30.5001 34.9999 30.2762 34.9999 30.0001V28.9081C35.6882 28.6657 36.1013 27.9621 35.9776 27.243C35.854 26.5238 35.2297 25.9987 34.4999 26.0001ZM34.4999 28.0001C34.2238 28.0001 34 27.7762 34 27.5001C34 27.2239 34.2238 27.0001 34.4999 27.0001C34.7761 27.0001 34.9999 27.224 34.9999 27.5001C34.9999 27.7762 34.7761 28.0001 34.4999 28.0001Z" fill="white"/>
</svg>
