<svg width="50" height="50" viewBox="0 0 50 50" fill="none" xmlns="http://www.w3.org/2000/svg">
<circle cx="25" cy="25" r="25" fill="#4164A9"/>
<path d="M26 19H27C27.2762 19 27.5 18.7761 27.5 18.5C27.5 18.2239 27.2761 18 27 18H26C25.7238 18 25.5 18.2238 25.5 18.5C25.5 18.7761 25.7238 19 26 19Z" fill="white"/>
<path d="M23 19H24C24.2762 19 24.5 18.7761 24.5 18.5C24.5 18.2239 24.2762 18 24 18H23C22.7238 18 22.5 18.2238 22.5 18.5C22.5 18.7761 22.7238 19 23 19Z" fill="white"/>
<path d="M15.5 20C16.3284 20 17 19.3284 17 18.5C17 17.6716 16.3284 17 15.5 17C14.6716 17 14 17.6715 14 18.5C14 19.3285 14.6716 20 15.5 20ZM15.5 18C15.7762 18 16 18.2239 16 18.5C16 18.7762 15.7762 19 15.5 19C15.2239 19 15 18.7761 15 18.5C15 18.2239 15.2239 18 15.5 18Z" fill="white"/>
<path d="M26 25H27C27.2762 25 27.5 24.7761 27.5 24.5C27.5 24.2238 27.2761 24 27 24H26C25.7238 24 25.5 24.2238 25.5 24.5C25.5 24.7761 25.7238 25 26 25Z" fill="white"/>
<path d="M23 25H24C24.2762 25 24.5 24.7761 24.5 24.5C24.5 24.2238 24.2762 24 24 24H23C22.7238 24 22.5 24.2238 22.5 24.5C22.5 24.7761 22.7238 25 23 25Z" fill="white"/>
<path d="M15.5 26C16.3284 26 17 25.3285 17 24.5C17 23.6716 16.3284 23 15.5 23C14.6716 23 14 23.6715 14 24.5C14 25.3285 14.6716 26 15.5 26ZM15.5 24C15.7762 24 16 24.2239 16 24.5C16 24.7762 15.7762 25 15.5 25C15.2239 25 15 24.7762 15 24.5C15 24.2239 15.2239 24 15.5 24Z" fill="white"/>
<path d="M27 30H26C25.7238 30 25.5 30.2238 25.5 30.5C25.5 30.7761 25.7238 31 26 31H27C27.2762 31 27.5 30.7761 27.5 30.5C27.5 30.2238 27.2762 30 27 30Z" fill="white"/>
<path d="M24 30H23C22.7238 30 22.5 30.2238 22.5 30.5C22.5 30.7761 22.7238 31 23 31H24C24.2762 31 24.5 30.7761 24.5 30.5C24.5 30.2238 24.2762 30 24 30Z" fill="white"/>
<path d="M15.5 29C14.6716 29 14 29.6716 14 30.5C14 31.3284 14.6715 32 15.5 32C16.3285 32 17 31.3285 17 30.5C17 29.6715 16.3285 29 15.5 29ZM15.5 31C15.2239 31 15 30.7762 15 30.5001C15 30.2239 15.2239 30.0001 15.5 30.0001C15.7762 30.0001 16 30.2239 16 30.5001C16 30.7762 15.7762 31 15.5 31Z" fill="white"/>
<path d="M31.5001 38H26.5001C26.5001 37.4477 26.0524 37 25.5001 37H22.5001V34H28.5001C29.8801 33.9984 30.9984 32.88 31.0001 31.5V29.5C30.9979 28.71 30.6211 27.9679 29.9846 27.5C30.6212 27.0321 30.9979 26.29 31.0001 25.5V23.5C30.9979 22.71 30.6211 21.9679 29.9846 21.5C30.6212 21.0321 30.9979 20.29 31.0001 19.5V17.5C30.9985 16.12 29.8802 15.0017 28.5001 15H13.5C12.12 15.0016 11.0016 16.1199 11 17.5V19.5C11.0022 20.2899 11.379 21.032 12.0155 21.5C11.379 21.9679 11.0022 22.71 11 23.4999V25.4999C11.0022 26.2899 11.379 27.032 12.0155 27.4999C11.379 27.9679 11.0022 28.71 11 29.4999V31.4999C11.0016 32.8799 12.12 33.9982 13.5 33.9999H19.5001V37H16.5C15.9477 37 15.5 37.4477 15.5 38H11.5C11.2239 38 11.0001 38.2238 11.0001 38.5C11.0001 38.7761 11.2239 38.9999 11.5 38.9999H15.5001C15.5001 39.5523 15.9478 40 16.5001 40H25.5002C26.0525 40 26.5002 39.5523 26.5002 38.9999H31.5002C31.7763 38.9999 32.0002 38.7761 32.0002 38.5C32.0002 38.2238 31.7763 38 31.5001 38ZM12 19.5V17.5C12 16.6716 12.6716 16 13.5 16H28.5001C29.3285 16 30.0001 16.6715 30.0001 17.5V19.5C30.0001 20.3284 29.3286 21 28.5001 21H13.5C12.6716 21 12 20.3284 12 19.5ZM12 25.5V23.5C12 22.6716 12.6716 22 13.5 22H28.5001C29.3285 22 30.0001 22.6716 30.0001 23.5V25.5C30.0001 26.3284 29.3286 27 28.5001 27H13.5C12.6716 27 12 26.3284 12 25.5ZM13.5 33C12.6716 33 12 32.3285 12 31.5V29.5C12 28.6716 12.6716 28 13.5 28H28.5001C29.3285 28 30.0001 28.6716 30.0001 29.5V31.5C30.0001 32.3284 29.3286 33 28.5001 33H13.5ZM21.5001 34.0001V37.0001H20.5V34.0001H21.5001ZM25.5001 39.0001H16.5V38H25.5001V39.0001Z" fill="white"/>
<path d="M36.3477 13.3474C36.5406 13.1545 36.5433 12.8426 36.3538 12.6465L33.8538 10.1464C33.8072 10.0998 33.7518 10.0629 33.6908 10.0379C33.5684 9.98736 33.4311 9.98736 33.3088 10.0379C33.2478 10.0629 33.1924 10.0997 33.1458 10.1464L30.6457 12.6465C30.4562 12.8426 30.4589 13.1545 30.6518 13.3474C30.8447 13.5403 31.1566 13.543 31.3527 13.3535L33.0002 11.707V19.5C33.0002 19.7762 33.2241 20 33.5002 20C33.7764 20 34.0002 19.7762 34.0002 19.5V11.7069L35.6467 13.3534C35.843 13.543 36.1548 13.5402 36.3477 13.3474Z" fill="white"/>
<path d="M40.8486 20.6526C40.6557 20.4597 40.3438 20.457 40.1477 20.6465H40.1467L38.5002 22.293V14.5C38.5002 14.2238 38.2763 14 38.0002 14C37.724 14 37.5002 14.2238 37.5002 14.5V22.2931L35.8537 20.6466C35.6575 20.4571 35.3456 20.4598 35.1528 20.6527C34.9599 20.8455 34.9572 21.1574 35.1467 21.3536L37.6467 23.8536C37.7406 23.9476 37.8679 24.0005 38.0008 24.0005C38.1336 24.0005 38.261 23.9476 38.3548 23.8536L40.8548 21.3536C41.0441 21.1573 41.0414 20.8454 40.8486 20.6526Z" fill="white"/>
</svg>
