<svg width="50" height="50" viewBox="0 0 50 50" fill="none" xmlns="http://www.w3.org/2000/svg">
<circle cx="25" cy="25" r="25" fill="#4164A9"/>
<g clip-path="url(#clip0)">
<path d="M29.1381 20.8691C28.7501 20.8691 28.4355 21.1837 28.4355 21.5717V34.8504C28.4355 35.2382 28.7501 35.553 29.1381 35.553C29.5262 35.553 29.8407 35.2382 29.8407 34.8504V21.5717C29.8407 21.1837 29.5262 20.8691 29.1381 20.8691Z" fill="white"/>
<path d="M20.8476 20.8691C20.4595 20.8691 20.145 21.1837 20.145 21.5717V34.8504C20.145 35.2382 20.4595 35.553 20.8476 35.553C21.2357 35.553 21.5502 35.2382 21.5502 34.8504V21.5717C21.5502 21.1837 21.2357 20.8691 20.8476 20.8691Z" fill="white"/>
<path d="M14.8055 18.9313V36.2412C14.8055 37.2643 15.1806 38.2252 15.836 38.9146C16.4884 39.6059 17.3962 39.9984 18.3463 40H31.6393C32.5897 39.9984 33.4975 39.6059 34.1496 38.9146C34.805 38.2252 35.1801 37.2643 35.1801 36.2412V18.9313C36.4829 18.5855 37.3271 17.3269 37.1528 15.9901C36.9783 14.6535 35.8396 13.6538 34.4916 13.6535H30.8944V12.7753C30.8985 12.0367 30.6065 11.3276 30.0837 10.8059C29.5609 10.2844 28.8506 9.99405 28.1121 10.0001H21.8735C21.135 9.99405 20.4247 10.2844 19.9019 10.8059C19.3791 11.3276 19.0871 12.0367 19.0912 12.7753V13.6535H15.4941C14.146 13.6538 13.0073 14.6535 12.8328 15.9901C12.6585 17.3269 13.5027 18.5855 14.8055 18.9313ZM31.6393 38.5948H18.3463C17.1451 38.5948 16.2106 37.5629 16.2106 36.2412V18.993H33.775V36.2412C33.775 37.5629 32.8405 38.5948 31.6393 38.5948ZM20.4963 12.7753C20.4917 12.4094 20.6355 12.0573 20.8951 11.7991C21.1544 11.5408 21.5074 11.3989 21.8735 11.4052H28.1121C28.4782 11.3989 28.8312 11.5408 29.0905 11.7991C29.3501 12.057 29.4939 12.4094 29.4893 12.7753V13.6535H20.4963V12.7753ZM15.4941 15.0586H34.4916C35.19 15.0586 35.7562 15.6248 35.7562 16.3233C35.7562 17.0217 35.19 17.5879 34.4916 17.5879H15.4941C14.7956 17.5879 14.2294 17.0217 14.2294 16.3233C14.2294 15.6248 14.7956 15.0586 15.4941 15.0586Z" fill="white"/>
<path d="M24.9931 20.8691C24.605 20.8691 24.2905 21.1837 24.2905 21.5717V34.8504C24.2905 35.2382 24.605 35.553 24.9931 35.553C25.3812 35.553 25.6957 35.2382 25.6957 34.8504V21.5717C25.6957 21.1837 25.3812 20.8691 24.9931 20.8691Z" fill="white"/>
</g>
<defs>
<clipPath id="clip0">
<rect x="10" y="10" width="30" height="30" fill="white"/>
</clipPath>
</defs>
</svg>
