<svg width="31" height="31" viewBox="0 0 31 31" fill="none" xmlns="http://www.w3.org/2000/svg">
<rect width="31" height="31" rx="8" fill="#EDF4FF"/>
<mask id="mask0" mask-type="alpha" maskUnits="userSpaceOnUse" x="0" y="0" width="31" height="31">
<rect width="31" height="31" fill="#CAEDF3"/>
</mask>
<g mask="url(#mask0)">
</g>
<path d="M10.7702 12.0464C10.7479 12.0241 10.7208 12.007 10.6911 11.9966C10.6613 11.9861 10.6295 11.9824 10.5981 11.9857C10.5668 11.9891 10.5365 11.9995 10.5097 12.016C10.4828 12.0326 10.46 12.055 10.4429 12.0815C9.84958 13.004 9.55208 14.0856 9.59016 15.1817C9.68445 18.0413 12.0178 20.3486 14.8783 20.4123C17.9611 20.481 20.4833 17.9582 20.4137 14.8752C20.3488 11.9991 18.0157 9.65977 15.1398 9.58735C13.789 9.55151 12.474 10.0242 11.4552 10.9118C11.4141 10.9463 11.3875 10.9948 11.3805 11.0479C11.3734 11.101 11.3865 11.1548 11.4171 11.1988C11.4344 11.2227 11.4564 11.2426 11.4819 11.2575C11.5073 11.2723 11.5355 11.2817 11.5648 11.2849C11.5941 11.2882 11.6237 11.2853 11.6518 11.2765C11.6799 11.2676 11.7058 11.253 11.7279 11.2336C12.6581 10.4215 13.8572 9.98477 15.0918 10.0083C17.7701 10.0562 19.9449 12.2436 19.9859 14.9221C19.9978 15.7017 19.8265 16.4732 19.4857 17.1745C19.1449 17.8758 18.6442 18.4872 18.0238 18.9595V18.4453L18.015 18.3536C17.9961 18.1357 17.9163 17.9275 17.7847 17.7528C17.6531 17.5781 17.475 17.444 17.2708 17.3657C17.255 17.3598 17.239 17.3543 17.2229 17.349L16.0199 16.9582V16.4938C16.2394 16.3523 16.4285 16.1685 16.576 15.9531C16.7236 15.7377 16.8267 15.495 16.8792 15.2392L16.9412 15.0306C17.0915 14.9709 17.215 14.8587 17.2887 14.7147C17.3624 14.5708 17.3813 14.4049 17.3418 14.2481C17.3209 14.1682 17.2831 14.0938 17.231 14.0298C17.1788 13.9658 17.1135 13.9138 17.0394 13.8773V13.1324C17.0394 12.0122 16.1488 11.078 15.0287 11.0627C14.7585 11.0593 14.4903 11.1095 14.2396 11.2106C13.989 11.3116 13.7609 11.4614 13.5686 11.6513C13.3762 11.8411 13.2235 12.0673 13.1193 12.3166C13.015 12.566 12.9613 12.8335 12.9613 13.1038V13.877C12.8871 13.9135 12.8217 13.9655 12.7694 14.0296C12.7171 14.0936 12.6792 14.1681 12.6582 14.2481C12.6194 14.4049 12.6385 14.5704 12.712 14.7142C12.7855 14.858 12.9085 14.9703 13.0583 15.0306L13.1216 15.2392C13.225 15.7725 13.5238 16.2186 13.9808 16.4938V16.9582L12.7762 17.3479C12.7603 17.353 12.7447 17.3585 12.7292 17.3642C12.5238 17.443 12.3449 17.5782 12.2131 17.7543C12.0813 17.9304 12.0021 18.1402 11.9845 18.3595L11.9769 18.4453V18.9547C10.9825 18.197 10.3095 17.0929 10.0916 15.8618C9.87374 14.6307 10.127 13.3626 10.8009 12.3096C10.8268 12.269 10.8379 12.2207 10.8325 12.1729C10.8271 12.125 10.8055 12.0805 10.7713 12.0466L10.7702 12.0464ZM14.9994 11.4844C15.4287 11.4849 15.8401 11.6557 16.1435 11.9594C16.4469 12.263 16.6173 12.6746 16.6175 13.1038V13.5005C16.1254 13.429 15.8078 13.2428 15.6056 13.0907C15.8674 12.9963 16.1139 12.8638 16.337 12.6975C16.3602 12.6811 16.3798 12.6602 16.3947 12.6361C16.4096 12.612 16.4195 12.5851 16.4237 12.557C16.428 12.529 16.4265 12.5004 16.4195 12.4729C16.4124 12.4454 16.3999 12.4196 16.3827 12.3971C16.3654 12.3746 16.3438 12.3558 16.3191 12.3418C16.2945 12.3278 16.2672 12.319 16.239 12.3157C16.2108 12.3125 16.1823 12.3151 16.1551 12.3231C16.1279 12.3312 16.1026 12.3447 16.0808 12.3628C15.1944 13.0426 13.597 12.971 13.5812 12.97C13.5534 12.9686 13.5256 12.9726 13.4994 12.982C13.4733 12.9914 13.4492 13.0058 13.4286 13.0245C13.409 13.0422 13.3928 13.0633 13.3808 13.0869C13.3856 12.6606 13.5582 12.2533 13.8612 11.9534C14.1641 11.6534 14.5731 11.4849 14.9994 11.4844ZM13.5314 15.1509C13.5301 15.1442 13.5285 15.1376 13.5266 15.131L13.4362 14.82C13.4279 14.7782 13.4072 14.74 13.3767 14.7103C13.3463 14.6805 13.3076 14.6607 13.2657 14.6534C13.2321 14.6474 13.2001 14.6346 13.1717 14.6157C13.1433 14.5969 13.119 14.5724 13.1004 14.5438C13.0818 14.5153 13.0693 14.4832 13.0635 14.4496C13.0578 14.416 13.059 14.3815 13.0671 14.3484C13.0714 14.3298 13.0796 14.3124 13.0913 14.2973C13.103 14.2823 13.1178 14.2699 13.1348 14.2612C13.1859 14.2807 13.2402 14.2908 13.2949 14.2909C13.4123 14.2906 13.5251 14.2452 13.6099 14.164C13.6948 14.0829 13.7452 13.9722 13.7508 13.855L13.7717 13.3951C14.2292 13.3933 14.685 13.3398 15.1304 13.2357C15.3241 13.4285 15.809 13.8223 16.6175 13.9265V14.039C16.6178 14.0951 16.6403 14.1488 16.6801 14.1883C16.7199 14.2278 16.7737 14.25 16.8298 14.2499C16.8313 14.2499 16.8333 14.2499 16.8348 14.2497C16.8587 14.2555 16.8806 14.2678 16.898 14.2853C16.9154 14.3027 16.9276 14.3246 16.9332 14.3486C16.9414 14.3817 16.9427 14.4161 16.9371 14.4497C16.9314 14.4834 16.9189 14.5155 16.9003 14.5441C16.8817 14.5727 16.8574 14.5971 16.8289 14.616C16.8005 14.6348 16.7685 14.6476 16.7349 14.6535C16.6948 14.6609 16.6576 14.6797 16.6279 14.7076C16.5982 14.7355 16.577 14.7713 16.5671 14.8109L16.474 15.1312C16.4721 15.1377 16.4705 15.1444 16.4693 15.151C16.4049 15.4935 16.2228 15.8028 15.9546 16.0253C15.6864 16.2478 15.3488 16.3696 15.0003 16.3696C14.6518 16.3696 14.3143 16.2478 14.046 16.0253C13.7778 15.8028 13.5957 15.4935 13.5314 15.151L13.5314 15.1509ZM15.598 16.6936V16.9806C15.4096 17.063 15.2061 17.1056 15.0004 17.1056C14.7946 17.1056 14.5912 17.063 14.4027 16.9806V16.6936C14.7905 16.8239 15.2102 16.8239 15.598 16.6936ZM12.3988 18.4453L12.4015 18.4071C12.4101 18.2674 12.458 18.1329 12.5399 18.0192C12.6217 17.9056 12.7341 17.8174 12.8639 17.765C12.8775 17.7598 12.8913 17.7549 12.9052 17.7504L14.1673 17.3402C14.4277 17.464 14.7125 17.5282 15.0008 17.5282C15.2892 17.5281 15.5739 17.4637 15.8342 17.3398L17.0973 17.7492C17.1109 17.7536 17.1243 17.7584 17.1375 17.7635C17.2695 17.8167 17.3834 17.9068 17.4655 18.0231C17.5476 18.1394 17.5945 18.2769 17.6005 18.4191L17.6019 18.4453V19.2508C16.8636 19.7215 15.9547 19.9931 14.9943 19.9919C14.076 19.9942 13.176 19.7358 12.3988 19.2466V18.4453Z" fill="#4164A9"/>
<path d="M21.053 8.66563C21.0522 8.63758 21.0458 8.60997 21.0342 8.58442C21.0226 8.55887 21.006 8.5359 20.9854 8.51685C19.5634 7.20462 17.7497 6.39575 15.8233 6.21458C13.8968 6.03342 11.9642 6.48998 10.3225 7.51409C10.2987 7.52899 10.2782 7.54849 10.262 7.57144C10.2459 7.59438 10.2345 7.62032 10.2285 7.64772C10.2225 7.67513 10.222 7.70345 10.2271 7.73104C10.2322 7.75862 10.2428 7.78492 10.2581 7.80838L11.6806 9.97956C11.7106 10.0255 11.7574 10.0578 11.811 10.0698C11.8645 10.0818 11.9206 10.0724 11.9674 10.0437C13.0379 9.38724 14.2926 9.09589 15.5429 9.21347C16.7932 9.33104 17.9716 9.85118 18.9009 10.6957C18.9416 10.7326 18.995 10.7522 19.0498 10.7503C19.1046 10.7485 19.1566 10.7254 19.1946 10.6858L20.9939 8.81803C21.0134 8.79784 21.0287 8.77395 21.0388 8.74778C21.049 8.72161 21.0538 8.69368 21.053 8.66563ZM19.0306 10.2481C18.0576 9.42088 16.8537 8.91302 15.5822 8.79347C14.3107 8.67391 13.0332 8.94845 11.9231 9.57983L10.7306 7.75948C12.2549 6.86255 14.0232 6.46895 15.7841 6.63463C17.545 6.80031 19.2089 7.51684 20.5392 8.68236L19.0306 10.2481Z" fill="#4164A9"/>
<path d="M21.34 8.95583C21.3112 8.95545 21.2827 8.96098 21.2562 8.97209C21.2296 8.9832 21.2057 8.99965 21.1858 9.02041L19.3823 10.8927C19.3456 10.9307 19.3246 10.9811 19.3233 11.0339C19.322 11.0867 19.3406 11.1381 19.3754 11.1779C20.2779 12.2097 20.7865 13.5274 20.8113 14.898C20.8122 14.9533 20.8349 15.0061 20.8743 15.0449C20.9138 15.0837 20.9669 15.1054 21.0222 15.1054H23.6126C23.6405 15.1054 23.6681 15.0999 23.6939 15.0891C23.7196 15.0784 23.743 15.0626 23.7626 15.0428C23.7822 15.0229 23.7977 14.9994 23.8082 14.9735C23.8186 14.9476 23.8239 14.9199 23.8235 14.892C23.7997 12.7148 22.9692 10.6239 21.4927 9.02372C21.4732 9.0026 21.4496 8.98568 21.4233 8.97401C21.3971 8.96234 21.3687 8.95615 21.34 8.95583Z" fill="#4164A9"/>
<path d="M23.5926 15.3867H20.9935C20.9411 15.3867 20.8907 15.4062 20.8519 15.4413C20.8131 15.4765 20.7887 15.5248 20.7836 15.5769C20.6359 17.0097 19.9634 18.3372 18.8957 19.304C17.8279 20.2707 16.4403 20.8083 14.9999 20.8133C11.7951 20.8133 9.1878 18.2055 9.1878 15C9.18616 14.1191 9.38577 13.2495 9.77139 12.4575C10.157 11.6655 10.7184 10.972 11.4129 10.43C11.4543 10.3974 11.482 10.3504 11.4906 10.2983C11.4991 10.2463 11.4878 10.1929 11.4589 10.1488L10.0337 7.9733C10.0179 7.94921 9.99733 7.9286 9.97329 7.91275C9.94924 7.8969 9.9222 7.88614 9.89384 7.88114C9.86548 7.87613 9.83639 7.87699 9.80837 7.88366C9.78036 7.89032 9.754 7.90266 9.73093 7.9199C9.38771 8.17655 9.06331 8.45744 8.76019 8.76041C7.75216 9.76822 7.00326 11.0052 6.57755 12.3656C6.15184 13.7259 6.06201 15.1692 6.31572 16.5718C6.56943 17.9745 7.15915 19.2948 8.03442 20.4198C8.90969 21.5449 10.0445 22.4412 11.3417 23.032C12.6389 23.6228 14.0599 23.8906 15.4831 23.8125C16.9064 23.7344 18.2896 23.3127 19.5143 22.5834C20.7391 21.8541 21.7689 20.839 22.5158 19.625C23.2627 18.4109 23.7043 17.0339 23.803 15.6119C23.8049 15.5831 23.801 15.5542 23.7913 15.527C23.7816 15.4997 23.7664 15.4748 23.7467 15.4537C23.7269 15.4325 23.7031 15.4157 23.6766 15.4042C23.6501 15.3927 23.6215 15.3867 23.5926 15.3867ZM20.9413 20.9427C19.3653 22.5184 17.228 23.4036 14.9994 23.4035C12.7708 23.4034 10.6336 22.518 9.05783 20.9421C7.48207 19.3661 6.59688 17.2288 6.597 15.0002C6.59712 12.7716 7.48253 10.6344 9.05846 9.05861C9.2943 8.82288 9.54369 8.60112 9.80535 8.39444L11.0016 10.2203C10.3003 10.8035 9.7363 11.5343 9.34986 12.3605C8.96342 13.1866 8.76403 14.0879 8.76592 15C8.76592 18.4383 11.5625 21.2352 14.9999 21.2352C16.512 21.2302 17.9711 20.6778 19.1075 19.6802C20.2439 18.6826 20.9806 17.3073 21.1815 15.8086H23.3638C23.1777 17.7496 22.3211 19.565 20.9413 20.9427Z" fill="#4164A9"/>
</svg>
