<svg width="45" height="45" viewBox="0 0 45 45" fill="none" xmlns="http://www.w3.org/2000/svg">
<rect width="45" height="45" rx="2" fill="#5BC4D6"/>
<path d="M36.5303 33.6674H35.1305C34.8728 33.6674 34.6639 33.8762 34.6639 34.1339C34.6639 34.3917 34.8728 34.6005 35.1305 34.6005H36.5303C36.788 34.6005 36.9969 34.3917 36.9969 34.1339C36.9969 33.8762 36.788 33.6674 36.5303 33.6674Z" fill="#141621"/>
<path d="M15.5329 20.6023H19.2658C19.5235 20.6023 19.7324 20.3934 19.7324 20.1357C19.7324 19.878 19.5235 19.6691 19.2658 19.6691H15.5329C15.2752 19.6691 15.0663 19.878 15.0663 20.1357C15.0663 20.3934 15.2752 20.6023 15.5329 20.6023Z" fill="#141621"/>
<path d="M15.5329 22.4688H19.2658C19.5235 22.4688 19.7324 22.2599 19.7324 22.0022C19.7324 21.7445 19.5235 21.5356 19.2658 21.5356H15.5329C15.2752 21.5356 15.0663 21.7445 15.0663 22.0022C15.0663 22.2598 15.2752 22.4688 15.5329 22.4688Z" fill="#141621"/>
<path d="M19.2658 23.4019H15.5329C15.2752 23.4019 15.0663 23.6108 15.0663 23.8685C15.0663 24.1262 15.2752 24.3351 15.5329 24.3351H19.2658C19.5235 24.3351 19.7324 24.1262 19.7324 23.8685C19.7324 23.6108 19.5235 23.4019 19.2658 23.4019Z" fill="#141621"/>
<path d="M17.3993 25.2684C16.3685 25.2684 15.5329 26.1041 15.5329 27.1349C15.5329 28.1656 16.3685 29.0013 17.3993 29.0013C18.4301 29.0013 19.2657 28.1656 19.2657 27.1349C19.2658 26.104 18.4302 25.2684 17.3993 25.2684ZM17.3993 28.0681C16.8839 28.0681 16.4661 27.6503 16.4661 27.1349C16.4661 26.6194 16.8839 26.2016 17.3993 26.2016C17.9147 26.2016 18.3326 26.6194 18.3326 27.1349C18.3326 27.6503 17.9147 28.0681 17.3993 28.0681Z" fill="#141621"/>
<path d="M30.4644 19.6691H26.7315C26.4738 19.6691 26.2649 19.878 26.2649 20.1357C26.2649 20.3934 26.4738 20.6023 26.7315 20.6023H30.4644C30.7221 20.6023 30.931 20.3934 30.931 20.1357C30.931 19.878 30.7221 19.6691 30.4644 19.6691Z" fill="#141621"/>
<path d="M30.4644 21.5355H26.7315C26.4738 21.5355 26.2649 21.7444 26.2649 22.0021C26.2649 22.2598 26.4738 22.4687 26.7315 22.4687H30.4644C30.7221 22.4687 30.931 22.2598 30.931 22.0021C30.931 21.7444 30.7221 21.5355 30.4644 21.5355Z" fill="#141621"/>
<path d="M30.4644 23.4019H26.7315C26.4738 23.4019 26.2649 23.6108 26.2649 23.8685C26.2649 24.1262 26.4738 24.3351 26.7315 24.3351H30.4644C30.7221 24.3351 30.931 24.1262 30.931 23.8685C30.931 23.6108 30.7221 23.4019 30.4644 23.4019Z" fill="#141621"/>
<path d="M28.5979 25.2684C27.5671 25.2684 26.7315 26.1041 26.7315 27.1349C26.7315 28.1656 27.5671 29.0013 28.5979 29.0013C29.6287 29.0013 30.4643 28.1656 30.4643 27.1349C30.4644 26.104 29.6288 25.2684 28.5979 25.2684ZM28.5979 28.0681C28.0825 28.0681 27.6647 27.6503 27.6647 27.1349C27.6647 26.6194 28.0825 26.2016 28.5979 26.2016C29.1133 26.2016 29.5312 26.6194 29.5312 27.1349C29.5312 27.6503 29.1133 28.0681 28.5979 28.0681Z" fill="#141621"/>
<path d="M33.2638 33.6678H30.3978C30.2271 33.0148 29.7172 32.5049 29.0643 32.3342V30.8681H30.9307C31.9615 30.8681 32.7971 30.0325 32.7971 29.0017V25.7653C35.8284 24.609 37.5508 21.4023 36.8409 18.2366C36.131 15.0709 33.2042 12.9067 29.9695 13.1556H29.9625C28.6805 9.72552 25.2171 7.61873 21.5816 8.05754C17.9461 8.49635 15.0834 11.3667 14.6544 15.0034C13.8016 15.0151 12.9643 15.2331 12.2141 15.6389C10.243 16.5786 8.99119 18.5712 9.00005 20.7548C9.07622 23.2479 10.7861 25.3927 13.1995 26.0224V29.0016C13.1995 30.0324 14.0352 30.8681 15.0659 30.8681H16.9324V32.3342C16.2794 32.5049 15.7695 33.0148 15.5988 33.6677H9.46669C9.20898 33.6677 9.0001 33.8766 9.0001 34.1343C9.0001 34.392 9.20898 34.6009 9.46669 34.6009H15.5989C15.8084 35.4241 16.5496 36.0003 17.3991 36.0003C18.2485 36.0003 18.9897 35.4241 19.1993 34.6009H26.7975C27.0071 35.4241 27.7483 36.0003 28.5977 36.0003C29.4472 36.0003 30.1884 35.4241 30.3979 34.6009H33.2639C33.5216 34.6009 33.7305 34.392 33.7305 34.1343C33.7305 33.8766 33.5215 33.6678 33.2638 33.6678ZM31.8639 29.0016C31.8639 29.5171 31.4461 29.9349 30.9307 29.9349H26.2646C25.7492 29.9349 25.3314 29.5171 25.3314 29.0016V19.6695C25.3314 19.1541 25.7492 18.7363 26.2646 18.7363H30.9307C31.4461 18.7363 31.8639 19.1541 31.8639 19.6695V29.0016ZM13.1995 19.6695V25.0513C11.3038 24.4501 9.99431 22.7175 9.93328 20.7296C9.93328 18.909 10.9838 17.2519 12.6303 16.475C13.3587 16.0532 14.2017 15.8722 15.0389 15.958C15.1646 15.9691 15.2894 15.9288 15.3848 15.8463C15.4803 15.7639 15.5383 15.6462 15.5457 15.5203C15.7451 12.1558 18.3142 9.41133 21.6582 8.99028C25.0022 8.56924 28.1714 10.5913 29.1986 13.8013C29.2675 14.0175 29.482 14.1528 29.7068 14.1219C29.8178 14.1063 29.9292 14.0944 30.0409 14.0859C32.9475 13.8337 35.5512 15.8802 35.9929 18.7641C36.3983 21.253 35.0899 23.7058 32.7971 24.7554V19.6694C32.7971 18.6386 31.9615 17.803 30.9307 17.803H26.2646C25.2338 17.803 24.3982 18.6386 24.3982 19.6694V25.2687H21.5986V19.6694C21.5986 18.6386 20.7629 17.803 19.7321 17.803H15.0661C14.0352 17.803 13.1995 18.6387 13.1995 19.6695ZM15.066 29.9349C14.5506 29.9349 14.1328 29.5171 14.1328 29.0016V19.6695C14.1328 19.1541 14.5506 18.7363 15.066 18.7363H19.7321C20.2475 18.7363 20.6653 19.1541 20.6653 19.6695V29.0017C20.6653 29.5171 20.2475 29.9349 19.7321 29.9349H15.066V29.9349ZM17.399 35.0676C16.8836 35.0676 16.4658 34.6498 16.4658 34.1344C16.4658 33.6189 16.8836 33.2011 17.399 33.2011C17.9144 33.2011 18.3323 33.6189 18.3323 34.1344C18.3323 34.6498 17.9144 35.0676 17.399 35.0676ZM26.7975 33.6678H19.1992C19.0285 33.0148 18.5186 32.5049 17.8657 32.3342V30.8681H19.7321C20.7629 30.8681 21.5985 30.0325 21.5985 29.0017V26.202H24.3982V29.0017C24.3982 30.0325 25.2338 30.8681 26.2646 30.8681H28.131V32.3342C27.4781 32.5049 26.9682 33.0148 26.7975 33.6678ZM28.5976 35.0676C28.0822 35.0676 27.6644 34.6498 27.6644 34.1344C27.6644 33.6189 28.0822 33.2011 28.5976 33.2011C29.1131 33.2011 29.5309 33.6189 29.5309 34.1344C29.5309 34.6498 29.1131 35.0676 28.5976 35.0676Z" fill="#141621"/>
</svg>
