<svg width="60" height="60" viewBox="0 0 60 60" fill="none" xmlns="http://www.w3.org/2000/svg">
<rect width="60" height="60" rx="18" fill="#EFF4FD"/>
<path d="M44.3375 33.3313V25.0824C45.9954 24.6781 47.2084 23.2224 47.2084 21.4432C47.2084 19.381 45.5506 17.7232 43.4884 17.7232C42.437 17.7232 41.4666 18.168 40.7792 18.8958L33.6625 14.8118C33.7838 14.4883 33.8243 14.1244 33.8243 13.7201C33.8243 11.6579 32.1664 10 30.1042 10C28.042 10 26.3841 11.6579 26.3841 13.7201C26.3841 14.084 26.465 14.4479 26.5459 14.7714L19.4292 18.8958C18.7418 18.168 17.7714 17.7232 16.7201 17.7232C14.6579 17.7232 13 19.381 13 21.4432C13 23.2224 14.2535 24.6781 15.8709 25.0824V33.2908C14.2131 33.6952 13 35.1509 13 36.93C13 38.9922 14.6579 40.6501 16.7201 40.6501C17.7714 40.6501 18.7418 40.2053 19.4292 39.4775L26.5459 43.6019C26.465 43.9254 26.3841 44.2893 26.3841 44.6532C26.3841 46.7154 28.042 48.3733 30.1042 48.3733C32.1664 48.3733 33.8243 46.7154 33.8243 44.6532C33.8243 44.2893 33.7434 43.9254 33.6625 43.6019L40.7792 39.4775C41.4666 40.2053 42.437 40.6501 43.4884 40.6501C45.5506 40.6501 47.2084 38.9922 47.2084 36.93C47.2489 35.1913 45.9954 33.6952 44.3375 33.3313ZM40.7792 34.3826L33.6625 30.2986C33.7838 29.9751 33.8243 29.6112 33.8243 29.2069C33.8243 28.8429 33.7434 28.479 33.6625 28.1555L40.7792 24.0311C41.2644 24.5568 41.9114 24.9207 42.6392 25.0824V33.2908C41.9114 33.493 41.3048 33.8569 40.7792 34.3826ZM30.1042 31.2286C28.972 31.2286 28.0824 30.2986 28.0824 29.2069C28.0824 28.1151 29.0124 27.1851 30.1042 27.1851C31.196 27.1851 32.126 28.1151 32.126 29.2069C32.126 30.2986 31.2364 31.2286 30.1042 31.2286ZM17.5692 33.3313V25.0824C18.297 24.9207 18.944 24.5163 19.4292 24.0311L26.5459 28.1555C26.465 28.479 26.3841 28.8429 26.3841 29.2069C26.3841 29.5708 26.465 29.9347 26.5459 30.2582L19.4292 34.3826C18.9036 33.8569 18.297 33.493 17.5692 33.3313ZM43.4884 19.4215C44.6205 19.4215 45.5101 20.3515 45.5101 21.4432C45.5101 22.535 44.5801 23.465 43.4884 23.465C42.3562 23.465 41.4666 22.535 41.4666 21.4432C41.4666 20.3515 42.3966 19.4215 43.4884 19.4215ZM39.93 20.3919C39.8087 20.7154 39.7683 21.0793 39.7683 21.4432C39.7683 21.8072 39.8492 22.1711 39.93 22.535L32.8134 26.6594C32.3282 26.1338 31.6812 25.7698 30.9534 25.5677V17.3593C31.6812 17.1975 32.3282 16.7932 32.8134 16.3079L39.93 20.3919ZM30.1042 11.6983C31.2364 11.6983 32.126 12.6283 32.126 13.7201C32.126 14.8118 31.196 15.7418 30.1042 15.7418C29.0124 15.7418 28.0824 14.8118 28.0824 13.7201C28.0824 12.6283 28.972 11.6983 30.1042 11.6983ZM27.395 16.2675C27.8803 16.7932 28.5272 17.1571 29.2551 17.3593V25.5677C28.5272 25.7294 27.8803 26.1338 27.395 26.6594L20.2784 22.535C20.3997 22.2115 20.4401 21.8476 20.4401 21.4432C20.4401 21.0793 20.3593 20.7154 20.2784 20.3515L27.395 16.2675ZM14.6579 21.4837C14.6579 20.3515 15.5879 19.4619 16.6796 19.4619C17.8118 19.4619 18.7014 20.3919 18.7014 21.4837C18.7014 22.5754 17.7714 23.5055 16.6796 23.5055C15.5879 23.5055 14.6579 22.5754 14.6579 21.4837ZM16.7201 38.9922C15.5879 38.9922 14.6983 38.0622 14.6983 36.9705C14.6983 35.8383 15.6283 34.9487 16.7201 34.9487C17.8523 34.9487 18.7418 35.8787 18.7418 36.9705C18.7418 38.0622 17.8118 38.9922 16.7201 38.9922ZM20.2784 38.0218C20.3997 37.6983 20.4401 37.3344 20.4401 36.93C20.4401 36.5661 20.3593 36.2022 20.2784 35.8787L27.395 31.7543C27.8803 32.2799 28.5272 32.6439 29.2551 32.846V41.0545C28.5272 41.2162 27.8803 41.6205 27.395 42.1462L20.2784 38.0218ZM30.1042 46.7154C28.972 46.7154 28.0824 45.7854 28.0824 44.6936C28.0824 43.5615 29.0124 42.6719 30.1042 42.6719C31.196 42.6719 32.126 43.6019 32.126 44.6936C32.126 45.7854 31.2364 46.7154 30.1042 46.7154ZM32.8134 42.1058C32.3282 41.5801 31.6812 41.2162 30.9534 41.014V32.846C31.6812 32.6843 32.3282 32.28 32.8134 31.7947L39.93 35.9191C39.8087 36.2426 39.7683 36.6065 39.7683 36.9705C39.7683 37.3344 39.8492 37.6983 39.93 38.0622L32.8134 42.1058ZM43.4884 38.9922C42.3562 38.9922 41.4666 38.0622 41.4666 36.9705C41.4666 35.8383 42.3966 34.9487 43.4884 34.9487C44.6205 34.9487 45.5101 35.8787 45.5101 36.9705C45.5506 38.0622 44.6205 38.9922 43.4884 38.9922Z" fill="#4164A9"/>
</svg>
