<svg width="38" height="38" viewBox="0 0 38 38" fill="none"
      xmlns="http://www.w3.org/2000/svg">
  <rect width="38" height="38" rx="9.80645" fill="#0B1224"/>
  <mask id="mask0_11407_10061" style="mask-type:alpha" maskUnits="userSpaceOnUse" x="0" y="0" width="38"
        height="38">
    <rect width="38" height="38" rx="4" fill="#151F36"/>
  </mask>
  <g mask="url(#mask0_11407_10061)">
    <path
      d="M19.5932 7.68794L19.5932 7.68802L19.6026 7.69254L28.1019 11.7622C28.3911 11.9191 28.596 12.1545 28.6816 12.4109L30.7883 21.478C30.8189 21.7928 30.7432 22.096 30.5706 22.3456L24.6936 29.6145C24.6876 29.6219 24.6817 29.6295 24.6761 29.6372C24.488 29.8934 24.2212 30.0072 23.9524 29.9777C23.9302 29.9753 23.9079 29.9741 23.8855 29.9741H14.5271C14.2252 29.9517 13.9073 29.8064 13.6778 29.5869L7.82309 22.3456C7.64771 22.092 7.57936 21.7939 7.62836 21.4947L9.71827 12.3275L9.71868 12.3257C9.74852 12.1929 9.80864 12.0689 9.89435 11.9632C9.98006 11.8576 10.089 11.7731 10.2128 11.7166L10.2128 11.7167L10.224 11.7113L18.6733 7.63869C18.802 7.61536 18.9611 7.6129 19.1699 7.6129C19.351 7.6129 19.4927 7.63765 19.5932 7.68794Z"
      stroke="white" stroke-width="1.22581" stroke-linejoin="round"/>
    <path
      d="M26.613 19.9254L24.7752 19.5212C24.942 18.2775 24.6411 17.0173 23.9269 15.9691L25.3398 14.8834L24.6461 14.0448L23.2339 15.13C22.3239 14.2278 21.1129 13.6639 19.8141 13.5376V11.9023H18.7016V13.5376C17.4028 13.6639 16.1918 14.2278 15.2819 15.13L13.8691 14.0448L13.176 14.8834L14.5888 15.9691C13.8749 17.0174 13.5742 18.2775 13.7411 19.5212L11.9033 19.9254L12.1514 20.9709L13.9853 20.5672C14.4028 21.7636 15.2433 22.7805 16.3599 23.44L15.6201 24.9214L16.6224 25.3862L17.3617 23.9064C18.5855 24.3437 19.9314 24.3437 21.1552 23.9064L21.895 25.3862L22.8973 24.9208L22.1575 23.44C23.2741 22.7805 24.1147 21.7636 24.5321 20.5672L26.366 20.9704L26.613 19.9254ZM23.7078 18.8724C23.7078 19.0102 23.6994 19.1464 23.6861 19.2815L20.9049 18.6692C20.8909 18.5608 20.8654 18.4541 20.8287 18.3507L23.0514 16.642C23.4801 17.3126 23.7073 18.0847 23.7078 18.8724ZM18.7016 18.8724C18.7016 18.7664 18.7343 18.6627 18.7954 18.5745C18.8565 18.4864 18.9434 18.4176 19.045 18.3771C19.1467 18.3365 19.2585 18.3259 19.3664 18.3466C19.4743 18.3672 19.5734 18.4183 19.6512 18.4933C19.729 18.5683 19.782 18.6638 19.8034 18.7678C19.8249 18.8718 19.8139 18.9796 19.7718 19.0776C19.7297 19.1756 19.6584 19.2593 19.5669 19.3182C19.4754 19.3771 19.3679 19.4086 19.2579 19.4086C19.1104 19.4086 18.9689 19.3521 18.8646 19.2515C18.7602 19.151 18.7016 19.0146 18.7016 18.8724ZM22.3595 15.8024L20.1367 17.5111C20.035 17.4506 19.9269 17.4008 19.8141 17.3626V14.6207C20.7736 14.7368 21.6673 15.152 22.3595 15.8029V15.8024ZM18.7016 14.6207V17.3631C18.5889 17.4014 18.4807 17.4512 18.379 17.5116L16.1563 15.8029C16.8484 15.152 17.7422 14.7368 18.7016 14.6207ZM14.808 18.8724C14.8085 18.0847 15.0357 17.3126 15.4643 16.642L17.6871 18.3507C17.6504 18.4541 17.6249 18.5608 17.6109 18.6692L14.8297 19.281C14.8158 19.1452 14.8085 19.0089 14.808 18.8724ZM15.0767 20.3265L17.8445 19.7174C17.9098 19.8214 17.987 19.918 18.0748 20.0053L16.8438 22.47C16.0287 21.9598 15.4085 21.2072 15.0772 20.3265H15.0767ZM19.2579 23.1617C18.7774 23.1609 18.3002 23.0849 17.845 22.9365L19.0799 20.4637C19.1389 20.4725 19.1983 20.4782 19.2579 20.4809C19.3173 20.4782 19.3765 20.4725 19.4353 20.4637L20.6707 22.9365C20.2156 23.085 19.7384 23.1611 19.2579 23.1617ZM21.6719 22.47L20.441 20.0048C20.5287 19.9176 20.606 19.8212 20.6713 19.7174L23.4391 20.3265C23.1078 21.2072 22.4876 21.9598 21.6725 22.47H21.6719Z"
      fill="white"/>
  </g>
</svg>