<svg width="35" height="35" viewBox="0 0 35 35" fill="none" xmlns="http://www.w3.org/2000/svg">
<circle cx="17.5" cy="17.5" r="17.5" fill="#4164A9"/>
<path d="M17.5 15.8571C14.9525 15.8571 12.3965 15.375 11 14.3393V15.8571C11 17.1161 13.9115 18.1429 17.5 18.1429C21.0885 18.1429 24 17.1161 24 15.8571V14.3393C22.6035 15.375 20.0475 15.8571 17.5 15.8571ZM17.5 22.7143C14.9525 22.7143 12.3965 22.2321 11 21.1964V22.7143C11 23.9732 13.9115 25 17.5 25C21.0885 25 24 23.9732 24 22.7143V21.1964C22.6035 22.2321 20.0475 22.7143 17.5 22.7143ZM17.5 19.2857C14.9525 19.2857 12.3965 18.8036 11 17.7679V19.2857C11 20.5446 13.9115 21.5714 17.5 21.5714C21.0885 21.5714 24 20.5446 24 19.2857V17.7679C22.6035 18.8036 20.0475 19.2857 17.5 19.2857ZM17.5 9C13.9115 9 11 10.0268 11 11.2857V12.4286C11 13.6875 13.9115 14.7143 17.5 14.7143C21.0885 14.7143 24 13.6875 24 12.4286V11.2857C24 10.0268 21.0885 9 17.5 9Z" fill="white"/>
</svg>
