<svg width="45" height="45" viewBox="0 0 45 45" fill="none" xmlns="http://www.w3.org/2000/svg">
<rect width="45" height="45" rx="2" fill="#5BC4D6"/>
<path d="M31.3018 13.2264H32.3584C32.6502 13.2264 32.8867 12.9899 32.8867 12.6981C32.8867 12.4064 32.6502 12.1699 32.3584 12.1699H31.3018C31.01 12.1699 30.7735 12.4064 30.7735 12.6981C30.7735 12.9899 31.0101 13.2264 31.3018 13.2264Z" fill="black"/>
<path d="M28.132 13.2264H29.1886C29.4804 13.2264 29.7169 12.9899 29.7169 12.6981C29.7169 12.4064 29.4804 12.1699 29.1886 12.1699H28.132C27.8402 12.1699 27.6037 12.4064 27.6037 12.6981C27.6037 12.9899 27.8403 13.2264 28.132 13.2264Z" fill="black"/>
<path d="M28.132 19.566H29.1886C29.4804 19.566 29.7169 19.3295 29.7169 19.0377C29.7169 18.746 29.4804 18.5095 29.1886 18.5095H28.132C27.8402 18.5095 27.6037 18.746 27.6037 19.0377C27.6037 19.3295 27.8403 19.566 28.132 19.566Z" fill="black"/>
<path d="M14.9245 14.283C15.7998 14.283 16.5094 13.5734 16.5094 12.6981C16.5094 11.8228 15.7998 11.1132 14.9245 11.1132C14.0492 11.1132 13.3396 11.8228 13.3396 12.6981C13.3396 13.5735 14.0492 14.283 14.9245 14.283ZM14.9245 12.1698C15.2163 12.1698 15.4528 12.4063 15.4528 12.6981C15.4528 12.9899 15.2163 13.2264 14.9245 13.2264C14.6327 13.2264 14.3962 12.9899 14.3962 12.6981C14.3962 12.4063 14.6327 12.1698 14.9245 12.1698Z" fill="black"/>
<path d="M14.9245 20.6226C15.7998 20.6226 16.5094 19.9131 16.5094 19.0377C16.5094 18.1624 15.7998 17.4528 14.9245 17.4528C14.0492 17.4528 13.3396 18.1624 13.3396 19.0377C13.3396 19.913 14.0492 20.6226 14.9245 20.6226ZM14.9245 18.5094C15.2163 18.5094 15.4528 18.7459 15.4528 19.0377C15.4528 19.3295 15.2163 19.566 14.9245 19.566C14.6327 19.566 14.3962 19.3295 14.3962 19.0377C14.3962 18.7459 14.6327 18.5094 14.9245 18.5094Z" fill="black"/>
<path d="M14.9245 23.7924C14.0492 23.7924 13.3396 24.502 13.3396 25.3773C13.3396 26.2526 14.0492 26.9622 14.9245 26.9622C15.7998 26.9622 16.5094 26.2526 16.5094 25.3773C16.5094 24.502 15.7998 23.7924 14.9245 23.7924ZM14.9245 25.9056C14.6327 25.9056 14.3962 25.6691 14.3962 25.3773C14.3962 25.0855 14.6327 24.849 14.9245 24.849C15.2163 24.849 15.4528 25.0856 15.4528 25.3773C15.4528 25.669 15.2163 25.9056 14.9245 25.9056Z" fill="black"/>
<path d="M34.4716 34.8867H27.6037C27.6037 34.3031 27.1306 33.8301 26.5471 33.8301H24.4339V30.6603C24.4339 30.3685 24.1973 30.132 23.9056 30.132H21.7924C21.5007 30.132 21.2642 30.3685 21.2642 30.6603V33.8301H19.151C18.5674 33.8301 18.0944 34.3031 18.0944 34.8867H7.52828C7.2365 34.8867 7 35.1232 7 35.415C7 35.7068 7.2365 35.9433 7.52828 35.9433H18.0943C18.0943 36.5268 18.5674 36.9999 19.1509 36.9999H26.5471C27.1307 36.9999 27.6038 36.5268 27.6038 35.9433H34.4716C34.7634 35.9433 34.9999 35.7068 34.9999 35.415C34.9999 35.1232 34.7634 34.8867 34.4716 34.8867ZM22.3207 31.1886H23.3773V33.8302H22.3207V31.1886ZM26.5471 35.9433H19.1509V34.8867H26.5471V35.9433H26.5471Z" fill="black"/>
<path d="M38.1697 34.8867H36.5848C36.293 34.8867 36.0565 35.1232 36.0565 35.415C36.0565 35.7068 36.293 35.9433 36.5848 35.9433H38.1697C38.4615 35.9433 38.698 35.7068 38.698 35.415C38.698 35.1232 38.4615 34.8867 38.1697 34.8867Z" fill="black"/>
<path d="M38.1697 21.6793C37.1963 21.6283 36.25 21.3405 35.413 20.8409C35.4878 20.599 35.5266 20.3475 35.5282 20.0944V17.9812C35.5258 17.1465 35.1277 16.3624 34.4552 15.868C35.1278 15.3736 35.5258 14.5895 35.5282 13.7548V11.6415C35.5265 10.1834 34.3448 9.0018 32.8867 9H12.8113C11.3531 9.0018 10.1715 10.1834 10.1698 11.6415V13.7547C10.1722 14.5894 10.5703 15.3735 11.2428 15.8679C10.5702 16.3623 10.1722 17.1464 10.1698 17.9811V20.0942C10.1722 20.9289 10.5703 21.713 11.2428 22.2074C10.5702 22.7018 10.1722 23.4859 10.1698 24.3206V26.4338C10.1715 27.8919 11.3531 29.0735 12.8113 29.0753H29.2795C30.2864 30.559 31.6115 31.7996 33.1583 32.7068C33.1842 32.7196 33.211 32.7303 33.2386 32.7391C33.2528 32.7438 33.2661 32.7518 33.2809 32.7555C33.3246 32.7672 33.3698 32.7732 33.415 32.7734C33.4601 32.7732 33.5051 32.7672 33.5487 32.7555C33.5643 32.7504 33.5797 32.7444 33.5946 32.7375C33.6209 32.7293 33.6465 32.7191 33.6712 32.7069L33.6781 32.7032C33.9338 32.5622 38.698 29.8383 38.698 25.3773V22.2075C38.698 21.9158 38.4615 21.6793 38.1697 21.6793ZM11.2264 13.7548V11.6415C11.2264 10.7662 11.936 10.0566 12.8113 10.0566H32.8867C33.762 10.0566 34.4716 10.7662 34.4716 11.6415V13.7547C34.4716 14.63 33.7621 15.3396 32.8867 15.3396H12.8113C11.936 15.3397 11.2264 14.63 11.2264 13.7548ZM11.2264 20.0944V17.9812C11.2264 17.1059 11.936 16.3963 12.8113 16.3963H32.8867C33.762 16.3963 34.4716 17.1059 34.4716 17.9812V20.0849C34.2414 19.8441 34.0389 19.5783 33.8678 19.2924C33.864 19.2856 33.8567 19.2824 33.8525 19.2755C33.8312 19.2472 33.8074 19.2211 33.7811 19.1973C33.7577 19.1715 33.7319 19.1479 33.704 19.1271C33.6977 19.1229 33.694 19.116 33.6871 19.1118C33.6646 19.1017 33.6412 19.0934 33.6174 19.087C33.5849 19.0715 33.5509 19.0592 33.516 19.0505C33.4122 19.027 33.3034 19.0404 33.2085 19.0885C33.1861 19.0944 33.1642 19.1022 33.143 19.1117C33.1367 19.1154 33.133 19.1223 33.1266 19.1265C33.0725 19.1715 33.0226 19.2214 32.9777 19.2755C32.9735 19.2823 32.966 19.2855 32.9624 19.2924C31.556 21.6375 28.6879 21.6793 28.6604 21.6793H12.8114C11.936 21.6793 11.2264 20.9696 11.2264 20.0944ZM12.8113 28.0189C11.936 28.0189 11.2264 27.3093 11.2264 26.434V24.3208C11.2264 23.4455 11.936 22.7359 12.8113 22.7359H28.132V25.3773C28.1383 26.2893 28.3378 27.1896 28.7174 28.0189H12.8113ZM37.6414 25.3773C37.6414 28.6998 34.3585 31.0259 33.4149 31.6266C32.4698 31.0302 29.1885 28.7088 29.1885 25.3773V22.6989C30.8304 22.5306 32.3442 21.7359 33.4149 20.48C34.4857 21.7359 35.9995 22.5306 37.6414 22.6989V25.3773Z" fill="black"/>
<path d="M31.9849 28.3924C32.1912 28.5986 32.5256 28.5986 32.7319 28.3924L35.9017 25.2226C36.1019 25.0153 36.0991 24.6858 35.8953 24.482C35.6915 24.2782 35.362 24.2754 35.1547 24.4756L31.9849 27.6454C31.7787 27.8517 31.7787 28.186 31.9849 28.3924Z" fill="black"/>
<path d="M31.4566 25.0038C31.3193 25.1365 31.2642 25.3329 31.3125 25.5176C31.3609 25.7023 31.5051 25.8465 31.6898 25.8949C31.8745 25.9432 32.0709 25.8881 32.2036 25.7508L34.3168 23.6376C34.517 23.4304 34.5142 23.1008 34.3104 22.8971C34.1065 22.6933 33.7771 22.6904 33.5698 22.8906L31.4566 25.0038Z" fill="black"/>
</svg>
