<svg width="31" height="31" viewBox="0 0 31 31" fill="none" xmlns="http://www.w3.org/2000/svg">
<rect width="31" height="31" rx="8" fill="#EDF4FF"/>
<mask id="mask0" mask-type="alpha" maskUnits="userSpaceOnUse" x="0" y="0" width="31" height="31">
<rect width="31" height="31" fill="#CAEDF3"/>
</mask>
<g mask="url(#mask0)">
<path d="M13.8432 19.5702C13.3728 18.3349 12.7011 17.4565 11.297 17.4565C9.89289 17.4565 9.21703 18.3349 8.7466 19.5702C7.86635 19.8003 6.69336 20.5969 6.69336 21.5468C6.69336 22.6768 7.61265 23.592 8.7466 23.592H13.8432C14.9772 23.592 15.8965 22.6768 15.8965 21.5468C15.8965 20.5989 14.7214 19.8013 13.8432 19.5702Z" fill="#4164A9"/>
<path fill-rule="evenodd" clip-rule="evenodd" d="M19.5236 8.2158L19.6613 8.25286L18.4916 9.60454C17.419 9.32357 16.615 9.14669 15.8106 9.11555C14.981 9.08345 14.1157 9.2069 12.9453 9.60089C12.8072 10.0759 12.5471 10.6199 12.1194 11.0985C11.6416 11.6331 10.9687 12.0684 10.0783 12.2356C10.1336 13.4027 10.3505 14.9078 10.8286 16.4339C10.8145 16.4337 10.8004 16.4337 10.7863 16.4337C10.2396 16.4337 9.71626 16.5334 9.23363 16.7157C8.63999 14.7392 8.44187 12.8211 8.45684 11.4964L8.46582 10.7017H9.26055C10.0924 10.7017 10.5993 10.387 10.9207 10.0273C11.2654 9.64162 11.4222 9.17155 11.4581 8.89015L11.5199 8.40596L11.978 8.23753C13.5021 7.67722 14.6842 7.46322 15.8728 7.50922C17.0346 7.55418 18.1594 7.84853 19.5236 8.2158ZM15.4292 24.3152C15.4493 24.3233 15.4695 24.3313 15.4896 24.3393L15.7469 24.441L16.0122 24.3628C18.4181 23.6539 22.6342 20.0479 22.899 11.5304L22.9238 10.7335L21.2237 12.6981C20.7789 18.0953 18.5905 20.8911 16.91 22.1102C16.8318 23.0737 16.251 23.8954 15.4292 24.3152Z" fill="#4164A9"/>
<path d="M20.3186 6.3626L21.8428 7.8L16.3982 13.5734L17.3753 14.4948L22.8198 8.7214L24.305 10.1219L24.3859 6.04289L20.3186 6.3626Z" fill="#4164A9"/>
</g>
</svg>
