<svg width="60" height="54" viewBox="0 0 60 54" fill="none" xmlns="http://www.w3.org/2000/svg">
<path d="M23.5172 6.38672L29.3367 0.567187C29.7059 0.201563 30.2965 0.201563 30.6621 0.567187L36.4887 6.39023C36.8543 6.75586 36.8543 7.35 36.4887 7.71562C36.4016 7.80312 36.298 7.8725 36.184 7.91977C36.0699 7.96703 35.9477 7.99125 35.8242 7.99102H32.4562V14.857C32.4564 14.98 32.4323 15.1019 32.3853 15.2155C32.3383 15.3292 32.2693 15.4325 32.1824 15.5195C32.0954 15.6064 31.9921 15.6754 31.8784 15.7224C31.7648 15.7694 31.6429 15.7935 31.5199 15.7934H28.4836C28.3606 15.7935 28.2388 15.7694 28.1251 15.7224C28.0114 15.6754 27.9081 15.6064 27.8212 15.5195C27.7342 15.4325 27.6652 15.3292 27.6182 15.2155C27.5712 15.1019 27.5471 14.98 27.5473 14.857V7.99102H24.1758C24.0528 7.99117 23.931 7.96706 23.8173 7.92006C23.7036 7.87306 23.6003 7.80409 23.5134 7.71712C23.4264 7.63014 23.3574 7.52686 23.3104 7.41319C23.2634 7.29952 23.2393 7.17769 23.2395 7.05469C23.2383 6.79219 23.3449 6.55664 23.5172 6.38672ZM53.9062 10.4531C53.7363 10.2809 53.5008 10.1707 53.2383 10.1707C52.7203 10.1707 52.302 10.5926 52.302 11.1105V14.4691L52.2059 14.4656C46.7812 14.3695 42.9012 14.2992 42.5461 22.2457C42.5156 22.5375 42.6293 22.8434 42.8719 23.0496C43.2668 23.3812 43.8586 23.332 44.1902 22.9371C44.782 22.2398 45.2168 21.6516 45.5824 21.157C46.5855 19.7953 46.9383 19.3195 49.3629 19.3395C50.2395 19.3465 50.768 19.3559 51.2965 19.3629C51.6059 19.3664 51.9176 19.3723 52.3031 19.3758V22.7613C52.3031 23.0004 52.3957 23.2395 52.5785 23.4223C52.9441 23.7879 53.5383 23.7879 53.9039 23.4223L59.727 17.5992C60.0926 17.2301 60.0926 16.6395 59.727 16.2738L53.9062 10.4531ZM0.274219 16.2727C-0.0914062 16.6383 -0.0914062 17.2289 0.274219 17.598L6.10078 23.4211C6.46641 23.7867 7.06055 23.7867 7.42617 23.4211C7.51333 23.3345 7.58253 23.2315 7.62979 23.1181C7.67705 23.0047 7.70144 22.883 7.70156 22.7602V19.3746C8.08711 19.3711 8.39531 19.3652 8.70469 19.3617C9.23672 19.3547 9.76406 19.3453 10.6383 19.3383C13.0664 19.3184 13.4156 19.793 14.4223 21.1559C14.7879 21.6504 15.2227 22.2387 15.8145 22.9359C16.1461 23.3309 16.7379 23.3812 17.1305 23.0484C17.3766 22.8422 17.4855 22.5363 17.4598 22.2445C17.1047 14.2992 13.2211 14.3684 7.8 14.4645L7.70391 14.468V11.1094C7.70391 10.5914 7.28203 10.1695 6.76406 10.1695C6.50508 10.1695 6.26953 10.2797 6.09609 10.452L0.274219 16.2727ZM30.0012 31.4309L46.8094 26.475L30.7254 20.3859C30.2402 20.2031 29.7621 20.2031 29.277 20.3859L13.1895 26.475L30.0012 31.4309ZM48.2156 27.9996C48.1723 28.0195 48.1254 28.0359 48.0797 28.05L30.9387 33.1055V53.707L46.7906 49.0336C47.6742 48.7711 48.259 47.9906 48.259 47.0672V28.4379C48.259 28.2844 48.2414 28.1391 48.2156 27.9996ZM29.0648 33.1043L11.9238 28.0488C11.877 28.0359 11.8312 28.0184 11.7879 27.9984C11.7574 28.1379 11.7445 28.2844 11.7445 28.4367V47.066C11.7445 47.9895 12.3293 48.7699 13.2129 49.0324L29.0648 53.7059V33.1043Z" fill="#4164A9"/>
</svg>
