<svg width="45" height="45" viewBox="0 0 45 45" fill="none" xmlns="http://www.w3.org/2000/svg">
<rect width="45" height="45" rx="2" fill="#5BC4D6"/>
<path d="M16.5268 8C12.3765 8 9 11.3765 9 15.5268C9 19.6773 12.3765 23.0538 16.5268 23.0538C20.6773 23.0538 24.0538 19.6773 24.0538 15.5268C24.0538 11.3765 20.6773 8 16.5268 8V8ZM21.043 20.4794C19.8503 21.5678 18.2648 22.2326 16.5268 22.2326C14.789 22.2326 13.2032 21.5678 12.0108 20.4794V19.1689C12.0108 18.6395 12.3479 18.1702 12.8497 18.0014L15.1323 17.2334C15.4884 17.5759 15.9598 17.7679 16.4651 17.7679C16.9709 17.7679 17.4432 17.575 17.7998 17.2315L20.1924 18.01C20.7012 18.1755 21.043 18.6463 21.043 19.1812V20.4794ZM17.2875 12.5709L18.2982 13.5818C18.2159 14.4869 17.4531 15.1985 16.5268 15.1985C15.5458 15.1985 14.7477 14.4004 14.7477 13.4194V12.5709H17.2875ZM14.7962 11.7497C14.9821 10.9662 15.6873 10.3813 16.5268 10.3813C17.508 10.3813 18.3061 11.1794 18.3061 12.1603V12.4282L17.6276 11.7497H14.7962ZM17.2627 15.9128V16.6079C17.0549 16.8248 16.7703 16.947 16.4648 16.947C16.1594 16.947 15.8748 16.8248 15.667 16.6079V15.8729C15.9363 15.9675 16.2256 16.0196 16.5268 16.0196C16.7825 16.0196 17.0292 15.9818 17.2627 15.9128ZM20.4466 17.2294L18.0839 16.4605V15.5005C18.7169 15.0259 19.127 14.2696 19.127 13.4194V12.1603C19.127 10.7267 17.9606 9.56009 16.5268 9.56009C15.0932 9.56009 13.9268 10.7267 13.9268 12.1603V13.4194C13.9268 14.2126 14.2842 14.9235 14.8458 15.4008V16.4635L12.5878 17.2232C11.7515 17.5045 11.1896 18.2864 11.1896 19.1689V19.5816C10.3315 18.4547 9.82117 17.0493 9.82117 15.5268C9.82117 11.8292 12.8292 8.82117 16.5268 8.82117C20.2244 8.82117 23.2326 11.8292 23.2326 15.5268C23.2326 17.0493 22.7223 18.4547 21.8642 19.5816V19.1812C21.8642 18.2896 21.2944 17.5052 20.4466 17.2294Z" fill="black"/>
<path d="M29.4732 20.9462C25.3227 20.9462 21.9462 24.3227 21.9462 28.4732C21.9462 32.6234 25.3227 36 29.4732 36C33.6235 36 37 32.6234 37 28.4732C37 24.3227 33.6235 20.9462 29.4732 20.9462ZM33.9892 33.4258C32.7968 34.5142 31.211 35.1788 29.4732 35.1788C27.7352 35.1788 26.1497 34.5142 24.957 33.4258V32.1424C24.957 31.613 25.2941 31.1439 25.7959 30.9751L28.0785 30.2072C28.4348 30.5494 28.906 30.7414 29.4113 30.7414C29.9173 30.7414 30.3894 30.5485 30.746 30.205L33.1388 30.9837C33.6474 31.1492 33.9892 31.6198 33.9892 32.1548V33.4258ZM30.2337 25.5444L31.2446 26.5553C31.1621 27.4604 30.3993 28.172 29.4732 28.172C28.492 28.172 27.6939 27.3739 27.6939 26.3929V25.5444H30.2337ZM27.7424 24.7232C27.9283 23.9397 28.6335 23.3548 29.4732 23.3548C30.4542 23.3548 31.2523 24.1529 31.2523 25.1338V25.4017L30.5738 24.7232H27.7424ZM30.2089 28.8865V29.5815C30.0011 29.7983 29.7167 29.9205 29.4113 29.9205C29.1056 29.9205 28.8212 29.7983 28.6132 29.5815V28.8464C28.8825 28.941 29.1718 28.9931 29.4732 28.9931C29.7287 28.9931 29.9754 28.9555 30.2089 28.8865ZM33.3928 30.2029L31.0301 29.4341V28.474C31.6631 27.9994 32.0732 27.2431 32.0732 26.3929V25.1338C32.0732 23.7002 30.9068 22.5336 29.4732 22.5336C28.0394 22.5336 26.873 23.7002 26.873 25.1338V26.3929C26.873 27.1861 27.2304 27.897 27.7922 28.3745V29.437L25.534 30.1969C24.6979 30.4782 24.1358 31.2601 24.1358 32.1426V32.528C23.2777 31.4011 22.7674 29.9957 22.7674 28.4732C22.7674 24.7756 25.7756 21.7673 29.4732 21.7673C33.1708 21.7673 36.1788 24.7756 36.1788 28.4732C36.1788 29.9957 35.6685 31.4009 34.8104 32.5277V32.1548C34.8104 31.2633 34.2406 30.4789 33.3928 30.2029Z" fill="black"/>
<path d="M26.1815 9.66925C25.9094 9.59833 25.6317 9.53574 25.3554 9.4834L25.2125 10.2362C25.4716 10.2856 25.7329 10.3443 25.9882 10.4107L26.1815 9.66925Z" fill="black"/>
<path d="M27.7867 10.2053C27.5265 10.0982 27.2594 9.9989 26.993 9.91003L26.7504 10.637C27.0005 10.7205 27.2513 10.8139 27.4955 10.9141L27.7867 10.2053Z" fill="black"/>
<path d="M19.8091 34.2671C20.0811 34.3361 20.3594 34.3969 20.6363 34.4478L20.7747 33.6941C20.5147 33.6463 20.2532 33.589 19.9977 33.5243L19.8091 34.2671Z" fill="black"/>
<path d="M18.2006 33.7408C18.4605 33.8459 18.7282 33.9435 18.9961 34.0311L19.2343 33.3026C18.9828 33.2204 18.7316 33.1287 18.4875 33.03L18.2006 33.7408Z" fill="black"/>
<path d="M31.3018 17.5342L29.5997 16.6966L29.2372 17.4334L34.4152 19.981L35.7642 14.37L34.9657 14.1779L34.416 16.4652C33.7997 15.1792 32.9704 14.0098 31.9393 12.9787C30.9434 11.9828 29.806 11.1667 28.5587 10.553L28.2205 11.2408C29.3922 11.8172 30.461 12.5843 31.3973 13.5206C32.606 14.7291 33.5194 16.1384 34.1165 17.7106L33.8568 18.7911L32.4761 18.1118C31.4223 15.5067 29.3305 13.4316 26.7111 12.4032L26.4109 13.1675C28.5157 13.994 30.2504 15.5552 31.3018 17.5342Z" fill="black"/>
<path d="M14.6228 26.3961L16.1886 27.1665L16.5509 26.4297L11.3729 23.882L10.0241 29.4933L10.8224 29.6851L11.4075 27.2509C12.0317 28.6159 12.8924 29.853 13.9787 30.9393C14.9928 31.9531 16.1527 32.7803 17.4264 33.3976L17.7607 32.7079C16.564 32.1281 15.4741 31.3505 14.5207 30.3973C13.2505 29.1271 12.3077 27.6386 11.7151 25.9715L11.9313 25.0719L13.4468 25.8174C14.5115 28.4418 16.63 30.5246 19.2763 31.5419L19.5711 30.7754C17.4428 29.9572 15.6858 28.3901 14.6228 26.3961Z" fill="black"/>
<path d="M27.3929 32.8798H28.2141V33.7008H27.3929V32.8798Z" fill="black"/>
<path d="M29.0353 32.8798H29.8562V33.7008H29.0353V32.8798Z" fill="black"/>
<path d="M30.6774 32.8798H31.4986V33.7008H30.6774V32.8798Z" fill="black"/>
<path d="M17.7312 19.5231H18.5524V20.344H17.7312V19.5231Z" fill="black"/>
<path d="M14.4468 19.5231H15.2679V20.344H14.4468V19.5231Z" fill="black"/>
<path d="M16.0889 19.5231H16.91V20.344H16.0889V19.5231Z" fill="black"/>
</svg>
