<svg width="60" height="60" viewBox="0 0 60 60" fill="none" xmlns="http://www.w3.org/2000/svg">
<rect width="60" height="60" rx="18" fill="#EFF4FD"/>
<path d="M30.5234 20.1593H29.7578V21.4995H30.5234V20.1593Z" fill="#4164A9" stroke="#4164A9" stroke-width="0.5"/>
<path d="M30.5234 22.6722H29.7578V23.7838H30.5234V22.6722Z" fill="#4164A9" stroke="#4164A9" stroke-width="0.5"/>
<path d="M30.4316 32.3234H29.666V33.4351H30.4316V32.3234Z" fill="#4164A9" stroke="#4164A9" stroke-width="0.5"/>
<path d="M30.4316 34.6075H29.666V35.9479H30.4316V34.6075Z" fill="#4164A9" stroke="#4164A9" stroke-width="0.5"/>
<path d="M22.2765 26.8227C22.3344 26.9888 22.5662 26.9888 22.6241 26.8227C22.7395 26.4918 22.9113 26.3203 23.2427 26.2051C23.409 26.1474 23.409 25.9158 23.2427 25.858C22.9113 25.743 22.7395 25.5713 22.6241 25.2405C22.5662 25.0745 22.3344 25.0745 22.2765 25.2405C22.1613 25.5713 21.9893 25.7429 21.6579 25.858C21.4916 25.9158 21.4916 26.1474 21.6579 26.2051C21.9892 26.3202 22.1612 26.4918 22.2765 26.8227Z" fill="#4164A9" stroke="#4164A9" stroke-width="0.5"/>
<path d="M38.5656 32.217C38.6235 32.383 38.8554 32.383 38.9132 32.217C39.0285 31.8862 39.2004 31.7145 39.5317 31.5994C39.6982 31.5416 39.6982 31.3101 39.5317 31.2524C39.2004 31.1372 39.0286 30.9657 38.9132 30.6349C38.8554 30.4687 38.6235 30.4687 38.5656 30.6349C38.4503 30.9657 38.2783 31.1372 37.947 31.2524C37.7807 31.3101 37.7807 31.5416 37.947 31.5994C38.2783 31.7145 38.4503 31.8863 38.5656 32.217Z" fill="#4164A9" stroke="#4164A9" stroke-width="0.5"/>
<path d="M44.6152 35.171H35.4172C35.1726 35.171 34.9743 35.3689 34.9743 35.613V38.2417L30.4312 38.2341V38.2324V37.623V37.1207H29.6656V37.623V38.2324V38.2329L25.0834 38.2251V35.613C25.0834 35.3689 24.8854 35.171 24.6408 35.171H15.4428C15.1982 35.171 15 35.3689 15 35.613V41.9217C15 42.1657 15.1982 42.3637 15.4428 42.3637H19.428L19.2864 43.126L19.1541 43.8445C19.1389 43.9251 19.2015 44.0001 19.2837 44.0001H20.7994C20.8816 44.0001 20.9442 43.9251 20.929 43.8445L20.7967 43.126L20.655 42.3637H24.6407C24.8853 42.3637 25.0834 42.1657 25.0834 41.9217V38.9893L34.9742 39.006V41.9217C34.9742 42.1657 35.1726 42.3637 35.4171 42.3637H39.4024L39.2608 43.126L39.1285 43.8445C39.1132 43.9251 39.1757 44.0001 39.2581 44.0001H40.7737C40.8559 44.0001 40.9186 43.9251 40.9033 43.8445L40.771 43.126L40.6294 42.3637H44.6151C44.8597 42.3637 45.0577 42.1657 45.0577 41.9217V35.613C45.0579 35.3689 44.8597 35.171 44.6152 35.171ZM24.4025 38.2239L22.0228 38.2199V38.9842L24.4025 38.9882V40.8946C24.4025 41.0111 24.308 41.1053 24.1915 41.1053H15.8919C15.7753 41.1053 15.6808 41.011 15.6808 40.8946V36.1652C15.6808 36.0487 15.7754 35.9545 15.8919 35.9545H24.1915C24.308 35.9545 24.4025 36.0488 24.4025 36.1652V38.2239ZM44.377 40.8946C44.377 41.0111 44.2826 41.1053 44.1659 41.1053H35.8663C35.7498 41.1053 35.6553 41.011 35.6553 40.8946V39.0071L38.2584 39.0115V38.2472L35.6553 38.2428V36.1652C35.6553 36.0487 35.7498 35.9545 35.8663 35.9545H44.1659C44.2826 35.9545 44.377 36.0488 44.377 36.1652V40.8946Z" fill="#4164A9" stroke="#4164A9" stroke-width="0.5"/>
<path d="M28.1697 26.358C28.1028 26.5365 27.9271 26.6335 27.7515 26.6024C27.6577 26.5858 27.5615 26.577 27.4634 26.577C26.6355 26.577 25.9373 27.172 25.71 27.9885C25.6664 28.1449 25.5297 28.2553 25.3788 28.2501C25.2166 28.2444 25.0459 28.2736 24.8681 28.3544C24.3859 28.5737 24.0439 29.0756 24.0372 29.6419C24.028 30.4271 24.6109 31.067 25.3329 31.0711L35.002 31.0681C35.7032 31.0336 36.2605 30.4003 36.2446 29.6282C36.2331 29.0674 35.8929 28.573 35.4156 28.3552C35.2372 28.2738 35.066 28.2444 34.9032 28.2501C34.7524 28.2553 34.6156 28.1449 34.572 27.9885C34.3447 27.172 33.6466 26.577 32.8187 26.577C32.7499 26.577 32.6822 26.5815 32.6156 26.59C32.4578 26.61 32.3134 26.5066 32.253 26.3474C31.9229 25.478 31.1351 25.0096 30.2134 25.0096C29.2879 25.0097 28.4974 25.4829 28.1697 26.358Z" fill="#4164A9" stroke="#4164A9" stroke-width="0.5"/>
<path d="M21.0903 37.1938C20.9888 37.1545 20.8734 37.1818 20.8002 37.2621L19.7188 38.4509C19.6268 38.552 19.6277 38.7066 19.7207 38.8066L20.802 39.9713C20.8756 40.0506 20.9905 40.0768 21.0916 40.0375C21.1924 39.9979 21.2589 39.9005 21.2589 39.7924V39.208V38.9829V38.2186V37.9833V37.439C21.2589 37.3304 21.1919 37.2329 21.0903 37.1938Z" fill="#4164A9" stroke="#4164A9" stroke-width="0.5"/>
<path d="M39.4804 37.26C39.4066 37.1805 39.2919 37.1543 39.1908 37.1938C39.0899 37.2333 39.0234 37.3306 39.0234 37.4388V38.0078V38.2483V39.0125V39.2324V39.7922C39.0234 39.9009 39.0906 39.9984 39.1921 40.0376C39.2937 40.0769 39.4089 40.0495 39.4822 39.969L40.5635 38.7805C40.6555 38.6793 40.6547 38.5248 40.5617 38.4246L39.4804 37.26Z" fill="#4164A9" stroke="#4164A9" stroke-width="0.5"/>
<path d="M21.0903 16.0699C20.9888 16.0308 20.8734 16.058 20.8002 16.1383L19.7188 17.3271C19.6268 17.4283 19.6277 17.5828 19.7207 17.6829L20.802 18.8475C20.8756 18.9269 20.9905 18.9531 21.0916 18.9137C21.1924 18.8741 21.2589 18.7768 21.2589 18.6686V18.3384V17.8594V17.0952V16.5951V16.3153C21.2589 16.2067 21.1919 16.1091 21.0903 16.0699Z" fill="#4164A9" stroke="#4164A9" stroke-width="0.5"/>
<path d="M39.4804 16.1366C39.4066 16.0572 39.2919 16.0309 39.1908 16.0703C39.0899 16.11 39.0234 16.2072 39.0234 16.3155V16.6303V17.1246V17.8888V18.3734V18.6687C39.0234 18.7774 39.0906 18.8748 39.1921 18.9142C39.2937 18.9532 39.4089 18.9261 39.4822 18.8456L40.5635 17.6568C40.6555 17.5558 40.6547 17.4012 40.5617 17.3011L39.4804 16.1366Z" fill="#4164A9" stroke="#4164A9" stroke-width="0.5"/>
<path d="M44.6156 14H35.4177C35.1731 14 34.9748 14.1979 34.9748 14.4419V17.1178L25.0845 17.1014V14.4539C25.0845 14.2092 24.8855 14.012 24.6406 14.012H15.4426C15.199 14.012 15 14.2093 15 14.4539V20.7627C15 21.0058 15.199 21.2046 15.4426 21.2046H19.4283L19.2868 21.9664L19.1545 22.6848C19.1393 22.7654 19.2019 22.8405 19.2841 22.8405H20.7998C20.8821 22.8405 20.9446 22.7654 20.9294 22.6848L20.7971 21.9664L20.6556 21.2046H24.6405C24.8854 21.2046 25.0845 21.0058 25.0845 20.7627V17.8658L29.7583 17.8735V17.8748V18.2184V18.9864H30.5239V18.2184V17.8747L34.9747 17.882V20.7507C34.9747 20.9948 35.173 21.1926 35.4176 21.1926H39.4029L39.2613 21.9549L39.129 22.6733C39.1137 22.7541 39.1762 22.829 39.2585 22.829H40.7742C40.8564 22.829 40.9191 22.7541 40.9038 22.6733L40.7715 21.9549L40.6299 21.1926H44.6156C44.8601 21.1926 45.0582 20.9948 45.0582 20.7507V14.442C45.0583 14.1979 44.8602 14 44.6156 14ZM24.403 17.1004L22.0233 17.0964V17.8607L24.403 17.8647V19.7351C24.403 19.8514 24.3084 19.9458 24.1919 19.9458H15.8923C15.7758 19.9458 15.6813 19.8514 15.6813 19.7351V15.0055C15.6813 14.8892 15.7758 14.7948 15.8923 14.7948H24.1919C24.3085 14.7948 24.403 14.8892 24.403 15.0055V17.1004ZM44.3775 19.7236C44.3775 19.8401 44.283 19.9344 44.1664 19.9344H35.8668C35.7503 19.9344 35.6557 19.8401 35.6557 19.7236V17.8832L38.2589 17.8875V17.1233L35.6557 17.1189V14.9941C35.6557 14.8777 35.7503 14.7833 35.8668 14.7833H44.1664C44.2831 14.7833 44.3775 14.8778 44.3775 14.9941V19.7236Z" fill="#4164A9" stroke="#4164A9" stroke-width="0.5"/>
</svg>
