<svg width="31" height="31" viewBox="0 0 31 31" fill="none" xmlns="http://www.w3.org/2000/svg">
<rect width="31" height="31" rx="8" fill="#EDF4FF"/>
<mask id="mask0" mask-type="alpha" maskUnits="userSpaceOnUse" x="0" y="0" width="31" height="31">
<rect width="31" height="31" fill="#CAEDF3"/>
</mask>
<g mask="url(#mask0)">
<path d="M15.2438 12.5098V14.6289H7.2168V15.9874H15.2438V18.0522L18.3016 15.281L15.2438 12.5098Z" fill="#4164A9"/>
<path fill-rule="evenodd" clip-rule="evenodd" d="M20.192 8.05107C18.8119 7.67953 17.6752 7.38211 16.5012 7.33667C15.3005 7.29021 14.106 7.50634 12.5652 8.0728L12.1071 8.24123L12.0453 8.72542C12.0087 9.01164 11.8495 9.48894 11.4995 9.88065C11.1726 10.2464 10.6575 10.5659 9.8133 10.5659H9.01856L9.00958 11.3606C9.00344 11.9041 9.03279 12.5466 9.10998 13.2517H10.728C10.6789 12.8427 10.6475 12.456 10.6308 12.1005C11.5333 11.9329 12.2147 11.4927 12.6981 10.9518C13.1311 10.4673 13.3939 9.91628 13.5329 9.43595C14.7199 9.03593 15.5974 8.91044 16.439 8.94301C17.2836 8.9757 18.1276 9.16703 19.2735 9.46962C19.498 10.4185 20.0478 11.0803 20.6822 11.5057C21.0998 11.7858 21.5483 11.961 21.96 12.0614C21.5287 19.2257 18.1213 22.0712 16.4404 22.7356C14.1857 21.7421 12.7309 19.7679 11.8306 17.5783C11.8047 17.5153 11.7793 17.4522 11.7544 17.389L10.0394 17.389C10.1332 17.6564 10.2345 17.9237 10.3438 18.1896C11.3756 20.6991 13.1593 23.1736 16.1174 24.3425L16.3747 24.4442L16.64 24.366C19.0689 23.6503 23.3316 20.007 23.5993 11.3946L23.6246 10.583L22.8127 10.566C22.5039 10.5596 22.0006 10.4543 21.5775 10.1706C21.1857 9.90788 20.8472 9.48681 20.7838 8.75757L20.7351 8.19727L20.192 8.05107Z" fill="#4164A9"/>
</g>
</svg>
