<svg width="31" height="31" viewBox="0 0 31 31" fill="none" xmlns="http://www.w3.org/2000/svg">
<rect width="31" height="31" rx="8" fill="#EDF4FF"/>
<mask id="mask0" mask-type="alpha" maskUnits="userSpaceOnUse" x="0" y="0" width="31" height="31">
<rect width="31" height="31" fill="#CAEDF3"/>
</mask>
<g mask="url(#mask0)">
<path fill-rule="evenodd" clip-rule="evenodd" d="M19.1564 8.25309L19.0188 8.21604C17.6545 7.84878 16.5298 7.55443 15.3679 7.50946C14.1793 7.46347 12.9972 7.67746 11.4732 8.23778L11.015 8.40621L10.9532 8.8904C10.9173 9.1718 10.7605 9.64188 10.4159 10.0276C10.0944 10.3873 9.58755 10.702 8.75567 10.702H7.96093L7.95195 11.4966C7.93311 13.1639 8.25182 15.7711 9.27173 18.2517C10.2924 20.734 12.0571 23.1827 14.9848 24.3396L15.242 24.4413L15.5074 24.3631C17.9133 23.6542 22.1294 20.0482 22.3942 11.5307L22.4189 10.7337L20.7189 12.6983C20.1666 19.3998 16.9262 22.0907 15.3076 22.7326C13.0835 21.7511 11.6476 19.8027 10.7585 17.6404C9.97124 15.7256 9.64326 13.7108 9.57342 12.2358C10.4638 12.0687 11.1367 11.6334 11.6145 11.0987C12.0422 10.6201 12.3023 10.0761 12.4404 9.60114C13.6108 9.20714 14.4761 9.08369 15.3057 9.1158C16.1102 9.14693 16.9142 9.32381 17.9868 9.60477L19.1564 8.25309Z" fill="#4164A9"/>
<path d="M19.8137 6.36282L21.3379 7.80022L15.8934 13.5736L16.8704 14.495L22.315 8.72163L23.8001 10.1222L23.8811 6.0431L19.8137 6.36282Z" fill="#4164A9"/>
</g>
</svg>
