<svg width="39" height="31" viewBox="0 0 39 31" fill="none" xmlns="http://www.w3.org/2000/svg">
<path d="M0 8.66274V28.6543C0 29.7871 0.866309 30.6535 1.99917 30.6535H36.6511C37.784 30.6535 38.6503 29.7871 38.6503 28.6543V8.66274C38.6503 7.52988 37.784 6.66357 36.6511 6.66357H1.99917C0.866309 6.66357 0 7.59654 0 8.66274Z" fill="#4164A9"/>
<path d="M35.3192 6.66385C35.3192 5.19778 34.1196 3.99834 32.6537 3.99834H21.9915L18.6595 0H3.99917C2.86631 0 2 0.932966 2 1.99917V6.66385H35.3192Z" fill="#D2E1FF"/>
<path d="M11.9941 11.3289H3.99747C3.59761 11.3289 3.33105 11.0624 3.33105 10.6625C3.33105 10.2626 3.59761 9.99609 3.99747 9.99609H11.9941C12.3939 9.99609 12.6605 10.2626 12.6605 10.6625C12.6605 11.0624 12.3939 11.3289 11.9941 11.3289Z" fill="white"/>
<path d="M11.9941 13.994H3.99747C3.59761 13.994 3.33105 13.7274 3.33105 13.3275C3.33105 12.9277 3.59761 12.6611 3.99747 12.6611H11.9941C12.3939 12.6611 12.6605 12.9277 12.6605 13.3275C12.6605 13.7274 12.3939 13.994 11.9941 13.994Z" fill="white"/>
</svg>
