<svg id="Layer_3" enable-background="new 0 0 64 64" height="512" viewBox="0 0 64 64" width="512" xmlns="http://www.w3.org/2000/svg"><g><path d="m32 62 15.339-8.67c4.734-2.676 7.661-7.692 7.661-13.129 0-2.11-.443-4.197-1.3-6.125l-.399-.897c-1.517-3.415-2.301-7.11-2.301-10.846 0-2.87.463-5.721 1.37-8.444l1.63-4.889-4-4-2.368 1.421c-1.722 1.033-3.693 1.579-5.701 1.579-3.705 0-7.165-1.852-9.22-4.935l-.711-1.065-.71 1.065c-2.056 3.083-5.515 4.935-9.221 4.935-2.008 0-3.979-.546-5.701-1.579l-2.368-1.421-4 4 1.63 4.889c.908 2.723 1.37 5.574 1.37 8.444 0 3.736-.784 7.431-2.301 10.845l-.399.897c-.857 1.929-1.3 4.015-1.3 6.126 0 5.437 2.927 10.454 7.661 13.129z" fill="#2b74ca"/><circle cx="32" cy="33" fill="#3d98f7" r="14"/><path d="m32 36-4 2 1-4-3-3h4l2-4 2 4h4l-3 3 1 4z" fill="#f5b953"/><g><path d="m32 44c-6.065 0-11-4.935-11-11h2c0 4.962 4.037 9 9 9z" fill="#fff"/></g><g><path d="m43 33h-2c0-4.962-4.037-9-9-9v-2c6.065 0 11 4.935 11 11z" fill="#fff"/></g><path d="m9.386 33.669c-.919 2.068-1.386 4.266-1.386 6.532 0 5.788 3.13 11.152 8.168 14l15.34 8.67c.152.086.322.129.492.129s.34-.043.492-.129l15.34-8.67c5.038-2.848 8.168-8.212 8.168-14 0-2.266-.467-4.463-1.386-6.531l-.398-.897c-1.471-3.308-2.216-6.82-2.216-10.44 0-2.767.443-5.502 1.318-8.128l1.63-4.889c.12-.359.026-.756-.241-1.023l-4-4c-.325-.326-.828-.387-1.222-.15l-2.368 1.421c-1.566.939-3.359 1.436-5.186 1.436-3.378 0-6.515-1.678-8.389-4.489l-.71-1.065c-.371-.557-1.293-.557-1.664 0l-.71 1.065c-1.874 2.811-5.011 4.489-8.389 4.489-1.827 0-3.62-.497-5.187-1.437l-2.368-1.421c-.394-.236-.897-.175-1.222.15l-4 4c-.267.269-.36.665-.24 1.024l1.63 4.889c.875 2.627 1.318 5.361 1.318 8.128 0 3.619-.745 7.131-2.216 10.439zm1.828.812.398-.896c1.584-3.565 2.388-7.351 2.388-11.252 0-2.982-.479-5.93-1.422-8.761l-1.433-4.302 3.011-3.011 1.698 1.019c1.876 1.127 4.026 1.722 6.215 1.722 3.976 0 7.672-1.94 9.931-5.2 2.259 3.26 5.954 5.2 9.931 5.2 2.189 0 4.339-.595 6.216-1.722l1.698-1.019 3.011 3.011-1.434 4.303c-.943 2.831-1.422 5.778-1.422 8.76 0 3.901.804 7.686 2.388 11.25l.398.897c.806 1.812 1.214 3.737 1.214 5.721 0 5.067-2.74 9.765-7.152 12.259l-14.848 8.392-14.848-8.392c-4.412-2.494-7.152-7.192-7.152-12.259 0-1.984.408-3.909 1.214-5.72z"/><path d="m27.893 34.307-.862 3.451c-.095.379.039.778.344 1.023.306.245.725.288 1.073.114l3.552-1.777 3.553 1.776c.141.071.295.106.447.106.223 0 .444-.075.626-.22.305-.245.438-.644.344-1.023l-.862-3.451 2.6-2.6c.286-.286.372-.716.217-1.09-.155-.372-.521-.616-.925-.616h-3.382l-1.724-3.447c-.34-.678-1.449-.678-1.789 0l-1.723 3.447h-3.382c-.404 0-.77.244-.924.617-.155.374-.069.804.217 1.09zm2.107-2.307c.379 0 .725-.214.895-.553l1.105-2.211 1.105 2.211c.17.339.516.553.895.553h1.586l-1.293 1.293c-.248.249-.349.609-.263.95l.473 1.891-2.056-1.028c-.14-.071-.294-.106-.447-.106s-.307.035-.447.105l-2.056 1.028.473-1.891c.086-.341-.015-.701-.263-.95l-1.293-1.292z"/><path d="m32 44v-2c-4.963 0-9-4.038-9-9h-2c0 6.065 4.935 11 11 11z"/><path d="m41 33h2c0-6.065-4.935-11-11-11v2c4.963 0 9 4.038 9 9z"/><path d="m32 48c8.271 0 15-6.729 15-15s-6.729-15-15-15-15 6.729-15 15 6.729 15 15 15zm0-28c7.168 0 13 5.832 13 13s-5.832 13-13 13-13-5.832-13-13 5.832-13 13-13z"/></g></svg>