<svg width="28" height="28" viewBox="0 0 28 28" fill="none" xmlns="http://www.w3.org/2000/svg">
<rect width="28" height="28" rx="6" fill="#D7DCE3"/>
<mask id="mask0" mask-type="alpha" maskUnits="userSpaceOnUse" x="1" y="1" width="26" height="26">
<rect x="1" y="1" width="25.6667" height="25.6667" fill="#C4C4C4"/>
</mask>
<g mask="url(#mask0)">
<rect x="5.8" y="5.8" width="16.4" height="16.4" stroke="#5C638B" stroke-width="1.6"/>
<rect x="9" y="8" width="10" height="3" fill="#5C638B"/>
<rect x="9" y="15" width="7" height="1" fill="#5C638B"/>
<rect x="9" y="17" width="3" height="1" fill="#5C638B"/>
<rect x="9" y="13" width="6" height="1" fill="#5C638B"/>
<rect x="18" y="15" width="1" height="1" fill="#5C638B"/>
<circle cx="21.6667" cy="6.66667" r="4.66667" fill="#F4F7FC"/>
<path d="M21.6667 2C19.0893 2 17 4.08934 17 6.66665C17 9.24402 19.0893 11.3333 21.6667 11.3333C24.244 11.3333 26.3333 9.24399 26.3333 6.66665C26.3333 4.08932 24.244 2 21.6667 2ZM23.6947 7.84806C23.9285 8.08186 23.9285 8.46093 23.6947 8.69473C23.5778 8.81162 23.4246 8.87009 23.2714 8.87009C23.1182 8.87009 22.965 8.81162 22.8481 8.69473L21.6667 7.51335L20.4852 8.69473C20.3684 8.81162 20.2151 8.87009 20.0619 8.87009C19.9087 8.87009 19.7555 8.81165 19.6386 8.69473C19.4048 8.46093 19.4048 8.08186 19.6386 7.84806L20.82 6.66668L19.6386 5.48528C19.4048 5.25148 19.4048 4.87241 19.6386 4.63861C19.8724 4.40481 20.2515 4.40481 20.4852 4.63861L21.6667 5.82001L22.8481 4.63861C23.0819 4.40479 23.461 4.40481 23.6947 4.63861C23.9285 4.87241 23.9285 5.25148 23.6947 5.48528L22.5133 6.66668L23.6947 7.84806Z" fill="#B1122A"/>
</g>
</svg>
