<svg width="28" height="28" viewBox="0 0 28 28" fill="none" xmlns="http://www.w3.org/2000/svg">
<mask id="mask0" mask-type="alpha" maskUnits="userSpaceOnUse" x="0" y="0" width="28" height="28">
<rect width="28" height="28" fill="#C4C4C4"/>
</mask>
<g mask="url(#mask0)">
<path d="M24.1818 26H4C2.34509 26 1 24.6549 1 23V5C1 3.34509 2.34509 2 4 2H24.1818C25.8367 2 27.1818 3.34509 27.1818 5V23C27.1818 24.6549 25.8367 26 24.1818 26ZM4 3.63636C3.24836 3.63636 2.63636 4.24836 2.63636 5V23C2.63636 23.7516 3.24836 24.3636 4 24.3636H24.1818C24.9335 24.3636 25.5455 23.7516 25.5455 23V5C25.5455 4.24836 24.9335 3.63636 24.1818 3.63636H4Z" fill="#E4EAF1"/>
<path d="M26.3636 7.45521H1.81818C1.36655 7.45521 1 7.08867 1 6.63703C1 6.18539 1.36655 5.81885 1.81818 5.81885H26.3636C26.8153 5.81885 27.1818 6.18539 27.1818 6.63703C27.1818 7.08867 26.8153 7.45521 26.3636 7.45521Z" fill="#E4EAF1"/>
<circle cx="7.42031" cy="14.8407" r="1.83437" fill="#E4EAF1"/>
<circle cx="13.8422" cy="14.8407" r="1.83437" fill="#E4EAF1"/>
<circle cx="21.1781" cy="14.8407" r="1.83437" fill="#E4EAF1"/>
</g>
</svg>
