<svg width="38" height="38" viewBox="0 0 38 38" fill="none" xmlns="http://www.w3.org/2000/svg">
<rect width="38" height="38" rx="10" fill="#DFE7F5"/>
<path fill-rule="evenodd" clip-rule="evenodd" d="M14.15 15.8773V14.6136H10.7273V15.8773H14.15ZM16.3091 15.8773V14.6136H14.6136V15.8773H16.3091ZM11.3591 18.0364H15.6773C16.3029 18.0364 16.903 17.7878 17.3454 17.3454C17.7878 16.903 18.0364 16.3029 18.0364 15.6773V11.3591C18.0364 10.7334 17.7878 10.1334 17.3454 9.69096C16.903 9.24855 16.3029 9 15.6773 9H11.3591C10.7334 9 10.1334 9.24855 9.69095 9.69096C9.24854 10.1334 9 10.7334 9 11.3591V15.6773C9 16.3029 9.24854 16.903 9.69095 17.3454C10.1334 17.7878 10.7334 18.0364 11.3591 18.0364ZM10.5845 10.5845C10.7899 10.379 11.0686 10.2636 11.3591 10.2636H15.6773C15.9678 10.2636 16.2464 10.379 16.4519 10.5845C16.6573 10.7899 16.7727 11.0686 16.7727 11.3591V15.6773C16.7727 15.9678 16.6573 16.2464 16.4519 16.4519C16.2464 16.6573 15.9678 16.7727 15.6773 16.7727H11.3591C11.0686 16.7727 10.7899 16.6573 10.5845 16.4519C10.3791 16.2464 10.2636 15.9678 10.2636 15.6773V11.3591C10.2636 11.0686 10.3791 10.7899 10.5845 10.5845ZM21.7227 18.0364H26.0409C26.6666 18.0364 27.2666 17.7878 27.709 17.3454C28.1515 16.903 28.4 16.3029 28.4 15.6773V11.3591C28.4 10.7334 28.1515 10.1334 27.709 9.69096C27.2666 9.24855 26.6666 9 26.0409 9H22.5H21.7227C21.097 9 20.497 9.24855 20.0546 9.69096C19.6122 10.1334 19.3636 10.7334 19.3636 11.3591V15.6773C19.3636 16.3029 19.6122 16.903 20.0546 17.3454C20.497 17.7878 21.097 18.0364 21.7227 18.0364ZM20.9481 10.5845C21.1536 10.379 21.4322 10.2636 21.7227 10.2636H26.0409C26.3315 10.2636 26.6101 10.379 26.8155 10.5845C27.0209 10.7899 27.1364 11.0686 27.1364 11.3591V15.6773C27.1364 15.9678 27.0209 16.2464 26.8155 16.4519C26.6101 16.6573 26.3315 16.7727 26.0409 16.7727H21.7227C21.4322 16.7727 21.1536 16.6573 20.9481 16.4519C20.7427 16.2464 20.6273 15.9678 20.6273 15.6773V11.3591C20.6273 11.0686 20.7427 10.7899 20.9481 10.5845ZM11.3591 28.4H15.6773C16.3029 28.4 16.903 28.1515 17.3454 27.709C17.7878 27.2666 18.0364 26.6666 18.0364 26.0409V21.7227C18.0364 21.097 17.7878 20.497 17.3454 20.0546C16.903 19.6122 16.3029 19.3636 15.6773 19.3636H11.3591C10.7334 19.3636 10.1334 19.6122 9.69095 20.0546C9.24854 20.497 9 21.097 9 21.7227V26.0409C9 26.6666 9.24854 27.2666 9.69095 27.709C10.1334 28.1515 10.7334 28.4 11.3591 28.4ZM10.5845 20.9481C10.7899 20.7427 11.0686 20.6273 11.3591 20.6273H15.6773C15.9678 20.6273 16.2464 20.7427 16.4519 20.9481C16.6573 21.1536 16.7727 21.4322 16.7727 21.7227V26.0409C16.7727 26.3315 16.6573 26.6101 16.4519 26.8155C16.2464 27.0209 15.9678 27.1364 15.6773 27.1364H11.3591C11.0686 27.1364 10.7899 27.0209 10.5845 26.8155C10.3791 26.6101 10.2636 26.3315 10.2636 26.0409V21.7227C10.2636 21.4322 10.3791 21.1536 10.5845 20.9481ZM27.7682 23.25H24.5136V19.9955C24.5136 19.8279 24.4471 19.6672 24.3286 19.5487C24.2101 19.4302 24.0494 19.3636 23.8818 19.3636C23.7143 19.3636 23.5536 19.4302 23.4351 19.5487C23.3166 19.6672 23.25 19.8279 23.25 19.9955V23.25H19.9955C19.8279 23.25 19.6672 23.3166 19.5487 23.4351C19.4302 23.5536 19.3636 23.7143 19.3636 23.8818C19.3636 24.0494 19.4302 24.2101 19.5487 24.3286C19.6672 24.4471 19.8279 24.5136 19.9955 24.5136H23.25V27.7682C23.25 27.9358 23.3166 28.0965 23.4351 28.2149C23.5536 28.3334 23.7143 28.4 23.8818 28.4C24.0494 28.4 24.2101 28.3334 24.3286 28.2149C24.4471 28.0965 24.5136 27.9358 24.5136 27.7682V24.5136H27.7682C27.9358 24.5136 28.0965 24.4471 28.2149 24.3286C28.3334 24.2101 28.4 24.0494 28.4 23.8818C28.4 23.7143 28.3334 23.5536 28.2149 23.4351C28.0965 23.3166 27.9358 23.25 27.7682 23.25Z" fill="#4164A9"/>
</svg>
