<svg width="24" height="22" viewBox="0 0 24 22" fill="none" xmlns="http://www.w3.org/2000/svg">
<path d="M0.778959 0C0.775498 0 0.772422 0 0.768962 0C0.347186 0 0 0.347186 0 0.768962C0 0.810102 0.00346033 0.851241 0.00999651 0.891996L3.27424 20.7082C3.35767 21.2068 3.79137 21.5767 4.29696 21.5809H19.9569C20.336 21.5859 20.6651 21.3095 20.7258 20.935L23.9901 0.895841C23.9966 0.855086 24.0001 0.813947 24.0001 0.772807C24.0001 0.351031 23.6529 0.00384472 23.2311 0.00384472C23.2277 0.00384472 23.2246 0.00384472 23.2211 0.00384472L0.778959 0ZM14.5242 14.3219H9.5259L8.17253 7.25131H15.7353L14.5242 14.3219Z" fill="#2684FF"/>
<path d="M22.9519 7.25122H15.7352L14.5241 14.3218H9.52581L3.62402 21.3271C3.81088 21.4889 4.04964 21.5789 4.29687 21.5808H19.9606C20.3397 21.5858 20.6688 21.3094 20.7296 20.9349L22.9519 7.25122Z" fill="url(#paint0_linear)"/>
<defs>
<linearGradient id="paint0_linear" x1="24.6205" y1="9.2313" x2="12.6939" y2="18.5396" gradientUnits="userSpaceOnUse">
<stop stop-color="#0052CC"/>
<stop offset="0.18" stop-color="#0052CC"/>
<stop offset="1" stop-color="#2684FF"/>
</linearGradient>
</defs>
</svg>
