<svg width="28" height="28" viewBox="0 0 28 28" fill="none" xmlns="http://www.w3.org/2000/svg">
<rect width="28" height="28" rx="6" fill="#DFE7F5"/>
<mask id="mask0" mask-type="alpha" maskUnits="userSpaceOnUse" x="1" y="1" width="26" height="26">
<rect x="1" y="1" width="26" height="26" fill="#C4C4C4"/>
</mask>
<g mask="url(#mask0)">
<rect x="15.7953" y="9.1" width="2.87381" height="2.87381" fill="#5C638B" stroke="#DFE7F5" stroke-width="0.2"/>
<rect x="15.7953" y="12.3319" width="2.87381" height="2.87381" fill="#5C638B" stroke="#DFE7F5" stroke-width="0.2"/>
<rect x="15.7953" y="15.5629" width="2.87381" height="2.87381" fill="#5C638B" stroke="#DFE7F5" stroke-width="0.2"/>
<rect x="19.0258" y="15.5629" width="2.87381" height="2.87381" fill="#5C638B" stroke="#DFE7F5" stroke-width="0.2"/>
<rect x="12.5629" y="15.5629" width="2.87381" height="2.87381" fill="#5C638B" stroke="#DFE7F5" stroke-width="0.2"/>
<rect x="12.5629" y="12.3319" width="2.87381" height="2.87381" fill="#5C638B" stroke="#DFE7F5" stroke-width="0.2"/>
<rect x="9.33242" y="12.3319" width="2.87381" height="2.87381" fill="#5C638B" stroke="#DFE7F5" stroke-width="0.2"/>
<rect x="9.33242" y="15.5629" width="2.87381" height="2.87381" fill="#5C638B" stroke="#DFE7F5" stroke-width="0.2"/>
<rect x="6.1" y="15.5629" width="2.87381" height="2.87381" fill="#5C638B" stroke="#DFE7F5" stroke-width="0.2"/>
<circle cx="21.8346" cy="7.99967" r="4.66667" fill="#5BC4D6"/>
<path d="M21.2426 8.99019L20.1213 7.86887C19.9149 7.66244 19.5802 7.66244 19.3738 7.86887C19.1673 8.0753 19.1673 8.40998 19.3738 8.61641L20.8689 10.1115C21.0753 10.3179 21.41 10.3179 21.6164 10.1115L24.6066 7.12132C24.813 6.91489 24.813 6.5802 24.6066 6.37377C24.4002 6.16734 24.0655 6.16734 23.8591 6.37377L21.2426 8.99019Z" fill="white"/>
</g>
</svg>
