<svg width="16" height="16" viewBox="0 0 16 16" fill="none" xmlns="http://www.w3.org/2000/svg">
<mask id="mask0" mask-type="alpha" maskUnits="userSpaceOnUse" x="0" y="0" width="16" height="16">
<rect width="16" height="16" fill="#C4C4C4"/>
</mask>
<g mask="url(#mask0)">
<circle cx="8" cy="8" r="7" fill="#B1122A"/>
<path d="M10.676 5.32819C10.5103 5.16254 10.2427 5.16254 10.0771 5.32819L8.0002 7.40085L5.92329 5.32394C5.75765 5.1583 5.49007 5.1583 5.32443 5.32394C5.15878 5.48958 5.15878 5.75716 5.32443 5.9228L7.40133 7.99971L5.32443 10.0766C5.15878 10.2423 5.15878 10.5098 5.32443 10.6755C5.49007 10.8411 5.75765 10.8411 5.92329 10.6755L8.0002 8.59857L10.0771 10.6755C10.2427 10.8411 10.5103 10.8411 10.676 10.6755C10.8416 10.5098 10.8416 10.2423 10.676 10.0766L8.59906 7.99971L10.676 5.9228C10.8374 5.76141 10.8374 5.48958 10.676 5.32819Z" fill="white"/>
</g>
</svg>
