<svg width="14" height="14" viewBox="0 0 14 14" fill="none" xmlns="http://www.w3.org/2000/svg">
<path fill-rule="evenodd" clip-rule="evenodd" d="M7 14C10.866 14 14 10.866 14 7C14 3.13401 10.866 0 7 0C3.13401 0 0 3.13401 0 7C0 10.866 3.13401 14 7 14ZM9.67305 3.75103L10.2489 4.32831C10.4702 4.5498 10.5945 4.85011 10.5945 5.16324C10.5945 5.47637 10.4702 5.77668 10.2489 5.99817L6.0602 10.1927L5.91256 10.3404C5.86713 10.386 5.80803 10.4156 5.74425 10.4245L4.23385 10.5958C4.20532 10.5973 4.17674 10.5973 4.14821 10.5958C4.0439 10.5965 3.94064 10.575 3.84522 10.5328C3.74981 10.4907 3.66441 10.4288 3.59466 10.3512C3.52491 10.2737 3.47238 10.1822 3.44056 10.0828C3.40873 9.98351 3.39831 9.87855 3.41 9.7749L3.57979 8.2645C3.58822 8.19811 3.61832 8.13635 3.66542 8.0888L8.0032 3.75103C8.22468 3.52968 8.525 3.40535 8.83812 3.40535C9.15125 3.40535 9.45156 3.52968 9.67305 3.75103ZM9.83103 4.74615L9.25522 4.16886C9.20029 4.11328 9.13488 4.06916 9.06278 4.03904C8.99067 4.00893 8.91331 3.99342 8.83517 3.99342C8.75703 3.99342 8.67967 4.00893 8.60756 4.03904C8.53546 4.06916 8.47005 4.11328 8.41512 4.16886L8.32358 4.2663L9.73506 5.67778L9.83103 5.58033C9.94147 5.46962 10.0035 5.31962 10.0035 5.16324C10.0035 5.00686 9.94147 4.85686 9.83103 4.74615ZM4.4435 8.14639L5.85941 9.55786L9.31723 6.09561L7.90575 4.68414L4.4435 8.14639ZM4.09902 9.99324C4.11999 10.0006 4.14235 10.0032 4.16446 10.0008L5.33822 9.86791L4.13345 8.66314L4.00057 9.83691C3.99813 9.85901 4.00071 9.88138 4.00813 9.90234C4.01554 9.9233 4.02759 9.94232 4.04339 9.95798C4.05904 9.97377 4.07806 9.98582 4.09902 9.99324Z" fill="#E4EAF1"/>
</svg>
