<svg width="14" height="14" viewBox="0 0 14 14" fill="none" xmlns="http://www.w3.org/2000/svg">
<path d="M7 0C5.61553 0 4.26215 0.410543 3.11101 1.17971C1.95987 1.94888 1.06266 3.04213 0.532846 4.32122C0.00303296 5.6003 -0.13559 7.00776 0.134506 8.36563C0.404603 9.7235 1.07129 10.9708 2.05026 11.9497C3.02922 12.9287 4.2765 13.5954 5.63437 13.8655C6.99224 14.1356 8.3997 13.997 9.67879 13.4672C10.9579 12.9373 12.0511 12.0401 12.8203 10.889C13.5895 9.73784 14 8.38447 14 7C13.9976 5.14421 13.2594 3.36511 11.9471 2.05287C10.6349 0.740635 8.85579 0.00237465 7 0ZM7.71795 9.87179C7.71795 10.0622 7.64231 10.2448 7.50767 10.3795C7.37303 10.5141 7.19041 10.5897 7 10.5897C6.80959 10.5897 6.62698 10.5141 6.49234 10.3795C6.35769 10.2448 6.28205 10.0622 6.28205 9.87179V6.46154C6.28205 6.27113 6.35769 6.08851 6.49234 5.95387C6.62698 5.81923 6.80959 5.74359 7 5.74359C7.19041 5.74359 7.37303 5.81923 7.50767 5.95387C7.64231 6.08851 7.71795 6.27113 7.71795 6.46154V9.87179ZM7 4.84615C6.85801 4.84615 6.7192 4.80405 6.60113 4.72516C6.48306 4.64627 6.39104 4.53414 6.3367 4.40295C6.28236 4.27176 6.26815 4.12741 6.29585 3.98814C6.32355 3.84887 6.39193 3.72094 6.49234 3.62054C6.59274 3.52013 6.72067 3.45175 6.85994 3.42405C6.99921 3.39635 7.14356 3.41057 7.27475 3.46491C7.40594 3.51925 7.51806 3.61127 7.59695 3.72933C7.67584 3.8474 7.71795 3.98621 7.71795 4.1282C7.71795 4.31862 7.64231 4.50123 7.50767 4.63587C7.37303 4.77051 7.19041 4.84615 7 4.84615Z" fill="#E4EAF1"/>
</svg>
