<svg width="16" height="16" viewBox="0 0 16 16" fill="none" xmlns="http://www.w3.org/2000/svg">
<mask id="mask0" mask-type="alpha" maskUnits="userSpaceOnUse" x="0" y="0" width="16" height="16">
<rect width="16" height="16" fill="#C4C4C4"/>
</mask>
<g mask="url(#mask0)">
<path d="M8 1C4.12439 1 1 4.12439 1 8C1 11.8756 4.12439 15 8 15C11.8756 15 15 11.8756 15 8C15 4.12439 11.8756 1 8 1ZM10.7488 9.94634C10.7488 10.3732 10.4073 10.7317 9.96342 10.7317H6.05366C5.62683 10.7317 5.26829 10.3902 5.26829 9.94634L5.28537 6.05366C5.28537 5.62683 5.62683 5.26829 6.07073 5.26829H9.96342C10.3902 5.26829 10.7488 5.60976 10.7488 6.05366V9.94634Z" fill="#B1122A"/>
</g>
</svg>
