<svg width="70" height="48" viewBox="0 0 70 48" fill="none" xmlns="http://www.w3.org/2000/svg">
<circle opacity="0.5" cx="18.8904" cy="23.6976" r="18.2078" fill="#D2E1FF"/>
<path d="M26.6055 5.36176H36.7145V19.5144H26.6055V5.36176Z" fill="#D2E1FF"/>
<path d="M26.6055 23.5582H36.7145V37.7108H26.6055V23.5582Z" fill="#D2E1FF"/>
<path d="M45.8125 34.6778H56.9324V46.8086H45.8125V34.6778Z" fill="#D2E1FF"/>
<path d="M45.8125 27.6016H56.9324V31.6452H45.8125V27.6016Z" fill="#D2E1FF"/>
<path d="M54.9142 23.5579H41.7725V7.38348L54.9142 13.4489V23.5579Z" fill="#D2E1FF"/>
<path d="M9.77076 35.2952C9.39684 34.4596 9.32061 33.5211 9.55478 32.6361C9.78895 31.7511 10.3194 30.9731 11.0576 30.4318C10.714 29.9825 10.5029 29.446 10.4482 28.8831C10.3934 28.3201 10.4972 27.753 10.7477 27.2459C10.9983 26.7388 11.3857 26.3119 11.8662 26.0134C12.3466 25.7149 12.901 25.5568 13.4666 25.5568C14.0322 25.5568 14.5866 25.7149 15.067 26.0134C15.5475 26.3119 15.9349 26.7388 16.1855 27.2459C16.4361 27.753 16.5398 28.3201 16.4851 28.8831C16.4303 29.446 16.2192 29.9825 15.8756 30.4318C16.6129 30.9729 17.1427 31.7502 17.3769 32.6343C17.611 33.5184 17.5353 34.456 17.1625 35.2912C17.8342 36.0112 18.281 36.9118 18.448 37.8823C18.6149 38.8528 18.4947 39.851 18.1021 40.7541C17.7095 41.6572 17.0617 42.426 16.2382 42.966C15.4147 43.506 14.4514 43.7937 13.4666 43.7937C12.4819 43.7937 11.5185 43.506 10.695 42.966C9.87151 42.426 9.22368 41.6572 8.8311 40.7541C8.43853 39.851 8.31833 38.8528 8.48526 37.8823C8.6522 36.9118 9.09899 36.0112 9.77076 35.2912V35.2952Z" fill="#D2E1FF"/>
<path d="M63.0021 45.7971H61.9912V23.5573C61.9912 23.2892 61.8847 23.0321 61.6952 22.8425C61.5056 22.6529 61.2485 22.5464 60.9803 22.5464H55.9258V13.4483C55.9258 13.2552 55.8705 13.0661 55.7665 12.9035C55.6624 12.7408 55.5139 12.6114 55.3385 12.5304L42.7842 6.73596V1.31754C42.7842 1.04943 42.6776 0.792307 42.4881 0.602727C42.2985 0.413146 42.0414 0.306641 41.7733 0.306641H21.5553C21.2871 0.306641 21.03 0.413146 20.8404 0.602727C20.6509 0.792307 20.5444 1.04943 20.5444 1.31754V45.7971H14.479V44.6953C15.505 44.5257 16.47 44.0942 17.2804 43.4425C18.0908 42.7907 18.7192 41.9408 19.1048 40.975C19.4904 40.0091 19.6202 38.9601 19.4815 37.9294C19.3429 36.8987 18.9405 35.9213 18.3133 35.0917C18.564 34.2519 18.5899 33.361 18.3884 32.5081C18.1868 31.6552 17.765 30.8701 17.1649 30.2313C17.3936 29.722 17.5118 29.1701 17.5117 28.6118C17.5117 27.5394 17.0856 26.5109 16.3273 25.7526C15.569 24.9943 14.5405 24.5682 13.4681 24.5682C12.3956 24.5682 11.3671 24.9943 10.6088 25.7526C9.85048 26.5109 9.42446 27.5394 9.42446 28.6118C9.42402 29.1714 9.5422 29.7248 9.7712 30.2353C9.17114 30.8739 8.74926 31.6588 8.54773 32.5116C8.3462 33.3644 8.37209 34.2551 8.62281 35.0947C7.99639 35.9243 7.59462 36.9015 7.45636 37.9317C7.3181 38.962 7.44803 40.0105 7.83359 40.9759C8.21914 41.9413 8.84728 42.7908 9.65725 43.4424C10.4672 44.0939 11.4316 44.5255 12.4572 44.6953V45.7971H6.39176C6.12365 45.7971 5.86653 45.9036 5.67695 46.0932C5.48736 46.2828 5.38086 46.5399 5.38086 46.808C5.38086 47.0761 5.48736 47.3333 5.67695 47.5228C5.86653 47.7124 6.12365 47.8189 6.39176 47.8189H63.0021C63.2703 47.8189 63.5274 47.7124 63.717 47.5228C63.9065 47.3333 64.013 47.0761 64.013 46.808C64.013 46.5399 63.9065 46.2828 63.717 46.0932C63.5274 45.9036 63.2703 45.7971 63.0021 45.7971ZM9.42446 38.7208C9.42816 37.7032 9.81717 36.7247 10.5132 35.9823C10.6475 35.8376 10.7366 35.6567 10.7692 35.4619C10.8019 35.2672 10.7769 35.0672 10.6972 34.8865C10.417 34.2609 10.3603 33.558 10.5364 32.8955C10.7125 32.2331 11.1108 31.6512 11.6646 31.2472C11.8791 31.0864 12.0209 30.8469 12.0588 30.5815C12.0967 30.3161 12.0277 30.0465 11.8668 29.832C11.5958 29.4828 11.4479 29.0538 11.4463 28.6118C11.4463 28.0756 11.6593 27.5614 12.0384 27.1822C12.4176 26.803 12.9318 26.59 13.4681 26.59C14.0043 26.59 14.5185 26.803 14.8977 27.1822C15.2768 27.5614 15.4899 28.0756 15.4899 28.6118C15.4872 29.0512 15.3401 29.4774 15.0713 29.8249C14.9105 30.0394 14.8414 30.309 14.8793 30.5744C14.9172 30.8398 15.059 31.0793 15.2735 31.2402C15.8274 31.6441 16.2257 32.226 16.4018 32.8885C16.5779 33.5509 16.5211 34.2538 16.241 34.8794C16.1612 35.0601 16.1362 35.2601 16.1689 35.4549C16.2016 35.6496 16.2906 35.8305 16.4249 35.9752C16.9053 36.4845 17.2441 37.1107 17.4076 37.7915C17.5711 38.4722 17.5536 39.1839 17.3568 39.8558C17.1601 40.5278 16.7909 41.1365 16.2861 41.6216C15.7812 42.1066 15.1582 42.4511 14.479 42.6209V39.7317C14.479 39.4636 14.3725 39.2065 14.1829 39.0169C13.9933 38.8273 13.7362 38.7208 13.4681 38.7208C13.2 38.7208 12.9428 38.8273 12.7532 39.0169C12.5637 39.2065 12.4572 39.4636 12.4572 39.7317V42.6209C11.5917 42.3974 10.8246 41.8935 10.2759 41.1879C9.72724 40.4822 9.42781 39.6147 9.42446 38.7208ZM53.904 14.0953V22.5464H42.7842V8.96298L53.904 14.0953ZM22.5662 2.32844H40.7624V45.7971H22.5662V2.32844ZM46.8278 45.7971V35.6881H55.9258V45.7971H46.8278ZM57.9476 45.7971V34.6772C57.9476 34.4091 57.8411 34.152 57.6516 33.9624C57.462 33.7728 57.2049 33.6663 56.9367 33.6663H45.8168C45.5487 33.6663 45.2916 33.7728 45.102 33.9624C44.9125 34.152 44.806 34.4091 44.806 34.6772V45.7971H42.7842V24.5682H59.9694V45.7971H57.9476Z" fill="#4164A9"/>
<path d="M67.0472 45.7974H66.0363C65.7682 45.7974 65.5111 45.9039 65.3215 46.0935C65.1319 46.2831 65.0254 46.5402 65.0254 46.8083C65.0254 47.0764 65.1319 47.3336 65.3215 47.5231C65.5111 47.7127 65.7682 47.8192 66.0363 47.8192H67.0472C67.3153 47.8192 67.5724 47.7127 67.762 47.5231C67.9516 47.3336 68.0581 47.0764 68.0581 46.8083C68.0581 46.5402 67.9516 46.2831 67.762 46.0935C67.5724 45.9039 67.3153 45.7974 67.0472 45.7974Z" fill="#4164A9"/>
<path d="M36.7195 4.35095H26.6105C26.3424 4.35095 26.0853 4.45746 25.8957 4.64704C25.7061 4.83662 25.5996 5.09374 25.5996 5.36185V19.5144C25.5996 19.7826 25.7061 20.0397 25.8957 20.2293C26.0853 20.4188 26.3424 20.5253 26.6105 20.5253H36.7195C36.9876 20.5253 37.2447 20.4188 37.4343 20.2293C37.6239 20.0397 37.7304 19.7826 37.7304 19.5144V5.36185C37.7304 5.09374 37.6239 4.83662 37.4343 4.64704C37.2447 4.45746 36.9876 4.35095 36.7195 4.35095ZM27.6214 18.5035V6.37275H30.6541V18.5035H27.6214ZM35.7086 18.5035H32.6759V6.37275H35.7086V18.5035Z" fill="#4164A9"/>
<path d="M36.7195 22.5467H26.6105C26.3424 22.5467 26.0853 22.6532 25.8957 22.8428C25.7061 23.0324 25.5996 23.2895 25.5996 23.5576V37.7102C25.5996 37.9783 25.7061 38.2354 25.8957 38.425C26.0853 38.6146 26.3424 38.7211 26.6105 38.7211H36.7195C36.9876 38.7211 37.2447 38.6146 37.4343 38.425C37.6239 38.2354 37.7304 37.9783 37.7304 37.7102V23.5576C37.7304 23.2895 37.6239 23.0324 37.4343 22.8428C37.2447 22.6532 36.9876 22.5467 36.7195 22.5467ZM27.6214 36.6993V24.5685H30.6541V36.6993H27.6214ZM35.7086 36.6993H32.6759V24.5685H35.7086V36.6993Z" fill="#4164A9"/>
<path d="M56.9374 26.5901H45.8175C45.5494 26.5901 45.2923 26.6967 45.1027 26.8862C44.9131 27.0758 44.8066 27.3329 44.8066 27.601V31.6446C44.8066 31.9128 44.9131 32.1699 45.1027 32.3595C45.2923 32.549 45.5494 32.6555 45.8175 32.6555H56.9374C57.2055 32.6555 57.4627 32.549 57.6523 32.3595C57.8418 32.1699 57.9483 31.9128 57.9483 31.6446V27.601C57.9483 27.3329 57.8418 27.0758 57.6523 26.8862C57.4627 26.6967 57.2055 26.5901 56.9374 26.5901ZM55.9265 30.6337H46.8284V28.6119H55.9265V30.6337Z" fill="#4164A9"/>
<path fill-rule="evenodd" clip-rule="evenodd" d="M66.9887 41.1646C68.1463 41.1646 69.6491 38.7544 68.8429 34.898C68.4352 32.9478 68.3195 31.0838 68.0367 29.9167C67.7603 28.7759 67.5609 27.9885 66.9887 27.9885C65.831 27.9885 65.6987 31.2826 65.0538 34.8176C64.4088 38.3527 65.831 41.1646 66.9887 41.1646Z" fill="#D2E1FF"/>
<path d="M66.8818 46.9151C66.7259 46.9151 66.5996 46.789 66.5996 46.6335V33.1419C66.5996 32.9864 66.7259 32.8604 66.8818 32.8604C67.0375 32.8604 67.1639 32.9864 67.1639 33.1419V46.6335C67.1639 46.7891 67.0375 46.9151 66.8818 46.9151Z" fill="#4164A9"/>
<path d="M66.8807 35.9303C66.8085 35.9303 66.7363 35.9028 66.6812 35.8478L65.5739 34.7432C65.4637 34.6333 65.4637 34.455 65.5739 34.3451C65.6839 34.2351 65.8626 34.235 65.9729 34.3451L67.0802 35.4497C67.1904 35.5596 67.1904 35.7379 67.0802 35.8478C67.0252 35.9028 66.9529 35.9303 66.8807 35.9303Z" fill="#4164A9"/>
<path d="M66.8816 37.9913C66.8259 37.9913 66.7698 37.975 66.7207 37.9409C66.5928 37.8522 66.5612 37.6767 66.6501 37.5491L67.864 35.8069C67.9529 35.6791 68.1287 35.6476 68.2568 35.7364C68.3847 35.8252 68.4163 36.0006 68.3274 36.1283L67.1135 37.8705C67.0587 37.9491 66.9708 37.9913 66.8816 37.9913Z" fill="#4164A9"/>
<path fill-rule="evenodd" clip-rule="evenodd" d="M66.8416 41.6106C66.8648 41.6165 66.8885 41.6195 66.9123 41.6195C66.936 41.6195 66.9597 41.6165 66.983 41.6106C67.0494 41.5935 68.6162 41.1657 69.1692 38.9917C69.7319 36.7795 68.5611 29.2419 67.4291 27.7901C67.3129 27.641 67.189 27.5433 67.0596 27.4982C67.0219 27.4796 66.9795 27.4692 66.9346 27.4692H66.8901C66.8452 27.4692 66.8028 27.4796 66.7651 27.4982C66.6357 27.5434 66.5119 27.6411 66.3956 27.7901C65.2636 29.242 64.0928 36.7796 64.6555 38.9917C65.2084 41.1657 66.7752 41.5935 66.8416 41.6106ZM65.536 32.6892C66.0283 29.781 66.6198 28.269 66.9136 28.0519C67.2074 28.2691 67.7989 29.781 68.2912 32.6892C68.7453 35.3723 68.8788 37.8495 68.6234 38.8535C68.2146 40.4607 67.1973 40.9383 66.9139 41.0422C66.6361 40.9391 65.6117 40.4573 65.2038 38.8535C64.9484 37.8495 65.0819 35.3723 65.536 32.6892Z" fill="#4164A9"/>
<path d="M12.8055 7.8668C12.561 6.24343 11.157 4.99866 9.46145 4.99866C7.71662 4.99866 6.28081 6.31679 6.09924 8.00916C5.78472 7.91435 5.45129 7.86286 5.10582 7.86286C3.21152 7.86286 1.67578 9.39464 1.67578 11.2843C1.67578 13.1738 3.21141 14.7057 5.10582 14.7057C6.88929 14.7057 10.9122 14.7057 12.6521 14.7057C14.5464 14.7057 16.0821 13.1739 16.0821 11.2843C16.082 9.44603 14.6285 7.94689 12.8055 7.8668Z" fill="#D2E1FF"/>
<path fill-rule="evenodd" clip-rule="evenodd" d="M3.79359 14.0498H11.3397C13.4315 14.0498 15.1332 12.3523 15.1333 10.2658C15.1333 8.3328 13.6904 6.73523 11.7983 6.50946C11.4101 4.84196 9.89 3.61749 8.14922 3.61749C6.3696 3.61749 4.86346 4.85077 4.4915 6.54614C4.26184 6.50325 4.02834 6.4817 3.79359 6.4817C1.70183 6.4817 0 8.17925 0 10.2658C0 12.3523 1.70172 14.0498 3.79359 14.0498ZM0.725883 10.2659C0.725883 8.5793 2.10155 7.20708 3.79237 7.20708C4.09391 7.20708 4.39275 7.25112 4.68047 7.33784L5.10042 7.46445L5.14716 7.02929C5.31149 5.49772 6.60147 4.34278 8.1479 4.34278C9.62952 4.34278 10.9126 5.44312 11.1324 6.90216L11.1769 7.19745L11.4759 7.21061C13.1184 7.28282 14.4049 8.62489 14.4049 10.2659C14.4049 11.9524 13.0293 13.3246 11.3385 13.3246H3.79237C2.10155 13.3246 0.725883 11.9524 0.725883 10.2659Z" fill="#4164A9"/>
<path d="M3.16551 19.2301C3.02988 19.2301 2.91992 19.1204 2.91992 18.9851V17.8619C2.91992 17.7266 3.02988 17.6169 3.16551 17.6169C3.30115 17.6169 3.41111 17.7266 3.41111 17.8619V18.9851C3.41111 19.1204 3.30108 19.2301 3.16551 19.2301Z" fill="#B9CAEC"/>
<path d="M3.16551 23.1314C3.02988 23.1314 2.91992 23.0217 2.91992 22.8864V20.4822C2.91992 20.3469 3.02988 20.2372 3.16551 20.2372C3.30115 20.2372 3.41111 20.3469 3.41111 20.4822V22.8864C3.41111 23.0217 3.30108 23.1314 3.16551 23.1314Z" fill="#B9CAEC"/>
<path d="M5.02196 23.1318C4.88632 23.1318 4.77637 23.0221 4.77637 22.8868V21.7636C4.77637 21.6283 4.88632 21.5186 5.02196 21.5186C5.1576 21.5186 5.26755 21.6283 5.26755 21.7636V22.8868C5.26755 23.0221 5.1576 23.1318 5.02196 23.1318Z" fill="#B9CAEC"/>
<path d="M5.02196 20.5106C4.88632 20.5106 4.77637 20.4009 4.77637 20.2656V17.8615C4.77637 17.7262 4.88632 17.6165 5.02196 17.6165C5.1576 17.6165 5.26755 17.7262 5.26755 17.8615V20.2656C5.26755 20.4009 5.1576 20.5106 5.02196 20.5106Z" fill="#B9CAEC"/>
<path d="M6.89989 19.2297C6.76425 19.2297 6.6543 19.12 6.6543 18.9847V17.8615C6.6543 17.7262 6.76425 17.6165 6.89989 17.6165C7.03553 17.6165 7.14548 17.7262 7.14548 17.8615V18.9847C7.14548 19.12 7.03546 19.2297 6.89989 19.2297Z" fill="#B9CAEC"/>
<path d="M6.89989 23.1314C6.76425 23.1314 6.6543 23.0217 6.6543 22.8864V20.4822C6.6543 20.3469 6.76425 20.2372 6.89989 20.2372C7.03553 20.2372 7.14548 20.3469 7.14548 20.4822V22.8864C7.14548 23.0217 7.03546 23.1314 6.89989 23.1314Z" fill="#B9CAEC"/>
<path d="M8.75633 23.1318C8.6207 23.1318 8.51074 23.0221 8.51074 22.8868V21.7636C8.51074 21.6283 8.6207 21.5186 8.75633 21.5186C8.89197 21.5186 9.00193 21.6283 9.00193 21.7636V22.8868C9.00193 23.0221 8.89197 23.1318 8.75633 23.1318Z" fill="#B9CAEC"/>
<path d="M8.75633 20.5106C8.6207 20.5106 8.51074 20.4009 8.51074 20.2656V17.8615C8.51074 17.7262 8.6207 17.6165 8.75633 17.6165C8.89197 17.6165 9.00193 17.7262 9.00193 17.8615V20.2656C9.00193 20.4009 8.89197 20.5106 8.75633 20.5106Z" fill="#B9CAEC"/>
</svg>
