<svg width="45" height="45" viewBox="0 0 45 45" fill="none" xmlns="http://www.w3.org/2000/svg">
<rect width="45" height="45" rx="2" fill="#5BC4D6"/>
<path d="M24.4956 35.5335C23.2531 35.733 21.964 35.8334 20.6666 35.8334C14.4786 35.8334 10.1666 33.6809 10.1666 31.75V28.229C12.0368 29.9814 15.9825 31.1666 20.6666 31.1666C21.278 31.1666 21.873 31.1421 22.4598 31.1013C22.7818 31.0803 23.0244 30.8014 23.0023 30.4794C22.9813 30.1574 22.6978 29.9171 22.3804 29.9369C21.8204 29.9754 21.2511 29.9999 20.6666 29.9999C14.4786 29.9999 10.1666 27.8474 10.1666 25.9166V22.3956C12.0367 24.1479 15.9824 25.3332 20.6666 25.3332C22.3302 25.3332 23.9496 25.1792 25.4814 24.8771C25.7988 24.8141 26.0041 24.5084 25.9411 24.1922C25.8781 23.8749 25.5677 23.6672 25.2562 23.7326C23.7979 24.0207 22.2532 24.1666 20.6666 24.1666C14.4786 24.1666 10.1666 22.0141 10.1666 20.0832V16.5622C12.0369 18.3146 15.9825 19.5 20.6666 19.5C25.3508 19.5 29.2965 18.3146 31.1666 16.5624V20.0834C31.1666 20.8755 30.4713 21.5417 29.888 21.9617C29.6266 22.1507 29.5671 22.5147 29.755 22.7761C29.8694 22.9347 30.0479 23.0187 30.2286 23.0187C30.3476 23.0187 30.4666 22.9826 30.5693 22.9079C30.7956 22.7457 30.9823 22.573 31.1666 22.4004V22.51C31.1666 22.832 31.428 23.0934 31.75 23.0934C32.072 23.0934 32.3334 22.832 32.3334 22.51V14.25C32.3334 11.3065 27.2082 9 20.6667 9C14.1252 9 9 11.3065 9 14.25V31.75C9 34.6935 14.1251 37 20.6666 37C22.0258 37 23.3756 36.8939 24.68 36.6861C24.9974 36.6348 25.2144 36.3361 25.1641 36.0176C25.1129 35.6991 24.8154 35.488 24.4956 35.5335ZM20.6666 10.1666C26.8546 10.1666 31.1666 12.3191 31.1666 14.25C31.1666 16.1809 26.8546 18.3334 20.6666 18.3334C14.4786 18.3334 10.1666 16.1809 10.1666 14.25C10.1666 12.3191 14.4786 10.1666 20.6666 10.1666Z" fill="black"/>
<path d="M34.4941 27.8381C34.2666 27.6106 33.8967 27.6106 33.6692 27.8381L29.4156 32.0918L27.4952 30.1714C27.2677 29.9439 26.8979 29.9439 26.6704 30.1714C26.4429 30.3989 26.4429 30.7688 26.6704 30.9963L29.0037 33.3296C29.1181 33.4428 29.2674 33.5 29.4167 33.5C29.5661 33.5 29.7154 33.4428 29.8274 33.3296L34.494 28.663C34.7216 28.4355 34.7216 28.0656 34.4941 27.8381Z" fill="black"/>
<path d="M30.5834 24.1667C27.046 24.1667 24.1667 27.0461 24.1667 30.5834C24.1667 34.1207 27.046 37.0001 30.5834 37.0001C34.1207 37.0001 37 34.1207 37 30.5835C37 27.0462 34.1207 24.1667 30.5834 24.1667ZM30.5834 35.8335C27.6889 35.8335 25.3334 33.478 25.3334 30.5835C25.3334 27.689 27.6889 25.3335 30.5834 25.3335C33.4779 25.3335 35.8334 27.689 35.8334 30.5835C35.8334 33.478 33.4779 35.8335 30.5834 35.8335Z" fill="black"/>
</svg>
