<svg width="28" height="28" viewBox="0 0 28 28" fill="none" xmlns="http://www.w3.org/2000/svg">
<rect width="28" height="28" rx="6" fill="#DFE7F5"/>
<mask id="mask0" mask-type="alpha" maskUnits="userSpaceOnUse" x="1" y="1" width="26" height="26">
<rect x="1.16699" y="1.16699" width="25.6667" height="25.6667" fill="#C4C4C4"/>
</mask>
<g mask="url(#mask0)">
<path d="M19.5407 18.0833C18.9431 18.0833 18.4309 18.4434 18.2053 18.9583H17.499V16.3333H18.6657C19.9543 16.3333 20.999 15.2885 20.999 14C20.999 12.7115 19.9543 11.6667 18.6657 11.6667C18.6657 10.5122 17.8266 9.56078 16.7266 9.37212C16.257 7.99348 14.9543 7 13.4157 7C11.4822 7 9.91575 8.5666 9.91575 10.5C8.3047 10.5 6.99902 11.8057 6.99902 13.4167C6.99902 15.0278 8.3047 16.3334 9.91575 16.3334H10.499V18.9584H9.79272C9.56715 18.4436 9.0544 18.0834 8.4573 18.0834C7.65177 18.0834 6.99902 18.7362 6.99902 19.5419C6.99902 20.3472 7.65177 21 8.4573 21C9.0544 21 9.56715 20.6393 9.79272 20.125H10.499C11.1434 20.125 11.6657 19.6026 11.6657 18.9583V16.3333H13.4157V18.2063C12.9014 18.4319 12.5407 18.9441 12.5407 19.5417C12.5407 20.3472 13.194 21 13.999 21C14.8045 21 15.4573 20.3472 15.4573 19.5417C15.4573 18.9441 15.0973 18.4314 14.5823 18.2063V16.3333H16.3323V18.9583C16.3323 19.6026 16.8547 20.125 17.499 20.125H18.2053C18.4309 20.6393 18.9431 21 19.5407 21C20.3463 21 20.999 20.3472 20.999 19.5417C20.999 18.736 20.3463 18.0833 19.5407 18.0833ZM8.16575 13.4167C8.16575 12.4495 8.94957 11.6667 9.91575 11.6667H11.0823V10.5C11.0823 9.21077 12.1272 8.16672 13.4157 8.16672C14.7043 8.16672 15.749 9.21077 15.749 10.5H16.333C16.9773 10.5 17.499 11.0215 17.499 11.6667V12.8334H18.6657C19.3101 12.8334 19.8323 13.3551 19.8323 14.0002C19.8323 14.6438 19.3101 15.1669 18.6657 15.1669H9.91575C8.94957 15.1667 8.16575 14.3829 8.16575 13.4167Z" fill="#5C638B"/>
<circle cx="19.8337" cy="6.99967" r="4.66667" fill="#F4F7FC"/>
<path d="M19.8336 2.33301C17.2563 2.33301 15.167 4.42235 15.167 6.99966C15.167 9.57702 17.2563 11.6663 19.8336 11.6663C22.411 11.6663 24.5003 9.577 24.5003 6.99966C24.5003 4.42233 22.411 2.33301 19.8336 2.33301ZM21.8617 8.18107C22.0955 8.41486 22.0955 8.79394 21.8617 9.02773C21.7448 9.14463 21.5916 9.20309 21.4384 9.20309C21.2852 9.20309 21.1319 9.14463 21.0151 9.02773L19.8336 7.84635L18.6522 9.02773C18.5354 9.14463 18.3821 9.20309 18.2289 9.20309C18.0757 9.20309 17.9225 9.14466 17.8056 9.02773C17.5718 8.79394 17.5718 8.41486 17.8056 8.18107L18.987 6.99969L17.8056 5.81828C17.5718 5.58449 17.5718 5.20541 17.8056 4.97162C18.0394 4.73782 18.4184 4.73782 18.6522 4.97162L19.8336 6.15302L21.0151 4.97162C21.2488 4.73779 21.628 4.73782 21.8617 4.97162C22.0955 5.20541 22.0955 5.58449 21.8617 5.81828L20.6803 6.99969L21.8617 8.18107Z" fill="#B1122A"/>
</g>
</svg>
