<svg width="28" height="28" viewBox="0 0 28 28" fill="none" xmlns="http://www.w3.org/2000/svg">
<rect width="28" height="28" rx="6" fill="#DFE7F5"/>
<mask id="mask0" mask-type="alpha" maskUnits="userSpaceOnUse" x="1" y="1" width="26" height="26">
<rect x="1" y="1" width="25.6667" height="25.6667" fill="#C4C4C4"/>
</mask>
<g mask="url(#mask0)">
<rect x="15.3002" y="9.8998" width="2.4" height="2.4" fill="#5C638B" stroke="#DFE7F5" stroke-width="0.2"/>
<rect x="15.3002" y="12.6332" width="2.4" height="2.4" fill="#5C638B" stroke="#DFE7F5" stroke-width="0.2"/>
<rect x="15.3002" y="15.3666" width="2.4" height="2.4" fill="#5C638B" stroke="#DFE7F5" stroke-width="0.2"/>
<rect x="18.0336" y="15.3666" width="2.4" height="2.4" fill="#5C638B" stroke="#DFE7F5" stroke-width="0.2"/>
<rect x="12.5668" y="15.3666" width="2.4" height="2.4" fill="#5C638B" stroke="#DFE7F5" stroke-width="0.2"/>
<rect x="12.5668" y="12.6332" width="2.4" height="2.4" fill="#5C638B" stroke="#DFE7F5" stroke-width="0.2"/>
<rect x="9.8334" y="12.6332" width="2.4" height="2.4" fill="#5C638B" stroke="#DFE7F5" stroke-width="0.2"/>
<rect x="9.8334" y="15.3666" width="2.4" height="2.4" fill="#5C638B" stroke="#DFE7F5" stroke-width="0.2"/>
<rect x="7.1" y="15.3666" width="2.4" height="2.4" fill="#5C638B" stroke="#DFE7F5" stroke-width="0.2"/>
<path d="M14.3338 2.58936C13.3688 2.58936 12.5573 3.25721 12.3361 4.15483C10.1032 4.5931 8.06633 5.76479 6.55445 7.4925C4.90718 9.37489 4 11.7907 4 14.2949C4 14.6736 4.30709 14.9807 4.68587 14.9807C5.06465 14.9807 5.37174 14.6736 5.37174 14.2949C5.37174 12.1231 6.15838 10.0281 7.58677 8.39583C8.86976 6.92967 10.5878 5.92478 12.4739 5.52606C12.8042 6.22204 13.5136 6.70457 14.3338 6.70457C15.4683 6.70457 16.3914 5.78153 16.3914 4.64696C16.3914 3.5124 15.4683 2.58936 14.3338 2.58936Z" fill="#5C638B"/>
<path d="M23.9799 12.6089C23.6011 12.6089 23.294 12.916 23.294 13.2948C23.294 15.4665 22.5074 17.5615 21.079 19.1938C19.796 20.6599 18.078 21.6648 16.1919 22.0635C15.8616 21.3676 15.1522 20.885 14.332 20.885C13.1975 20.885 12.2744 21.8081 12.2744 22.9426C12.2744 24.0772 13.1975 25.0003 14.332 25.0003C15.297 25.0003 16.1085 24.3324 16.3297 23.4348C18.5626 22.9965 20.5994 21.8248 22.1113 20.0971C23.7586 18.2147 24.6658 15.7989 24.6658 13.2948C24.6658 12.916 24.3587 12.6089 23.9799 12.6089Z" fill="#5C638B"/>
</g>
</svg>
