<svg width="45" height="45" viewBox="0 0 45 45" fill="none" xmlns="http://www.w3.org/2000/svg">
<rect width="45" height="45" rx="2" fill="#5BC4D6"/>
<path d="M13.5473 25.0104C13.2478 24.7195 12.8384 24.5701 12.4219 24.5998C12.0054 24.6295 11.6214 24.8353 11.3661 25.1657L10.9097 25.7575V19.7608C10.9012 18.9653 10.2506 18.3268 9.45513 18.3333C8.65942 18.3266 8.00848 18.9652 8 19.7608V26.6591C7.99934 27.5922 8.34907 28.4916 8.98 29.1791L11.9531 32.4322V34.6667C11.9531 35.1821 12.371 35.6 12.8865 35.6H16.4C16.9155 35.6 17.3334 35.1821 17.3334 34.6667V30.2683C17.3311 29.2604 16.9236 28.2958 16.2026 27.5915L13.5473 25.0104ZM16.4 34.6666H12.8865V32.2511C12.8865 32.1345 12.8429 32.0221 12.7642 31.9361L9.66693 28.5486C9.19443 28.0328 8.9327 27.3585 8.93335 26.659V19.7608C8.9415 19.4805 9.17474 19.2595 9.45507 19.2666C9.73534 19.2595 9.96848 19.4806 9.97635 19.7608V26.0057C9.97597 26.1316 10.0265 26.2523 10.1164 26.3403L10.604 26.8126C10.6086 26.8182 10.6143 26.8229 10.6194 26.828L13.3294 29.4628C13.5145 29.6392 13.8072 29.6336 13.9855 29.4504C14.1639 29.2671 14.1616 28.9745 13.9804 28.7941L11.5607 26.4416L12.1067 25.736C12.1992 25.6153 12.339 25.54 12.4907 25.5291C12.6424 25.5184 12.7914 25.5731 12.9001 25.6795L15.5554 28.2607C16.0947 28.7896 16.3991 29.5129 16.4001 30.2682V34.6666H16.4Z" fill="black"/>
<path d="M35.5694 18.7467C34.9908 18.2134 34.0998 18.2134 33.5212 18.7467C33.2454 19.0118 33.0898 19.3781 33.0905 19.7607V25.7579L32.6336 25.1657C32.3785 24.835 31.9944 24.6289 31.5778 24.5992C31.1612 24.5695 30.7517 24.7191 30.4524 25.0102L27.798 27.5914C27.0745 28.294 26.6664 29.2597 26.6667 30.2682V34.6665C26.6667 35.182 27.0846 35.5999 27.6001 35.5999H31.1136C31.6291 35.5999 32.047 35.182 32.047 34.6665V32.4321L35.0201 29.178C35.6502 28.49 35.9998 27.591 36.0001 26.658V19.7607C36.0007 19.3781 35.8451 19.0119 35.5694 18.7467ZM34.3332 28.5485L31.2359 31.936C31.1572 32.0221 31.1136 32.1344 31.1136 32.251V34.6665H27.6001V30.2682C27.6004 29.5122 27.9064 28.7884 28.4485 28.2615L31.1029 25.6804C31.2016 25.5836 31.3343 25.5294 31.4725 25.5297C31.4856 25.5297 31.4987 25.5297 31.5112 25.5297C31.6628 25.5399 31.8026 25.6149 31.8948 25.7355L32.439 26.441L30.0202 28.793C29.8988 28.9087 29.8489 29.0807 29.8894 29.2435C29.9299 29.4062 30.0546 29.5348 30.2161 29.5801C30.3776 29.6254 30.551 29.5806 30.6703 29.4627L33.3807 26.8265L33.3962 26.8115L33.8824 26.3388C33.9723 26.2507 34.0228 26.1301 34.0224 26.0042V19.7607C34.0226 19.6304 34.076 19.5058 34.1704 19.4159C34.382 19.2234 34.7054 19.2234 34.917 19.4159C35.0111 19.5059 35.0646 19.6305 35.0649 19.7607L35.0668 26.659C35.0668 27.3584 34.8051 28.0324 34.3332 28.5485Z" fill="black"/>
<path d="M29.9334 23.4666V12.2666C29.9334 10.1447 25.8458 9 22 9C18.1542 9 14.0667 10.1447 14.0667 12.2666V23.4666C14.0667 25.5886 18.1542 26.7333 22 26.7333C25.8458 26.7333 29.9334 25.5886 29.9334 23.4666ZM29 23.4666C29 24.568 26.0064 25.8 22 25.8C17.9937 25.8 15 24.568 15 23.4666V21.3242C15.3857 21.6143 15.8083 21.8517 16.2567 22.0303C18.0933 22.7111 20.0416 23.0401 22 23C23.9572 23.04 25.9044 22.7114 27.74 22.0312C28.1896 21.8525 28.6133 21.6145 29 21.3237V23.4666ZM29 19.7334C29 20.214 28.3961 20.7507 27.3821 21.1698C25.66 21.8028 23.8343 22.107 22 22.0667C20.1649 22.107 18.3384 21.8024 16.6156 21.1688C15.6039 20.7507 15 20.2141 15 19.7334V17.5909C15.3857 17.8809 15.8083 18.1184 16.2567 18.2969C18.0933 18.9778 20.0416 19.3068 22 19.2666C23.9572 19.3067 25.9044 18.978 27.74 18.2979C28.1896 18.1191 28.6133 17.8812 29 17.5904V19.7334ZM29 16C29 16.4806 28.3961 17.0174 27.3821 17.4364C25.66 18.0694 23.8343 18.3737 22 18.3334C20.1649 18.3736 18.3384 18.069 16.6156 17.4355C15.6039 17.0174 15 16.4806 15 16V13.8594C16.4247 14.9533 19.2695 15.5334 22 15.5334C24.7305 15.5334 27.5753 14.9533 29 13.8594V16ZM22 14.6C17.9937 14.6 15 13.368 15 12.2666C15 11.1653 17.9937 9.9333 22 9.9333C26.0064 9.9333 29 11.1653 29 12.2666C29 13.368 26.0064 14.6 22 14.6Z" fill="black"/>
</svg>
