<svg width="22" height="22" viewBox="0 0 22 22" fill="none" xmlns="http://www.w3.org/2000/svg">
<path fill-rule="evenodd" clip-rule="evenodd" d="M11.014 0.0414651C8.39931 0.0387462 5.86916 0.988741 3.87693 2.72121C1.8847 4.45368 0.560612 6.85538 0.141972 9.4959C-0.276668 12.1364 0.237499 14.8432 1.59232 17.1311C2.94714 19.419 5.05407 21.1385 7.53552 21.9815C8.08261 22.0852 8.28524 21.7327 8.28524 21.4356C8.28524 21.1384 8.28524 20.4612 8.28524 19.5215C5.22554 20.2125 4.57713 18.015 4.57713 18.015C4.37325 17.334 3.94011 16.7488 3.3546 16.3635C2.36171 15.6724 3.43565 15.6724 3.43565 15.6724C3.78369 15.7227 4.11599 15.8534 4.40737 16.0545C4.69875 16.2557 4.94159 16.522 5.11747 16.8334C5.26692 17.1106 5.4684 17.3549 5.71036 17.5523C5.95232 17.7497 6.23 17.8962 6.52746 17.9835C6.82492 18.0709 7.1363 18.0972 7.44374 18.0611C7.75118 18.025 8.04862 17.9272 8.31901 17.7732C8.3614 17.2047 8.60094 16.6704 8.99444 16.2667C6.54938 15.9834 3.98274 15.016 3.98274 10.704C3.96595 9.58658 4.36982 8.50536 5.11071 7.6842C4.78007 6.71274 4.81865 5.64959 5.21878 4.70588C5.21878 4.70588 6.14412 4.40183 8.24471 5.85989C10.0485 5.35321 11.9524 5.35321 13.7562 5.85989C15.8568 4.40183 16.7754 4.70588 16.7754 4.70588C17.1797 5.64824 17.2207 6.71218 16.8902 7.6842C17.6311 8.50536 18.035 9.58658 18.0182 10.704C18.0182 15.0298 15.4448 15.9765 12.993 16.2322C13.2559 16.5025 13.4589 16.8276 13.5883 17.1853C13.7176 17.543 13.7703 17.9249 13.7427 18.3052C13.7427 19.8117 13.7427 21.0279 13.7427 21.3941C13.7427 21.7604 13.9386 22.0437 14.4992 21.94C16.9728 21.0891 19.0706 19.3669 20.4183 17.0805C21.766 14.7941 22.276 12.0922 21.8574 9.45681C21.4388 6.82142 20.1187 4.42385 18.1326 2.69177C16.1466 0.959679 13.6237 0.00570666 11.014 0V0.0414651Z" fill="#231E1B"/>
</svg>
