<svg width="32" height="31" viewBox="0 0 32 31" fill="none" xmlns="http://www.w3.org/2000/svg">
<g filter="url(#filter0_d)">
<path d="M27.8413 12.5813L26.5034 8.469L23.8557 0.312389C23.8252 0.221391 23.7669 0.142273 23.689 0.0862162C23.6111 0.0301599 23.5176 0 23.4216 0C23.3257 0 23.2321 0.0301599 23.1542 0.0862162C23.0763 0.142273 23.018 0.221391 22.9876 0.312389L20.3413 8.46405H11.5437L8.89603 0.312389C8.86555 0.221391 8.80724 0.142273 8.72935 0.0862162C8.65146 0.0301599 8.55792 0 8.46195 0C8.36598 0 8.27244 0.0301599 8.19455 0.0862162C8.11666 0.142273 8.05835 0.221391 8.02787 0.312389L5.38518 8.46405L4.0465 12.5813C3.98717 12.7641 3.9871 12.9609 4.04632 13.1438C4.10553 13.3266 4.22099 13.4861 4.37622 13.5994L15.9418 22.0051L27.5074 13.5994C27.6633 13.4866 27.7795 13.3274 27.8395 13.1445C27.8995 12.9617 27.9001 12.7645 27.8413 12.5813Z" fill="#FC6D26"/>
<path d="M15.945 21.9974L20.3417 8.46341H11.5469L15.945 21.9974Z" fill="#E24329"/>
<path d="M15.9415 21.9981L11.5434 8.46341H5.3877L15.9415 21.9981Z" fill="#FC6D26"/>
<path d="M5.38322 8.46819L4.04454 12.5805C3.98521 12.7633 3.98515 12.9601 4.04436 13.143C4.10357 13.3258 4.21903 13.4853 4.37426 13.5986L15.9398 22.005L5.38322 8.46819Z" fill="#FCA326"/>
<path d="M5.38477 8.46823H11.5482L8.89562 0.316569C8.86514 0.225571 8.80683 0.146453 8.72894 0.0903966C8.65104 0.0343402 8.5575 0.00418091 8.46154 0.00418091C8.36557 0.00418091 8.27203 0.0343402 8.19414 0.0903966C8.11624 0.146453 8.05794 0.225571 8.02746 0.316569L5.38477 8.46823Z" fill="#E24329"/>
<path d="M15.9443 21.9981L20.341 8.46341H26.5038L15.9443 21.9981Z" fill="#FC6D26"/>
<path d="M26.5029 8.46819L27.8423 12.5805C27.9016 12.7633 27.9017 12.9601 27.8425 13.143C27.7833 13.3258 27.6678 13.4853 27.5126 13.5986L15.9463 21.9972L26.5029 8.46819Z" fill="#FCA326"/>
<path d="M26.506 8.46823H20.3418L22.9894 0.316569C23.0199 0.225571 23.0782 0.146453 23.1561 0.0903966C23.234 0.0343402 23.3276 0.00418091 23.4235 0.00418091C23.5195 0.00418091 23.613 0.0343402 23.6909 0.0903966C23.7688 0.146453 23.8271 0.225571 23.8576 0.316569L26.5052 8.46823H26.506Z" fill="#E24329"/>
</g>
<defs>
<filter id="filter0_d" x="0" y="0" width="31.8868" height="30.0051" filterUnits="userSpaceOnUse" color-interpolation-filters="sRGB">
<feFlood flood-opacity="0" result="BackgroundImageFix"/>
<feColorMatrix in="SourceAlpha" type="matrix" values="0 0 0 0 0 0 0 0 0 0 0 0 0 0 0 0 0 0 127 0"/>
<feOffset dy="4"/>
<feGaussianBlur stdDeviation="2"/>
<feColorMatrix type="matrix" values="0 0 0 0 0 0 0 0 0 0 0 0 0 0 0 0 0 0 0.25 0"/>
<feBlend mode="normal" in2="BackgroundImageFix" result="effect1_dropShadow"/>
<feBlend mode="normal" in="SourceGraphic" in2="effect1_dropShadow" result="shape"/>
</filter>
</defs>
</svg>
