<svg width="22" height="22" viewBox="0 0 22 22" fill="none" xmlns="http://www.w3.org/2000/svg">
<path d="M21.5642 11.253C21.5642 10.5052 21.5035 9.75348 21.3742 9.01788H10.999V13.2536H16.9404C16.6939 14.6198 15.9017 15.8282 14.7417 16.5962V19.3446H18.2863C20.3678 17.4288 21.5642 14.5995 21.5642 11.253Z" fill="#4285F4"/>
<path d="M10.9995 22C13.9661 22 16.468 21.0259 18.2908 19.3445L14.7462 16.5962C13.76 17.2671 12.4868 17.647 11.0035 17.647C8.13386 17.647 5.70073 15.711 4.82771 13.1081H1.16992V15.9414C3.03721 19.6558 6.8405 22 10.9995 22Z" fill="#34A853"/>
<path d="M4.82383 13.1082C4.36307 11.742 4.36307 10.2628 4.82383 8.89665V6.06339H1.17009C-0.390029 9.17149 -0.390029 12.8333 1.17009 15.9414L4.82383 13.1082Z" fill="#FBBC04"/>
<path d="M10.9995 4.35371C12.5677 4.32946 14.0833 4.91956 15.2191 6.00275L18.3595 2.8623C16.371 0.995013 13.7317 -0.0315928 10.9995 0.000741252C6.8405 0.000741252 3.03721 2.34496 1.16992 6.06337L4.82367 8.89664C5.69264 6.28971 8.12982 4.35371 10.9995 4.35371Z" fill="#EA4335"/>
</svg>
