<svg width="60" height="43" viewBox="0 0 60 43" fill="none" xmlns="http://www.w3.org/2000/svg">
<circle opacity="0.5" cx="35.4275" cy="19.6079" r="18.2078" fill="#D2E1FF"/>
<path d="M56.347 8.70173C57.5331 7.51566 57.5355 5.59506 56.3524 4.41196C55.1693 3.22887 53.2487 3.23128 52.0626 4.41736C50.8765 5.60344 50.8741 7.52403 52.0572 8.70713C53.2403 9.89022 55.1609 9.88781 56.347 8.70173Z" fill="#D2E1FF"/>
<path d="M56.9011 5.938C56.876 7.57518 55.5657 8.88228 53.9243 8.90728C52.2829 8.93228 50.9721 7.53754 50.9476 5.938C50.9225 4.30068 52.3207 2.99316 53.9243 2.96872C55.5658 2.94379 56.8766 4.33846 56.9011 5.938C56.9045 6.16422 57.2566 6.16457 57.2531 5.938C57.2298 4.41607 56.2109 3.10596 54.7334 2.71638C53.2537 2.32631 51.6918 3.07547 50.9758 4.39598C50.2463 5.74121 50.6108 7.4395 51.7378 8.44101C52.8813 9.45734 54.6225 9.50559 55.8604 8.63836C56.7399 8.02228 57.2369 6.99914 57.2532 5.93793C57.2566 5.7115 56.9045 5.71178 56.9011 5.938Z" fill="#4164A9"/>
<path d="M49.5195 2.64806C49.9961 3.02977 50.4726 3.41155 50.9492 3.79327C51.1244 3.93359 51.3752 3.68679 51.1981 3.54492C50.7215 3.16321 50.245 2.7815 49.7684 2.39972C49.5932 2.25939 49.3424 2.50619 49.5195 2.64806Z" fill="#4164A9"/>
<path d="M52.5228 2.53518C52.2481 1.996 51.9735 1.45683 51.6988 0.917727C51.596 0.715809 51.2923 0.893567 51.3949 1.09499C51.6696 1.63417 51.9442 2.17327 52.2188 2.71244C52.3216 2.91429 52.6254 2.73653 52.5228 2.53518Z" fill="#D2E1FF"/>
<path d="M48.632 7.31511C49.2359 7.1776 49.8398 7.04016 50.4437 6.90264C50.665 6.85228 50.5711 6.51369 50.3501 6.56405C49.7462 6.70157 49.1423 6.83901 48.5384 6.97652C48.3171 7.02688 48.411 7.3654 48.632 7.31511Z" fill="#4164A9"/>
<path d="M50.4364 4.95578C49.8349 4.81883 49.2335 4.68195 48.632 4.545C48.411 4.49471 48.3171 4.83323 48.5384 4.88359C49.1399 5.02054 49.7413 5.15742 50.3428 5.29437C50.5638 5.34473 50.6577 5.00614 50.4364 4.95578Z" fill="#D2E1FF"/>
<path d="M53.748 0.466086C53.748 1.1007 53.748 1.73532 53.748 2.36994C53.748 2.59637 54.1001 2.59637 54.1001 2.36994C54.1001 1.73532 54.1001 1.1007 54.1001 0.466086C54.1001 0.239657 53.748 0.239657 53.748 0.466086Z" fill="#4164A9"/>
<path d="M55.6738 2.71214C55.9341 2.17297 56.1944 1.6338 56.4547 1.09469C56.5527 0.891652 56.2492 0.713473 56.1507 0.917428C55.8904 1.4566 55.6301 1.9957 55.3698 2.53488C55.2718 2.73792 55.5753 2.9161 55.6738 2.71214Z" fill="#D2E1FF"/>
<path d="M49.7686 9.45957C50.2452 9.08045 50.7218 8.70134 51.1984 8.3223C51.3759 8.18113 51.125 7.93433 50.9495 8.07403C50.4729 8.45314 49.9963 8.83225 49.5197 9.2113C49.3422 9.35246 49.5931 9.59926 49.7686 9.45957Z" fill="#D2E1FF"/>
<path d="M59.3128 6.97652C58.7089 6.83901 58.105 6.70157 57.5011 6.56405C57.2801 6.51369 57.1863 6.85228 57.4076 6.90264C58.0115 7.04016 58.6154 7.1776 59.2193 7.31511C59.4403 7.36547 59.5341 7.02695 59.3128 6.97652Z" fill="#4164A9"/>
<path d="M56.5754 8.26136C57.0778 8.66098 57.5801 9.0606 58.0825 9.46022C58.258 9.59991 58.5089 9.35312 58.3315 9.21195C57.8291 8.81233 57.3267 8.41271 56.8244 8.01309C56.6488 7.87346 56.3979 8.12019 56.5754 8.26136Z" fill="#D2E1FF"/>
<path d="M57.5012 5.29607C58.1051 5.15856 58.709 5.02111 59.3129 4.8836C59.5342 4.83324 59.4403 4.49465 59.2193 4.54501C58.6154 4.68252 58.0115 4.81997 57.4076 4.95748C57.1863 5.00784 57.2801 5.34643 57.5012 5.29607Z" fill="#D2E1FF"/>
<path d="M58.0815 2.3998C57.6015 2.78152 57.1217 3.16323 56.6418 3.54501C56.4643 3.68618 56.7152 3.93297 56.8908 3.79335C57.3707 3.41164 57.8505 3.02993 58.3304 2.64814C58.5079 2.50691 58.257 2.26018 58.0815 2.3998Z" fill="#4164A9"/>
<path d="M56.4527 10.765C56.1781 10.1962 55.9035 9.62729 55.6289 9.05848C55.5304 8.85453 55.2269 9.0327 55.3249 9.23575C55.5996 9.80456 55.8742 10.3734 56.1488 10.9422C56.2472 11.1462 56.5507 10.968 56.4527 10.765Z" fill="#4164A9"/>
<path d="M53.748 9.51107C53.748 10.1385 53.748 10.766 53.748 11.3934C53.748 11.6199 54.1001 11.6199 54.1001 11.3934C54.1001 10.766 54.1001 10.1385 54.1001 9.51107C54.1001 9.28464 53.748 9.28464 53.748 9.51107Z" fill="#D2E1FF"/>
<path d="M51.6987 10.9423C51.9733 10.4001 52.2479 9.85795 52.5226 9.31576C52.6247 9.11419 52.321 8.93636 52.2186 9.13849C51.944 9.68068 51.6694 10.2228 51.3947 10.7649C51.2926 10.9666 51.5963 11.1444 51.6987 10.9423Z" fill="#4164A9"/>
<circle cx="55.3625" cy="32.8051" r="3.19548" stroke="#D2E1FF"/>
<path d="M46.8888 19.5547H9.37793L28.1333 5.4881L46.8888 19.5547Z" fill="#D2E1FF"/>
<path d="M24.2275 34.4027H32.0423V42.2175H24.2275V34.4027Z" fill="#D2E1FF"/>
<path d="M30.4789 30.4951H25.79V26.5877C26.4782 26.1092 27.2963 25.8527 28.1345 25.8527C28.9726 25.8527 29.7907 26.1092 30.4789 26.5877V30.4951Z" fill="#D2E1FF"/>
<path d="M22.6625 30.4951H17.9736V26.5877C18.6618 26.1092 19.4799 25.8527 20.3181 25.8527C21.1562 25.8527 21.9743 26.1092 22.6625 26.5877V30.4951Z" fill="#D2E1FF"/>
<path d="M38.2943 30.4951H33.6055V26.5877C34.2936 26.1092 35.1117 25.8527 35.9499 25.8527C36.7881 25.8527 37.6062 26.1092 38.2943 26.5877V30.4951Z" fill="#D2E1FF"/>
<path d="M3.39406 32.5353C3.10499 31.8894 3.04607 31.1638 3.22709 30.4797C3.40812 29.7955 3.81816 29.1941 4.38887 28.7756C4.12325 28.4283 3.96005 28.0136 3.91772 27.5784C3.87538 27.1432 3.9556 26.7048 4.14931 26.3128C4.34302 25.9208 4.6425 25.5908 5.01392 25.3601C5.38533 25.1293 5.81387 25.007 6.25113 25.007C6.68839 25.007 7.11693 25.1293 7.48835 25.3601C7.85976 25.5908 8.15924 25.9208 8.35295 26.3128C8.54666 26.7048 8.62688 27.1432 8.58455 27.5784C8.54221 28.0136 8.37901 28.4283 8.11339 28.7756C8.68339 29.194 9.09296 29.7948 9.27395 30.4783C9.45495 31.1618 9.39646 31.8866 9.10821 32.5322C9.62752 33.0888 9.97291 33.7851 10.102 34.5353C10.231 35.2856 10.1381 36.0572 9.83461 36.7553C9.53113 37.4535 9.03032 38.0478 8.3937 38.4652C7.75709 38.8827 7.0124 39.105 6.25113 39.105C5.48986 39.105 4.74517 38.8827 4.10856 38.4652C3.47194 38.0478 2.97113 37.4535 2.66765 36.7553C2.36418 36.0572 2.27125 35.2856 2.4003 34.5353C2.52935 33.7851 2.87475 33.0888 3.39406 32.5322V32.5353Z" fill="#D2E1FF"/>
<path d="M47.6714 41.436H46.8899C46.6826 41.436 46.4838 41.5184 46.3373 41.6649C46.1907 41.8115 46.1084 42.0103 46.1084 42.2175C46.1084 42.4248 46.1907 42.6235 46.3373 42.7701C46.4838 42.9167 46.6826 42.999 46.8899 42.999H47.6714C47.8786 42.999 48.0774 42.9167 48.2239 42.7701C48.3705 42.6235 48.4528 42.4248 48.4528 42.2175C48.4528 42.0103 48.3705 41.8115 48.2239 41.6649C48.0774 41.5184 47.8786 41.436 47.6714 41.436Z" fill="#4164A9"/>
<path d="M44.5441 41.4369H42.1997V20.337H46.8886C47.0526 20.337 47.2124 20.2854 47.3455 20.1895C47.4785 20.0936 47.5781 19.9583 47.6299 19.8027C47.6818 19.6471 47.6834 19.4791 47.6345 19.3225C47.5856 19.166 47.4887 19.0288 47.3574 18.9304L28.602 4.86381C28.4667 4.76236 28.3022 4.70752 28.1331 4.70752C27.964 4.70752 27.7995 4.76236 27.6642 4.86381L8.90882 18.9304C8.77761 19.0288 8.68069 19.166 8.63178 19.3225C8.58288 19.4791 8.58447 19.6471 8.63634 19.8027C8.6882 19.9583 8.78772 20.0936 8.92077 20.1895C9.05383 20.2854 9.21369 20.337 9.37771 20.337H14.0666V41.4369H7.03328V39.8036C7.82648 39.6726 8.57242 39.339 9.19891 38.8351C9.82539 38.3313 10.3112 37.6743 10.6093 36.9276C10.9074 36.181 11.0077 35.37 10.9005 34.5733C10.7933 33.7765 10.4823 33.0209 9.99742 32.3796C10.1915 31.7302 10.2117 31.0411 10.0559 30.3815C9.90009 29.7218 9.5738 29.1146 9.10966 28.6207C9.28623 28.2275 9.37758 27.8013 9.37771 27.3703C9.37771 26.5413 9.04838 25.7462 8.46216 25.16C7.87593 24.5737 7.08085 24.2444 6.25181 24.2444C5.42277 24.2444 4.62768 24.5737 4.04146 25.16C3.45524 25.7462 3.1259 26.5413 3.1259 27.3703C3.12557 27.8029 3.21692 28.2307 3.39395 28.6254C2.93008 29.119 2.60394 29.7258 2.44815 30.385C2.29236 31.0443 2.31237 31.7328 2.50619 32.3819C2.02193 33.0232 1.71134 33.7786 1.60446 34.5751C1.49758 35.3715 1.59803 36.1821 1.89608 36.9284C2.19414 37.6746 2.67971 38.3314 3.30586 38.8351C3.932 39.3388 4.67753 39.6724 5.47033 39.8036V41.4369H0.781476C0.574216 41.4369 0.375444 41.5192 0.228889 41.6658C0.0823338 41.8123 0 42.0111 0 42.2184C0 42.4256 0.0823338 42.6244 0.228889 42.7709C0.375444 42.9175 0.574216 42.9998 0.781476 42.9998H44.5441C44.7514 42.9998 44.9502 42.9175 45.0967 42.7709C45.2433 42.6244 45.3256 42.4256 45.3256 42.2184C45.3256 42.0111 45.2433 41.8123 45.0967 41.6658C44.9502 41.5192 44.7514 41.4369 44.5441 41.4369ZM3.1259 35.1851C3.12877 34.3984 3.42949 33.642 3.96755 33.0681C4.07141 32.9562 4.14022 32.8163 4.16549 32.6658C4.19077 32.5152 4.1714 32.3606 4.10978 32.2209C3.89322 31.7373 3.84933 31.194 3.98547 30.6818C4.12161 30.1697 4.42952 29.7199 4.85765 29.4076C5.02346 29.2833 5.13308 29.0981 5.16239 28.893C5.1917 28.6878 5.13831 28.4794 5.01395 28.3136C4.80446 28.0436 4.69016 27.712 4.68886 27.3703C4.68886 26.9558 4.85352 26.5583 5.14663 26.2651C5.43974 25.972 5.83729 25.8074 6.25181 25.8074C6.66633 25.8074 7.06387 25.972 7.35698 26.2651C7.65009 26.5583 7.81476 26.9558 7.81476 27.3703C7.8127 27.7099 7.69902 28.0394 7.49123 28.3081C7.36687 28.4739 7.31348 28.6823 7.34279 28.8875C7.3721 29.0927 7.48172 29.2778 7.64752 29.4022C8.07566 29.7144 8.38356 30.1642 8.5197 30.6764C8.65584 31.1885 8.61196 31.7318 8.3954 32.2155C8.33378 32.3551 8.31441 32.5098 8.33968 32.6603C8.36496 32.8109 8.43377 32.9507 8.53762 33.0626C8.909 33.4563 9.17089 33.9403 9.29727 34.4666C9.42365 34.9929 9.41012 35.5431 9.25802 36.0625C9.10592 36.5819 8.82055 37.0525 8.43027 37.4275C8.03998 37.8025 7.55837 38.0688 7.03328 38.2V35.9666C7.03328 35.7593 6.95095 35.5605 6.80439 35.414C6.65784 35.2674 6.45907 35.1851 6.25181 35.1851C6.04455 35.1851 5.84578 35.2674 5.69922 35.414C5.55267 35.5605 5.47033 35.7593 5.47033 35.9666V38.2C4.80127 38.0273 4.20831 37.6377 3.78414 37.0922C3.35997 36.5467 3.12849 35.8761 3.1259 35.1851ZM28.1331 6.46584L44.5441 18.7741H11.7221L28.1331 6.46584ZM25.0072 41.4369V35.1851H27.3517V41.4369H25.0072ZM28.9146 41.4369V35.1851H31.259V41.4369H28.9146ZM32.822 41.4369V34.4036C32.822 34.1963 32.7397 33.9976 32.5931 33.851C32.4465 33.7045 32.2478 33.6221 32.0405 33.6221H24.2258C24.0185 33.6221 23.8197 33.7045 23.6732 33.851C23.5266 33.9976 23.4443 34.1963 23.4443 34.4036V41.4369H15.6295V20.337H40.6367V41.4369H32.822Z" fill="#4164A9"/>
<path d="M4.6894 12.5213H10.1597C10.2981 12.5215 10.4337 12.4822 10.5505 12.408C11.1558 12.2279 11.6802 11.8439 12.0346 11.3211C12.3889 10.7983 12.5515 10.169 12.4946 9.54003C12.4377 8.91103 12.1649 8.32111 11.7225 7.87039C11.2801 7.41967 10.6953 7.13594 10.0675 7.06737C9.91601 6.46239 9.58661 5.91673 9.12185 5.50085C8.65709 5.08497 8.07832 4.81797 7.46029 4.73435C6.84226 4.65072 6.21335 4.7543 5.65478 5.03171C5.09621 5.30912 4.63364 5.74762 4.3268 6.29058C3.53458 6.3831 2.80769 6.77496 2.29495 7.38592C1.78221 7.99688 1.52242 8.78074 1.56876 9.577C1.6151 10.3733 1.96407 11.1217 2.54421 11.669C3.12436 12.2164 3.8918 12.5213 4.6894 12.5213ZM4.66205 7.83244L4.77693 7.84494C4.94757 7.85616 5.11718 7.8111 5.25975 7.71666C5.40233 7.62223 5.50998 7.48363 5.56622 7.32213C5.685 6.9756 5.92213 6.68204 6.23592 6.49302C6.54972 6.30401 6.92009 6.23165 7.28195 6.28866C7.6438 6.34568 7.97398 6.52841 8.21446 6.80475C8.45493 7.08109 8.5903 7.43335 8.59678 7.79961C8.59678 7.8254 8.59288 7.85197 8.59288 7.87229C8.59285 7.98819 8.61861 8.10264 8.66827 8.20735C8.71794 8.31206 8.79028 8.40442 8.88004 8.47773C8.96981 8.55104 9.07475 8.60346 9.18728 8.6312C9.29981 8.65895 9.41709 8.66132 9.53065 8.63814C9.70075 8.6066 9.87567 8.61243 10.0433 8.65522C10.2109 8.698 10.3672 8.77672 10.5014 8.88592C10.6356 8.99512 10.7444 9.13219 10.8204 9.28763C10.8963 9.44307 10.9375 9.61317 10.9412 9.78612C10.9413 10.0564 10.848 10.3183 10.6771 10.5276C10.5062 10.737 10.2682 10.8808 10.0034 10.9349C9.97387 10.9411 9.94465 10.949 9.91591 10.9583H4.6894C4.27488 10.962 3.8759 10.8008 3.58023 10.5102C3.28455 10.2197 3.1164 9.82358 3.11278 9.40906C3.10915 8.99454 3.27034 8.59556 3.56089 8.29988C3.85143 8.00421 4.24753 7.83606 4.66205 7.83244Z" fill="#4164A9"/>
<path d="M30.8951 25.9255C30.0811 25.3725 29.1197 25.0768 28.1357 25.0768C27.1516 25.0768 26.1902 25.3725 25.3763 25.9255C25.2641 25.9958 25.1717 26.0934 25.1076 26.2092C25.0435 26.3249 25.0098 26.4551 25.0098 26.5874V30.4948C25.0098 30.7021 25.0921 30.9008 25.2387 31.0474C25.3852 31.1939 25.584 31.2763 25.7912 31.2763H30.4801C30.6874 31.2763 30.8861 31.1939 31.0327 31.0474C31.1792 30.9008 31.2616 30.7021 31.2616 30.4948V26.5874C31.2615 26.4551 31.2279 26.3249 31.1638 26.2092C31.0997 26.0934 31.0072 25.9958 30.8951 25.9255ZM29.6986 29.7133H26.5727V27.0399C27.05 26.7717 27.5882 26.6308 28.1357 26.6308C28.6831 26.6308 29.2214 26.7717 29.6986 27.0399V29.7133Z" fill="#4164A9"/>
<path d="M23.0787 25.9255C22.2647 25.3725 21.3033 25.0768 20.3193 25.0768C19.3352 25.0768 18.3738 25.3725 17.5599 25.9255C17.4477 25.9958 17.3553 26.0934 17.2912 26.2092C17.2271 26.3249 17.1934 26.4551 17.1934 26.5874V30.4948C17.1934 30.7021 17.2757 30.9008 17.4222 31.0474C17.5688 31.1939 17.7676 31.2763 17.9748 31.2763H22.6637C22.871 31.2763 23.0697 31.1939 23.2163 31.0474C23.3628 30.9008 23.4452 30.7021 23.4452 30.4948V26.5874C23.4451 26.4551 23.4115 26.3249 23.3474 26.2092C23.2832 26.0934 23.1908 25.9958 23.0787 25.9255ZM21.8822 29.7133H18.7563V27.0399C19.2336 26.7717 19.7718 26.6308 20.3193 26.6308C20.8667 26.6308 21.405 26.7717 21.8822 27.0399V29.7133Z" fill="#4164A9"/>
<path d="M38.7066 25.9255C37.8926 25.3725 36.9313 25.0768 35.9472 25.0768C34.9631 25.0768 34.0018 25.3725 33.1878 25.9255C33.0757 25.9958 32.9832 26.0934 32.9191 26.2092C32.855 26.3249 32.8213 26.4551 32.8213 26.5874V30.4948C32.8213 30.7021 32.9036 30.9008 33.0502 31.0474C33.1967 31.1939 33.3955 31.2763 33.6028 31.2763H38.2916C38.4989 31.2763 38.6977 31.1939 38.8442 31.0474C38.9908 30.9008 39.0731 30.7021 39.0731 30.4948V26.5874C39.073 26.4551 39.0394 26.3249 38.9753 26.2092C38.9112 26.0934 38.8187 25.9958 38.7066 25.9255ZM37.5101 29.7133H34.3842V27.0399C34.8615 26.7717 35.3997 26.6308 35.9472 26.6308C36.4947 26.6308 37.0329 26.7717 37.5101 27.0399V29.7133Z" fill="#4164A9"/>
<path d="M6.25316 34.4027C6.46042 34.4027 6.65919 34.3204 6.80574 34.1738C6.9523 34.0273 7.03463 33.8285 7.03463 33.6212V32.8398C7.03463 32.6325 6.9523 32.4337 6.80574 32.2872C6.65919 32.1406 6.46042 32.0583 6.25316 32.0583C6.0459 32.0583 5.84712 32.1406 5.70057 32.2872C5.55401 32.4337 5.47168 32.6325 5.47168 32.8398V33.6212C5.47168 33.8285 5.55401 34.0273 5.70057 34.1738C5.84712 34.3204 6.0459 34.4027 6.25316 34.4027Z" fill="#4164A9"/>
</svg>
