<svg width="28" height="28" viewBox="0 0 28 28" fill="none" xmlns="http://www.w3.org/2000/svg">
<rect width="28" height="28" rx="6" fill="#DFE7F5"/>
<mask id="mask0" mask-type="alpha" maskUnits="userSpaceOnUse" x="1" y="1" width="26" height="26">
<rect x="1.16699" y="1.16699" width="25.6667" height="25.6667" fill="#C4C4C4"/>
</mask>
<g mask="url(#mask0)">
<path d="M17.8542 17.7083C17.3847 17.7083 16.9822 17.9913 16.805 18.3958H16.25V16.3333H17.1667C18.1791 16.3333 19 15.5124 19 14.5C19 13.4876 18.1791 12.6667 17.1667 12.6667C17.1667 11.7596 16.5074 11.012 15.6431 10.8638C15.2742 9.78059 14.2506 9 13.0417 9C11.5225 9 10.2917 10.2309 10.2917 11.75C9.02589 11.75 8 12.7759 8 14.0417C8 15.3075 9.02589 16.3334 10.2917 16.3334H10.75V18.3959H10.1951C10.0178 17.9914 9.61494 17.7084 9.14579 17.7084C8.51288 17.7084 8 18.2213 8 18.8544C8 19.4871 8.51288 20 9.14579 20C9.61494 20 10.0178 19.7166 10.1951 19.3125H10.75C11.2563 19.3125 11.6667 18.9021 11.6667 18.3958V16.3333H13.0417V17.805C12.6376 17.9822 12.3542 18.3847 12.3542 18.8542C12.3542 19.4871 12.8675 20 13.5 20C14.1329 20 14.6458 19.4871 14.6458 18.8542C14.6458 18.3847 14.363 17.9818 13.9583 17.805V16.3333H15.3333V18.3958C15.3333 18.9021 15.7437 19.3125 16.25 19.3125H16.805C16.9822 19.7166 17.3847 20 17.8542 20C18.4871 20 19 19.4871 19 18.8542C19 18.2212 18.4871 17.7083 17.8542 17.7083ZM8.91671 14.0417C8.91671 13.2818 9.53258 12.6667 10.2917 12.6667H11.2083V11.75C11.2083 10.737 12.0293 9.91671 13.0417 9.91671C14.0541 9.91671 14.875 10.737 14.875 11.75H15.3338C15.8401 11.75 16.25 12.1597 16.25 12.6667V13.5834H17.1667C17.673 13.5834 18.0833 13.9933 18.0833 14.5001C18.0833 15.0059 17.673 15.4169 17.1667 15.4169H10.2917C9.53258 15.4167 8.91671 14.8008 8.91671 14.0417Z" fill="#5C638B"/>
<path d="M14.3338 3.58936C13.3688 3.58936 12.5573 4.25721 12.3361 5.15483C10.1032 5.5931 8.06633 6.76479 6.55445 8.4925C4.90718 10.3749 4 12.7907 4 15.2949C4 15.6736 4.30709 15.9807 4.68587 15.9807C5.06465 15.9807 5.37174 15.6736 5.37174 15.2949C5.37174 13.1231 6.15838 11.0281 7.58677 9.39583C8.86976 7.92967 10.5878 6.92478 12.4739 6.52606C12.8042 7.22204 13.5136 7.70457 14.3338 7.70457C15.4683 7.70457 16.3914 6.78153 16.3914 5.64696C16.3914 4.5124 15.4683 3.58936 14.3338 3.58936Z" fill="#5C638B"/>
<path d="M23.9799 13.6089C23.6011 13.6089 23.294 13.916 23.294 14.2948C23.294 16.4665 22.5074 18.5615 21.079 20.1938C19.796 21.6599 18.078 22.6648 16.1919 23.0635C15.8616 22.3676 15.1522 21.885 14.332 21.885C13.1975 21.885 12.2744 22.8081 12.2744 23.9426C12.2744 25.0772 13.1975 26.0003 14.332 26.0003C15.297 26.0003 16.1085 25.3324 16.3297 24.4348C18.5626 23.9965 20.5994 22.8248 22.1113 21.0971C23.7586 19.2147 24.6658 16.7989 24.6658 14.2948C24.6658 13.916 24.3587 13.6089 23.9799 13.6089Z" fill="#5C638B"/>
</g>
</svg>
