<svg width="43" height="38" viewBox="0 0 43 38" fill="none" xmlns="http://www.w3.org/2000/svg">
  <path d="M21.3863 37.3709C33.1977 37.3709 42.7727 31.8395 42.7727 25.016C42.7727 18.1926 33.1977 12.6611 21.3863 12.6611C9.57499 12.6611 0 18.1926 0 25.016C0 31.8395 9.57499 37.3709 21.3863 37.3709Z" fill="#ECECEC"/>
  <path d="M42.3269 21.6436H0.740234V24.4358C0.740234 27.5121 2.7541 30.6132 6.81887 32.9236C14.936 37.6185 28.1064 37.6185 36.2359 32.9236C40.3007 30.5762 42.3145 27.5121 42.3145 24.4358L42.3269 21.6436Z" fill="#D2E1FF"/>
  <path d="M36.2595 30.1322C28.13 34.8271 14.9597 34.8271 6.84251 30.1322C-1.27466 25.4374 -1.28701 17.7773 6.84251 13.1443C14.972 8.51116 28.13 8.46174 36.2595 13.1443C44.3891 17.8268 44.3767 25.4374 36.2595 30.1322Z" fill="#ECECEC"/>
  <path d="M42.9328 12.3418H0.160156V22.8805C0.160156 26.031 2.23578 29.1939 6.41174 31.6031C14.7637 36.4339 28.3046 36.4339 36.6566 31.6031C40.8325 29.1939 42.9081 26.031 42.9081 22.8805L42.9328 12.3418Z" fill="#4164A9"/>
  <path d="M36.6689 21.0759C28.317 25.9067 14.776 25.9067 6.4241 21.0759C-1.92782 16.2451 -1.92782 8.43686 6.4241 3.61845C14.776 -1.19997 28.317 -1.21232 36.6689 3.61845C45.0208 8.44921 45.0332 16.2575 36.6689 21.0759Z" fill="#ECECEC"/>
  <path d="M5.54605 25.9541C5.35372 26.1492 5.09858 26.2699 4.82578 26.295C4.55299 26.3201 4.2801 26.2479 4.05539 26.0912C3.83069 25.9345 3.66867 25.7034 3.59795 25.4388C3.52723 25.1741 3.55236 24.893 3.66895 24.6451C3.8515 24.4293 4.11093 24.2931 4.3922 24.2655C4.67347 24.2378 4.95446 24.3208 5.17555 24.4969C5.29568 24.5681 5.40056 24.6624 5.48421 24.7742C5.56786 24.886 5.62866 25.0133 5.66307 25.1486C5.69748 25.284 5.70486 25.4248 5.68478 25.563C5.6647 25.7012 5.61756 25.8341 5.54605 25.9541Z" fill="white"/>
  <path d="M9.40282 27.5984C9.22902 27.8113 8.98533 27.9557 8.7151 28.0058C8.44487 28.056 8.1656 28.0087 7.92697 27.8723C7.68834 27.736 7.5058 27.5194 7.41182 27.2611C7.31783 27.0028 7.31847 26.7196 7.41366 26.4617C7.5759 26.2316 7.82109 26.0734 8.09762 26.0204C8.37414 25.9674 8.66044 26.0238 8.89627 26.1776C9.02319 26.2372 9.13706 26.3213 9.23131 26.4252C9.32556 26.529 9.3983 26.6504 9.44539 26.7825C9.49248 26.9146 9.51299 27.0547 9.50568 27.1947C9.49837 27.3347 9.46341 27.472 9.40282 27.5984Z" fill="white"/>
  <path d="M10.3411 5.07555C16.5186 1.49263 26.5631 1.49263 32.7529 5.07555C35.6069 6.71875 37.1389 8.78203 37.3613 11.0059C37.6208 8.53493 36.1258 5.92805 32.7529 4.00068C26.5755 0.430112 16.5309 0.430112 10.3411 4.00068C7.01765 5.92805 5.48567 8.48551 5.73277 11.0059C5.95516 8.8438 7.48714 6.71875 10.3411 5.07555Z" fill="#D4D4D4"/>
  <path d="M10.3408 16.9356C16.5182 20.5062 26.5628 20.5062 32.7526 16.9356C35.6066 15.28 37.1386 13.2291 37.361 11.0052C37.1386 8.84314 35.6066 6.71809 32.7526 5.07489C26.5751 1.49196 16.5306 1.49196 10.3408 5.07489C7.48679 6.71809 5.95481 8.78136 5.73242 11.0052C5.95481 13.1674 7.48679 15.28 10.3408 16.9356Z" fill="white"/>
  <g style="mix-blend-mode:multiply" opacity="0.13">
    <path d="M13.8487 16.08C16.5145 17.4866 19.4831 18.2218 22.4972 18.2218C25.5112 18.2218 28.4798 17.4866 31.1456 16.08C35.9146 13.2384 35.9146 8.66709 31.1456 5.81311C28.4798 4.40654 25.5112 3.67139 22.4972 3.67139C19.4831 3.67139 16.5145 4.40654 13.8487 5.81311C9.09209 8.64238 9.09209 13.2384 13.8487 16.08Z" fill="#D2E1FF"/>
  </g>
</svg>
