<svg width="43" height="60" viewBox="0 0 43 60" fill="none" xmlns="http://www.w3.org/2000/svg">
  <path d="M21.3863 59.3709C33.1977 59.3709 42.7727 53.8395 42.7727 47.016C42.7727 40.1926 33.1977 34.6611 21.3863 34.6611C9.57499 34.6611 0 40.1926 0 47.016C0 53.8395 9.57499 59.3709 21.3863 59.3709Z" fill="#ECECEC"/>
  <path d="M42.3269 43.6436H0.740234V46.4358C0.740234 49.5121 2.7541 52.6132 6.81887 54.9236C14.936 59.6185 28.1064 59.6185 36.2359 54.9236C40.3007 52.5762 42.3145 49.5121 42.3145 46.4358L42.3269 43.6436Z" fill="#D2E1FF"/>
  <path d="M36.2595 52.1322C28.13 56.8271 14.9597 56.8271 6.84251 52.1322C-1.27466 47.4374 -1.28701 39.7773 6.84251 35.1443C14.972 30.5112 28.13 30.4617 36.2595 35.1443C44.3891 39.8268 44.3767 47.4374 36.2595 52.1322Z" fill="#ECECEC"/>
  <path d="M42.9328 34.3418H0.160156V44.8805C0.160156 48.031 2.23578 51.1939 6.41174 53.6031C14.7637 58.4339 28.3046 58.4339 36.6566 53.6031C40.8325 51.1939 42.9081 48.031 42.9081 44.8805L42.9328 34.3418Z" fill="#4164A9"/>
  <path d="M36.6689 43.0759C28.317 47.9067 14.776 47.9067 6.4241 43.0759C-1.92782 38.2451 -1.92782 30.4369 6.4241 25.6184C14.776 20.8 28.317 20.7877 36.6689 25.6184C45.0208 30.4492 45.0332 38.2575 36.6689 43.0759Z" fill="#ECECEC"/>
  <path d="M5.54605 47.9541C5.35372 48.1492 5.09858 48.2699 4.82578 48.295C4.55299 48.3201 4.2801 48.2479 4.05539 48.0912C3.83069 47.9345 3.66867 47.7034 3.59795 47.4388C3.52723 47.1741 3.55236 46.893 3.66895 46.6451C3.8515 46.4293 4.11093 46.2931 4.3922 46.2655C4.67347 46.2378 4.95446 46.3208 5.17555 46.4969C5.29568 46.5681 5.40056 46.6624 5.48421 46.7742C5.56786 46.886 5.62866 47.0133 5.66307 47.1486C5.69748 47.284 5.70486 47.4248 5.68478 47.563C5.6647 47.7012 5.61756 47.8341 5.54605 47.9541Z" fill="white"/>
  <path d="M9.40282 49.5984C9.22902 49.8113 8.98533 49.9557 8.7151 50.0058C8.44487 50.056 8.1656 50.0087 7.92697 49.8723C7.68834 49.736 7.5058 49.5194 7.41182 49.2611C7.31783 49.0028 7.31847 48.7196 7.41366 48.4617C7.5759 48.2316 7.82109 48.0734 8.09762 48.0204C8.37414 47.9674 8.66044 48.0238 8.89627 48.1776C9.02319 48.2372 9.13706 48.3213 9.23131 48.4252C9.32556 48.529 9.3983 48.6504 9.44539 48.7825C9.49248 48.9146 9.51299 49.0547 9.50568 49.1947C9.49837 49.3347 9.46341 49.472 9.40282 49.5984Z" fill="white"/>
  <path d="M10.3411 27.0756C16.5186 23.4926 26.5631 23.4926 32.7529 27.0756C35.6069 28.7188 37.1389 30.782 37.3613 33.0059C37.6208 30.5349 36.1258 27.928 32.7529 26.0007C26.5755 22.4301 16.5309 22.4301 10.3411 26.0007C7.01765 27.928 5.48567 30.4855 5.73277 33.0059C5.95516 30.8438 7.48714 28.7188 10.3411 27.0756Z" fill="#D4D4D4"/>
  <path d="M10.3408 38.9356C16.5182 42.5062 26.5628 42.5062 32.7526 38.9356C35.6066 37.28 37.1386 35.2291 37.361 33.0052C37.1386 30.8431 35.6066 28.7181 32.7526 27.0749C26.5751 23.492 16.5306 23.492 10.3408 27.0749C7.48679 28.7181 5.95481 30.7814 5.73242 33.0052C5.95481 35.1674 7.48679 37.28 10.3408 38.9356Z" fill="white"/>
  <g style="mix-blend-mode:multiply" opacity="0.13">
    <path d="M13.8487 38.08C16.5145 39.4866 19.4831 40.2218 22.4972 40.2218C25.5112 40.2218 28.4798 39.4866 31.1456 38.08C35.9146 35.2384 35.9146 30.6671 31.1456 27.8131C28.4798 26.4065 25.5112 25.6714 22.4972 25.6714C19.4831 25.6714 16.5145 26.4065 13.8487 27.8131C9.09209 30.6424 9.09209 35.2384 13.8487 38.08Z" fill="#D2E1FF"/>
  </g>
  <path d="M21.3863 48.3709C33.1977 48.3709 42.7727 42.8395 42.7727 36.016C42.7727 29.1926 33.1977 23.6611 21.3863 23.6611C9.57499 23.6611 0 29.1926 0 36.016C0 42.8395 9.57499 48.3709 21.3863 48.3709Z" fill="#ECECEC"/>
  <path d="M42.3269 32.6436H0.740234V35.4358C0.740234 38.5121 2.7541 41.6132 6.81887 43.9236C14.936 48.6185 28.1064 48.6185 36.2359 43.9236C40.3007 41.5762 42.3145 38.5121 42.3145 35.4358L42.3269 32.6436Z" fill="#D2E1FF"/>
  <path d="M36.2595 41.1322C28.13 45.8271 14.9597 45.8271 6.84251 41.1322C-1.27466 36.4374 -1.28701 28.7773 6.84251 24.1443C14.972 19.5112 28.13 19.4617 36.2595 24.1443C44.3891 28.8268 44.3767 36.4374 36.2595 41.1322Z" fill="#ECECEC"/>
  <path d="M42.9328 23.3418H0.160156V33.8805C0.160156 37.031 2.23578 40.1939 6.41174 42.6031C14.7637 47.4339 28.3046 47.4339 36.6566 42.6031C40.8325 40.1939 42.9081 37.031 42.9081 33.8805L42.9328 23.3418Z" fill="#4164A9"/>
  <path d="M36.6689 32.0759C28.317 36.9067 14.776 36.9067 6.4241 32.0759C-1.92782 27.2451 -1.92782 19.4369 6.4241 14.6184C14.776 9.80003 28.317 9.78768 36.6689 14.6184C45.0208 19.4492 45.0332 27.2575 36.6689 32.0759Z" fill="#ECECEC"/>
  <path d="M5.54605 36.9541C5.35372 37.1492 5.09858 37.2699 4.82578 37.295C4.55299 37.3201 4.2801 37.2479 4.05539 37.0912C3.83069 36.9345 3.66867 36.7034 3.59795 36.4388C3.52723 36.1741 3.55236 35.893 3.66895 35.6451C3.8515 35.4293 4.11093 35.2931 4.3922 35.2655C4.67347 35.2378 4.95446 35.3208 5.17555 35.4969C5.29568 35.5681 5.40056 35.6624 5.48421 35.7742C5.56786 35.886 5.62866 36.0133 5.66307 36.1486C5.69748 36.284 5.70486 36.4248 5.68478 36.563C5.6647 36.7012 5.61756 36.8341 5.54605 36.9541Z" fill="white"/>
  <path d="M9.40282 38.5984C9.22902 38.8113 8.98533 38.9557 8.7151 39.0058C8.44487 39.056 8.1656 39.0087 7.92697 38.8723C7.68834 38.736 7.5058 38.5194 7.41182 38.2611C7.31783 38.0028 7.31847 37.7196 7.41366 37.4617C7.5759 37.2316 7.82109 37.0734 8.09762 37.0204C8.37414 36.9674 8.66044 37.0238 8.89627 37.1776C9.02319 37.2372 9.13706 37.3213 9.23131 37.4252C9.32556 37.529 9.3983 37.6504 9.44539 37.7825C9.49248 37.9146 9.51299 38.0547 9.50568 38.1947C9.49837 38.3347 9.46341 38.472 9.40282 38.5984Z" fill="white"/>
  <path d="M10.3411 16.0756C16.5186 12.4926 26.5631 12.4926 32.7529 16.0756C35.6069 17.7188 37.1389 19.782 37.3613 22.0059C37.6208 19.5349 36.1258 16.928 32.7529 15.0007C26.5755 11.4301 16.5309 11.4301 10.3411 15.0007C7.01765 16.928 5.48567 19.4855 5.73277 22.0059C5.95516 19.8438 7.48714 17.7188 10.3411 16.0756Z" fill="#D4D4D4"/>
  <path d="M10.3408 27.9356C16.5182 31.5062 26.5628 31.5062 32.7526 27.9356C35.6066 26.28 37.1386 24.2291 37.361 22.0052C37.1386 19.8431 35.6066 17.7181 32.7526 16.0749C26.5751 12.492 16.5306 12.492 10.3408 16.0749C7.48679 17.7181 5.95481 19.7814 5.73242 22.0052C5.95481 24.1674 7.48679 26.28 10.3408 27.9356Z" fill="white"/>
  <g style="mix-blend-mode:multiply" opacity="0.13">
    <path d="M13.8487 27.08C16.5145 28.4866 19.4831 29.2218 22.4972 29.2218C25.5112 29.2218 28.4798 28.4866 31.1456 27.08C35.9146 24.2384 35.9146 19.6671 31.1456 16.8131C28.4798 15.4065 25.5112 14.6714 22.4972 14.6714C19.4831 14.6714 16.5145 15.4065 13.8487 16.8131C9.09209 19.6424 9.09209 24.2384 13.8487 27.08Z" fill="#D2E1FF"/>
  </g>
  <path d="M21.3863 37.3709C33.1977 37.3709 42.7727 31.8395 42.7727 25.016C42.7727 18.1926 33.1977 12.6611 21.3863 12.6611C9.57499 12.6611 0 18.1926 0 25.016C0 31.8395 9.57499 37.3709 21.3863 37.3709Z" fill="#ECECEC"/>
  <path d="M42.3269 21.6436H0.740234V24.4358C0.740234 27.5121 2.7541 30.6132 6.81887 32.9236C14.936 37.6185 28.1064 37.6185 36.2359 32.9236C40.3007 30.5762 42.3145 27.5121 42.3145 24.4358L42.3269 21.6436Z" fill="#D2E1FF"/>
  <path d="M36.2595 30.1322C28.13 34.8271 14.9597 34.8271 6.84251 30.1322C-1.27466 25.4374 -1.28701 17.7773 6.84251 13.1443C14.972 8.51116 28.13 8.46174 36.2595 13.1443C44.3891 17.8268 44.3767 25.4374 36.2595 30.1322Z" fill="#ECECEC"/>
  <path d="M42.9328 12.3418H0.160156V22.8805C0.160156 26.031 2.23578 29.1939 6.41174 31.6031C14.7637 36.4339 28.3046 36.4339 36.6566 31.6031C40.8325 29.1939 42.9081 26.031 42.9081 22.8805L42.9328 12.3418Z" fill="#4164A9"/>
  <path d="M36.6689 21.0759C28.317 25.9067 14.776 25.9067 6.4241 21.0759C-1.92782 16.2451 -1.92782 8.43686 6.4241 3.61845C14.776 -1.19997 28.317 -1.21232 36.6689 3.61845C45.0208 8.44921 45.0332 16.2575 36.6689 21.0759Z" fill="#ECECEC"/>
  <path d="M5.54605 25.9541C5.35372 26.1492 5.09858 26.2699 4.82578 26.295C4.55299 26.3201 4.2801 26.2479 4.05539 26.0912C3.83069 25.9345 3.66867 25.7034 3.59795 25.4388C3.52723 25.1741 3.55236 24.893 3.66895 24.6451C3.8515 24.4293 4.11093 24.2931 4.3922 24.2655C4.67347 24.2378 4.95446 24.3208 5.17555 24.4969C5.29568 24.5681 5.40056 24.6624 5.48421 24.7742C5.56786 24.886 5.62866 25.0133 5.66307 25.1486C5.69748 25.284 5.70486 25.4248 5.68478 25.563C5.6647 25.7012 5.61756 25.8341 5.54605 25.9541Z" fill="white"/>
  <path d="M9.40282 27.5984C9.22902 27.8113 8.98533 27.9557 8.7151 28.0058C8.44487 28.056 8.1656 28.0087 7.92697 27.8723C7.68834 27.736 7.5058 27.5194 7.41182 27.2611C7.31783 27.0028 7.31847 26.7196 7.41366 26.4617C7.5759 26.2316 7.82109 26.0734 8.09762 26.0204C8.37414 25.9674 8.66044 26.0238 8.89627 26.1776C9.02319 26.2372 9.13706 26.3213 9.23131 26.4252C9.32556 26.529 9.3983 26.6504 9.44539 26.7825C9.49248 26.9146 9.51299 27.0547 9.50568 27.1947C9.49837 27.3347 9.46341 27.472 9.40282 27.5984Z" fill="white"/>
  <path d="M10.3411 5.07555C16.5186 1.49263 26.5631 1.49263 32.7529 5.07555C35.6069 6.71875 37.1389 8.78203 37.3613 11.0059C37.6208 8.53493 36.1258 5.92805 32.7529 4.00068C26.5755 0.430112 16.5309 0.430112 10.3411 4.00068C7.01765 5.92805 5.48567 8.48551 5.73277 11.0059C5.95516 8.8438 7.48714 6.71875 10.3411 5.07555Z" fill="#D4D4D4"/>
  <path d="M10.3408 16.9356C16.5182 20.5062 26.5628 20.5062 32.7526 16.9356C35.6066 15.28 37.1386 13.2291 37.361 11.0052C37.1386 8.84314 35.6066 6.71809 32.7526 5.07489C26.5751 1.49196 16.5306 1.49196 10.3408 5.07489C7.48679 6.71809 5.95481 8.78136 5.73242 11.0052C5.95481 13.1674 7.48679 15.28 10.3408 16.9356Z" fill="white"/>
  <g style="mix-blend-mode:multiply" opacity="0.13">
    <path d="M13.8487 16.08C16.5145 17.4866 19.4831 18.2218 22.4972 18.2218C25.5112 18.2218 28.4798 17.4866 31.1456 16.08C35.9146 13.2384 35.9146 8.66709 31.1456 5.81311C28.4798 4.40654 25.5112 3.67139 22.4972 3.67139C19.4831 3.67139 16.5145 4.40654 13.8487 5.81311C9.09209 8.64238 9.09209 13.2384 13.8487 16.08Z" fill="#D2E1FF"/>
  </g>
</svg>
