<svg width="28" height="28" viewBox="0 0 28 28" fill="none" xmlns="http://www.w3.org/2000/svg">
  <g clip-path="url(#clip0_2_2)">
    <path d="M22 0H6C2.68629 0 0 2.68629 0 6V22C0 25.3137 2.68629 28 6 28H22C25.3137 28 28 25.3137 28 22V6C28 2.68629 25.3137 0 22 0Z" fill="#DFE7F5"/>
    <g clip-path="url(#clip1_2_2)">
      <mask id="mask0_2_2" style="mask-type:alpha" maskUnits="userSpaceOnUse" x="2" y="2" width="24" height="24">
        <path d="M26 2H2V26H26V2Z" fill="#C4C4C4"/>
      </mask>
      <g mask="url(#mask0_2_2)">
        <path d="M19.8513 18.2095C19.5787 18.0067 19.1933 18.0634 18.9905 18.3359C18.879 18.4859 18.7596 18.6329 18.6357 18.7731C18.4107 19.0276 18.4346 19.4164 18.6892 19.6415C18.8062 19.745 18.9516 19.7958 19.0964 19.7958C19.2666 19.7958 19.436 19.7256 19.5576 19.588C19.7043 19.4221 19.8457 19.2479 19.9777 19.0703C20.1806 18.7978 20.124 18.4123 19.8513 18.2095Z" fill="#F2994A"/>
        <path d="M20.8791 15.3267C20.5473 15.2544 20.2193 15.465 20.1471 15.797C20.1073 15.9796 20.0592 16.1626 20.0041 16.3409C19.9038 16.6655 20.0857 17.01 20.4103 17.1103C20.4708 17.129 20.532 17.1379 20.5922 17.1379C20.8549 17.1379 21.0981 16.9683 21.1798 16.7041C21.2452 16.4925 21.3022 16.2754 21.3494 16.0587C21.4216 15.7267 21.2111 15.399 20.8791 15.3267Z" fill="#F2994A"/>
        <path d="M16.8892 20.1778C16.7259 20.2689 16.5568 20.3542 16.3866 20.431C16.0769 20.5709 15.9392 20.9353 16.0791 21.2449C16.1818 21.4725 16.4057 21.6071 16.6402 21.6071C16.7248 21.6071 16.8108 21.5895 16.893 21.5524C17.0949 21.4613 17.2954 21.3602 17.4891 21.2521C17.7858 21.0865 17.892 20.7117 17.7263 20.415C17.5607 20.1184 17.1859 20.0121 16.8892 20.1778Z" fill="#F2994A"/>
        <path d="M13.0114 9.45312V14.1202L10.7554 16.3762C10.5151 16.6165 10.5151 17.006 10.7554 17.2462C10.8755 17.3664 11.0329 17.4264 11.1904 17.4264C11.3479 17.4264 11.5053 17.3664 11.6255 17.2462L14.0617 14.81C14.1771 14.6947 14.2419 14.5382 14.2419 14.375V9.45312C14.2419 9.11333 13.9664 8.83789 13.6267 8.83789C13.2869 8.83789 13.0114 9.11333 13.0114 9.45312Z" fill="#F2994A"/>
        <path d="M20.8848 7.82275C20.545 7.82275 20.2695 8.09819 20.2695 8.43799V10.1464C18.8375 7.90052 16.3367 6.5 13.625 6.5C11.5215 6.5 9.54394 7.31915 8.05651 8.80651C6.56915 10.2939 5.75 12.2715 5.75 14.375C5.75 16.4785 6.56915 18.4561 8.05651 19.9435C9.54394 21.4308 11.5215 22.25 13.625 22.25C13.6302 22.25 13.6352 22.2494 13.6404 22.2492C13.6455 22.2494 13.6506 22.25 13.6558 22.25C13.8775 22.25 14.1014 22.2406 14.3214 22.2223C14.6599 22.1939 14.9115 21.8964 14.8831 21.5578C14.8547 21.2192 14.5577 20.9676 14.2187 20.9961C14.0327 21.0116 13.8434 21.0195 13.6558 21.0195C13.6506 21.0195 13.6455 21.0202 13.6404 21.0203C13.6352 21.0202 13.6302 21.0195 13.625 21.0195C9.96119 21.0195 6.98047 18.0388 6.98047 14.375C6.98047 10.7112 9.96119 7.73047 13.625 7.73047C15.9862 7.73047 18.158 8.98902 19.3447 10.9912H17.653C17.3132 10.9912 17.0378 11.2667 17.0378 11.6065C17.0378 11.9462 17.3132 12.2217 17.653 12.2217H19.5312C19.9059 12.2217 20.2565 12.1164 20.5549 11.934C20.5741 11.923 20.5926 11.9112 20.6102 11.8985C21.1456 11.5463 21.5 10.9404 21.5 10.2529V8.43799C21.5 8.09819 21.2246 7.82275 20.8848 7.82275Z" fill="#F2994A"/>
      </g>
    </g>
  </g>
  <defs>
    <clipPath id="clip0_2_2">
    <rect width="28" height="28" fill="white"/>
    </clipPath>
    <clipPath id="clip1_2_2">
    <rect width="24" height="24" fill="white" transform="translate(2 2)"/>
    </clipPath>
  </defs>
</svg>
