<svg width="43" height="73" viewBox="0 0 43 73" fill="none" xmlns="http://www.w3.org/2000/svg">
  <path d="M21.3863 72.3709C33.1977 72.3709 42.7727 66.8395 42.7727 60.016C42.7727 53.1926 33.1977 47.6611 21.3863 47.6611C9.57499 47.6611 0 53.1926 0 60.016C0 66.8395 9.57499 72.3709 21.3863 72.3709Z" fill="#ECECEC"/>
  <path d="M42.3269 56.6436H0.740234V59.4358C0.740234 62.5121 2.7541 65.6132 6.81887 67.9236C14.936 72.6185 28.1064 72.6185 36.2359 67.9236C40.3007 65.5762 42.3145 62.5121 42.3145 59.4358L42.3269 56.6436Z" fill="#D2E1FF"/>
  <path d="M36.2595 65.1322C28.13 69.8271 14.9597 69.8271 6.84251 65.1322C-1.27466 60.4374 -1.28701 52.7773 6.84251 48.1443C14.972 43.5112 28.13 43.4617 36.2595 48.1443C44.3891 52.8268 44.3767 60.4374 36.2595 65.1322Z" fill="#ECECEC"/>
  <path d="M42.9328 47.3418H0.160156V57.8805C0.160156 61.031 2.23578 64.1939 6.41174 66.6031C14.7637 71.4339 28.3046 71.4339 36.6566 66.6031C40.8325 64.1939 42.9081 61.031 42.9081 57.8805L42.9328 47.3418Z" fill="#4164A9"/>
  <path d="M36.6689 56.0759C28.317 60.9067 14.776 60.9067 6.4241 56.0759C-1.92782 51.2451 -1.92782 43.4369 6.4241 38.6184C14.776 33.8 28.317 33.7877 36.6689 38.6184C45.0208 43.4492 45.0332 51.2575 36.6689 56.0759Z" fill="#ECECEC"/>
  <path d="M5.54605 60.9541C5.35372 61.1492 5.09858 61.2699 4.82578 61.295C4.55299 61.3201 4.2801 61.2479 4.05539 61.0912C3.83069 60.9345 3.66867 60.7034 3.59795 60.4388C3.52723 60.1741 3.55236 59.893 3.66895 59.6451C3.8515 59.4293 4.11093 59.2931 4.3922 59.2655C4.67347 59.2378 4.95446 59.3208 5.17555 59.4969C5.29568 59.5681 5.40056 59.6624 5.48421 59.7742C5.56786 59.886 5.62866 60.0133 5.66307 60.1486C5.69748 60.284 5.70486 60.4248 5.68478 60.563C5.6647 60.7012 5.61756 60.8341 5.54605 60.9541Z" fill="white"/>
  <path d="M9.40282 62.5984C9.22902 62.8113 8.98533 62.9557 8.7151 63.0058C8.44487 63.056 8.1656 63.0087 7.92697 62.8723C7.68834 62.736 7.5058 62.5194 7.41182 62.2611C7.31783 62.0028 7.31847 61.7196 7.41366 61.4617C7.5759 61.2316 7.82109 61.0734 8.09762 61.0204C8.37414 60.9674 8.66044 61.0238 8.89627 61.1776C9.02319 61.2372 9.13706 61.3213 9.23131 61.4252C9.32556 61.529 9.3983 61.6504 9.44539 61.7825C9.49248 61.9146 9.51299 62.0547 9.50568 62.1947C9.49837 62.3347 9.46341 62.472 9.40282 62.5984Z" fill="white"/>
  <path d="M10.3411 40.0756C16.5186 36.4926 26.5631 36.4926 32.7529 40.0756C35.6069 41.7188 37.1389 43.782 37.3613 46.0059C37.6208 43.5349 36.1258 40.928 32.7529 39.0007C26.5755 35.4301 16.5309 35.4301 10.3411 39.0007C7.01765 40.928 5.48567 43.4855 5.73277 46.0059C5.95516 43.8438 7.48714 41.7188 10.3411 40.0756Z" fill="#D4D4D4"/>
  <path d="M10.3408 51.9356C16.5182 55.5062 26.5628 55.5062 32.7526 51.9356C35.6066 50.28 37.1386 48.2291 37.361 46.0052C37.1386 43.8431 35.6066 41.7181 32.7526 40.0749C26.5751 36.492 16.5306 36.492 10.3408 40.0749C7.48679 41.7181 5.95481 43.7814 5.73242 46.0052C5.95481 48.1674 7.48679 50.28 10.3408 51.9356Z" fill="white"/>
  <g style="mix-blend-mode:multiply" opacity="0.13">
    <path d="M13.8487 51.08C16.5145 52.4866 19.4831 53.2218 22.4972 53.2218C25.5112 53.2218 28.4798 52.4866 31.1456 51.08C35.9146 48.2384 35.9146 43.6671 31.1456 40.8131C28.4798 39.4065 25.5112 38.6714 22.4972 38.6714C19.4831 38.6714 16.5145 39.4065 13.8487 40.8131C9.09209 43.6424 9.09209 48.2384 13.8487 51.08Z" fill="#D2E1FF"/>
  </g>
  <path d="M21.3863 61.3709C33.1977 61.3709 42.7727 55.8395 42.7727 49.016C42.7727 42.1926 33.1977 36.6611 21.3863 36.6611C9.57499 36.6611 0 42.1926 0 49.016C0 55.8395 9.57499 61.3709 21.3863 61.3709Z" fill="#ECECEC"/>
  <path d="M42.3269 45.6436H0.740234V48.4358C0.740234 51.5121 2.7541 54.6132 6.81887 56.9236C14.936 61.6185 28.1064 61.6185 36.2359 56.9236C40.3007 54.5762 42.3145 51.5121 42.3145 48.4358L42.3269 45.6436Z" fill="#D2E1FF"/>
  <path d="M36.2595 54.1322C28.13 58.8271 14.9597 58.8271 6.84251 54.1322C-1.27466 49.4374 -1.28701 41.7773 6.84251 37.1443C14.972 32.5112 28.13 32.4617 36.2595 37.1443C44.3891 41.8268 44.3767 49.4374 36.2595 54.1322Z" fill="#ECECEC"/>
  <path d="M42.9328 36.3418H0.160156V46.8805C0.160156 50.031 2.23578 53.1939 6.41174 55.6031C14.7637 60.4339 28.3046 60.4339 36.6566 55.6031C40.8325 53.1939 42.9081 50.031 42.9081 46.8805L42.9328 36.3418Z" fill="#4164A9"/>
  <path d="M36.6689 45.0759C28.317 49.9067 14.776 49.9067 6.4241 45.0759C-1.92782 40.2451 -1.92782 32.4369 6.4241 27.6184C14.776 22.8 28.317 22.7877 36.6689 27.6184C45.0208 32.4492 45.0332 40.2575 36.6689 45.0759Z" fill="#ECECEC"/>
  <path d="M5.54605 49.9541C5.35372 50.1492 5.09858 50.2699 4.82578 50.295C4.55299 50.3201 4.2801 50.2479 4.05539 50.0912C3.83069 49.9345 3.66867 49.7034 3.59795 49.4388C3.52723 49.1741 3.55236 48.893 3.66895 48.6451C3.8515 48.4293 4.11093 48.2931 4.3922 48.2655C4.67347 48.2378 4.95446 48.3208 5.17555 48.4969C5.29568 48.5681 5.40056 48.6624 5.48421 48.7742C5.56786 48.886 5.62866 49.0133 5.66307 49.1486C5.69748 49.284 5.70486 49.4248 5.68478 49.563C5.6647 49.7012 5.61756 49.8341 5.54605 49.9541Z" fill="white"/>
  <path d="M9.40282 51.5984C9.22902 51.8113 8.98533 51.9557 8.7151 52.0058C8.44487 52.056 8.1656 52.0087 7.92697 51.8723C7.68834 51.736 7.5058 51.5194 7.41182 51.2611C7.31783 51.0028 7.31847 50.7196 7.41366 50.4617C7.5759 50.2316 7.82109 50.0734 8.09762 50.0204C8.37414 49.9674 8.66044 50.0238 8.89627 50.1776C9.02319 50.2372 9.13706 50.3213 9.23131 50.4252C9.32556 50.529 9.3983 50.6504 9.44539 50.7825C9.49248 50.9146 9.51299 51.0547 9.50568 51.1947C9.49837 51.3347 9.46341 51.472 9.40282 51.5984Z" fill="white"/>
  <path d="M10.3411 29.0756C16.5186 25.4926 26.5631 25.4926 32.7529 29.0756C35.6069 30.7188 37.1389 32.782 37.3613 35.0059C37.6208 32.5349 36.1258 29.928 32.7529 28.0007C26.5755 24.4301 16.5309 24.4301 10.3411 28.0007C7.01765 29.928 5.48567 32.4855 5.73277 35.0059C5.95516 32.8438 7.48714 30.7188 10.3411 29.0756Z" fill="#D4D4D4"/>
  <path d="M10.3408 40.9356C16.5182 44.5062 26.5628 44.5062 32.7526 40.9356C35.6066 39.28 37.1386 37.2291 37.361 35.0052C37.1386 32.8431 35.6066 30.7181 32.7526 29.0749C26.5751 25.492 16.5306 25.492 10.3408 29.0749C7.48679 30.7181 5.95481 32.7814 5.73242 35.0052C5.95481 37.1674 7.48679 39.28 10.3408 40.9356Z" fill="white"/>
  <g style="mix-blend-mode:multiply" opacity="0.13">
    <path d="M13.8487 40.08C16.5145 41.4866 19.4831 42.2218 22.4972 42.2218C25.5112 42.2218 28.4798 41.4866 31.1456 40.08C35.9146 37.2384 35.9146 32.6671 31.1456 29.8131C28.4798 28.4065 25.5112 27.6714 22.4972 27.6714C19.4831 27.6714 16.5145 28.4065 13.8487 29.8131C9.09209 32.6424 9.09209 37.2384 13.8487 40.08Z" fill="#D2E1FF"/>
  </g>
  <path d="M21.3863 50.3709C33.1977 50.3709 42.7727 44.8395 42.7727 38.016C42.7727 31.1926 33.1977 25.6611 21.3863 25.6611C9.57499 25.6611 0 31.1926 0 38.016C0 44.8395 9.57499 50.3709 21.3863 50.3709Z" fill="#ECECEC"/>
  <path d="M42.3269 34.6436H0.740234V37.4358C0.740234 40.5121 2.7541 43.6132 6.81887 45.9236C14.936 50.6185 28.1064 50.6185 36.2359 45.9236C40.3007 43.5762 42.3145 40.5121 42.3145 37.4358L42.3269 34.6436Z" fill="#D2E1FF"/>
  <path d="M36.2595 43.1322C28.13 47.8271 14.9597 47.8271 6.84251 43.1322C-1.27466 38.4374 -1.28701 30.7773 6.84251 26.1443C14.972 21.5112 28.13 21.4617 36.2595 26.1443C44.3891 30.8268 44.3767 38.4374 36.2595 43.1322Z" fill="#ECECEC"/>
  <path d="M42.9328 25.3418H0.160156V35.8805C0.160156 39.031 2.23578 42.1939 6.41174 44.6031C14.7637 49.4339 28.3046 49.4339 36.6566 44.6031C40.8325 42.1939 42.9081 39.031 42.9081 35.8805L42.9328 25.3418Z" fill="#4164A9"/>
  <path d="M36.6689 34.0759C28.317 38.9067 14.776 38.9067 6.4241 34.0759C-1.92782 29.2451 -1.92782 21.4369 6.4241 16.6184C14.776 11.8 28.317 11.7877 36.6689 16.6184C45.0208 21.4492 45.0332 29.2575 36.6689 34.0759Z" fill="#ECECEC"/>
  <path d="M5.54605 38.9541C5.35372 39.1492 5.09858 39.2699 4.82578 39.295C4.55299 39.3201 4.2801 39.2479 4.05539 39.0912C3.83069 38.9345 3.66867 38.7034 3.59795 38.4388C3.52723 38.1741 3.55236 37.893 3.66895 37.6451C3.8515 37.4293 4.11093 37.2931 4.3922 37.2655C4.67347 37.2378 4.95446 37.3208 5.17555 37.4969C5.29568 37.5681 5.40056 37.6624 5.48421 37.7742C5.56786 37.886 5.62866 38.0133 5.66307 38.1486C5.69748 38.284 5.70486 38.4248 5.68478 38.563C5.6647 38.7012 5.61756 38.8341 5.54605 38.9541Z" fill="white"/>
  <path d="M9.40282 40.5984C9.22902 40.8113 8.98533 40.9557 8.7151 41.0058C8.44487 41.056 8.1656 41.0087 7.92697 40.8723C7.68834 40.736 7.5058 40.5194 7.41182 40.2611C7.31783 40.0028 7.31847 39.7196 7.41366 39.4617C7.5759 39.2316 7.82109 39.0734 8.09762 39.0204C8.37414 38.9674 8.66044 39.0238 8.89627 39.1776C9.02319 39.2372 9.13706 39.3213 9.23131 39.4252C9.32556 39.529 9.3983 39.6504 9.44539 39.7825C9.49248 39.9146 9.51299 40.0547 9.50568 40.1947C9.49837 40.3347 9.46341 40.472 9.40282 40.5984Z" fill="white"/>
  <path d="M10.3411 18.0756C16.5186 14.4926 26.5631 14.4926 32.7529 18.0756C35.6069 19.7188 37.1389 21.782 37.3613 24.0059C37.6208 21.5349 36.1258 18.928 32.7529 17.0007C26.5755 13.4301 16.5309 13.4301 10.3411 17.0007C7.01765 18.928 5.48567 21.4855 5.73277 24.0059C5.95516 21.8438 7.48714 19.7188 10.3411 18.0756Z" fill="#D4D4D4"/>
  <path d="M10.3408 29.9356C16.5182 33.5062 26.5628 33.5062 32.7526 29.9356C35.6066 28.28 37.1386 26.2291 37.361 24.0052C37.1386 21.8431 35.6066 19.7181 32.7526 18.0749C26.5751 14.492 16.5306 14.492 10.3408 18.0749C7.48679 19.7181 5.95481 21.7814 5.73242 24.0052C5.95481 26.1674 7.48679 28.28 10.3408 29.9356Z" fill="white"/>
  <g style="mix-blend-mode:multiply" opacity="0.13">
    <path d="M13.8487 29.08C16.5145 30.4866 19.4831 31.2218 22.4972 31.2218C25.5112 31.2218 28.4798 30.4866 31.1456 29.08C35.9146 26.2384 35.9146 21.6671 31.1456 18.8131C28.4798 17.4065 25.5112 16.6714 22.4972 16.6714C19.4831 16.6714 16.5145 17.4065 13.8487 18.8131C9.09209 21.6424 9.09209 26.2384 13.8487 29.08Z" fill="#D2E1FF"/>
  </g>
  <path d="M21.3863 37.3709C33.1977 37.3709 42.7727 31.8395 42.7727 25.016C42.7727 18.1926 33.1977 12.6611 21.3863 12.6611C9.57499 12.6611 0 18.1926 0 25.016C0 31.8395 9.57499 37.3709 21.3863 37.3709Z" fill="#ECECEC"/>
  <path d="M42.3269 21.6436H0.740234V24.4358C0.740234 27.5121 2.7541 30.6132 6.81887 32.9236C14.936 37.6185 28.1064 37.6185 36.2359 32.9236C40.3007 30.5762 42.3145 27.5121 42.3145 24.4358L42.3269 21.6436Z" fill="#D2E1FF"/>
  <path d="M36.2595 30.1322C28.13 34.8271 14.9597 34.8271 6.84251 30.1322C-1.27466 25.4374 -1.28701 17.7773 6.84251 13.1443C14.972 8.51116 28.13 8.46174 36.2595 13.1443C44.3891 17.8268 44.3767 25.4374 36.2595 30.1322Z" fill="#ECECEC"/>
  <path d="M42.9328 12.3418H0.160156V22.8805C0.160156 26.031 2.23578 29.1939 6.41174 31.6031C14.7637 36.4339 28.3046 36.4339 36.6566 31.6031C40.8325 29.1939 42.9081 26.031 42.9081 22.8805L42.9328 12.3418Z" fill="#4164A9"/>
  <path d="M36.6689 21.0759C28.317 25.9067 14.776 25.9067 6.4241 21.0759C-1.92782 16.2451 -1.92782 8.43686 6.4241 3.61845C14.776 -1.19997 28.317 -1.21232 36.6689 3.61845C45.0208 8.44921 45.0332 16.2575 36.6689 21.0759Z" fill="#ECECEC"/>
  <path d="M5.54605 25.9541C5.35372 26.1492 5.09858 26.2699 4.82578 26.295C4.55299 26.3201 4.2801 26.2479 4.05539 26.0912C3.83069 25.9345 3.66867 25.7034 3.59795 25.4388C3.52723 25.1741 3.55236 24.893 3.66895 24.6451C3.8515 24.4293 4.11093 24.2931 4.3922 24.2655C4.67347 24.2378 4.95446 24.3208 5.17555 24.4969C5.29568 24.5681 5.40056 24.6624 5.48421 24.7742C5.56786 24.886 5.62866 25.0133 5.66307 25.1486C5.69748 25.284 5.70486 25.4248 5.68478 25.563C5.6647 25.7012 5.61756 25.8341 5.54605 25.9541Z" fill="white"/>
  <path d="M9.40282 27.5984C9.22902 27.8113 8.98533 27.9557 8.7151 28.0058C8.44487 28.056 8.1656 28.0087 7.92697 27.8723C7.68834 27.736 7.5058 27.5194 7.41182 27.2611C7.31783 27.0028 7.31847 26.7196 7.41366 26.4617C7.5759 26.2316 7.82109 26.0734 8.09762 26.0204C8.37414 25.9674 8.66044 26.0238 8.89627 26.1776C9.02319 26.2372 9.13706 26.3213 9.23131 26.4252C9.32556 26.529 9.3983 26.6504 9.44539 26.7825C9.49248 26.9146 9.51299 27.0547 9.50568 27.1947C9.49837 27.3347 9.46341 27.472 9.40282 27.5984Z" fill="white"/>
  <path d="M10.3411 5.07555C16.5186 1.49263 26.5631 1.49263 32.7529 5.07555C35.6069 6.71875 37.1389 8.78203 37.3613 11.0059C37.6208 8.53493 36.1258 5.92805 32.7529 4.00068C26.5755 0.430112 16.5309 0.430112 10.3411 4.00068C7.01765 5.92805 5.48567 8.48551 5.73277 11.0059C5.95516 8.8438 7.48714 6.71875 10.3411 5.07555Z" fill="#D4D4D4"/>
  <path d="M10.3408 16.9356C16.5182 20.5062 26.5628 20.5062 32.7526 16.9356C35.6066 15.28 37.1386 13.2291 37.361 11.0052C37.1386 8.84314 35.6066 6.71809 32.7526 5.07489C26.5751 1.49196 16.5306 1.49196 10.3408 5.07489C7.48679 6.71809 5.95481 8.78136 5.73242 11.0052C5.95481 13.1674 7.48679 15.28 10.3408 16.9356Z" fill="white"/>
  <g style="mix-blend-mode:multiply" opacity="0.13">
    <path d="M13.8487 16.08C16.5145 17.4866 19.4831 18.2218 22.4972 18.2218C25.5112 18.2218 28.4798 17.4866 31.1456 16.08C35.9146 13.2384 35.9146 8.66709 31.1456 5.81311C28.4798 4.40654 25.5112 3.67139 22.4972 3.67139C19.4831 3.67139 16.5145 4.40654 13.8487 5.81311C9.09209 8.64238 9.09209 13.2384 13.8487 16.08Z" fill="#D2E1FF"/>
  </g>
</svg>
