<svg width="15" height="15" viewBox="0 0 15 15" fill="none" xmlns="http://www.w3.org/2000/svg">
<path d="M1.3359 11.5057C2.65916 13.3795 4.84003 14.6067 7.3037 14.6067C11.3307 14.6067 14.6071 11.3303 14.6071 7.30305C14.6071 3.27609 11.3307 0 7.3037 0C3.27641 0 0 3.27625 0 7.30305C0 8.83881 0.477638 10.2644 1.29038 11.4418C1.30334 11.4646 1.31857 11.4858 1.3359 11.5057ZM9.74161 13.3157C9.73902 13.3157 9.73691 13.3151 9.73465 13.3151C9.022 13.3151 8.84513 13.173 8.67328 13.0349C8.53885 12.9275 8.45787 12.7739 8.47585 12.6606C8.49107 12.5653 8.57384 12.4481 8.66146 12.324C8.68705 12.2882 8.71232 12.2524 8.73677 12.2161C9.07593 11.7155 9.27013 11.108 9.28406 10.5053C9.286 10.4251 9.26381 10.3462 9.22105 10.2782C8.73548 9.51194 7.80547 9.86632 7.05881 10.1512C6.69471 10.2899 6.29902 10.4408 5.99647 10.4598C6.02271 10.4355 6.04992 10.411 6.07713 10.3862C6.34794 10.1418 6.68483 9.83782 6.66717 9.3456C6.64887 8.86003 6.26388 8.31566 5.71935 8.27922C4.87372 8.22188 4.50784 7.97521 4.45148 7.78133C4.43414 7.72141 4.4471 7.67185 4.46281 7.64156C4.93413 7.78765 5.79903 8.01894 6.30923 7.4114C6.69649 6.9532 6.64271 6.27376 6.16184 5.54669L6.12896 5.49713C5.90091 5.15376 5.66525 4.79857 5.74801 4.52485C5.79741 4.36207 5.97266 4.21177 6.1194 4.09952C6.49711 3.81122 6.9153 3.5835 7.36233 3.42267L7.39683 3.4102C7.96306 3.20693 8.81873 2.89968 8.88141 2.08645C8.91526 1.64201 8.67134 1.29783 8.47552 1.0212C8.4488 0.98281 8.42256 0.945234 8.39697 0.907982C9.36051 1.07222 10.252 1.44927 11.0216 1.98943L9.60815 3.97206C9.25328 4.46929 9.23239 4.94401 9.55243 5.24236C9.71181 5.39088 9.9052 5.43153 10.0105 5.45388C10.28 5.5096 10.5584 5.53972 10.8516 5.54345C10.8665 5.54361 10.8848 5.54394 10.9019 5.54442C10.9076 5.5671 10.9139 5.60176 10.9178 5.6531C10.9424 5.99566 10.8992 6.34842 10.7923 6.67349C10.7484 6.80679 10.7764 6.95353 10.8663 7.0614C11.0976 7.33836 11.5228 7.37917 11.8988 7.16149C11.9444 7.13541 11.9894 7.10658 12.0342 7.07759C12.0909 7.04115 12.1855 6.98009 12.2161 6.97896C12.2529 6.98398 12.3813 7.07694 12.449 7.13039C12.6233 7.26855 12.8622 7.4574 13.1868 7.45935C13.1887 7.45951 13.1902 7.45951 13.1921 7.45951C13.4092 7.45935 13.6173 7.36929 13.7906 7.21283C13.7912 7.24328 13.7932 7.27292 13.7932 7.30337C13.793 10.0195 12.1149 12.3499 9.74161 13.3157ZM13.6118 5.78413C13.5328 5.93087 13.4837 6.08037 13.4406 6.21269C13.4111 6.30388 13.3833 6.39021 13.3501 6.46228C13.2909 6.58943 13.2121 6.64547 13.1918 6.64547C13.1473 6.64514 13.0308 6.55298 12.9539 6.49209C12.773 6.34891 12.5294 6.15293 12.1849 6.16572C11.9925 6.17301 11.8337 6.24735 11.7056 6.32315C11.7391 6.08296 11.7471 5.83904 11.7293 5.59334C11.7008 5.21531 11.5597 4.956 11.3104 4.8227C11.1438 4.7333 10.9738 4.73119 10.848 4.72957C10.6206 4.72649 10.394 4.7022 10.1767 4.65717C10.169 4.65555 10.1621 4.65409 10.1561 4.6528C10.1737 4.60356 10.2089 4.53116 10.2706 4.44467L11.659 2.49719C12.6091 3.35853 13.3018 4.49763 13.6118 5.78413ZM7.3037 0.813879C7.34986 0.813879 7.3957 0.816471 7.44202 0.817281C7.52138 1.07999 7.67428 1.29702 7.81179 1.49138C7.95691 1.69611 8.08194 1.87281 8.07061 2.02409C8.04842 2.31142 7.53499 2.4959 7.12246 2.64393L7.08731 2.65673C6.56189 2.84574 6.07 3.11347 5.62557 3.45279C5.38165 3.63954 5.08654 3.90354 4.96977 4.28886C4.77557 4.92976 5.15036 5.49389 5.45129 5.94739L5.48352 5.99598C5.6774 6.28898 5.8473 6.69778 5.68728 6.88712C5.51964 7.08666 5.05998 6.97636 4.63353 6.84226C4.3747 6.76014 4.08819 6.84452 3.8854 7.06172C3.63209 7.33382 3.55985 7.74149 3.7019 8.10089C3.86062 8.50289 4.33049 9.00094 5.66509 9.09132C5.72923 9.09553 5.84924 9.24081 5.85426 9.37557C5.85799 9.4802 5.72939 9.60443 5.53228 9.78226C5.31459 9.97873 5.06792 10.2014 4.95811 10.5348C4.90806 10.6867 4.95146 10.854 5.06954 10.962C5.70007 11.5401 6.61421 11.1919 7.34905 10.9117C7.86054 10.7166 8.2763 10.5723 8.46062 10.6527C8.42288 11.0454 8.28424 11.433 8.06348 11.7597C8.04194 11.7911 8.01975 11.8227 7.9974 11.854C7.87252 12.0305 7.7172 12.2503 7.67217 12.5328C7.60706 12.9396 7.79624 13.3755 8.16439 13.6698C8.18755 13.6884 8.21087 13.7069 8.235 13.725C7.93067 13.7689 7.61969 13.7929 7.3037 13.7929C5.14874 13.7929 3.23689 12.7362 2.056 11.1148C2.09276 10.4228 2.41913 9.94796 2.68766 9.56442L2.72476 9.51162C2.80946 9.38933 2.92187 9.19935 2.91766 8.95931C2.91166 8.68511 2.76039 8.49318 2.65009 8.35308C2.6292 8.32651 2.6083 8.30011 2.58935 8.27387C2.32357 7.89925 2.5061 7.31665 2.8127 6.95887L2.84121 6.92567C2.98261 6.76273 3.1964 6.51654 3.17113 6.17512C3.14992 5.8588 2.92349 5.582 2.59292 5.46927C2.35887 5.39039 2.12386 5.40707 1.9261 5.4338C1.62177 5.47397 1.32342 5.54345 1.03205 5.63658C1.76964 2.8634 4.30133 0.813879 7.3037 0.813879ZM0.856315 6.57274C1.2324 6.40786 1.6263 6.294 2.03316 6.24039C2.13941 6.22614 2.25781 6.21496 2.33118 6.23974C2.33587 6.24136 2.34041 6.24314 2.34414 6.24525C2.3166 6.28849 2.26218 6.35101 2.22639 6.39199L2.1948 6.42892C1.67505 7.03548 1.41558 8.02574 1.92594 8.7452C1.95282 8.78261 1.98166 8.8197 2.01065 8.85663C2.0398 8.89323 2.08094 8.94555 2.09859 8.97697C2.0926 8.99009 2.08029 9.01228 2.05648 9.04661L2.02069 9.09763C1.84285 9.35143 1.61383 9.67909 1.44911 10.1012C1.04225 9.25361 0.81388 8.30449 0.81388 7.30305C0.81388 7.05605 0.829104 6.81278 0.856315 6.57274Z" fill="#5C638B"/>
</svg>
