<svg width="45" height="45" viewBox="0 0 45 45" fill="none" xmlns="http://www.w3.org/2000/svg">
<rect width="45" height="45" rx="2" fill="#5BC4D6"/>
<path d="M37 28.25C37 27.2851 36.2149 26.5 35.25 26.5H17.75C16.7851 26.5 16 27.2851 16 28.25V30.5834C16 31.0325 16.175 31.4397 16.455 31.75C16.175 32.0604 16 32.4675 16 32.9166V35.25C16 36.2149 16.7851 37 17.75 37H35.25C36.2149 37 37 36.2149 37 35.25V32.9166C37 32.4675 36.825 32.0603 36.545 31.75C36.825 31.4396 37 31.0325 37 30.5834V28.25ZM35.8334 35.25C35.8334 35.572 35.5709 35.8334 35.25 35.8334H17.75C17.4291 35.8334 17.1666 35.572 17.1666 35.25V32.9166C17.1666 32.5946 17.4291 32.3333 17.75 32.3333H35.25C35.5709 32.3333 35.8334 32.5946 35.8334 32.9166V35.25ZM35.8334 30.5834C35.8334 30.9054 35.5709 31.1667 35.25 31.1667H17.75C17.4291 31.1667 17.1666 30.9054 17.1666 30.5834V28.25C17.1666 27.928 17.4291 27.6666 17.75 27.6666H35.25C35.5709 27.6666 35.8334 27.928 35.8334 28.25V30.5834Z" fill="black"/>
<path d="M34.0835 28.8333H29.4168C29.0948 28.8333 28.8335 29.0946 28.8335 29.4166C28.8335 29.7386 29.0948 30 29.4168 30H34.0835C34.4055 30 34.6668 29.7386 34.6668 29.4166C34.6668 29.0946 34.4055 28.8333 34.0835 28.8333Z" fill="black"/>
<path d="M34.0835 33.5H29.4168C29.0948 33.5 28.8335 33.7614 28.8335 34.0834C28.8335 34.4054 29.0948 34.6667 29.4168 34.6667H34.0835C34.4055 34.6667 34.6668 34.4054 34.6668 34.0834C34.6668 33.7614 34.4055 33.5 34.0835 33.5Z" fill="black"/>
<path d="M18.9168 33.5C18.5948 33.5 18.3335 33.7614 18.3335 34.0834C18.3335 34.4054 18.5948 34.6667 18.9168 34.6667C19.2388 34.6667 19.5002 34.4054 19.5002 34.0834C19.5002 33.7614 19.2388 33.5 18.9168 33.5Z" fill="black"/>
<path d="M18.9168 28.8333C18.5948 28.8333 18.3335 29.0946 18.3335 29.4166C18.3335 29.7386 18.5948 30 18.9168 30C19.2388 30 19.5002 29.7385 19.5002 29.4165C19.5002 29.0945 19.2388 28.8333 18.9168 28.8333Z" fill="black"/>
<path d="M16.112 24.694C16.056 24.1364 16.0431 23.567 16.0291 23H21.8333V24.75C21.8333 25.072 22.0946 25.3334 22.4166 25.3334C22.7386 25.3334 23 25.072 23 24.75V23H28.8054C28.7914 23.5554 28.7785 24.1119 28.7237 24.659C28.6922 24.9799 28.9279 25.2645 29.2476 25.296C29.5626 25.3216 29.8542 25.093 29.8857 24.7721C29.9429 24.1888 29.9569 23.5926 29.9721 23H34.6422C34.6154 23.5554 34.5652 24.1084 34.4661 24.6485C34.4066 24.9659 34.6166 25.2704 34.9327 25.3286C35.2419 25.387 35.5534 25.177 35.6117 24.8608C35.7599 24.0616 35.8346 23.2391 35.8346 22.4166C35.8345 15.0189 29.8156 9 22.4179 9C15.0224 9 9.00585 15.0141 9.00115 22.4085C9.00115 22.412 9 22.4144 9 22.4166C9 22.4201 9.00115 22.4225 9.00115 22.4248C9.0035 26.4475 10.7874 30.2229 13.8989 32.7825C14.0062 32.8724 14.138 32.9155 14.2687 32.9155C14.4356 32.9155 14.6036 32.8431 14.7202 32.7009C14.9256 32.4524 14.8906 32.0849 14.6409 31.8795C13.9549 31.3149 13.3424 30.6825 12.8034 30H14.25C14.572 30 14.8334 29.7386 14.8334 29.4166C14.8334 29.0946 14.572 28.8333 14.25 28.8333H11.982C10.9086 27.0904 10.3009 25.0884 10.2016 23H14.8625C14.8776 23.6044 14.8929 24.2121 14.9524 24.8071C14.9815 25.1093 15.2347 25.3333 15.531 25.3333C15.5496 25.3333 15.5695 25.3321 15.5905 25.3321C15.9101 25.3006 16.1435 25.0136 16.112 24.694ZM34.6399 21.8334H29.9837C29.9347 19.7159 29.6291 17.736 29.1052 16H32.8351C33.8944 17.7126 34.5384 19.7006 34.6399 21.8334ZM32.0219 14.8334H28.7085C28.0726 13.1662 27.2256 11.786 26.234 10.7815C28.5429 11.541 30.546 12.9666 32.0219 14.8334ZM23 10.2261C24.7605 10.5458 26.3379 12.2911 27.4076 14.8333H23V10.2261ZM23 16H27.8416C28.4121 17.7231 28.7621 19.7159 28.8181 21.8334H23V16ZM21.8334 10.2261V14.8333H17.4257C18.4955 12.2911 20.0729 10.5459 21.8334 10.2261ZM14.8496 21.8334H10.1981C10.2996 19.7006 10.9436 17.7126 12.003 16H15.7281C15.2044 17.736 14.8986 19.7159 14.8496 21.8334ZM12.8161 14.8334C14.2908 12.969 16.2916 11.5445 18.597 10.7839C17.6065 11.7884 16.7606 13.1674 16.1249 14.8334H12.8161ZM16.9916 16H21.8333V21.8334H16.0164C16.0711 19.7159 16.4224 17.7231 16.9916 16Z" fill="black"/>
</svg>
