
<svg id="Layer_1" data-name="Layer 1" xmlns="http://www.w3.org/2000/svg" viewBox="0 0 266 230"><defs><style>.cls-1,.cls-9{fill:#fff;}.cls-1{stroke:#d2e1ff;stroke-width:3px;}.cls-2,.cls-3{fill:#f5f8ff;}.cls-2{opacity:0.1;isolation:isolate;}.cls-4{fill:#e8eefb;}.cls-5{fill:#dee4ec;}.cls-6{fill:#f7f7f7;}.cls-7{fill:#ccd7e5;}.cls-13,.cls-15,.cls-8{fill:#ec008c;}.cls-8{opacity:0.5;}.cls-10{fill:#c5ceda;}.cls-11{fill:#e2eaff;}.cls-12{fill:#d8dee5;}.cls-13{opacity:0.1;}.cls-14{fill:#d2e1ff;}.cls-15{opacity:0.15;}</style></defs><rect class="cls-1" x="1.5" y="1.5" width="263" height="227" rx="4.5"/><path class="cls-2" d="M245.63,223H23.3a8.36,8.36,0,0,1-8.36-8.35v-175a8.36,8.36,0,0,1,8.36-8.35H245.63A8.35,8.35,0,0,1,254,39.64v175A8.35,8.35,0,0,1,245.63,223Z"/><path class="cls-3" d="M244.16,209.84H21.84a8.35,8.35,0,0,1-8.36-8.35v-175a8.35,8.35,0,0,1,8.36-8.35H244.16a8.35,8.35,0,0,1,8.36,8.35v175A8.35,8.35,0,0,1,244.16,209.84Z"/><path class="cls-4" d="M252.52,114.14V26.45a8.35,8.35,0,0,0-8.36-8.35H21.84a8.35,8.35,0,0,0-8.36,8.35v87.7h239Z"/><path class="cls-5" d="M252.52,56.7V26.45a8.35,8.35,0,0,0-8.36-8.35H21.84a8.35,8.35,0,0,0-8.36,8.35V56.7Z"/><path class="cls-6" d="M38.05,44.72A6.07,6.07,0,1,0,32,38.65,6.08,6.08,0,0,0,38.05,44.72Z"/><path class="cls-7" d="M57.44,44.72a6.07,6.07,0,1,0-6.07-6.07A6.08,6.08,0,0,0,57.44,44.72Z"/><path class="cls-8" d="M76.84,44.72a6.07,6.07,0,1,0-6.08-6.07A6.07,6.07,0,0,0,76.84,44.72Z"/><path class="cls-8" d="M165.93,100.51H100.08a2.78,2.78,0,0,1-2.79-2.78V88.42a2.79,2.79,0,0,1,2.79-2.78h65.85a2.79,2.79,0,0,1,2.78,2.78v9.31A2.78,2.78,0,0,1,165.93,100.51Z"/><path class="cls-9" d="M44.53,67.63H31.33a2.79,2.79,0,0,0,0,5.57h13.2a2.79,2.79,0,1,0,0-5.57Z"/><path class="cls-10" d="M134.15,127.63H104.23a2.79,2.79,0,0,0,0,5.57h29.92a2.79,2.79,0,1,0,0-5.57Z"/><path class="cls-10" d="M161.77,127.63h-13.2a2.79,2.79,0,1,0,0,5.57h13.2a2.79,2.79,0,0,0,0-5.57Z"/><path class="cls-8" d="M58.38,67.63H45.18a2.79,2.79,0,0,0,0,5.57h13.2a2.79,2.79,0,1,0,0-5.57Z"/><path class="cls-11" d="M90.76,198.62H45.32a2.79,2.79,0,0,1-2.79-2.79V150.42a2.79,2.79,0,0,1,2.79-2.79H90.76a2.78,2.78,0,0,1,2.78,2.79v45.41A2.78,2.78,0,0,1,90.76,198.62Z"/><path class="cls-12" d="M155.72,198.62H110.28a2.79,2.79,0,0,1-2.79-2.79V150.42a2.79,2.79,0,0,1,2.79-2.79h45.44a2.79,2.79,0,0,1,2.79,2.79v45.41A2.79,2.79,0,0,1,155.72,198.62Z"/><path class="cls-13" d="M220.68,198.62H175.24a2.79,2.79,0,0,1-2.79-2.79V150.42a2.79,2.79,0,0,1,2.79-2.79h45.44a2.78,2.78,0,0,1,2.78,2.79v45.41A2.78,2.78,0,0,1,220.68,198.62Z"/><path class="cls-14" d="M90.76,198.62H45.32a2.79,2.79,0,0,1-2.79-2.79v-8.1h51v8.1A2.78,2.78,0,0,1,90.76,198.62Z"/><path class="cls-10" d="M155.72,198.62H110.28a2.79,2.79,0,0,1-2.79-2.79v-8.1h51v8.1A2.79,2.79,0,0,1,155.72,198.62Z"/><path class="cls-15" d="M220.68,198.62H175.24a2.79,2.79,0,0,1-2.79-2.79v-8.1h51v8.1A2.79,2.79,0,0,1,220.68,198.62Z"/></svg>