<svg width="13" height="14" viewBox="0 0 13 14" fill="none" xmlns="http://www.w3.org/2000/svg">
<path d="M6.5 0C5.68938 0 5.02273 0.666648 5.02273 1.47727C5.02273 2.2879 5.68938 2.95916 6.5 2.95916C7.31063 2.95916 7.97728 2.2879 7.97728 1.47727C7.97728 0.666648 7.31063 0 6.5 0ZM6.5 0.890981C6.8316 0.890981 7.09091 1.14567 7.09091 1.47727C7.09091 1.80887 6.8316 2.06818 6.5 2.06818C6.1684 2.06818 5.90909 1.80887 5.90909 1.47727C5.90909 1.14567 6.1684 0.890981 6.5 0.890981ZM6.5 3.26847C4.78819 3.26847 3.37465 4.51557 3.37465 6.05682C3.3742 6.27995 3.59706 6.48296 3.84091 6.48154H9.1591C9.40294 6.48301 9.62579 6.27995 9.62536 6.05682C9.62536 4.51557 8.21181 3.26847 6.5 3.26847ZM6.5 4.1179C7.55736 4.1179 8.41944 4.76723 8.63743 5.6321H4.36257C4.58057 4.76723 5.44264 4.1179 6.5 4.1179ZM3.10227 6.79546C2.29165 6.79546 1.625 7.46212 1.625 8.27274C1.625 9.08336 2.29165 9.75001 3.10227 9.75001C3.9129 9.75001 4.57955 9.08336 4.57955 8.27274C4.57955 7.46212 3.9129 6.79546 3.10227 6.79546ZM9.89773 6.79546C9.08711 6.79546 8.42046 7.46212 8.42046 8.27274C8.42046 9.08336 9.08711 9.75001 9.89773 9.75001C10.7084 9.75001 11.375 9.08336 11.375 8.27274C11.375 7.46212 10.7084 6.79546 9.89773 6.79546ZM6.49539 6.93395C6.26178 6.93632 6.05197 7.1528 6.05682 7.38638V8.4851L4.76882 9.3853C4.56416 9.51177 4.50077 9.81965 4.63882 10.0167C4.77687 10.2137 5.08788 10.2593 5.27664 10.1101L6.5 9.25143L7.72337 10.1101C7.91213 10.2593 8.22313 10.2137 8.36119 10.0167C8.49924 9.81965 8.43585 9.51177 8.23118 9.3853L6.94319 8.4851V7.38638C6.9481 7.14973 6.73207 6.93147 6.49539 6.93395ZM3.10227 7.68183C3.43387 7.68183 3.69318 7.94114 3.69318 8.27274C3.69318 8.60434 3.43387 8.86365 3.10227 8.86365C2.77067 8.86365 2.51137 8.60434 2.51137 8.27274C2.51137 7.94114 2.77067 7.68183 3.10227 7.68183ZM9.89773 7.68183C10.2293 7.68183 10.4886 7.94114 10.4886 8.27274C10.4886 8.60434 10.2293 8.86365 9.89773 8.86365C9.56613 8.86365 9.30682 8.60434 9.30682 8.27274C9.30682 7.94114 9.56613 7.68183 9.89773 7.68183ZM3.12536 10.0824C1.41355 10.0824 6.59874e-07 11.3295 6.59874e-07 12.8708C-0.000442522 13.0939 0.222417 13.2969 0.466265 13.2955H5.78445C6.0283 13.2969 6.25114 13.0939 6.25071 12.8708C6.25071 11.3295 4.83717 10.0824 3.12536 10.0824ZM9.87465 10.0824C8.16284 10.0824 6.74929 11.3295 6.74929 12.8708C6.74885 13.0939 6.97171 13.2969 7.21556 13.2955H12.5337C12.7776 13.2969 13.0004 13.0939 13 12.8708C13 11.3295 11.5865 10.0824 9.87465 10.0824ZM3.12536 10.9318C4.18272 10.9318 5.04479 11.5812 5.26279 12.446H0.987927C1.20592 11.5812 2.068 10.9318 3.12536 10.9318ZM9.87465 10.9318C10.932 10.9318 11.7941 11.5812 12.0121 12.446H7.73722C7.95522 11.5812 8.81729 10.9318 9.87465 10.9318Z" fill="#5C638B"/>
</svg>
