<svg width="28" height="28" viewBox="0 0 28 28" fill="none" xmlns="http://www.w3.org/2000/svg">
<rect width="28" height="28" rx="6" fill="#DFE7F5"/>
<mask id="mask0" mask-type="alpha" maskUnits="userSpaceOnUse" x="1" y="1" width="26" height="26">
<rect x="1" y="1" width="25.6667" height="25.6667" fill="#C4C4C4"/>
</mask>
<g mask="url(#mask0)">
<path d="M14.8 9C16.7026 9 18.0959 10.5115 18.25 12.1969C19.3883 12.6237 20.2 13.7177 20.2 15C20.2 16.6515 18.8515 18 17.2 18H10C8.27791 18 7 16.7955 7 15.3C7 14.1553 7.72425 13.0484 8.84218 12.6938C8.94455 11.8328 9.38558 11.1518 9.99532 10.7859C10.5749 10.4382 11.2735 10.3695 11.9219 10.5656C12.5016 9.68608 13.5068 9 14.8 9ZM14.8 9.9C13.6934 9.9 12.8824 10.543 12.5031 11.3016C12.449 11.4078 12.3549 11.4882 12.2415 11.5251C12.1281 11.562 12.0047 11.5524 11.8984 11.4984C11.4393 11.2689 10.886 11.3006 10.4547 11.5594C10.0233 11.8182 9.7 12.2875 9.7 13.05C9.69927 13.1558 9.66127 13.258 9.59269 13.3386C9.52411 13.4191 9.42933 13.473 9.325 13.4906C8.5051 13.6282 7.9 14.4664 7.9 15.3C7.9 16.3034 8.67148 17.1 10 17.1H17.2C18.3651 17.1 19.3 16.1651 19.3 15C19.3 14.0141 18.6244 13.1957 17.7156 12.9656C17.6182 12.9405 17.532 12.8834 17.4709 12.8035C17.4097 12.7237 17.377 12.6256 17.3781 12.525C17.3909 11.1987 16.3193 9.9 14.8 9.9Z" fill="#5C638B"/>
<path d="M14.3338 2.58948C13.3688 2.58948 12.5573 3.25733 12.3361 4.15495C10.1032 4.59322 8.06633 5.76491 6.55445 7.49262C4.90718 9.37501 4 11.7908 4 14.295C4 14.6738 4.30709 14.9808 4.68587 14.9808C5.06465 14.9808 5.37174 14.6738 5.37174 14.295C5.37174 12.1232 6.15838 10.0282 7.58677 8.39595C8.86976 6.92979 10.5878 5.9249 12.4739 5.52619C12.8042 6.22216 13.5136 6.70469 14.3338 6.70469C15.4683 6.70469 16.3914 5.78165 16.3914 4.64708C16.3914 3.51252 15.4683 2.58948 14.3338 2.58948Z" fill="#52BACC"/>
<path d="M23.9789 12.609C23.6002 12.609 23.2931 12.9161 23.2931 13.2949C23.2931 15.4667 22.5064 17.5616 21.078 19.1939C19.795 20.6601 18.077 21.6649 16.1909 22.0637C15.8606 21.3677 15.1513 20.8852 14.331 20.8852C13.1965 20.8852 12.2734 21.8082 12.2734 22.9428C12.2734 24.0773 13.1965 25.0004 14.331 25.0004C15.296 25.0004 16.1075 24.3325 16.3288 23.4349C18.5616 22.9966 20.5985 21.8249 22.1104 20.0972C23.7576 18.2148 24.6648 15.799 24.6648 13.2949C24.6648 12.9161 24.3577 12.609 23.9789 12.609Z" fill="#52BACC"/>
</g>
</svg>
