<svg width="28" height="28" viewBox="0 0 28 28" fill="none" xmlns="http://www.w3.org/2000/svg">
<rect width="28" height="28" rx="6" fill="#DFE7F5"/>
<mask id="mask0" mask-type="alpha" maskUnits="userSpaceOnUse" x="1" y="1" width="26" height="26">
<rect x="1" y="1" width="26" height="26" fill="#C4C4C4"/>
</mask>
<g mask="url(#mask0)">
<path d="M14.7246 23H14.2754C14.0575 22.9978 13.8423 22.9516 13.6427 22.8641C13.4431 22.7766 13.2634 22.6496 13.1142 22.4908C12.965 22.3319 12.8495 22.1446 12.7746 21.9399C12.6998 21.7353 12.6671 21.5176 12.6786 21.3V20.5714C12.6772 20.493 12.6521 20.4167 12.6066 20.3528C12.5611 20.2888 12.4973 20.2402 12.4236 20.2132C12.2617 20.1525 12.0977 20.0857 11.9318 20.0129C11.863 19.9774 11.7848 19.9648 11.7084 19.9768C11.632 19.9888 11.5614 20.0248 11.5068 20.0796L10.8996 20.6868C10.7514 20.8351 10.5753 20.9528 10.3815 21.0331C10.1878 21.1133 9.98009 21.1547 9.77036 21.1547C9.56062 21.1547 9.35294 21.1133 9.15917 21.0331C8.96541 20.9528 8.78935 20.8351 8.64107 20.6868L8.48929 20.5107C8.31573 20.338 8.17878 20.132 8.08664 19.9051C7.9945 19.6782 7.94906 19.4351 7.95303 19.1903C7.95699 18.9454 8.01029 18.7039 8.10973 18.4801C8.20918 18.2563 8.35272 18.0549 8.53179 17.8879L8.9325 17.4932C8.98731 17.4386 9.02332 17.368 9.03533 17.2916C9.04734 17.2152 9.03471 17.137 8.99929 17.0682C8.92643 16.9043 8.85964 16.7464 8.79893 16.5764C8.77125 16.5008 8.72073 16.4356 8.65438 16.3899C8.58803 16.3442 8.50912 16.3203 8.42857 16.3214H7.59679C7.17329 16.3214 6.76714 16.1532 6.46769 15.8537C6.16823 15.5543 6 15.1481 6 14.7246V14.2754C6.00215 14.0575 6.04838 13.8423 6.1359 13.6427C6.22341 13.4431 6.35041 13.2634 6.50924 13.1142C6.66807 12.965 6.85544 12.8495 7.06008 12.7746C7.26472 12.6998 7.4824 12.6671 7.7 12.6786H8.42857C8.50705 12.6772 8.58328 12.6521 8.64722 12.6066C8.71116 12.5611 8.75982 12.4973 8.78679 12.4236C8.8475 12.2617 8.91429 12.0977 8.98714 11.9318C9.02257 11.863 9.0352 11.7848 9.02319 11.7084C9.01118 11.632 8.97517 11.5614 8.92036 11.5068L8.31321 10.8996C8.16488 10.7514 8.04722 10.5753 7.96694 10.3815C7.88666 10.1878 7.84534 9.98009 7.84534 9.77036C7.84534 9.56062 7.88666 9.35294 7.96694 9.15917C8.04722 8.96541 8.16488 8.78935 8.31321 8.64107L8.48929 8.48929C8.66203 8.31573 8.86801 8.17878 9.09489 8.08664C9.32177 7.9945 9.5649 7.94906 9.80975 7.95303C10.0546 7.95699 10.2961 8.01029 10.5199 8.10973C10.7437 8.20918 10.9451 8.35272 11.1121 8.53179L11.5068 8.9325C11.5614 8.98731 11.632 9.02332 11.7084 9.03533C11.7848 9.04734 11.863 9.03471 11.9318 8.99929C12.0937 8.92643 12.2576 8.85964 12.4236 8.79893C12.4992 8.77125 12.5644 8.72073 12.6101 8.65438C12.6558 8.58803 12.6797 8.50912 12.6786 8.42857V7.59679C12.6786 7.38709 12.7199 7.17945 12.8001 6.98572C12.8804 6.79199 12.998 6.61596 13.1463 6.46769C13.2945 6.31941 13.4706 6.20179 13.6643 6.12155C13.858 6.0413 14.0657 6 14.2754 6H14.7246C14.9425 6.00215 15.1577 6.04838 15.3573 6.1359C15.5569 6.22341 15.7366 6.35041 15.8858 6.50924C16.035 6.66807 16.1505 6.85544 16.2254 7.06008C16.3002 7.26472 16.3329 7.4824 16.3214 7.7V8.42857C16.3228 8.50705 16.3479 8.58328 16.3934 8.64722C16.4389 8.71116 16.5027 8.75982 16.5764 8.78679C16.7424 8.8475 16.9063 8.91429 17.0682 8.98714C17.137 9.02257 17.2152 9.0352 17.2916 9.02319C17.368 9.01118 17.4386 8.97517 17.4932 8.92036L18.1004 8.31321C18.2486 8.16488 18.4247 8.04722 18.6185 7.96694C18.8122 7.88666 19.0199 7.84534 19.2296 7.84534C19.4394 7.84534 19.6471 7.88666 19.8408 7.96694C20.0346 8.04722 20.2106 8.16488 20.3589 8.31321L20.5168 8.47107C20.6903 8.64382 20.8273 8.84979 20.9194 9.07668C21.0116 9.30356 21.057 9.54669 21.053 9.79153C21.0491 10.0364 20.9958 10.2779 20.8963 10.5017C20.7969 10.7255 20.6534 10.9269 20.4743 11.0939L20.0736 11.4886C20.0188 11.5431 19.9827 11.6138 19.9707 11.6902C19.9587 11.7666 19.9714 11.8448 20.0068 11.9136C20.0796 12.0755 20.1464 12.2394 20.2071 12.4054C20.2314 12.4834 20.2797 12.5519 20.3451 12.6009C20.4105 12.65 20.4897 12.6771 20.5714 12.6786H21.4154C21.8367 12.6818 22.2398 12.8514 22.5366 13.1505C22.8334 13.4496 23 13.854 23 14.2754V14.7246C22.9978 14.9425 22.9516 15.1577 22.8641 15.3573C22.7766 15.5569 22.6496 15.7366 22.4908 15.8858C22.3319 16.035 22.1446 16.1505 21.9399 16.2254C21.7353 16.3002 21.5176 16.3329 21.3 16.3214H20.5714C20.493 16.3228 20.4167 16.3479 20.3528 16.3934C20.2888 16.4389 20.2402 16.5027 20.2132 16.5764C20.1525 16.7464 20.0857 16.9043 20.0129 17.0682C19.9774 17.137 19.9648 17.2152 19.9768 17.2916C19.9888 17.368 20.0248 17.4386 20.0796 17.4932L20.6868 18.1004C20.8351 18.2486 20.9528 18.4247 21.0331 18.6185C21.1133 18.8122 21.1547 19.0199 21.1547 19.2296C21.1547 19.4394 21.1133 19.6471 21.0331 19.8408C20.9528 20.0346 20.8351 20.2106 20.6868 20.3589L20.5289 20.5168C20.3562 20.6903 20.1502 20.8273 19.9233 20.9194C19.6964 21.0116 19.4533 21.057 19.2085 21.053C18.9636 21.0491 18.7221 20.9958 18.4983 20.8963C18.2745 20.7969 18.0731 20.6534 17.9061 20.4743L17.5114 20.0736C17.4569 20.0188 17.3862 19.9827 17.3098 19.9707C17.2334 19.9587 17.1552 19.9714 17.0864 20.0068C16.9245 20.0796 16.7606 20.1464 16.5946 20.2071C16.5166 20.2314 16.4481 20.2797 16.3991 20.3451C16.35 20.4105 16.3229 20.4897 16.3214 20.5714V21.4154C16.3182 21.8367 16.1486 22.2398 15.8495 22.5366C15.5504 22.8334 15.146 23 14.7246 23ZM11.7739 18.75C12.0064 18.7497 12.2363 18.7994 12.4479 18.8957C12.5754 18.9564 12.7089 19.0111 12.8364 19.0596C13.1468 19.1722 13.4148 19.3778 13.6039 19.6484C13.7929 19.919 13.8939 20.2413 13.8929 20.5714V21.3C13.8929 21.5914 14.0446 21.7857 14.2754 21.7857H14.7246C14.8261 21.7857 14.9234 21.7454 14.9951 21.6737C15.0668 21.602 15.1071 21.5047 15.1071 21.4032V20.5714C15.109 20.2443 15.2106 19.9256 15.3982 19.6576C15.5859 19.3897 15.8507 19.1853 16.1575 19.0718C16.292 19.0245 16.4237 18.9698 16.5521 18.9079C16.8512 18.766 17.1868 18.7202 17.513 18.7767C17.8391 18.8332 18.1397 18.9893 18.3736 19.2236L18.7682 19.6182C18.8217 19.685 18.8886 19.7397 18.9647 19.7788C19.0408 19.8179 19.1242 19.8405 19.2097 19.8451C19.2951 19.8497 19.3805 19.8362 19.4603 19.8054C19.5401 19.7747 19.6126 19.7275 19.6729 19.6668L19.8307 19.5029C19.8662 19.4681 19.8942 19.4265 19.9129 19.3806C19.9317 19.3346 19.9409 19.2853 19.94 19.2357C19.9407 19.1852 19.9314 19.1351 19.9127 19.0882C19.8939 19.0413 19.8661 18.9986 19.8307 18.9625L19.2236 18.3554C18.9888 18.1218 18.8327 17.8207 18.7772 17.4942C18.7217 17.1677 18.7695 16.832 18.9139 16.5339C18.9686 16.4064 19.0232 16.2729 19.0718 16.1454C19.1866 15.8404 19.3916 15.5776 19.6595 15.3921C19.9275 15.2067 20.2456 15.1072 20.5714 15.1071H21.3C21.5914 15.1071 21.7857 14.9554 21.7857 14.7246V14.2754C21.7857 14.1739 21.7454 14.0766 21.6737 14.0049C21.602 13.9332 21.5047 13.8929 21.4032 13.8929H20.5714C20.2443 13.891 19.9256 13.7894 19.6576 13.6018C19.3897 13.4141 19.1853 13.1493 19.0718 12.8425C19.0245 12.708 18.9698 12.5763 18.9079 12.4479C18.766 12.1488 18.7202 11.8132 18.7767 11.487C18.8332 11.1609 18.9893 10.8603 19.2236 10.6264L19.6061 10.25C19.6728 10.1965 19.7276 10.1296 19.7667 10.0535C19.8058 9.97744 19.8283 9.89397 19.8329 9.80855C19.8375 9.72314 19.824 9.63773 19.7933 9.55791C19.7626 9.47808 19.7153 9.40565 19.6546 9.34536L19.4907 9.1875C19.4169 9.12009 19.3205 9.08272 19.2205 9.08272C19.1206 9.08272 19.0242 9.12009 18.9504 9.1875L18.3432 9.79464C18.1096 10.0295 17.8086 10.1855 17.4821 10.241C17.1555 10.2965 16.8198 10.2487 16.5218 10.1043L16.1332 9.94643C15.8276 9.82859 15.5654 9.61993 15.3819 9.34855C15.1985 9.07718 15.1026 8.75611 15.1071 8.42857V7.7C15.1071 7.40857 14.9554 7.21429 14.7246 7.21429H14.2754C14.1739 7.21429 14.0766 7.25458 14.0049 7.32632C13.9332 7.39805 13.8929 7.49534 13.8929 7.59679V8.42857C13.891 8.75568 13.7894 9.07444 13.6018 9.34237C13.4141 9.61029 13.1493 9.81466 12.8425 9.92821C12.7089 9.97679 12.5754 10.0314 12.4479 10.0921C12.1488 10.234 11.8132 10.2798 11.487 10.2233C11.1609 10.1668 10.8603 10.0107 10.6264 9.77643L10.25 9.39393C10.1965 9.32715 10.1296 9.27242 10.0535 9.23333C9.97744 9.19423 9.89397 9.17165 9.80855 9.16707C9.72314 9.16248 9.63773 9.17599 9.55791 9.20672C9.47808 9.23744 9.40565 9.28469 9.34536 9.34536L9.1875 9.50929C9.11739 9.58175 9.0782 9.67863 9.0782 9.77946C9.0782 9.88029 9.11739 9.97718 9.1875 10.0496L9.79464 10.6568C10.0295 10.8904 10.1855 11.1914 10.241 11.5179C10.2965 11.8445 10.2487 12.1802 10.1043 12.4782C10.0496 12.6057 9.995 12.7393 9.94643 12.8668C9.82859 13.1724 9.61993 13.4346 9.34855 13.6181C9.07718 13.8015 8.75611 13.8974 8.42857 13.8929H7.7C7.40857 13.8929 7.21429 14.0446 7.21429 14.2754V14.7246C7.21429 14.8261 7.25458 14.9234 7.32632 14.9951C7.39805 15.0668 7.49534 15.1071 7.59679 15.1071H8.42857C8.7566 15.1086 9.07628 15.2107 9.34446 15.3996C9.61263 15.5885 9.81639 15.8552 9.92821 16.1636C9.97679 16.2911 10.0314 16.4246 10.0861 16.5521C10.2305 16.8502 10.2783 17.1859 10.2228 17.5124C10.1673 17.8389 10.0112 18.14 9.77643 18.3736L9.39393 18.75C9.32715 18.8035 9.27242 18.8704 9.23333 18.9465C9.19423 19.0226 9.17165 19.106 9.16707 19.1914C9.16248 19.2769 9.17599 19.3623 9.20672 19.4421C9.23744 19.5219 9.28469 19.5943 9.34536 19.6546L9.50929 19.8125C9.58175 19.8826 9.67863 19.9218 9.77946 19.9218C9.88029 19.9218 9.97718 19.8826 10.0496 19.8125L10.6568 19.2054C10.9553 18.9133 11.3563 18.7499 11.7739 18.75ZM14.5 17.5357C13.8996 17.5357 13.3127 17.3577 12.8134 17.0241C12.3142 16.6905 11.9251 16.2164 11.6954 15.6617C11.4656 15.107 11.4055 14.4966 11.5226 13.9078C11.6397 13.3189 11.9289 12.778 12.3534 12.3534C12.778 11.9289 13.3189 11.6397 13.9078 11.5226C14.4966 11.4055 15.107 11.4656 15.6617 11.6954C16.2164 11.9251 16.6905 12.3142 17.0241 12.8134C17.3577 13.3127 17.5357 13.8996 17.5357 14.5C17.5357 15.3051 17.2159 16.0773 16.6466 16.6466C16.0773 17.2159 15.3051 17.5357 14.5 17.5357ZM14.5 12.6786C14.1398 12.6786 13.7876 12.7854 13.4881 12.9855C13.1885 13.1857 12.9551 13.4701 12.8172 13.803C12.6794 14.1358 12.6433 14.502 12.7136 14.8553C12.7838 15.2087 12.9573 15.5332 13.2121 15.7879C13.4668 16.0427 13.7913 16.2162 14.1447 16.2864C14.498 16.3567 14.8642 16.3206 15.197 16.1828C15.5299 16.0449 15.8143 15.8115 16.0145 15.5119C16.2146 15.2124 16.3214 14.8602 16.3214 14.5C16.3214 14.0169 16.1295 13.5536 15.7879 13.2121C15.4464 12.8705 14.9831 12.6786 14.5 12.6786Z" fill="#5C638B"/>
</g>
</svg>
