<svg width="28" height="28" viewBox="0 0 28 28" fill="none" xmlns="http://www.w3.org/2000/svg">
  <rect width="28" height="28" rx="6" fill="#E4EAF1"/>
  <mask id="mask0" mask-type="alpha" maskUnits="userSpaceOnUse" x="1" y="1" width="26" height="26">
    <rect x="1" y="1" width="25.6667" height="25.6667" fill="#C4C4C4"/>
  </mask>
  <g mask="url(#mask0)">
    <circle cx="14" cy="14" r="7" fill="#5BC4D6"/>
    <path d="M13.112 15.4863L11.4101 13.7843C11.1114 13.4857 10.6273 13.4857 10.3287 13.7843L10.2887 13.8242C9.99012 14.1229 9.99012 14.607 10.2887 14.9056L12.5713 17.1882C12.8699 17.4868 13.3541 17.4868 13.6527 17.1882L18.1779 12.663C18.4765 12.3644 18.4765 11.8802 18.1779 11.5816L18.138 11.5417C17.8394 11.2431 17.3552 11.2431 17.0566 11.5417L13.112 15.4863Z" fill="white"/>
  </g>
</svg>
