<svg width="28" height="28" viewBox="0 0 28 28" fill="none" xmlns="http://www.w3.org/2000/svg">
<rect width="28" height="28" rx="6" fill="#DFE7F5"/>
<mask id="mask0" mask-type="alpha" maskUnits="userSpaceOnUse" x="1" y="1" width="26" height="26">
<rect x="1" y="1" width="25.6667" height="25.6667" fill="#C4C4C4"/>
</mask>
<g mask="url(#mask0)">
<path d="M15.3214 8C17.839 8 19.6827 10.0001 19.8866 12.2303C21.3929 12.795 22.4669 14.2427 22.4669 15.9395C22.4669 18.1249 20.6826 19.9093 18.4972 19.9093H8.96976C6.691 19.9093 5 18.3154 5 16.3365C5 14.8217 5.95836 13.357 7.43767 12.8878C7.57314 11.7485 8.15673 10.8473 8.96356 10.3632C9.7305 9.90308 10.6549 9.81214 11.5129 10.0717C12.28 8.90786 13.6101 8 15.3214 8ZM15.3214 9.19093C13.857 9.19093 12.7839 10.0417 12.282 11.0455C12.2104 11.1861 12.0859 11.2925 11.9358 11.3413C11.7858 11.3902 11.6225 11.3775 11.4819 11.3061C10.8743 11.0023 10.1422 11.0442 9.57141 11.3867C9.00064 11.7292 8.57278 12.3502 8.57278 13.3592C8.57181 13.4992 8.52154 13.6344 8.43079 13.741C8.34004 13.8476 8.21462 13.9189 8.07656 13.9422C6.99163 14.1243 6.19093 15.2335 6.19093 16.3365C6.19093 17.6643 7.21179 18.7183 8.96976 18.7183H18.4972C20.0389 18.7183 21.276 17.4813 21.276 15.9395C21.276 14.6349 20.382 13.552 19.1795 13.2475C19.0506 13.2142 18.9365 13.1387 18.8556 13.033C18.7746 12.9273 18.7314 12.7976 18.7329 12.6645C18.7497 10.9094 17.3317 9.19093 15.3214 9.19093Z" fill="#5C638B"/>
<circle cx="20.8346" cy="6.99967" r="4.66667" fill="#F4F7FC"/>
<path d="M20.8346 2.33301C18.2573 2.33301 16.168 4.42235 16.168 6.99966C16.168 9.57702 18.2573 11.6663 20.8346 11.6663C23.412 11.6663 25.5013 9.577 25.5013 6.99966C25.5013 4.42233 23.412 2.33301 20.8346 2.33301ZM22.8627 8.18107C23.0965 8.41486 23.0965 8.79394 22.8627 9.02773C22.7458 9.14463 22.5926 9.20309 22.4394 9.20309C22.2862 9.20309 22.1329 9.14463 22.016 9.02773L20.8346 7.84635L19.6532 9.02773C19.5363 9.14463 19.3831 9.20309 19.2299 9.20309C19.0767 9.20309 18.9235 9.14466 18.8066 9.02773C18.5728 8.79394 18.5728 8.41486 18.8066 8.18107L19.988 6.99969L18.8066 5.81828C18.5728 5.58449 18.5728 5.20541 18.8066 4.97162C19.0403 4.73782 19.4194 4.73782 19.6532 4.97162L20.8346 6.15302L22.016 4.97162C22.2498 4.73779 22.6289 4.73782 22.8627 4.97162C23.0965 5.20541 23.0965 5.58449 22.8627 5.81828L21.6813 6.99969L22.8627 8.18107Z" fill="#B1122A"/>
</g>
</svg>
