<svg width="31" height="31" viewBox="0 0 31 31" fill="none" xmlns="http://www.w3.org/2000/svg">
<rect x="0.0449219" y="0.530273" width="30" height="30" rx="6" fill="#EDF4FF"/>
<path d="M18.764 15.1577C19.5285 14.2429 20.007 13.0194 20.007 11.6568C20.007 8.80873 17.9564 6.53027 15.45 6.53027C12.9436 6.53027 10.893 8.80873 10.893 11.6568C10.893 13.0251 11.3749 14.2531 12.1439 15.1691C9.83465 15.6089 8.04492 17.6652 8.04492 20.0872V23.9606C8.04492 24.3024 8.27275 24.5303 8.61457 24.5303C8.95638 24.5303 9.18421 24.3024 9.18421 23.9606V20.0872C9.18421 17.9227 10.8931 16.2138 13.0576 16.2138H13.4028C14.0215 16.5658 14.7107 16.7835 15.4501 16.7835C16.1894 16.7835 16.8787 16.5658 17.4984 16.2138C17.4996 16.2138 17.4996 16.2138 17.5007 16.2138H17.8424C20.007 16.2138 21.7158 17.9227 21.7158 20.0872V23.9606C21.7158 24.3024 21.9437 24.5303 22.2855 24.5303C22.6272 24.5303 22.8551 24.3024 22.9691 23.9606V20.0872C22.969 17.6287 21.1234 15.5553 18.764 15.1577ZM12.0323 11.6568C12.0323 9.49229 13.5133 7.6695 15.4501 7.6695C17.3868 7.6695 18.8678 9.49229 18.8678 11.6568C18.8678 13.8214 17.3868 15.6442 15.4501 15.6442C13.5133 15.6442 12.0323 13.8214 12.0323 11.6568Z" fill="#5C638B"/>
</svg>
