<svg width="38" height="38" viewBox="0 0 38 38" fill="none" xmlns="http://www.w3.org/2000/svg">
<rect width="38" height="38" rx="10" fill="transparent"/>
<path d="M20.0882 23.5779H10.263V19.9051L12.4902 17.3378C12.6027 17.2098 12.7417 17.1078 12.8975 17.0388C13.0533 16.9698 13.2223 16.9355 13.3927 16.9382C13.5631 16.9409 13.7308 16.9805 13.8844 17.0544C14.0379 17.1283 14.1736 17.2346 14.2821 17.3661L16.1996 19.7278L19.8317 15.3301C19.9425 15.199 20.0805 15.0937 20.2361 15.0214C20.3918 14.9491 20.5613 14.9116 20.7329 14.9115C20.9046 14.9114 21.0742 14.9488 21.2299 15.0209C21.3855 15.0931 21.5237 15.1984 21.6346 15.3294L24.2529 18.4991C23.1168 18.8075 22.1052 19.4625 21.3588 20.3728C20.6123 21.2831 20.168 22.4035 20.0882 23.5779ZM16.3693 12.8355C15.9692 12.8355 15.5855 12.9945 15.3025 13.2774C15.0196 13.5603 14.8607 13.9441 14.8607 14.3442C14.8607 14.7443 15.0196 15.1281 15.3025 15.411C15.5855 15.6939 15.9692 15.8529 16.3693 15.8529C16.7695 15.8529 17.1532 15.6939 17.4361 15.411C17.719 15.1281 17.878 14.7443 17.878 14.3442C17.878 13.9441 17.719 13.5603 17.4361 13.2774C17.1532 12.9945 16.7695 12.8355 16.3693 12.8355ZM20.0882 24.3324H9.88583C9.7858 24.3324 9.68987 24.2926 9.61913 24.2219C9.54841 24.1511 9.50867 24.0552 9.50867 23.9552V11.8858C9.50867 11.7858 9.54841 11.6899 9.61913 11.6191C9.68987 11.5484 9.7858 11.5087 9.88583 11.5087H25.7269C25.8268 11.5087 25.9228 11.5484 25.9935 11.6191C26.0643 11.6899 26.104 11.7858 26.104 11.8858V18.3165C26.6188 18.3504 27.1265 18.4551 27.6127 18.6277V11.1315C27.6123 10.8315 27.4931 10.5439 27.281 10.3317C27.0688 10.1196 26.7812 10.0003 26.4811 10H9.1315C8.8315 10.0003 8.54388 10.1196 8.33174 10.3317C8.11961 10.5439 8.0003 10.8315 8 11.1315V24.7095C8.0003 25.0095 8.11961 25.2972 8.33174 25.5093C8.54388 25.7214 8.8315 25.8407 9.1315 25.8411H20.3994C20.2269 25.3548 20.1219 24.8471 20.0882 24.3324ZM25.7269 19.0519C24.7571 19.0519 23.8091 19.3395 23.0027 19.8784C22.1965 20.4171 21.568 21.1828 21.1969 22.0788C20.8258 22.9747 20.7286 23.9607 20.9179 24.9117C21.1071 25.8629 21.574 26.7365 22.2598 27.4222C22.9455 28.1079 23.8192 28.575 24.7702 28.7641C25.7214 28.9533 26.7072 28.8562 27.6032 28.4851C28.4991 28.114 29.2648 27.4856 29.8037 26.6792C30.3424 25.8729 30.63 24.9249 30.63 23.9552C30.6285 22.6552 30.1115 21.409 29.1922 20.4897C28.2731 19.5706 27.0268 19.0535 25.7269 19.0519ZM27.6127 23.9552H26.8583V26.9725C26.8583 27.0726 26.8186 27.1685 26.7478 27.2392C26.6772 27.3099 26.5812 27.3497 26.4811 27.3497H24.9724C24.8725 27.3497 24.7765 27.3099 24.7058 27.2392C24.6351 27.1685 24.5953 27.0726 24.5953 26.9725V23.9462L23.8455 23.9552C23.7759 23.9557 23.7076 23.9371 23.6479 23.9013C23.5883 23.8655 23.5397 23.814 23.5074 23.7523C23.4752 23.6906 23.4607 23.6213 23.4653 23.5518C23.47 23.4824 23.4937 23.4157 23.534 23.3588L25.4198 20.7187C25.4564 20.6724 25.5032 20.635 25.5563 20.6092C25.6095 20.5835 25.6677 20.5702 25.7269 20.5702C25.7859 20.5702 25.8442 20.5835 25.8974 20.6092C25.9505 20.635 25.9972 20.6724 26.0339 20.7187L27.9197 23.3588C27.9589 23.4154 27.9821 23.4817 27.9866 23.5505C27.9911 23.6193 27.9768 23.688 27.9453 23.7492C27.9137 23.8106 27.8661 23.862 27.8075 23.8983C27.7489 23.9346 27.6816 23.9543 27.6127 23.9552Z" fill="white"/>
</svg>