<svg width="17" height="17" viewBox="0 0 17 17" fill="none" xmlns="http://www.w3.org/2000/svg">
<path d="M16.3496 16H9.34961V15H11.6949C12.6073 15 13.3496 14.2577 13.3496 13.3453V11.6547C13.3496 11.2058 13.1697 10.7984 12.8785 10.5H13.0496C14.8693 10.5 16.3496 9.00114 16.3496 7.15876C16.3496 5.40933 15.039 4.02555 13.431 3.83942C13.0065 2.16836 11.5145 0.975952 9.78305 0.975952C8.35861 0.975952 7.10723 1.78042 6.46989 2.97364C5.00573 2.4973 3.53786 3.70192 3.6942 5.25073C2.38002 5.38101 1.34961 6.50555 1.34961 7.86905C1.34961 9.32064 2.5097 10.5 3.94961 10.5H4.82067C4.52952 10.7984 4.34961 11.2058 4.34961 11.6547V13.3453C4.34961 14.2577 5.09189 15 6.0043 15H8.34961V16H1.34961C1.07348 16 0.849609 16.2238 0.849609 16.5C0.849609 16.7761 1.07348 17 1.34961 17H16.3496C16.6258 17 16.8496 16.7761 16.8496 16.5C16.8496 16.2238 16.6258 16 16.3496 16ZM5.34961 9.3453V7.65467C5.34961 7.29367 5.6433 6.99998 6.0043 6.99998H11.6949C12.0559 6.99998 12.3496 7.29367 12.3496 7.65467V9.3453C12.3496 9.7063 12.0559 9.99998 11.6949 9.99998H6.0043C5.6433 10 5.34961 9.7063 5.34961 9.3453ZM3.94961 9.50001C3.06552 9.50001 2.34961 8.77108 2.34961 7.86908C2.34961 6.9698 3.06736 6.23817 3.94961 6.23817H4.34023C4.70545 6.23817 4.94811 5.85789 4.7932 5.52648C4.43614 4.76255 4.98255 3.87036 5.81617 3.87036C6.03823 3.87036 6.25323 3.93598 6.43792 4.06005C6.70783 4.24139 7.07614 4.12055 7.1868 3.81558C7.3808 3.28083 7.72661 2.82292 8.18667 2.49148C9.87064 1.27936 12.2303 2.3232 12.521 4.3873C12.5541 4.6223 12.744 4.81758 13.0496 4.81758C14.3188 4.81758 15.3496 5.86273 15.3496 7.15883C15.3496 8.34833 14.4734 9.33276 13.3436 9.4803C13.352 9.37667 13.3496 9.49545 13.3496 7.65476C13.3496 6.74236 12.6073 6.00008 11.6949 6.00008H6.00427C5.09186 6.00008 4.34958 6.74236 4.34958 7.65476C4.34958 9.48261 4.34648 9.38658 4.35705 9.50008H3.94961V9.50001ZM5.34961 13.3453V11.6547C5.34961 11.2937 5.6433 11 6.0043 11H11.6949C12.0559 11 12.3496 11.2937 12.3496 11.6547V13.3453C12.3496 13.7063 12.0559 14 11.6949 14H6.0043C5.6433 14 5.34961 13.7063 5.34961 13.3453Z" fill="#5C638B"/>
</svg>
