<svg width="31" height="30" viewBox="0 0 31 30" fill="none" xmlns="http://www.w3.org/2000/svg">
<rect x="0.849609" width="30" height="30" rx="6" fill="#EDF4FF"/>
<path d="M21.0675 13.323H21.0221C21.0221 10.3893 18.6328 8 15.6991 8C12.7654 8 10.3761 10.3893 10.3761 13.323H10.3308C9.58976 13.323 9 13.9279 9 14.6538V21.0202C9 21.7612 9.60489 22.3509 10.3308 22.3509H21.0675C21.8085 22.3509 22.3982 21.746 22.3982 21.0202V14.6538C22.4134 13.9128 21.8085 13.323 21.0675 13.323ZM16.8182 19.8255C16.8484 19.9314 16.8182 20.0524 16.7577 20.1431C16.6821 20.2338 16.5762 20.2792 16.4703 20.2792H14.9279C14.8069 20.2792 14.7162 20.2338 14.6406 20.1431C14.565 20.0524 14.5498 19.9314 14.5801 19.8255L15.0791 17.905C14.6557 17.6782 14.3684 17.2396 14.3684 16.7255C14.3684 15.9845 14.9733 15.3947 15.6991 15.3947C16.425 15.3947 17.0299 15.9996 17.0299 16.7255C17.0299 17.2396 16.7425 17.6782 16.3191 17.905L16.8182 19.8255ZM19.2075 13.323H12.1908C12.1908 11.3874 13.7635 9.81466 15.6991 9.81466C17.6348 9.81466 19.2075 11.3874 19.2075 13.323Z" fill="#5C638B"/>
</svg>
