<svg width="22" height="25" viewBox="0 0 22 25" fill="none" xmlns="http://www.w3.org/2000/svg">
<path d="M22 0H0L2.0625 22.3654L10.9988 24.8999L19.935 22.3654L22 0Z" fill="#E6A329"/>
<path d="M10.999 1.82227V23.0047L18.2395 20.9533L20.0009 1.82227H10.999Z" fill="#F1BF22"/>
<path d="M16.7596 4.56592H5.62701L4.85156 12.9398L4.86767 12.8878H14.3254L14.017 16.4306L10.9994 17.2989L7.93726 16.4169L7.75393 14.2727H4.9742L5.37059 18.5575L10.9994 20.1554L16.6307 18.5575L17.4062 10.1477H7.36868L7.49751 7.34565H14.4617L14.5658 8.95105H17.3703L16.7596 4.56592Z" fill="white"/>
<path d="M11.0019 4.56592H5.62701L4.85156 12.9398L4.86767 12.8878H11.0019V10.1563H7.76012L7.88895 7.35432H11.0019V4.56592ZM7.76012 14.2727H4.9742L5.37059 18.555L10.9994 20.1505V17.3014L7.93726 16.4169L7.76012 14.2727Z" fill="#EBEBEB"/>
</svg>
