<svg width="60" height="60" viewBox="0 0 60 60" fill="none" xmlns="http://www.w3.org/2000/svg">
<rect width="60" height="60" rx="18" fill="#EFF4FD"/>
<path d="M20.6458 27.0833C18.9801 27.0833 17.625 28.4385 17.625 30.1042C17.625 30.4377 17.8957 30.7083 18.2292 30.7083H23.0625C23.396 30.7083 23.6667 30.4377 23.6667 30.1042C23.6667 28.4385 22.3115 27.0833 20.6458 27.0833ZM18.9366 29.5C19.1862 28.7968 19.858 28.2917 20.6458 28.2917C21.4337 28.2917 22.1055 28.7968 22.355 29.5H18.9366ZM20.6458 26.4792C21.6451 26.4792 22.4583 25.666 22.4583 24.6667C22.4583 23.6674 21.6451 22.8542 20.6458 22.8542C19.6465 22.8542 18.8333 23.6674 18.8333 24.6667C18.8333 25.666 19.6465 26.4792 20.6458 26.4792ZM20.6458 24.0625C20.9787 24.0625 21.25 24.3338 21.25 24.6667C21.25 24.9996 20.9787 25.2708 20.6458 25.2708C20.3129 25.2708 20.0417 24.9996 20.0417 24.6667C20.0417 24.3338 20.3129 24.0625 20.6458 24.0625ZM43.6042 15H15.8125C14.8132 15 14 15.8132 14 16.8125V42.1875C14 43.1868 14.8132 44 15.8125 44H43.6042C44.6035 44 45.4167 43.1868 45.4167 42.1875V16.8125C45.4167 15.8132 44.6035 15 43.6042 15ZM15.8125 16.2083H43.6042C43.9371 16.2083 44.2083 16.4796 44.2083 16.8125V19.8333H15.2083V16.8125C15.2083 16.4796 15.4796 16.2083 15.8125 16.2083ZM43.6042 42.7917H15.8125C15.4796 42.7917 15.2083 42.5204 15.2083 42.1875V21.0417H44.2083V42.1875C44.2083 42.5204 43.9371 42.7917 43.6042 42.7917ZM16.4167 18.3229V17.7188C16.4167 17.5526 16.5526 17.4167 16.7187 17.4167H22.1562C22.3224 17.4167 22.4583 17.5526 22.4583 17.7188V18.3229C22.4583 18.4891 22.3224 18.625 22.1562 18.625H16.7187C16.5526 18.625 16.4167 18.4891 16.4167 18.3229ZM41.7917 18.3229V17.7188C41.7917 17.5526 41.9276 17.4167 42.0937 17.4167H42.6979C42.8641 17.4167 43 17.5526 43 17.7188V18.3229C43 18.4891 42.8641 18.625 42.6979 18.625H42.0937C41.9276 18.625 41.7917 18.4891 41.7917 18.3229ZM22.7604 35.5417H22.4583V34.9375C22.4583 33.9382 21.6451 33.125 20.6458 33.125C19.6465 33.125 18.8333 33.9382 18.8333 34.9375V35.5417H18.5312C18.0316 35.5417 17.625 35.9483 17.625 36.4479V39.4688C17.625 39.9684 18.0316 40.375 18.5312 40.375H22.7604C23.2601 40.375 23.6667 39.9684 23.6667 39.4688V36.4479C23.6667 35.9483 23.2601 35.5417 22.7604 35.5417ZM20.0417 34.9375C20.0417 34.6046 20.3129 34.3333 20.6458 34.3333C20.9787 34.3333 21.25 34.6046 21.25 34.9375V35.5417H20.0417V34.9375ZM22.4583 39.1667H18.8333V36.75H22.4583V39.1667ZM40.8854 24.0625H26.9896C26.4899 24.0625 26.0833 24.4691 26.0833 24.9688V29.8021C26.0833 30.3017 26.4899 30.7083 26.9896 30.7083H40.8854C41.3851 30.7083 41.7917 30.3017 41.7917 29.8021V24.9688C41.7917 24.4691 41.3851 24.0625 40.8854 24.0625ZM40.5833 29.5H27.2917V25.2708H40.5833V29.5ZM40.8854 33.7292H26.9896C26.4899 33.7292 26.0833 34.1358 26.0833 34.6354V39.4688C26.0833 39.9684 26.4899 40.375 26.9896 40.375H40.8854C41.3851 40.375 41.7917 39.9684 41.7917 39.4688V34.6354C41.7917 34.1358 41.3851 33.7292 40.8854 33.7292ZM40.5833 39.1667H27.2917V34.9375H40.5833V39.1667Z" fill="#4164A9"/>
</svg>
