<svg width="30" height="30" viewBox="0 0 30 30" fill="none" xmlns="http://www.w3.org/2000/svg">
<rect width="30" height="30" rx="6" fill="#EDF4FF"/>
<path d="M20.9564 20.3451H20.3164V21.3893H22.0006V19.7051H20.9564V20.3451Z" fill="#5C638B"/>
<path d="M16.3069 20.3452H14.3027V21.3894H16.3069V20.3452Z" fill="#5C638B"/>
<path d="M19.305 20.3452H17.3008V21.3894H19.305V20.3452Z" fill="#5C638B"/>
<path d="M9.65553 10.6948H8.61133V12.699H9.65553V10.6948Z" fill="#5C638B"/>
<path d="M9.65553 13.6924H8.61133V15.6966H9.65553V13.6924Z" fill="#5C638B"/>
<path d="M9.65553 9.04421H10.2955V8H8.61133V9.6842H9.65553V9.04421Z" fill="#5C638B"/>
<path d="M19.305 8H17.3008V9.04421H19.305V8Z" fill="#5C638B"/>
<path d="M16.3069 8H14.3027V9.04421H16.3069V8Z" fill="#5C638B"/>
<path d="M13.3089 8H11.3047V9.04421H13.3089V8Z" fill="#5C638B"/>
<path d="M20.3164 8V9.04421H20.9564V9.6842H22.0006V8H20.3164Z" fill="#5C638B"/>
<path d="M22.0012 13.6924H20.957V15.6966H22.0012V13.6924Z" fill="#5C638B"/>
<path d="M22.0012 16.6904H20.957V18.6946H22.0012V16.6904Z" fill="#5C638B"/>
<path d="M22.0012 10.6948H20.957V12.699H22.0012V10.6948Z" fill="#5C638B"/>
<path d="M13.36 16.6396H6V23.9996H13.36V16.6396Z" fill="#5C638B"/>
<path d="M15.9871 11.5198H17.7387L13.9492 15.3093L14.6903 16.0503L18.4797 12.2608V14.0124H19.5239V10.4756H15.9871V11.5198Z" fill="#5C638B"/>
</svg>
