<svg width="30" height="30" viewBox="0 0 30 30" fill="none" xmlns="http://www.w3.org/2000/svg">
<rect width="30" height="30" rx="6" fill="#EDF4FF"/>
<path d="M14.4625 11.193C14.4625 10.0303 12.3278 9.42041 10.2313 9.42041C8.13469 9.42041 6 10.0303 6 11.193V17.8258C6 18.9884 8.13469 19.5983 10.2313 19.5983C12.3278 19.5983 14.4625 18.9884 14.4625 17.8258V11.193ZM10.2313 10.1828C12.4803 10.1828 13.7001 10.8499 13.7001 11.193C13.7001 11.536 12.4803 12.2031 10.2313 12.2031C7.98221 12.2031 6.76239 11.536 6.76239 11.193C6.76239 10.8499 7.98221 10.1828 10.2313 10.1828ZM6.76239 12.2603C7.5629 12.7368 8.89708 12.9655 10.2313 12.9655C11.5654 12.9655 12.8996 12.7177 13.7001 12.2603V14.4522C13.7001 14.7953 12.4803 15.4624 10.2313 15.4624C7.98221 15.4624 6.76239 14.7953 6.76239 14.4522V12.2603ZM10.2313 18.8359C7.98221 18.8359 6.76239 18.1688 6.76239 17.8258V15.5005C7.58196 15.977 8.91614 16.2247 10.2313 16.2247C11.5464 16.2247 12.8996 15.977 13.7001 15.5195V17.8258C13.7001 18.1688 12.4803 18.8359 10.2313 18.8359Z" fill="#5C638B"/>
<path d="M10.0218 14.6623H10.4411C10.5422 14.6623 10.6392 14.6221 10.7107 14.5506C10.7822 14.4792 10.8223 14.3822 10.8223 14.2811C10.8223 14.18 10.7822 14.083 10.7107 14.0116C10.6392 13.9401 10.5422 13.8999 10.4411 13.8999H10.0218C9.92072 13.8999 9.82376 13.9401 9.75227 14.0116C9.68079 14.083 9.64062 14.18 9.64062 14.2811C9.64062 14.3822 9.68079 14.4792 9.75227 14.5506C9.82376 14.6221 9.92072 14.6623 10.0218 14.6623Z" fill="#5C638B"/>
<path d="M10.4411 17.0825H10.0218C9.92072 17.0825 9.82376 17.1227 9.75227 17.1942C9.68079 17.2657 9.64062 17.3626 9.64062 17.4637C9.64062 17.5648 9.68079 17.6618 9.75227 17.7333C9.82376 17.8047 9.92072 17.8449 10.0218 17.8449H10.4411C10.5422 17.8449 10.6392 17.8047 10.7107 17.7333C10.7822 17.6618 10.8223 17.5648 10.8223 17.4637C10.8223 17.3626 10.7822 17.2657 10.7107 17.1942C10.6392 17.1227 10.5422 17.0825 10.4411 17.0825Z" fill="#5C638B"/>
<path d="M15.7969 10.1638V18.855C15.7969 19.3605 15.9977 19.8453 16.3551 20.2028C16.7126 20.5602 17.1974 20.761 17.7029 20.761H18.2746V19.9986H17.7029C17.3996 19.9986 17.1087 19.8781 16.8942 19.6637C16.6797 19.4492 16.5593 19.1583 16.5593 18.855V14.8906H18.2746V14.1282H16.5593V10.1638C16.5593 9.86049 16.6797 9.56961 16.8942 9.35515C17.1087 9.14069 17.3996 9.0202 17.7029 9.0202H18.2746V8.25781H17.7029C17.1974 8.25781 16.7126 8.45862 16.3551 8.81606C15.9977 9.1735 15.7969 9.65829 15.7969 10.1638Z" fill="#5C638B"/>
<path d="M20.9442 16.2819H22.0878C22.5604 16.2819 23.0137 16.0942 23.3479 15.76C23.6821 15.4258 23.8699 14.9725 23.8699 14.4999C23.8699 14.0272 23.6821 13.5739 23.3479 13.2397C23.0137 12.9055 22.5604 12.7178 22.0878 12.7178H20.9442C20.4716 12.7178 20.0183 12.9055 19.6841 13.2397C19.3499 13.5739 19.1621 14.0272 19.1621 14.4999C19.1621 14.9725 19.3499 15.4258 19.6841 15.76C20.0183 16.0942 20.4716 16.2819 20.9442 16.2819ZM20.9442 13.4802H22.0878C22.3582 13.4802 22.6176 13.5876 22.8088 13.7788C23 13.9701 23.1075 14.2294 23.1075 14.4999C23.1075 14.7703 23 15.0297 22.8088 15.2209C22.6176 15.4121 22.3582 15.5196 22.0878 15.5196H20.9442C20.6738 15.5196 20.4144 15.4121 20.2232 15.2209C20.0319 15.0297 19.9245 14.7703 19.9245 14.4999C19.9245 14.2294 20.0319 13.9701 20.2232 13.7788C20.4144 13.5876 20.6738 13.4802 20.9442 13.4802Z" fill="#5C638B"/>
<path d="M20.9442 22.0002H22.0878C22.5604 22.0002 23.0137 21.8125 23.3479 21.4782C23.6821 21.144 23.8699 20.6908 23.8699 20.2181C23.8699 19.7455 23.6821 19.2922 23.3479 18.958C23.0137 18.6238 22.5604 18.436 22.0878 18.436H20.9442C20.4716 18.436 20.0183 18.6238 19.6841 18.958C19.3499 19.2922 19.1621 19.7455 19.1621 20.2181C19.1621 20.6908 19.3499 21.144 19.6841 21.4782C20.0183 21.8125 20.4716 22.0002 20.9442 22.0002ZM20.9442 19.1984H22.0878C22.3582 19.1984 22.6176 19.3059 22.8088 19.4971C23 19.6883 23.1075 19.9477 23.1075 20.2181C23.1075 20.4886 23 20.7479 22.8088 20.9392C22.6176 21.1304 22.3582 21.2378 22.0878 21.2378H20.9442C20.6738 21.2378 20.4144 21.1304 20.2232 20.9392C20.0319 20.7479 19.9245 20.4886 19.9245 20.2181C19.9245 19.9477 20.0319 19.6883 20.2232 19.4971C20.4144 19.3059 20.6738 19.1984 20.9442 19.1984Z" fill="#5C638B"/>
<path d="M20.9442 10.5642H22.0878C22.5604 10.5642 23.0137 10.3764 23.3479 10.0422C23.6821 9.70801 23.8699 9.25473 23.8699 8.78209C23.8699 8.30945 23.6821 7.85617 23.3479 7.52196C23.0137 7.18775 22.5604 7 22.0878 7H20.9442C20.4716 7 20.0183 7.18775 19.6841 7.52196C19.3499 7.85617 19.1621 8.30945 19.1621 8.78209C19.1621 9.25473 19.3499 9.70801 19.6841 10.0422C20.0183 10.3764 20.4716 10.5642 20.9442 10.5642ZM20.9442 7.76239H22.0878C22.3582 7.76239 22.6176 7.86982 22.8088 8.06105C23 8.25228 23.1075 8.51165 23.1075 8.78209C23.1075 9.05253 23 9.31189 22.8088 9.50312C22.6176 9.69435 22.3582 9.80178 22.0878 9.80178H20.9442C20.6738 9.80178 20.4144 9.69435 20.2232 9.50312C20.0319 9.31189 19.9245 9.05253 19.9245 8.78209C19.9245 8.51165 20.0319 8.25228 20.2232 8.06105C20.4144 7.86982 20.6738 7.76239 20.9442 7.76239Z" fill="#5C638B"/>
</svg>
