<svg width="30" height="30" viewBox="0 0 30 30" fill="none" xmlns="http://www.w3.org/2000/svg">
<rect width="30" height="30" rx="6" fill="#EDF4FF"/>
<path d="M17.0716 19.4761H12.7383C12.4623 19.4761 12.2383 19.2521 12.2383 18.9761C12.2383 18.7001 12.4623 18.4761 12.7383 18.4761H17.0716C17.3476 18.4761 17.5716 18.7001 17.5716 18.9761C17.5716 19.2521 17.3476 19.4761 17.0716 19.4761Z" fill="#5C638B"/>
<path d="M21.1667 22.6667H8.83333C7.822 22.6667 7 21.8447 7 20.8333V9.83333C7 8.822 7.822 8 8.83333 8H21.1667C22.178 8 23 8.822 23 9.83333V20.8333C23 21.8447 22.178 22.6667 21.1667 22.6667ZM8.83333 9C8.374 9 8 9.374 8 9.83333V20.8333C8 21.2927 8.374 21.6667 8.83333 21.6667H21.1667C21.626 21.6667 22 21.2927 22 20.8333V9.83333C22 9.374 21.626 9 21.1667 9H8.83333Z" fill="#5C638B"/>
<path d="M22.5 11.333H7.5C7.224 11.333 7 11.109 7 10.833C7 10.557 7.224 10.333 7.5 10.333H22.5C22.776 10.333 23 10.557 23 10.833C23 11.109 22.776 11.333 22.5 11.333Z" fill="#5C638B"/>
<path d="M13.6872 17.4943C13.6899 17.4943 13.6917 17.4977 13.6942 17.4991L13.7115 17.506C13.7842 17.54 13.8582 17.5698 13.9347 17.5974C13.9471 17.6019 13.9595 17.6068 13.972 17.6109C14.0439 17.6354 14.1171 17.6562 14.1917 17.6747C14.2086 17.6788 14.2252 17.6838 14.2421 17.6877C14.3125 17.703 14.384 17.7145 14.4567 17.7236C14.4761 17.7263 14.4952 17.7309 14.5147 17.7326C14.6966 17.7531 14.8799 17.7531 15.0618 17.7326C15.0814 17.7309 15.1004 17.7263 15.1199 17.7236C15.1926 17.7145 15.264 17.703 15.3344 17.6877C15.3513 17.6838 15.3663 17.6788 15.3848 17.6747C15.4594 17.6567 15.5328 17.6359 15.6046 17.6109C15.617 17.6068 15.6295 17.6019 15.642 17.5974C15.7178 17.5704 15.7916 17.54 15.8649 17.506L15.8822 17.4991C15.8848 17.4991 15.8867 17.4955 15.8892 17.4943C16.9642 16.9804 17.5402 15.7909 17.2768 14.6288C17.0135 13.4669 15.9807 12.6421 14.7891 12.6421C13.5977 12.6421 12.5652 13.4669 12.3016 14.6288C12.0383 15.7909 12.6143 16.9804 13.6892 17.4943H13.6872ZM15.4253 16.9981L15.4212 16.9996C15.3234 17.034 15.2235 17.0603 15.1215 17.0784C15.1116 17.0804 15.1016 17.0817 15.0917 17.0833C14.8904 17.1161 14.6849 17.1161 14.4835 17.0833C14.4737 17.0817 14.4637 17.0804 14.4538 17.0784C14.3518 17.0603 14.2518 17.034 14.1541 16.9996L14.15 16.9981V16.472C14.15 16.1198 14.4354 15.8343 14.7876 15.8343C15.1399 15.8343 15.4253 16.1198 15.4253 16.472V16.9981ZM14.4688 14.8778C14.4688 14.7016 14.6115 14.559 14.7876 14.559C14.9638 14.559 15.1065 14.7016 15.1065 14.8778C15.1065 15.054 14.9638 15.1966 14.7876 15.1966C14.6115 15.1966 14.4688 15.054 14.4688 14.8778ZM14.7876 13.2836C15.5804 13.2826 16.2914 13.7713 16.5743 14.5116C16.8576 15.252 16.654 16.0904 16.063 16.6187V16.472C16.0619 16.0699 15.8705 15.692 15.5468 15.4533C15.6742 15.2883 15.7434 15.086 15.7442 14.8778C15.7442 14.3496 15.3158 13.9213 14.7876 13.9213C14.2595 13.9213 13.8311 14.3496 13.8311 14.8778C13.8322 15.0857 13.9014 15.2874 14.0285 15.4517C13.7044 15.6907 13.5127 16.0693 13.5123 16.472V16.6187C12.9212 16.0904 12.7176 15.252 13.0009 14.5116C13.2839 13.7713 13.9949 13.2826 14.7876 13.2836Z" fill="#5C638B"/>
</svg>
