<svg width="60" height="60" viewBox="0 0 60 60" fill="none" xmlns="http://www.w3.org/2000/svg">
<rect width="60" height="60" rx="18" fill="#EFF4FD"/>
<path fill-rule="evenodd" clip-rule="evenodd" d="M25.596 32.6724H23.5226C22.4654 32.6763 21.4406 32.3084 20.6273 31.633C19.814 30.9576 19.2641 30.0178 19.0737 28.9779C18.8833 27.938 19.0646 26.8643 19.5858 25.9446C20.1071 25.0249 20.9351 24.3177 21.9251 23.9468V23.8448C21.9242 23.0667 22.1201 22.301 22.4947 21.6189C22.8692 20.9369 23.4102 20.3606 24.0674 19.9439C24.7245 19.5271 25.4764 19.2834 26.253 19.2353C27.0297 19.1872 27.8059 19.3364 28.5093 19.669C29.2876 18.8775 30.284 18.3359 31.3714 18.1134C32.4588 17.8908 33.5879 17.9974 34.6145 18.4195C35.6411 18.8416 36.5185 19.5601 37.1349 20.4832C37.7513 21.4063 38.0786 22.4921 38.075 23.6021V23.9395C39.0641 24.3102 39.8917 25.0165 40.413 25.9352C40.9343 26.8539 41.1163 27.9266 40.9272 28.9658C40.7381 30.0051 40.1899 30.9448 39.3783 31.621C38.5668 32.2972 37.5435 32.6667 36.4872 32.6651H34.3458V33.1507C34.3452 33.6978 34.1276 34.2224 33.7407 34.6092C33.3538 34.9961 32.8293 35.2137 32.2822 35.2144H30.6143V37.0668C31.063 37.0678 31.4987 37.2179 31.8529 37.4934C32.2071 37.7689 32.4597 38.1543 32.5711 38.589H34.642C34.7535 38.1539 35.0065 37.7682 35.3612 37.4927C35.7159 37.2171 36.1521 37.0673 36.6013 37.0668H37.8152C38.3514 37.0674 38.8654 37.2807 39.2445 37.6598C39.6237 38.039 39.8369 38.553 39.8376 39.0892V39.3028C39.8369 39.839 39.6237 40.353 39.2445 40.7322C38.8654 41.1113 38.3514 41.3246 37.8152 41.3252H36.6013C36.1526 41.3242 35.7169 41.1741 35.3627 40.8986C35.0085 40.623 34.7558 40.2377 34.6445 39.803H32.5735C32.462 40.2381 32.2091 40.6237 31.8544 40.8993C31.4997 41.1749 31.0634 41.3247 30.6143 41.3252H29.4004C28.9512 41.3247 28.515 41.1749 28.1603 40.8993C27.8056 40.6237 27.5526 40.2381 27.4411 39.803H25.3702C25.2587 40.2381 25.0057 40.6237 24.651 40.8993C24.2963 41.1749 23.8601 41.3247 23.4109 41.3252H22.197C21.6617 41.3246 21.1484 41.112 20.7694 40.7339C20.3904 40.3558 20.1765 39.843 20.1746 39.3077V39.094C20.1753 38.5579 20.3885 38.0438 20.7677 37.6647C21.1468 37.2856 21.6608 37.0723 22.197 37.0716H23.4109C23.8597 37.0727 24.2953 37.2227 24.6495 37.4983C25.0037 37.7738 25.2564 38.1592 25.3677 38.5939H27.4387C27.5502 38.1588 27.8031 37.7731 28.1578 37.4975C28.5125 37.222 28.9488 37.0721 29.3979 37.0716V35.2216H27.6596C27.1125 35.221 26.588 35.0034 26.2011 34.6165C25.8142 34.2296 25.5966 33.7051 25.596 33.158V32.6724ZM23.9819 39.8738C24.1334 39.7223 24.2187 39.517 24.2194 39.3028V39.0892C24.2187 38.875 24.1334 38.6697 23.9819 38.5182C23.8304 38.3667 23.6251 38.2813 23.4109 38.2807H22.197C21.9828 38.2813 21.7775 38.3667 21.626 38.5182C21.4746 38.6697 21.3892 38.875 21.3885 39.0892V39.3028C21.3892 39.517 21.4746 39.7223 21.626 39.8738C21.7775 40.0253 21.9828 40.1106 22.197 40.1113H23.4109C23.6251 40.1106 23.8304 40.0253 23.9819 39.8738ZM36.0303 38.5182C35.8789 38.6697 35.7935 38.875 35.7928 39.0892V39.3028C35.7935 39.517 35.8789 39.7223 36.0303 39.8738C36.1818 40.0253 36.3871 40.1106 36.6013 40.1113H37.8152C38.0294 40.1106 38.2347 40.0253 38.3862 39.8738C38.5377 39.7223 38.623 39.517 38.6237 39.3028V39.0892C38.623 38.875 38.5377 38.6697 38.3862 38.5182C38.2347 38.3667 38.0294 38.2813 37.8152 38.2807H36.6013C36.3871 38.2813 36.1818 38.3667 36.0303 38.5182ZM31.1852 38.5158C31.0338 38.3643 30.8285 38.2789 30.6143 38.2783L29.4004 38.2807C29.1861 38.2813 28.9809 38.3667 28.8294 38.5182C28.6779 38.6697 28.5925 38.875 28.5919 39.0892V39.3028C28.5925 39.517 28.6779 39.7223 28.8294 39.8738C28.9809 40.0253 29.1861 40.1106 29.4004 40.1113H30.6143C30.8289 40.1106 31.0345 40.0249 31.1861 39.8729C31.3376 39.7209 31.4227 39.515 31.4227 39.3004V39.0867C31.4221 38.8725 31.3367 38.6673 31.1852 38.5158ZM32.883 33.7516C33.0424 33.5922 33.1319 33.3761 33.1319 33.1507V30.8176C33.1313 30.5924 33.0416 30.3766 32.8823 30.2174C32.7231 30.0582 32.5074 29.9685 32.2822 29.9678H27.6693C27.4442 29.9685 27.2284 30.0582 27.0692 30.2174C26.91 30.3766 26.8202 30.5924 26.8196 30.8176V33.1507C26.8196 33.3761 26.9091 33.5922 27.0685 33.7516C27.2278 33.9109 27.444 34.0004 27.6693 34.0004H32.2822C32.5076 34.0004 32.7237 33.9109 32.883 33.7516ZM23.0764 24.7255C22.9926 24.8491 22.8663 24.9375 22.7214 24.9738C21.9428 25.1697 21.2627 25.6434 20.809 26.3057C20.3552 26.968 20.1591 27.7733 20.2575 28.57C20.356 29.3668 20.7422 30.1002 21.3435 30.6321C21.9448 31.1641 22.7198 31.458 23.5226 31.4585H25.6057V30.8176C25.6063 30.2704 25.8239 29.7459 26.2108 29.3591C26.5977 28.9722 27.1222 28.7546 27.6693 28.7539H32.2822C32.8293 28.7546 33.3538 28.9722 33.7407 29.3591C34.1276 29.7459 34.3452 30.2704 34.3458 30.8176V31.4585H36.4872C37.2978 31.4675 38.0832 31.177 38.693 30.6428C39.3027 30.1086 39.6939 29.3682 39.7917 28.5635C39.8894 27.7587 39.6868 26.9462 39.2226 26.2816C38.7585 25.617 38.0654 25.147 37.2762 24.9616C37.1286 24.9257 36.9997 24.8357 36.9152 24.7094C36.8307 24.5831 36.7966 24.4296 36.8198 24.2794C36.8541 24.0553 36.8712 23.8288 36.8708 23.6021C36.8734 22.6992 36.5964 21.8178 36.0777 21.0788C35.559 20.3398 34.8242 19.7796 33.9743 19.4752C33.1243 19.1707 32.201 19.137 31.3311 19.3787C30.4612 19.6203 29.6875 20.1254 29.1163 20.8246C29.0228 20.9374 28.8917 21.0125 28.7471 21.0362C28.6025 21.0598 28.4543 21.0304 28.3297 20.9533C27.7815 20.6147 27.1484 20.4388 26.5042 20.4462C25.8599 20.4536 25.231 20.644 24.6908 20.9951C24.1506 21.3463 23.7213 21.8437 23.453 22.4295C23.1847 23.0153 23.0884 23.6653 23.1754 24.3037C23.1954 24.4517 23.1602 24.6018 23.0764 24.7255ZM30.5782 26.0347C30.5782 26.3699 30.3064 26.6416 29.9712 26.6416C29.636 26.6416 29.3643 26.3699 29.3643 26.0347C29.3643 25.6995 29.636 25.4277 29.9712 25.4277C30.3064 25.4277 30.5782 25.6995 30.5782 26.0347ZM27.5113 26.6416C27.8465 26.6416 28.1182 26.3699 28.1182 26.0347C28.1182 25.6995 27.8465 25.4277 27.5113 25.4277C27.176 25.4277 26.9043 25.6995 26.9043 26.0347C26.9043 26.3699 27.176 26.6416 27.5113 26.6416ZM33.0352 26.0347C33.0352 26.3699 32.7635 26.6416 32.4282 26.6416C32.093 26.6416 31.8213 26.3699 31.8213 26.0347C31.8213 25.6995 32.093 25.4277 32.4282 25.4277C32.7635 25.4277 33.0352 25.6995 33.0352 26.0347Z" fill="#4164A9"/>
</svg>
