<svg width="33" height="33" viewBox="0 0 33 33" fill="none" xmlns="http://www.w3.org/2000/svg">
<path d="M25.4375 24.0625C23.1633 24.0625 21.3125 22.2118 21.3125 19.9375C21.3125 17.6632 23.1633 15.8125 25.4375 15.8125C27.7118 15.8125 29.5625 17.6632 29.5625 19.9375C29.5625 22.2118 27.7118 24.0625 25.4375 24.0625ZM25.4375 17.875C24.3004 17.875 23.375 18.8004 23.375 19.9375C23.375 21.0746 24.3004 22 25.4375 22C26.5746 22 27.5 21.0746 27.5 19.9375C27.5 18.8004 26.5746 17.875 25.4375 17.875Z" fill="#5C638B"/>
<path d="M31.9687 33C31.3995 33 30.9375 32.538 30.9375 31.9687V29.9062C30.9375 28.9589 30.1661 28.1875 29.2187 28.1875H21.6562C20.7089 28.1875 19.9375 28.9589 19.9375 29.9062V31.9687C19.9375 32.538 19.4755 33 18.9062 33C18.337 33 17.875 32.538 17.875 31.9687V29.9062C17.875 27.8204 19.5704 26.125 21.6562 26.125H29.2187C31.3046 26.125 33 27.8204 33 29.9062V31.9687C33 32.538 32.538 33 31.9687 33Z" fill="#5C638B"/>
<path d="M15.4688 20.625C15.2144 20.625 14.9641 20.5315 14.7689 20.3514L10.5971 16.5H3.78125C1.69538 16.5 0 14.8046 0 12.7188V3.78125C0 1.69538 1.69538 0 3.78125 0H18.2188C20.3046 0 22 1.69538 22 3.78125V12.7188C22 14.8046 20.3046 16.5 18.2188 16.5H16.5V19.5938C16.5 20.0035 16.2566 20.3734 15.8826 20.5397C15.7492 20.5961 15.609 20.625 15.4688 20.625ZM3.78125 2.0625C2.83387 2.0625 2.0625 2.83387 2.0625 3.78125V12.7188C2.0625 13.6661 2.83387 14.4375 3.78125 14.4375H11C11.2585 14.4375 11.5087 14.5351 11.6999 14.7111L14.4375 17.2384V15.4688C14.4375 14.8995 14.8995 14.4375 15.4688 14.4375H18.2188C19.1661 14.4375 19.9375 13.6661 19.9375 12.7188V3.78125C19.9375 2.83387 19.1661 2.0625 18.2188 2.0625H3.78125Z" fill="#5C638B"/>
<path d="M5.5 26.125C3.98338 26.125 2.75 24.8916 2.75 23.375C2.75 21.8584 3.98338 20.625 5.5 20.625C7.01663 20.625 8.25 21.8584 8.25 23.375C8.25 24.8916 7.01663 26.125 5.5 26.125ZM5.5 22.6875C5.12188 22.6875 4.8125 22.9969 4.8125 23.375C4.8125 23.7531 5.12188 24.0625 5.5 24.0625C5.87813 24.0625 6.1875 23.7531 6.1875 23.375C6.1875 22.9969 5.87813 22.6875 5.5 22.6875Z" fill="#5C638B"/>
<path d="M9.96875 33C9.3995 33 8.9375 32.538 8.9375 31.9688V31.2812C8.9375 30.3339 8.16613 29.5625 7.21875 29.5625H3.78125C2.83387 29.5625 2.0625 30.3339 2.0625 31.2812V31.9688C2.0625 32.538 1.6005 33 1.03125 33C0.462 33 0 32.538 0 31.9688V31.2812C0 29.1954 1.69538 27.5 3.78125 27.5H7.21875C9.30462 27.5 11 29.1954 11 31.2812V31.9688C11 32.538 10.538 33 9.96875 33Z" fill="#5C638B"/>
<path d="M15.4684 11.6875C15.2305 11.6875 14.9913 11.6063 14.7974 11.4386C14.3656 11.0673 14.3148 10.417 14.686 9.98383L16.1724 8.24995L14.686 6.51471C14.3148 6.08296 14.3656 5.43121 14.7974 5.05996C15.2305 4.69008 15.8809 4.73958 16.2521 5.17133L18.3146 7.57758C18.646 7.96396 18.646 8.5332 18.3146 8.92095L16.2521 11.3272C16.0473 11.5651 15.7585 11.6875 15.4684 11.6875Z" fill="#5C638B"/>
<path d="M6.53091 11.6875C6.24078 11.6875 5.95203 11.5652 5.74853 11.3273L3.68603 8.92103C3.35466 8.53465 3.35466 7.9654 3.68603 7.57765L5.74853 5.1714C6.12116 4.73965 6.77016 4.68878 7.20328 5.06003C7.63641 5.43128 7.68591 6.08165 7.31466 6.51478L5.82691 8.25003L7.31328 9.98528C7.68453 10.417 7.63366 11.0688 7.20191 11.44C7.00803 11.605 6.76878 11.6875 6.53091 11.6875Z" fill="#5C638B"/>
<path d="M10.6572 12.375C10.6201 12.375 10.5802 12.3736 10.5417 12.3695C9.97658 12.3062 9.56821 11.7961 9.63146 11.2296L10.319 5.0421C10.3808 4.47697 10.8882 4.06997 11.4575 4.13047C12.0226 4.19372 12.431 4.70385 12.3677 5.27035L11.6802 11.4578C11.6225 11.9845 11.1756 12.375 10.6572 12.375Z" fill="#5C638B"/>
</svg>
