<svg width="30" height="30" viewBox="0 0 30 30" fill="none" xmlns="http://www.w3.org/2000/svg">
<rect width="30" height="30" rx="6" fill="#EDF4FF"/>
<path d="M10.7706 12.8272H9.57084C9.287 12.8272 9.05664 12.5969 9.05664 12.313C9.05664 12.0292 9.287 11.7988 9.57084 11.7988H10.7706C11.0545 11.7988 11.2848 12.0292 11.2848 12.313C11.2848 12.5969 11.0545 12.8272 10.7706 12.8272Z" fill="#5C638B"/>
<path d="M10.7706 20.0264H9.57084C9.287 20.0264 9.05664 19.7961 9.05664 19.5122C9.05664 19.2284 9.287 18.998 9.57084 18.998H10.7706C11.0545 18.998 11.2848 19.2284 11.2848 19.5122C11.2848 19.7961 11.0545 20.0264 10.7706 20.0264Z" fill="#5C638B"/>
<path d="M14.7127 14.5416H10.2564C9.97255 14.5416 9.74219 14.3112 9.74219 14.0274C9.74219 13.7435 9.97255 13.5132 10.2564 13.5132H14.7127C14.9966 13.5132 15.2269 13.7435 15.2269 14.0274C15.2269 14.3112 14.9966 14.5416 14.7127 14.5416Z" fill="#5C638B"/>
<path d="M20.8831 16.2554H10.9419C10.6581 16.2554 10.4277 16.0251 10.4277 15.7412C10.4277 15.4574 10.6581 15.2271 10.9419 15.2271H20.8831C21.1669 15.2271 21.3973 15.4574 21.3973 15.7412C21.3973 16.0251 21.1669 16.2554 20.8831 16.2554Z" fill="#5C638B"/>
<path d="M14.7127 18.3126H10.2564C9.97255 18.3126 9.74219 18.0822 9.74219 17.7984C9.74219 17.5145 9.97255 17.2842 10.2564 17.2842H14.7127C14.9966 17.2842 15.2269 17.5145 15.2269 17.7984C15.2269 18.0822 14.9966 18.3126 14.7127 18.3126Z" fill="#5C638B"/>
<path d="M21.5689 22.0831H8.88539C7.84534 22.0831 7 21.2377 7 20.1977V8.88539C7 7.84534 7.84534 7 8.88539 7H21.5689C22.6089 7 23.4543 7.84534 23.4543 8.88539V20.1977C23.4543 21.2377 22.6089 22.0831 21.5689 22.0831ZM8.88539 8.02839C8.41301 8.02839 8.02839 8.41301 8.02839 8.88539V20.1977C8.02839 20.6701 8.41301 21.0547 8.88539 21.0547H21.5689C22.0413 21.0547 22.4259 20.6701 22.4259 20.1977V8.88539C22.4259 8.41301 22.0413 8.02839 21.5689 8.02839H8.88539Z" fill="#5C638B"/>
<path d="M22.9401 10.4283H7.5142C7.23036 10.4283 7 10.1979 7 9.9141C7 9.63026 7.23036 9.3999 7.5142 9.3999H22.9401C23.2239 9.3999 23.4543 9.63026 23.4543 9.9141C23.4543 10.1979 23.2239 10.4283 22.9401 10.4283Z" fill="#5C638B"/>
</svg>
