<svg width="38" height="38" viewBox="0 0 38 38" fill="none" xmlns="http://www.w3.org/2000/svg">
<rect width="38" height="38" rx="10.3333" fill="transparent" />
<mask id="mask0_12682_108" style="mask-type:alpha" maskUnits="userSpaceOnUse" x="0" y="0" width="38" height="38">
<rect width="38" height="38" fill="#4164A9"/>
</mask>
<g mask="url(#mask0_12682_108)">
<path d="M17.7522 24.8068L14.3711 23.1163V19.397L17.7522 20.7494V24.8068Z" fill="#E4E5EB"/>
<path d="M17.7539 24.8068L21.1351 23.1163V19.397L17.7539 20.7494V24.8068Z" fill="#E4E5EB"/>
<path d="M17.7522 20.7496L14.3711 19.3971L17.7522 17.7065L21.1334 19.3971L17.7522 20.7496Z" fill="#E4E5EB"/>
<path d="M20.1188 19.8027V23.1163L17.752 24.8068L21.1331 23.1163V19.397L20.1188 19.8027Z" fill="#B4B4B4"/>
<path d="M17.7523 17.7063V17.9768L20.1191 19.3969L17.2451 20.5465L17.7523 20.7493L21.1334 19.3969L17.7523 17.7063Z" fill="#B4B4B4"/>
<path d="M17.7534 25.1448C17.6858 25.1448 17.652 25.1448 17.6182 25.111L14.237 23.4204C14.1018 23.3528 14.0342 23.2514 14.0342 23.1161V19.3968C14.0342 19.2954 14.1018 19.194 14.1694 19.1263C14.2708 19.0587 14.3723 19.0587 14.4737 19.0925L17.8549 20.445C17.9901 20.5126 18.0577 20.6141 18.0577 20.7493V24.8067C18.0577 24.9081 17.9901 25.0433 17.8887 25.111C17.8887 25.1448 17.8211 25.1448 17.7534 25.1448ZM14.7104 22.9133L17.4153 24.2657V20.986L14.7104 19.904V22.9133Z" fill="white"/>
<path d="M17.7542 25.1448C17.6865 25.1448 17.6189 25.1448 17.5851 25.111C17.4837 25.0433 17.416 24.9081 17.416 24.8067V20.7493C17.416 20.614 17.4837 20.4788 17.6189 20.445L21 19.0925C21.1015 19.0587 21.2367 19.0587 21.3043 19.1263C21.4058 19.1939 21.4396 19.2954 21.4396 19.3968V23.1161C21.4396 23.2513 21.3719 23.3528 21.2367 23.4204L17.8556 25.111C17.8556 25.1448 17.8218 25.1448 17.7542 25.1448ZM18.0923 20.9859V24.2656L20.7972 22.9132V19.904L18.0923 20.9859Z" fill="white"/>
<path d="M17.7534 21.087C17.7196 21.087 17.652 21.087 17.6182 21.0532L14.237 19.7008C14.1356 19.667 14.0342 19.5317 14.0342 19.3965C14.0342 19.2612 14.1018 19.126 14.237 19.0922L17.6182 17.4016C17.7196 17.3678 17.8211 17.3678 17.9225 17.4016L21.3036 19.0921C21.4389 19.1598 21.5065 19.2612 21.5065 19.3964C21.5065 19.5317 21.4051 19.6331 21.3036 19.7007L17.9225 21.0532C17.8549 21.087 17.7872 21.087 17.7534 21.087ZM15.1838 19.3626L17.7534 20.377L20.3231 19.3626L17.7534 18.0778L15.1838 19.3626Z" fill="white"/>
<path fill-rule="evenodd" clip-rule="evenodd" d="M25.0534 16.8152L17.615 14.1969L10.1766 16.8152V26.0627L17.615 28.919L25.0534 26.0627V16.8152ZM9.5614 15.7843C9.22503 15.9027 9 16.2205 9 16.5771V26.2937C9 26.6417 9.21437 26.9536 9.53917 27.0783L17.3137 30.0638C17.5077 30.1382 17.7223 30.1382 17.9163 30.0638L25.6908 27.0783C26.0156 26.9536 26.23 26.6417 26.23 26.2937V16.5771C26.23 16.2205 26.005 15.9027 25.6686 15.7843L17.8941 13.0477C17.7135 12.9841 17.5165 12.9841 17.3359 13.0477L9.5614 15.7843Z" fill="white"/>
<path d="M10.3774 26.378C10.2759 26.378 10.1745 26.3103 10.1069 26.2427C10.0054 26.0737 10.0392 25.8708 10.2083 25.7694L12.237 24.4169C12.4061 24.3155 12.6089 24.3493 12.7104 24.5184C12.8118 24.6874 12.778 24.8903 12.6089 24.9917L10.5802 26.3442C10.5126 26.3442 10.445 26.378 10.3774 26.378Z" fill="white"/>
<path d="M12.6498 25.7143C12.6089 25.738 12.559 25.746 12.5097 25.7325C12.4111 25.7059 12.3524 25.6043 12.3787 25.5056L12.6226 24.5895L11.7069 24.3426C11.6083 24.316 11.5496 24.2144 11.5759 24.1157C11.6022 24.0169 11.7035 23.9585 11.8021 23.9851L12.8962 24.2801C12.9948 24.3067 13.0535 24.4083 13.0272 24.507L12.7357 25.6021C12.7227 25.6515 12.6908 25.6907 12.6498 25.7143V25.7143Z" fill="white"/>
<path fill-rule="evenodd" clip-rule="evenodd" d="M12.5108 25.7318L12.467 25.8941C12.279 25.8434 12.1673 25.6499 12.2174 25.4616L12.4182 24.7074L11.6643 24.5041C11.4762 24.4534 11.3645 24.2599 11.4146 24.0717C11.4648 23.883 11.6585 23.7712 11.847 23.8221L12.941 24.1171C13.1291 24.1678 13.2408 24.3613 13.1907 24.5495L12.8993 25.644C12.8993 25.6441 12.8993 25.6442 12.8993 25.6443C12.8743 25.739 12.8129 25.8142 12.735 25.8592C12.657 25.9042 12.561 25.9198 12.4665 25.8939M12.6237 24.5888L12.6237 24.5888L12.3798 25.5049C12.3535 25.6036 12.4122 25.7052 12.5108 25.7318C12.5601 25.7453 12.61 25.7372 12.651 25.7136C12.6919 25.69 12.7238 25.6507 12.7368 25.6013L13.0283 24.5063C13.0546 24.4076 12.9959 24.306 12.8973 24.2794L11.8032 23.9843C11.7046 23.9577 11.6033 24.0162 11.577 24.1149C11.5507 24.2136 11.6094 24.3152 11.708 24.3418L12.6237 24.5888Z" fill="white"/>
<path d="M9.7178 17.1675C9.66708 17.0797 9.67494 16.958 9.69966 16.8656C9.79537 16.6932 9.98795 16.6211 10.1603 16.7168L12.3459 17.7974C12.5183 17.8932 12.5905 18.0857 12.4948 18.2581C12.3991 18.4305 12.2065 18.5027 12.0341 18.407L9.84851 17.3263C9.81469 17.2677 9.75162 17.2261 9.7178 17.1675Z" fill="white"/>
<path d="M11.431 18.8046C11.39 18.781 11.3581 18.7418 11.3451 18.6924C11.3189 18.5936 11.3775 18.4921 11.4762 18.4655L12.3915 18.2186L12.1475 17.3022C12.1212 17.2034 12.1799 17.1019 12.2785 17.0753C12.3771 17.0487 12.4784 17.1071 12.5047 17.2058L12.7962 18.3009C12.8225 18.3996 12.7638 18.5012 12.6652 18.5278L11.5711 18.8228C11.5218 18.8363 11.4719 18.8283 11.431 18.8046V18.8046Z" fill="white"/>
<path fill-rule="evenodd" clip-rule="evenodd" d="M11.1826 18.7349L11.3451 18.6923L11.1827 18.7355C11.1326 18.5473 11.2443 18.3538 11.4324 18.3031L12.1859 18.0998L11.9851 17.3453C11.935 17.1571 12.0467 16.9636 12.2347 16.9128C12.4232 16.862 12.6169 16.9738 12.6671 17.1625L12.9586 18.2575C13.0087 18.4457 12.897 18.6392 12.7089 18.6899L11.6154 18.9848C11.6153 18.9849 11.6152 18.9849 11.6151 18.9849C11.5207 19.0107 11.4248 18.9951 11.3469 18.9501C11.269 18.9051 11.2075 18.8297 11.1826 18.7349ZM12.3915 18.2185L11.4762 18.4653C11.3775 18.4919 11.3189 18.5935 11.3451 18.6922C11.3581 18.7417 11.39 18.7809 11.431 18.8045C11.4719 18.8282 11.5218 18.8362 11.5711 18.8227L12.6652 18.5276C12.7638 18.501 12.8225 18.3995 12.7962 18.3007L12.5047 17.2057C12.4784 17.107 12.3771 17.0485 12.2785 17.0751C12.1799 17.1017 12.1212 17.2033 12.1475 17.302L12.3915 18.2185Z" fill="white"/>
<path d="M25.1871 16.2832C25.2885 16.2832 25.39 16.3508 25.4576 16.4184C25.559 16.5875 25.5252 16.7903 25.3562 16.8918L23.3275 18.2442C23.1584 18.3456 22.9555 18.3118 22.8541 18.1428C22.7527 17.9737 22.7864 17.7708 22.9555 17.6694L24.9842 16.317C25.0518 16.317 25.1194 16.2832 25.1871 16.2832Z" fill="white"/>
<path d="M22.9146 16.9468C22.9555 16.9232 23.0055 16.9152 23.0547 16.9286C23.1534 16.9552 23.212 17.0568 23.1857 17.1555L22.9419 18.0716L23.8575 18.3186C23.9562 18.3452 24.0148 18.4468 23.9885 18.5455C23.9622 18.6442 23.861 18.7027 23.7624 18.6761L22.6683 18.381C22.5696 18.3544 22.511 18.2528 22.5373 18.1541L22.8288 17.0591C22.8418 17.0097 22.8737 16.9704 22.9146 16.9468V16.9468Z" fill="white"/>
<path fill-rule="evenodd" clip-rule="evenodd" d="M23.0536 16.9291L23.0974 16.7668C23.2855 16.8175 23.3972 17.011 23.3471 17.1993L23.1463 17.9535L23.9002 18.1568C24.0882 18.2075 24.2 18.401 24.1499 18.5892C24.0996 18.7778 23.906 18.8897 23.7175 18.8388L22.6234 18.5438C22.4354 18.4931 22.3236 18.2996 22.3737 18.1113L22.6651 17.0169C22.6651 17.0168 22.6652 17.0167 22.6652 17.0166C22.6901 16.9219 22.7516 16.8467 22.8295 16.8017C22.9074 16.7567 23.0034 16.7411 23.098 16.767M22.8277 17.0596L22.5362 18.1546C22.5099 18.2533 22.5685 18.3549 22.6672 18.3815L23.7613 18.6765C23.8599 18.7031 23.9611 18.6447 23.9874 18.546C24.0137 18.4472 23.9551 18.3457 23.8564 18.3191L22.9408 18.0721L23.1846 17.156C23.2109 17.0573 23.1523 16.9557 23.0536 16.9291C23.0044 16.9156 22.9544 16.9237 22.9135 16.9473C22.8726 16.9709 22.8407 17.0102 22.8277 17.0596Z" fill="white"/>
<path d="M25.3597 25.974C25.3859 26.072 25.3469 26.1875 25.2991 26.2703C25.162 26.412 24.9573 26.4319 24.8156 26.2948L22.9841 24.6853C22.8424 24.5483 22.8226 24.3436 22.9596 24.2018C23.0967 24.0601 23.3014 24.0402 23.4431 24.1773L25.2745 25.7868C25.292 25.8521 25.3422 25.9087 25.3597 25.974Z" fill="white"/>
<path d="M24.1306 23.9496C24.1641 23.983 24.1847 24.0292 24.1845 24.0802C24.1843 24.1824 24.1014 24.2653 23.9992 24.2655L23.0512 24.267L23.0496 25.2154C23.0495 25.3176 22.9665 25.4005 22.8644 25.4007C22.7622 25.4008 22.6795 25.3182 22.6797 25.216L22.6816 24.0828C22.6817 23.9807 22.7647 23.8977 22.8668 23.8976L24 23.8957C24.0511 23.8955 24.0972 23.9162 24.1306 23.9496V23.9496Z" fill="white"/>
<path fill-rule="evenodd" clip-rule="evenodd" d="M24.3526 24.0809L24.1845 24.0801L24.3526 24.0803C24.3522 24.2751 24.1943 24.4331 23.9995 24.4334L23.219 24.4347L23.2177 25.2155C23.2174 25.4103 23.0594 25.5683 22.8647 25.5686C22.6694 25.5689 22.5113 25.4108 22.5116 25.2156L22.5135 24.0824C22.5138 23.8876 22.6718 23.7296 22.8665 23.7293L23.9991 23.7275C23.9992 23.7275 23.9993 23.7275 23.9994 23.7275C24.0973 23.7271 24.1859 23.767 24.2495 23.8306C24.3132 23.8942 24.3531 23.9829 24.3526 24.0809ZM23.0512 24.2669L23.9992 24.2653C24.1014 24.2652 24.1843 24.1822 24.1845 24.0801C24.1847 24.029 24.1641 23.9828 24.1306 23.9494C24.0972 23.916 24.0511 23.8953 24 23.8956L22.8668 23.8974C22.7647 23.8976 22.6817 23.9805 22.6816 24.0827L22.6797 25.2158C22.6795 25.318 22.7622 25.4007 22.8644 25.4005C22.9665 25.4003 23.0495 25.3174 23.0496 25.2152L23.0512 24.2669Z" fill="white"/>
<path fill-rule="evenodd" clip-rule="evenodd" d="M29.2973 12.414L29.8353 12.297C29.9314 12.2761 30 12.191 30 12.0926V10.9074C30 10.809 29.9314 10.7239 29.8353 10.703L29.2973 10.586C29.2505 10.4428 29.1926 10.3031 29.1241 10.1685L29.422 9.70519C29.4752 9.62241 29.4635 9.51373 29.394 9.4442L28.5558 8.60605C28.4863 8.53651 28.3776 8.52482 28.2948 8.57801L27.8315 8.87585C27.6969 8.80744 27.5572 8.7495 27.414 8.70271L27.297 8.1647C27.2761 8.06857 27.191 8 27.0926 8H25.9074C25.809 8 25.7239 8.06857 25.703 8.1647L25.586 8.70271C25.4428 8.7495 25.3031 8.80744 25.1685 8.87585L24.7052 8.57801C24.6224 8.52482 24.5137 8.53651 24.4442 8.60605L23.606 9.4442C23.5365 9.51373 23.5248 9.62241 23.578 9.70519L23.8759 10.1685C23.8074 10.3031 23.7495 10.4428 23.7027 10.586L23.1647 10.703C23.0686 10.7239 23 10.809 23 10.9074V12.0926C23 12.191 23.0686 12.2761 23.1647 12.297L23.7027 12.414C23.7495 12.5572 23.8074 12.6969 23.8759 12.8315L23.578 13.2948C23.5248 13.3776 23.5365 13.4863 23.606 13.5558L24.4442 14.394C24.5137 14.4635 24.6224 14.4752 24.7052 14.422L25.1685 14.1241C25.3031 14.1926 25.4428 14.2505 25.586 14.2973L25.703 14.8353C25.7239 14.9314 25.809 15 25.9074 15H27.0926C27.191 15 27.2761 14.9314 27.297 14.8353L27.414 14.2973C27.5572 14.2505 27.6969 14.1926 27.8315 14.1241L28.2948 14.422C28.3776 14.4752 28.4863 14.4635 28.5558 14.394L29.394 13.5558C29.4635 13.4863 29.4752 13.3776 29.422 13.2948L29.1241 12.8315C29.1926 12.6969 29.2505 12.5572 29.2973 12.414ZM28.718 13.3512L28.4072 12.8678L28.5691 12.5494C28.623 12.4433 28.6686 12.3333 28.7054 12.2207L28.8162 11.8814L29.3774 11.7594V11.2406L28.8162 11.1186L28.7054 10.7793C28.6686 10.6667 28.623 10.5567 28.5691 10.4506L28.4072 10.1322L28.718 9.64882L28.3512 9.28198L27.8678 9.59276L27.5494 9.4309C27.4433 9.37699 27.3333 9.33137 27.2207 9.29458L26.8814 9.18376L26.7594 8.62264H26.2406L26.1186 9.18376L25.7793 9.29458C25.6667 9.33137 25.5567 9.37699 25.4506 9.4309L25.1322 9.59276L24.6488 9.28198L24.282 9.64882L24.5928 10.1322L24.4309 10.4506C24.377 10.5567 24.3314 10.6667 24.2946 10.7793L24.1838 11.1186L23.6226 11.2406V11.7594L24.1838 11.8814L24.2946 12.2207C24.3314 12.3333 24.377 12.4433 24.4309 12.5494L24.5928 12.8678L24.282 13.3512L24.6488 13.718L25.1322 13.4072L25.4506 13.5691C25.5567 13.623 25.6667 13.6686 25.7793 13.7054L26.1186 13.8162L26.2406 14.3774H26.7594L26.8814 13.8162L27.2207 13.7054C27.3333 13.6686 27.4433 13.623 27.5494 13.5691L27.8678 13.4072L28.3512 13.718L28.718 13.3512ZM28.3776 11.5C28.3776 12.5359 27.5359 13.3776 26.5 13.3776C25.4641 13.3776 24.6224 12.5359 24.6224 11.5C24.6224 10.4641 25.4641 9.62238 26.5 9.62238C27.5359 9.62238 28.3776 10.4641 28.3776 11.5ZM26.5 12.755C27.192 12.755 27.755 12.192 27.755 11.5C27.755 10.808 27.192 10.245 26.5 10.245C25.808 10.245 25.245 10.808 25.245 11.5C25.245 12.192 25.808 12.755 26.5 12.755Z" fill="white"/>
</g>
</svg>

