<svg width="32" height="32" viewBox="0 0 32 32" fill="none" xmlns="http://www.w3.org/2000/svg">
<circle cx="16" cy="16" r="16" fill="#E8EEFB"/>
<path d="M18.0565 21.9553H14.3065C13.6485 21.9553 13.1133 21.42 13.1133 20.7621V14.9666C13.1133 14.3087 13.6485 13.7734 14.3065 13.7734H18.0565C18.7144 13.7734 19.2496 14.3087 19.2496 14.9666V20.7621C19.2496 21.42 18.7144 21.9553 18.0565 21.9553ZM14.3065 14.7962C14.2124 14.7962 14.136 14.8725 14.136 14.9666V20.7621C14.136 20.8562 14.2124 20.9325 14.3065 20.9325H18.0565C18.1506 20.9325 18.2269 20.8562 18.2269 20.7621V14.9666C18.2269 14.8725 18.1506 14.7962 18.0565 14.7962H14.3065Z" fill="#5C638B"/>
<path d="M11.5807 19.9093C11.4157 19.9093 11.2534 19.8295 11.1545 19.6815L10.1318 18.1474C10.0173 17.9756 10.0173 17.752 10.1318 17.5802L11.1545 16.0461C11.3107 15.8115 11.6277 15.7474 11.8636 15.9043C12.0989 16.0611 12.1623 16.3781 12.0054 16.6133L11.1716 17.8638L12.0054 19.1143C12.1616 19.3495 12.0989 19.6665 11.8636 19.8233C11.7764 19.8813 11.6782 19.9093 11.5807 19.9093Z" fill="#5C638B"/>
<path d="M20.7833 19.9093C20.6858 19.9093 20.5876 19.8813 20.5004 19.8233C20.2651 19.6665 20.2017 19.3495 20.3585 19.1143L21.1924 17.8638L20.3585 16.6133C20.2024 16.3781 20.2651 16.0611 20.5004 15.9043C20.7356 15.7474 21.0526 15.8115 21.2094 16.0461L22.2322 17.5802C22.3467 17.752 22.3467 17.9756 22.2322 18.1474L21.2094 19.6815C21.1106 19.8295 20.9483 19.9093 20.7833 19.9093Z" fill="#5C638B"/>
<path d="M22.4886 24H9.875C8.84068 24 8 23.1593 8 22.125V10.875C8 9.84068 8.84068 9 9.875 9H22.4886C23.523 9 24.3636 9.84068 24.3636 10.875V22.125C24.3636 23.1593 23.523 24 22.4886 24ZM9.875 10.0227C9.40523 10.0227 9.02273 10.4052 9.02273 10.875V22.125C9.02273 22.5948 9.40523 22.9773 9.875 22.9773H22.4886C22.9584 22.9773 23.3409 22.5948 23.3409 22.125V10.875C23.3409 10.4052 22.9584 10.0227 22.4886 10.0227H9.875Z" fill="#5C638B"/>
<path d="M23.8523 12.4094H8.51136C8.22909 12.4094 8 12.1804 8 11.8981C8 11.6158 8.22909 11.3867 8.51136 11.3867H23.8523C24.1345 11.3867 24.3636 11.6158 24.3636 11.8981C24.3636 12.1804 24.1345 12.4094 23.8523 12.4094Z" fill="#5C638B"/>
</svg>
