<svg width="31" height="31" viewBox="0 0 31 31" fill="none" xmlns="http://www.w3.org/2000/svg">
<rect x="0.0449219" y="0.530273" width="30" height="30" rx="6" fill="#EDF4FF"/>
<path d="M17.7723 10.9006C17.2397 10.8686 16.7149 11.0403 16.3043 11.3809C15.8937 11.7215 15.628 12.2056 15.5612 12.7349C15.4943 13.2643 15.6313 13.7992 15.9444 14.2312C16.2575 14.6632 16.7232 14.96 17.247 15.0613V15.8729C17.247 16.1516 17.1363 16.4188 16.9392 16.6159C16.7422 16.8129 16.475 16.9236 16.1963 16.9236H13.6905C13.321 16.9237 12.9582 17.0225 12.6398 17.2099V13.1359C13.135 13.0081 13.5666 12.704 13.8536 12.2807C14.1407 11.8574 14.2635 11.3439 14.1991 10.8366C14.1346 10.3292 13.8873 9.86273 13.5036 9.52463C13.1198 9.18653 12.6259 9 12.1145 9C11.603 9 11.1091 9.18653 10.7254 9.52463C10.3416 9.86273 10.0943 10.3292 10.0299 10.8366C9.96544 11.3439 10.0883 11.8574 10.3753 12.2807C10.6623 12.704 11.0939 13.0081 11.5891 13.1359V19.3401C11.0903 19.4681 10.6554 19.7736 10.3659 20.1995C10.0763 20.6253 9.95217 21.1422 10.0166 21.653C10.0811 22.1639 10.3298 22.6337 10.7161 22.9743C11.1023 23.3148 11.5995 23.5028 12.1145 23.5028C12.6294 23.5028 13.1267 23.3148 13.5129 22.9743C13.8991 22.6337 14.1478 22.1639 14.2123 21.653C14.2768 21.1422 14.1526 20.6253 13.8631 20.1995C13.5736 19.7736 13.1386 19.4681 12.6398 19.3401V19.0249C12.6398 18.7463 12.7505 18.479 12.9475 18.282C13.1446 18.0849 13.4118 17.9743 13.6905 17.9743H16.1963C16.7536 17.9743 17.2881 17.7529 17.6822 17.3588C18.0762 16.9647 18.2976 16.4302 18.2976 15.8729V15.0613C18.8215 14.96 19.2871 14.6632 19.6002 14.2312C19.9133 13.7992 20.0503 13.2643 19.9834 12.7349C19.9166 12.2056 19.6509 11.7215 19.2403 11.3809C18.8297 11.0403 18.3049 10.8686 17.7723 10.9006ZM11.0533 11.0924C11.0559 10.8852 11.1197 10.6833 11.2367 10.5123C11.3537 10.3413 11.5187 10.2086 11.7109 10.1311C11.9031 10.0536 12.1139 10.0347 12.3169 10.0767C12.5198 10.1187 12.7058 10.2198 12.8514 10.3672C12.997 10.5147 13.0958 10.7019 13.1353 10.9053C13.1748 11.1088 13.1532 11.3194 13.0733 11.5106C12.9934 11.7018 12.8588 11.8651 12.6863 11.98C12.5138 12.0949 12.3112 12.1562 12.104 12.1562C11.8241 12.1527 11.5569 12.0391 11.3602 11.84C11.1636 11.6409 11.0533 11.3723 11.0533 11.0924ZM12.104 22.4475C11.8967 22.4449 11.6949 22.3811 11.5239 22.264C11.3528 22.147 11.2202 21.9821 11.1427 21.7899C11.0652 21.5977 11.0462 21.3868 11.0882 21.1839C11.1303 20.981 11.2313 20.795 11.3788 20.6493C11.5262 20.5037 11.7135 20.405 11.9169 20.3655C12.1203 20.326 12.3309 20.3475 12.5221 20.4274C12.7134 20.5073 12.8767 20.642 12.9916 20.8145C13.1064 20.987 13.1677 21.1896 13.1678 21.3968C13.1643 21.6748 13.0522 21.9405 12.8553 22.1369C12.6585 22.3333 12.3925 22.4447 12.1145 22.4475H12.104ZM17.7723 14.0789C17.5614 14.0815 17.3544 14.0213 17.1778 13.906C17.0011 13.7908 16.8627 13.6255 16.7802 13.4314C16.6976 13.2373 16.6747 13.023 16.7142 12.8157C16.7538 12.6085 16.8541 12.4178 17.0023 12.2677C17.1505 12.1176 17.34 12.0149 17.5468 11.9728C17.7535 11.9307 17.968 11.951 18.1632 12.0311C18.3583 12.1112 18.5253 12.2475 18.6427 12.4228C18.7602 12.598 18.823 12.8042 18.823 13.0151C18.8223 13.2948 18.7118 13.563 18.5153 13.762C18.3188 13.961 18.0519 14.0748 17.7723 14.0789Z" fill="#5C638B"/>
</svg>
