<svg width="30" height="30" viewBox="0 0 30 30" fill="none" xmlns="http://www.w3.org/2000/svg">
<rect width="30" height="30" rx="6" fill="#EDF4FF"/>
<path d="M23.9256 10.2239L23.2202 10C23.1657 10.0002 23.1104 10.0387 23.0861 10.0977C23.0569 10.1693 23.0849 10.2443 23.1485 10.2651L23.349 10.3305C22.6103 10.465 21.9414 10.9113 21.4047 11.6314C21.1191 12.0147 20.9371 12.3847 20.8432 12.6016C20.3949 12.2219 19.9692 12.0322 19.5716 12.0338C19.394 12.0345 19.2219 12.0733 19.0557 12.1504C18.1861 12.5545 17.7612 13.886 17.6161 14.4523C17.1251 13.9855 16.6621 13.7518 16.2337 13.7534C16.0764 13.7539 15.9238 13.7864 15.7761 13.8505C14.949 14.2095 14.5476 15.4542 14.4122 15.9794C13.9238 15.5906 13.4642 15.3963 13.0391 15.3979C12.8514 15.3986 12.6703 15.4376 12.4964 15.5149C11.7788 15.8336 11.4011 16.7084 11.2536 17.1393C10.7944 16.6634 10.348 16.425 9.92044 16.4267C9.78669 16.4272 9.65484 16.4513 9.52487 16.4989C8.63024 16.8264 8.14682 18.1638 8.01737 18.5738L7.03816 18.7135L7.0361 18.7142C7.03352 18.7147 7.03094 18.7156 7.02854 18.7167L7.02476 18.7182L7.02321 18.7189C7.02132 18.7202 7.0196 18.7217 7.01805 18.7231L7.01547 18.725C7.01272 18.7278 7.01031 18.731 7.0086 18.7343L7.00756 18.7366C7.00619 18.7393 7.00516 18.7423 7.00447 18.7453L7.00395 18.7467V18.7495C7.00378 18.751 7.00344 18.754 7.00344 18.754L7 20.6203C7 20.6353 7.00808 20.6493 7.02115 20.6564L7.6347 20.9951L7.63831 20.9965L7.64158 20.9977C7.6457 20.9991 7.64983 21 7.65412 21C7.65602 21 7.65791 20.9998 7.6598 20.9997L9.12793 20.7904C9.14787 20.7876 9.16265 20.7703 9.16265 20.7499L9.16609 18.8836L9.16575 18.8796L9.1654 18.8768C9.16472 18.8731 9.16386 18.8694 9.16231 18.8661L9.16162 18.8649C9.16007 18.8619 9.15835 18.8593 9.15612 18.8569L9.15406 18.8546L9.15234 18.8527C9.1501 18.8508 9.1477 18.849 9.14512 18.8476L8.53139 18.5089C8.52383 18.5048 8.51506 18.5032 8.50646 18.5044L8.28762 18.5356C8.43942 18.0893 8.87195 17.0106 9.57473 16.7535C9.67564 16.7166 9.77896 16.6981 9.88468 16.6976C10.2184 16.6963 10.5756 16.8765 10.9523 17.2363L10.2438 17.3373L10.2416 17.338C10.239 17.3385 10.2366 17.3392 10.2342 17.3403L10.2302 17.342L10.2287 17.3427C10.2268 17.3439 10.2251 17.3455 10.2235 17.3469L10.2209 17.3488C10.2182 17.3516 10.2158 17.3547 10.2141 17.358L10.213 17.3603C10.2117 17.3631 10.2106 17.3661 10.2099 17.369L10.2094 17.3704V17.3732C10.2093 17.3748 10.2089 17.3777 10.2089 17.3777L10.2031 20.5929C10.2031 20.6079 10.2111 20.6219 10.2242 20.629L10.8379 20.9677L10.8415 20.9691L10.8448 20.9703C10.8489 20.9717 10.8531 20.9726 10.8574 20.9726C10.8593 20.9726 10.8611 20.9724 10.863 20.9723L12.331 20.763C12.3509 20.7602 12.3657 20.7429 12.3657 20.7225L12.3709 17.507L12.3705 17.503L12.3702 17.5002C12.3695 17.4965 12.3686 17.4929 12.3671 17.4895L12.3664 17.4883C12.3649 17.4854 12.3631 17.4827 12.3609 17.4803L12.3588 17.478L12.3571 17.4761C12.3549 17.4742 12.3525 17.4725 12.3499 17.4711L11.7362 17.1324C11.7286 17.1282 11.7198 17.1266 11.7112 17.1278L11.5063 17.1571C11.6482 16.7603 11.9815 16.0205 12.5634 15.7626C12.7032 15.7007 12.85 15.6694 13.0039 15.6687C13.3487 15.6673 13.7281 15.8206 14.1383 16.1262L13.4484 16.2246L13.4464 16.2253C13.4438 16.2258 13.4414 16.2265 13.439 16.2275L13.4352 16.2293L13.4336 16.23C13.4317 16.2312 13.43 16.2328 13.4285 16.2342L13.4259 16.2361C13.4231 16.2389 13.4207 16.242 13.419 16.2453L13.418 16.2476C13.4166 16.2504 13.4156 16.2533 13.4149 16.2563L13.4144 16.2577V16.2605C13.4142 16.2621 13.4139 16.265 13.4139 16.265L13.4058 20.5703C13.4058 20.5853 13.4139 20.5992 13.4269 20.6064L14.0407 20.9451L14.0443 20.9465L14.0475 20.9477C14.0517 20.9491 14.0558 20.9499 14.0601 20.9499C14.062 20.9499 14.0639 20.9498 14.0658 20.9496L15.5337 20.7403C15.5537 20.7375 15.5684 20.7203 15.5684 20.6998L15.5763 16.3944L15.576 16.3904L15.5757 16.3876C15.575 16.384 15.5741 16.3803 15.5726 16.377L15.5717 16.3756C15.5702 16.3728 15.5684 16.37 15.5664 16.3676L15.5643 16.3653L15.5626 16.3634C15.5604 16.3615 15.558 16.3597 15.5554 16.3583L14.9418 16.0196C14.9343 16.0155 14.9255 16.0139 14.9169 16.0151L14.6477 16.0535C14.7623 15.6004 15.1261 14.409 15.8413 14.0989C15.9558 14.0494 16.0754 14.0243 16.1999 14.0237C16.554 14.0223 16.9475 14.2196 17.3757 14.6131L16.6544 14.716L16.6522 14.7167C16.6496 14.7172 16.6472 14.7179 16.6448 14.7189L16.641 14.7207L16.6393 14.7214C16.6374 14.7226 16.6357 14.7242 16.6339 14.7255L16.6315 14.7275C16.6288 14.7303 16.6264 14.7334 16.6247 14.7367L16.6238 14.739C16.6224 14.7418 16.6214 14.7447 16.6207 14.7479L16.6202 14.7493V14.7519C16.62 14.7535 16.6197 14.7564 16.6197 14.7564L16.6085 20.5401C16.6085 20.5551 16.6166 20.569 16.6296 20.5762L17.2432 20.9149L17.2468 20.9163L17.2501 20.9175C17.2542 20.9189 17.2583 20.9198 17.2626 20.9198C17.2645 20.9198 17.2664 20.9196 17.2683 20.9194L18.7364 20.7101C18.7564 20.7073 18.7712 20.6901 18.7712 20.6697L18.7818 14.8862L18.7815 14.8822L18.7811 14.8794C18.7804 14.8757 18.7796 14.872 18.778 14.8687L18.7773 14.8675C18.7758 14.8645 18.7741 14.8619 18.7718 14.8595L18.7698 14.8572L18.7681 14.8553C18.7658 14.8534 18.7634 14.8516 18.7608 14.8502L18.1471 14.5115C18.1396 14.5074 18.1308 14.5056 18.1222 14.507L17.8468 14.5463C17.9659 14.0659 18.3556 12.7544 19.1268 12.3963C19.2572 12.3358 19.3937 12.3055 19.5362 12.305C19.8243 12.3039 20.1367 12.4255 20.4705 12.6682L19.8599 12.7553L19.8578 12.756C19.8552 12.7565 19.8528 12.7572 19.8504 12.7582L19.8466 12.76L19.8449 12.7607C19.843 12.7619 19.8413 12.7635 19.8396 12.7649L19.8372 12.7668C19.8344 12.7696 19.832 12.7727 19.8303 12.776L19.8294 12.7783C19.8281 12.7811 19.827 12.7841 19.8264 12.7872L19.8258 12.7886V12.7912C19.8257 12.7928 19.8253 12.7957 19.8253 12.7957L19.8112 20.5008C19.8112 20.5158 19.8193 20.5298 19.8324 20.5369L20.4461 20.8756L20.4497 20.877L20.453 20.8783C20.4571 20.8797 20.4612 20.8805 20.4655 20.8805C20.4674 20.8805 20.4693 20.8804 20.4712 20.8802L21.9393 20.6709C21.9593 20.6681 21.974 20.6508 21.974 20.6304L21.9881 12.9253L21.9878 12.9213L21.9875 12.9185C21.9868 12.9149 21.9859 12.9112 21.9844 12.9079L21.9837 12.9067C21.9821 12.9037 21.9804 12.9011 21.9782 12.8986L21.9761 12.8964L21.9744 12.8945C21.9722 12.8925 21.9698 12.8908 21.9672 12.8894L21.3534 12.5507C21.3459 12.5465 21.3371 12.5449 21.3285 12.5462L21.1212 12.5756C21.2178 12.369 21.3754 12.0728 21.6003 11.7725C22.0951 11.1118 22.6851 10.7172 23.3564 10.5972L23.1704 10.7405C23.1097 10.7873 23.0891 10.8722 23.1243 10.9305C23.1446 10.9639 23.179 10.9814 23.2158 10.9812C23.2431 10.981 23.2723 10.9713 23.2981 10.9514L23.9368 10.4601C23.9777 10.4285 24.0021 10.3776 23.9999 10.3279C23.9971 10.278 23.9687 10.2379 23.9256 10.2239ZM7.61355 20.8901L7.08063 20.5961L7.08389 18.8231L7.61682 19.1171L7.61355 20.8901ZM8.50406 18.5873L8.99848 18.8602L7.66461 19.0503L7.17019 18.7774L7.99073 18.6603C7.98609 18.6764 7.98299 18.6872 7.98179 18.6917C7.96168 18.7655 7.99984 18.834 8.08545 18.8461C8.14682 18.8459 8.20717 18.7972 8.22556 18.7299C8.22625 18.7275 8.23725 18.6881 8.2584 18.6223L8.50406 18.5873ZM10.8164 20.8626L10.2835 20.5685L10.2892 17.4466L10.8221 17.7407L10.8164 20.8626ZM11.7094 17.2107L12.2038 17.4836L10.8701 17.6737L10.3757 17.4008L11.0253 17.3082C11.0841 17.3676 11.1434 17.4315 11.2032 17.4995L11.4245 17.4154C11.4252 17.4126 11.442 17.3474 11.4762 17.2438L11.7094 17.2107ZM14.0197 20.8401L13.4868 20.546L13.4945 16.3337L13.7058 16.4503L14.0274 16.6278L14.0197 20.8401ZM14.9145 16.0981L15.4089 16.3711L14.0752 16.5612L13.6757 16.3407L13.5806 16.2882L14.2291 16.1958C14.2832 16.2385 14.3377 16.2835 14.3929 16.3315L14.6062 16.2296C14.6068 16.2274 14.6133 16.1946 14.6264 16.1391L14.9145 16.0981ZM17.2265 18.4863L17.2222 20.8099L16.6893 20.5158L16.6998 14.8257L17.2327 15.1197L17.2265 18.4863ZM18.12 14.5899L18.6145 14.8628L17.2807 15.0529L16.7863 14.78L17.4517 14.6851C17.4961 14.7278 17.5408 14.7726 17.586 14.8196L17.8062 14.7238C17.8067 14.7214 17.8133 14.6882 17.8263 14.6317L18.12 14.5899ZM20.4305 17.6085L20.4246 20.7705L19.8917 20.4764L19.9056 12.8645L20.4385 13.1585L20.4305 17.6085ZM21.3259 12.6287L21.8204 12.9016L20.4865 13.0917L19.9921 12.8188L20.5621 12.7375C20.6379 12.797 20.7148 12.8622 20.7927 12.9339L21.0024 12.8554C21.0031 12.8535 21.0285 12.7811 21.0803 12.6635L21.3259 12.6287Z" fill="#5C638B"/>
</svg>
