<svg width="60" height="60" viewBox="0 0 60 60" fill="none" xmlns="http://www.w3.org/2000/svg">
<rect width="60" height="60" rx="18" fill="#D7DCE3"/>
<path d="M34.1307 42.1697C32.8991 42.9467 31.6713 43.7238 30.4397 44.5008C30.2649 44.6096 30.09 44.7223 29.9152 44.8311C30.3076 44.8311 30.7 44.8311 31.0924 44.8311C29.8297 44.0346 28.567 43.2342 27.3043 42.4377C27.145 42.3367 26.9857 42.2396 26.8303 42.1386C26.5156 41.9365 26.2048 41.7267 25.9017 41.5092C25.758 41.4081 25.6181 41.2994 25.4782 41.1945C25.2956 41.0585 25.7075 41.3732 25.5287 41.2333C25.4977 41.21 25.4666 41.1867 25.4355 41.1595C25.35 41.0934 25.2684 41.0274 25.1868 40.9575C24.6079 40.4873 24.0601 39.9823 23.5395 39.4461C23.2792 39.178 23.0228 38.8983 22.778 38.6146C22.6575 38.4748 22.541 38.3388 22.4244 38.195C22.37 38.129 22.3156 38.0591 22.2612 37.993C22.2302 37.9542 22.203 37.9192 22.1719 37.8803C22.0476 37.721 22.3428 38.1057 22.2146 37.9347C21.2083 36.606 20.3652 35.1645 19.7164 33.626C19.7553 33.7192 19.7941 33.8125 19.833 33.9057C19.1686 32.3205 18.714 30.6576 18.4809 28.9598C18.4964 29.0647 18.5081 29.1657 18.5236 29.2706C18.3255 27.7826 18.3449 26.2945 18.3449 24.7987C18.3449 23.0853 18.3449 21.3719 18.3449 19.6546C18.3449 19.2233 18.3449 18.7921 18.3449 18.3608C17.9564 18.7493 17.5679 19.1379 17.1793 19.5264C21.4492 19.1806 25.6064 18.0072 29.4218 16.0607C29.9851 15.7732 30.5368 15.4624 31.0924 15.1594C30.7 15.1594 30.3076 15.1594 29.9152 15.1594C31.3372 15.9403 32.7709 16.6707 34.2745 17.2807C36.186 18.0616 38.1753 18.6483 40.2034 19.0368C41.4 19.2661 42.6161 19.4293 43.8322 19.5303C43.4437 19.1417 43.0551 18.7532 42.6666 18.3647C42.6666 19.5186 42.6666 20.6725 42.6666 21.8226C42.6666 23.3339 42.6666 24.8453 42.6666 26.3605C42.6666 27.3357 42.62 28.3032 42.4879 29.2706C42.5034 29.1657 42.5151 29.0647 42.5306 28.9598C42.2975 30.6615 41.8429 32.3244 41.1786 33.9057C41.2174 33.8125 41.2563 33.7192 41.2951 33.626C40.7007 35.0363 39.943 36.3767 39.0378 37.6123C38.9873 37.6822 38.9368 37.7521 38.8824 37.8182C38.8552 37.857 38.8241 37.8959 38.7969 37.9308C38.6881 38.0746 38.8707 37.8376 38.8746 37.8298C38.758 37.993 38.6221 38.1484 38.4938 38.2999C38.253 38.5875 38.0082 38.8711 37.7518 39.143C37.2234 39.7103 36.6639 40.2426 36.0733 40.7438C35.9101 40.8836 35.7431 41.0157 35.576 41.1517C35.5372 41.1828 35.4983 41.21 35.4595 41.2411C35.3895 41.2955 35.4284 41.2644 35.5799 41.1478C35.5488 41.1711 35.5177 41.1945 35.4867 41.2178C35.4089 41.276 35.3312 41.3343 35.2497 41.3926C34.8844 41.6723 34.5115 41.9288 34.1307 42.1697C33.6178 42.496 33.3614 43.2226 33.7111 43.7626C34.0413 44.2794 34.7562 44.5319 35.304 44.1822C37.5808 42.7408 39.5351 40.8836 41.1164 38.7001C42.6083 36.6371 43.7117 34.267 44.3412 31.7999C44.8113 29.9622 44.9939 28.0817 44.9939 26.1896C44.9939 24.7715 44.9939 23.3534 44.9939 21.9391C44.9939 20.7697 45.0055 19.5963 44.9939 18.423C44.9939 18.4035 44.9939 18.3841 44.9939 18.3647C44.9939 17.6964 44.4577 17.2496 43.8283 17.1991C43.296 17.1564 42.7637 17.0981 42.2315 17.0282C42.3364 17.0437 42.4374 17.0554 42.5423 17.0709C39.7799 16.6979 37.0757 15.9597 34.5076 14.8757C34.6008 14.9146 34.6941 14.9534 34.7873 14.9923C33.6412 14.5066 32.5377 13.9433 31.446 13.3411C31.3294 13.275 31.2129 13.2051 31.0924 13.1468C30.6884 12.9448 30.2843 12.9525 29.888 13.1623C29.8258 13.1934 29.7676 13.2284 29.7054 13.2633C29.3208 13.4732 28.94 13.6868 28.5554 13.8889C27.7938 14.2891 27.0129 14.6543 26.2242 14.9923C26.3174 14.9534 26.4107 14.9146 26.5039 14.8757C23.9358 15.9597 21.2316 16.6979 18.4692 17.0709C18.5741 17.0554 18.6752 17.0437 18.7801 17.0282C18.2478 17.0981 17.7155 17.1564 17.1832 17.1991C16.5538 17.2496 16.0176 17.6925 16.0176 18.3647C16.0176 19.8411 16.0176 21.3136 16.0176 22.79C16.0176 24.3635 15.9671 25.9487 16.0371 27.5184C16.1925 30.9063 17.1677 34.2398 18.8888 37.1616C20.5673 40.0056 22.9256 42.4183 25.7152 44.1822C27.0712 45.0409 28.431 45.8995 29.787 46.7543C29.8297 46.7815 29.8763 46.8087 29.9191 46.8397C30.2571 47.0534 30.7544 47.0534 31.0963 46.8397C32.3279 46.0627 33.5557 45.2856 34.7873 44.5086C34.9621 44.3998 35.137 44.2871 35.3118 44.1783C35.8286 43.852 36.0811 43.1254 35.7314 42.5854C35.3934 42.0725 34.6824 41.82 34.1307 42.1697Z" fill="#5C638B"/>
<path d="M23.3489 29.4494C24.5999 30.7004 25.8549 31.9553 27.1059 33.2064C27.2847 33.3851 27.4634 33.5638 27.6421 33.7426C28.0889 34.1894 28.8426 34.1894 29.2895 33.7426C30.2375 32.7946 31.1855 31.8466 32.1335 30.8986C33.6332 29.3988 35.129 27.903 36.6287 26.4033C36.9706 26.0614 37.3125 25.7195 37.6544 25.3776C38.0857 24.9463 38.1168 24.1538 37.6544 23.7303C37.1882 23.3029 36.4655 23.2679 36.0071 23.7303C35.0591 24.6783 34.1111 25.6263 33.1631 26.5743C31.6633 28.074 30.1675 29.5698 28.6678 31.0695C28.3259 31.4114 27.984 31.7533 27.6421 32.0952C28.1899 32.0952 28.7416 32.0952 29.2895 32.0952C28.0384 30.8442 26.7835 29.5892 25.5324 28.3382C25.3537 28.1595 25.175 27.9807 24.9962 27.802C24.565 27.3707 23.7724 27.3397 23.3489 27.802C22.9215 28.2644 22.8904 28.987 23.3489 29.4494Z" fill="#5C638B"/>
</svg>
