<svg width="30" height="30" viewBox="0 0 30 30" fill="none" xmlns="http://www.w3.org/2000/svg">
<rect width="30" height="30" rx="6" fill="#EDF4FF"/>
<path d="M22.1786 7H20.9643C20.4812 7 20.0179 7.1919 19.6763 7.53348C19.3348 7.87507 19.1429 8.33836 19.1429 8.82143V22.1786C19.1429 22.6616 19.3348 23.1249 19.6763 23.4665C20.0179 23.8081 20.4812 24 20.9643 24H22.1786C22.6616 24 23.1249 23.8081 23.4665 23.4665C23.8081 23.1249 24 22.6616 24 22.1786V8.82143C24 8.33836 23.8081 7.87507 23.4665 7.53348C23.1249 7.1919 22.6616 7 22.1786 7ZM22.7857 22.1786C22.7857 22.3396 22.7217 22.494 22.6079 22.6079C22.494 22.7217 22.3396 22.7857 22.1786 22.7857H20.9643C20.8033 22.7857 20.6488 22.7217 20.535 22.6079C20.4211 22.494 20.3571 22.3396 20.3571 22.1786V8.82143C20.3571 8.6604 20.4211 8.50598 20.535 8.39211C20.6488 8.27825 20.8033 8.21429 20.9643 8.21429H22.1786C22.3396 8.21429 22.494 8.27825 22.6079 8.39211C22.7217 8.50598 22.7857 8.6604 22.7857 8.82143V22.1786ZM16.1071 11.8571H14.8929C14.4098 11.8571 13.9465 12.049 13.6049 12.3906C13.2633 12.7322 13.0714 13.1955 13.0714 13.6786V22.1786C13.0714 22.6616 13.2633 23.1249 13.6049 23.4665C13.9465 23.8081 14.4098 24 14.8929 24H16.1071C16.5902 24 17.0535 23.8081 17.3951 23.4665C17.7367 23.1249 17.9286 22.6616 17.9286 22.1786V13.6786C17.9286 13.1955 17.7367 12.7322 17.3951 12.3906C17.0535 12.049 16.5902 11.8571 16.1071 11.8571ZM16.7143 22.1786C16.7143 22.3396 16.6503 22.494 16.5365 22.6079C16.4226 22.7217 16.2682 22.7857 16.1071 22.7857H14.8929C14.7318 22.7857 14.5774 22.7217 14.4635 22.6079C14.3497 22.494 14.2857 22.3396 14.2857 22.1786V13.6786C14.2857 13.5175 14.3497 13.3631 14.4635 13.2493C14.5774 13.1354 14.7318 13.0714 14.8929 13.0714H16.1071C16.2682 13.0714 16.4226 13.1354 16.5365 13.2493C16.6503 13.3631 16.7143 13.5175 16.7143 13.6786V22.1786ZM10.0357 15.5H8.82143C8.33836 15.5 7.87507 15.6919 7.53348 16.0335C7.1919 16.3751 7 16.8384 7 17.3214V22.1786C7 22.6616 7.1919 23.1249 7.53348 23.4665C7.87507 23.8081 8.33836 24 8.82143 24H10.0357C10.5188 24 10.9821 23.8081 11.3237 23.4665C11.6652 23.1249 11.8571 22.6616 11.8571 22.1786V17.3214C11.8571 16.8384 11.6652 16.3751 11.3237 16.0335C10.9821 15.6919 10.5188 15.5 10.0357 15.5ZM10.6429 22.1786C10.6429 22.3396 10.5789 22.494 10.465 22.6079C10.3512 22.7217 10.1967 22.7857 10.0357 22.7857H8.82143C8.6604 22.7857 8.50598 22.7217 8.39211 22.6079C8.27825 22.494 8.21429 22.3396 8.21429 22.1786V17.3214C8.21429 17.1604 8.27825 17.006 8.39211 16.8921C8.50598 16.7783 8.6604 16.7143 8.82143 16.7143H10.0357C10.1967 16.7143 10.3512 16.7783 10.465 16.8921C10.5789 17.006 10.6429 17.1604 10.6429 17.3214V22.1786Z" fill="#5C638B"/>
</svg>
