<svg width="38" height="38" viewBox="0 0 38 38" fill="none" xmlns="http://www.w3.org/2000/svg">
<rect width="38" height="38" rx="10" fill="transparent"/>
<g clip-path="url(#clip0_30_868)">
<mask id="mask0_30_868" style="mask-type:luminance" maskUnits="userSpaceOnUse" x="8" y="8" width="22" height="22">
<path d="M30 8H8V30H30V8Z" fill="white"/>
</mask>
<g mask="url(#mask0_30_868)">
<path d="M19 14.4167C16.7267 14.4167 14.875 16.2638 14.875 18.5417C14.875 20.2466 15.9163 21.7142 17.3958 22.3416V23.3909L16.0621 24.7293L17.6663 26.3334L16.9375 27.0576V28.1805L18.7891 30L20.6041 28.1805V22.3416C22.0837 21.7142 23.125 20.2466 23.125 18.5418C23.125 16.2638 21.2733 14.4167 19 14.4167ZM19 18.0821C18.4937 18.0821 18.0833 17.6716 18.0833 17.1654C18.0833 16.6591 18.4937 16.2488 19 16.2488C19.5063 16.2488 19.9166 16.6591 19.9166 17.1654C19.9166 17.6716 19.5063 18.0821 19 18.0821Z" fill="white"/>
<path d="M26.8788 15.0721C27.0759 14.4395 27.1538 13.7842 27.1171 13.1104C26.9521 10.3145 24.5825 8.02286 21.8325 8H21.7913C19.5684 8 17.5884 9.42544 16.8092 11.4971C15.9933 10.8188 14.9438 10.4933 13.8758 10.5988C12.3496 10.75 11.025 11.8179 10.4933 13.3213C10.255 13.9904 10.1954 14.6779 10.3191 15.37C8.91665 16.0621 8 17.5241 8 19.1283C8 21.443 9.73709 23.125 12.125 23.125H16.3665L16.4791 23.012V22.9069C14.9301 22.0126 13.9583 20.3592 13.9583 18.5415C13.9583 15.7615 16.22 13.4998 19 13.4998C21.78 13.4998 24.0417 15.7615 24.0417 18.5415C24.0417 20.3593 23.07 22.0126 21.5209 22.9069V23.1251H25.875C28.2629 23.1251 30 21.443 30 19.1284C30 17.1667 28.6938 15.5167 26.8788 15.0721Z" fill="white"/>
</g>
</g>
<defs>
<clipPath id="clip0_30_868">
<rect width="22" height="22" fill="white" transform="translate(8 8)"/>
</clipPath>
</defs>
</svg>