<svg width="30" height="30" viewBox="0 0 30 30" fill="none" xmlns="http://www.w3.org/2000/svg">
<rect width="30" height="30" rx="6" fill="#EDF4FF"/>
<path d="M14.3054 15.104H15.0499C15.171 15.104 15.2694 15.2023 15.2694 15.3235C15.2694 15.4447 15.171 15.543 15.0499 15.543H14.3054C14.1841 15.543 14.0859 15.4447 14.0859 15.3235C14.0859 15.2023 14.1841 15.104 14.3054 15.104Z" fill="#5C638B"/>
<path d="M11.4344 13.6814H17.615C17.7362 13.6814 17.8345 13.5833 17.8345 13.4619C17.8345 13.3408 17.7362 13.2424 17.615 13.2424H11.4344C11.3132 13.2424 11.2148 13.3408 11.2148 13.4619C11.2148 13.5833 11.3132 13.6814 11.4344 13.6814Z" fill="#5C638B"/>
<path d="M13.3609 15.543H11.4344C11.3132 15.543 11.2148 15.4447 11.2148 15.3235C11.2148 15.2023 11.3132 15.104 11.4344 15.104H13.3609C13.4821 15.104 13.5804 15.2023 13.5804 15.3235C13.5804 15.4447 13.4821 15.543 13.3609 15.543Z" fill="#5C638B"/>
<path fill-rule="evenodd" clip-rule="evenodd" d="M10.7698 21.4137H10.7614C9.82131 21.4127 9.05832 20.6533 9.05275 19.7132L9.00002 8.74176C8.99573 7.79828 9.75686 7.02972 10.7005 7.02515L15.9269 7L15.9331 7.00019C15.9385 7.00034 15.9436 7.00048 15.9489 7.001L16.0275 7.00829C16.0778 7.013 16.125 7.03501 16.161 7.07045L19.9415 10.8068C19.9829 10.8478 20.0064 10.9037 20.0066 10.962L20.0342 17.6278L21.3581 16.304C21.4439 16.2183 21.5828 16.2183 21.6685 16.304L23.4031 18.0386C23.4889 18.1244 23.4889 18.2633 23.4031 18.349L18.5461 23.2062C18.5431 23.2092 18.5398 23.2119 18.5367 23.2146C18.535 23.2162 18.5334 23.2178 18.5317 23.2192C18.5253 23.2246 18.5185 23.2296 18.5115 23.2342L18.5073 23.2368C18.5015 23.2403 18.4957 23.2438 18.4895 23.2468C18.4871 23.2481 18.4847 23.2491 18.4822 23.2502C18.4765 23.2529 18.4707 23.2552 18.4647 23.2574L18.4602 23.2592L15.8583 24.1265C15.7794 24.1528 15.6924 24.1322 15.6337 24.0735C15.5748 24.0146 15.5543 23.9277 15.5806 23.8488L16.4018 21.3855L10.7698 21.4137ZM20.5593 17.7238L16.9667 21.3164L18.3909 22.7406L21.9835 19.148L20.5593 17.7238ZM16.7521 21.7228L16.136 23.5713L17.9845 22.955L16.7521 21.7228ZM22.9375 18.194L21.5133 16.7698L20.8697 17.4134L22.2939 18.8376L22.9375 18.194ZM17.5052 10.7626L19.2634 10.754L16.2209 7.74684L16.2293 9.49889C16.2327 10.2001 16.8039 10.7659 17.5052 10.7626ZM10.7026 7.46374C10.3658 7.46445 10.0431 7.59993 9.80659 7.84001C9.56893 8.07881 9.43646 8.40264 9.43903 8.73962L9.49176 19.7111C9.49505 20.4123 10.0663 20.9783 10.7675 20.975L16.717 20.9454L19.5971 18.0654L19.5686 11.1918L17.5072 11.2016H17.4988C16.5584 11.2015 15.7949 10.4415 15.7903 9.50103L15.7804 7.43958L10.7026 7.46374Z" fill="#5C638B"/>
<path d="M14.3054 15.104H15.0499C15.171 15.104 15.2694 15.2023 15.2694 15.3235C15.2694 15.4447 15.171 15.543 15.0499 15.543H14.3054C14.1841 15.543 14.0859 15.4447 14.0859 15.3235C14.0859 15.2023 14.1841 15.104 14.3054 15.104Z" stroke="#5C638B" stroke-width="0.3"/>
<path d="M11.4344 13.6814H17.615C17.7362 13.6814 17.8345 13.5833 17.8345 13.4619C17.8345 13.3408 17.7362 13.2424 17.615 13.2424H11.4344C11.3132 13.2424 11.2148 13.3408 11.2148 13.4619C11.2148 13.5833 11.3132 13.6814 11.4344 13.6814Z" stroke="#5C638B" stroke-width="0.3"/>
<path d="M13.3609 15.543H11.4344C11.3132 15.543 11.2148 15.4447 11.2148 15.3235C11.2148 15.2023 11.3132 15.104 11.4344 15.104H13.3609C13.4821 15.104 13.5804 15.2023 13.5804 15.3235C13.5804 15.4447 13.4821 15.543 13.3609 15.543Z" stroke="#5C638B" stroke-width="0.3"/>
<path fill-rule="evenodd" clip-rule="evenodd" d="M10.7698 21.4137H10.7614C9.82131 21.4127 9.05832 20.6533 9.05275 19.7132L9.00002 8.74176C8.99573 7.79828 9.75686 7.02972 10.7005 7.02515L15.9269 7L15.9331 7.00019C15.9385 7.00034 15.9436 7.00048 15.9489 7.001L16.0275 7.00829C16.0778 7.013 16.125 7.03501 16.161 7.07045L19.9415 10.8068C19.9829 10.8478 20.0064 10.9037 20.0066 10.962L20.0342 17.6278L21.3581 16.304C21.4439 16.2183 21.5828 16.2183 21.6685 16.304L23.4031 18.0386C23.4889 18.1244 23.4889 18.2633 23.4031 18.349L18.5461 23.2062C18.5431 23.2092 18.5398 23.2119 18.5367 23.2146C18.535 23.2162 18.5334 23.2178 18.5317 23.2192C18.5253 23.2246 18.5185 23.2296 18.5115 23.2342L18.5073 23.2368C18.5015 23.2403 18.4957 23.2438 18.4895 23.2468C18.4871 23.2481 18.4847 23.2491 18.4822 23.2502C18.4765 23.2529 18.4707 23.2552 18.4647 23.2574L18.4602 23.2592L15.8583 24.1265C15.7794 24.1528 15.6924 24.1322 15.6337 24.0735C15.5748 24.0146 15.5543 23.9277 15.5806 23.8488L16.4018 21.3855L10.7698 21.4137ZM20.5593 17.7238L16.9667 21.3164L18.3909 22.7406L21.9835 19.148L20.5593 17.7238ZM16.7521 21.7228L16.136 23.5713L17.9845 22.955L16.7521 21.7228ZM22.9375 18.194L21.5133 16.7698L20.8697 17.4134L22.2939 18.8376L22.9375 18.194ZM17.5052 10.7626L19.2634 10.754L16.2209 7.74684L16.2293 9.49889C16.2327 10.2001 16.8039 10.7659 17.5052 10.7626ZM10.7026 7.46374C10.3658 7.46445 10.0431 7.59993 9.80659 7.84001C9.56893 8.07881 9.43646 8.40264 9.43903 8.73962L9.49176 19.7111C9.49505 20.4123 10.0663 20.9783 10.7675 20.975L16.717 20.9454L19.5971 18.0654L19.5686 11.1918L17.5072 11.2016H17.4988C16.5584 11.2015 15.7949 10.4415 15.7903 9.50103L15.7804 7.43958L10.7026 7.46374Z" stroke="#5C638B" stroke-width="0.3"/>
</svg>
