<svg width="30" height="30" viewBox="0 0 30 30" fill="none" xmlns="http://www.w3.org/2000/svg">
<rect width="30" height="30" rx="6" fill="#EDF4FF"/>
<path d="M21.6428 11.8024C21.7563 11.3992 21.8136 10.9879 21.8136 10.5752C21.8136 8.05261 19.7612 6 17.2384 6C15.6264 6 14.1491 6.84228 13.3225 8.21467C13.1678 8.19498 13.017 8.18479 12.8718 8.18479C10.9654 8.18479 9.40567 9.6985 9.32921 11.5887C7.47135 11.7205 6 13.274 6 15.1649C6 16.9998 7.3863 18.5149 9.16601 18.7235C9.12176 18.7833 9.09052 18.8535 9.09052 18.9337C9.09052 19.1326 9.2517 19.2936 9.45049 19.2936H10.5645V20.2597H9.45049C9.2517 20.2597 9.09052 20.4207 9.09052 20.6196C9.09052 20.8186 9.2517 20.9796 9.45049 20.9796H10.5645V22.166C10.5645 22.365 10.7257 22.526 10.9245 22.526H12.1113V23.64C12.1113 23.839 12.2724 24 12.4712 24C12.67 24 12.8312 23.839 12.8312 23.64V22.526H13.7972V23.64C13.7972 23.839 13.9584 24 14.1572 24C14.356 24 14.5172 23.839 14.5172 23.64V22.526H15.483V23.64C15.483 23.839 15.6442 24 15.843 24C16.0418 24 16.203 23.839 16.203 23.64V22.526H17.169V23.64C17.169 23.839 17.3301 24 17.5289 24C17.7277 24 17.8889 23.839 17.8889 23.64V22.483C17.9224 22.4661 17.9554 22.4476 17.9824 22.4206L19.3286 21.0745C19.3561 21.0471 19.375 21.0136 19.3921 20.9796H20.5497C20.7485 20.9796 20.9097 20.8186 20.9097 20.6196C20.9097 20.4207 20.7485 20.2597 20.5497 20.2597H19.4341V19.2936H20.5497C20.7485 19.2936 20.9097 19.1326 20.9097 18.9337C20.9097 18.8534 20.8784 18.783 20.834 18.7233C22.613 18.514 23.9986 16.9994 23.9986 15.1649C23.9986 13.6431 23.0473 12.3108 21.6428 11.8024ZM18.7141 20.671L17.5789 21.8061H17.5324C17.5312 21.8061 17.5302 21.8054 17.5289 21.8054C17.5277 21.8054 17.5267 21.8061 17.5254 21.8061H15.8465C15.8452 21.8061 15.8442 21.8054 15.843 21.8054C15.8418 21.8054 15.8407 21.8061 15.8395 21.8061H14.1607C14.1595 21.8061 14.1584 21.8054 14.1572 21.8054C14.156 21.8054 14.1549 21.8061 14.1537 21.8061H12.4747C12.4735 21.8061 12.4725 21.8054 12.4712 21.8054C12.47 21.8054 12.469 21.8061 12.4677 21.8061H11.2845V20.6249C11.2845 20.623 11.2855 20.6215 11.2855 20.6196C11.2855 20.6178 11.2845 20.6163 11.2845 20.6144V18.939C11.2845 18.937 11.2855 18.9355 11.2855 18.9337C11.2855 18.9318 11.2845 18.9303 11.2845 18.9284V17.253C11.2845 17.2511 11.2855 17.2496 11.2855 17.2477C11.2855 17.2459 11.2845 17.2444 11.2845 17.2424V15.567C11.2845 15.5651 11.2855 15.5636 11.2855 15.5618C11.2855 15.5599 11.2845 15.5584 11.2845 15.5565V15.5118L12.4197 14.3764H18.7141V20.671ZM20.4133 18.0302H19.4341V17.6077H20.5497C20.7485 17.6077 20.9097 17.4467 20.9097 17.2477C20.9097 17.0487 20.7485 16.8877 20.5497 16.8877H19.4341V15.9217H20.5497C20.7485 15.9217 20.9097 15.7607 20.9097 15.5618C20.9097 15.3628 20.7485 15.2018 20.5497 15.2018H19.4341V14.0164C19.4341 13.8174 19.2729 13.6564 19.0741 13.6564H17.8889V12.541C17.8889 12.342 17.7277 12.181 17.5289 12.181C17.3301 12.181 17.169 12.342 17.169 12.541V13.6564H16.203V12.541C16.203 12.342 16.0418 12.181 15.843 12.181C15.6442 12.181 15.483 12.342 15.483 12.541V13.6564H14.5172V12.541C14.5172 12.342 14.356 12.181 14.1572 12.181C13.9584 12.181 13.7972 12.342 13.7972 12.541V13.6564H12.8312V12.541C12.8312 12.342 12.67 12.181 12.4712 12.181C12.2724 12.181 12.1113 12.342 12.1113 12.541V13.6984C12.0772 13.7155 12.0437 13.7344 12.0162 13.7619L10.67 15.1083C10.6429 15.1353 10.6244 15.1683 10.6074 15.2018H9.45049C9.2517 15.2018 9.09052 15.3628 9.09052 15.5618C9.09052 15.7607 9.2517 15.9217 9.45049 15.9217H10.5645V16.8877H9.45049C9.2517 16.8877 9.09052 17.0487 9.09052 17.2477C9.09052 17.4467 9.2517 17.6077 9.45049 17.6077H10.5645V18.0302H9.58531C8.00533 18.0302 6.71994 16.7447 6.71994 15.1649C6.71994 13.5851 8.00533 12.2995 9.58531 12.2995H9.69692C9.7957 12.2995 9.89026 12.2587 9.95828 12.187C10.0261 12.1153 10.0616 12.019 10.0564 11.9202L10.0518 11.8481C10.0492 11.8102 10.0462 11.7722 10.0462 11.7342C10.0462 10.1741 11.3138 8.90473 12.8718 8.90473C13.0511 8.90473 13.2437 8.92442 13.4443 8.96309C13.5988 8.99438 13.757 8.91774 13.831 8.77783C14.5013 7.50844 15.8071 6.71994 17.2384 6.71994C19.3641 6.71994 21.0937 8.4495 21.0937 10.5752C21.0937 11.027 21.0116 11.478 20.8497 11.9149C20.814 12.0112 20.8211 12.1181 20.8692 12.2088C20.9172 12.2995 21.0018 12.3652 21.1014 12.3895C22.3833 12.7045 23.2787 13.8456 23.2787 15.1649C23.2787 16.7447 21.9933 18.0302 20.4133 18.0302Z" fill="#5C638B"/>
</svg>
