<svg width="33" height="33" viewBox="0 0 33 33" fill="none" xmlns="http://www.w3.org/2000/svg">
<path d="M4.23237 27.2837L15.8127 32.9155C15.9271 32.9712 16.0526 33.0001 16.1798 33.0001C16.3071 33.0001 16.4326 32.9712 16.547 32.9155L28.0701 27.2837C28.2104 27.2146 28.3286 27.1076 28.4113 26.9749C28.494 26.8422 28.538 26.6889 28.5383 26.5325V20.2607L31.5159 18.526C31.7212 18.4077 31.8972 18.2448 32.031 18.0493C32.1648 17.8538 32.253 17.6307 32.2889 17.3965C32.3248 17.1623 32.3075 16.9231 32.2384 16.6965C32.1694 16.4698 32.0502 16.2617 31.8897 16.0873L28.8145 12.7527L31.7247 9.27993C31.9036 9.06657 32.0326 8.81587 32.102 8.54621C32.1715 8.27655 32.1797 7.99476 32.1261 7.72151C32.0724 7.44826 31.9583 7.19048 31.7921 6.96705C31.6259 6.74363 31.4119 6.56024 31.1656 6.43032L21.0606 1.29698C20.9619 1.23814 20.8521 1.20022 20.7381 1.18556C20.6242 1.1709 20.5084 1.17982 20.398 1.21176C20.2876 1.2437 20.185 1.29799 20.0965 1.37124C20.0079 1.4445 19.9354 1.53517 19.8834 1.63762C19.8313 1.74008 19.8009 1.85213 19.794 1.96683C19.787 2.08153 19.8037 2.19644 19.8431 2.30441C19.8824 2.41238 19.9435 2.51113 20.0225 2.59451C20.1016 2.6779 20.197 2.74415 20.3027 2.78915L30.4077 7.91912C30.4326 7.93245 30.4543 7.95123 30.471 7.97406C30.4877 7.99688 30.4991 8.02318 30.5043 8.051C30.5094 8.07882 30.5083 8.10745 30.5009 8.13476C30.4935 8.16208 30.4801 8.18738 30.4616 8.2088L27.4941 11.722L23.0849 9.38771C22.9874 9.33335 22.88 9.299 22.769 9.28669C22.658 9.27438 22.5457 9.28436 22.4386 9.31603C22.3316 9.34771 22.2319 9.40045 22.1455 9.47115C22.059 9.54186 21.9876 9.62911 21.9353 9.72779C21.8831 9.82647 21.8511 9.93459 21.8412 10.0458C21.8312 10.157 21.8436 10.2691 21.8776 10.3755C21.9116 10.4818 21.9665 10.5804 22.039 10.6652C22.1116 10.7501 22.2003 10.8197 22.3001 10.8698L25.8705 12.7594L16.1024 17.6536L6.41168 12.8739L9.95853 10.9237C10.0591 10.8729 10.1483 10.8023 10.221 10.7163C10.2937 10.6302 10.3483 10.5304 10.3815 10.4228C10.4148 10.3152 10.426 10.202 10.4146 10.09C10.4032 9.97794 10.3693 9.86934 10.315 9.77067C10.2607 9.672 10.187 9.58528 10.0985 9.51569C10.0099 9.44609 9.90826 9.39505 9.79955 9.36559C9.69084 9.33614 9.57731 9.32889 9.46574 9.34426C9.35416 9.35963 9.24683 9.39732 9.15013 9.45508L4.87572 11.7893L1.84422 8.18185C1.82635 8.16048 1.81344 8.13542 1.80641 8.10847C1.79938 8.08152 1.79841 8.05334 1.80356 8.02597C1.80871 7.9986 1.81986 7.97271 1.83621 7.95015C1.85256 7.9276 1.8737 7.90895 1.89811 7.89554L11.9189 2.78241C12.1099 2.67716 12.2523 2.50167 12.3161 2.29314C12.3799 2.08462 12.3599 1.85946 12.2605 1.66539C12.161 1.47133 11.9899 1.32362 11.7834 1.25359C11.5769 1.18356 11.3513 1.1967 11.1543 1.29024L1.13687 6.42358C0.891642 6.5542 0.678679 6.73793 0.513525 6.96136C0.348372 7.18479 0.235195 7.44228 0.182259 7.71503C0.129322 7.98779 0.137961 8.26892 0.207544 8.53791C0.277128 8.8069 0.4059 9.05695 0.584461 9.26982L3.4846 12.7527L0.409308 16.1008C0.251394 16.275 0.134359 16.4823 0.0667388 16.7075C-0.000881122 16.9327 -0.0173802 17.1701 0.0184452 17.4025C0.0542706 17.6349 0.141517 17.8563 0.27382 18.0507C0.406122 18.2451 0.580145 18.4074 0.783193 18.526L3.7608 20.2472V26.5157C3.75817 26.6753 3.80114 26.8324 3.88467 26.9684C3.9682 27.1044 4.08883 27.2138 4.23237 27.2837ZM5.43486 21.2207L9.87432 23.784C10.2521 24.0031 10.6896 24.097 11.124 24.0522C11.5585 24.0075 11.9676 23.8263 12.2928 23.5347L12.3197 23.5111L15.3512 20.5638V30.8238L5.43486 25.9936V21.2207ZM26.8642 25.9936L17.0219 30.8204V20.6413L19.9793 23.5212L20.0063 23.5448C20.3314 23.8364 20.7406 24.0176 21.175 24.0624C21.6095 24.1071 22.0469 24.0132 22.4247 23.7941L26.8642 21.2207V25.9936ZM27.5109 13.8103L30.5761 17.1484L21.586 22.3423C21.5153 22.3831 21.4336 22.4011 21.3523 22.3939C21.2709 22.3867 21.1938 22.3545 21.1313 22.3019L17.5407 18.8089L27.5109 13.8103ZM4.6972 13.9013L14.7281 18.8359L11.1678 22.3053C11.1053 22.3579 11.0281 22.39 10.9468 22.3973C10.8654 22.4045 10.7838 22.3865 10.713 22.3457L1.72296 17.1484L4.6972 13.9013Z" fill="#5C638B"/>
<path d="M16.1169 0C15.8944 0 15.6811 0.0883643 15.5238 0.245654C15.3665 0.402943 15.2781 0.616274 15.2781 0.838715V9.56607L12.991 7.27897C12.8324 7.12897 12.6214 7.04676 12.4031 7.04983C12.1848 7.0529 11.9762 7.141 11.8218 7.29541C11.6674 7.44981 11.5793 7.65834 11.5763 7.87668C11.5732 8.09501 11.6554 8.30594 11.8054 8.46462L15.5106 12.1698C15.6678 12.3269 15.8811 12.4152 16.1034 12.4152C16.3257 12.4152 16.5389 12.3269 16.6962 12.1698L20.4014 8.46462C20.4829 8.3876 20.5481 8.29501 20.5932 8.19235C20.6382 8.08969 20.6623 7.97903 20.6639 7.86691C20.6654 7.7548 20.6445 7.6435 20.6023 7.53961C20.5601 7.43572 20.4976 7.34135 20.4183 7.26206C20.339 7.18278 20.2446 7.12019 20.1407 7.07801C20.0368 7.03583 19.9255 7.01491 19.8134 7.01649C19.7013 7.01807 19.5907 7.04211 19.488 7.08719C19.3853 7.13227 19.2927 7.19748 19.2157 7.27897L16.9522 9.56607V0.845452C16.9531 0.735027 16.9322 0.625515 16.8906 0.523198C16.8491 0.420882 16.7877 0.327776 16.7101 0.249223C16.6325 0.170671 16.5402 0.108219 16.4383 0.0654505C16.3365 0.0226822 16.2273 0.000439916 16.1169 0Z" fill="#5C638B"/>
</svg>
