
<svg width="31" height="31" viewBox="0 0 31 31" fill="none" xmlns="http://www.w3.org/2000/svg">
<rect width="31" height="31" rx="8" fill="#EDF4FF"/>
<mask id="mask0" style="mask-type:alpha" maskUnits="userSpaceOnUse" x="0" y="0" width="31" height="31">
<rect width="31" height="31" fill="#CAEDF3"/>
</mask>
<g mask="url(#mask0)">
<path d="M13.5652 10.2382V9.37634L12.8694 9.06929C12.8298 8.89135 12.7753 8.71705 12.7066 8.54819L13.09 7.88682C12.9498 7.63666 12.7825 7.40278 12.5909 7.18942L11.8547 7.35803C11.7201 7.23962 11.5757 7.13281 11.423 7.03875L11.3526 6.26933C11.0967 6.1494 10.828 6.05904 10.5516 6L10.0499 6.58214H9.51532L9.0136 6C8.73723 6.05903 8.4685 6.14938 8.21262 6.26931L8.1422 7.03873C7.98958 7.13278 7.84519 7.23958 7.71057 7.35797L6.97435 7.18936C6.78278 7.40272 6.61539 7.6366 6.47523 7.88675L6.85861 8.54813C6.7899 8.71699 6.73545 8.89131 6.69581 9.06925L6 9.37632V10.2382L6.69579 10.5452C6.73544 10.7232 6.78989 10.8975 6.8586 11.0663L6.47519 11.7277C6.61534 11.9779 6.78273 12.2117 6.9743 12.4251L7.71051 12.2565C7.84513 12.3749 7.98952 12.4817 8.14215 12.5758L8.21256 13.3452C8.46845 13.4651 8.73719 13.5555 9.01356 13.6145L9.5153 13.0324H10.0499L10.5516 13.6145C10.8279 13.5555 11.0967 13.4651 11.3526 13.3452L11.423 12.5758C11.5756 12.4818 11.72 12.375 11.8546 12.2566L12.5908 12.4252C12.7824 12.2118 12.9498 11.9779 13.09 11.7278L12.7066 11.0664C12.7753 10.8975 12.8297 10.7232 12.8694 10.5453L13.5652 10.2382ZM9.78259 11.7109C9.40609 11.7109 9.03804 11.5992 8.72499 11.3901C8.41194 11.1809 8.16795 10.8836 8.02387 10.5358C7.87978 10.1879 7.84209 9.80515 7.91554 9.43588C7.98899 9.06661 8.17029 8.72742 8.43652 8.46119C8.70275 8.19496 9.04194 8.01366 9.41121 7.94021C9.78048 7.86676 10.1632 7.90446 10.5111 8.04854C10.8589 8.19262 11.1562 8.43661 11.3654 8.74966C11.5746 9.06271 11.6862 9.43076 11.6862 9.80726C11.6862 10.3121 11.4857 10.7963 11.1287 11.1533C10.7717 11.5103 10.2875 11.7109 9.78259 11.7109Z" fill="#4164A9"/>
<path d="M24.1789 6.99118L23.5654 7.13167C23.4532 7.03301 23.3329 6.94401 23.2057 6.86562L23.147 6.22444C22.9338 6.12449 22.7098 6.04919 22.4795 6L22.0614 6.48511H21.616L21.1979 6C20.9675 6.04918 20.7436 6.12447 20.5304 6.22442L20.4717 6.8656C20.3445 6.944 20.2242 7.03299 20.112 7.13164L19.4985 6.99113C19.3388 7.16893 19.1993 7.36384 19.0825 7.5723L19.402 8.12344C19.3448 8.26416 19.2994 8.40942 19.2664 8.55771L18.6865 8.8136V9.53182L19.2663 9.78768C19.2994 9.93597 19.3448 10.0812 19.402 10.2219L19.0825 10.7731C19.1993 10.9815 19.3388 11.1764 19.4985 11.3543L20.112 11.2137C20.2241 11.3124 20.3445 11.4014 20.4717 11.4798L20.5303 12.121C20.7436 12.2209 20.9675 12.2962 21.1978 12.3454L21.616 11.8603H22.0614L22.4795 12.3454C22.7098 12.2962 22.9338 12.2209 23.147 12.121L23.2057 11.4798C23.3329 11.4014 23.4532 11.3124 23.5654 11.2138L24.1789 11.3543C24.3385 11.1765 24.478 10.9816 24.5948 10.7731L24.2753 10.222C24.3326 10.0813 24.378 9.93601 24.411 9.78773L24.9908 9.53182V8.81362L24.411 8.55775C24.378 8.40947 24.3326 8.26421 24.2753 8.1235L24.5948 7.57234C24.4781 7.36388 24.3386 7.16898 24.1789 6.99118ZM21.8387 10.4418C21.5877 10.4418 21.3423 10.3674 21.1336 10.2279C20.9249 10.0885 20.7622 9.89027 20.6662 9.65838C20.5701 9.42648 20.545 9.17131 20.594 8.92513C20.6429 8.67895 20.7638 8.45282 20.9413 8.27534C21.1188 8.09785 21.3449 7.97698 21.5911 7.92802C21.8373 7.87905 22.0924 7.90418 22.3243 8.00024C22.5562 8.09629 22.7544 8.25895 22.8939 8.46765C23.0333 8.67635 23.1078 8.92172 23.1078 9.17272C23.1078 9.5093 22.9741 9.8321 22.7361 10.0701C22.4981 10.3081 22.1753 10.4418 21.8387 10.4418Z" fill="#4164A9"/>
<path d="M21.1098 25L21.249 24.3375C21.4544 24.3001 21.6564 24.2457 21.8528 24.1748L22.3075 24.6824C22.639 24.5395 22.9519 24.3566 23.239 24.1378L23.0287 23.4975C23.1882 23.3621 23.3364 23.214 23.4717 23.0545L24.1121 23.2648C24.3309 22.9776 24.5138 22.6648 24.6567 22.3332L24.1492 21.8785C24.22 21.682 24.2745 21.4801 24.3119 21.2746L24.9743 21.1354V20.0533L24.3119 19.9141C24.2745 19.7086 24.2201 19.5067 24.1492 19.3103L24.6568 18.8556C24.5139 18.524 24.331 18.2112 24.1122 17.924L23.4718 18.1343C23.3365 17.9748 23.1883 17.8266 23.0288 17.6913L23.2392 17.051C22.952 16.8321 22.6391 16.6492 22.3076 16.5063L21.8528 17.0139C21.6564 16.943 21.4544 16.8886 21.249 16.8511L21.1098 16.1887H20.0277L19.8884 16.8511C19.683 16.8886 19.481 16.943 19.2846 17.0138L18.8299 16.5063C18.4984 16.6492 18.1855 16.8321 17.8984 17.0509L18.1087 17.6912C17.9492 17.8265 17.801 17.9747 17.6657 18.1342L17.0253 17.9239C16.8065 18.211 16.6236 18.5239 16.4807 18.8555L16.9882 19.3102C16.9174 19.5066 16.8629 19.7086 16.8255 19.914L16.1631 20.0532V21.1354L16.8255 21.2746C16.8629 21.48 16.9173 21.682 16.9882 21.8784L16.4807 22.3331C16.6236 22.6647 16.8064 22.9775 17.0252 23.2647L17.6656 23.0544C17.8009 23.2139 17.9491 23.362 18.1086 23.4973L17.8982 24.1377C18.1854 24.3565 18.4983 24.5394 18.8298 24.6823L19.2846 24.1748C19.481 24.2457 19.683 24.3001 19.8884 24.3375L20.0276 25H21.1098ZM18.0305 20.5943C18.0305 20.0923 18.1794 19.6016 18.4583 19.1842C18.7372 18.7668 19.1336 18.4415 19.5974 18.2494C20.0612 18.0573 20.5715 18.007 21.0639 18.1049C21.5562 18.2029 22.0085 18.4446 22.3635 18.7996C22.7184 19.1545 22.9602 19.6068 23.0581 20.0992C23.156 20.5915 23.1058 21.1019 22.9137 21.5657C22.7216 22.0294 22.3962 22.4259 21.9788 22.7048C21.5614 22.9837 21.0707 23.1325 20.5687 23.1325C19.8955 23.1325 19.2499 22.8651 18.7739 22.3891C18.2979 21.9131 18.0305 21.2675 18.0305 20.5943Z" fill="#4164A9"/>
<path d="M17.3966 9.48975H14.8584V10.1243H17.3966V9.48975Z" fill="#4164A9"/>
<path d="M15.1761 20.5947L12.0033 19.3256V20.2774H8.19607V14.8838H7.56152V20.5947C7.5615 20.6364 7.56969 20.6776 7.58563 20.7161C7.60156 20.7546 7.62493 20.7896 7.6544 20.8191C7.68386 20.8485 7.71885 20.8719 7.75735 20.8879C7.79586 20.9038 7.83712 20.912 7.8788 20.912H12.0033V21.8638L15.1761 20.5947Z" fill="#4164A9"/>
<path d="M21.5938 19.4395L20.2299 21.0763L19.5238 20.3702L19.0752 20.8188L20.027 21.7706C20.0564 21.8002 20.0914 21.8236 20.1299 21.8395C20.1684 21.8555 20.2097 21.8637 20.2513 21.8636C20.256 21.8636 20.2609 21.8636 20.2656 21.8633C20.3096 21.8613 20.3528 21.8502 20.3923 21.8306C20.4319 21.811 20.4669 21.7834 20.4952 21.7496L22.0815 19.8459L21.5938 19.4395Z" fill="#4164A9"/>
</g>
</svg>
