<svg width="38" height="38" viewBox="0 0 38 38" fill="none" xmlns="http://www.w3.org/2000/svg">
<rect width="38" height="38" rx="10" fill="transparent"/>
<rect x="11" y="16" width="7" height="4.54546" rx="0.5" fill="#E4EAF1"/>
<rect x="11" y="21.4546" width="3.18182" height="4.54546" rx="0.5" fill="#E4EAF1"/>
<rect x="14.8181" y="21.4546" width="3.18182" height="4.54546" rx="0.5" fill="#E4EAF1"/>
<rect x="20.9624" y="16" width="6.99987" height="4.54546" rx="0.5" fill="#323B6E"/>
<rect x="20.9624" y="21.4546" width="3.18176" height="4.54546" rx="0.5" fill="#323B6E"/>
<rect x="24.7805" y="21.4546" width="3.18176" height="4.54546" rx="0.5" fill="#323B6E"/>
<path d="M29.1354 30.9167H9.86458C8.28437 30.9167 7 29.6323 7 28.0521V10.8646C7 9.28438 8.28437 8 9.86458 8H29.1354C30.7156 8 32 9.28438 32 10.8646V28.0521C32 29.6323 30.7156 30.9167 29.1354 30.9167ZM9.86458 9.5625C9.14687 9.5625 8.5625 10.1469 8.5625 10.8646V28.0521C8.5625 28.7698 9.14687 29.3542 9.86458 29.3542H29.1354C29.8531 29.3542 30.4375 28.7698 30.4375 28.0521V10.8646C30.4375 10.1469 29.8531 9.5625 29.1354 9.5625H9.86458Z" fill="#E4EAF1"/>
<path d="M31.2188 13.2086H7.78125C7.35 13.2086 7 12.8586 7 12.4273C7 11.9961 7.35 11.6461 7.78125 11.6461H31.2188C31.65 11.6461 32 11.9961 32 12.4273C32 12.8586 31.65 13.2086 31.2188 13.2086Z" fill="#E4EAF1"/>
</svg>
