<svg width="30" height="30" viewBox="0 0 30 30" fill="none" xmlns="http://www.w3.org/2000/svg">
<rect width="30" height="30" rx="6" fill="#D7DCE3"/>
<path d="M21.1667 22.6667H8.83333C7.822 22.6667 7 21.8447 7 20.8333V9.83333C7 8.822 7.822 8 8.83333 8H21.1667C22.178 8 23 8.822 23 9.83333V20.8333C23 21.8447 22.178 22.6667 21.1667 22.6667ZM8.83333 9C8.374 9 8 9.374 8 9.83333V20.8333C8 21.2927 8.374 21.6667 8.83333 21.6667H21.1667C21.626 21.6667 22 21.2927 22 20.8333V9.83333C22 9.374 21.626 9 21.1667 9H8.83333Z" fill="#5C638B"/>
<path d="M22.5 11.333H7.5C7.224 11.333 7 11.109 7 10.833C7 10.557 7.224 10.333 7.5 10.333H22.5C22.776 10.333 23 10.557 23 10.833C23 11.109 22.776 11.333 22.5 11.333Z" fill="#5C638B"/>
<path d="M14.0139 13.1459C14.3758 12.8645 14.7778 12.7438 15.1799 12.8243C15.6624 12.9047 16.1047 13.2263 16.4665 13.749C16.5872 13.9501 16.8284 13.9903 17.0295 13.8696C17.2305 13.749 17.2707 13.5078 17.1501 13.3067C16.6676 12.583 16.0243 12.1407 15.3407 12.0201C14.7376 11.9397 14.0943 12.1005 13.5314 12.5026C13.3706 12.6232 13.3304 12.9047 13.451 13.0655C13.5716 13.2665 13.8531 13.2665 14.0139 13.1459Z" fill="#5C638B"/>
<path d="M16.4669 18.6951C16.0648 19.2982 15.5019 19.6198 14.9792 19.6198C14.4565 19.6198 13.8936 19.2982 13.4915 18.6951C12.7276 17.5693 12.5668 15.7599 13.1297 14.3929C13.2101 14.1918 13.1297 13.9506 12.9286 13.8702C12.7276 13.7898 12.4864 13.8702 12.4059 14.0712C11.7224 15.7197 11.9234 17.7703 12.8482 19.1373C13.4111 19.9817 14.1751 20.424 15.0194 20.424C15.8638 20.424 16.6277 19.9817 17.1906 19.1373C17.3112 18.9363 17.271 18.6951 17.07 18.5744C16.869 18.494 16.5875 18.5342 16.4669 18.6951Z" fill="#5C638B"/>
<path d="M17.4315 14.9149C17.2305 14.9551 17.0696 15.1562 17.1098 15.3572C17.2305 16.0005 17.1903 16.6841 17.0696 17.2872C17.0294 17.4882 17.15 17.7295 17.3913 17.7697C17.5923 17.8099 17.8336 17.6892 17.8738 17.448C18.0346 16.7243 18.0346 15.9603 17.914 15.1964C17.8738 15.0356 17.6727 14.8747 17.4315 14.9149Z" fill="#5C638B"/>
<path d="M14.9785 18.5345C15.461 18.5345 15.9033 18.253 16.225 17.8108C16.3456 17.6097 16.3054 17.3685 16.1044 17.2479C15.9033 17.1272 15.6621 17.1674 15.5415 17.3685C15.3806 17.6097 15.1796 17.7303 14.9785 17.7303C14.7775 17.7303 14.5765 17.6097 14.3754 17.3283C13.9734 16.7252 13.9734 15.6798 14.3754 15.0767C14.5363 14.8354 14.7373 14.7148 14.9383 14.7148C15.1394 14.7148 15.3404 14.8354 15.5415 15.1169C15.6621 15.3179 15.9033 15.3581 16.1044 15.2375C16.3054 15.1169 16.3456 14.8756 16.225 14.6746C15.9033 14.1921 15.461 13.9509 14.9785 13.9106C14.4961 13.9106 14.0538 14.1921 13.7321 14.6344C13.129 15.5189 13.129 16.886 13.7321 17.8108C14.0538 18.253 14.4961 18.5345 14.9785 18.5345Z" fill="#5C638B"/>
<path d="M16.1459 17.1266C16.3469 17.1668 16.5881 17.0059 16.6283 16.8049C16.7088 16.4832 16.7088 16.1214 16.6283 15.7595C16.5881 15.5585 16.3871 15.3976 16.1861 15.4378C15.985 15.4781 15.8242 15.6791 15.8644 15.8801C15.9046 16.1214 15.9046 16.4028 15.8644 16.6441C15.784 16.8451 15.9448 17.0863 16.1459 17.1266Z" fill="#5C638B"/>
<path d="M15.0601 15.5176C14.8993 15.397 14.6179 15.397 14.4972 15.5578C14.2158 15.9197 14.256 16.4826 14.5374 16.8847C14.6581 17.0455 14.9395 17.0857 15.1003 16.9249C15.2612 16.8043 15.3014 16.5228 15.1406 16.362C15.0601 16.2414 15.0601 16.0805 15.1003 16.0403C15.2612 15.8795 15.2612 15.6382 15.0601 15.5176Z" fill="#5C638B"/>
</svg>
