<svg width="20" height="26" viewBox="0 0 20 26" fill="none" xmlns="http://www.w3.org/2000/svg">
<path d="M0.245902 14.075C0.283192 14.8433 1.05147 14.4853 1.39457 14.2466C1.72278 14.0153 1.81975 14.2093 1.84955 13.7617C1.87194 13.4634 1.90174 13.1725 1.88684 12.8742C1.38709 12.8294 0.850041 12.9487 0.439768 13.2471C0.223512 13.3962 -0.164371 13.8886 0.245827 14.075H0.245902ZM15.5591 23.518C16.1484 23.8835 17.2299 24.9875 16.3423 25.5245C15.4919 26.3003 15.0147 24.6667 14.2687 24.443C14.5894 24.0029 14.9922 23.6001 15.5591 23.518ZM5.01214 24.7637C4.31845 24.8681 3.93056 25.4947 3.34882 25.8154C2.80428 26.1362 2.59544 25.711 2.55066 25.6215C2.46867 25.5842 2.47608 25.6588 2.34182 25.5245C1.83465 24.7264 2.86396 24.1446 3.40101 23.7493C4.1469 23.6001 4.61685 24.249 5.01214 24.7637ZM18.8336 13.9781C18.7963 14.7463 18.028 14.3883 17.6849 14.1496C17.3567 13.9184 17.2597 14.1123 17.2299 13.6648C17.2075 13.3664 17.1777 13.0755 17.1926 12.7772C17.6923 12.7324 18.2294 12.8518 18.6396 13.1501C18.8486 13.2993 19.2439 13.7916 18.8336 13.9781Z" fill="#F6D2A2"/>
<path d="M16.7969 4.60954C19.4597 3.66971 17.3787 0.0223371 15.0589 1.6334C13.5373 0.328076 11.4414 0.0893555 9.24096 0.0893555C7.08544 0.261057 5.03416 0.656353 3.60206 1.90941C1.28966 0.417558 -0.843541 3.99784 1.87149 4.90045C1.1107 7.85413 1.97587 10.8676 1.85651 13.8735C1.74464 16.5737 1.03604 20.1912 2.53531 22.6154C3.81083 24.689 6.55566 25.4275 8.81579 25.5095C11.7024 25.6139 15.2006 24.9053 16.6029 22.1082C17.9455 19.4454 17.5726 16.1261 17.401 13.2545C17.2295 10.3529 17.5502 7.40664 16.7968 4.60946L16.7969 4.60954Z" fill="#69D7E2"/>
<path d="M19.0345 13.523C18.9599 13.3664 18.8182 13.1873 18.684 13.0904C18.3409 12.8442 17.9007 12.71 17.4457 12.6951C17.4308 12.2326 17.4159 11.7254 17.4159 11.0839V10.5021C17.4085 8.66724 17.3861 7.86167 17.2817 6.85467C17.1996 6.06408 17.0728 5.33309 16.8938 4.64688C17.498 4.41565 17.8933 4.03525 18.05 3.54291C18.1991 3.08794 18.1245 2.57328 17.871 2.1183C17.6099 1.67074 17.1922 1.33505 16.7073 1.20086C16.1852 1.05911 15.6184 1.16357 15.0738 1.52899C14.589 1.11879 14.0296 0.805493 13.403 0.566773C12.2916 0.156651 11.0013 0 9.24839 0V0.0745813L9.2409 0C7.36873 0.149163 5.98133 0.440075 4.83266 0.99951C4.3702 1.22325 3.96 1.49178 3.60199 1.80508C3.04997 1.46197 2.47564 1.3799 1.94608 1.54404C1.45381 1.69321 1.02864 2.0438 0.775017 2.49877C0.521396 2.95375 0.461716 3.47589 0.633268 3.92346C0.80482 4.37095 1.20012 4.72154 1.78943 4.93787C1.60298 5.69117 1.506 6.48933 1.4911 7.36947C1.47613 8.22723 1.51342 8.91352 1.64768 10.4649C1.74465 11.6211 1.78194 12.1506 1.79692 12.7921C1.28967 12.7697 0.782506 12.904 0.402036 13.18C0.267775 13.277 0.118612 13.4485 0.0515186 13.6126C-0.0454522 13.8215 -0.00816148 14.008 0.18578 14.1198C0.215583 14.4778 0.417012 14.6419 0.722826 14.6121C0.94657 14.5897 1.21509 14.4704 1.44632 14.3063C1.49517 14.2709 1.54769 14.2409 1.60298 14.2168C1.62536 14.2093 1.64027 14.2018 1.66266 14.1943C1.66266 14.1943 1.70736 14.1795 1.72234 14.172C1.74465 14.1645 1.76704 14.1571 1.78194 14.1421C1.76704 14.4927 1.73724 14.8582 1.67007 15.6937C1.59549 16.6334 1.5582 17.1482 1.5433 17.7225C1.47613 19.8557 1.72975 21.4072 2.49054 22.6379C2.72926 23.0258 3.02017 23.3689 3.36327 23.6822C3.29611 23.7269 3.01268 23.9358 2.9232 24.0029C2.6099 24.2416 2.39364 24.443 2.26679 24.6667C2.10273 24.9576 2.10273 25.2486 2.28918 25.5544L2.29667 25.5619L2.30416 25.5693C2.38615 25.6513 2.43093 25.6737 2.49061 25.6737H2.51285C2.52034 25.6887 2.52783 25.6961 2.53532 25.711C2.55763 25.7483 2.58002 25.7781 2.60241 25.808C2.78886 26.0243 3.0499 26.0765 3.40049 25.8677C3.58694 25.7707 3.72121 25.6588 4.00463 25.4201L4.01961 25.4051C4.47458 25.0173 4.69833 24.8756 5.03402 24.8234L5.15338 24.801C5.19808 24.8235 5.24286 24.8384 5.29505 24.8607C6.35424 25.2858 7.58491 25.5171 8.83063 25.5619C10.4418 25.6215 11.9932 25.4201 13.306 24.9427C13.6565 24.816 13.9848 24.6667 14.2981 24.5027C14.492 24.5772 14.656 24.7339 14.9694 25.0994C14.9843 25.1144 14.9843 25.1144 14.9917 25.1292C15.0067 25.1442 15.0066 25.1517 15.0141 25.1591C15.029 25.1815 15.0514 25.1964 15.0663 25.2187C15.3125 25.5096 15.4766 25.6513 15.6631 25.7334C15.9091 25.8378 16.1478 25.7856 16.394 25.5619C16.8266 25.2933 16.8564 24.8756 16.5729 24.3982C16.3716 24.0626 16.0211 23.712 15.6929 23.4883C16.0807 23.1079 16.4164 22.6529 16.6774 22.1382C17.3935 20.7061 17.6695 19.0352 17.6546 16.8871C17.6471 16.1263 17.6172 15.4624 17.5352 14.1943V14.1571C17.5725 14.172 17.6098 14.1944 17.6471 14.2242C17.8783 14.3809 18.1469 14.5076 18.3706 14.53C18.6764 14.5599 18.8778 14.3958 18.9076 14.0378C19.0941 13.9184 19.1314 13.732 19.0344 13.5231L19.0345 13.523ZM16.6626 1.35744C17.1102 1.4768 17.4981 1.7901 17.7367 2.20779C17.9755 2.62547 18.0425 3.09543 17.9083 3.51311C17.7666 3.95319 17.4085 4.30378 16.8491 4.51262C16.7376 4.11327 16.6056 3.71991 16.4538 3.33407C16.6701 3.14762 16.7745 2.91638 16.603 2.58826C16.4315 2.25998 16.1331 2.22269 15.8272 2.31966C15.6333 2.06604 15.417 1.84229 15.1933 1.63345C15.6855 1.32015 16.1928 1.23067 16.6626 1.35744ZM0.760191 3.8786C0.60354 3.47574 0.655732 2.99845 0.894452 2.58077C1.1331 2.16301 1.52098 1.83488 1.98344 1.70062C2.46081 1.55887 2.97547 1.62596 3.48271 1.92436C3.1894 2.188 2.92893 2.48603 2.70694 2.812C2.31906 2.61057 1.92376 2.57328 1.70002 2.98348C1.46879 3.42363 1.73731 3.69956 2.11771 3.90841C2.06551 4.03525 2.01325 4.16952 1.96854 4.30378C1.91628 4.46784 1.86408 4.63939 1.81938 4.81095C1.27485 4.6021 0.916842 4.28139 0.760191 3.8786ZM1.66273 14.0452C1.65524 14.0452 1.61046 14.0601 1.61046 14.0675C1.58815 14.075 1.56576 14.0825 1.54337 14.0974C1.48369 14.1198 1.42401 14.1571 1.3644 14.2018C1.15549 14.351 0.901866 14.4629 0.707924 14.4778C0.48418 14.5002 0.357407 14.4032 0.335018 14.1347C0.491668 14.0825 0.558762 14.0452 0.618442 13.9557L0.499082 13.8661C0.454378 13.9258 0.409599 13.9482 0.275337 13.9929C0.267849 13.9929 0.267849 13.9929 0.260361 14.0004C0.141076 13.9332 0.118687 13.8288 0.185855 13.6797C0.245535 13.5454 0.379796 13.3888 0.491668 13.3068C0.849674 13.0457 1.32704 12.9189 1.8044 12.9487C1.8044 13.1352 1.81189 13.3216 1.8044 13.5006C1.8044 13.523 1.8044 13.5379 1.79692 13.5603C1.7895 13.6647 1.7895 13.7095 1.78202 13.7618C1.7597 13.978 1.74472 14.0078 1.66273 14.0452ZM3.9153 25.3007L3.90032 25.3156C3.62438 25.5543 3.49012 25.6513 3.31857 25.7482C3.03515 25.9198 2.84121 25.8825 2.70694 25.7184C2.68455 25.696 2.66965 25.6662 2.65475 25.6438C2.64726 25.6363 2.63978 25.6215 2.63236 25.614V25.6065C2.64734 25.4722 2.69953 25.3753 2.83379 25.1664C2.84128 25.1589 2.84128 25.1589 2.84128 25.1515C2.92327 25.0321 2.96057 24.9651 2.99786 24.883L2.86359 24.8233C2.83379 24.8905 2.7965 24.9502 2.72185 25.0694C2.71436 25.0769 2.71436 25.0769 2.71436 25.0844C2.58017 25.2784 2.52042 25.3976 2.49061 25.5319H2.48312H2.46074C2.44576 25.5244 2.42344 25.5095 2.39364 25.4797C2.10273 25.0172 2.33396 24.622 2.99029 24.1296C3.07236 24.07 3.34837 23.8761 3.42295 23.8164C3.43793 23.8164 3.45276 23.8089 3.46773 23.8014C3.87044 24.1446 4.3404 24.4429 4.86254 24.689C4.86254 24.6965 4.87003 24.704 4.87744 24.7115C4.57163 24.786 4.33291 24.9427 3.91522 25.3007H3.9153ZM16.4389 24.4877C16.6701 24.8756 16.6626 25.1888 16.3717 25.4051C16.3494 25.3603 16.3344 25.3082 16.3046 25.2336C16.3046 25.2261 16.3046 25.2261 16.2971 25.2186C16.1928 24.9352 16.1257 24.8159 15.9988 24.6816L15.8944 24.786C16.0062 24.8905 16.0585 25.0023 16.1629 25.2634C16.1629 25.2709 16.1629 25.2709 16.1704 25.2784C16.2077 25.3753 16.2301 25.4349 16.2524 25.4872C16.0585 25.6513 15.8869 25.6811 15.7079 25.5991C15.5513 25.5319 15.4021 25.3902 15.1634 25.1217C15.1485 25.1067 15.1336 25.0844 15.1187 25.062C15.1112 25.0545 15.1037 25.047 15.0962 25.0321C15.0814 25.0172 15.0814 25.0172 15.0739 25.0023C14.7979 24.6816 14.6338 24.5101 14.4548 24.413C14.8725 24.1744 15.2455 23.9059 15.5811 23.5926C15.8944 23.8238 16.245 24.1669 16.4389 24.4877ZM16.5433 22.071C15.9019 23.3614 14.7681 24.2714 13.2464 24.8233C11.9486 25.2933 10.412 25.4872 8.82329 25.4275C6.08587 25.3305 3.71394 24.3758 2.60256 22.5707C1.85667 21.3698 1.61046 19.8407 1.67763 17.7373C1.70002 17.163 1.72982 16.6483 1.8044 15.7085C1.88647 14.6493 1.90886 14.3435 1.93125 13.8661C1.94615 13.523 1.94615 13.1724 1.93874 12.7995C1.92376 12.1431 1.88647 11.621 1.7895 10.4499C1.65524 8.89847 1.61795 8.21967 1.63285 7.36933C1.65532 6.25061 1.8044 5.26592 2.11771 4.33365C2.62472 2.81934 3.55722 1.79744 4.89983 1.1337C6.02611 0.581824 7.39112 0.298325 9.24839 0.149088C10.9864 0.149088 12.2543 0.305739 13.3508 0.708523C14.6635 1.19338 15.6407 2.04365 16.312 3.34905C16.7446 4.40816 16.9983 5.54942 17.1325 6.86216C17.2369 7.86167 17.2593 8.66724 17.2668 10.4946V11.0765C17.2743 11.979 17.2891 12.613 17.3265 13.247C17.3414 13.4932 17.3488 13.5976 17.3861 14.1869C17.4681 15.4549 17.498 16.1113 17.5054 16.8721C17.5204 19.0128 17.2518 20.6612 16.5432 22.071H16.5433ZM18.8257 13.9034C18.8182 13.9034 18.8108 13.8959 18.8034 13.8959C18.6691 13.8512 18.6244 13.8214 18.5796 13.7692L18.4602 13.8587C18.5274 13.9482 18.5945 13.9855 18.7437 14.0376C18.7139 14.3062 18.5871 14.4032 18.3708 14.3808C18.1769 14.3658 17.9232 14.2465 17.7143 14.1048C17.6547 14.0601 17.5951 14.0302 17.5354 14.0004C17.5279 14.0004 17.5204 13.9929 17.5129 13.9929C17.4831 13.5827 17.4831 13.4783 17.4682 13.2619L17.4458 12.8591C17.8636 12.8666 18.2738 12.9934 18.587 13.2246C18.699 13.3067 18.8332 13.4634 18.8929 13.5975C18.9675 13.7244 18.9526 13.8363 18.8257 13.9034Z" fill="black"/>
<path d="M10.3723 7.78169C10.3798 8.16209 10.4544 8.57977 10.3872 8.98256C10.2828 9.1765 10.0889 9.19896 9.91737 9.27347C9.67865 9.23618 9.47722 9.07953 9.38033 8.85578C9.32065 8.40081 9.39523 7.96815 9.41762 7.51317C9.41762 7.49819 9.70104 7.52066 9.95466 7.59524C10.1709 7.66233 10.3723 7.77421 10.3723 7.78169ZM8.26146 7.8115C8.05254 8.60224 8.53747 9.89258 9.33555 8.8334C9.27587 8.38583 9.34304 7.95325 9.36535 7.51317C9.37284 7.47588 8.26894 7.7593 8.26146 7.8115Z" fill="white"/>
<path d="M10.4615 8.13281C10.4466 7.90899 10.4391 7.81951 10.4391 7.70764V7.65544L10.3869 7.64047L9.44712 7.34963V7.29736L9.35015 7.31983H9.34266V7.32724L8.28354 7.59576L8.24625 7.60325L8.23128 7.64047C8.06721 8.03584 8.1045 8.63256 8.31335 8.99806C8.55207 9.41574 8.93988 9.42316 9.33525 8.94579C9.39034 9.05212 9.46968 9.14399 9.56685 9.21397C9.66402 9.28396 9.7763 9.33009 9.89461 9.34865H9.91707L9.93939 9.34116C9.96926 9.32619 9.99907 9.3187 10.0513 9.29638C10.0588 9.29638 10.0588 9.29638 10.0662 9.2889C10.2825 9.21431 10.372 9.15463 10.4466 9.01296L10.4541 9.00547V8.99057C10.4764 8.85631 10.4839 8.71456 10.4839 8.55798C10.4839 8.44604 10.4764 8.34158 10.4615 8.13281ZM9.26808 7.8568C9.26059 7.99106 9.25318 8.04325 9.24576 8.11783C9.23079 8.39384 9.23079 8.60269 9.25325 8.81153C8.90258 9.25909 8.62665 9.25909 8.4402 8.9234C8.26116 8.61017 8.22379 8.08054 8.35813 7.73002L9.29788 7.4913C9.29047 7.58828 9.28305 7.68525 9.26808 7.8568ZM10.3124 8.96077C10.2602 9.05025 10.193 9.09503 10.014 9.15471C10.0065 9.15471 10.0065 9.15471 9.99907 9.16212C9.95436 9.1771 9.92448 9.19192 9.90209 9.19941C9.70067 9.16212 9.52919 9.02786 9.44712 8.84141C9.42473 8.63998 9.42473 8.43113 9.43963 8.1552C9.44712 8.08054 9.44712 8.02835 9.46209 7.89409C9.47692 7.72261 9.48441 7.61815 9.48441 7.52118L10.2975 7.76732C10.2975 7.86429 10.305 7.95377 10.3199 8.14771C10.3348 8.34914 10.3422 8.45352 10.3422 8.57288C10.3422 8.71456 10.3347 8.84141 10.3124 8.96077Z" fill="black"/>
<path d="M3.77158 4.53215C4.45779 7.2024 8.73176 6.51619 8.5677 3.83845C8.37368 0.631078 3.11517 1.25019 3.7715 4.53215" fill="white"/>
<path d="M8.64206 3.83138C8.59728 3.05562 8.25418 2.45148 7.68733 2.07108C7.18009 1.72798 6.50878 1.59372 5.84496 1.67571C5.18114 1.76534 4.56944 2.06367 4.16666 2.53362C3.71917 3.05569 3.54762 3.7419 3.70427 4.53257L3.77136 4.51759L3.70427 4.53257C4.40538 7.2774 8.80613 6.61358 8.64206 3.83138ZM3.83846 4.51766C3.68929 3.76436 3.85343 3.12286 4.27112 2.638C4.65151 2.19793 5.22585 1.90709 5.85986 1.82502C6.49388 1.74295 7.1279 1.8698 7.60534 2.19793C8.13482 2.55601 8.45561 3.11545 8.50031 3.85385C8.65696 6.457 4.50235 7.08361 3.83853 4.51766H3.83846Z" fill="black"/>
<path d="M4.95006 4.87544C5.34964 4.87544 5.67356 4.5248 5.67356 4.09226C5.67356 3.65972 5.34964 3.30908 4.95006 3.30908C4.55048 3.30908 4.22656 3.65972 4.22656 4.09226C4.22656 4.5248 4.55048 4.87544 4.95006 4.87544Z" fill="black"/>
<path d="M5.278 4.47205C5.37274 4.47205 5.44955 4.3819 5.44955 4.27069C5.44955 4.15949 5.37274 4.06934 5.278 4.06934C5.18325 4.06934 5.10645 4.15949 5.10645 4.27069C5.10645 4.3819 5.18325 4.47205 5.278 4.47205Z" fill="white"/>
<path d="M9.76612 4.03266C10.2957 7.09828 15.3081 6.28523 14.5846 3.19722C13.9357 0.422506 9.58708 1.19078 9.76612 4.03266Z" fill="white"/>
<path d="M14.6509 3.18272C13.9871 0.325938 9.5118 1.10912 9.69077 4.04048V4.04797C9.93683 5.49496 11.2273 6.23344 12.6519 5.99472C13.3008 5.88285 13.8826 5.56962 14.263 5.10716C14.6807 4.59243 14.8298 3.92861 14.6509 3.18272ZM14.1512 5.0176C13.7931 5.45026 13.2487 5.74859 12.6295 5.85304C11.2794 6.07679 10.0711 5.38309 9.83244 4.02558C9.66831 1.26577 13.8901 0.527293 14.5166 3.21252C14.6808 3.92112 14.5465 4.54023 14.1512 5.0176Z" fill="black"/>
<path d="M10.9957 4.68159C11.3871 4.68159 11.7043 4.33095 11.7043 3.89841C11.7043 3.46588 11.3871 3.11523 10.9957 3.11523C10.6044 3.11523 10.2871 3.46588 10.2871 3.89841C10.2871 4.33095 10.6044 4.68159 10.9957 4.68159Z" fill="black"/>
<path d="M11.3242 4.27917C11.4148 4.27917 11.4883 4.18902 11.4883 4.07782C11.4883 3.96661 11.4148 3.87646 11.3242 3.87646C11.2336 3.87646 11.1602 3.96661 11.1602 4.07782C11.1602 4.18902 11.2336 4.27917 11.3242 4.27917Z" fill="white"/>
<path d="M8.41571 6.20023C7.8264 6.25243 7.34903 6.94612 7.65492 7.49807C8.05763 8.22906 8.96017 7.43098 9.51961 7.50556C10.1685 7.52053 10.6982 8.19177 11.2128 7.62492C11.7871 6.99831 10.9667 6.38669 10.3177 6.11816L8.41571 6.20023Z" fill="#F6D2A2"/>
<path d="M11.2867 6.69977C11.0853 6.44615 10.7347 6.21492 10.3543 6.05827L10.3394 6.05078H10.3245L8.41501 6.12544C7.75111 6.18512 7.27382 6.9534 7.59446 7.53514C7.72131 7.75896 7.89286 7.87084 8.12409 7.88574C8.29557 7.89322 8.47468 7.85593 8.75062 7.75896C8.77301 7.75148 8.80281 7.74399 8.8401 7.72909C9.21309 7.60231 9.36225 7.56502 9.51141 7.58741H9.5189C9.69786 7.58741 9.8471 7.6396 10.1305 7.75148C10.4438 7.87825 10.5408 7.91561 10.6974 7.93044C10.9138 7.94542 11.1002 7.87084 11.2717 7.68438C11.5626 7.36359 11.5477 7.02049 11.2867 6.69977ZM11.1598 7.57992C11.0182 7.73657 10.8764 7.78884 10.7049 7.78135C10.5706 7.77386 10.4811 7.73657 10.1827 7.61721C9.88439 7.49044 9.72033 7.44574 9.52639 7.43825C9.33993 7.41578 9.18328 7.45315 8.78791 7.58741C8.75062 7.60231 8.72082 7.6098 8.69843 7.61721C8.1539 7.80367 7.89286 7.78877 7.71382 7.46056C7.4453 6.97578 7.85557 6.31938 8.41501 6.26719L10.3021 6.19253C10.6602 6.34177 10.9809 6.55802 11.1673 6.78933C11.3911 7.05778 11.3986 7.3263 11.1598 7.57992Z" fill="#231F20"/>
<path d="M10.4665 5.87948C10.2352 5.02913 8.2959 5.15598 8.3406 6.17039C8.43758 6.92369 10.6902 6.72227 10.4665 5.87948Z" fill="black"/>
</svg>
