<svg width="60" height="60" viewBox="0 0 60 60" fill="none" xmlns="http://www.w3.org/2000/svg">
<rect width="60" height="60" rx="18" fill="#EFF4FD"/>
<path d="M39.8146 22C37.7739 22.0283 35.7191 22.9353 33.9052 24.6358L24.3821 33.5921C22.9225 34.9808 21.4628 35.576 20.0882 35.6044C18.6995 35.6185 17.3532 35.08 16.1061 33.918C13.7395 31.7073 13.7537 28.3062 16.1203 26.0671C18.5861 23.7431 21.5054 23.9698 23.6169 25.7554L27.1455 28.9864C27.599 29.4541 28.4493 29.4399 28.8886 28.9581C29.3279 28.4762 29.2712 27.6401 28.7752 27.2292C27.5706 26.1238 26.3661 25.0185 25.1757 23.9131C22.2423 21.4331 17.7358 21.2348 14.4764 24.3099C11.1887 27.4276 11.1604 32.5859 14.4764 35.6894C16.092 37.1915 18.0759 38.0276 20.1307 37.9993C22.1714 37.971 24.2262 37.064 26.0401 35.3493L35.5632 26.3931C37.0228 25.0043 38.4825 24.4233 39.8571 24.3949C41.2459 24.3808 42.5921 24.9051 43.8392 26.0671C46.2058 28.2778 46.1916 31.6931 43.825 33.9322C41.3734 36.2421 38.4683 36.0295 36.3568 34.2723C35.1097 33.1386 33.8627 31.9765 32.7998 30.9987C32.3463 30.5311 31.4961 30.5452 31.0568 31.0271C30.6174 31.5089 30.6741 32.345 31.1701 32.756C32.3747 33.8613 33.5651 34.9808 34.7696 36.072C37.7031 38.552 42.2095 38.7504 45.4689 35.6752C48.7566 32.5576 48.785 27.4134 45.4689 24.3099C43.7825 22.7369 41.6427 22 39.8146 22Z" fill="#4164A9"/>
</svg>
