<svg width="30" height="30" viewBox="0 0 30 30" fill="none" xmlns="http://www.w3.org/2000/svg">
<rect width="30" height="30" rx="6" fill="#EDF4FF"/>
<path d="M19.6727 12.8511C19.7525 12.8511 19.8151 12.9137 19.8151 12.9935V11.4893C19.8151 11.0967 19.4958 10.7775 19.1032 10.7775H17.8953C17.9751 10.7775 18.0376 10.84 18.0376 10.9198V9.71182C18.0376 9.3193 17.7183 9 17.3258 9H12.7604C12.3679 9 12.0486 9.3193 12.0486 9.71182V10.9198C12.0486 10.84 12.1111 10.7775 12.191 10.7775H10.983C10.5905 10.7775 10.2712 11.0967 10.2712 11.4893V12.9935C10.2712 12.9137 10.3337 12.8511 10.4135 12.8511H8.71182C8.3193 12.8511 8 13.1704 8 13.563V21.2882C8 21.6807 8.3193 22 8.71182 22H21.3742C21.7668 22 22.0861 21.6807 22.0861 21.2882V13.563C22.0861 13.1704 21.7668 12.8511 21.3742 12.8511H19.6727ZM21.3742 13.7053C21.2944 13.7053 21.2319 13.6428 21.2319 13.563V21.2882C21.2319 21.2083 21.2944 21.1458 21.3742 21.1458H8.71182C8.79166 21.1458 8.85419 21.2083 8.85419 21.2882V13.563C8.85419 13.6428 8.79166 13.7053 8.71182 13.7053H10.4135C10.8061 13.7053 11.1254 13.386 11.1254 12.9935V11.4893C11.1254 11.5691 11.0628 11.6316 10.983 11.6316H12.191C12.5835 11.6316 12.9028 11.3123 12.9028 10.9198V9.71182C12.9028 9.79166 12.8403 9.85419 12.7604 9.85419H17.3257C17.2459 9.85419 17.1834 9.79166 17.1834 9.71182V10.9198C17.1834 11.3123 17.5027 11.6316 17.8952 11.6316H19.1032C19.0234 11.6316 18.9608 11.5691 18.9608 11.4893V12.9935C18.9608 13.386 19.2801 13.7053 19.6726 13.7053H21.3742Z" fill="#5C638B"/>
<path d="M11.6257 19.5065V15.2925C11.6257 15.0566 11.4344 14.8654 11.1986 14.8654C10.9627 14.8654 10.7715 15.0566 10.7715 15.2925V19.5065C10.7715 19.7424 10.9627 19.9336 11.1986 19.9336C11.4344 19.9336 11.6257 19.7424 11.6257 19.5065Z" fill="#5C638B"/>
<path d="M14.1882 19.5065V15.2925C14.1882 15.0566 13.9969 14.8654 13.7611 14.8654C13.5252 14.8654 13.334 15.0566 13.334 15.2925V19.5065C13.334 19.7424 13.5252 19.9336 13.7611 19.9336C13.9969 19.9336 14.1882 19.7424 14.1882 19.5065Z" fill="#5C638B"/>
<path d="M16.7507 19.5065V15.2925C16.7507 15.0566 16.5595 14.8654 16.3236 14.8654C16.0877 14.8654 15.8965 15.0566 15.8965 15.2925V19.5065C15.8965 19.7424 16.0877 19.9336 16.3236 19.9336C16.5595 19.9336 16.7507 19.7424 16.7507 19.5065Z" fill="#5C638B"/>
<path d="M19.3132 19.5065V15.2925C19.3132 15.0566 19.122 14.8654 18.8861 14.8654C18.6502 14.8654 18.459 15.0566 18.459 15.2925V19.5065C18.459 19.7424 18.6502 19.9336 18.8861 19.9336C19.122 19.9336 19.3132 19.7424 19.3132 19.5065Z" fill="#5C638B"/>
</svg>
