<svg width="60" height="60" viewBox="0 0 60 60" fill="none" xmlns="http://www.w3.org/2000/svg">
<rect width="60" height="60" rx="18" fill="#EFF4FD"/>
<path d="M34.7514 22.8057V16.2561C34.7514 16.1153 34.6955 15.9802 34.5959 15.8806C34.4963 15.781 34.3613 15.7251 34.2204 15.7251C34.0796 15.7251 33.9446 15.781 33.845 15.8806C33.7454 15.9802 33.6895 16.1153 33.6895 16.2561V22.8057C33.6895 22.9465 33.7454 23.0816 33.845 23.1811C33.9446 23.2807 34.0796 23.3366 34.2204 23.3366C34.3613 23.3366 34.4963 23.2807 34.5959 23.1811C34.6955 23.0816 34.7514 22.9465 34.7514 22.8057Z" fill="#4164A9"/>
<mask id="path-3-outside-1" maskUnits="userSpaceOnUse" x="18" y="22.8809" width="24" height="25" fill="black">
<rect fill="white" x="18" y="22.8809" width="24" height="25"/>
<path d="M19.5173 32.3233C21.1845 34.7127 21.1713 35.7906 21.1606 36.8366C21.081 44.4402 26.3509 46.7898 29.481 46.9782C29.72 46.9915 29.951 46.9995 30.1819 46.9995C31.6294 47.0167 33.064 46.7267 34.3912 46.1487C35.7183 45.5707 36.9078 44.7178 37.8811 43.6464L39.62 41.7295L39.6492 41.695L40.5121 40.7419C40.8176 40.4362 41.035 40.0537 41.1416 39.6348C41.2481 39.216 41.2398 38.7761 41.1176 38.3615C40.9953 37.947 40.7636 37.573 40.4468 37.279C40.1301 36.9849 39.7399 36.7817 39.3174 36.6906C39.4003 36.3892 39.4169 36.0735 39.366 35.7651C39.315 35.4567 39.1978 35.1631 39.0224 34.9044C38.847 34.6457 38.6176 34.4281 38.35 34.2667C38.0823 34.1053 37.7829 34.0038 37.4722 33.9693C37.5585 33.7309 37.6034 33.4795 37.605 33.226C37.6064 32.6723 37.4156 32.1353 37.065 31.7067C36.7144 31.2782 36.2258 30.9847 35.6828 30.8764L38.5634 27.9852C38.7894 27.76 38.9682 27.4919 39.0895 27.1968C39.2108 26.9016 39.2721 26.5853 39.2698 26.2662C39.2675 25.9471 39.2017 25.6317 39.0762 25.3384C38.9506 25.045 38.7679 24.7796 38.5387 24.5576C38.3095 24.3356 38.0384 24.1615 37.7411 24.0454C37.4439 23.9294 37.1265 23.8737 36.8075 23.8816C36.4885 23.8895 36.1743 23.9609 35.8832 24.0916C35.5921 24.2223 35.33 24.4096 35.112 24.6427C31.9554 28.0118 28.0315 31.8454 26.4837 32.4746C25.581 32.8463 25.3633 32.5569 24.6651 31.4127C24.1801 30.5162 23.536 29.7155 22.7642 29.0498C21.8456 28.3038 20.7651 28.2826 19.8704 28.9914C18.8589 29.7905 18.7128 31.1658 19.5173 32.3233ZM38.805 37.7021C38.9811 37.7014 39.1557 37.7358 39.3184 37.8033C39.4811 37.8707 39.6288 37.9699 39.7528 38.095C39.8779 38.2218 39.9767 38.3721 40.0436 38.5373C40.1104 38.7024 40.1439 38.8791 40.1422 39.0573C40.1405 39.2354 40.1035 39.4115 40.0335 39.5753C39.9635 39.7391 39.8618 39.8875 39.7342 40.0118L38.8926 40.9384C38.6672 41.0448 38.4146 41.0798 38.1688 41.0385C37.9229 40.9972 37.6956 40.8817 37.5174 40.7074L37.4696 40.657C37.2525 40.444 37.122 40.1582 37.1033 39.8547C37.0847 39.5511 37.1793 39.2515 37.3687 39.0136L38.6961 37.6862L38.805 37.7021ZM38.0085 35.3286C38.2051 35.5236 38.3209 35.7855 38.3327 36.0622C38.3445 36.3388 38.2515 36.6097 38.0722 36.8207C38.05 36.841 38.0296 36.8632 38.0112 36.887L36.4873 38.4109C36.2721 38.4897 36.0391 38.5065 35.8148 38.4596C35.5905 38.4127 35.3839 38.3038 35.2182 38.1455L35.1545 38.0817C34.9455 37.8647 34.8227 37.579 34.8091 37.278C34.7954 36.9771 34.8918 36.6814 35.0802 36.4463C35.2926 36.2817 36.182 35.5782 36.6545 35.172C36.8648 35.0446 37.1115 34.9909 37.3557 35.0193C37.5999 35.0476 37.8277 35.1565 38.0032 35.3286H38.0085ZM36.1501 32.2729C36.2752 32.3969 36.3744 32.5445 36.4418 32.7073C36.5093 32.87 36.5437 33.0445 36.543 33.2206C36.5083 33.6519 36.3086 34.0533 35.9855 34.341C35.6616 34.6224 34.9634 35.1826 34.4483 35.5861C34.2287 35.6488 33.9963 35.6513 33.7754 35.5934C33.5545 35.5355 33.3532 35.4193 33.1926 35.2569L33.1581 35.2224C32.9163 34.9805 32.7805 34.6525 32.7805 34.3105C32.7805 33.9685 32.9163 33.6405 33.1581 33.3985L34.4058 32.1507C34.6615 31.9567 34.9788 31.8619 35.299 31.8839C35.6192 31.9059 35.9206 32.0431 36.1475 32.2702L36.1501 32.2729ZM20.5314 29.8118C21.0412 29.4082 21.5536 29.4242 22.0952 29.8622C22.7709 30.4514 23.334 31.1585 23.7571 31.949C24.0034 32.4098 24.3126 32.8342 24.6757 33.21C24.6856 33.2247 24.6962 33.2389 24.7076 33.2525C24.7527 33.3003 25.7695 34.4127 24.7341 36.0295C24.6643 36.148 24.6433 36.289 24.6754 36.4227C24.7075 36.5565 24.7902 36.6725 24.9061 36.7465C25.0221 36.8205 25.1622 36.8466 25.297 36.8193C25.4318 36.792 25.5507 36.7135 25.6288 36.6003C25.9218 36.1803 26.1176 35.7003 26.2021 35.1952C26.2866 34.6901 26.2576 34.1725 26.1173 33.6799C26.3803 33.644 26.6374 33.5734 26.8819 33.4702C28.9713 32.6127 33.8696 27.5286 35.882 25.3808C36.0042 25.2489 36.152 25.1433 36.3162 25.0703C36.4805 24.9973 36.6579 24.9584 36.8377 24.956C37.0177 24.9532 37.1965 24.9865 37.3634 25.054C37.5303 25.1215 37.682 25.2218 37.8094 25.3489C37.9342 25.4735 38.0333 25.6214 38.1008 25.7843C38.1684 25.9471 38.2032 26.1217 38.2032 26.298C38.2032 26.4744 38.1684 26.649 38.1008 26.8118C38.0333 26.9747 37.9342 27.1226 37.8094 27.2472L32.4041 32.6419C32.1844 32.8605 32.0102 33.1203 31.8912 33.4064C31.7723 33.6925 31.7111 33.9993 31.7111 34.3091C31.7111 34.619 31.7723 34.9258 31.8912 35.2119C32.0102 35.498 32.1844 35.7578 32.4041 35.9764L32.4333 36.0056C32.7989 36.3723 33.2762 36.6067 33.7899 36.672C33.6973 37.0551 33.7044 37.4556 33.8103 37.8353C33.9163 38.2149 34.1176 38.5612 34.3952 38.841L34.4165 38.8596L34.4377 38.8809C34.8684 39.3077 35.4508 39.5464 36.0572 39.5446C36.0209 39.8839 36.0612 40.227 36.1752 40.5486C36.2891 40.8703 36.4738 41.1622 36.7156 41.403L36.7554 41.4481C37.0626 41.7546 37.45 41.9681 37.8731 42.0641L37.0767 42.9428L37.0554 42.9667C36.1048 43.9901 34.9362 44.7866 33.6361 45.2971C32.336 45.8077 30.9377 46.0193 29.5448 45.9163C28.1768 45.7977 26.8595 45.3416 25.7111 44.5889C25.7934 44.5889 25.8784 44.5889 25.9633 44.5889H26.189C27.5164 44.5039 28.7297 43.6995 29.8129 42.1995C29.8911 42.0849 29.9213 41.9443 29.8972 41.8077C29.873 41.6712 29.7964 41.5494 29.6837 41.4686C29.571 41.3878 29.4311 41.3543 29.294 41.3753C29.1569 41.3963 29.0335 41.4701 28.9501 41.5809C28.066 42.8127 27.1182 43.4711 26.1306 43.5375C24.7527 43.6278 23.6934 42.526 23.6775 42.5101C23.654 42.4855 23.6282 42.4633 23.6005 42.4437C22.7695 41.1322 22.1987 39.3322 22.2252 36.8446C22.2412 35.4401 22.1137 34.1711 20.3907 31.7074C19.9898 31.1445 19.881 30.3321 20.5314 29.8118Z"/>
</mask>
<path d="M19.5173 32.3233C21.1845 34.7127 21.1713 35.7906 21.1606 36.8366C21.081 44.4402 26.3509 46.7898 29.481 46.9782C29.72 46.9915 29.951 46.9995 30.1819 46.9995C31.6294 47.0167 33.064 46.7267 34.3912 46.1487C35.7183 45.5707 36.9078 44.7178 37.8811 43.6464L39.62 41.7295L39.6492 41.695L40.5121 40.7419C40.8176 40.4362 41.035 40.0537 41.1416 39.6348C41.2481 39.216 41.2398 38.7761 41.1176 38.3615C40.9953 37.947 40.7636 37.573 40.4468 37.279C40.1301 36.9849 39.7399 36.7817 39.3174 36.6906C39.4003 36.3892 39.4169 36.0735 39.366 35.7651C39.315 35.4567 39.1978 35.1631 39.0224 34.9044C38.847 34.6457 38.6176 34.4281 38.35 34.2667C38.0823 34.1053 37.7829 34.0038 37.4722 33.9693C37.5585 33.7309 37.6034 33.4795 37.605 33.226C37.6064 32.6723 37.4156 32.1353 37.065 31.7067C36.7144 31.2782 36.2258 30.9847 35.6828 30.8764L38.5634 27.9852C38.7894 27.76 38.9682 27.4919 39.0895 27.1968C39.2108 26.9016 39.2721 26.5853 39.2698 26.2662C39.2675 25.9471 39.2017 25.6317 39.0762 25.3384C38.9506 25.045 38.7679 24.7796 38.5387 24.5576C38.3095 24.3356 38.0384 24.1615 37.7411 24.0454C37.4439 23.9294 37.1265 23.8737 36.8075 23.8816C36.4885 23.8895 36.1743 23.9609 35.8832 24.0916C35.5921 24.2223 35.33 24.4096 35.112 24.6427C31.9554 28.0118 28.0315 31.8454 26.4837 32.4746C25.581 32.8463 25.3633 32.5569 24.6651 31.4127C24.1801 30.5162 23.536 29.7155 22.7642 29.0498C21.8456 28.3038 20.7651 28.2826 19.8704 28.9914C18.8589 29.7905 18.7128 31.1658 19.5173 32.3233ZM38.805 37.7021C38.9811 37.7014 39.1557 37.7358 39.3184 37.8033C39.4811 37.8707 39.6288 37.9699 39.7528 38.095C39.8779 38.2218 39.9767 38.3721 40.0436 38.5373C40.1104 38.7024 40.1439 38.8791 40.1422 39.0573C40.1405 39.2354 40.1035 39.4115 40.0335 39.5753C39.9635 39.7391 39.8618 39.8875 39.7342 40.0118L38.8926 40.9384C38.6672 41.0448 38.4146 41.0798 38.1688 41.0385C37.9229 40.9972 37.6956 40.8817 37.5174 40.7074L37.4696 40.657C37.2525 40.444 37.122 40.1582 37.1033 39.8547C37.0847 39.5511 37.1793 39.2515 37.3687 39.0136L38.6961 37.6862L38.805 37.7021ZM38.0085 35.3286C38.2051 35.5236 38.3209 35.7855 38.3327 36.0622C38.3445 36.3388 38.2515 36.6097 38.0722 36.8207C38.05 36.841 38.0296 36.8632 38.0112 36.887L36.4873 38.4109C36.2721 38.4897 36.0391 38.5065 35.8148 38.4596C35.5905 38.4127 35.3839 38.3038 35.2182 38.1455L35.1545 38.0817C34.9455 37.8647 34.8227 37.579 34.8091 37.278C34.7954 36.9771 34.8918 36.6814 35.0802 36.4463C35.2926 36.2817 36.182 35.5782 36.6545 35.172C36.8648 35.0446 37.1115 34.9909 37.3557 35.0193C37.5999 35.0476 37.8277 35.1565 38.0032 35.3286H38.0085ZM36.1501 32.2729C36.2752 32.3969 36.3744 32.5445 36.4418 32.7073C36.5093 32.87 36.5437 33.0445 36.543 33.2206C36.5083 33.6519 36.3086 34.0533 35.9855 34.341C35.6616 34.6224 34.9634 35.1826 34.4483 35.5861C34.2287 35.6488 33.9963 35.6513 33.7754 35.5934C33.5545 35.5355 33.3532 35.4193 33.1926 35.2569L33.1581 35.2224C32.9163 34.9805 32.7805 34.6525 32.7805 34.3105C32.7805 33.9685 32.9163 33.6405 33.1581 33.3985L34.4058 32.1507C34.6615 31.9567 34.9788 31.8619 35.299 31.8839C35.6192 31.9059 35.9206 32.0431 36.1475 32.2702L36.1501 32.2729ZM20.5314 29.8118C21.0412 29.4082 21.5536 29.4242 22.0952 29.8622C22.7709 30.4514 23.334 31.1585 23.7571 31.949C24.0034 32.4098 24.3126 32.8342 24.6757 33.21C24.6856 33.2247 24.6962 33.2389 24.7076 33.2525C24.7527 33.3003 25.7695 34.4127 24.7341 36.0295C24.6643 36.148 24.6433 36.289 24.6754 36.4227C24.7075 36.5565 24.7902 36.6725 24.9061 36.7465C25.0221 36.8205 25.1622 36.8466 25.297 36.8193C25.4318 36.792 25.5507 36.7135 25.6288 36.6003C25.9218 36.1803 26.1176 35.7003 26.2021 35.1952C26.2866 34.6901 26.2576 34.1725 26.1173 33.6799C26.3803 33.644 26.6374 33.5734 26.8819 33.4702C28.9713 32.6127 33.8696 27.5286 35.882 25.3808C36.0042 25.2489 36.152 25.1433 36.3162 25.0703C36.4805 24.9973 36.6579 24.9584 36.8377 24.956C37.0177 24.9532 37.1965 24.9865 37.3634 25.054C37.5303 25.1215 37.682 25.2218 37.8094 25.3489C37.9342 25.4735 38.0333 25.6214 38.1008 25.7843C38.1684 25.9471 38.2032 26.1217 38.2032 26.298C38.2032 26.4744 38.1684 26.649 38.1008 26.8118C38.0333 26.9747 37.9342 27.1226 37.8094 27.2472L32.4041 32.6419C32.1844 32.8605 32.0102 33.1203 31.8912 33.4064C31.7723 33.6925 31.7111 33.9993 31.7111 34.3091C31.7111 34.619 31.7723 34.9258 31.8912 35.2119C32.0102 35.498 32.1844 35.7578 32.4041 35.9764L32.4333 36.0056C32.7989 36.3723 33.2762 36.6067 33.7899 36.672C33.6973 37.0551 33.7044 37.4556 33.8103 37.8353C33.9163 38.2149 34.1176 38.5612 34.3952 38.841L34.4165 38.8596L34.4377 38.8809C34.8684 39.3077 35.4508 39.5464 36.0572 39.5446C36.0209 39.8839 36.0612 40.227 36.1752 40.5486C36.2891 40.8703 36.4738 41.1622 36.7156 41.403L36.7554 41.4481C37.0626 41.7546 37.45 41.9681 37.8731 42.0641L37.0767 42.9428L37.0554 42.9667C36.1048 43.9901 34.9362 44.7866 33.6361 45.2971C32.336 45.8077 30.9377 46.0193 29.5448 45.9163C28.1768 45.7977 26.8595 45.3416 25.7111 44.5889C25.7934 44.5889 25.8784 44.5889 25.9633 44.5889H26.189C27.5164 44.5039 28.7297 43.6995 29.8129 42.1995C29.8911 42.0849 29.9213 41.9443 29.8972 41.8077C29.873 41.6712 29.7964 41.5494 29.6837 41.4686C29.571 41.3878 29.4311 41.3543 29.294 41.3753C29.1569 41.3963 29.0335 41.4701 28.9501 41.5809C28.066 42.8127 27.1182 43.4711 26.1306 43.5375C24.7527 43.6278 23.6934 42.526 23.6775 42.5101C23.654 42.4855 23.6282 42.4633 23.6005 42.4437C22.7695 41.1322 22.1987 39.3322 22.2252 36.8446C22.2412 35.4401 22.1137 34.1711 20.3907 31.7074C19.9898 31.1445 19.881 30.3321 20.5314 29.8118Z" fill="#4164A9"/>
<path d="M19.5173 32.3233C21.1845 34.7127 21.1713 35.7906 21.1606 36.8366C21.081 44.4402 26.3509 46.7898 29.481 46.9782C29.72 46.9915 29.951 46.9995 30.1819 46.9995C31.6294 47.0167 33.064 46.7267 34.3912 46.1487C35.7183 45.5707 36.9078 44.7178 37.8811 43.6464L39.62 41.7295L39.6492 41.695L40.5121 40.7419C40.8176 40.4362 41.035 40.0537 41.1416 39.6348C41.2481 39.216 41.2398 38.7761 41.1176 38.3615C40.9953 37.947 40.7636 37.573 40.4468 37.279C40.1301 36.9849 39.7399 36.7817 39.3174 36.6906C39.4003 36.3892 39.4169 36.0735 39.366 35.7651C39.315 35.4567 39.1978 35.1631 39.0224 34.9044C38.847 34.6457 38.6176 34.4281 38.35 34.2667C38.0823 34.1053 37.7829 34.0038 37.4722 33.9693C37.5585 33.7309 37.6034 33.4795 37.605 33.226C37.6064 32.6723 37.4156 32.1353 37.065 31.7067C36.7144 31.2782 36.2258 30.9847 35.6828 30.8764L38.5634 27.9852C38.7894 27.76 38.9682 27.4919 39.0895 27.1968C39.2108 26.9016 39.2721 26.5853 39.2698 26.2662C39.2675 25.9471 39.2017 25.6317 39.0762 25.3384C38.9506 25.045 38.7679 24.7796 38.5387 24.5576C38.3095 24.3356 38.0384 24.1615 37.7411 24.0454C37.4439 23.9294 37.1265 23.8737 36.8075 23.8816C36.4885 23.8895 36.1743 23.9609 35.8832 24.0916C35.5921 24.2223 35.33 24.4096 35.112 24.6427C31.9554 28.0118 28.0315 31.8454 26.4837 32.4746C25.581 32.8463 25.3633 32.5569 24.6651 31.4127C24.1801 30.5162 23.536 29.7155 22.7642 29.0498C21.8456 28.3038 20.7651 28.2826 19.8704 28.9914C18.8589 29.7905 18.7128 31.1658 19.5173 32.3233ZM38.805 37.7021C38.9811 37.7014 39.1557 37.7358 39.3184 37.8033C39.4811 37.8707 39.6288 37.9699 39.7528 38.095C39.8779 38.2218 39.9767 38.3721 40.0436 38.5373C40.1104 38.7024 40.1439 38.8791 40.1422 39.0573C40.1405 39.2354 40.1035 39.4115 40.0335 39.5753C39.9635 39.7391 39.8618 39.8875 39.7342 40.0118L38.8926 40.9384C38.6672 41.0448 38.4146 41.0798 38.1688 41.0385C37.9229 40.9972 37.6956 40.8817 37.5174 40.7074L37.4696 40.657C37.2525 40.444 37.122 40.1582 37.1033 39.8547C37.0847 39.5511 37.1793 39.2515 37.3687 39.0136L38.6961 37.6862L38.805 37.7021ZM38.0085 35.3286C38.2051 35.5236 38.3209 35.7855 38.3327 36.0622C38.3445 36.3388 38.2515 36.6097 38.0722 36.8207C38.05 36.841 38.0296 36.8632 38.0112 36.887L36.4873 38.4109C36.2721 38.4897 36.0391 38.5065 35.8148 38.4596C35.5905 38.4127 35.3839 38.3038 35.2182 38.1455L35.1545 38.0817C34.9455 37.8647 34.8227 37.579 34.8091 37.278C34.7954 36.9771 34.8918 36.6814 35.0802 36.4463C35.2926 36.2817 36.182 35.5782 36.6545 35.172C36.8648 35.0446 37.1115 34.9909 37.3557 35.0193C37.5999 35.0476 37.8277 35.1565 38.0032 35.3286H38.0085ZM36.1501 32.2729C36.2752 32.3969 36.3744 32.5445 36.4418 32.7073C36.5093 32.87 36.5437 33.0445 36.543 33.2206C36.5083 33.6519 36.3086 34.0533 35.9855 34.341C35.6616 34.6224 34.9634 35.1826 34.4483 35.5861C34.2287 35.6488 33.9963 35.6513 33.7754 35.5934C33.5545 35.5355 33.3532 35.4193 33.1926 35.2569L33.1581 35.2224C32.9163 34.9805 32.7805 34.6525 32.7805 34.3105C32.7805 33.9685 32.9163 33.6405 33.1581 33.3985L34.4058 32.1507C34.6615 31.9567 34.9788 31.8619 35.299 31.8839C35.6192 31.9059 35.9206 32.0431 36.1475 32.2702L36.1501 32.2729ZM20.5314 29.8118C21.0412 29.4082 21.5536 29.4242 22.0952 29.8622C22.7709 30.4514 23.334 31.1585 23.7571 31.949C24.0034 32.4098 24.3126 32.8342 24.6757 33.21C24.6856 33.2247 24.6962 33.2389 24.7076 33.2525C24.7527 33.3003 25.7695 34.4127 24.7341 36.0295C24.6643 36.148 24.6433 36.289 24.6754 36.4227C24.7075 36.5565 24.7902 36.6725 24.9061 36.7465C25.0221 36.8205 25.1622 36.8466 25.297 36.8193C25.4318 36.792 25.5507 36.7135 25.6288 36.6003C25.9218 36.1803 26.1176 35.7003 26.2021 35.1952C26.2866 34.6901 26.2576 34.1725 26.1173 33.6799C26.3803 33.644 26.6374 33.5734 26.8819 33.4702C28.9713 32.6127 33.8696 27.5286 35.882 25.3808C36.0042 25.2489 36.152 25.1433 36.3162 25.0703C36.4805 24.9973 36.6579 24.9584 36.8377 24.956C37.0177 24.9532 37.1965 24.9865 37.3634 25.054C37.5303 25.1215 37.682 25.2218 37.8094 25.3489C37.9342 25.4735 38.0333 25.6214 38.1008 25.7843C38.1684 25.9471 38.2032 26.1217 38.2032 26.298C38.2032 26.4744 38.1684 26.649 38.1008 26.8118C38.0333 26.9747 37.9342 27.1226 37.8094 27.2472L32.4041 32.6419C32.1844 32.8605 32.0102 33.1203 31.8912 33.4064C31.7723 33.6925 31.7111 33.9993 31.7111 34.3091C31.7111 34.619 31.7723 34.9258 31.8912 35.2119C32.0102 35.498 32.1844 35.7578 32.4041 35.9764L32.4333 36.0056C32.7989 36.3723 33.2762 36.6067 33.7899 36.672C33.6973 37.0551 33.7044 37.4556 33.8103 37.8353C33.9163 38.2149 34.1176 38.5612 34.3952 38.841L34.4165 38.8596L34.4377 38.8809C34.8684 39.3077 35.4508 39.5464 36.0572 39.5446C36.0209 39.8839 36.0612 40.227 36.1752 40.5486C36.2891 40.8703 36.4738 41.1622 36.7156 41.403L36.7554 41.4481C37.0626 41.7546 37.45 41.9681 37.8731 42.0641L37.0767 42.9428L37.0554 42.9667C36.1048 43.9901 34.9362 44.7866 33.6361 45.2971C32.336 45.8077 30.9377 46.0193 29.5448 45.9163C28.1768 45.7977 26.8595 45.3416 25.7111 44.5889C25.7934 44.5889 25.8784 44.5889 25.9633 44.5889H26.189C27.5164 44.5039 28.7297 43.6995 29.8129 42.1995C29.8911 42.0849 29.9213 41.9443 29.8972 41.8077C29.873 41.6712 29.7964 41.5494 29.6837 41.4686C29.571 41.3878 29.4311 41.3543 29.294 41.3753C29.1569 41.3963 29.0335 41.4701 28.9501 41.5809C28.066 42.8127 27.1182 43.4711 26.1306 43.5375C24.7527 43.6278 23.6934 42.526 23.6775 42.5101C23.654 42.4855 23.6282 42.4633 23.6005 42.4437C22.7695 41.1322 22.1987 39.3322 22.2252 36.8446C22.2412 35.4401 22.1137 34.1711 20.3907 31.7074C19.9898 31.1445 19.881 30.3321 20.5314 29.8118Z" stroke="#4164A9" mask="url(#path-3-outside-1)"/>
<path d="M28.7985 23.8222L27.625 23.9921L28.4746 24.8204L28.2728 25.9886L29.3215 25.4364L30.3701 25.9886L30.1684 24.8204L31.0179 23.9921L29.8445 23.8222L29.3215 22.7603L28.7985 23.8222Z" fill="#4164A9"/>
<path d="M30.5056 17.437L30.864 18.244L31.2888 17.4662L32.1675 17.3759L31.5596 16.7334L31.7454 15.8679L30.9463 16.2476L30.179 15.8042L30.2932 16.683L29.6348 17.275L30.5056 17.437Z" fill="#4164A9"/>
</svg>
