<svg width="14" height="14" viewBox="0 0 14 14" fill="none" xmlns="http://www.w3.org/2000/svg">
<path fill-rule="evenodd" clip-rule="evenodd" d="M2.50065 1.63785C5.46217 -0.84716 9.87746 -0.460872 12.3625 2.50065C14.8475 5.46217 14.4612 9.87746 11.4997 12.3625C8.53815 14.8475 4.12286 14.4612 1.63785 11.4997C-0.847161 8.53815 -0.460873 4.12286 2.50065 1.63785ZM9.29426 3.66679C8.17673 2.79767 6.15352 2.62878 4.88594 3.28923C4.60523 3.43518 4.34658 3.60741 4.10998 3.80594L4.02236 3.87947C2.50811 5.22473 2.18492 7.52674 3.30235 9.23216L3.323 9.27456L2.92868 9.60544C2.85858 9.66426 2.85153 9.74484 2.87076 9.80336C2.88859 9.87799 2.9446 9.98033 3.06194 10.0312L4.45412 10.2667C4.60652 10.2881 4.75579 10.2525 4.86094 10.1642C4.96609 10.076 5.02713 9.93518 5.03246 9.78138L5.03074 8.40904L5.03215 8.39292L5.03497 8.36069L5.03638 8.34457C5.01402 8.22895 4.92296 8.15602 4.85256 8.12551C4.76604 8.09358 4.68405 8.10264 4.63147 8.14676L4.2021 8.50705L4.16674 8.44712C3.46248 7.2163 3.70047 5.70255 4.75764 4.75574L4.84527 4.68222L4.88032 4.6528C6.12181 3.64094 7.99122 3.80449 9.03814 5.01657C9.5616 5.62261 9.81764 6.40824 9.75591 7.20666C9.68541 8.01244 9.31295 8.74308 8.69079 9.26513L8.48925 9.43425C8.36657 9.53719 8.34965 9.73058 8.45259 9.85326L8.82758 10.3002C8.93052 10.4228 9.12391 10.4398 9.24659 10.3368L9.46566 10.153C10.4296 9.34418 10.9718 8.15747 10.9515 6.90529C10.9164 5.63558 10.3207 4.46298 9.29426 3.66679ZM5.60065 6.65376C5.33398 6.80772 5.33398 7.19262 5.60065 7.34658L7.40065 8.38581C7.66731 8.53977 8.00065 8.34732 8.00065 8.0394V5.96094C8.00065 5.65302 7.66731 5.46057 7.40065 5.61453L5.60065 6.65376Z" fill="#52BACC"/>
</svg>
