<svg width="30" height="30" viewBox="0 0 30 30" fill="none" xmlns="http://www.w3.org/2000/svg">
<rect width="30" height="30" rx="6" fill="#EDF4FF"/>
<path d="M21.5625 12.8125C21.8041 12.8125 22 12.6166 22 12.375V11.0625C22 10.8209 21.8041 10.625 21.5625 10.625C21.3209 10.625 21.125 10.8209 21.125 11.0625V11.9375H19.8125C19.8125 10.9725 19.0275 10.1875 18.0625 10.1875V8.875H18.9375C19.1791 8.875 19.375 8.67911 19.375 8.4375C19.375 8.19589 19.1791 8 18.9375 8H17.625C17.3834 8 17.1875 8.19589 17.1875 8.4375V10.1875H16.3125V8.4375C16.3125 8.19589 16.1166 8 15.875 8C15.6334 8 15.4375 8.19589 15.4375 8.4375V10.1875H14.5625V8.4375C14.5625 8.19589 14.3666 8 14.125 8C13.8834 8 13.6875 8.19589 13.6875 8.4375V10.1875H12.8125V8.4375C12.8125 8.19589 12.6166 8 12.375 8H11.0625C10.8209 8 10.625 8.19589 10.625 8.4375C10.625 8.67911 10.8209 8.875 11.0625 8.875H11.9375V10.1875C10.9725 10.1875 10.1875 10.9725 10.1875 11.9375H8.875V11.0625C8.875 10.8209 8.67914 10.625 8.4375 10.625C8.19586 10.625 8 10.8209 8 11.0625V12.375C8 12.6166 8.19586 12.8125 8.4375 12.8125H10.1875V13.6875H8.4375C8.19586 13.6875 8 13.8834 8 14.125C8 14.3666 8.19586 14.5625 8.4375 14.5625H10.1875V15.4375H8.4375C8.19586 15.4375 8 15.6334 8 15.875C8 16.1166 8.19586 16.3125 8.4375 16.3125H10.1875V17.1875H8.4375C8.19586 17.1875 8 17.3834 8 17.625V18.9375C8 19.1791 8.19586 19.375 8.4375 19.375C8.67914 19.375 8.875 19.1791 8.875 18.9375V18.0625H10.1875C10.1875 19.0275 10.9725 19.8125 11.9375 19.8125V21.125H11.0625C10.8209 21.125 10.625 21.3209 10.625 21.5625C10.625 21.8041 10.8209 22 11.0625 22H12.375C12.6166 22 12.8125 21.8041 12.8125 21.5625V19.8125H13.6875V21.5625C13.6875 21.8041 13.8834 22 14.125 22C14.3666 22 14.5625 21.8041 14.5625 21.5625V19.8125H15.4375V21.5625C15.4375 21.8041 15.6334 22 15.875 22C16.1166 22 16.3125 21.8041 16.3125 21.5625V19.8125H17.1875V21.5625C17.1875 21.8041 17.3834 22 17.625 22H18.9375C19.1791 22 19.375 21.8041 19.375 21.5625C19.375 21.3209 19.1791 21.125 18.9375 21.125H18.0625V19.8125C19.0275 19.8125 19.8125 19.0275 19.8125 18.0625H21.125V18.9375C21.125 19.1791 21.3209 19.375 21.5625 19.375C21.8041 19.375 22 19.1791 22 18.9375V17.625C22 17.3834 21.8041 17.1875 21.5625 17.1875H19.8125V16.3125H21.5625C21.8041 16.3125 22 16.1166 22 15.875C22 15.6334 21.8041 15.4375 21.5625 15.4375H19.8125V14.5625H21.5625C21.8041 14.5625 22 14.3666 22 14.125C22 13.8834 21.8041 13.6875 21.5625 13.6875H19.8125V12.8125H21.5625ZM18.9375 18.0625C18.9375 18.545 18.545 18.9375 18.0625 18.9375H11.9375C11.455 18.9375 11.0625 18.545 11.0625 18.0625V11.9375C11.0625 11.455 11.455 11.0625 11.9375 11.0625H18.0625C18.545 11.0625 18.9375 11.455 18.9375 11.9375V18.0625Z" fill="#5C638B"/>
<path d="M17.625 11.9375H12.375C12.1334 11.9375 11.9375 12.1334 11.9375 12.375V17.625C11.9375 17.8666 12.1334 18.0625 12.375 18.0625H17.625C17.8666 18.0625 18.0625 17.8666 18.0625 17.625V12.375C18.0625 12.1334 17.8666 11.9375 17.625 11.9375ZM17.1875 17.1875H12.8125V12.8125H17.1875V17.1875Z" fill="#5C638B"/>
<path d="M14.5625 16.75H16.3125C16.5541 16.75 16.75 16.5541 16.75 16.3125V14.5625C16.75 14.3209 16.5541 14.125 16.3125 14.125C16.0709 14.125 15.875 14.3209 15.875 14.5625V15.875H14.5625C14.3209 15.875 14.125 16.0709 14.125 16.3125C14.125 16.5541 14.3209 16.75 14.5625 16.75Z" fill="#5C638B"/>
</svg>
