<svg width="30" height="30" viewBox="0 0 30 30" fill="none" xmlns="http://www.w3.org/2000/svg">
<rect width="30" height="30" rx="6" fill="#EDF4FF"/>
<path d="M22.4432 20.8983C22.6785 20.896 22.9035 20.8015 23.0699 20.6351C23.2363 20.4687 23.3308 20.2437 23.3331 20.0084V10.4026C23.3308 10.1673 23.2363 9.9423 23.0699 9.77592C22.9035 9.60954 22.6785 9.51504 22.4432 9.5127H20.6365V10.1119H22.4432C22.5196 10.1142 22.5922 10.1455 22.6462 10.1996C22.7003 10.2536 22.7316 10.3262 22.7339 10.4026V20.0069C22.7316 20.0833 22.7003 20.1559 22.6462 20.2099C22.5922 20.264 22.5196 20.2953 22.4432 20.2976H8.64268C8.56657 20.2953 8.49416 20.2642 8.44017 20.2105C8.38619 20.1568 8.35468 20.0845 8.35205 20.0084V10.4026C8.35431 10.3262 8.38565 10.2536 8.43967 10.1996C8.4937 10.1455 8.56632 10.1142 8.64268 10.1119H14.9437V9.5127H8.64268C8.4074 9.51504 8.18241 9.60954 8.01603 9.77592C7.84965 9.9423 7.75515 10.1673 7.75281 10.4026V20.0069C7.75476 20.2425 7.84909 20.4678 8.01551 20.6345C8.18193 20.8012 8.40714 20.896 8.64268 20.8983H5.95508C5.95508 21.4975 6.55432 22.0968 7.15356 22.0968H23.9324C24.5316 22.0968 25.1308 21.4975 25.1308 20.8983H22.4432Z" fill="#5C638B"/>
<path d="M15.541 9.81197V10.561H16.7395V9.81197C16.7395 9.25572 16.9605 8.72225 17.3538 8.32892C17.7471 7.9356 18.2806 7.71463 18.8368 7.71463H19.7837L18.5852 8.91311L19.4361 9.75804L22.0743 7.11538L19.4361 4.46973L18.5897 5.31765L19.7881 6.51614H18.8368C17.9627 6.51614 17.1244 6.86338 16.5063 7.48147C15.8883 8.09956 15.541 8.93786 15.541 9.81197Z" fill="#5C638B"/>
<path d="M12.505 15.5043L11.7559 16.2534C11.4257 16.5847 11.2402 17.0335 11.2402 17.5013C11.2402 17.9691 11.4257 18.4179 11.7559 18.7492L12.0331 19.0264C12.3644 19.3566 12.8132 19.5421 13.281 19.5421C13.7488 19.5421 14.1976 19.3566 14.5289 19.0264L15.278 18.2773C15.5812 17.9739 15.7637 17.5704 15.7913 17.1423C15.8188 16.7141 15.6896 16.2906 15.4278 15.9508L16.2652 15.1133C16.6053 15.376 17.0295 15.5057 17.4583 15.4781C17.8871 15.4505 18.2912 15.2676 18.5948 14.9635L19.3438 14.2145C19.6746 13.8828 19.8604 13.4335 19.8604 12.965C19.8604 12.4966 19.6746 12.0473 19.3438 11.7156L19.0637 11.4594C18.732 11.1286 18.2827 10.9429 17.8143 10.9429C17.3458 10.9429 16.8965 11.1286 16.5648 11.4594L15.8158 12.2085C15.5123 12.5124 15.3298 12.9164 15.3022 13.3451C15.2746 13.7737 15.4039 14.1977 15.666 14.538L14.8285 15.3755C14.4914 15.1118 14.0699 14.9795 13.6425 15.0032C13.2152 15.0269 12.8109 15.2049 12.505 15.5043ZM14.6862 17.6916L13.9372 18.4406C13.7626 18.6137 13.5268 18.7108 13.281 18.7108C13.0352 18.7108 12.7994 18.6137 12.6248 18.4406L12.3477 18.1635C12.1746 17.9889 12.0775 17.7531 12.0775 17.5073C12.0775 17.2615 12.1746 17.0256 12.3477 16.8511L13.0967 16.1021C13.2434 15.9554 13.4349 15.8622 13.6407 15.8372C13.8466 15.8122 14.0549 15.857 14.2323 15.9642L13.5447 16.6519C13.5058 16.6907 13.475 16.7369 13.454 16.7876C13.4329 16.8384 13.4221 16.8928 13.4221 16.9478C13.4221 17.0027 13.4329 17.0571 13.454 17.1079C13.475 17.1586 13.5058 17.2048 13.5447 17.2436C13.5835 17.2825 13.6296 17.3133 13.6804 17.3343C13.7312 17.3554 13.7856 17.3662 13.8405 17.3662C13.8955 17.3662 13.9499 17.3554 14.0007 17.3343C14.0514 17.3133 14.0976 17.2825 14.1364 17.2436L14.8226 16.553C14.9305 16.7307 14.9758 16.9394 14.9511 17.1458C14.9263 17.3523 14.8331 17.5444 14.6862 17.6916ZM16.1379 13.4489C16.1372 13.3266 16.1608 13.2053 16.2074 13.0922C16.2539 12.979 16.3225 12.8762 16.409 12.7898L17.1581 12.0407C17.3328 11.8662 17.5696 11.7683 17.8165 11.7683C18.0634 11.7683 18.3002 11.8662 18.4749 12.0407L18.7476 12.3134C18.9217 12.4883 19.0194 12.725 19.0194 12.9718C19.0194 13.2186 18.9217 13.4553 18.7476 13.6302L17.9985 14.3792C17.8516 14.5258 17.6599 14.619 17.4539 14.6443C17.248 14.6695 17.0395 14.6253 16.8615 14.5186L17.5491 13.8309C17.6276 13.7525 17.6717 13.646 17.6717 13.5351C17.6717 13.4241 17.6276 13.3177 17.5491 13.2392C17.4706 13.1607 17.3642 13.1166 17.2532 13.1166C17.1423 13.1166 17.0358 13.1607 16.9574 13.2392L16.2712 13.9253C16.1845 13.7815 16.1384 13.6169 16.1379 13.4489Z" fill="#5C638B"/>
</svg>
