<svg width="60" height="60" viewBox="0 0 60 60" fill="none" xmlns="http://www.w3.org/2000/svg">
<rect width="60" height="60" rx="18" fill="#EFF4FD"/>
<path d="M30.9752 23.4619V14H29.0478V23.4619L19.5274 28.777L19.4106 39.8159L11 44.7805L11.9929 46.4743L20.4619 41.4513L29.7487 47L39.269 41.6265L47.7965 46.4743L48.731 44.7805L40.262 39.9327L40.3788 29.0106L30.9752 23.4619ZM29.9239 33.8584L22.4478 29.4195L30.0407 25.1558L37.5168 29.5947L29.9239 33.8584ZM21.4549 31.0549L28.931 35.4938L28.8142 44.1381L21.3381 39.6991L21.4549 31.0549ZM30.7416 44.1965L30.8584 35.5522L38.4513 31.2885L38.3345 39.9327L30.7416 44.1965Z" fill="#4164A9"/>
</svg>
