<svg width="32" height="32" viewBox="0 0 32 32" fill="none" xmlns="http://www.w3.org/2000/svg">
<circle cx="16" cy="16" r="16" fill="#E8EEFB"/>
<path d="M21.7166 9.03958L21.7033 9.01322C21.6968 9.00667 21.6902 9 21.677 9L21.6506 9.00667C21.6375 9.01982 21.6308 9.02643 21.6308 9.03958L21.0703 19.1873L21.1561 19.1742L21.6968 9.30268L22.343 10.3644H22.3364C22.8244 11.8019 23.0288 13.3317 22.9497 14.9539L22.9893 15.0133L23.6289 16.1474L23.6684 16.187C24.651 17.0508 25.7521 17.6311 26.9721 17.9278L27.2689 18.4092L27.3084 18.4224L27.315 18.4092L21.7033 9.23019L21.7166 9.03894" fill="#BDBDBD"/>
<path d="M21.5195 12.6201C22.2119 14.0379 22.4624 16.181 22.2779 19.0494L24.9748 18.7197L21.5195 12.6201Z" fill="#BDBDBD"/>
<path d="M27.665 18.8518C27.9419 18.8189 28.1199 18.7595 28.1991 18.6738L14.0877 20.3949H14.0811C14.0877 20.9818 14.3514 21.4434 14.8657 21.7731C15.0042 21.872 15.1493 21.9445 15.2812 21.9907C15.4064 21.8456 15.545 21.7401 15.7098 21.6412H15.7164C17.1935 20.7444 19.3894 20.6059 22.2907 21.2192L22.3237 21.2257C22.6403 21.2917 22.9568 21.3709 23.2535 21.4631C23.3392 21.4763 23.4117 21.45 23.4711 21.3972C23.5766 21.3181 23.7085 21.2587 23.8866 21.2192V21.2126C24.3548 20.3817 24.9877 19.7685 25.7791 19.3662C26.3264 19.0959 26.9594 18.9178 27.665 18.8518Z" fill="#BDBDBD"/>
<path d="M20.8869 19.1085L21.5331 9.2041C20.5967 12.8177 19.0933 16.1939 17.0293 19.3261L20.8869 19.1085Z" fill="#BDBDBD"/>
<path d="M17.2524 11.1304L17.226 11.1172L17.1997 11.1238L17.1864 11.1567L16.6523 19.7291L16.7314 19.7225L17.2656 11.1567L17.2524 11.1304Z" fill="#BDBDBD"/>
<path d="M16.5011 19.544L17.0682 11.1826L14.0811 19.8012L16.5011 19.544Z" fill="#BDBDBD"/>
<path d="M16.6196 22.3311C15.8744 22.6871 15.3337 22.7465 14.9908 22.5289C14.6479 22.2981 14.1203 22.3508 13.4082 22.6871" stroke="#CCCCCC" stroke-width="0.25" stroke-linecap="round" stroke-linejoin="round"/>
<path d="M18.3664 22.3838C18.228 22.3377 18.0763 22.3047 17.918 22.2915C17.595 22.2652 17.2059 22.3905 16.7509 22.6608C16.2959 22.9378 15.7486 23.0433 15.0957 22.9839" stroke="#CCCCCC" stroke-width="0.25" stroke-linecap="round" stroke-linejoin="round"/>
<path d="M22.4348 21.7104C19.2959 21.0643 17.0342 21.2159 15.6494 22.172" stroke="#CCCCCC" stroke-width="0.25" stroke-linecap="round" stroke-linejoin="round"/>
<path d="M24.4133 22.0206C24.2748 21.9678 24.1231 21.9348 23.9649 21.9282C23.6418 21.9019 23.2527 22.0272 22.7977 22.2975C22.3427 22.5679 21.7954 22.6734 21.1426 22.6206" stroke="#CCCCCC" stroke-width="0.25" stroke-linecap="round" stroke-linejoin="round"/>
<path d="M20.1997 11.2085C19.8765 11.0107 19.5403 11.0635 19.1908 11.3734C18.8875 11.0635 18.571 11.0107 18.2412 11.2085" stroke="#CCCCCC" stroke-width="0.25" stroke-linecap="round" stroke-linejoin="round"/>
<path d="M19.467 10.1011C19.1373 9.90329 18.8143 9.98239 18.4845 10.3385C18.1613 9.98239 17.8317 9.90329 17.502 10.1011" stroke="#CCCCCC" stroke-width="0.25" stroke-linecap="round" stroke-linejoin="round"/>
<path d="M3.36474 20.4277H4.23879C4.50142 20.4277 4.69427 20.5025 4.81735 20.652C4.94039 20.8015 4.98031 21.0099 4.93711 21.2771C4.9194 21.3867 4.8878 21.4873 4.84228 21.579C4.79675 21.6706 4.73662 21.7543 4.66188 21.8301C4.573 21.9212 4.47352 21.9865 4.36336 22.0259C4.2532 22.0653 4.11232 22.085 3.94076 22.085H3.55144L3.45457 22.6844H3L3.36474 20.4277ZM3.76157 20.7847L3.60859 21.7313H3.88506C4.06833 21.7313 4.20415 21.6939 4.29257 21.619C4.38093 21.544 4.43921 21.4194 4.46742 21.2449C4.49461 21.0767 4.4788 20.9579 4.42013 20.8886C4.36141 20.8194 4.24572 20.7847 4.07302 20.7847H3.76157Z" fill="#6C78AF"/>
<path d="M5.44676 19.8281H5.8979L5.80104 20.4275H6.20239C6.45499 20.4275 6.63005 20.4754 6.72764 20.571C6.82527 20.6668 6.85691 20.821 6.82251 21.0338L6.65264 22.0848H6.19467L6.35633 21.0845C6.37474 20.9708 6.36582 20.8935 6.32961 20.8525C6.2934 20.8116 6.21764 20.791 6.10242 20.791H5.74234L5.53325 22.0848H5.08203L5.44676 19.8281Z" fill="#6C78AF"/>
<path d="M7.31391 20.4277H8.18796C8.45065 20.4277 8.64344 20.5025 8.76652 20.652C8.88958 20.8015 8.92948 21.0099 8.88631 21.2771C8.8686 21.3867 8.83697 21.4873 8.79151 21.579C8.74594 21.6706 8.68576 21.7543 8.61107 21.8301C8.52217 21.9212 8.42269 21.9865 8.31253 22.0259C8.20239 22.0653 8.06152 22.085 7.88989 22.085H7.50063L7.40376 22.6844H6.94922L7.31391 20.4277ZM7.71079 20.7847L7.55781 21.7313H7.83428C8.01754 21.7313 8.15334 21.6939 8.24172 21.619C8.33009 21.544 8.38841 21.4194 8.41661 21.2449C8.44378 21.0767 8.428 20.9579 8.36929 20.8886C8.31058 20.8194 8.19488 20.7847 8.02224 20.7847H7.71079Z" fill="#6C78AF"/>
<path d="M9.65578 19.3477H10.5301L10.9141 21.4459L11.9764 19.3477H12.8474L12.4055 22.082H11.8218L12.2142 19.9522L11.143 22.082H10.5105L10.1083 19.9299L9.82016 22.082H9.21387L9.65578 19.3477Z" fill="#F89C0E"/>
<path d="M13.8959 21.6388H14.3373L14.5903 20.0732H15.1389L14.8231 22.0274C14.7803 22.2931 14.6842 22.4899 14.5352 22.6178C14.3861 22.7456 14.1793 22.8096 13.9148 22.8096H12.8389L12.9046 22.4028H13.8861C13.9915 22.4028 14.0764 22.3782 14.1409 22.329C14.2053 22.2797 14.2452 22.2084 14.2603 22.115L14.2657 22.0813H13.7801C13.4694 22.0813 13.2576 22.0221 13.1446 21.9037C13.0315 21.7852 12.9974 21.5877 13.042 21.3112L13.2421 20.0732H13.7846L13.5912 21.2703C13.5667 21.4217 13.574 21.521 13.6134 21.5681C13.6527 21.6153 13.7468 21.6388 13.8959 21.6388Z" fill="#F89C0E"/>
<path d="M16.6166 19.3477H17.2484L18.0141 22.082H17.3515L17.1966 21.4311H15.966L15.6084 22.082H14.9766L16.6166 19.3477ZM16.8217 19.8906L16.2374 20.943H17.081L16.8217 19.8906Z" fill="#F89C0E"/>
<path d="M20.0826 22.082H19.0286C18.7101 22.082 18.4762 21.9914 18.3268 21.8103C18.1776 21.6291 18.1292 21.3766 18.1815 21.0528C18.203 20.9201 18.2413 20.7982 18.2965 20.6871C18.3517 20.5761 18.4246 20.4747 18.5152 20.3828C18.623 20.2724 18.744 20.1933 18.8782 20.1456C19.0125 20.0978 19.183 20.0739 19.3898 20.0739H19.8605L19.9779 19.3477H20.5246L20.0826 22.082ZM19.6056 21.6514L19.7907 20.5065H19.4588C19.2363 20.5065 19.0711 20.5515 18.9633 20.6414C18.8556 20.7314 18.7847 20.8813 18.7508 21.091C18.7179 21.2946 18.7373 21.4389 18.8091 21.5239C18.8809 21.6089 19.021 21.6514 19.2294 21.6514H19.6056Z" fill="#F89C0E"/>
<path d="M20.8842 20.0732H22.9912C23.2967 20.0732 23.5076 20.1309 23.6237 20.2462C23.7398 20.3615 23.7769 20.5488 23.7351 20.8079L23.5292 22.0813H22.9764L23.1711 20.8768C23.195 20.7291 23.1876 20.6317 23.1491 20.5845C23.1105 20.5373 23.0194 20.5138 22.8759 20.5138H22.5681L22.3147 22.0813H21.7536L22.007 20.5138H21.3658L21.1124 22.0813H20.5596L20.8842 20.0732Z" fill="#F89C0E"/>
<path d="M24.9574 19.8457H24.382L24.4624 19.3477H25.0379L24.9574 19.8457ZM24.5959 22.082H24.0205L24.345 20.0739H24.9205L24.5959 22.082Z" fill="#F89C0E"/>
<path d="M25.3948 20.0732H26.4272C26.7392 20.0732 26.9528 20.13 27.068 20.2434C27.1832 20.3569 27.2196 20.5451 27.1771 20.8079L26.9713 22.0813H26.4226L26.6179 20.8731C26.6421 20.7229 26.6338 20.6255 26.5928 20.5808C26.5518 20.5361 26.4588 20.5138 26.3137 20.5138H25.8724L25.619 22.0813H25.0703L25.3948 20.0732Z" fill="#F89C0E"/>
</svg>
