<svg width="30" height="30" viewBox="0 0 30 30" fill="none" xmlns="http://www.w3.org/2000/svg">
<rect width="30" height="30" rx="6" fill="#EDF4FF"/>
<path d="M21.4886 23H8.875C7.84068 23 7 22.1593 7 21.125V9.875C7 8.84068 7.84068 8 8.875 8H21.4886C22.523 8 23.3636 8.84068 23.3636 9.875V21.125C23.3636 22.1593 22.523 23 21.4886 23ZM8.875 9.02273C8.40523 9.02273 8.02273 9.40523 8.02273 9.875V21.125C8.02273 21.5948 8.40523 21.9773 8.875 21.9773H21.4886C21.9584 21.9773 22.3409 21.5948 22.3409 21.125V9.875C22.3409 9.40523 21.9584 9.02273 21.4886 9.02273H8.875Z" fill="#5C638B"/>
<path d="M22.8523 11.409H7.51136C7.22909 11.409 7 11.1799 7 10.8976C7 10.6153 7.22909 10.3862 7.51136 10.3862H22.8523C23.1345 10.3862 23.3636 10.6153 23.3636 10.8976C23.3636 11.1799 23.1345 11.409 22.8523 11.409Z" fill="#5C638B"/>
<path d="M17.3986 18.5683C17.2806 18.5683 17.1627 18.5281 17.0659 18.4449C16.8518 18.2608 16.8265 17.9383 17.0106 17.7235L17.7477 16.8637L17.0099 16.0033C16.8259 15.7892 16.8511 15.466 17.0652 15.2819C17.2806 15.0978 17.6031 15.1231 17.7865 15.3371L18.8093 16.5303C18.9736 16.7219 18.9736 17.0042 18.8093 17.1965L17.7865 18.3896C17.6856 18.5076 17.5424 18.5683 17.3986 18.5683Z" fill="#5C638B"/>
<path d="M12.9662 18.5686C12.8224 18.5686 12.6792 18.5079 12.5776 18.3899L11.5549 17.1967C11.3906 17.0052 11.3906 16.7229 11.5549 16.5306L12.5776 15.3374C12.7617 15.1233 13.0842 15.0974 13.299 15.2822C13.5131 15.4663 13.5383 15.7888 13.3542 16.0036L12.6172 16.864L13.3549 17.7245C13.539 17.9386 13.5137 18.2617 13.2997 18.4458C13.2028 18.5277 13.0842 18.5686 12.9662 18.5686Z" fill="#5C638B"/>
<path d="M14.6702 19.5906C14.6321 19.5906 14.5939 19.5865 14.555 19.5776C14.2796 19.5142 14.1084 19.2395 14.1712 18.9647L15.1939 14.5329C15.2573 14.2581 15.5321 14.0883 15.8068 14.149C16.0823 14.2124 16.2534 14.4872 16.1907 14.762L15.168 19.1938C15.1141 19.431 14.9034 19.5906 14.6702 19.5906Z" fill="#5C638B"/>
</svg>
