<svg width="28" height="28" viewBox="0 0 28 28" fill="none" xmlns="http://www.w3.org/2000/svg">
<mask id="mask0" mask-type="alpha" maskUnits="userSpaceOnUse" x="0" y="0" width="28" height="28">
<rect x="0.5" y="0.5" width="27" height="27" fill="#5C638B" stroke="#6FCF97"/>
</mask>
<g mask="url(#mask0)">
<path d="M13.7015 19.2039L8.79565 16.751V11.3545L13.7015 13.3168V19.2039Z" fill="#B4F5CF"/>
<path d="M13.7017 19.2039L18.6076 16.751V11.3545L13.7017 13.3168V19.2039Z" fill="#B4F5CF"/>
<path d="M13.7015 13.3172L8.79565 11.3548L13.7015 8.90186L18.6074 11.3548L13.7015 13.3172Z" fill="#D5FFE6"/>
<path d="M17.1358 11.9437V16.7515L13.7017 19.2044L18.6076 16.7515V11.355L17.1358 11.9437Z" fill="#27AE60"/>
<path d="M13.7017 8.90186V9.29435L17.1358 11.3548L12.9658 13.0228L13.7017 13.3172L18.6076 11.3548L13.7017 8.90186Z" fill="#27AE60"/>
<path d="M13.7014 19.6947C13.6033 19.6947 13.5542 19.6947 13.5052 19.6457L8.59929 17.1927C8.40307 17.0946 8.30493 16.9474 8.30493 16.7512V11.3546C8.30493 11.2075 8.40307 11.0603 8.50115 10.9622C8.64833 10.864 8.7955 10.864 8.94268 10.9131L13.8486 12.8755C14.0448 12.9736 14.1429 13.1208 14.1429 13.317V19.2041C14.1429 19.3513 14.0448 19.5475 13.8976 19.6456C13.8976 19.6947 13.7995 19.6947 13.7014 19.6947ZM9.28608 16.4568L13.2108 18.4192V13.6604L9.28608 12.0905V16.4568Z" fill="#6FCF97"/>
<path d="M13.7016 19.6946C13.6034 19.6946 13.5053 19.6946 13.4563 19.6456C13.3091 19.5474 13.2109 19.3512 13.2109 19.204V13.317C13.2109 13.1207 13.3091 12.9245 13.5053 12.8754L18.4112 10.9131C18.5584 10.864 18.7546 10.864 18.8527 10.9621C18.9999 11.0602 19.0489 11.2074 19.0489 11.3546V16.7511C19.0489 16.9473 18.9508 17.0945 18.7546 17.1927L13.8487 19.6456C13.8487 19.6946 13.7997 19.6946 13.7016 19.6946ZM14.1921 13.6603V18.4191L18.1169 16.4567V12.0904L14.1921 13.6603Z" fill="#6FCF97"/>
<path d="M13.7014 13.8075C13.6524 13.8075 13.5542 13.8075 13.5052 13.7585L8.59929 11.7962C8.45211 11.7471 8.30493 11.5508 8.30493 11.3546C8.30493 11.1584 8.40307 10.9621 8.59929 10.9131L13.5052 8.46012C13.6524 8.41108 13.7995 8.41108 13.9467 8.46012L18.8526 10.913C19.0488 11.0112 19.147 11.1584 19.147 11.3546C19.147 11.5508 18.9998 11.698 18.8526 11.7961L13.9467 13.7585C13.8486 13.8075 13.7504 13.8075 13.7014 13.8075ZM9.97292 11.3055L13.7014 12.7773L17.4299 11.3055L13.7014 9.44127L9.97292 11.3055Z" fill="#6FCF97"/>
<path d="M1.75 7.10814C1.75 7.00207 1.81694 6.90755 1.91699 6.87233L13.417 2.82433C13.4707 2.80542 13.5293 2.80542 13.583 2.82433L25.083 6.87233C25.1831 6.90755 25.25 7.00207 25.25 7.10814V21.5128C25.25 21.6163 25.1862 21.7091 25.0896 21.7462L25.3585 22.4463L25.0896 21.7462L13.5896 26.1622C13.5319 26.1843 13.4681 26.1843 13.4104 26.1622L1.91038 21.7462C1.81377 21.7091 1.75 21.6163 1.75 21.5128V7.10814Z" stroke="#6FCF97" stroke-width="1.5"/>
<path d="M2.99579 21.4829C2.84862 21.4829 2.70144 21.3848 2.6033 21.2867C2.45612 21.0414 2.50516 20.747 2.75048 20.5998L5.69403 18.6375C5.93934 18.4903 6.2337 18.5393 6.38087 18.7847C6.52805 19.03 6.47901 19.3243 6.2337 19.4715L3.29015 21.4338C3.19201 21.4338 3.09393 21.4829 2.99579 21.4829Z" fill="#6FCF97"/>
<path d="M5.8044 20.1914C5.75211 20.3878 5.86869 20.5898 6.06489 20.6428C6.16327 20.6697 6.26308 20.6535 6.34446 20.6066C6.42583 20.5596 6.48971 20.4812 6.51565 20.3826C6.51566 20.3825 6.51568 20.3825 6.51569 20.3824L6.93857 18.7939C6.99088 18.5974 6.87421 18.3954 6.6779 18.3424L5.09044 17.9143C4.89388 17.8613 4.69198 17.9779 4.63961 18.1746C4.5873 18.3711 4.70397 18.5732 4.90028 18.6261L6.13262 18.9585L5.8044 20.1914Z" fill="#6FCF97" stroke="#6FCF97" stroke-width="0.2"/>
<path d="M2.04427 8.12083C1.97068 7.99337 1.98209 7.81684 2.01796 7.68281C2.15682 7.43269 2.43626 7.32799 2.68637 7.46685L5.85759 9.03486C6.10771 9.17372 6.21241 9.45316 6.07355 9.70328C5.93469 9.95339 5.65525 10.0581 5.40514 9.91924L2.23392 8.35123C2.18485 8.26624 2.09334 8.20582 2.04427 8.12083Z" fill="#6FCF97"/>
<path d="M4.5669 9.9074C4.37065 9.96032 4.25399 10.1623 4.30618 10.3587C4.33211 10.4573 4.39599 10.5357 4.47737 10.5827C4.55875 10.6297 4.65855 10.6458 4.75693 10.619C4.75698 10.619 4.75703 10.6189 4.75708 10.6189L6.34421 10.1909C6.54052 10.138 6.65719 9.93588 6.60488 9.7394L6.18191 8.15056C6.12954 7.95383 5.92764 7.83726 5.73108 7.89027C5.53476 7.94322 5.41809 8.14529 5.4704 8.34178L5.79875 9.57518L4.5669 9.9074Z" fill="#6FCF97" stroke="#6FCF97" stroke-width="0.2"/>
<path d="M24.4874 6.8384C24.6345 6.8384 24.7817 6.93654 24.8799 7.03462C25.027 7.27993 24.978 7.57429 24.7327 7.72146L21.7891 9.68381C21.5438 9.83099 21.2495 9.78195 21.1023 9.53663C20.9551 9.29132 21.0041 8.99696 21.2495 8.84979L24.193 6.88744C24.2911 6.88744 24.3892 6.8384 24.4874 6.8384Z" fill="#6FCF97"/>
<path d="M21.6788 8.12991C21.731 7.93349 21.6145 7.73148 21.4183 7.67846C21.3199 7.65161 21.2201 7.66775 21.1387 7.71474C21.0573 7.76172 20.9934 7.84008 20.9675 7.9387C20.9675 7.93875 20.9675 7.9388 20.9675 7.93885L20.5446 9.52735C20.4923 9.72384 20.6089 9.92591 20.8053 9.97886L22.3927 10.407C22.5893 10.46 22.7912 10.3434 22.8435 10.1467C22.8959 9.95019 22.7792 9.74812 22.5829 9.69518L21.3505 9.36283L21.6788 8.12991Z" fill="#6FCF97" stroke="#6FCF97" stroke-width="0.2"/>
<path d="M24.7403 20.8978C24.7784 21.0399 24.7217 21.2075 24.6524 21.3277C24.4535 21.5333 24.1565 21.5622 23.9508 21.3633L21.2935 19.0279C21.0879 18.8291 21.059 18.5321 21.2579 18.3264C21.4568 18.1207 21.7538 18.0919 21.9594 18.2908L24.6168 20.6261C24.6422 20.7209 24.7149 20.803 24.7403 20.8978Z" fill="#6FCF97"/>
<path d="M22.7658 18.519C22.9691 18.5187 23.134 18.3538 23.1345 18.1505C23.1349 18.0486 23.0935 17.9563 23.0271 17.8899C22.9606 17.8234 22.8684 17.782 22.7664 17.7825C22.7664 17.7825 22.7663 17.7825 22.7663 17.7825L21.1224 17.7852C20.9191 17.7855 20.7541 17.9505 20.7538 18.1538L20.7511 19.798C20.7508 20.0016 20.9157 20.1664 21.1192 20.1661C21.3226 20.1657 21.4876 20.0008 21.4879 19.7974L21.49 18.5211L22.7658 18.519Z" fill="#6FCF97" stroke="#6FCF97" stroke-width="0.2"/>
<circle cx="23" cy="5" r="4" fill="#6FCF97" stroke="#6FCF97" stroke-width="2"/>
<path d="M21.9565 6.45085L22.2317 6.70489L22.5529 6.51219C22.603 6.48211 22.6487 6.44169 22.6623 6.42967C22.6631 6.42893 22.6638 6.4283 22.6644 6.42779C22.6887 6.40637 22.7172 6.38016 22.7477 6.35157C22.8092 6.29388 22.8891 6.21683 22.9804 6.12777C23.1635 5.94917 23.4 5.71468 23.6424 5.47363C23.7349 5.38164 23.8279 5.28903 23.9191 5.19826C24.3116 4.80754 24.6698 4.45092 24.8047 4.32446L24.8132 4.31654L24.8213 4.30823C24.8362 4.29281 24.8508 4.27781 24.865 4.2632C25.0176 4.10621 25.1254 3.99533 25.2107 3.91509C25.2388 3.94402 25.2729 3.97958 25.315 4.02358L25.3224 4.03128L25.3301 4.03867C25.3677 4.07479 25.3986 4.10533 25.4239 4.13109C25.3842 4.16978 25.3373 4.21388 25.2797 4.268L25.2735 4.27376C25.2078 4.33542 25.1314 4.40713 25.0469 4.4889L25.0468 4.48882L25.0393 4.49645L22.92 6.6373C22.8125 6.74058 22.7109 6.84653 22.6233 6.93786C22.599 6.96316 22.5758 6.98733 22.5539 7.01002C22.4513 7.11607 22.3767 7.18883 22.3152 7.23795L21.3273 6.24999C21.2188 6.14151 21.1114 6.0407 21.021 5.95591C20.9851 5.92222 20.9519 5.89107 20.9224 5.86296C20.8547 5.79843 20.8065 5.74992 20.7721 5.71216C20.7851 5.69838 20.7975 5.68512 20.8096 5.67233C20.8793 5.59819 20.934 5.54012 20.9855 5.49C20.987 5.48849 20.9886 5.487 20.9901 5.48553C21.0579 5.55405 21.1325 5.63018 21.2105 5.70971C21.4652 5.96934 21.7554 6.26519 21.9565 6.45085ZM25.0881 3.79903C25.0881 3.79902 25.0885 3.79925 25.0892 3.79977L25.0881 3.79903ZM20.7036 5.7879C20.7036 5.7879 20.7038 5.78756 20.7042 5.78689L20.7036 5.7879Z" fill="white" stroke="white"/>
</g>
</svg>
