<svg width="30" height="30" viewBox="0 0 30 30" fill="none" xmlns="http://www.w3.org/2000/svg">
<rect width="30" height="30" rx="6" fill="#EDF4FF"/>
<path d="M24 13.8571H19.9616C19.3881 11.6431 17.394 10 15 10C12.606 10 10.6119 11.6431 10.0384 13.8571H6V16.4286H10.0384C10.6131 18.6426 12.606 20.2857 15 20.2857C17.394 20.2857 19.3869 18.6426 19.9616 16.4286H24V13.8571ZM15 17.7143C13.5819 17.7143 12.4286 16.561 12.4286 15.1429C12.4286 13.7247 13.5819 12.5714 15 12.5714C16.4181 12.5714 17.5714 13.7247 17.5714 15.1429C17.5714 16.561 16.4181 17.7143 15 17.7143Z" fill="#4164A9"/>
</svg>
