<svg width="31" height="31" viewBox="0 0 31 31" fill="none" xmlns="http://www.w3.org/2000/svg">
<rect x="0.925781" y="0.618652" width="30" height="30" rx="6" fill="#EDF4FF"/>
<path d="M24.3945 13.3374C24.6879 13.3374 24.9258 13.0995 24.9258 12.8062V10.1499C24.9258 9.85652 24.6879 9.61865 24.3945 9.61865H8.45703C8.16362 9.61865 7.92578 9.85652 7.92578 10.1499V12.8062C7.92578 13.0995 8.16362 13.3374 8.45703 13.3374C8.74995 13.3374 8.98828 13.5757 8.98828 13.8687C8.98828 14.1616 8.74995 14.3999 8.45703 14.3999C8.16362 14.3999 7.92578 14.6378 7.92578 14.9312V18.1187C7.92578 18.412 8.16362 18.6499 8.45703 18.6499V20.7749C8.45703 21.0683 8.69487 21.3062 8.98828 21.3062H17.4883C17.7817 21.3062 18.0195 21.0683 18.0195 20.7749V18.6499H19.082V20.7749C19.082 21.0683 19.3199 21.3062 19.6133 21.3062H23.8633C24.1567 21.3062 24.3945 21.0683 24.3945 20.7749V18.6499C24.6879 18.6499 24.9258 18.412 24.9258 18.1187V14.9312C24.9258 14.6378 24.6879 14.3999 24.3945 14.3999C24.1016 14.3999 23.8633 14.1616 23.8633 13.8687C23.8633 13.5757 24.1016 13.3374 24.3945 13.3374ZM9.51953 18.6499H10.582V20.2437H9.51953V18.6499ZM12.707 18.6499V20.2437H11.6445V18.6499H12.707ZM14.832 18.6499V20.2437H13.7695V18.6499H14.832ZM16.957 20.2437H15.8945V18.6499H16.957V20.2437ZM20.1445 18.6499H21.207V20.2437H20.1445V18.6499ZM23.332 20.2437H22.2695V18.6499H23.332V20.2437ZM23.8633 12.3659C23.2449 12.5852 22.8008 13.176 22.8008 13.8687C22.8008 14.5613 23.2449 15.1521 23.8633 15.3714V17.5874C23.1159 17.5874 9.67814 17.5874 8.98828 17.5874V15.3714C9.60669 15.1521 10.0508 14.5613 10.0508 13.8687C10.0508 13.176 9.60669 12.5852 8.98828 12.3659V10.6812H23.8633V12.3659Z" fill="#5C638B"/>
<path d="M11.6445 15.9937H13.7695C14.0629 15.9937 14.3008 15.7558 14.3008 15.4624V12.2749C14.3008 11.9815 14.0629 11.7437 13.7695 11.7437H11.6445C11.3511 11.7437 11.1133 11.9815 11.1133 12.2749V15.4624C11.1133 15.7558 11.3511 15.9937 11.6445 15.9937ZM12.1758 12.8062H13.2383V14.9312H12.1758V12.8062Z" fill="#5C638B"/>
<path d="M15.3633 15.9937H17.4883C17.7817 15.9937 18.0195 15.7558 18.0195 15.4624V12.2749C18.0195 11.9815 17.7817 11.7437 17.4883 11.7437H15.3633C15.0699 11.7437 14.832 11.9815 14.832 12.2749V15.4624C14.832 15.7558 15.0699 15.9937 15.3633 15.9937ZM15.8945 12.8062H16.957V14.9312H15.8945V12.8062Z" fill="#5C638B"/>
<path d="M19.084 15.9937H21.209C21.5024 15.9937 21.7402 15.7558 21.7402 15.4624V12.2749C21.7402 11.9815 21.5024 11.7437 21.209 11.7437H19.084C18.7906 11.7437 18.5527 11.9815 18.5527 12.2749V15.4624C18.5527 15.7558 18.7906 15.9937 19.084 15.9937ZM19.6152 12.8062H20.6777V14.9312H19.6152V12.8062Z" fill="#5C638B"/>
</svg>
