<svg width="30" height="30" viewBox="0 0 30 30" fill="none" xmlns="http://www.w3.org/2000/svg">
<rect width="30" height="30" rx="6" fill="#EDF4FF"/>
<path d="M15 7.08C19.374 7.08 22.92 10.626 22.92 15C22.92 19.374 19.374 22.92 15 22.92C10.626 22.92 7.08 19.374 7.08 15C7.08 10.626 10.626 7.08 15 7.08ZM15 6C10.032 6 6 10.032 6 15C6 19.968 10.032 24 15 24C19.968 24 24 19.968 24 15C24 10.032 19.968 6 15 6Z" fill="#4164A9"/>
<path d="M17.5188 9.60059C17.2038 9.60059 16.9248 9.80759 16.8348 10.1046C16.8258 10.1226 16.8168 10.1496 16.8168 10.1766L14.8458 17.1966L12.7848 12.5616C12.7758 12.5436 12.7668 12.5166 12.7578 12.4986C12.6318 12.2646 12.3888 12.1206 12.1278 12.1206C11.8938 12.1206 11.6688 12.2376 11.5338 12.4266C11.5338 12.4356 11.5338 12.4446 11.5338 12.4446L10.2918 14.2806H8.51883C8.12283 14.2806 7.79883 14.6046 7.79883 15.0006C7.79883 15.3966 8.12283 15.7206 8.51883 15.7206H10.6788C10.9128 15.7206 11.1378 15.6036 11.2728 15.4146V15.3876L11.9928 14.3256L14.3328 19.5996C14.3418 19.6176 14.3508 19.6446 14.3598 19.6626C14.5488 20.0136 14.9898 20.1396 15.3318 19.9506C15.4938 19.8606 15.6198 19.7076 15.6738 19.5276L17.6178 12.5976L18.6258 15.2076C18.6348 15.2346 18.6438 15.2526 18.6528 15.2796C18.7698 15.5496 19.0218 15.7206 19.3188 15.7206H21.4788C21.8748 15.7206 22.1988 15.3966 22.1988 15.0006C22.1988 14.6046 21.8748 14.2806 21.4788 14.2806H19.8138L18.2118 10.1046C18.2028 10.0776 18.1938 10.0596 18.1848 10.0326C18.0678 9.77159 17.8068 9.60059 17.5188 9.60059Z" fill="#4164A9"/>
</svg>
