<svg width="32" height="32" viewBox="0 0 32 32" fill="none" xmlns="http://www.w3.org/2000/svg">
<circle cx="16" cy="16" r="16" fill="#E8EEFB"/>
<path d="M23.3125 10.6875H14.9031C14.7062 10.6875 14.5375 10.6031 14.425 10.4344L13.975 9.75938C13.6656 9.28125 13.1312 9 12.5687 9H8.6875C7.75938 9 7 9.75938 7 10.6875V21.9375C7 22.8656 7.75938 23.625 8.6875 23.625H23.3125C24.2406 23.625 25 22.8656 25 21.9375V12.375C25 11.4469 24.2406 10.6875 23.3125 10.6875ZM8.6875 10.125H12.5969C12.7938 10.125 12.9625 10.2094 13.075 10.3781L13.525 11.0531C13.8344 11.5312 14.3688 11.8125 14.9313 11.8125H23.3125C23.6219 11.8125 23.875 12.0656 23.875 12.375V14.625H22.75V14.3438C22.75 13.5563 22.1313 12.9375 21.3438 12.9375H10.6562C9.86875 12.9375 9.25 13.5563 9.25 14.3438V16.3125H8.125V10.6875C8.125 10.3781 8.37812 10.125 8.6875 10.125ZM22.1875 14.625H19.6844C19.2062 14.625 18.7844 14.85 18.5031 15.2438L18.0531 15.9187C17.8844 16.1437 17.6312 16.2844 17.35 16.2844H9.8125V14.3156C9.8125 13.8375 10.1781 13.4719 10.6562 13.4719H21.3438C21.8219 13.4719 22.1875 13.8375 22.1875 14.3156V14.625ZM23.3125 22.5H8.6875C8.37812 22.5 8.125 22.2469 8.125 21.9375V16.875H17.3781C17.8563 16.875 18.2781 16.65 18.5594 16.2562L19.0094 15.5813C19.1781 15.3563 19.4313 15.2156 19.7125 15.2156H23.875V21.9656C23.875 22.2469 23.6219 22.5 23.3125 22.5Z" fill="#5C638B"/>
</svg>
