<svg width="38" height="38" viewBox="0 0 38 38" fill="none" xmlns="http://www.w3.org/2000/svg">
<rect width="38" height="38" rx="10" fill="#4164A9"/>
<path d="M18.504 19.3384C18.374 19.3379 18.2461 19.3075 18.1304 19.249L9.4647 14.9202C9.05092 14.7147 8.882 14.2128 9.08745 13.799C9.16867 13.6354 9.30106 13.503 9.4647 13.4218L18.1304 9.08893C18.3667 8.97036 18.6453 8.97036 18.8816 9.08893L27.5433 13.4218C27.9571 13.6273 28.126 14.1292 27.9205 14.543C27.8393 14.7066 27.7069 14.839 27.5433 14.9202L18.8776 19.2531C18.7614 19.3099 18.6335 19.3391 18.504 19.3384ZM11.7144 14.169L18.504 17.5638L25.2936 14.169L18.504 10.7863L11.7144 14.169Z" fill="white"/>
<path d="M18.5039 23.6713C18.374 23.6709 18.2461 23.6404 18.1303 23.582L9.46464 19.2532C9.05085 19.0457 8.88353 18.5421 9.09106 18.1283C9.29855 17.7146 9.8021 17.5472 10.2159 17.7548L18.504 21.8968L26.792 17.7507C27.2058 17.5432 27.7094 17.7105 27.9168 18.1243C28.1243 18.5381 27.9571 19.0416 27.5433 19.2491L18.8775 23.582C18.7618 23.6404 18.6339 23.6709 18.5039 23.6713Z" fill="white"/>
<path d="M18.5039 28.0041C18.374 28.0037 18.2461 27.9733 18.1303 27.9148L9.46464 23.582C9.05085 23.3745 8.88353 22.8709 9.09106 22.4571C9.29859 22.0433 9.8021 21.876 10.2159 22.0835L18.504 26.2174L26.792 22.0754C27.2058 21.8679 27.7094 22.0352 27.9168 22.449C28.1243 22.8628 27.9571 23.3663 27.5433 23.5738L18.8776 27.9148C18.7618 27.9733 18.6339 28.0037 18.5039 28.0041Z" fill="white"/>
</svg>
