<svg width="32" height="32" viewBox="0 0 32 32" fill="none" xmlns="http://www.w3.org/2000/svg">
<path d="M16 32C15.581 32 15.162 31.923 14.779 31.768L1.47 26.362C0.564 25.995 0 25.245 0 24.403V7.596C0 6.756 0.563 6.006 1.47 5.638L14.777 0.234C15.543 -0.078 16.457 -0.078 17.222 0.234L30.529 5.638C31.437 6.006 32 6.757 32 7.596V24.403C32 25.244 31.437 25.995 30.528 26.362L17.222 31.767C16.839 31.922 16.419 32 16 32ZM2.006 24.396C2.025 24.396 2.092 24.456 2.222 24.508L15.531 29.913C15.812 30.026 16.19 30.026 16.472 29.913L29.778 24.508C29.778 24.508 29.778 24.508 29.779 24.508C29.933 24.446 30 24.372 30.01 24.352L30 7.596C30 7.626 29.934 7.554 29.776 7.49L16.47 2.086C16.189 1.973 15.812 1.972 15.531 2.086L2.223 7.49C2.068 7.554 2.001 7.627 1.99 7.648L2 24.403C2 24.398 2.002 24.396 2.006 24.396Z" fill="#5C638B"/>
<path d="M16.0009 32.0002C15.4489 32.0002 15.0009 31.5532 15.0009 31.0002V13.6772L1.20691 8.16023C0.693907 7.95423 0.444908 7.37323 0.649908 6.86023C0.854908 6.34723 1.43491 6.09823 1.94991 6.30323L16.3729 12.0722C16.7519 12.2232 17.0009 12.5912 17.0009 13.0002V31.0002C17.0009 31.5532 16.5529 32.0002 16.0009 32.0002Z" fill="#5C638B"/>
<path d="M16.0008 14C15.6038 14 15.2288 13.762 15.0718 13.371C14.8668 12.858 15.1158 12.276 15.6288 12.071L30.0518 6.30199C30.5598 6.09999 31.1468 6.34599 31.3518 6.85899C31.5568 7.37199 31.3068 7.95399 30.7938 8.15899L16.3718 13.928C16.2508 13.977 16.1248 14 16.0008 14Z" fill="#5C638B"/>
<path d="M24.0002 11.0002C23.8682 11.0002 23.7342 10.9742 23.6062 10.9182L9.60624 4.91818C9.09924 4.70218 8.86325 4.11418 9.08125 3.60618C9.29825 3.09918 9.88625 2.86218 10.3942 3.08118L24.3942 9.08118C24.9022 9.29818 25.1372 9.88618 24.9192 10.3942C24.7572 10.7732 24.3882 11.0002 24.0002 11.0002Z" fill="#5C638B"/>
<path d="M24 15C23.447 15 23 14.552 23 14V10C23 9.448 23.447 9 24 9C24.553 9 25 9.448 25 10V14C25 14.552 24.553 15 24 15Z" fill="#5C638B"/>
</svg>
