<svg width="17" height="23" viewBox="0 0 17 23" fill="none" xmlns="http://www.w3.org/2000/svg">
<path d="M5.46243 17.7863C5.46243 17.7863 4.58366 18.2972 6.0881 18.4703C7.91057 18.6783 8.84202 18.6481 10.8498 18.269C10.8498 18.269 11.3786 18.6002 12.1162 18.8862C7.61419 20.8159 1.92571 18.7752 5.46243 17.7863ZM4.91202 15.2686C4.91202 15.2686 3.92693 15.9977 5.43232 16.1539C7.37992 16.3553 8.91635 16.3713 11.5781 15.8594C11.5781 15.8594 11.945 16.232 12.5236 16.4362C7.07978 18.0281 1.01777 16.5613 4.91202 15.2686Z" fill="#5582A0"/>
<path d="M9.55072 10.9969C10.6609 12.2746 9.25999 13.4234 9.25999 13.4234C9.25999 13.4234 12.0769 11.9697 10.7833 10.1482C9.57518 8.44993 8.64843 7.60692 13.6642 4.69775C13.6642 4.69775 5.79007 6.66417 9.55072 10.9969Z" fill="#F69731"/>
<path d="M15.5051 19.649C15.5051 19.649 16.1552 20.1853 14.7891 20.5993C12.1904 21.3858 3.97194 21.6239 1.6894 20.6303C0.868959 20.2728 2.40822 19.7779 2.89182 19.6735C3.39613 19.5643 3.68498 19.5841 3.68498 19.5841C2.77233 18.9415 -2.21332 20.8458 1.1531 21.3924C10.3322 22.8818 17.8864 20.7235 15.5051 19.649ZM5.88472 12.6593C5.88472 12.6593 1.70445 13.6529 4.40474 14.0132C5.54507 14.1656 7.81632 14.1308 9.93422 13.953C11.6645 13.8081 13.4004 13.4976 13.4004 13.4976C13.4004 13.4976 12.7907 13.7592 12.3494 14.0603C8.10423 15.1771 -0.0963714 14.6568 2.26521 13.5155C4.26173 12.5502 5.88472 12.6593 5.88472 12.6593ZM13.3834 16.8509C17.6992 14.6088 15.7036 12.4542 14.3102 12.7449C13.9696 12.8164 13.8172 12.8776 13.8172 12.8776C13.8172 12.8776 13.9442 12.6791 14.186 12.5934C16.9409 11.6253 19.0597 15.4499 13.2978 16.9647C13.2978 16.9638 13.3637 16.9045 13.3834 16.8509Z" fill="#5582A0"/>
<path d="M10.7825 0C10.7825 0 13.1723 2.39074 8.51599 6.06577C4.78168 9.01539 7.6645 10.6958 8.51505 12.618C6.33505 10.6516 4.73652 8.92037 5.80911 7.30866C7.38224 4.94426 11.746 3.79734 10.7825 0Z" fill="#F69731"/>
<path d="M6.30929 22.9279C10.451 23.1922 16.8122 22.7801 16.9627 20.8203C16.9627 20.8203 16.6729 21.5636 13.5399 22.1526C10.005 22.8178 5.6441 22.7406 3.05859 22.3135C3.05859 22.3135 3.5883 22.7519 6.30929 22.9279Z" fill="#5582A0"/>
</svg>
