<svg width="25" height="28" viewBox="0 0 25 28" fill="none" xmlns="http://www.w3.org/2000/svg">
<path d="M24.8963 8.22317C24.8963 7.75532 24.7966 7.33348 24.5895 6.98064C24.3901 6.62784 24.091 6.3364 23.6922 6.1063C20.3788 4.1965 17.0578 2.28672 13.7444 0.376918C12.847 -0.136969 11.988 -0.121622 11.0983 0.399921C9.77906 1.1746 3.16764 4.96348 1.20417 6.1063C0.391149 6.57415 0 7.29513 0 8.23086V19.7663C0 20.2265 0.0997016 20.633 0.291448 20.9858C0.490884 21.3463 0.797677 21.6531 1.20417 21.8908C3.17533 23.0337 9.77906 26.8149 11.0983 27.5972C11.988 28.1187 12.8547 28.1417 13.7444 27.6202C17.0578 25.7028 20.3788 23.8006 23.6922 21.8908C24.1063 21.6531 24.4055 21.354 24.6049 20.9858C24.7966 20.633 24.8963 20.2265 24.8963 19.7663V8.22317Z" fill="#9A4993"/>
<path d="M12.4781 13.9526L0.275391 20.9782C0.474826 21.3387 0.781621 21.6455 1.18812 21.8833C3.15927 23.0261 9.763 26.8073 11.0822 27.5896C11.9719 28.1112 12.8386 28.1342 13.7283 27.6126C17.0417 25.6952 20.3627 23.793 23.6761 21.8833C24.0903 21.6455 24.3894 21.3464 24.5888 20.9782L12.4781 13.9526Z" fill="#6A1577"/>
<path d="M8.86719 16.0312C9.58051 17.2737 10.915 18.1097 12.4414 18.1097C13.983 18.1097 15.3252 17.266 16.0308 16.0081L12.4797 13.9526L8.86719 16.0312Z" fill="#6A1577"/>
<path d="M24.896 8.22299C24.896 7.75514 24.7963 7.3333 24.5892 6.98047L12.4785 13.9524L24.6045 20.978C24.7963 20.6251 24.896 20.2186 24.896 19.7585V8.22299Z" fill="#813084"/>
<path d="M16.0312 16.0084C15.3256 17.2586 13.9834 18.11 12.4418 18.11C10.9078 18.11 9.57326 17.2739 8.86763 16.0314C8.52248 15.4255 8.32305 14.7352 8.32305 13.9912C8.32305 11.7133 10.1638 9.87252 12.4418 9.87252C13.9604 9.87252 15.2873 10.7009 16.0006 11.928L19.5977 9.85717C18.1635 7.38751 15.4944 5.72314 12.4341 5.72314C7.86286 5.72314 4.16602 9.42768 4.16602 13.9912C4.16602 15.4869 4.56482 16.8981 5.2628 18.11C6.68938 20.5873 9.37382 22.2593 12.4418 22.2593C15.5174 22.2593 18.2018 20.5796 19.6284 18.0869L16.0312 16.0084ZM20.5795 12.0354H19.7588V16.0007H20.5795V12.0354ZM22.3972 12.0354H21.5765V16.0007H22.3972V12.0354Z" fill="white"/>
<path d="M23.0649 12.7026H19.0996V13.5233H23.0649V12.7026ZM23.0649 14.5127H19.0996V15.3334H23.0649V14.5127Z" fill="white"/>
</svg>
