<svg width="31" height="30" viewBox="0 0 31 30" fill="none" xmlns="http://www.w3.org/2000/svg">
<rect x="0.849609" width="30" height="30" rx="6" fill="#EDF4FF"/>
<path d="M22.8496 9.3125C22.8496 8.58877 22.2608 8 21.5371 8H10.1621C9.4384 8 8.84961 8.58877 8.84961 9.3125V11.9375C8.84961 12.2734 8.97659 12.5801 9.18487 12.8125C8.97659 13.0449 8.84961 13.3516 8.84961 13.6875V16.3125C8.84961 16.6484 8.97659 16.9551 9.18487 17.1875C8.97659 17.4199 8.84961 17.7266 8.84961 18.0625V20.6875C8.84961 21.4112 9.4384 22 10.1621 22H21.5371C22.2608 22 22.8496 21.4112 22.8496 20.6875V18.0625C22.8496 17.7266 22.7226 17.4199 22.5143 17.1875C22.7227 16.9551 22.8496 16.6484 22.8496 16.3125V13.6875C22.8496 13.3516 22.7226 13.0449 22.5143 12.8125C22.7227 12.5801 22.8496 12.2734 22.8496 11.9375V9.3125ZM9.72461 9.3125C9.72461 9.07127 9.92088 8.875 10.1621 8.875H21.5371C21.7783 8.875 21.9746 9.07127 21.9746 9.3125V11.9375C21.9746 12.1787 21.7783 12.375 21.5371 12.375H10.1621C9.92088 12.375 9.72461 12.1787 9.72461 11.9375V9.3125ZM21.9746 13.6875V16.3125C21.9746 16.5537 21.7783 16.75 21.5371 16.75H10.1621C9.92088 16.75 9.72461 16.5537 9.72461 16.3125V13.6875C9.72461 13.4463 9.92088 13.25 10.1621 13.25H21.5371C21.7783 13.25 21.9746 13.4463 21.9746 13.6875ZM21.9746 20.6875C21.9746 20.9287 21.7783 21.125 21.5371 21.125H10.1621C9.92088 21.125 9.72461 20.9287 9.72461 20.6875V18.0625C9.72461 17.8213 9.92088 17.625 10.1621 17.625H21.5371C21.7783 17.625 21.9746 17.8213 21.9746 18.0625V20.6875Z" fill="#5C638B"/>
<path d="M20.6621 11.5C20.9037 11.5 21.0996 11.3041 21.0996 11.0625V10.1875C21.0996 9.94586 20.9037 9.75 20.6621 9.75C20.4205 9.75 20.2246 9.94586 20.2246 10.1875V11.0625C20.2246 11.3041 20.4205 11.5 20.6621 11.5Z" fill="#5C638B"/>
<path d="M18.9121 11.5C19.1537 11.5 19.3496 11.3041 19.3496 11.0625V10.1875C19.3496 9.94586 19.1537 9.75 18.9121 9.75C18.6705 9.75 18.4746 9.94586 18.4746 10.1875V11.0625C18.4746 11.3041 18.6705 11.5 18.9121 11.5Z" fill="#5C638B"/>
<path d="M13.6621 11.0625H17.1621C17.4037 11.0625 17.5996 10.8666 17.5996 10.625C17.5996 10.3834 17.4037 10.1875 17.1621 10.1875H13.6621C13.4205 10.1875 13.2246 10.3834 13.2246 10.625C13.2246 10.8666 13.4205 11.0625 13.6621 11.0625Z" fill="#5C638B"/>
<path d="M11.4746 15.875C11.9571 15.875 12.3496 15.4825 12.3496 15C12.3496 14.5175 11.9571 14.125 11.4746 14.125C10.9921 14.125 10.5996 14.5175 10.5996 15C10.5996 15.4825 10.9921 15.875 11.4746 15.875Z" fill="#5C638B"/>
<path d="M11.4746 18.5C10.9921 18.5 10.5996 18.8925 10.5996 19.375C10.5996 19.8575 10.9921 20.25 11.4746 20.25C11.9571 20.25 12.3496 19.8575 12.3496 19.375C12.3496 18.8925 11.9571 18.5 11.4746 18.5Z" fill="#5C638B"/>
<path d="M11.4746 11.5C11.9571 11.5 12.3496 11.1075 12.3496 10.625C12.3496 10.1425 11.9571 9.75 11.4746 9.75C10.9921 9.75 10.5996 10.1425 10.5996 10.625C10.5996 11.1075 10.9921 11.5 11.4746 11.5Z" fill="#5C638B"/>
<path d="M20.6621 15.875C20.9037 15.875 21.0996 15.6791 21.0996 15.4375V14.5625C21.0996 14.3209 20.9037 14.125 20.6621 14.125C20.4205 14.125 20.2246 14.3209 20.2246 14.5625V15.4375C20.2246 15.6791 20.4205 15.875 20.6621 15.875Z" fill="#5C638B"/>
<path d="M18.9121 15.875C19.1537 15.875 19.3496 15.6791 19.3496 15.4375V14.5625C19.3496 14.3209 19.1537 14.125 18.9121 14.125C18.6705 14.125 18.4746 14.3209 18.4746 14.5625V15.4375C18.4746 15.6791 18.6705 15.875 18.9121 15.875Z" fill="#5C638B"/>
<path d="M13.6621 15.4375H17.1621C17.4037 15.4375 17.5996 15.2416 17.5996 15C17.5996 14.7584 17.4037 14.5625 17.1621 14.5625H13.6621C13.4205 14.5625 13.2246 14.7584 13.2246 15C13.2246 15.2416 13.4205 15.4375 13.6621 15.4375Z" fill="#5C638B"/>
<path d="M20.6621 18.5C20.4205 18.5 20.2246 18.6959 20.2246 18.9375V19.8125C20.2246 20.0541 20.4205 20.25 20.6621 20.25C20.9037 20.25 21.0996 20.0541 21.0996 19.8125V18.9375C21.0996 18.6959 20.9037 18.5 20.6621 18.5Z" fill="#5C638B"/>
<path d="M18.9121 18.5C18.6705 18.5 18.4746 18.6959 18.4746 18.9375V19.8125C18.4746 20.0541 18.6705 20.25 18.9121 20.25C19.1537 20.25 19.3496 20.0541 19.3496 19.8125V18.9375C19.3496 18.6959 19.1537 18.5 18.9121 18.5Z" fill="#5C638B"/>
<path d="M17.1621 18.9375H13.6621C13.4205 18.9375 13.2246 19.1334 13.2246 19.375C13.2246 19.6166 13.4205 19.8125 13.6621 19.8125H17.1621C17.4037 19.8125 17.5996 19.6166 17.5996 19.375C17.5996 19.1334 17.4037 18.9375 17.1621 18.9375Z" fill="#5C638B"/>
</svg>
