<svg width="30" height="30" viewBox="0 0 30 30" fill="none" xmlns="http://www.w3.org/2000/svg">
<rect width="30" height="30" rx="6" fill="#EDF4FF"/>
<path d="M14.5 8C13.6894 8 13.0227 8.66665 13.0227 9.47727C13.0227 10.2879 13.6894 10.9592 14.5 10.9592C15.3106 10.9592 15.9773 10.2879 15.9773 9.47727C15.9773 8.66665 15.3106 8 14.5 8ZM14.5 8.89098C14.8316 8.89098 15.0909 9.14567 15.0909 9.47727C15.0909 9.80887 14.8316 10.0682 14.5 10.0682C14.1684 10.0682 13.9091 9.80887 13.9091 9.47727C13.9091 9.14567 14.1684 8.89098 14.5 8.89098ZM14.5 11.2685C12.7882 11.2685 11.3746 12.5156 11.3746 14.0568C11.3742 14.28 11.5971 14.483 11.8409 14.4815H17.1591C17.4029 14.483 17.6258 14.28 17.6254 14.0568C17.6254 12.5156 16.2118 11.2685 14.5 11.2685ZM14.5 12.1179C15.5574 12.1179 16.4194 12.7672 16.6374 13.6321H12.3626C12.5806 12.7672 13.4426 12.1179 14.5 12.1179ZM11.1023 14.7955C10.2916 14.7955 9.625 15.4621 9.625 16.2727C9.625 17.0834 10.2916 17.75 11.1023 17.75C11.9129 17.75 12.5795 17.0834 12.5795 16.2727C12.5795 15.4621 11.9129 14.7955 11.1023 14.7955ZM17.8977 14.7955C17.0871 14.7955 16.4205 15.4621 16.4205 16.2727C16.4205 17.0834 17.0871 17.75 17.8977 17.75C18.7084 17.75 19.375 17.0834 19.375 16.2727C19.375 15.4621 18.7084 14.7955 17.8977 14.7955ZM14.4954 14.934C14.2618 14.9363 14.052 15.1528 14.0568 15.3864V16.4851L12.7688 17.3853C12.5642 17.5118 12.5008 17.8196 12.6388 18.0167C12.7769 18.2137 13.0879 18.2593 13.2766 18.1101L14.5 17.2514L15.7234 18.1101C15.9121 18.2593 16.2231 18.2137 16.3612 18.0167C16.4992 17.8196 16.4358 17.5118 16.2312 17.3853L14.9432 16.4851V15.3864C14.9481 15.1497 14.7321 14.9315 14.4954 14.934ZM11.1023 15.6818C11.4339 15.6818 11.6932 15.9411 11.6932 16.2727C11.6932 16.6043 11.4339 16.8636 11.1023 16.8636C10.7707 16.8636 10.5114 16.6043 10.5114 16.2727C10.5114 15.9411 10.7707 15.6818 11.1023 15.6818ZM17.8977 15.6818C18.2293 15.6818 18.4886 15.9411 18.4886 16.2727C18.4886 16.6043 18.2293 16.8636 17.8977 16.8636C17.5661 16.8636 17.3068 16.6043 17.3068 16.2727C17.3068 15.9411 17.5661 15.6818 17.8977 15.6818ZM11.1254 18.0824C9.41355 18.0824 8 19.3295 8 20.8708C7.99956 21.0939 8.22242 21.2969 8.46627 21.2955H13.7844C14.0283 21.2969 14.2511 21.0939 14.2507 20.8708C14.2507 19.3295 12.8372 18.0824 11.1254 18.0824ZM17.8747 18.0824C16.1628 18.0824 14.7493 19.3295 14.7493 20.8708C14.7489 21.0939 14.9717 21.2969 15.2156 21.2955H20.5337C20.7776 21.2969 21.0004 21.0939 21 20.8708C21 19.3295 19.5865 18.0824 17.8747 18.0824ZM11.1254 18.9318C12.1827 18.9318 13.0448 19.5812 13.2628 20.446H8.98793C9.20592 19.5812 10.068 18.9318 11.1254 18.9318ZM17.8747 18.9318C18.932 18.9318 19.7941 19.5812 20.0121 20.446H15.7372C15.9552 19.5812 16.8173 18.9318 17.8747 18.9318Z" fill="#5C638B"/>
</svg>
