<svg width="60" height="60" viewBox="0 0 60 60" fill="none" xmlns="http://www.w3.org/2000/svg">
<rect width="60" height="60" rx="18" fill="#EFF4FD"/>
<path d="M28.8543 24.8998C26.981 24.8998 25.4906 26.3901 25.4906 28.2634C25.4906 30.1367 26.981 31.6271 28.8543 31.6271C30.7276 31.6271 32.2179 30.1367 32.2179 28.2634C32.2179 26.3901 30.7276 24.8998 28.8543 24.8998ZM28.8543 30.4089C27.6516 30.4089 26.7088 29.4661 26.7088 28.2634C26.7088 27.0608 27.6516 26.118 28.8543 26.118C30.0569 26.118 30.9997 27.0608 30.9997 28.2634C30.9997 29.4661 30.0569 30.4089 28.8543 30.4089Z" fill="#4164A9" stroke="#4164A9" stroke-width="0.3"/>
<path d="M22.8862 26.2772C21.7933 26.2772 20.8998 27.1708 20.8998 28.2636C20.8998 29.3565 21.7933 30.25 22.8862 30.25C23.979 30.25 24.8725 29.3565 24.8725 28.2636C24.8725 27.1708 23.979 26.2772 22.8862 26.2772ZM22.8862 29.0318C22.464 29.0318 22.118 28.6858 22.118 28.2636C22.118 27.8415 22.464 27.4954 22.8862 27.4954C23.3083 27.4954 23.6544 27.8415 23.6544 28.2636C23.6544 28.6858 23.3083 29.0318 22.8862 29.0318Z" fill="#4164A9" stroke="#4164A9" stroke-width="0.3"/>
<path d="M36.8091 28.2636C36.8091 27.1708 35.9155 26.2772 34.8227 26.2772C33.7298 26.2772 32.8363 27.1708 32.8363 28.2636C32.8363 29.3565 33.7298 30.25 34.8227 30.25C35.9155 30.25 36.8091 29.3565 36.8091 28.2636ZM34.8227 29.0318C34.4005 29.0318 34.0545 28.6858 34.0545 28.2636C34.0545 27.8415 34.4005 27.4954 34.8227 27.4954C35.2448 27.4954 35.5909 27.8415 35.5909 28.2636C35.5909 28.6858 35.2448 29.0318 34.8227 29.0318Z" fill="#4164A9" stroke="#4164A9" stroke-width="0.3"/>
<path d="M41.8591 20V19.85H41.7091H16H15.85V20V36.5273V36.6773H16H33.5169C34.1661 38.796 36.1253 40.35 38.4955 40.35C41.3787 40.35 43.6955 38.0333 43.6955 35.15C43.6955 33.5677 42.9631 32.1243 41.8591 31.1781V20ZM21.5091 33.9227H33.4326C33.3305 34.3346 33.2955 34.7443 33.2955 35.15L33.2955 35.1604C33.2954 35.2414 33.2954 35.35 33.308 35.4591H17.0682V21.0682H40.6409V30.4148C40.161 30.2033 39.6249 30.0554 39.0586 29.9698V25.5091V25.3591H38.9086H38.4495C37.2469 25.3591 36.3041 24.4162 36.3041 23.2136V22.7545V22.6045H36.1541H21.5091H21.3591V22.7545V23.2136C21.3591 24.4162 20.4162 25.3591 19.2136 25.3591H18.7545H18.6045V25.5091V31.0182V31.1682H18.7545H19.2136C20.4162 31.1682 21.3591 32.111 21.3591 33.3136V33.7727V33.9227H21.5091ZM37.8405 30.0092C36.1326 30.1915 34.6973 31.2299 33.9058 32.7045H22.5105C22.2742 31.3203 21.1649 30.2523 19.8227 30.0173V26.5564C21.207 26.3201 22.275 25.2109 22.51 23.8686H35.1526C35.389 25.2529 36.4982 26.3209 37.8405 26.5559V30.0092ZM38.4955 39.1318C36.2828 39.1318 34.5136 37.3626 34.5136 35.15C34.5136 32.9374 36.2828 31.1682 38.4955 31.1682C40.7081 31.1682 42.4773 32.9374 42.4773 35.15C42.4773 37.3626 40.7081 39.1318 38.4955 39.1318Z" fill="#4164A9" stroke="#4164A9" stroke-width="0.3"/>
<path d="M41.8585 34.6914V34.5414H41.7085H35.2812H35.1312V34.6914V35.6096V35.7596H35.2812H41.7085H41.8585V35.6096V34.6914Z" fill="#4164A9" stroke="#4164A9" stroke-width="0.3"/>
</svg>
