<svg width="31" height="31" viewBox="0 0 31 31" fill="none" xmlns="http://www.w3.org/2000/svg">
<rect x="0.925781" y="0.530273" width="30" height="30" rx="6" fill="#EDF4FF"/>
<path d="M19.957 7.53027H12.5195C11.6407 7.53027 10.9258 8.24524 10.9258 9.12402V22.9365C10.9258 23.8153 11.6407 24.5303 12.5195 24.5303H19.957C20.8359 24.5303 21.5508 23.8153 21.5508 22.9365V9.12402C21.5508 8.24524 20.8359 7.53027 19.957 7.53027ZM20.4883 22.9365C20.4883 23.2294 20.2499 23.4678 19.957 23.4678H12.5195C12.2266 23.4678 11.9883 23.2294 11.9883 22.9365V9.12402C11.9883 8.83111 12.2266 8.59277 12.5195 8.59277H19.957C20.2499 8.59277 20.4883 8.83111 20.4883 9.12402V22.9365Z" fill="#5C638B"/>
<path d="M18.8945 9.65527H13.582C13.2886 9.65527 13.0508 9.89314 13.0508 10.1865V12.3115C13.0508 12.6049 13.2886 12.8428 13.582 12.8428H18.8945C19.1879 12.8428 19.4258 12.6049 19.4258 12.3115V10.1865C19.4258 9.89314 19.1879 9.65527 18.8945 9.65527ZM18.3633 11.7803H14.1133V10.7178H18.3633V11.7803Z" fill="#5C638B"/>
<path d="M18.8945 13.9053H13.582C13.2886 13.9053 13.0508 14.1431 13.0508 14.4365V16.5615C13.0508 16.8549 13.2886 17.0928 13.582 17.0928H18.8945C19.1879 17.0928 19.4258 16.8549 19.4258 16.5615V14.4365C19.4258 14.1431 19.1879 13.9053 18.8945 13.9053ZM18.3633 16.0303H14.1133V14.9678H18.3633V16.0303Z" fill="#5C638B"/>
<path d="M16.2383 20.2803C15.6524 20.2803 15.1758 20.7569 15.1758 21.3428C15.1758 21.9286 15.6524 22.4053 16.2383 22.4053C16.8242 22.4053 17.3008 21.9286 17.3008 21.3428C17.3008 20.7569 16.8242 20.2803 16.2383 20.2803Z" fill="#5C638B"/>
<path d="M16.7695 19.2178V18.6865C16.7695 18.3931 16.5317 18.1553 16.2383 18.1553C15.9449 18.1553 15.707 18.3931 15.707 18.6865V19.2178C15.707 19.5112 15.9449 19.749 16.2383 19.749C16.5317 19.749 16.7695 19.5112 16.7695 19.2178Z" fill="#5C638B"/>
</svg>
