<svg width="60" height="60" viewBox="0 0 60 60" fill="none" xmlns="http://www.w3.org/2000/svg">
<rect width="60" height="60" rx="18" fill="#EFF4FD"/>
<path fill-rule="evenodd" clip-rule="evenodd" d="M14.8 14C13.2536 14 12 15.2536 12 16.8V35.5586C12 37.105 13.2536 38.3586 14.8 38.3586H26.4242V39.3448H24.0727C22.5263 39.3448 21.2727 40.5984 21.2727 42.1448V42.8C21.2727 44.3464 22.5263 45.6 24.0727 45.6H35.5273C37.0737 45.6 38.3273 44.3464 38.3273 42.8V42.1448C38.3273 40.5984 37.0737 39.3448 35.5273 39.3448H33.6909V38.3586H44.8C46.3464 38.3586 47.6 37.105 47.6 35.5586V16.8C47.6 15.2536 46.3464 14 44.8 14H14.8ZM13.6 16.8C13.6 16.1373 14.1373 15.6 14.8 15.6H44.8C45.4627 15.6 46 16.1373 46 16.8V35.5586C46 36.2214 45.4627 36.7586 44.8 36.7586H32.8909H32.0909V37.5586V40.1448V40.9448H32.8909H35.5273C36.19 40.9448 36.7273 41.4821 36.7273 42.1448V42.8C36.7273 43.4627 36.19 44 35.5273 44H24.0727C23.41 44 22.8727 43.4627 22.8727 42.8V42.1448C22.8727 41.4821 23.41 40.9448 24.0727 40.9448H27.2242H28.0242V40.1448V37.5586V36.7586H27.2242H14.8C14.1373 36.7586 13.6 36.2214 13.6 35.5586V16.8ZM18.8 21.5C18.8 21.1134 19.1134 20.8 19.5 20.8H27.1C27.4866 20.8 27.8 21.1134 27.8 21.5C27.8 21.8866 27.4866 22.2 27.1 22.2H19.5C19.1134 22.2 18.8 21.8866 18.8 21.5ZM18.8 24.5C18.8 24.1134 19.1134 23.8 19.5 23.8H35.1C35.4866 23.8 35.8 24.1134 35.8 24.5C35.8 24.8866 35.4866 25.2 35.1 25.2H19.5C19.1134 25.2 18.8 24.8866 18.8 24.5ZM19.5 26.8C19.1134 26.8 18.8 27.1134 18.8 27.5C18.8 27.8866 19.1134 28.2 19.5 28.2H39.1C39.4866 28.2 39.8 27.8866 39.8 27.5C39.8 27.1134 39.4866 26.8 39.1 26.8H19.5ZM18.8 30.5C18.8 30.1134 19.1134 29.8 19.5 29.8H25.1C25.4866 29.8 25.8 30.1134 25.8 30.5C25.8 30.8866 25.4866 31.2 25.1 31.2H19.5C19.1134 31.2 18.8 30.8866 18.8 30.5Z" fill="#4164A9"/>
</svg>
