<svg width="60" height="60" viewBox="0 0 60 60" fill="none" xmlns="http://www.w3.org/2000/svg">
<rect width="60" height="60" rx="18" fill="#EFF4FD"/>
<path d="M34.8172 26.0723H30.7161C30.3609 26.0723 30.0703 26.3629 30.0703 26.7181V43.3546C30.0703 43.7098 30.3609 44.0005 30.7161 44.0005H34.8172C35.1724 44.0005 35.463 43.7098 35.463 43.3546V26.7181C35.463 26.3629 35.1724 26.0723 34.8172 26.0723Z" fill="#4164A9"/>
<path d="M43.3542 19.8853H39.2533C38.898 19.8853 38.6074 20.1694 38.6074 20.5311V43.3547C38.6074 43.7099 38.898 44.0005 39.2533 44.0005H43.3542C43.7094 44.0005 44.0001 43.7099 44.0001 43.3547V20.5311C44.0001 20.1694 43.7094 19.8853 43.3542 19.8853Z" fill="#4164A9"/>
<path d="M17.7468 38.4529H13.6458C13.2906 38.4529 13 38.7435 13 39.0987V43.3547C13 43.7099 13.2906 44.0006 13.6458 44.0006H17.7468C18.1021 44.0006 18.3927 43.7099 18.3927 43.3547V39.0987C18.3927 38.7435 18.1021 38.4529 17.7468 38.4529Z" fill="#4164A9"/>
<path d="M26.284 32.2656H22.1829C21.8277 32.2656 21.5371 32.5498 21.5371 32.9115V43.3545C21.5371 43.7097 21.8277 44.0004 22.1829 44.0004H26.284C26.6392 44.0004 26.9298 43.7097 26.9298 43.3545V32.9115C26.9298 32.5498 26.6392 32.2656 26.284 32.2656Z" fill="#4164A9"/>
<path d="M37.8495 13.647C37.831 13.5944 37.7967 13.5496 37.7651 13.5031C37.7491 13.4795 37.742 13.4522 37.7224 13.4303C37.7218 13.4296 37.7209 13.4294 37.7204 13.4287C37.7196 13.4279 37.7194 13.4267 37.7186 13.4259C37.677 13.3802 37.6241 13.3497 37.5723 13.3181C37.5525 13.306 37.5367 13.2863 37.5159 13.2766C37.5041 13.271 37.4902 13.2718 37.4781 13.267C37.412 13.2407 37.3439 13.2201 37.2735 13.2166C37.2724 13.2166 37.2716 13.2159 37.2705 13.2159L32.564 13.0014C32.2092 12.9775 31.9058 13.2606 31.8894 13.617C31.8734 13.9733 32.149 14.2754 32.5053 14.2918L35.6324 14.4341L13.4846 34.2551C13.2188 34.4929 13.1964 34.9009 13.4341 35.1671C13.5615 35.3096 13.7381 35.3821 13.9157 35.3821C14.0689 35.3821 14.2228 35.3279 14.3461 35.2175L36.5235 15.3701L36.3778 18.4525C36.3611 18.8088 36.6363 19.1109 36.9924 19.128C37.0028 19.1286 37.0132 19.1286 37.0236 19.1286C37.3661 19.1286 37.6518 18.8593 37.6682 18.513L37.8864 13.8913C37.8877 13.8619 37.876 13.8346 37.8734 13.8055C37.8688 13.7521 37.8675 13.6983 37.8495 13.647Z" fill="#4164A9"/>
</svg>
