<svg width="31" height="30" viewBox="0 0 31 30" fill="none" xmlns="http://www.w3.org/2000/svg">
<rect x="0.849609" width="30" height="30" rx="6" fill="#EDF4FF"/>
<path d="M23.3496 23H16.3496V22H18.6949C19.6073 22 20.3496 21.2577 20.3496 20.3453V18.6547C20.3496 18.2058 20.1697 17.7984 19.8785 17.5H20.0496C21.8693 17.5 23.3496 16.0011 23.3496 14.1588C23.3496 12.4093 22.039 11.0255 20.431 10.8394C20.0065 9.16836 18.5145 7.97595 16.783 7.97595C15.3586 7.97595 14.1072 8.78042 13.4699 9.97364C12.0057 9.4973 10.5379 10.7019 10.6942 12.2507C9.38002 12.381 8.34961 13.5055 8.34961 14.869C8.34961 16.3206 9.5097 17.5 10.9496 17.5H11.8207C11.5295 17.7984 11.3496 18.2058 11.3496 18.6547V20.3453C11.3496 21.2577 12.0919 22 13.0043 22H15.3496V23H8.34961C8.07348 23 7.84961 23.2238 7.84961 23.5C7.84961 23.7761 8.07348 24 8.34961 24H23.3496C23.6258 24 23.8496 23.7761 23.8496 23.5C23.8496 23.2238 23.6258 23 23.3496 23ZM12.3496 16.3453V14.6547C12.3496 14.2937 12.6433 14 13.0043 14H18.6949C19.0559 14 19.3496 14.2937 19.3496 14.6547V16.3453C19.3496 16.7063 19.0559 17 18.6949 17H13.0043C12.6433 17 12.3496 16.7063 12.3496 16.3453ZM10.9496 16.5C10.0655 16.5 9.34961 15.7711 9.34961 14.8691C9.34961 13.9698 10.0674 13.2382 10.9496 13.2382H11.3402C11.7055 13.2382 11.9481 12.8579 11.7932 12.5265C11.4361 11.7625 11.9825 10.8704 12.8162 10.8704C13.0382 10.8704 13.2532 10.936 13.4379 11.06C13.7078 11.2414 14.0761 11.1205 14.1868 10.8156C14.3808 10.2808 14.7266 9.82292 15.1867 9.49148C16.8706 8.27936 19.2303 9.3232 19.521 11.3873C19.5541 11.6223 19.744 11.8176 20.0496 11.8176C21.3188 11.8176 22.3496 12.8627 22.3496 14.1588C22.3496 15.3483 21.4734 16.3328 20.3436 16.4803C20.352 16.3767 20.3496 16.4955 20.3496 14.6548C20.3496 13.7424 19.6073 13.0001 18.6949 13.0001H13.0043C12.0919 13.0001 11.3496 13.7424 11.3496 14.6548C11.3496 16.4826 11.3465 16.3866 11.357 16.5001H10.9496V16.5ZM12.3496 20.3453V18.6547C12.3496 18.2937 12.6433 18 13.0043 18H18.6949C19.0559 18 19.3496 18.2937 19.3496 18.6547V20.3453C19.3496 20.7063 19.0559 21 18.6949 21H13.0043C12.6433 21 12.3496 20.7063 12.3496 20.3453Z" fill="#5C638B"/>
<path d="M13.8496 16.0001C14.1258 16.0001 14.3496 15.7762 14.3496 15.5001C14.3496 15.2239 14.1258 15.0001 13.8496 15.0001C13.5735 15.0001 13.3496 15.2239 13.3496 15.5001C13.3496 15.7762 13.5735 16.0001 13.8496 16.0001Z" fill="#5C638B"/>
<path d="M13.8496 20C14.1258 20 14.3496 19.7761 14.3496 19.5C14.3496 19.2239 14.1258 19 13.8496 19C13.5735 19 13.3496 19.2239 13.3496 19.5C13.3496 19.7761 13.5735 20 13.8496 20Z" fill="#5C638B"/>
<path d="M17.8496 15.0001H15.3496C15.0735 15.0001 14.8496 15.2239 14.8496 15.5001C14.8496 15.7762 15.0735 16.0001 15.3496 16.0001H17.8496C18.1258 16.0001 18.3496 15.7762 18.3496 15.5001C18.3496 15.2239 18.1258 15.0001 17.8496 15.0001Z" fill="#5C638B"/>
<path d="M18.3496 19.5C18.3496 19.2238 18.1258 19 17.8496 19H15.3496C15.0735 19 14.8496 19.2238 14.8496 19.5C14.8496 19.7762 15.0735 20 15.3496 20H17.8496C18.1258 20 18.3496 19.7761 18.3496 19.5Z" fill="#5C638B"/>
</svg>
