<svg width="25" height="28" viewBox="0 0 25 28" fill="none" xmlns="http://www.w3.org/2000/svg">
<path d="M24.8963 8.22317C24.8963 7.75532 24.7966 7.33348 24.5895 6.98064C24.3901 6.62784 24.091 6.3364 23.6922 6.1063C20.3788 4.1965 17.0578 2.28672 13.7444 0.376918C12.847 -0.136969 11.988 -0.121622 11.0983 0.399921C9.77906 1.1746 3.16764 4.96348 1.20417 6.1063C0.391149 6.57415 0 7.29513 0 8.23086V19.7663C0 20.2265 0.0997016 20.633 0.291448 20.9858C0.490884 21.3463 0.797677 21.6531 1.20417 21.8908C3.17533 23.0337 9.77906 26.8149 11.0983 27.5972C11.988 28.1187 12.8547 28.1417 13.7444 27.6202C17.0578 25.7028 20.3788 23.8006 23.6922 21.8908C24.1063 21.6531 24.4055 21.354 24.6049 20.9858C24.7966 20.633 24.8963 20.2265 24.8963 19.7663V8.22317Z" fill="#9A4993"/>
<path d="M12.4791 13.9526L0.276367 20.9782C0.475803 21.3387 0.782597 21.6455 1.18909 21.8833C3.16025 23.0261 9.76398 26.8073 11.0832 27.5896C11.9729 28.1112 12.8396 28.1342 13.7293 27.6126C17.0427 25.6952 20.3637 23.793 23.6771 21.8833C24.0912 21.6455 24.3904 21.3464 24.5898 20.9782L12.4791 13.9526Z" fill="#6A1577"/>
<path d="M8.86621 16.0312C9.57953 17.2737 10.9141 18.1097 12.4404 18.1097C13.982 18.1097 15.3242 17.266 16.0299 16.0081L12.4787 13.9526L8.86621 16.0312Z" fill="#6A1577"/>
<path d="M24.896 8.22299C24.896 7.75514 24.7963 7.3333 24.5892 6.98047L12.4785 13.9524L24.6045 20.978C24.7963 20.6251 24.896 20.2186 24.896 19.7585V8.22299Z" fill="#813084"/>
<path d="M16.0303 16.0084C15.3247 17.2586 13.9824 18.11 12.4408 18.11C10.9068 18.11 9.57228 17.2739 8.86665 16.0314C8.52151 15.4255 8.32207 14.7352 8.32207 13.9912C8.32207 11.7133 10.1628 9.87252 12.4408 9.87252C13.9594 9.87252 15.2863 10.7009 15.9996 11.928L19.5968 9.85717C18.1625 7.38751 15.4934 5.72314 12.4331 5.72314C7.86188 5.72314 4.16504 9.42768 4.16504 13.9912C4.16504 15.4869 4.56385 16.8981 5.26182 18.11C6.6884 20.5873 9.37285 22.2593 12.4408 22.2593C15.5164 22.2593 18.2009 20.5796 19.6274 18.0869L16.0303 16.0084ZM20.5785 12.0354H19.7578V16.0007H20.5785V12.0354ZM22.3962 12.0354H21.5756V16.0007H22.3962V12.0354Z" fill="white"/>
<path d="M23.063 12.7026H19.0977V13.5233H23.063V12.7026ZM23.063 14.5127H19.0977V15.3334H23.063V14.5127Z" fill="white"/>
</svg>
