<svg width="26" height="26" viewBox="0 0 26 26" fill="none" xmlns="http://www.w3.org/2000/svg">
<path d="M12.5176 0C6.11596 0 6.51567 2.77612 6.51567 2.77612L6.52278 5.65227H12.6317V6.51576H4.0964C4.0964 6.51576 0 6.05118 0 12.5104C0 18.9698 3.57544 18.7407 3.57544 18.7407H5.70924V15.7433C5.70924 15.7433 5.59421 12.1678 9.2276 12.1678H15.2866C15.2866 12.1678 18.6907 12.2228 18.6907 8.87786V3.34714C18.6907 3.34714 19.2077 0 12.5176 0ZM9.14911 1.93415C9.29346 1.93402 9.43643 1.96236 9.56983 2.01754C9.70322 2.07273 9.82442 2.15367 9.9265 2.25575C10.0286 2.35783 10.1095 2.47903 10.1647 2.61243C10.2199 2.74582 10.2482 2.88879 10.2481 3.03315C10.2482 3.1775 10.2199 3.32047 10.1647 3.45387C10.1095 3.58726 10.0286 3.70847 9.9265 3.81054C9.82442 3.91262 9.70322 3.99357 9.56983 4.04875C9.43643 4.10393 9.29346 4.13227 9.14911 4.13214C9.00475 4.13227 8.86178 4.10393 8.72838 4.04875C8.59499 3.99357 8.47379 3.91262 8.37171 3.81054C8.26963 3.70847 8.18869 3.58726 8.1335 3.45387C8.07832 3.32047 8.04998 3.1775 8.05011 3.03315C8.04998 2.88879 8.07832 2.74582 8.1335 2.61243C8.18869 2.47903 8.26963 2.35783 8.37171 2.25575C8.47379 2.15367 8.59499 2.07273 8.72838 2.01754C8.86178 1.96236 9.00475 1.93402 9.14911 1.93415Z" fill="url(#paint0_linear)"/>
<path d="M12.6991 25.0859C19.1007 25.0859 18.701 22.3098 18.701 22.3098L18.6939 19.4337H12.5848V18.5703H21.1202C21.1202 18.5703 25.2166 19.0348 25.2166 12.5754C25.2166 6.11616 21.6411 6.34524 21.6411 6.34524H19.5073V9.34255C19.5073 9.34255 19.6224 12.918 15.989 12.918H9.92998C9.92998 12.918 6.52586 12.863 6.52586 16.2081V21.7389C6.52586 21.7389 6.00895 25.0859 12.699 25.0859H12.6991ZM16.0676 23.152C15.9232 23.1521 15.7802 23.1238 15.6468 23.0686C15.5134 23.0134 15.3922 22.9324 15.2902 22.8304C15.1881 22.7283 15.1071 22.6071 15.052 22.4737C14.9968 22.3403 14.9684 22.1973 14.9686 22.053C14.9684 21.9086 14.9968 21.7656 15.0519 21.6322C15.1071 21.4988 15.1881 21.3776 15.2901 21.2755C15.3922 21.1734 15.5134 21.0925 15.6468 21.0373C15.7802 20.9821 15.9232 20.9537 16.0676 20.9539C16.2119 20.9537 16.3549 20.9821 16.4883 21.0373C16.6217 21.0924 16.7429 21.1734 16.845 21.2755C16.947 21.3775 17.028 21.4988 17.0832 21.6321C17.1384 21.7655 17.1667 21.9085 17.1666 22.0529C17.1667 22.1972 17.1384 22.3402 17.0832 22.4736C17.028 22.607 16.947 22.7282 16.845 22.8303C16.7429 22.9323 16.6217 23.0133 16.4883 23.0685C16.3549 23.1237 16.2119 23.152 16.0676 23.1519V23.152Z" fill="url(#paint1_linear)"/>
<defs>
<linearGradient id="paint0_linear" x1="2.42333" y1="2.25631" x2="14.92" y2="14.6283" gradientUnits="userSpaceOnUse">
<stop stop-color="#387EB8"/>
<stop offset="1" stop-color="#366994"/>
</linearGradient>
<linearGradient id="paint1_linear" x1="10.0935" y1="10.2011" x2="23.5136" y2="22.8875" gradientUnits="userSpaceOnUse">
<stop stop-color="#FFE052"/>
<stop offset="1" stop-color="#FFC331"/>
</linearGradient>
</defs>
</svg>
