<svg width="38" height="20" viewBox="0 0 38 20" fill="none" xmlns="http://www.w3.org/2000/svg">
<path d="M18.8714 19.6469C29.2938 19.6469 37.7428 15.2488 37.7428 9.82346C37.7428 4.39811 29.2938 0 18.8714 0C8.44902 0 0 4.39811 0 9.82346C0 15.2488 8.44902 19.6469 18.8714 19.6469Z" fill="#8993BE"/>
<path fill-rule="evenodd" clip-rule="evenodd" d="M5.2998 15.6401L7.36799 5.1703H12.1503C14.2183 5.29959 15.2524 6.33354 15.2524 8.14328C15.2524 11.2454 12.7966 13.055 10.5991 12.9257H8.27279L7.75574 15.6401H5.2998ZM8.78969 10.987L9.43604 7.10919H11.1163C12.0211 7.10919 12.6673 7.49694 12.6673 8.27243C12.5382 10.4699 11.5041 10.8577 10.3408 10.987H8.78984H8.78969ZM14.7719 12.9257L16.84 2.45605H19.2959L18.7789 5.1703H21.1054C23.1735 5.29959 23.949 6.33354 23.6906 7.62623L22.7858 12.9257H20.2007L21.1055 8.14328C21.2347 7.49694 21.2347 7.10919 20.33 7.10919H18.3911L17.2279 12.9257H14.7719ZM22.6202 15.6401L24.6883 5.1703H29.4707C31.5389 5.29959 32.573 6.33354 32.573 8.14328C32.573 11.2454 30.117 13.055 27.9197 12.9257H25.5931L25.076 15.6401H22.6202ZM26.11 10.987L26.7563 7.10919H28.4368C29.3416 7.10919 29.9877 7.49694 29.9877 8.27243C29.8586 10.4699 28.8245 10.8577 27.6613 10.987H26.1101H26.11Z" fill="white"/>
</svg>
