<svg width="60" height="60" viewBox="0 0 60 60" fill="none" xmlns="http://www.w3.org/2000/svg">
<rect width="60" height="60" rx="18" fill="#D7DCE3"/>
<path d="M30 26.9189C29.3906 26.9189 28.7949 27.0996 28.2883 27.4382C27.7816 27.7767 27.3867 28.2579 27.1535 28.8209C26.9203 29.3839 26.8593 30.0034 26.9781 30.6011C27.097 31.1987 27.3905 31.7477 27.8214 32.1786C28.2523 32.6095 28.8012 32.9029 29.3989 33.0218C29.9966 33.1407 30.6161 33.0797 31.179 32.8465C31.742 32.6133 32.2232 32.2184 32.5618 31.7117C32.9003 31.205 33.081 30.6094 33.081 30C33.0801 29.1831 32.7552 28.4 32.1776 27.8224C31.6 27.2448 30.8168 26.9199 30 26.9189ZM30 31.027C29.7969 31.027 29.5983 30.9668 29.4294 30.8539C29.2605 30.7411 29.1289 30.5807 29.0511 30.393C28.9734 30.2053 28.9531 29.9988 28.9927 29.7996C29.0323 29.6004 29.1301 29.4174 29.2738 29.2738C29.4174 29.1301 29.6004 29.0323 29.7996 28.9927C29.9988 28.9531 30.2053 28.9734 30.393 29.0511C30.5807 29.1289 30.7411 29.2605 30.8539 29.4294C30.9668 29.5983 31.027 29.7969 31.027 30C31.027 30.2724 30.9188 30.5336 30.7262 30.7262C30.5336 30.9188 30.2724 31.027 30 31.027Z" fill="#5C638B"/>
<path d="M36.452 30.2598C36.4561 30.1735 36.4592 30.0868 36.4592 29.9995C36.4592 29.9122 36.4561 29.828 36.452 29.7391L37.061 28.4631C37.1931 28.1872 37.2559 27.8832 37.2441 27.5776C37.2323 27.272 37.1462 26.9738 36.9932 26.7089L36.3457 25.5879C36.1929 25.3232 35.9779 25.0996 35.7194 24.9365C35.4608 24.7734 35.1664 24.6757 34.8617 24.6518L33.4475 24.5409C33.3027 24.4498 33.1546 24.3643 33.0033 24.2841L32.1986 23.1123C32.0253 22.8608 31.7935 22.6551 31.5231 22.5131C31.2527 22.371 30.9518 22.2968 30.6463 22.2969H29.3512C29.0456 22.2969 28.7446 22.3714 28.4742 22.5137C28.2038 22.656 27.972 22.862 27.7989 23.1139L26.9942 24.2857C26.8429 24.3651 26.6949 24.4507 26.5501 24.5424L25.1364 24.6534C24.8315 24.6771 24.537 24.7747 24.2783 24.9378C24.0197 25.1009 23.8046 25.3246 23.6518 25.5895L23.0043 26.711C22.8514 26.9756 22.7653 27.2734 22.7534 27.5788C22.7415 27.8842 22.8042 28.1879 22.936 28.4636L23.5455 29.7407C23.5414 29.8269 23.5384 29.9137 23.5384 30.001C23.5384 30.0883 23.5414 30.1725 23.5455 30.2614L22.9365 31.5374C22.8045 31.8133 22.7416 32.1172 22.7534 32.4229C22.7652 32.7285 22.8514 33.0267 23.0043 33.2915L23.6518 34.4125C23.8046 34.6773 24.0196 34.9009 24.2782 35.064C24.5367 35.2271 24.8311 35.3248 25.1359 35.3487L26.5501 35.4596C26.6938 35.5499 26.8417 35.6347 26.9948 35.7163L27.7989 36.8876C27.9723 37.139 28.2042 37.3444 28.4746 37.4863C28.745 37.6282 29.0459 37.7022 29.3512 37.7021H30.6458C30.9514 37.702 31.2524 37.6276 31.5228 37.4852C31.7933 37.3429 32.025 37.1369 32.1981 36.8851L33.0023 35.7143C33.1563 35.6347 33.3032 35.5489 33.447 35.4575L34.8606 35.3466C35.1655 35.3229 35.4599 35.2253 35.7186 35.0623C35.9772 34.8993 36.1923 34.6757 36.3452 34.411L36.9927 33.2895C37.1456 33.0249 37.2317 32.727 37.2436 32.4216C37.2555 32.1163 37.1929 31.8126 37.061 31.5369L36.452 30.2598ZM34.4052 29.9995C34.4052 30.0601 34.4052 30.1196 34.3995 30.1735C34.3803 30.4943 34.4423 30.8147 34.5798 31.105L35.1693 32.3411L34.6116 33.3064L33.2405 33.4143C32.9299 33.4402 32.6302 33.5416 32.3676 33.7095C32.2577 33.7794 32.1442 33.8441 32.0312 33.9026C31.7522 34.0458 31.5127 34.2555 31.3339 34.5132L30.5564 35.648H29.4411L28.6606 34.5127C28.4831 34.2552 28.2448 34.0454 27.9668 33.9021C27.8508 33.842 27.7378 33.7773 27.6269 33.707C27.3642 33.5391 27.0646 33.4379 26.7539 33.4122L25.3834 33.3049L24.8257 32.3395L25.4147 31.1071C25.5518 30.818 25.614 30.4991 25.5955 30.1797C25.5924 30.1201 25.5898 30.0601 25.5898 29.9995C25.5898 29.9389 25.5898 29.8793 25.5955 29.8254C25.6147 29.5047 25.5527 29.1843 25.4152 28.8939L24.8283 27.6579L25.3859 26.6925L26.757 26.5852C27.0664 26.559 27.3648 26.4578 27.6264 26.2904C27.7363 26.2206 27.8492 26.1564 27.9643 26.0968C28.2428 25.9537 28.4819 25.7444 28.6606 25.4873L29.4411 24.3509H30.5564L31.3375 25.4873C31.5163 25.7445 31.7556 25.9538 32.0343 26.0968C32.1497 26.1564 32.2618 26.2207 32.3707 26.2899C32.6333 26.4578 32.933 26.559 33.2436 26.5846L34.6142 26.692L35.1718 27.6574L34.5828 28.8898C34.4457 29.1788 34.3835 29.4978 34.4021 29.8172C34.4026 29.8793 34.4052 29.9389 34.4052 29.9995Z" fill="#5C638B"/>
<path d="M46.6771 27.017C46.0703 23.6073 44.4319 20.4659 41.983 18.017C39.5341 15.5681 36.3927 13.9297 32.983 13.3229C32.8152 12.659 32.4308 12.07 31.8905 11.6492C31.3502 11.2285 30.685 11 30.0003 11C29.3155 11 28.6503 11.2285 28.11 11.6492C27.5697 12.07 27.1853 12.659 27.0176 13.3229C23.6078 13.9296 20.4663 15.568 18.0172 18.0169C15.5682 20.4658 13.9297 23.6073 13.3229 27.017C12.659 27.1848 12.07 27.5692 11.6492 28.1095C11.2285 28.6498 11 29.315 11 29.9997C11 30.6845 11.2285 31.3497 11.6492 31.89C12.07 32.4303 12.659 32.8147 13.3229 32.9824C13.9296 36.3922 15.568 39.5337 18.0169 41.9827C20.4658 44.4318 23.6073 46.0703 27.017 46.6771C27.1848 47.341 27.5692 47.93 28.1095 48.3508C28.6498 48.7715 29.315 49 29.9997 49C30.6845 49 31.3497 48.7715 31.89 48.3508C32.4303 47.93 32.8147 47.341 32.9824 46.6771C36.3922 46.0704 39.5337 44.432 41.9827 41.9831C44.4318 39.5342 46.0703 36.3927 46.6771 32.983C47.341 32.8152 47.93 32.4308 48.3508 31.8905C48.7715 31.3502 49 30.685 49 30.0003C49 29.3155 48.7715 28.6503 48.3508 28.11C47.93 27.5697 47.341 27.1853 46.6771 27.0176V27.017ZM30 13.0543C30.2659 13.0541 30.5215 13.1571 30.7131 13.3416C30.9046 13.526 31.0172 13.7776 31.027 14.0433C31.027 14.0572 31.0239 14.0716 31.0224 14.0854C31.0224 14.106 31.0173 14.1265 31.0157 14.147C31.0003 14.4059 30.8866 14.6491 30.6979 14.827C30.5091 15.0048 30.2596 15.1039 30.0003 15.1039C29.7409 15.1039 29.4914 15.0048 29.3026 14.827C29.1139 14.6491 29.0002 14.4059 28.9848 14.147C28.9848 14.127 28.9807 14.106 28.9781 14.0854C28.9781 14.0716 28.9781 14.0587 28.9735 14.0438C28.9832 13.7781 29.0956 13.5265 29.2871 13.3419C29.4785 13.1574 29.7341 13.0543 30 13.0543ZM14.0433 28.973L14.0813 28.9776H14.0911C14.1096 28.9776 14.1275 28.9817 14.1465 28.9833C14.4062 28.9976 14.6506 29.1108 14.8294 29.2997C15.0082 29.4886 15.1078 29.7389 15.1078 29.999C15.1078 30.2591 15.0082 30.5093 14.8294 30.6982C14.6506 30.8871 14.4062 31.0004 14.1465 31.0147C14.1275 31.0147 14.107 31.0188 14.0875 31.0208H14.0813L14.0433 31.027C13.7709 31.027 13.5097 30.9188 13.3171 30.7262C13.1245 30.5336 13.0163 30.2724 13.0163 30C13.0163 29.7276 13.1245 29.4664 13.3171 29.2738C13.5097 29.0812 13.7709 28.973 14.0433 28.973ZM30 46.9457C29.7341 46.9459 29.4785 46.8429 29.2869 46.6584C29.0954 46.474 28.9828 46.2224 28.973 45.9567C28.973 45.9428 28.9756 45.929 28.9776 45.9151C28.9776 45.8945 28.9827 45.874 28.9843 45.8535C28.9997 45.5946 29.1134 45.3514 29.3021 45.1735C29.4909 44.9957 29.7404 44.8967 29.9997 44.8967C30.2591 44.8967 30.5086 44.9957 30.6974 45.1735C30.8861 45.3514 30.9998 45.5946 31.0152 45.8535C31.0152 45.8735 31.0193 45.8945 31.0219 45.9151C31.0219 45.929 31.0219 45.9418 31.0265 45.9567C31.0167 46.2223 30.9042 46.4738 30.7128 46.6583C30.5213 46.8427 30.2658 46.9457 30 46.9457ZM32.7806 44.6164C32.5351 44.0853 32.1426 43.6355 31.6496 43.3203C31.1566 43.0051 30.5836 42.8376 29.9985 42.8376C29.4133 42.8376 28.8403 43.0051 28.3473 43.3203C27.8543 43.6355 27.4618 44.0853 27.2163 44.6164C24.2829 44.0612 21.5849 42.635 19.4741 40.5237C17.3633 38.4125 15.9376 35.7141 15.3831 32.7806C15.9144 32.5351 16.3643 32.1427 16.6796 31.6496C16.9949 31.1565 17.1625 30.5835 17.1625 29.9982C17.1625 29.4129 16.9949 28.8399 16.6796 28.3468C16.3643 27.8538 15.9144 27.4613 15.3831 27.2158C15.9384 24.2826 17.3648 21.5848 19.476 19.4742C21.5873 17.3636 24.2855 15.9381 27.2189 15.3836C27.4643 15.9145 27.8565 16.3641 28.3493 16.6792C28.8421 16.9943 29.4148 17.1618 29.9997 17.1618C30.5847 17.1618 31.1574 16.9943 31.6502 16.6792C32.1429 16.3641 32.5352 15.9145 32.7806 15.3836C35.7145 15.9382 38.4131 17.3641 40.5245 19.4753C42.6359 21.5865 44.0621 24.285 44.6169 27.2189C44.0858 27.4641 43.636 27.8563 43.3208 28.3491C43.0055 28.8419 42.838 29.4147 42.838 29.9997C42.838 30.5848 43.0055 31.1575 43.3208 31.6503C43.636 32.1432 44.0858 32.5354 44.6169 32.7806C44.0622 35.7146 42.6361 38.4132 40.5247 40.5245C38.4133 42.6358 35.7146 44.0618 32.7806 44.6164ZM45.9567 31.027L45.9187 31.0224H45.9135C45.894 31.0224 45.8745 31.0178 45.8545 31.0162C45.5948 31.0019 45.3504 30.8887 45.1716 30.6998C44.9928 30.5108 44.8932 30.2606 44.8932 30.0005C44.8932 29.7404 44.9928 29.4902 45.1716 29.3013C45.3504 29.1124 45.5948 28.9991 45.8545 28.9848C45.8725 28.9848 45.8915 28.9812 45.91 28.9792H45.9187L45.9567 28.973C46.2291 28.973 46.4903 29.0812 46.6829 29.2738C46.8755 29.4664 46.9837 29.7276 46.9837 30C46.9837 30.2724 46.8755 30.5336 46.6829 30.7262C46.4903 30.9188 46.2291 31.027 45.9567 31.027Z" fill="#5C638B"/>
</svg>
