<svg width="31" height="31" viewBox="0 0 31 31" fill="none" xmlns="http://www.w3.org/2000/svg">
<rect x="0.0449219" y="0.530273" width="30" height="30" rx="6" fill="#EDF4FF"/>
<path d="M22.4882 21.4286C22.7234 21.4262 22.9484 21.3317 23.1148 21.1653C23.2812 20.999 23.3757 20.774 23.378 20.5387V10.9328C23.3757 10.6976 23.2812 10.4726 23.1148 10.3062C22.9484 10.1398 22.7234 10.0453 22.4882 10.043H20.6814V10.6422H22.4882C22.5645 10.6445 22.6371 10.6758 22.6912 10.7298C22.7452 10.7839 22.7765 10.8565 22.7788 10.9328V20.5372C22.7765 20.6136 22.7452 20.6862 22.6912 20.7402C22.6371 20.7942 22.5645 20.8256 22.4882 20.8278H8.6876C8.61149 20.8256 8.53908 20.7945 8.4851 20.7408C8.43111 20.687 8.3996 20.6148 8.39697 20.5387V10.9328C8.39923 10.8565 8.43057 10.7839 8.4846 10.7298C8.53862 10.6758 8.61124 10.6445 8.6876 10.6422H14.9886V10.043H8.6876C8.45232 10.0453 8.22733 10.1398 8.06095 10.3062C7.89457 10.4726 7.80007 10.6976 7.79773 10.9328V20.5372C7.79968 20.7727 7.89401 20.9981 8.06043 21.1648C8.22685 21.3315 8.45206 21.4262 8.6876 21.4286H6C6 22.0278 6.59924 22.6271 7.19849 22.6271H23.9773C24.5765 22.6271 25.1758 22.0278 25.1758 21.4286H22.4882Z" fill="#5C638B"/>
<path d="M15.5859 10.3422V11.0913H16.7844V10.3422C16.7844 9.786 17.0054 9.25253 17.3987 8.8592C17.7921 8.46587 18.3255 8.2449 18.8818 8.2449H19.8286L18.6301 9.44338L19.481 10.2883L22.1192 7.64566L19.481 5L18.6346 5.84793L19.8331 7.04641H18.8818C18.0077 7.04641 17.1694 7.39365 16.5513 8.01174C15.9332 8.62983 15.5859 9.46814 15.5859 10.3422Z" fill="#5C638B"/>
<path d="M12.5499 16.0346L11.8008 16.7837C11.4706 17.115 11.2852 17.5638 11.2852 18.0316C11.2852 18.4994 11.4706 18.9481 11.8008 19.2795L12.078 19.5566C12.4093 19.8869 12.8581 20.0723 13.3259 20.0723C13.7937 20.0723 14.2425 19.8869 14.5738 19.5566L15.3229 18.8076C15.6262 18.5041 15.8086 18.1007 15.8362 17.6725C15.8638 17.2444 15.7346 16.8209 15.4727 16.481L16.3102 15.6436C16.6502 15.9063 17.0744 16.036 17.5032 16.0084C17.932 15.9808 18.3361 15.7979 18.6397 15.4938L19.3888 14.7447C19.7196 14.4131 19.9053 13.9637 19.9053 13.4953C19.9053 13.0269 19.7196 12.5776 19.3888 12.2459L19.1086 11.9897C18.7769 11.6589 18.3276 11.4731 17.8592 11.4731C17.3908 11.4731 16.9414 11.6589 16.6098 11.9897L15.8607 12.7388C15.5572 13.0427 15.3747 13.4467 15.3471 13.8753C15.3195 14.304 15.4489 14.728 15.7109 15.0683L14.8735 15.9058C14.5363 15.642 14.1149 15.5097 13.6875 15.5334C13.2601 15.5571 12.8558 15.7352 12.5499 16.0346ZM14.7311 18.2218L13.9821 18.9709C13.8076 19.144 13.5717 19.2411 13.3259 19.2411C13.0801 19.2411 12.8443 19.144 12.6698 18.9709L12.3926 18.6937C12.2195 18.5192 12.1224 18.2834 12.1224 18.0376C12.1224 17.7918 12.2195 17.5559 12.3926 17.3814L13.1417 16.6323C13.2883 16.4857 13.4798 16.3925 13.6857 16.3675C13.8915 16.3425 14.0998 16.3872 14.2772 16.4945L13.5896 17.1822C13.5507 17.221 13.5199 17.2671 13.4989 17.3179C13.4779 17.3687 13.467 17.4231 13.467 17.478C13.467 17.533 13.4779 17.5874 13.4989 17.6382C13.5199 17.6889 13.5507 17.735 13.5896 17.7739C13.6284 17.8128 13.6746 17.8436 13.7253 17.8646C13.7761 17.8856 13.8305 17.8965 13.8855 17.8965C13.9404 17.8965 13.9948 17.8856 14.0456 17.8646C14.0964 17.8436 14.1425 17.8128 14.1813 17.7739L14.8675 17.0833C14.9754 17.2609 15.0207 17.4697 14.996 17.6761C14.9713 17.8825 14.878 18.0747 14.7311 18.2218ZM16.1828 13.9792C16.1821 13.8568 16.2058 13.7356 16.2523 13.6224C16.2988 13.5093 16.3674 13.4065 16.454 13.32L17.203 12.571C17.3777 12.3965 17.6145 12.2985 17.8614 12.2985C18.1083 12.2985 18.3451 12.3965 18.5199 12.571L18.7925 12.8436C18.9666 13.0185 19.0643 13.2553 19.0643 13.5021C19.0643 13.7488 18.9666 13.9856 18.7925 14.1605L18.0435 14.9095C17.8965 15.056 17.7048 15.1493 17.4989 15.1746C17.2929 15.1998 17.0844 15.1556 16.9064 15.0488L17.594 14.3612C17.6725 14.2827 17.7166 14.1763 17.7166 14.0653C17.7166 13.9544 17.6725 13.8479 17.594 13.7695C17.5156 13.691 17.4091 13.6469 17.2982 13.6469C17.1872 13.6469 17.0807 13.691 17.0023 13.7695L16.3161 14.4556C16.2294 14.3118 16.1834 14.1471 16.1828 13.9792Z" fill="#5C638B"/>
</svg>
