<svg width="60" height="60" viewBox="0 0 60 60" fill="none" xmlns="http://www.w3.org/2000/svg">
<rect width="60" height="60" rx="18" fill="#EFF4FD"/>
<rect x="17.35" y="24.35" width="8.3" height="0.7" rx="0.35" fill="#4164A9" stroke="#4164A9" stroke-width="0.7"/>
<rect x="17.5502" y="27.5502" width="6.3" height="0.7" rx="0.35" fill="#4164A9" stroke="#4164A9" stroke-width="0.7"/>
<path d="M44.7998 14.7998H14.7998C13.6952 14.7998 12.7998 15.6952 12.7998 16.7998V35.5584C12.7998 36.663 13.6952 37.5584 14.7998 37.5584H27.224V40.1446H24.0725C22.968 40.1446 22.0725 41.0401 22.0725 42.1446V42.7998C22.0725 43.9044 22.968 44.7998 24.0725 44.7998H35.5271C36.6316 44.7998 37.5271 43.9044 37.5271 42.7998V42.1446C37.5271 41.0401 36.6316 40.1446 35.5271 40.1446H32.8907V37.5584H44.7998C45.9044 37.5584 46.7998 36.663 46.7998 35.5584V16.7998C46.7998 15.6952 45.9044 14.7998 44.7998 14.7998Z" stroke="#4164A9" stroke-width="1.6"/>
<mask id="path-5-inside-1" fill="white">
<path d="M43.4135 25.9975L42.1173 24.7013C41.7566 24.3405 41.1419 24.3405 40.7945 24.7013L39.8591 25.6367V21.4142C39.8591 21.1871 39.6721 21 39.4449 21H31.4142C31.1871 21.0134 31 21.1871 31 21.4142V29.4583C31 29.6854 31.1871 29.8725 31.4142 29.8725H35.6233L35.3293 30.1665C35.1022 30.3936 34.9418 30.7009 34.9151 31.035L34.7414 32.438C34.7147 32.7053 34.7949 32.9591 34.9819 33.1462C35.1423 33.3066 35.3561 33.4001 35.5832 33.4001C35.6233 33.4001 35.65 33.4001 35.6901 33.4001L37.0798 33.213C37.4005 33.1729 37.7078 33.026 37.9483 32.7988L43.4135 27.3337C43.5872 27.16 43.6941 26.9194 43.6941 26.6656C43.6941 26.4117 43.6005 26.1712 43.4135 25.9975ZM40.113 26.5453L41.5695 28.0018L38.1488 31.4225L36.6923 29.966L40.113 26.5453ZM31.8285 29.0574V21.8418H39.044V26.4651L36.4518 29.0574H31.8285ZM36.9863 32.3979L35.5565 32.5316L35.7302 31.1285C35.7436 30.9815 35.8104 30.8479 35.9173 30.7544L36.1177 30.554L37.5742 32.0104L37.3738 32.2109C37.2669 32.3178 37.1332 32.3846 36.9863 32.3979ZM42.8389 26.7457L42.1574 27.4138L40.7009 25.9707L41.3824 25.2893C41.4091 25.2625 41.4359 25.2492 41.4626 25.2492C41.4893 25.2492 41.516 25.2625 41.5428 25.2893L42.8389 26.5854C42.879 26.6255 42.879 26.6923 42.8389 26.7457Z"/>
</mask>
<path d="M43.4135 25.9975L42.1173 24.7013C41.7566 24.3405 41.1419 24.3405 40.7945 24.7013L39.8591 25.6367V21.4142C39.8591 21.1871 39.6721 21 39.4449 21H31.4142C31.1871 21.0134 31 21.1871 31 21.4142V29.4583C31 29.6854 31.1871 29.8725 31.4142 29.8725H35.6233L35.3293 30.1665C35.1022 30.3936 34.9418 30.7009 34.9151 31.035L34.7414 32.438C34.7147 32.7053 34.7949 32.9591 34.9819 33.1462C35.1423 33.3066 35.3561 33.4001 35.5832 33.4001C35.6233 33.4001 35.65 33.4001 35.6901 33.4001L37.0798 33.213C37.4005 33.1729 37.7078 33.026 37.9483 32.7988L43.4135 27.3337C43.5872 27.16 43.6941 26.9194 43.6941 26.6656C43.6941 26.4117 43.6005 26.1712 43.4135 25.9975ZM40.113 26.5453L41.5695 28.0018L38.1488 31.4225L36.6923 29.966L40.113 26.5453ZM31.8285 29.0574V21.8418H39.044V26.4651L36.4518 29.0574H31.8285ZM36.9863 32.3979L35.5565 32.5316L35.7302 31.1285C35.7436 30.9815 35.8104 30.8479 35.9173 30.7544L36.1177 30.554L37.5742 32.0104L37.3738 32.2109C37.2669 32.3178 37.1332 32.3846 36.9863 32.3979ZM42.8389 26.7457L42.1574 27.4138L40.7009 25.9707L41.3824 25.2893C41.4091 25.2625 41.4359 25.2492 41.4626 25.2492C41.4893 25.2492 41.516 25.2625 41.5428 25.2893L42.8389 26.5854C42.879 26.6255 42.879 26.6923 42.8389 26.7457Z" fill="#5C638B"/>
<path d="M43.4135 25.9975L42.7064 26.7046L42.7194 26.7177L42.733 26.7302L43.4135 25.9975ZM42.1173 24.7013L41.4102 25.4084L42.1173 24.7013ZM40.7945 24.7013L41.5016 25.4084L41.5083 25.4018L41.5148 25.395L40.7945 24.7013ZM39.8591 25.6367H38.8591V28.0509L40.5662 26.3438L39.8591 25.6367ZM31.4142 21V20H31.3848L31.3555 20.0017L31.4142 21ZM35.6233 29.8725L36.3304 30.5796L38.0375 28.8725H35.6233V29.8725ZM34.9151 31.035L35.9075 31.1579L35.9102 31.1364L35.9119 31.1147L34.9151 31.035ZM34.7414 32.438L33.749 32.3152L33.7475 32.3268L33.7464 32.3385L34.7414 32.438ZM35.6901 33.4001V34.4001H35.7571L35.8235 34.3912L35.6901 33.4001ZM37.0798 33.213L36.9557 32.2207L36.9464 32.222L37.0798 33.213ZM37.9483 32.7988L38.635 33.5258L38.6453 33.516L38.6554 33.5059L37.9483 32.7988ZM40.113 26.5453L40.8201 25.8382L40.113 25.1311L39.4059 25.8382L40.113 26.5453ZM41.5695 28.0018L42.2766 28.7089L42.9837 28.0018L42.2766 27.2947L41.5695 28.0018ZM38.1488 31.4225L37.4417 32.1296L38.1488 32.8367L38.8559 32.1296L38.1488 31.4225ZM36.6923 29.966L35.9852 29.2589L35.2781 29.966L35.9852 30.6731L36.6923 29.966ZM31.8285 29.0574H30.8285V30.0574H31.8285V29.0574ZM31.8285 21.8418V20.8418H30.8285V21.8418H31.8285ZM39.044 21.8418H40.044V20.8418H39.044V21.8418ZM39.044 26.4651L39.7511 27.1722L40.044 26.8793V26.4651H39.044ZM36.4518 29.0574V30.0574H36.866L37.1589 29.7645L36.4518 29.0574ZM36.9863 32.3979L36.8957 31.402L36.8932 31.4023L36.9863 32.3979ZM35.5565 32.5316L34.5641 32.4087L34.4113 33.6429L35.6496 33.5272L35.5565 32.5316ZM35.7302 31.1285L36.7226 31.2514L36.7246 31.2353L36.7261 31.2191L35.7302 31.1285ZM35.9173 30.7544L36.5758 31.507L36.6008 31.485L36.6244 31.4615L35.9173 30.7544ZM36.1177 30.554L36.8248 29.8468L36.1177 29.1397L35.4106 29.8468L36.1177 30.554ZM37.5742 32.0104L38.2813 32.7175L38.9884 32.0104L38.2813 31.3033L37.5742 32.0104ZM37.3738 32.2109L38.0809 32.918L37.3738 32.2109ZM42.8389 26.7457L43.539 27.4598L43.5933 27.4066L43.6389 27.3457L42.8389 26.7457ZM42.1574 27.4138L41.4536 28.1242L42.1537 28.8179L42.8575 28.1279L42.1574 27.4138ZM40.7009 25.9707L39.9938 25.2636L39.2835 25.974L39.9971 26.6811L40.7009 25.9707ZM41.5428 25.2893L42.2499 24.5822L41.5428 25.2893ZM42.8389 26.5854L42.1318 27.2925V27.2925L42.8389 26.5854ZM44.1206 25.2903L42.8244 23.9942L41.4102 25.4084L42.7064 26.7046L44.1206 25.2903ZM42.8244 23.9942C42.0807 23.2504 40.8222 23.2309 40.0742 24.0077L41.5148 25.395C41.4807 25.4304 41.4513 25.4307 41.4509 25.4307C41.4504 25.4307 41.4328 25.431 41.4102 25.4084L42.8244 23.9942ZM40.0874 23.9942L39.152 24.9296L40.5662 26.3438L41.5016 25.4084L40.0874 23.9942ZM40.8591 25.6367V21.4142H38.8591V25.6367H40.8591ZM40.8591 21.4142C40.8591 20.6348 40.2243 20 39.4449 20V22C39.1198 22 38.8591 21.7394 38.8591 21.4142H40.8591ZM39.4449 20H31.4142V22H39.4449V20ZM31.3555 20.0017C30.6757 20.0417 30 20.5848 30 21.4142H32C32 21.7894 31.6985 21.985 31.4729 21.9983L31.3555 20.0017ZM30 21.4142V29.4583H32V21.4142H30ZM30 29.4583C30 30.2377 30.6348 30.8725 31.4142 30.8725V28.8725C31.7394 28.8725 32 29.1331 32 29.4583H30ZM31.4142 30.8725H35.6233V28.8725H31.4142V30.8725ZM34.9162 29.1654L34.6222 29.4593L36.0365 30.8736L36.3304 30.5796L34.9162 29.1654ZM34.6222 29.4593C34.2497 29.8319 33.9664 30.3542 33.9183 30.9552L35.9119 31.1147C35.9173 31.0477 35.9547 30.9553 36.0365 30.8736L34.6222 29.4593ZM33.9227 30.9121L33.749 32.3152L35.7338 32.5609L35.9075 31.1579L33.9227 30.9121ZM33.7464 32.3385C33.693 32.8725 33.8541 33.4326 34.2748 33.8533L35.689 32.4391C35.7071 32.4572 35.722 32.4814 35.7302 32.506C35.7379 32.529 35.7361 32.5412 35.7364 32.5375L33.7464 32.3385ZM34.2748 33.8533C34.6122 34.1907 35.0763 34.4001 35.5832 34.4001V32.4001C35.6358 32.4001 35.6724 32.4225 35.689 32.4391L34.2748 33.8533ZM35.5832 34.4001C35.5833 34.4001 35.5834 34.4001 35.5835 34.4001C35.5835 34.4001 35.5836 34.4001 35.5837 34.4001C35.5838 34.4001 35.5839 34.4001 35.5839 34.4001C35.584 34.4001 35.5841 34.4001 35.5842 34.4001C35.5842 34.4001 35.5843 34.4001 35.5844 34.4001C35.5845 34.4001 35.5846 34.4001 35.5846 34.4001C35.5847 34.4001 35.5848 34.4001 35.5849 34.4001C35.5849 34.4001 35.585 34.4001 35.5851 34.4001C35.5852 34.4001 35.5853 34.4001 35.5853 34.4001C35.5854 34.4001 35.5855 34.4001 35.5856 34.4001C35.5856 34.4001 35.5857 34.4001 35.5858 34.4001C35.5859 34.4001 35.5859 34.4001 35.586 34.4001C35.5861 34.4001 35.5862 34.4001 35.5863 34.4001C35.5863 34.4001 35.5864 34.4001 35.5865 34.4001C35.5866 34.4001 35.5866 34.4001 35.5867 34.4001C35.5868 34.4001 35.5869 34.4001 35.5869 34.4001C35.587 34.4001 35.5871 34.4001 35.5872 34.4001C35.5873 34.4001 35.5873 34.4001 35.5874 34.4001C35.5875 34.4001 35.5876 34.4001 35.5876 34.4001C35.5877 34.4001 35.5878 34.4001 35.5879 34.4001C35.5879 34.4001 35.588 34.4001 35.5881 34.4001C35.5882 34.4001 35.5882 34.4001 35.5883 34.4001C35.5884 34.4001 35.5885 34.4001 35.5886 34.4001C35.5886 34.4001 35.5887 34.4001 35.5888 34.4001C35.5889 34.4001 35.5889 34.4001 35.589 34.4001C35.5891 34.4001 35.5892 34.4001 35.5892 34.4001C35.5893 34.4001 35.5894 34.4001 35.5895 34.4001C35.5895 34.4001 35.5896 34.4001 35.5897 34.4001C35.5898 34.4001 35.5898 34.4001 35.5899 34.4001C35.59 34.4001 35.5901 34.4001 35.5901 34.4001C35.5902 34.4001 35.5903 34.4001 35.5904 34.4001C35.5904 34.4001 35.5905 34.4001 35.5906 34.4001C35.5907 34.4001 35.5907 34.4001 35.5908 34.4001C35.5909 34.4001 35.591 34.4001 35.591 34.4001C35.5911 34.4001 35.5912 34.4001 35.5913 34.4001C35.5913 34.4001 35.5914 34.4001 35.5915 34.4001C35.5916 34.4001 35.5916 34.4001 35.5917 34.4001C35.5918 34.4001 35.5919 34.4001 35.5919 34.4001C35.592 34.4001 35.5921 34.4001 35.5922 34.4001C35.5922 34.4001 35.5923 34.4001 35.5924 34.4001C35.5925 34.4001 35.5925 34.4001 35.5926 34.4001C35.5927 34.4001 35.5928 34.4001 35.5928 34.4001C35.5929 34.4001 35.593 34.4001 35.5931 34.4001C35.5931 34.4001 35.5932 34.4001 35.5933 34.4001C35.5934 34.4001 35.5934 34.4001 35.5935 34.4001C35.5936 34.4001 35.5937 34.4001 35.5937 34.4001C35.5938 34.4001 35.5939 34.4001 35.5939 34.4001C35.594 34.4001 35.5941 34.4001 35.5942 34.4001C35.5942 34.4001 35.5943 34.4001 35.5944 34.4001C35.5945 34.4001 35.5945 34.4001 35.5946 34.4001C35.5947 34.4001 35.5948 34.4001 35.5948 34.4001C35.5949 34.4001 35.595 34.4001 35.5951 34.4001C35.5951 34.4001 35.5952 34.4001 35.5953 34.4001C35.5953 34.4001 35.5954 34.4001 35.5955 34.4001C35.5956 34.4001 35.5956 34.4001 35.5957 34.4001C35.5958 34.4001 35.5959 34.4001 35.5959 34.4001C35.596 34.4001 35.5961 34.4001 35.5962 34.4001C35.5962 34.4001 35.5963 34.4001 35.5964 34.4001C35.5964 34.4001 35.5965 34.4001 35.5966 34.4001C35.5967 34.4001 35.5967 34.4001 35.5968 34.4001C35.5969 34.4001 35.597 34.4001 35.597 34.4001C35.5971 34.4001 35.5972 34.4001 35.5972 34.4001C35.5973 34.4001 35.5974 34.4001 35.5975 34.4001C35.5975 34.4001 35.5976 34.4001 35.5977 34.4001C35.5978 34.4001 35.5978 34.4001 35.5979 34.4001C35.598 34.4001 35.598 34.4001 35.5981 34.4001C35.5982 34.4001 35.5983 34.4001 35.5983 34.4001C35.5984 34.4001 35.5985 34.4001 35.5986 34.4001C35.5986 34.4001 35.5987 34.4001 35.5988 34.4001C35.5988 34.4001 35.5989 34.4001 35.599 34.4001C35.5991 34.4001 35.5991 34.4001 35.5992 34.4001C35.5993 34.4001 35.5993 34.4001 35.5994 34.4001C35.5995 34.4001 35.5996 34.4001 35.5996 34.4001C35.5997 34.4001 35.5998 34.4001 35.5999 34.4001C35.5999 34.4001 35.6 34.4001 35.6001 34.4001C35.6001 34.4001 35.6002 34.4001 35.6003 34.4001C35.6004 34.4001 35.6004 34.4001 35.6005 34.4001C35.6006 34.4001 35.6006 34.4001 35.6007 34.4001C35.6008 34.4001 35.6009 34.4001 35.6009 34.4001C35.601 34.4001 35.6011 34.4001 35.6011 34.4001C35.6012 34.4001 35.6013 34.4001 35.6014 34.4001C35.6014 34.4001 35.6015 34.4001 35.6016 34.4001C35.6016 34.4001 35.6017 34.4001 35.6018 34.4001C35.6019 34.4001 35.6019 34.4001 35.602 34.4001C35.6021 34.4001 35.6021 34.4001 35.6022 34.4001C35.6023 34.4001 35.6024 34.4001 35.6024 34.4001C35.6025 34.4001 35.6026 34.4001 35.6026 34.4001C35.6027 34.4001 35.6028 34.4001 35.6028 34.4001C35.6029 34.4001 35.603 34.4001 35.6031 34.4001C35.6031 34.4001 35.6032 34.4001 35.6033 34.4001C35.6033 34.4001 35.6034 34.4001 35.6035 34.4001C35.6036 34.4001 35.6036 34.4001 35.6037 34.4001C35.6038 34.4001 35.6038 34.4001 35.6039 34.4001C35.604 34.4001 35.604 34.4001 35.6041 34.4001C35.6042 34.4001 35.6043 34.4001 35.6043 34.4001C35.6044 34.4001 35.6045 34.4001 35.6045 34.4001C35.6046 34.4001 35.6047 34.4001 35.6048 34.4001C35.6048 34.4001 35.6049 34.4001 35.605 34.4001C35.605 34.4001 35.6051 34.4001 35.6052 34.4001C35.6052 34.4001 35.6053 34.4001 35.6054 34.4001C35.6055 34.4001 35.6055 34.4001 35.6056 34.4001C35.6057 34.4001 35.6057 34.4001 35.6058 34.4001C35.6059 34.4001 35.6059 34.4001 35.606 34.4001C35.6061 34.4001 35.6062 34.4001 35.6062 34.4001C35.6063 34.4001 35.6064 34.4001 35.6064 34.4001C35.6065 34.4001 35.6066 34.4001 35.6066 34.4001C35.6067 34.4001 35.6068 34.4001 35.6069 34.4001C35.6069 34.4001 35.607 34.4001 35.6071 34.4001C35.6071 34.4001 35.6072 34.4001 35.6073 34.4001C35.6073 34.4001 35.6074 34.4001 35.6075 34.4001C35.6075 34.4001 35.6076 34.4001 35.6077 34.4001C35.6078 34.4001 35.6078 34.4001 35.6079 34.4001C35.608 34.4001 35.608 34.4001 35.6081 34.4001C35.6082 34.4001 35.6082 34.4001 35.6083 34.4001C35.6084 34.4001 35.6084 34.4001 35.6085 34.4001C35.6086 34.4001 35.6087 34.4001 35.6087 34.4001C35.6088 34.4001 35.6089 34.4001 35.6089 34.4001C35.609 34.4001 35.6091 34.4001 35.6091 34.4001C35.6092 34.4001 35.6093 34.4001 35.6093 34.4001C35.6094 34.4001 35.6095 34.4001 35.6096 34.4001C35.6096 34.4001 35.6097 34.4001 35.6098 34.4001C35.6098 34.4001 35.6099 34.4001 35.61 34.4001C35.61 34.4001 35.6101 34.4001 35.6102 34.4001C35.6102 34.4001 35.6103 34.4001 35.6104 34.4001C35.6104 34.4001 35.6105 34.4001 35.6106 34.4001C35.6107 34.4001 35.6107 34.4001 35.6108 34.4001C35.6109 34.4001 35.6109 34.4001 35.611 34.4001C35.6111 34.4001 35.6111 34.4001 35.6112 34.4001C35.6113 34.4001 35.6113 34.4001 35.6114 34.4001C35.6115 34.4001 35.6115 34.4001 35.6116 34.4001C35.6117 34.4001 35.6118 34.4001 35.6118 34.4001C35.6119 34.4001 35.612 34.4001 35.612 34.4001C35.6121 34.4001 35.6122 34.4001 35.6122 34.4001C35.6123 34.4001 35.6124 34.4001 35.6124 34.4001C35.6125 34.4001 35.6126 34.4001 35.6126 34.4001C35.6127 34.4001 35.6128 34.4001 35.6128 34.4001C35.6129 34.4001 35.613 34.4001 35.613 34.4001C35.6131 34.4001 35.6132 34.4001 35.6133 34.4001C35.6133 34.4001 35.6134 34.4001 35.6135 34.4001C35.6135 34.4001 35.6136 34.4001 35.6137 34.4001C35.6137 34.4001 35.6138 34.4001 35.6139 34.4001C35.6139 34.4001 35.614 34.4001 35.6141 34.4001C35.6141 34.4001 35.6142 34.4001 35.6143 34.4001C35.6143 34.4001 35.6144 34.4001 35.6145 34.4001C35.6145 34.4001 35.6146 34.4001 35.6147 34.4001C35.6147 34.4001 35.6148 34.4001 35.6149 34.4001C35.6149 34.4001 35.615 34.4001 35.6151 34.4001C35.6151 34.4001 35.6152 34.4001 35.6153 34.4001C35.6154 34.4001 35.6154 34.4001 35.6155 34.4001C35.6156 34.4001 35.6156 34.4001 35.6157 34.4001C35.6158 34.4001 35.6158 34.4001 35.6159 34.4001C35.616 34.4001 35.616 34.4001 35.6161 34.4001C35.6162 34.4001 35.6162 34.4001 35.6163 34.4001C35.6164 34.4001 35.6164 34.4001 35.6165 34.4001C35.6166 34.4001 35.6166 34.4001 35.6167 34.4001C35.6168 34.4001 35.6168 34.4001 35.6169 34.4001C35.617 34.4001 35.617 34.4001 35.6171 34.4001C35.6172 34.4001 35.6172 34.4001 35.6173 34.4001C35.6174 34.4001 35.6174 34.4001 35.6175 34.4001C35.6176 34.4001 35.6176 34.4001 35.6177 34.4001C35.6178 34.4001 35.6178 34.4001 35.6179 34.4001C35.618 34.4001 35.618 34.4001 35.6181 34.4001C35.6182 34.4001 35.6182 34.4001 35.6183 34.4001C35.6184 34.4001 35.6184 34.4001 35.6185 34.4001C35.6186 34.4001 35.6186 34.4001 35.6187 34.4001C35.6188 34.4001 35.6188 34.4001 35.6189 34.4001C35.619 34.4001 35.619 34.4001 35.6191 34.4001C35.6192 34.4001 35.6192 34.4001 35.6193 34.4001C35.6194 34.4001 35.6194 34.4001 35.6195 34.4001C35.6196 34.4001 35.6196 34.4001 35.6197 34.4001C35.6198 34.4001 35.6198 34.4001 35.6199 34.4001C35.62 34.4001 35.62 34.4001 35.6201 34.4001C35.6202 34.4001 35.6202 34.4001 35.6203 34.4001C35.6204 34.4001 35.6204 34.4001 35.6205 34.4001C35.6206 34.4001 35.6206 34.4001 35.6207 34.4001C35.6208 34.4001 35.6208 34.4001 35.6209 34.4001C35.621 34.4001 35.621 34.4001 35.6211 34.4001C35.6212 34.4001 35.6212 34.4001 35.6213 34.4001C35.6214 34.4001 35.6214 34.4001 35.6215 34.4001C35.6216 34.4001 35.6216 34.4001 35.6217 34.4001C35.6218 34.4001 35.6218 34.4001 35.6219 34.4001C35.622 34.4001 35.622 34.4001 35.6221 34.4001C35.6222 34.4001 35.6222 34.4001 35.6223 34.4001C35.6224 34.4001 35.6224 34.4001 35.6225 34.4001C35.6226 34.4001 35.6226 34.4001 35.6227 34.4001C35.6228 34.4001 35.6228 34.4001 35.6229 34.4001C35.623 34.4001 35.623 34.4001 35.6231 34.4001C35.6232 34.4001 35.6232 34.4001 35.6233 34.4001C35.6234 34.4001 35.6234 34.4001 35.6235 34.4001C35.6236 34.4001 35.6236 34.4001 35.6237 34.4001C35.6238 34.4001 35.6238 34.4001 35.6239 34.4001C35.624 34.4001 35.624 34.4001 35.6241 34.4001C35.6242 34.4001 35.6242 34.4001 35.6243 34.4001C35.6244 34.4001 35.6244 34.4001 35.6245 34.4001C35.6246 34.4001 35.6246 34.4001 35.6247 34.4001C35.6248 34.4001 35.6248 34.4001 35.6249 34.4001C35.625 34.4001 35.625 34.4001 35.6251 34.4001C35.6252 34.4001 35.6252 34.4001 35.6253 34.4001C35.6253 34.4001 35.6254 34.4001 35.6255 34.4001C35.6255 34.4001 35.6256 34.4001 35.6257 34.4001C35.6257 34.4001 35.6258 34.4001 35.6259 34.4001C35.6259 34.4001 35.626 34.4001 35.6261 34.4001C35.6261 34.4001 35.6262 34.4001 35.6263 34.4001C35.6263 34.4001 35.6264 34.4001 35.6265 34.4001C35.6265 34.4001 35.6266 34.4001 35.6267 34.4001C35.6267 34.4001 35.6268 34.4001 35.6269 34.4001C35.6269 34.4001 35.627 34.4001 35.6271 34.4001C35.6271 34.4001 35.6272 34.4001 35.6273 34.4001C35.6273 34.4001 35.6274 34.4001 35.6275 34.4001C35.6275 34.4001 35.6276 34.4001 35.6277 34.4001C35.6277 34.4001 35.6278 34.4001 35.6278 34.4001C35.6279 34.4001 35.628 34.4001 35.628 34.4001C35.6281 34.4001 35.6282 34.4001 35.6282 34.4001C35.6283 34.4001 35.6284 34.4001 35.6284 34.4001C35.6285 34.4001 35.6286 34.4001 35.6286 34.4001C35.6287 34.4001 35.6288 34.4001 35.6288 34.4001C35.6289 34.4001 35.629 34.4001 35.629 34.4001C35.6291 34.4001 35.6292 34.4001 35.6292 34.4001C35.6293 34.4001 35.6294 34.4001 35.6294 34.4001C35.6295 34.4001 35.6296 34.4001 35.6296 34.4001C35.6297 34.4001 35.6298 34.4001 35.6298 34.4001C35.6299 34.4001 35.6299 34.4001 35.63 34.4001C35.6301 34.4001 35.6301 34.4001 35.6302 34.4001C35.6303 34.4001 35.6303 34.4001 35.6304 34.4001C35.6305 34.4001 35.6305 34.4001 35.6306 34.4001C35.6307 34.4001 35.6307 34.4001 35.6308 34.4001C35.6309 34.4001 35.6309 34.4001 35.631 34.4001C35.6311 34.4001 35.6311 34.4001 35.6312 34.4001C35.6313 34.4001 35.6313 34.4001 35.6314 34.4001C35.6315 34.4001 35.6315 34.4001 35.6316 34.4001C35.6316 34.4001 35.6317 34.4001 35.6318 34.4001C35.6318 34.4001 35.6319 34.4001 35.632 34.4001C35.632 34.4001 35.6321 34.4001 35.6322 34.4001C35.6322 34.4001 35.6323 34.4001 35.6324 34.4001C35.6324 34.4001 35.6325 34.4001 35.6326 34.4001C35.6326 34.4001 35.6327 34.4001 35.6328 34.4001C35.6328 34.4001 35.6329 34.4001 35.633 34.4001C35.633 34.4001 35.6331 34.4001 35.6332 34.4001C35.6332 34.4001 35.6333 34.4001 35.6333 34.4001C35.6334 34.4001 35.6335 34.4001 35.6335 34.4001C35.6336 34.4001 35.6337 34.4001 35.6337 34.4001C35.6338 34.4001 35.6339 34.4001 35.6339 34.4001C35.634 34.4001 35.6341 34.4001 35.6341 34.4001C35.6342 34.4001 35.6343 34.4001 35.6343 34.4001C35.6344 34.4001 35.6345 34.4001 35.6345 34.4001C35.6346 34.4001 35.6347 34.4001 35.6347 34.4001C35.6348 34.4001 35.6348 34.4001 35.6349 34.4001C35.635 34.4001 35.635 34.4001 35.6351 34.4001C35.6352 34.4001 35.6352 34.4001 35.6353 34.4001C35.6354 34.4001 35.6354 34.4001 35.6355 34.4001C35.6356 34.4001 35.6356 34.4001 35.6357 34.4001C35.6358 34.4001 35.6358 34.4001 35.6359 34.4001C35.636 34.4001 35.636 34.4001 35.6361 34.4001C35.6362 34.4001 35.6362 34.4001 35.6363 34.4001C35.6363 34.4001 35.6364 34.4001 35.6365 34.4001C35.6365 34.4001 35.6366 34.4001 35.6367 34.4001C35.6367 34.4001 35.6368 34.4001 35.6369 34.4001C35.6369 34.4001 35.637 34.4001 35.6371 34.4001C35.6371 34.4001 35.6372 34.4001 35.6373 34.4001C35.6373 34.4001 35.6374 34.4001 35.6375 34.4001C35.6375 34.4001 35.6376 34.4001 35.6377 34.4001C35.6377 34.4001 35.6378 34.4001 35.6378 34.4001C35.6379 34.4001 35.638 34.4001 35.638 34.4001C35.6381 34.4001 35.6382 34.4001 35.6382 34.4001C35.6383 34.4001 35.6384 34.4001 35.6384 34.4001C35.6385 34.4001 35.6386 34.4001 35.6386 34.4001C35.6387 34.4001 35.6388 34.4001 35.6388 34.4001C35.6389 34.4001 35.639 34.4001 35.639 34.4001C35.6391 34.4001 35.6392 34.4001 35.6392 34.4001C35.6393 34.4001 35.6394 34.4001 35.6394 34.4001C35.6395 34.4001 35.6395 34.4001 35.6396 34.4001C35.6397 34.4001 35.6397 34.4001 35.6398 34.4001C35.6399 34.4001 35.6399 34.4001 35.64 34.4001C35.6401 34.4001 35.6401 34.4001 35.6402 34.4001C35.6403 34.4001 35.6403 34.4001 35.6404 34.4001C35.6405 34.4001 35.6405 34.4001 35.6406 34.4001C35.6407 34.4001 35.6407 34.4001 35.6408 34.4001C35.6409 34.4001 35.6409 34.4001 35.641 34.4001C35.641 34.4001 35.6411 34.4001 35.6412 34.4001C35.6412 34.4001 35.6413 34.4001 35.6414 34.4001C35.6414 34.4001 35.6415 34.4001 35.6416 34.4001C35.6416 34.4001 35.6417 34.4001 35.6418 34.4001C35.6418 34.4001 35.6419 34.4001 35.642 34.4001C35.642 34.4001 35.6421 34.4001 35.6422 34.4001C35.6422 34.4001 35.6423 34.4001 35.6424 34.4001C35.6424 34.4001 35.6425 34.4001 35.6426 34.4001C35.6426 34.4001 35.6427 34.4001 35.6427 34.4001C35.6428 34.4001 35.6429 34.4001 35.6429 34.4001C35.643 34.4001 35.6431 34.4001 35.6431 34.4001C35.6432 34.4001 35.6433 34.4001 35.6433 34.4001C35.6434 34.4001 35.6435 34.4001 35.6435 34.4001C35.6436 34.4001 35.6437 34.4001 35.6437 34.4001C35.6438 34.4001 35.6439 34.4001 35.6439 34.4001C35.644 34.4001 35.6441 34.4001 35.6441 34.4001C35.6442 34.4001 35.6443 34.4001 35.6443 34.4001C35.6444 34.4001 35.6445 34.4001 35.6445 34.4001C35.6446 34.4001 35.6446 34.4001 35.6447 34.4001C35.6448 34.4001 35.6448 34.4001 35.6449 34.4001C35.645 34.4001 35.645 34.4001 35.6451 34.4001C35.6452 34.4001 35.6452 34.4001 35.6453 34.4001C35.6454 34.4001 35.6454 34.4001 35.6455 34.4001C35.6456 34.4001 35.6456 34.4001 35.6457 34.4001C35.6458 34.4001 35.6458 34.4001 35.6459 34.4001C35.646 34.4001 35.646 34.4001 35.6461 34.4001C35.6462 34.4001 35.6462 34.4001 35.6463 34.4001C35.6464 34.4001 35.6464 34.4001 35.6465 34.4001C35.6466 34.4001 35.6466 34.4001 35.6467 34.4001C35.6467 34.4001 35.6468 34.4001 35.6469 34.4001C35.6469 34.4001 35.647 34.4001 35.6471 34.4001C35.6471 34.4001 35.6472 34.4001 35.6473 34.4001C35.6473 34.4001 35.6474 34.4001 35.6475 34.4001C35.6475 34.4001 35.6476 34.4001 35.6477 34.4001C35.6477 34.4001 35.6478 34.4001 35.6479 34.4001C35.6479 34.4001 35.648 34.4001 35.6481 34.4001C35.6481 34.4001 35.6482 34.4001 35.6483 34.4001C35.6483 34.4001 35.6484 34.4001 35.6485 34.4001C35.6485 34.4001 35.6486 34.4001 35.6487 34.4001C35.6487 34.4001 35.6488 34.4001 35.6489 34.4001C35.6489 34.4001 35.649 34.4001 35.6491 34.4001C35.6491 34.4001 35.6492 34.4001 35.6493 34.4001C35.6493 34.4001 35.6494 34.4001 35.6495 34.4001C35.6495 34.4001 35.6496 34.4001 35.6497 34.4001C35.6497 34.4001 35.6498 34.4001 35.6498 34.4001C35.6499 34.4001 35.65 34.4001 35.65 34.4001C35.6501 34.4001 35.6502 34.4001 35.6502 34.4001C35.6503 34.4001 35.6504 34.4001 35.6504 34.4001C35.6505 34.4001 35.6506 34.4001 35.6506 34.4001C35.6507 34.4001 35.6508 34.4001 35.6508 34.4001C35.6509 34.4001 35.651 34.4001 35.651 34.4001C35.6511 34.4001 35.6512 34.4001 35.6512 34.4001C35.6513 34.4001 35.6514 34.4001 35.6514 34.4001C35.6515 34.4001 35.6516 34.4001 35.6516 34.4001C35.6517 34.4001 35.6518 34.4001 35.6518 34.4001C35.6519 34.4001 35.652 34.4001 35.652 34.4001C35.6521 34.4001 35.6522 34.4001 35.6522 34.4001C35.6523 34.4001 35.6524 34.4001 35.6524 34.4001C35.6525 34.4001 35.6526 34.4001 35.6526 34.4001C35.6527 34.4001 35.6528 34.4001 35.6528 34.4001C35.6529 34.4001 35.653 34.4001 35.653 34.4001C35.6531 34.4001 35.6532 34.4001 35.6532 34.4001C35.6533 34.4001 35.6534 34.4001 35.6534 34.4001C35.6535 34.4001 35.6536 34.4001 35.6536 34.4001C35.6537 34.4001 35.6538 34.4001 35.6538 34.4001C35.6539 34.4001 35.654 34.4001 35.654 34.4001C35.6541 34.4001 35.6542 34.4001 35.6542 34.4001C35.6543 34.4001 35.6544 34.4001 35.6544 34.4001C35.6545 34.4001 35.6546 34.4001 35.6546 34.4001C35.6547 34.4001 35.6548 34.4001 35.6548 34.4001C35.6549 34.4001 35.655 34.4001 35.655 34.4001C35.6551 34.4001 35.6552 34.4001 35.6552 34.4001C35.6553 34.4001 35.6554 34.4001 35.6554 34.4001C35.6555 34.4001 35.6556 34.4001 35.6556 34.4001C35.6557 34.4001 35.6558 34.4001 35.6558 34.4001C35.6559 34.4001 35.656 34.4001 35.656 34.4001C35.6561 34.4001 35.6562 34.4001 35.6562 34.4001C35.6563 34.4001 35.6564 34.4001 35.6564 34.4001C35.6565 34.4001 35.6566 34.4001 35.6566 34.4001C35.6567 34.4001 35.6568 34.4001 35.6569 34.4001C35.6569 34.4001 35.657 34.4001 35.6571 34.4001C35.6571 34.4001 35.6572 34.4001 35.6573 34.4001C35.6573 34.4001 35.6574 34.4001 35.6575 34.4001C35.6575 34.4001 35.6576 34.4001 35.6577 34.4001C35.6577 34.4001 35.6578 34.4001 35.6579 34.4001C35.6579 34.4001 35.658 34.4001 35.6581 34.4001C35.6581 34.4001 35.6582 34.4001 35.6583 34.4001C35.6583 34.4001 35.6584 34.4001 35.6585 34.4001C35.6585 34.4001 35.6586 34.4001 35.6587 34.4001C35.6587 34.4001 35.6588 34.4001 35.6589 34.4001C35.6589 34.4001 35.659 34.4001 35.6591 34.4001C35.6591 34.4001 35.6592 34.4001 35.6593 34.4001C35.6594 34.4001 35.6594 34.4001 35.6595 34.4001C35.6596 34.4001 35.6596 34.4001 35.6597 34.4001C35.6598 34.4001 35.6598 34.4001 35.6599 34.4001C35.66 34.4001 35.66 34.4001 35.6601 34.4001C35.6602 34.4001 35.6602 34.4001 35.6603 34.4001C35.6604 34.4001 35.6604 34.4001 35.6605 34.4001C35.6606 34.4001 35.6606 34.4001 35.6607 34.4001C35.6608 34.4001 35.6608 34.4001 35.6609 34.4001C35.661 34.4001 35.6611 34.4001 35.6611 34.4001C35.6612 34.4001 35.6613 34.4001 35.6613 34.4001C35.6614 34.4001 35.6615 34.4001 35.6615 34.4001C35.6616 34.4001 35.6617 34.4001 35.6617 34.4001C35.6618 34.4001 35.6619 34.4001 35.6619 34.4001C35.662 34.4001 35.6621 34.4001 35.6621 34.4001C35.6622 34.4001 35.6623 34.4001 35.6624 34.4001C35.6624 34.4001 35.6625 34.4001 35.6626 34.4001C35.6626 34.4001 35.6627 34.4001 35.6628 34.4001C35.6628 34.4001 35.6629 34.4001 35.663 34.4001C35.663 34.4001 35.6631 34.4001 35.6632 34.4001C35.6632 34.4001 35.6633 34.4001 35.6634 34.4001C35.6635 34.4001 35.6635 34.4001 35.6636 34.4001C35.6637 34.4001 35.6637 34.4001 35.6638 34.4001C35.6639 34.4001 35.6639 34.4001 35.664 34.4001C35.6641 34.4001 35.6641 34.4001 35.6642 34.4001C35.6643 34.4001 35.6643 34.4001 35.6644 34.4001C35.6645 34.4001 35.6646 34.4001 35.6646 34.4001C35.6647 34.4001 35.6648 34.4001 35.6648 34.4001C35.6649 34.4001 35.665 34.4001 35.665 34.4001C35.6651 34.4001 35.6652 34.4001 35.6652 34.4001C35.6653 34.4001 35.6654 34.4001 35.6655 34.4001C35.6655 34.4001 35.6656 34.4001 35.6657 34.4001C35.6657 34.4001 35.6658 34.4001 35.6659 34.4001C35.6659 34.4001 35.666 34.4001 35.6661 34.4001C35.6662 34.4001 35.6662 34.4001 35.6663 34.4001C35.6664 34.4001 35.6664 34.4001 35.6665 34.4001C35.6666 34.4001 35.6666 34.4001 35.6667 34.4001C35.6668 34.4001 35.6668 34.4001 35.6669 34.4001C35.667 34.4001 35.6671 34.4001 35.6671 34.4001C35.6672 34.4001 35.6673 34.4001 35.6673 34.4001C35.6674 34.4001 35.6675 34.4001 35.6675 34.4001C35.6676 34.4001 35.6677 34.4001 35.6678 34.4001C35.6678 34.4001 35.6679 34.4001 35.668 34.4001C35.668 34.4001 35.6681 34.4001 35.6682 34.4001C35.6682 34.4001 35.6683 34.4001 35.6684 34.4001C35.6685 34.4001 35.6685 34.4001 35.6686 34.4001C35.6687 34.4001 35.6687 34.4001 35.6688 34.4001C35.6689 34.4001 35.6689 34.4001 35.669 34.4001C35.6691 34.4001 35.6692 34.4001 35.6692 34.4001C35.6693 34.4001 35.6694 34.4001 35.6694 34.4001C35.6695 34.4001 35.6696 34.4001 35.6697 34.4001C35.6697 34.4001 35.6698 34.4001 35.6699 34.4001C35.6699 34.4001 35.67 34.4001 35.6701 34.4001C35.6701 34.4001 35.6702 34.4001 35.6703 34.4001C35.6704 34.4001 35.6704 34.4001 35.6705 34.4001C35.6706 34.4001 35.6706 34.4001 35.6707 34.4001C35.6708 34.4001 35.6709 34.4001 35.6709 34.4001C35.671 34.4001 35.6711 34.4001 35.6711 34.4001C35.6712 34.4001 35.6713 34.4001 35.6714 34.4001C35.6714 34.4001 35.6715 34.4001 35.6716 34.4001C35.6716 34.4001 35.6717 34.4001 35.6718 34.4001C35.6719 34.4001 35.6719 34.4001 35.672 34.4001C35.6721 34.4001 35.6721 34.4001 35.6722 34.4001C35.6723 34.4001 35.6724 34.4001 35.6724 34.4001C35.6725 34.4001 35.6726 34.4001 35.6726 34.4001C35.6727 34.4001 35.6728 34.4001 35.6729 34.4001C35.6729 34.4001 35.673 34.4001 35.6731 34.4001C35.6731 34.4001 35.6732 34.4001 35.6733 34.4001C35.6734 34.4001 35.6734 34.4001 35.6735 34.4001C35.6736 34.4001 35.6736 34.4001 35.6737 34.4001C35.6738 34.4001 35.6739 34.4001 35.6739 34.4001C35.674 34.4001 35.6741 34.4001 35.6741 34.4001C35.6742 34.4001 35.6743 34.4001 35.6744 34.4001C35.6744 34.4001 35.6745 34.4001 35.6746 34.4001C35.6747 34.4001 35.6747 34.4001 35.6748 34.4001C35.6749 34.4001 35.6749 34.4001 35.675 34.4001C35.6751 34.4001 35.6752 34.4001 35.6752 34.4001C35.6753 34.4001 35.6754 34.4001 35.6754 34.4001C35.6755 34.4001 35.6756 34.4001 35.6757 34.4001C35.6757 34.4001 35.6758 34.4001 35.6759 34.4001C35.676 34.4001 35.676 34.4001 35.6761 34.4001C35.6762 34.4001 35.6762 34.4001 35.6763 34.4001C35.6764 34.4001 35.6765 34.4001 35.6765 34.4001C35.6766 34.4001 35.6767 34.4001 35.6768 34.4001C35.6768 34.4001 35.6769 34.4001 35.677 34.4001C35.677 34.4001 35.6771 34.4001 35.6772 34.4001C35.6773 34.4001 35.6773 34.4001 35.6774 34.4001C35.6775 34.4001 35.6776 34.4001 35.6776 34.4001C35.6777 34.4001 35.6778 34.4001 35.6779 34.4001C35.6779 34.4001 35.678 34.4001 35.6781 34.4001C35.6781 34.4001 35.6782 34.4001 35.6783 34.4001C35.6784 34.4001 35.6784 34.4001 35.6785 34.4001C35.6786 34.4001 35.6787 34.4001 35.6787 34.4001C35.6788 34.4001 35.6789 34.4001 35.679 34.4001C35.679 34.4001 35.6791 34.4001 35.6792 34.4001C35.6793 34.4001 35.6793 34.4001 35.6794 34.4001C35.6795 34.4001 35.6795 34.4001 35.6796 34.4001C35.6797 34.4001 35.6798 34.4001 35.6798 34.4001C35.6799 34.4001 35.68 34.4001 35.6801 34.4001C35.6801 34.4001 35.6802 34.4001 35.6803 34.4001C35.6804 34.4001 35.6804 34.4001 35.6805 34.4001C35.6806 34.4001 35.6807 34.4001 35.6807 34.4001C35.6808 34.4001 35.6809 34.4001 35.681 34.4001C35.681 34.4001 35.6811 34.4001 35.6812 34.4001C35.6813 34.4001 35.6813 34.4001 35.6814 34.4001C35.6815 34.4001 35.6816 34.4001 35.6816 34.4001C35.6817 34.4001 35.6818 34.4001 35.6819 34.4001C35.6819 34.4001 35.682 34.4001 35.6821 34.4001C35.6822 34.4001 35.6822 34.4001 35.6823 34.4001C35.6824 34.4001 35.6825 34.4001 35.6825 34.4001C35.6826 34.4001 35.6827 34.4001 35.6828 34.4001C35.6828 34.4001 35.6829 34.4001 35.683 34.4001C35.6831 34.4001 35.6831 34.4001 35.6832 34.4001C35.6833 34.4001 35.6834 34.4001 35.6834 34.4001C35.6835 34.4001 35.6836 34.4001 35.6837 34.4001C35.6837 34.4001 35.6838 34.4001 35.6839 34.4001C35.684 34.4001 35.684 34.4001 35.6841 34.4001C35.6842 34.4001 35.6843 34.4001 35.6843 34.4001C35.6844 34.4001 35.6845 34.4001 35.6846 34.4001C35.6846 34.4001 35.6847 34.4001 35.6848 34.4001C35.6849 34.4001 35.685 34.4001 35.685 34.4001C35.6851 34.4001 35.6852 34.4001 35.6853 34.4001C35.6853 34.4001 35.6854 34.4001 35.6855 34.4001C35.6856 34.4001 35.6856 34.4001 35.6857 34.4001C35.6858 34.4001 35.6859 34.4001 35.6859 34.4001C35.686 34.4001 35.6861 34.4001 35.6862 34.4001C35.6863 34.4001 35.6863 34.4001 35.6864 34.4001C35.6865 34.4001 35.6866 34.4001 35.6866 34.4001C35.6867 34.4001 35.6868 34.4001 35.6869 34.4001C35.6869 34.4001 35.687 34.4001 35.6871 34.4001C35.6872 34.4001 35.6872 34.4001 35.6873 34.4001C35.6874 34.4001 35.6875 34.4001 35.6876 34.4001C35.6876 34.4001 35.6877 34.4001 35.6878 34.4001C35.6879 34.4001 35.6879 34.4001 35.688 34.4001C35.6881 34.4001 35.6882 34.4001 35.6883 34.4001C35.6883 34.4001 35.6884 34.4001 35.6885 34.4001C35.6886 34.4001 35.6886 34.4001 35.6887 34.4001C35.6888 34.4001 35.6889 34.4001 35.689 34.4001C35.689 34.4001 35.6891 34.4001 35.6892 34.4001C35.6893 34.4001 35.6893 34.4001 35.6894 34.4001C35.6895 34.4001 35.6896 34.4001 35.6897 34.4001C35.6897 34.4001 35.6898 34.4001 35.6899 34.4001C35.69 34.4001 35.69 34.4001 35.6901 34.4001V32.4001C35.69 32.4001 35.69 32.4001 35.6899 32.4001C35.6898 32.4001 35.6897 32.4001 35.6897 32.4001C35.6896 32.4001 35.6895 32.4001 35.6894 32.4001C35.6893 32.4001 35.6893 32.4001 35.6892 32.4001C35.6891 32.4001 35.689 32.4001 35.689 32.4001C35.6889 32.4001 35.6888 32.4001 35.6887 32.4001C35.6886 32.4001 35.6886 32.4001 35.6885 32.4001C35.6884 32.4001 35.6883 32.4001 35.6883 32.4001C35.6882 32.4001 35.6881 32.4001 35.688 32.4001C35.6879 32.4001 35.6879 32.4001 35.6878 32.4001C35.6877 32.4001 35.6876 32.4001 35.6876 32.4001C35.6875 32.4001 35.6874 32.4001 35.6873 32.4001C35.6872 32.4001 35.6872 32.4001 35.6871 32.4001C35.687 32.4001 35.6869 32.4001 35.6869 32.4001C35.6868 32.4001 35.6867 32.4001 35.6866 32.4001C35.6866 32.4001 35.6865 32.4001 35.6864 32.4001C35.6863 32.4001 35.6863 32.4001 35.6862 32.4001C35.6861 32.4001 35.686 32.4001 35.6859 32.4001C35.6859 32.4001 35.6858 32.4001 35.6857 32.4001C35.6856 32.4001 35.6856 32.4001 35.6855 32.4001C35.6854 32.4001 35.6853 32.4001 35.6853 32.4001C35.6852 32.4001 35.6851 32.4001 35.685 32.4001C35.685 32.4001 35.6849 32.4001 35.6848 32.4001C35.6847 32.4001 35.6846 32.4001 35.6846 32.4001C35.6845 32.4001 35.6844 32.4001 35.6843 32.4001C35.6843 32.4001 35.6842 32.4001 35.6841 32.4001C35.684 32.4001 35.684 32.4001 35.6839 32.4001C35.6838 32.4001 35.6837 32.4001 35.6837 32.4001C35.6836 32.4001 35.6835 32.4001 35.6834 32.4001C35.6834 32.4001 35.6833 32.4001 35.6832 32.4001C35.6831 32.4001 35.6831 32.4001 35.683 32.4001C35.6829 32.4001 35.6828 32.4001 35.6828 32.4001C35.6827 32.4001 35.6826 32.4001 35.6825 32.4001C35.6825 32.4001 35.6824 32.4001 35.6823 32.4001C35.6822 32.4001 35.6822 32.4001 35.6821 32.4001C35.682 32.4001 35.6819 32.4001 35.6819 32.4001C35.6818 32.4001 35.6817 32.4001 35.6816 32.4001C35.6816 32.4001 35.6815 32.4001 35.6814 32.4001C35.6813 32.4001 35.6813 32.4001 35.6812 32.4001C35.6811 32.4001 35.681 32.4001 35.681 32.4001C35.6809 32.4001 35.6808 32.4001 35.6807 32.4001C35.6807 32.4001 35.6806 32.4001 35.6805 32.4001C35.6804 32.4001 35.6804 32.4001 35.6803 32.4001C35.6802 32.4001 35.6801 32.4001 35.6801 32.4001C35.68 32.4001 35.6799 32.4001 35.6798 32.4001C35.6798 32.4001 35.6797 32.4001 35.6796 32.4001C35.6795 32.4001 35.6795 32.4001 35.6794 32.4001C35.6793 32.4001 35.6793 32.4001 35.6792 32.4001C35.6791 32.4001 35.679 32.4001 35.679 32.4001C35.6789 32.4001 35.6788 32.4001 35.6787 32.4001C35.6787 32.4001 35.6786 32.4001 35.6785 32.4001C35.6784 32.4001 35.6784 32.4001 35.6783 32.4001C35.6782 32.4001 35.6781 32.4001 35.6781 32.4001C35.678 32.4001 35.6779 32.4001 35.6779 32.4001C35.6778 32.4001 35.6777 32.4001 35.6776 32.4001C35.6776 32.4001 35.6775 32.4001 35.6774 32.4001C35.6773 32.4001 35.6773 32.4001 35.6772 32.4001C35.6771 32.4001 35.677 32.4001 35.677 32.4001C35.6769 32.4001 35.6768 32.4001 35.6768 32.4001C35.6767 32.4001 35.6766 32.4001 35.6765 32.4001C35.6765 32.4001 35.6764 32.4001 35.6763 32.4001C35.6762 32.4001 35.6762 32.4001 35.6761 32.4001C35.676 32.4001 35.676 32.4001 35.6759 32.4001C35.6758 32.4001 35.6757 32.4001 35.6757 32.4001C35.6756 32.4001 35.6755 32.4001 35.6754 32.4001C35.6754 32.4001 35.6753 32.4001 35.6752 32.4001C35.6752 32.4001 35.6751 32.4001 35.675 32.4001C35.6749 32.4001 35.6749 32.4001 35.6748 32.4001C35.6747 32.4001 35.6747 32.4001 35.6746 32.4001C35.6745 32.4001 35.6744 32.4001 35.6744 32.4001C35.6743 32.4001 35.6742 32.4001 35.6741 32.4001C35.6741 32.4001 35.674 32.4001 35.6739 32.4001C35.6739 32.4001 35.6738 32.4001 35.6737 32.4001C35.6736 32.4001 35.6736 32.4001 35.6735 32.4001C35.6734 32.4001 35.6734 32.4001 35.6733 32.4001C35.6732 32.4001 35.6731 32.4001 35.6731 32.4001C35.673 32.4001 35.6729 32.4001 35.6729 32.4001C35.6728 32.4001 35.6727 32.4001 35.6726 32.4001C35.6726 32.4001 35.6725 32.4001 35.6724 32.4001C35.6724 32.4001 35.6723 32.4001 35.6722 32.4001C35.6721 32.4001 35.6721 32.4001 35.672 32.4001C35.6719 32.4001 35.6719 32.4001 35.6718 32.4001C35.6717 32.4001 35.6716 32.4001 35.6716 32.4001C35.6715 32.4001 35.6714 32.4001 35.6714 32.4001C35.6713 32.4001 35.6712 32.4001 35.6711 32.4001C35.6711 32.4001 35.671 32.4001 35.6709 32.4001C35.6709 32.4001 35.6708 32.4001 35.6707 32.4001C35.6706 32.4001 35.6706 32.4001 35.6705 32.4001C35.6704 32.4001 35.6704 32.4001 35.6703 32.4001C35.6702 32.4001 35.6701 32.4001 35.6701 32.4001C35.67 32.4001 35.6699 32.4001 35.6699 32.4001C35.6698 32.4001 35.6697 32.4001 35.6697 32.4001C35.6696 32.4001 35.6695 32.4001 35.6694 32.4001C35.6694 32.4001 35.6693 32.4001 35.6692 32.4001C35.6692 32.4001 35.6691 32.4001 35.669 32.4001C35.6689 32.4001 35.6689 32.4001 35.6688 32.4001C35.6687 32.4001 35.6687 32.4001 35.6686 32.4001C35.6685 32.4001 35.6685 32.4001 35.6684 32.4001C35.6683 32.4001 35.6682 32.4001 35.6682 32.4001C35.6681 32.4001 35.668 32.4001 35.668 32.4001C35.6679 32.4001 35.6678 32.4001 35.6678 32.4001C35.6677 32.4001 35.6676 32.4001 35.6675 32.4001C35.6675 32.4001 35.6674 32.4001 35.6673 32.4001C35.6673 32.4001 35.6672 32.4001 35.6671 32.4001C35.6671 32.4001 35.667 32.4001 35.6669 32.4001C35.6668 32.4001 35.6668 32.4001 35.6667 32.4001C35.6666 32.4001 35.6666 32.4001 35.6665 32.4001C35.6664 32.4001 35.6664 32.4001 35.6663 32.4001C35.6662 32.4001 35.6662 32.4001 35.6661 32.4001C35.666 32.4001 35.6659 32.4001 35.6659 32.4001C35.6658 32.4001 35.6657 32.4001 35.6657 32.4001C35.6656 32.4001 35.6655 32.4001 35.6655 32.4001C35.6654 32.4001 35.6653 32.4001 35.6652 32.4001C35.6652 32.4001 35.6651 32.4001 35.665 32.4001C35.665 32.4001 35.6649 32.4001 35.6648 32.4001C35.6648 32.4001 35.6647 32.4001 35.6646 32.4001C35.6646 32.4001 35.6645 32.4001 35.6644 32.4001C35.6643 32.4001 35.6643 32.4001 35.6642 32.4001C35.6641 32.4001 35.6641 32.4001 35.664 32.4001C35.6639 32.4001 35.6639 32.4001 35.6638 32.4001C35.6637 32.4001 35.6637 32.4001 35.6636 32.4001C35.6635 32.4001 35.6635 32.4001 35.6634 32.4001C35.6633 32.4001 35.6632 32.4001 35.6632 32.4001C35.6631 32.4001 35.663 32.4001 35.663 32.4001C35.6629 32.4001 35.6628 32.4001 35.6628 32.4001C35.6627 32.4001 35.6626 32.4001 35.6626 32.4001C35.6625 32.4001 35.6624 32.4001 35.6624 32.4001C35.6623 32.4001 35.6622 32.4001 35.6621 32.4001C35.6621 32.4001 35.662 32.4001 35.6619 32.4001C35.6619 32.4001 35.6618 32.4001 35.6617 32.4001C35.6617 32.4001 35.6616 32.4001 35.6615 32.4001C35.6615 32.4001 35.6614 32.4001 35.6613 32.4001C35.6613 32.4001 35.6612 32.4001 35.6611 32.4001C35.6611 32.4001 35.661 32.4001 35.6609 32.4001C35.6608 32.4001 35.6608 32.4001 35.6607 32.4001C35.6606 32.4001 35.6606 32.4001 35.6605 32.4001C35.6604 32.4001 35.6604 32.4001 35.6603 32.4001C35.6602 32.4001 35.6602 32.4001 35.6601 32.4001C35.66 32.4001 35.66 32.4001 35.6599 32.4001C35.6598 32.4001 35.6598 32.4001 35.6597 32.4001C35.6596 32.4001 35.6596 32.4001 35.6595 32.4001C35.6594 32.4001 35.6594 32.4001 35.6593 32.4001C35.6592 32.4001 35.6591 32.4001 35.6591 32.4001C35.659 32.4001 35.6589 32.4001 35.6589 32.4001C35.6588 32.4001 35.6587 32.4001 35.6587 32.4001C35.6586 32.4001 35.6585 32.4001 35.6585 32.4001C35.6584 32.4001 35.6583 32.4001 35.6583 32.4001C35.6582 32.4001 35.6581 32.4001 35.6581 32.4001C35.658 32.4001 35.6579 32.4001 35.6579 32.4001C35.6578 32.4001 35.6577 32.4001 35.6577 32.4001C35.6576 32.4001 35.6575 32.4001 35.6575 32.4001C35.6574 32.4001 35.6573 32.4001 35.6573 32.4001C35.6572 32.4001 35.6571 32.4001 35.6571 32.4001C35.657 32.4001 35.6569 32.4001 35.6569 32.4001C35.6568 32.4001 35.6567 32.4001 35.6566 32.4001C35.6566 32.4001 35.6565 32.4001 35.6564 32.4001C35.6564 32.4001 35.6563 32.4001 35.6562 32.4001C35.6562 32.4001 35.6561 32.4001 35.656 32.4001C35.656 32.4001 35.6559 32.4001 35.6558 32.4001C35.6558 32.4001 35.6557 32.4001 35.6556 32.4001C35.6556 32.4001 35.6555 32.4001 35.6554 32.4001C35.6554 32.4001 35.6553 32.4001 35.6552 32.4001C35.6552 32.4001 35.6551 32.4001 35.655 32.4001C35.655 32.4001 35.6549 32.4001 35.6548 32.4001C35.6548 32.4001 35.6547 32.4001 35.6546 32.4001C35.6546 32.4001 35.6545 32.4001 35.6544 32.4001C35.6544 32.4001 35.6543 32.4001 35.6542 32.4001C35.6542 32.4001 35.6541 32.4001 35.654 32.4001C35.654 32.4001 35.6539 32.4001 35.6538 32.4001C35.6538 32.4001 35.6537 32.4001 35.6536 32.4001C35.6536 32.4001 35.6535 32.4001 35.6534 32.4001C35.6534 32.4001 35.6533 32.4001 35.6532 32.4001C35.6532 32.4001 35.6531 32.4001 35.653 32.4001C35.653 32.4001 35.6529 32.4001 35.6528 32.4001C35.6528 32.4001 35.6527 32.4001 35.6526 32.4001C35.6526 32.4001 35.6525 32.4001 35.6524 32.4001C35.6524 32.4001 35.6523 32.4001 35.6522 32.4001C35.6522 32.4001 35.6521 32.4001 35.652 32.4001C35.652 32.4001 35.6519 32.4001 35.6518 32.4001C35.6518 32.4001 35.6517 32.4001 35.6516 32.4001C35.6516 32.4001 35.6515 32.4001 35.6514 32.4001C35.6514 32.4001 35.6513 32.4001 35.6512 32.4001C35.6512 32.4001 35.6511 32.4001 35.651 32.4001C35.651 32.4001 35.6509 32.4001 35.6508 32.4001C35.6508 32.4001 35.6507 32.4001 35.6506 32.4001C35.6506 32.4001 35.6505 32.4001 35.6504 32.4001C35.6504 32.4001 35.6503 32.4001 35.6502 32.4001C35.6502 32.4001 35.6501 32.4001 35.65 32.4001C35.65 32.4001 35.6499 32.4001 35.6498 32.4001C35.6498 32.4001 35.6497 32.4001 35.6497 32.4001C35.6496 32.4001 35.6495 32.4001 35.6495 32.4001C35.6494 32.4001 35.6493 32.4001 35.6493 32.4001C35.6492 32.4001 35.6491 32.4001 35.6491 32.4001C35.649 32.4001 35.6489 32.4001 35.6489 32.4001C35.6488 32.4001 35.6487 32.4001 35.6487 32.4001C35.6486 32.4001 35.6485 32.4001 35.6485 32.4001C35.6484 32.4001 35.6483 32.4001 35.6483 32.4001C35.6482 32.4001 35.6481 32.4001 35.6481 32.4001C35.648 32.4001 35.6479 32.4001 35.6479 32.4001C35.6478 32.4001 35.6477 32.4001 35.6477 32.4001C35.6476 32.4001 35.6475 32.4001 35.6475 32.4001C35.6474 32.4001 35.6473 32.4001 35.6473 32.4001C35.6472 32.4001 35.6471 32.4001 35.6471 32.4001C35.647 32.4001 35.6469 32.4001 35.6469 32.4001C35.6468 32.4001 35.6467 32.4001 35.6467 32.4001C35.6466 32.4001 35.6466 32.4001 35.6465 32.4001C35.6464 32.4001 35.6464 32.4001 35.6463 32.4001C35.6462 32.4001 35.6462 32.4001 35.6461 32.4001C35.646 32.4001 35.646 32.4001 35.6459 32.4001C35.6458 32.4001 35.6458 32.4001 35.6457 32.4001C35.6456 32.4001 35.6456 32.4001 35.6455 32.4001C35.6454 32.4001 35.6454 32.4001 35.6453 32.4001C35.6452 32.4001 35.6452 32.4001 35.6451 32.4001C35.645 32.4001 35.645 32.4001 35.6449 32.4001C35.6448 32.4001 35.6448 32.4001 35.6447 32.4001C35.6446 32.4001 35.6446 32.4001 35.6445 32.4001C35.6445 32.4001 35.6444 32.4001 35.6443 32.4001C35.6443 32.4001 35.6442 32.4001 35.6441 32.4001C35.6441 32.4001 35.644 32.4001 35.6439 32.4001C35.6439 32.4001 35.6438 32.4001 35.6437 32.4001C35.6437 32.4001 35.6436 32.4001 35.6435 32.4001C35.6435 32.4001 35.6434 32.4001 35.6433 32.4001C35.6433 32.4001 35.6432 32.4001 35.6431 32.4001C35.6431 32.4001 35.643 32.4001 35.6429 32.4001C35.6429 32.4001 35.6428 32.4001 35.6427 32.4001C35.6427 32.4001 35.6426 32.4001 35.6426 32.4001C35.6425 32.4001 35.6424 32.4001 35.6424 32.4001C35.6423 32.4001 35.6422 32.4001 35.6422 32.4001C35.6421 32.4001 35.642 32.4001 35.642 32.4001C35.6419 32.4001 35.6418 32.4001 35.6418 32.4001C35.6417 32.4001 35.6416 32.4001 35.6416 32.4001C35.6415 32.4001 35.6414 32.4001 35.6414 32.4001C35.6413 32.4001 35.6412 32.4001 35.6412 32.4001C35.6411 32.4001 35.641 32.4001 35.641 32.4001C35.6409 32.4001 35.6409 32.4001 35.6408 32.4001C35.6407 32.4001 35.6407 32.4001 35.6406 32.4001C35.6405 32.4001 35.6405 32.4001 35.6404 32.4001C35.6403 32.4001 35.6403 32.4001 35.6402 32.4001C35.6401 32.4001 35.6401 32.4001 35.64 32.4001C35.6399 32.4001 35.6399 32.4001 35.6398 32.4001C35.6397 32.4001 35.6397 32.4001 35.6396 32.4001C35.6395 32.4001 35.6395 32.4001 35.6394 32.4001C35.6394 32.4001 35.6393 32.4001 35.6392 32.4001C35.6392 32.4001 35.6391 32.4001 35.639 32.4001C35.639 32.4001 35.6389 32.4001 35.6388 32.4001C35.6388 32.4001 35.6387 32.4001 35.6386 32.4001C35.6386 32.4001 35.6385 32.4001 35.6384 32.4001C35.6384 32.4001 35.6383 32.4001 35.6382 32.4001C35.6382 32.4001 35.6381 32.4001 35.638 32.4001C35.638 32.4001 35.6379 32.4001 35.6378 32.4001C35.6378 32.4001 35.6377 32.4001 35.6377 32.4001C35.6376 32.4001 35.6375 32.4001 35.6375 32.4001C35.6374 32.4001 35.6373 32.4001 35.6373 32.4001C35.6372 32.4001 35.6371 32.4001 35.6371 32.4001C35.637 32.4001 35.6369 32.4001 35.6369 32.4001C35.6368 32.4001 35.6367 32.4001 35.6367 32.4001C35.6366 32.4001 35.6365 32.4001 35.6365 32.4001C35.6364 32.4001 35.6363 32.4001 35.6363 32.4001C35.6362 32.4001 35.6362 32.4001 35.6361 32.4001C35.636 32.4001 35.636 32.4001 35.6359 32.4001C35.6358 32.4001 35.6358 32.4001 35.6357 32.4001C35.6356 32.4001 35.6356 32.4001 35.6355 32.4001C35.6354 32.4001 35.6354 32.4001 35.6353 32.4001C35.6352 32.4001 35.6352 32.4001 35.6351 32.4001C35.635 32.4001 35.635 32.4001 35.6349 32.4001C35.6348 32.4001 35.6348 32.4001 35.6347 32.4001C35.6347 32.4001 35.6346 32.4001 35.6345 32.4001C35.6345 32.4001 35.6344 32.4001 35.6343 32.4001C35.6343 32.4001 35.6342 32.4001 35.6341 32.4001C35.6341 32.4001 35.634 32.4001 35.6339 32.4001C35.6339 32.4001 35.6338 32.4001 35.6337 32.4001C35.6337 32.4001 35.6336 32.4001 35.6335 32.4001C35.6335 32.4001 35.6334 32.4001 35.6333 32.4001C35.6333 32.4001 35.6332 32.4001 35.6332 32.4001C35.6331 32.4001 35.633 32.4001 35.633 32.4001C35.6329 32.4001 35.6328 32.4001 35.6328 32.4001C35.6327 32.4001 35.6326 32.4001 35.6326 32.4001C35.6325 32.4001 35.6324 32.4001 35.6324 32.4001C35.6323 32.4001 35.6322 32.4001 35.6322 32.4001C35.6321 32.4001 35.632 32.4001 35.632 32.4001C35.6319 32.4001 35.6318 32.4001 35.6318 32.4001C35.6317 32.4001 35.6316 32.4001 35.6316 32.4001C35.6315 32.4001 35.6315 32.4001 35.6314 32.4001C35.6313 32.4001 35.6313 32.4001 35.6312 32.4001C35.6311 32.4001 35.6311 32.4001 35.631 32.4001C35.6309 32.4001 35.6309 32.4001 35.6308 32.4001C35.6307 32.4001 35.6307 32.4001 35.6306 32.4001C35.6305 32.4001 35.6305 32.4001 35.6304 32.4001C35.6303 32.4001 35.6303 32.4001 35.6302 32.4001C35.6301 32.4001 35.6301 32.4001 35.63 32.4001C35.6299 32.4001 35.6299 32.4001 35.6298 32.4001C35.6298 32.4001 35.6297 32.4001 35.6296 32.4001C35.6296 32.4001 35.6295 32.4001 35.6294 32.4001C35.6294 32.4001 35.6293 32.4001 35.6292 32.4001C35.6292 32.4001 35.6291 32.4001 35.629 32.4001C35.629 32.4001 35.6289 32.4001 35.6288 32.4001C35.6288 32.4001 35.6287 32.4001 35.6286 32.4001C35.6286 32.4001 35.6285 32.4001 35.6284 32.4001C35.6284 32.4001 35.6283 32.4001 35.6282 32.4001C35.6282 32.4001 35.6281 32.4001 35.628 32.4001C35.628 32.4001 35.6279 32.4001 35.6278 32.4001C35.6278 32.4001 35.6277 32.4001 35.6277 32.4001C35.6276 32.4001 35.6275 32.4001 35.6275 32.4001C35.6274 32.4001 35.6273 32.4001 35.6273 32.4001C35.6272 32.4001 35.6271 32.4001 35.6271 32.4001C35.627 32.4001 35.6269 32.4001 35.6269 32.4001C35.6268 32.4001 35.6267 32.4001 35.6267 32.4001C35.6266 32.4001 35.6265 32.4001 35.6265 32.4001C35.6264 32.4001 35.6263 32.4001 35.6263 32.4001C35.6262 32.4001 35.6261 32.4001 35.6261 32.4001C35.626 32.4001 35.6259 32.4001 35.6259 32.4001C35.6258 32.4001 35.6257 32.4001 35.6257 32.4001C35.6256 32.4001 35.6255 32.4001 35.6255 32.4001C35.6254 32.4001 35.6253 32.4001 35.6253 32.4001C35.6252 32.4001 35.6252 32.4001 35.6251 32.4001C35.625 32.4001 35.625 32.4001 35.6249 32.4001C35.6248 32.4001 35.6248 32.4001 35.6247 32.4001C35.6246 32.4001 35.6246 32.4001 35.6245 32.4001C35.6244 32.4001 35.6244 32.4001 35.6243 32.4001C35.6242 32.4001 35.6242 32.4001 35.6241 32.4001C35.624 32.4001 35.624 32.4001 35.6239 32.4001C35.6238 32.4001 35.6238 32.4001 35.6237 32.4001C35.6236 32.4001 35.6236 32.4001 35.6235 32.4001C35.6234 32.4001 35.6234 32.4001 35.6233 32.4001C35.6232 32.4001 35.6232 32.4001 35.6231 32.4001C35.623 32.4001 35.623 32.4001 35.6229 32.4001C35.6228 32.4001 35.6228 32.4001 35.6227 32.4001C35.6226 32.4001 35.6226 32.4001 35.6225 32.4001C35.6224 32.4001 35.6224 32.4001 35.6223 32.4001C35.6222 32.4001 35.6222 32.4001 35.6221 32.4001C35.622 32.4001 35.622 32.4001 35.6219 32.4001C35.6218 32.4001 35.6218 32.4001 35.6217 32.4001C35.6216 32.4001 35.6216 32.4001 35.6215 32.4001C35.6214 32.4001 35.6214 32.4001 35.6213 32.4001C35.6212 32.4001 35.6212 32.4001 35.6211 32.4001C35.621 32.4001 35.621 32.4001 35.6209 32.4001C35.6208 32.4001 35.6208 32.4001 35.6207 32.4001C35.6206 32.4001 35.6206 32.4001 35.6205 32.4001C35.6204 32.4001 35.6204 32.4001 35.6203 32.4001C35.6202 32.4001 35.6202 32.4001 35.6201 32.4001C35.62 32.4001 35.62 32.4001 35.6199 32.4001C35.6198 32.4001 35.6198 32.4001 35.6197 32.4001C35.6196 32.4001 35.6196 32.4001 35.6195 32.4001C35.6194 32.4001 35.6194 32.4001 35.6193 32.4001C35.6192 32.4001 35.6192 32.4001 35.6191 32.4001C35.619 32.4001 35.619 32.4001 35.6189 32.4001C35.6188 32.4001 35.6188 32.4001 35.6187 32.4001C35.6186 32.4001 35.6186 32.4001 35.6185 32.4001C35.6184 32.4001 35.6184 32.4001 35.6183 32.4001C35.6182 32.4001 35.6182 32.4001 35.6181 32.4001C35.618 32.4001 35.618 32.4001 35.6179 32.4001C35.6178 32.4001 35.6178 32.4001 35.6177 32.4001C35.6176 32.4001 35.6176 32.4001 35.6175 32.4001C35.6174 32.4001 35.6174 32.4001 35.6173 32.4001C35.6172 32.4001 35.6172 32.4001 35.6171 32.4001C35.617 32.4001 35.617 32.4001 35.6169 32.4001C35.6168 32.4001 35.6168 32.4001 35.6167 32.4001C35.6166 32.4001 35.6166 32.4001 35.6165 32.4001C35.6164 32.4001 35.6164 32.4001 35.6163 32.4001C35.6162 32.4001 35.6162 32.4001 35.6161 32.4001C35.616 32.4001 35.616 32.4001 35.6159 32.4001C35.6158 32.4001 35.6158 32.4001 35.6157 32.4001C35.6156 32.4001 35.6156 32.4001 35.6155 32.4001C35.6154 32.4001 35.6154 32.4001 35.6153 32.4001C35.6152 32.4001 35.6151 32.4001 35.6151 32.4001C35.615 32.4001 35.6149 32.4001 35.6149 32.4001C35.6148 32.4001 35.6147 32.4001 35.6147 32.4001C35.6146 32.4001 35.6145 32.4001 35.6145 32.4001C35.6144 32.4001 35.6143 32.4001 35.6143 32.4001C35.6142 32.4001 35.6141 32.4001 35.6141 32.4001C35.614 32.4001 35.6139 32.4001 35.6139 32.4001C35.6138 32.4001 35.6137 32.4001 35.6137 32.4001C35.6136 32.4001 35.6135 32.4001 35.6135 32.4001C35.6134 32.4001 35.6133 32.4001 35.6133 32.4001C35.6132 32.4001 35.6131 32.4001 35.613 32.4001C35.613 32.4001 35.6129 32.4001 35.6128 32.4001C35.6128 32.4001 35.6127 32.4001 35.6126 32.4001C35.6126 32.4001 35.6125 32.4001 35.6124 32.4001C35.6124 32.4001 35.6123 32.4001 35.6122 32.4001C35.6122 32.4001 35.6121 32.4001 35.612 32.4001C35.612 32.4001 35.6119 32.4001 35.6118 32.4001C35.6118 32.4001 35.6117 32.4001 35.6116 32.4001C35.6115 32.4001 35.6115 32.4001 35.6114 32.4001C35.6113 32.4001 35.6113 32.4001 35.6112 32.4001C35.6111 32.4001 35.6111 32.4001 35.611 32.4001C35.6109 32.4001 35.6109 32.4001 35.6108 32.4001C35.6107 32.4001 35.6107 32.4001 35.6106 32.4001C35.6105 32.4001 35.6104 32.4001 35.6104 32.4001C35.6103 32.4001 35.6102 32.4001 35.6102 32.4001C35.6101 32.4001 35.61 32.4001 35.61 32.4001C35.6099 32.4001 35.6098 32.4001 35.6098 32.4001C35.6097 32.4001 35.6096 32.4001 35.6096 32.4001C35.6095 32.4001 35.6094 32.4001 35.6093 32.4001C35.6093 32.4001 35.6092 32.4001 35.6091 32.4001C35.6091 32.4001 35.609 32.4001 35.6089 32.4001C35.6089 32.4001 35.6088 32.4001 35.6087 32.4001C35.6087 32.4001 35.6086 32.4001 35.6085 32.4001C35.6084 32.4001 35.6084 32.4001 35.6083 32.4001C35.6082 32.4001 35.6082 32.4001 35.6081 32.4001C35.608 32.4001 35.608 32.4001 35.6079 32.4001C35.6078 32.4001 35.6078 32.4001 35.6077 32.4001C35.6076 32.4001 35.6075 32.4001 35.6075 32.4001C35.6074 32.4001 35.6073 32.4001 35.6073 32.4001C35.6072 32.4001 35.6071 32.4001 35.6071 32.4001C35.607 32.4001 35.6069 32.4001 35.6069 32.4001C35.6068 32.4001 35.6067 32.4001 35.6066 32.4001C35.6066 32.4001 35.6065 32.4001 35.6064 32.4001C35.6064 32.4001 35.6063 32.4001 35.6062 32.4001C35.6062 32.4001 35.6061 32.4001 35.606 32.4001C35.6059 32.4001 35.6059 32.4001 35.6058 32.4001C35.6057 32.4001 35.6057 32.4001 35.6056 32.4001C35.6055 32.4001 35.6055 32.4001 35.6054 32.4001C35.6053 32.4001 35.6052 32.4001 35.6052 32.4001C35.6051 32.4001 35.605 32.4001 35.605 32.4001C35.6049 32.4001 35.6048 32.4001 35.6048 32.4001C35.6047 32.4001 35.6046 32.4001 35.6045 32.4001C35.6045 32.4001 35.6044 32.4001 35.6043 32.4001C35.6043 32.4001 35.6042 32.4001 35.6041 32.4001C35.604 32.4001 35.604 32.4001 35.6039 32.4001C35.6038 32.4001 35.6038 32.4001 35.6037 32.4001C35.6036 32.4001 35.6036 32.4001 35.6035 32.4001C35.6034 32.4001 35.6033 32.4001 35.6033 32.4001C35.6032 32.4001 35.6031 32.4001 35.6031 32.4001C35.603 32.4001 35.6029 32.4001 35.6028 32.4001C35.6028 32.4001 35.6027 32.4001 35.6026 32.4001C35.6026 32.4001 35.6025 32.4001 35.6024 32.4001C35.6024 32.4001 35.6023 32.4001 35.6022 32.4001C35.6021 32.4001 35.6021 32.4001 35.602 32.4001C35.6019 32.4001 35.6019 32.4001 35.6018 32.4001C35.6017 32.4001 35.6016 32.4001 35.6016 32.4001C35.6015 32.4001 35.6014 32.4001 35.6014 32.4001C35.6013 32.4001 35.6012 32.4001 35.6011 32.4001C35.6011 32.4001 35.601 32.4001 35.6009 32.4001C35.6009 32.4001 35.6008 32.4001 35.6007 32.4001C35.6006 32.4001 35.6006 32.4001 35.6005 32.4001C35.6004 32.4001 35.6004 32.4001 35.6003 32.4001C35.6002 32.4001 35.6001 32.4001 35.6001 32.4001C35.6 32.4001 35.5999 32.4001 35.5999 32.4001C35.5998 32.4001 35.5997 32.4001 35.5996 32.4001C35.5996 32.4001 35.5995 32.4001 35.5994 32.4001C35.5993 32.4001 35.5993 32.4001 35.5992 32.4001C35.5991 32.4001 35.5991 32.4001 35.599 32.4001C35.5989 32.4001 35.5988 32.4001 35.5988 32.4001C35.5987 32.4001 35.5986 32.4001 35.5986 32.4001C35.5985 32.4001 35.5984 32.4001 35.5983 32.4001C35.5983 32.4001 35.5982 32.4001 35.5981 32.4001C35.598 32.4001 35.598 32.4001 35.5979 32.4001C35.5978 32.4001 35.5978 32.4001 35.5977 32.4001C35.5976 32.4001 35.5975 32.4001 35.5975 32.4001C35.5974 32.4001 35.5973 32.4001 35.5972 32.4001C35.5972 32.4001 35.5971 32.4001 35.597 32.4001C35.597 32.4001 35.5969 32.4001 35.5968 32.4001C35.5967 32.4001 35.5967 32.4001 35.5966 32.4001C35.5965 32.4001 35.5964 32.4001 35.5964 32.4001C35.5963 32.4001 35.5962 32.4001 35.5962 32.4001C35.5961 32.4001 35.596 32.4001 35.5959 32.4001C35.5959 32.4001 35.5958 32.4001 35.5957 32.4001C35.5956 32.4001 35.5956 32.4001 35.5955 32.4001C35.5954 32.4001 35.5953 32.4001 35.5953 32.4001C35.5952 32.4001 35.5951 32.4001 35.5951 32.4001C35.595 32.4001 35.5949 32.4001 35.5948 32.4001C35.5948 32.4001 35.5947 32.4001 35.5946 32.4001C35.5945 32.4001 35.5945 32.4001 35.5944 32.4001C35.5943 32.4001 35.5942 32.4001 35.5942 32.4001C35.5941 32.4001 35.594 32.4001 35.5939 32.4001C35.5939 32.4001 35.5938 32.4001 35.5937 32.4001C35.5937 32.4001 35.5936 32.4001 35.5935 32.4001C35.5934 32.4001 35.5934 32.4001 35.5933 32.4001C35.5932 32.4001 35.5931 32.4001 35.5931 32.4001C35.593 32.4001 35.5929 32.4001 35.5928 32.4001C35.5928 32.4001 35.5927 32.4001 35.5926 32.4001C35.5925 32.4001 35.5925 32.4001 35.5924 32.4001C35.5923 32.4001 35.5922 32.4001 35.5922 32.4001C35.5921 32.4001 35.592 32.4001 35.5919 32.4001C35.5919 32.4001 35.5918 32.4001 35.5917 32.4001C35.5916 32.4001 35.5916 32.4001 35.5915 32.4001C35.5914 32.4001 35.5913 32.4001 35.5913 32.4001C35.5912 32.4001 35.5911 32.4001 35.591 32.4001C35.591 32.4001 35.5909 32.4001 35.5908 32.4001C35.5907 32.4001 35.5907 32.4001 35.5906 32.4001C35.5905 32.4001 35.5904 32.4001 35.5904 32.4001C35.5903 32.4001 35.5902 32.4001 35.5901 32.4001C35.5901 32.4001 35.59 32.4001 35.5899 32.4001C35.5898 32.4001 35.5898 32.4001 35.5897 32.4001C35.5896 32.4001 35.5895 32.4001 35.5895 32.4001C35.5894 32.4001 35.5893 32.4001 35.5892 32.4001C35.5892 32.4001 35.5891 32.4001 35.589 32.4001C35.5889 32.4001 35.5889 32.4001 35.5888 32.4001C35.5887 32.4001 35.5886 32.4001 35.5886 32.4001C35.5885 32.4001 35.5884 32.4001 35.5883 32.4001C35.5882 32.4001 35.5882 32.4001 35.5881 32.4001C35.588 32.4001 35.5879 32.4001 35.5879 32.4001C35.5878 32.4001 35.5877 32.4001 35.5876 32.4001C35.5876 32.4001 35.5875 32.4001 35.5874 32.4001C35.5873 32.4001 35.5873 32.4001 35.5872 32.4001C35.5871 32.4001 35.587 32.4001 35.5869 32.4001C35.5869 32.4001 35.5868 32.4001 35.5867 32.4001C35.5866 32.4001 35.5866 32.4001 35.5865 32.4001C35.5864 32.4001 35.5863 32.4001 35.5863 32.4001C35.5862 32.4001 35.5861 32.4001 35.586 32.4001C35.5859 32.4001 35.5859 32.4001 35.5858 32.4001C35.5857 32.4001 35.5856 32.4001 35.5856 32.4001C35.5855 32.4001 35.5854 32.4001 35.5853 32.4001C35.5853 32.4001 35.5852 32.4001 35.5851 32.4001C35.585 32.4001 35.5849 32.4001 35.5849 32.4001C35.5848 32.4001 35.5847 32.4001 35.5846 32.4001C35.5846 32.4001 35.5845 32.4001 35.5844 32.4001C35.5843 32.4001 35.5842 32.4001 35.5842 32.4001C35.5841 32.4001 35.584 32.4001 35.5839 32.4001C35.5839 32.4001 35.5838 32.4001 35.5837 32.4001C35.5836 32.4001 35.5835 32.4001 35.5835 32.4001C35.5834 32.4001 35.5833 32.4001 35.5832 32.4001V34.4001ZM35.8235 34.3912L37.2132 34.2041L36.9464 32.222L35.5567 32.409L35.8235 34.3912ZM37.2038 34.2053C37.742 34.138 38.2447 33.8944 38.635 33.5258L37.2617 32.0718C37.1709 32.1575 37.059 32.2078 36.9558 32.2208L37.2038 34.2053ZM38.6554 33.5059L44.1206 28.0408L42.7064 26.6266L37.2412 32.0917L38.6554 33.5059ZM44.1206 28.0408C44.4711 27.6903 44.6941 27.1995 44.6941 26.6656H42.6941C42.6941 26.6518 42.697 26.6423 42.6991 26.6374C42.7009 26.633 42.7032 26.6298 42.7064 26.6266L44.1206 28.0408ZM44.6941 26.6656C44.6941 26.1643 44.5062 25.6475 44.0939 25.2647L42.733 26.7302C42.7172 26.7155 42.7056 26.6977 42.6992 26.6822C42.6933 26.6678 42.6941 26.6612 42.6941 26.6656H44.6941ZM39.4059 27.2524L40.8624 28.7089L42.2766 27.2947L40.8201 25.8382L39.4059 27.2524ZM40.8624 27.2947L37.4417 30.7154L38.8559 32.1296L42.2766 28.7089L40.8624 27.2947ZM38.8559 30.7154L37.3994 29.2589L35.9852 30.6731L37.4417 32.1296L38.8559 30.7154ZM37.3994 30.6731L40.8201 27.2524L39.4059 25.8382L35.9852 29.2589L37.3994 30.6731ZM32.8285 29.0574V21.8418H30.8285V29.0574H32.8285ZM31.8285 22.8418H39.044V20.8418H31.8285V22.8418ZM38.044 21.8418V26.4651H40.044V21.8418H38.044ZM38.3369 25.758L35.7447 28.3503L37.1589 29.7645L39.7511 27.1722L38.3369 25.758ZM36.4518 28.0574H31.8285V30.0574H36.4518V28.0574ZM36.8932 31.4023L35.4634 31.5359L35.6496 33.5272L37.0793 33.3936L36.8932 31.4023ZM36.5489 32.6544L36.7226 31.2514L34.7378 31.0057L34.5641 32.4087L36.5489 32.6544ZM36.7261 31.2191C36.7172 31.3168 36.6704 31.4242 36.5758 31.507L35.2588 30.0018C34.9504 30.2717 34.7699 30.6463 34.7343 31.038L36.7261 31.2191ZM36.6244 31.4615L36.8248 31.2611L35.4106 29.8468L35.2102 30.0473L36.6244 31.4615ZM35.4106 31.2611L36.8671 32.7175L38.2813 31.3033L36.8248 29.8468L35.4106 31.2611ZM36.8671 31.3033L36.6667 31.5038L38.0809 32.918L38.2813 32.7175L36.8671 31.3033ZM36.6667 31.5038C36.7095 31.4609 36.7886 31.4118 36.8957 31.402L37.0768 33.3938C37.4779 33.3574 37.8242 33.1746 38.0809 32.918L36.6667 31.5038ZM42.1388 26.0317L41.4573 26.6998L42.8575 28.1279L43.539 27.4598L42.1388 26.0317ZM42.8613 26.7035L41.4048 25.2604L39.9971 26.6811L41.4536 28.1242L42.8613 26.7035ZM41.408 26.6778L42.0895 25.9964L40.6753 24.5822L39.9938 25.2636L41.408 26.6778ZM42.0895 25.9964C42.0072 26.0786 41.7946 26.2492 41.4626 26.2492V24.2492C41.0771 24.2492 40.811 24.4464 40.6753 24.5822L42.0895 25.9964ZM41.4626 26.2492C41.1305 26.2492 40.9179 26.0786 40.8357 25.9964L42.2499 24.5822C42.1141 24.4464 41.8481 24.2492 41.4626 24.2492V26.2492ZM40.8357 25.9964L42.1318 27.2925L43.546 25.8783L42.2499 24.5822L40.8357 25.9964ZM42.1318 27.2925C41.7351 26.8958 41.8585 26.3862 42.0389 26.1457L43.6389 27.3457C43.8994 26.9984 44.0228 26.3551 43.546 25.8783L42.1318 27.2925Z" fill="#4164A9" mask="url(#path-5-inside-1)"/>
<mask id="path-7-inside-2" fill="white">
<path d="M37.2799 25.0354H35.8502V23.6056C35.8502 23.3785 35.6631 23.1914 35.4359 23.1914C35.2088 23.1914 35.0217 23.3785 35.0217 23.6056V25.0354H33.592C33.3648 25.0354 33.1777 25.2225 33.1777 25.4496C33.1777 25.6768 33.3648 25.8638 33.592 25.8638H35.0217V27.2936C35.0217 27.5208 35.2088 27.7078 35.4359 27.7078C35.6631 27.7078 35.8502 27.5208 35.8502 27.2936V25.8505H37.2799C37.5071 25.8505 37.6941 25.6634 37.6941 25.4363C37.6808 25.2091 37.5071 25.0354 37.2799 25.0354Z"/>
</mask>
<path d="M37.2799 25.0354H35.8502V23.6056C35.8502 23.3785 35.6631 23.1914 35.4359 23.1914C35.2088 23.1914 35.0217 23.3785 35.0217 23.6056V25.0354H33.592C33.3648 25.0354 33.1777 25.2225 33.1777 25.4496C33.1777 25.6768 33.3648 25.8638 33.592 25.8638H35.0217V27.2936C35.0217 27.5208 35.2088 27.7078 35.4359 27.7078C35.6631 27.7078 35.8502 27.5208 35.8502 27.2936V25.8505H37.2799C37.5071 25.8505 37.6941 25.6634 37.6941 25.4363C37.6808 25.2091 37.5071 25.0354 37.2799 25.0354Z" fill="#5C638B"/>
<path d="M35.8502 25.0354H34.8502V26.0354H35.8502V25.0354ZM35.0217 25.0354V26.0354H36.0217V25.0354H35.0217ZM35.0217 25.8638H36.0217V24.8638H35.0217V25.8638ZM35.8502 25.8505V24.8505H34.8502V25.8505H35.8502ZM37.6941 25.4363H38.6941V25.4069L38.6924 25.3775L37.6941 25.4363ZM37.2799 24.0354H35.8502V26.0354H37.2799V24.0354ZM36.8502 25.0354V23.6056H34.8502V25.0354H36.8502ZM36.8502 23.6056C36.8502 22.8262 36.2154 22.1914 35.4359 22.1914V24.1914C35.1108 24.1914 34.8502 23.9308 34.8502 23.6056H36.8502ZM35.4359 22.1914C34.6565 22.1914 34.0217 22.8262 34.0217 23.6056H36.0217C36.0217 23.9308 35.7611 24.1914 35.4359 24.1914V22.1914ZM34.0217 23.6056V25.0354H36.0217V23.6056H34.0217ZM35.0217 24.0354H33.592V26.0354H35.0217V24.0354ZM33.592 24.0354C32.8125 24.0354 32.1777 24.6702 32.1777 25.4496H34.1777C34.1777 25.7747 33.9171 26.0354 33.592 26.0354V24.0354ZM32.1777 25.4496C32.1777 26.2291 32.8125 26.8638 33.592 26.8638V24.8638C33.9171 24.8638 34.1777 25.1245 34.1777 25.4496H32.1777ZM33.592 26.8638H35.0217V24.8638H33.592V26.8638ZM34.0217 25.8638V27.2936H36.0217V25.8638H34.0217ZM34.0217 27.2936C34.0217 28.073 34.6565 28.7078 35.4359 28.7078V26.7078C35.7611 26.7078 36.0217 26.9685 36.0217 27.2936H34.0217ZM35.4359 28.7078C36.2154 28.7078 36.8502 28.073 36.8502 27.2936H34.8502C34.8502 26.9685 35.1108 26.7078 35.4359 26.7078V28.7078ZM36.8502 27.2936V25.8505H34.8502V27.2936H36.8502ZM35.8502 26.8505H37.2799V24.8505H35.8502V26.8505ZM37.2799 26.8505C38.0594 26.8505 38.6941 26.2157 38.6941 25.4363H36.6941C36.6941 25.1111 36.9548 24.8505 37.2799 24.8505V26.8505ZM38.6924 25.3775C38.6499 24.6548 38.069 24.0354 37.2799 24.0354V26.0354C36.9451 26.0354 36.7117 25.7634 36.6959 25.495L38.6924 25.3775Z" fill="#4164A9" mask="url(#path-7-inside-2)"/>
</svg>
