<svg width="30" height="30" viewBox="0 0 30 30" fill="none" xmlns="http://www.w3.org/2000/svg">
<rect width="30" height="30" rx="6" fill="#EDF4FF"/>
<path d="M21.2277 19.2744C21.3661 18.9976 21.7353 18.9053 22.0121 19.0437C22.289 19.1821 22.3813 19.5513 22.2429 19.8282C20.7201 22.5968 17.813 24.3042 14.6752 24.3042C9.87614 24.3042 6 20.4281 6 15.6752C6 10.8761 9.87614 7 14.6752 7C19.0589 7 22.7966 10.3224 23.258 14.7061L23.9964 14.014C24.2271 13.7832 24.5962 13.7832 24.827 14.014C25.0577 14.2447 25.0577 14.6138 24.827 14.8446L23.1658 16.5058C22.935 16.7365 22.5659 16.7365 22.3352 16.5058L20.674 14.8446C20.4432 14.6138 20.4432 14.2447 20.674 14.014C20.9047 13.7832 21.2738 13.7832 21.5046 14.014L22.0583 14.5677C21.5507 10.9223 18.3667 8.15361 14.6752 8.15361C10.5222 8.15361 7.15361 11.5222 7.15361 15.6752C7.15361 19.782 10.5222 23.1506 14.6752 23.1506C17.3977 23.1506 19.8895 21.674 21.2277 19.2744Z" fill="#4164A9"/>
<path d="M14.0762 10.8762C14.0762 10.5532 14.353 10.2764 14.6761 10.2764C14.9991 10.2764 15.2298 10.5532 15.2298 10.8762V15.3984L17.0756 17.2442C17.3063 17.4749 17.3063 17.8441 17.0756 18.0748C16.8448 18.3055 16.4757 18.3055 16.245 18.0748L14.2607 16.0906C14.1685 15.9521 14.0762 15.8137 14.0762 15.6753V10.8762Z" fill="#4164A9"/>
</svg>
