<svg width="30" height="30" viewBox="0 0 30 30" fill="none" xmlns="http://www.w3.org/2000/svg">
<rect width="30" height="30" rx="6" fill="#EDF4FF"/>
<path d="M21.3721 23.0002H9.37976C8.06758 23.0002 7 21.9326 7 20.6197C7 19.3068 8.06758 18.2393 9.37976 18.2393H21.3714C22.6835 18.2393 23.7526 19.3068 23.7526 20.6197C23.7526 21.9326 22.6842 23.0002 21.3721 23.0002ZM9.37976 19.1759C8.58339 19.1759 7.93521 19.8234 7.93521 20.6205C7.93521 21.4175 8.58339 22.065 9.37976 22.065H21.3721C22.1684 22.065 22.8166 21.4175 22.8166 20.6205C22.8166 19.8234 22.1684 19.1759 21.3714 19.1759H9.37976Z" fill="#5C638B"/>
<path d="M7.4686 20.9814C7.44342 20.9814 7.41824 20.9792 7.39234 20.9749C7.13767 20.9332 6.96502 20.6922 7.00602 20.4383L9.02249 8.09488C9.21457 6.92011 10.257 6 11.3972 6H19.3544C20.4932 6 21.5364 6.92011 21.7292 8.09488L23.7456 20.4383C23.7874 20.6929 23.614 20.9332 23.3593 20.9749C23.109 21.0145 22.8644 20.8433 22.8226 20.5886L20.8062 8.24595C20.6882 7.52296 20.0371 6.93521 19.3544 6.93521H11.3972C10.7145 6.93521 10.0635 7.52296 9.94547 8.24595L7.92901 20.5886C7.8916 20.8181 7.69305 20.9814 7.4686 20.9814Z" fill="#5C638B"/>
<path d="M9.59686 21.7699C8.96307 21.7699 8.44727 21.2533 8.44727 20.6196C8.44727 19.9858 8.96307 19.4692 9.59686 19.4692C10.2306 19.4692 10.7465 19.9858 10.7465 20.6196C10.7465 21.2533 10.2306 21.7699 9.59686 21.7699ZM9.59686 20.4059C9.47888 20.4059 9.38248 20.5023 9.38248 20.6203C9.38248 20.7383 9.47888 20.8347 9.59686 20.8347C9.71556 20.8347 9.81124 20.7383 9.81124 20.6203C9.81124 20.5023 9.71484 20.4059 9.59686 20.4059Z" fill="#5C638B"/>
</svg>
