<svg width="33" height="33" viewBox="0 0 33 33" fill="none" xmlns="http://www.w3.org/2000/svg">
<path d="M32.0044 16.0073C32.0039 15.8264 31.9544 15.649 31.861 15.4941C31.7677 15.3391 31.6341 15.2124 31.4744 15.1273L26.5644 12.5073L31.4744 9.88733C31.6357 9.8025 31.7707 9.67522 31.8649 9.51925C31.959 9.36328 32.0088 9.18454 32.0088 9.00233C32.0088 8.82013 31.959 8.64139 31.8649 8.48542C31.7707 8.32944 31.6357 8.20217 31.4744 8.11733L16.4744 0.117334C16.3297 0.0402934 16.1683 0 16.0044 0C15.8405 0 15.6791 0.0402934 15.5344 0.117334L0.534409 8.11733C0.373158 8.20217 0.23815 8.32944 0.143965 8.48542C0.0497807 8.64139 0 8.82013 0 9.00233C0 9.18454 0.0497807 9.36328 0.143965 9.51925C0.23815 9.67522 0.373158 9.8025 0.534409 9.88733L5.44441 12.5073L0.534409 15.1273C0.373158 15.2122 0.23815 15.3394 0.143965 15.4954C0.0497807 15.6514 0 15.8301 0 16.0123C0 16.1945 0.0497807 16.3733 0.143965 16.5293C0.23815 16.6852 0.373158 16.8125 0.534409 16.8973L5.44441 19.5073L0.534409 22.1273C0.373158 22.2122 0.23815 22.3394 0.143965 22.4954C0.0497807 22.6514 0 22.8301 0 23.0123C0 23.1945 0.0497807 23.3733 0.143965 23.5293C0.23815 23.6852 0.373158 23.8125 0.534409 23.8973L15.5344 31.8973C15.6791 31.9744 15.8405 32.0147 16.0044 32.0147C16.1683 32.0147 16.3297 31.9744 16.4744 31.8973L31.4744 23.8973C31.6357 23.8125 31.7707 23.6852 31.8649 23.5293C31.959 23.3733 32.0088 23.1945 32.0088 23.0123C32.0088 22.8301 31.959 22.6514 31.8649 22.4954C31.7707 22.3394 31.6357 22.2122 31.4744 22.1273L26.5644 19.5073L31.4744 16.8873C31.6341 16.8023 31.7677 16.6756 31.861 16.5206C31.9544 16.3656 32.0039 16.1882 32.0044 16.0073ZM3.13441 9.00733L16.0044 2.13733L28.8844 9.00733L16.0044 15.8773L3.13441 9.00733ZM28.8844 23.0073L16.0044 29.8773L3.13441 23.0073L7.57441 20.6373L15.5744 24.8873C15.7191 24.9644 15.8805 25.0047 16.0444 25.0047C16.2083 25.0047 16.3697 24.9644 16.5144 24.8873L24.5144 20.6373L28.8844 23.0073ZM16.0044 22.8773L3.13441 16.0073L7.57441 13.6373L15.5744 17.8873C15.7191 17.9644 15.8805 18.0047 16.0444 18.0047C16.2083 18.0047 16.3697 17.9644 16.5144 17.8873L24.5144 13.6373L28.8844 16.0073L16.0044 22.8773Z" fill="#5C638B"/>
</svg>
