<?xml version="1.0" encoding="UTF-8"?>
<svg xmlns="http://www.w3.org/2000/svg" xmlns:xlink="http://www.w3.org/1999/xlink" width="14px" height="14px" viewBox="0 0 14 14" version="1.1">
<g id="surface1">
<path style=" stroke:none;fill-rule:nonzero;fill:rgb(49.411765%,81.568627%,92.54902%);fill-opacity:1;" d="M 7 0 C 10.867188 0 14 3.132812 14 7 C 14 10.867188 10.867188 14 7 14 C 3.132812 14 0 10.867188 0 7 C 0 3.132812 3.132812 0 7 0 Z M 7 0 "/>
<path style=" stroke:none;fill-rule:nonzero;fill:rgb(0%,0%,0%);fill-opacity:1;" d="M 7 1.925781 C 6.652344 1.925781 6.367188 2.210938 6.367188 2.5625 L 6.367188 5.730469 C 6.367188 6.082031 6.652344 6.367188 7 6.367188 C 7.347656 6.367188 7.632812 6.082031 7.632812 5.730469 L 7.632812 2.5625 C 7.632812 2.210938 7.347656 1.925781 7 1.925781 Z M 2.5625 2.5625 L 3.863281 3.863281 C 2.519531 5.203125 2.179688 7.257812 3.015625 8.960938 C 3.855469 10.660156 5.691406 11.644531 7.570312 11.402344 C 9.453125 11.15625 10.972656 9.738281 11.347656 7.878906 C 11.726562 6.019531 10.875 4.121094 9.234375 3.164062 C 8.933594 2.988281 8.542969 3.089844 8.367188 3.394531 C 8.191406 3.695312 8.292969 4.085938 8.59375 4.261719 C 9.769531 4.945312 10.375 6.292969 10.105469 7.628906 C 9.839844 8.960938 8.757812 9.96875 7.410156 10.144531 C 6.058594 10.320312 4.757812 9.621094 4.15625 8.398438 C 3.558594 7.179688 3.796875 5.71875 4.757812 4.757812 L 5.730469 5.730469 L 5.730469 3.191406 C 5.730469 2.863281 5.445312 2.5625 5.097656 2.5625 Z M 2.5625 2.5625 "/>
</g>
</svg>
