<svg width="30" height="30" viewBox="0 0 30 30" fill="none" xmlns="http://www.w3.org/2000/svg">
<rect width="30" height="30" rx="6" fill="#EDF4FF"/>
<path d="M15.5 24C15.2774 24 15.0548 23.9591 14.8514 23.8768L7.78094 21.0048C7.29963 20.8099 7 20.4114 7 19.9641V11.0354C7 10.5891 7.29909 10.1907 7.78094 9.99519L14.8503 7.12431C15.2572 6.95856 15.7428 6.95856 16.1492 7.12431L23.2186 9.99519C23.7009 10.1907 24 10.5897 24 11.0354V19.9641C24 20.4109 23.7009 20.8099 23.218 21.0048L16.1492 23.8762C15.9457 23.9586 15.7226 24 15.5 24ZM8.06569 19.9604C8.07578 19.9604 8.11138 19.9923 8.18044 20.0199L15.2509 22.8913C15.4001 22.9513 15.6009 22.9513 15.7508 22.8913L22.8196 20.0199C22.8196 20.0199 22.8196 20.0199 22.8201 20.0199C22.9019 19.987 22.9375 19.9476 22.9428 19.937L22.9375 11.0354C22.9375 11.0513 22.9025 11.0131 22.8185 10.9791L15.7497 8.10819C15.6004 8.04816 15.4001 8.04763 15.2509 8.10819L8.18097 10.9791C8.09863 11.0131 8.06303 11.0518 8.05719 11.063L8.0625 19.9641C8.0625 19.9615 8.06356 19.9604 8.06569 19.9604Z" fill="#4164A9"/>
<path d="M15.5 24.0002C15.2068 24.0002 14.9688 23.7628 14.9688 23.469V14.2661L7.64068 11.3352C7.36815 11.2258 7.23587 10.9171 7.34478 10.6446C7.45368 10.3721 7.76181 10.2398 8.0354 10.3487L15.6976 13.4135C15.899 13.4937 16.0313 13.6892 16.0313 13.9065V23.469C16.0313 23.7628 15.7933 24.0002 15.5 24.0002Z" fill="#4164A9"/>
<path d="M15.5004 14.4376C15.2895 14.4376 15.0903 14.3112 15.0069 14.1034C14.898 13.8309 15.0303 13.5217 15.3028 13.4128L22.965 10.348C23.2349 10.2407 23.5467 10.3714 23.6556 10.6439C23.7646 10.9165 23.6317 11.2256 23.3592 11.3346L15.6975 14.3993C15.6332 14.4254 15.5663 14.4376 15.5004 14.4376Z" fill="#4164A9"/>
<path d="M19.7501 12.8441C19.68 12.8441 19.6088 12.8303 19.5408 12.8005L12.1033 9.61304C11.834 9.49829 11.7086 9.18592 11.8244 8.91604C11.9397 8.6467 12.2521 8.52079 12.5219 8.63714L19.9595 11.8246C20.2293 11.9399 20.3542 12.2523 20.2384 12.5222C20.1523 12.7235 19.9563 12.8441 19.7501 12.8441Z" fill="#4164A9"/>
<path d="M19.75 14.9688C19.4562 14.9688 19.2188 14.7308 19.2188 14.4375V12.3125C19.2188 12.0193 19.4562 11.7812 19.75 11.7812C20.0438 11.7812 20.2813 12.0193 20.2813 12.3125V14.4375C20.2813 14.7308 20.0438 14.9688 19.75 14.9688Z" fill="#4164A9"/>
</svg>
