<svg width="31" height="31" viewBox="0 0 31 31" fill="none" xmlns="http://www.w3.org/2000/svg">
<path d="M27.772 1.60571C27.3443 2.63124 26.7966 3.60253 26.1405 4.49929C24.7082 3.06102 23.0043 1.92182 21.1278 1.14794C19.2513 0.374054 17.2397 -0.0190719 15.2099 -0.00858464C13.1801 0.00190264 11.1727 0.415794 9.30431 1.20902C7.43591 2.00226 5.74384 3.159 4.32648 4.612C2.90912 6.065 1.79475 7.78527 1.04816 9.67279C0.30157 11.5603 -0.0623465 13.5774 -0.0224287 15.6068C0.0174891 17.6362 0.460444 19.6375 1.28068 21.4942C2.10092 23.3509 3.28208 25.026 4.75548 26.4221L5.32141 26.9217C7.48104 28.7415 10.102 29.9283 12.8943 30.3509C15.6865 30.7736 18.5413 30.4155 21.1427 29.3164C23.7441 28.2173 25.9908 26.42 27.6342 24.1233C29.2776 21.8266 30.2535 19.1201 30.4542 16.3032C30.8717 12.4046 29.727 7.47066 27.7725 1.60618L27.772 1.60571ZM6.93378 26.5109C6.77082 26.7122 6.5518 26.8607 6.30442 26.9376C6.05704 27.0144 5.79242 27.0162 5.54405 26.9426C5.29568 26.869 5.07472 26.7234 4.90912 26.5242C4.74351 26.325 4.64072 26.0812 4.61373 25.8236C4.58675 25.5659 4.63679 25.3061 4.75752 25.0769C4.87825 24.8477 5.06425 24.6595 5.29198 24.5361C5.51971 24.4126 5.77894 24.3595 6.03688 24.3834C6.29481 24.4073 6.53986 24.5072 6.741 24.6704C7.01043 24.889 7.18207 25.2057 7.21822 25.5508C7.25436 25.8959 7.15206 26.2412 6.93378 26.5109ZM27.709 21.9252C23.9298 26.9594 15.8608 25.2607 10.6872 25.505C10.6872 25.505 9.77011 25.5589 8.84678 25.7102C8.84678 25.7102 9.19511 25.5623 9.64032 25.3938C13.2735 24.1293 14.9909 23.8859 17.1978 22.7503C21.353 20.6378 25.4634 16.0116 26.3176 11.2026C24.7367 15.8289 19.9363 19.8071 15.5668 21.4228C12.5721 22.5265 7.16187 23.6016 7.16187 23.6016L6.9438 23.4846C3.26288 21.6952 3.14931 13.7231 9.84359 11.1521C12.7749 10.0231 15.5792 10.6429 18.7448 9.88755C22.1251 9.08447 26.036 6.5521 27.6274 3.24719C29.4073 8.53428 31.5517 16.8094 27.7066 21.9286L27.709 21.9252Z" fill="#68BD45"/>
</svg>
