<svg width="30" height="30" viewBox="0 0 30 30" fill="none" xmlns="http://www.w3.org/2000/svg">
<rect width="30" height="30" rx="6" fill="#EDF4FF"/>
<path d="M18.3873 11.0947H11.6141C11.3278 11.0947 11.0957 11.3268 11.0957 11.6131V18.3863C11.0957 18.6726 11.3278 18.9047 11.6141 18.9047H18.3873C18.6738 18.9047 18.9056 18.6728 18.9056 18.3863V11.6131C18.9056 11.3268 18.6736 11.0947 18.3873 11.0947ZM17.8689 17.8679H12.1324V12.1314H17.8689V17.8679Z" fill="#5C638B"/>
<path d="M14.1187 9.05615H13.082V11.6479H14.1187V9.05615Z" fill="#5C638B"/>
<path d="M13.6003 7C12.8761 7 12.2871 7.58903 12.2871 8.31319C12.2871 9.03734 12.8761 9.62637 13.6003 9.62637C14.3245 9.62637 14.9135 9.03734 14.9135 8.31319C14.9135 7.58903 14.3243 7 13.6003 7ZM13.6003 8.58963C13.4479 8.58963 13.3238 8.46556 13.3238 8.31316C13.3238 8.16075 13.4479 8.03669 13.6003 8.03669C13.7527 8.03669 13.8768 8.16075 13.8768 8.31316C13.8768 8.46556 13.7527 8.58963 13.6003 8.58963Z" fill="#5C638B"/>
<path d="M16.1922 8.53809C15.9059 8.53809 15.6738 8.77015 15.6738 9.05646V11.6482H16.7105V9.5748H18.2311V8.53809H16.1922Z" fill="#5C638B"/>
<path d="M18.9559 7.74316C18.2316 7.74316 17.6426 8.3322 17.6426 9.05635C17.6426 9.78051 18.2318 10.3695 18.9559 10.3695C19.6801 10.3695 20.2691 9.78051 20.2691 9.05635C20.2691 8.3322 19.6799 7.74316 18.9559 7.74316ZM18.9559 9.33282C18.8034 9.33282 18.6793 9.20876 18.6793 9.05635C18.6793 8.90395 18.8034 8.77988 18.9559 8.77988C19.1083 8.77988 19.2324 8.90395 19.2324 9.05635C19.2324 9.20876 19.1083 9.33282 18.9559 9.33282Z" fill="#5C638B"/>
<path d="M20.9433 13.272H18.3516V14.3087H20.9433V13.272Z" fill="#5C638B"/>
<path d="M21.6882 12.4775C20.964 12.4775 20.375 13.0667 20.375 13.7907C20.375 14.5149 20.9642 15.1041 21.6882 15.1041C22.4122 15.1041 23.0014 14.515 23.0014 13.7907C23.0014 13.0666 22.4123 12.4775 21.6882 12.4775ZM21.6882 14.0674C21.5358 14.0674 21.4117 13.9433 21.4117 13.7909C21.4117 13.6385 21.5358 13.5144 21.6882 13.5144C21.8406 13.5144 21.9647 13.6385 21.9647 13.7909C21.9647 13.9433 21.8406 14.0674 21.6882 14.0674Z" fill="#5C638B"/>
<path d="M20.9433 15.8638H18.3516V16.9005H20.425V18.421H21.4617V16.3821C21.4617 16.0958 21.2297 15.8638 20.9433 15.8638Z" fill="#5C638B"/>
<path d="M20.9442 17.8335C20.2199 17.8335 19.6309 18.4227 19.6309 19.1467C19.6309 19.871 20.22 20.46 20.9442 20.46C21.6684 20.46 22.2574 19.871 22.2574 19.1467C22.2574 18.4225 21.6682 17.8335 20.9442 17.8335ZM20.9442 19.4235C20.7916 19.4235 20.6676 19.2994 20.6676 19.1468C20.6676 18.9944 20.7916 18.8704 20.9442 18.8704C21.0966 18.8704 21.2207 18.9944 21.2207 19.1468C21.2207 19.2994 21.0966 19.4235 20.9442 19.4235Z" fill="#5C638B"/>
<path d="M11.6484 15.8467H9.05664V16.8834H11.6484V15.8467Z" fill="#5C638B"/>
<path d="M8.31319 15.0518C7.58903 15.0518 7 15.6408 7 16.3649C7 17.0891 7.58903 17.6781 8.31319 17.6781C9.03734 17.6781 9.62637 17.0891 9.62637 16.3651C9.62634 15.6408 9.03731 15.0518 8.31319 15.0518ZM8.31319 16.6414C8.16078 16.6414 8.03672 16.5173 8.03672 16.3649C8.03672 16.2124 8.16078 16.0884 8.31319 16.0884C8.46559 16.0884 8.58966 16.2123 8.58966 16.3649C8.58963 16.5173 8.46556 16.6414 8.31319 16.6414Z" fill="#5C638B"/>
<path d="M9.57578 13.2549V11.7344H8.53906V13.7733C8.53906 14.0596 8.77112 14.2916 9.05744 14.2916H11.6492V13.2549H9.57578V13.2549Z" fill="#5C638B"/>
<path d="M9.05733 9.69531C8.33317 9.69531 7.74414 10.2843 7.74414 11.0085C7.74414 11.7327 8.33317 12.3217 9.05733 12.3217C9.78148 12.3217 10.3705 11.7327 10.3705 11.0085C10.3705 10.2843 9.78148 9.69531 9.05733 9.69531ZM9.05733 11.2849C8.90492 11.2849 8.78086 11.1609 8.78086 11.0085C8.78086 10.8561 8.90492 10.732 9.05733 10.732C9.20973 10.732 9.3338 10.8561 9.3338 11.0085C9.3338 11.1609 9.20973 11.2849 9.05733 11.2849Z" fill="#5C638B"/>
<path d="M16.8844 18.3521H15.8477V20.9438H16.8844V18.3521Z" fill="#5C638B"/>
<path d="M16.3661 20.374C15.6418 20.374 15.0527 20.9631 15.0527 21.6872C15.0527 22.4114 15.642 23.0004 16.3661 23.0004C17.0902 23.0004 17.6793 22.4113 17.6793 21.6872C17.6793 20.963 17.09 20.374 16.3661 20.374ZM16.3661 21.9637C16.2135 21.9637 16.0895 21.8396 16.0895 21.6872C16.0895 21.5348 16.2135 21.4107 16.3661 21.4107C16.5185 21.4107 16.6425 21.5348 16.6425 21.6872C16.6425 21.8396 16.5185 21.9637 16.3661 21.9637Z" fill="#5C638B"/>
<path d="M13.2549 18.3521V20.4255H11.7344V21.4622H13.7733C14.0596 21.4622 14.2916 21.2301 14.2916 20.9439V18.3521H13.2549V18.3521Z" fill="#5C638B"/>
<path d="M11.0085 19.6304C10.2843 19.6304 9.69531 20.2196 9.69531 20.9437C9.69531 21.6679 10.2843 22.2569 11.0085 22.2569C11.7327 22.2569 12.3217 21.6679 12.3217 20.9437C12.3217 20.2194 11.7325 19.6304 11.0085 19.6304ZM11.0085 21.2203C10.8561 21.2203 10.732 21.0963 10.732 20.9439C10.732 20.7913 10.8561 20.6672 11.0085 20.6672C11.1609 20.6672 11.285 20.7911 11.285 20.9439C11.285 21.0963 11.1609 21.2203 11.0085 21.2203Z" fill="#5C638B"/>
<path d="M16.6581 12.8232H13.3406C13.0543 12.8232 12.8223 13.0553 12.8223 13.3416V16.6591C12.8223 16.9454 13.0543 17.1775 13.3406 17.1775H16.6581C16.9446 17.1775 17.1765 16.9456 17.1765 16.6591V13.3416C17.1765 13.0553 16.9444 12.8232 16.6581 12.8232ZM16.1397 16.1407H13.859V13.8599H16.1397V16.1407Z" fill="#5C638B"/>
</svg>
