<svg width="38" height="38" viewBox="0 0 38 38" fill="none" xmlns="http://www.w3.org/2000/svg">
<rect width="38" height="38" rx="10" fill="transparent"/>
<path d="M32 18.1883C30.8058 19.6428 28.4659 19.5292 28.4659 19.5292C27.0228 25.7462 18.3077 28.9105 12.2568 27.356C6.20644 25.8021 7.03875 18.5855 7.03875 18.5855H24.7469C26.2082 18.5855 26.3196 18.1414 26.3196 18.1414C25.0243 15.0697 27.0229 13.4229 27.0229 13.4229C28.5773 13.7009 28.9654 16.365 28.9654 16.365C30.2412 16.1361 31.2659 16.4084 31.8927 16.6704C31.9555 17.1687 31.992 17.675 32 18.1883Z" fill="white"/>
<path d="M11.4055 15.7729H8.92578V18.0303H11.4055V15.7729Z" fill="white"/>
<path d="M14.5217 15.7729H12.042V18.0303H14.5217V15.7729Z" fill="white"/>
<path d="M23.8694 15.7729H21.3896V18.0303H23.8694V15.7729Z" fill="white"/>
<path d="M20.7541 15.7729H18.2744V18.0303H20.7541V15.7729Z" fill="white"/>
<path d="M20.7541 10H18.2744V12.2574H20.7541V10Z" fill="white"/>
<path d="M17.6379 15.7729H15.1582V18.0303H17.6379V15.7729Z" fill="white"/>
<path d="M14.5217 12.8862H12.042V15.1436H14.5217V12.8862Z" fill="white"/>
<path d="M20.7541 12.8862H18.2744V15.1436H20.7541V12.8862Z" fill="white"/>
<path d="M17.6379 12.8862H15.1582V15.1436H17.6379V12.8862Z" fill="white"/>
</svg>
