<svg width="60" height="60" viewBox="0 0 60 60" fill="none" xmlns="http://www.w3.org/2000/svg">
<rect width="60" height="60" rx="18" fill="#EFF4FD"/>
<path d="M35.0356 44H23.6457C23.1498 43.9989 22.6746 43.8015 22.324 43.4509C21.9733 43.1003 21.7759 42.625 21.7748 42.1292V41.4854C21.7759 40.9896 21.9733 40.5143 22.324 40.1637C22.6746 39.8131 23.1498 39.6156 23.6457 39.6146H27.0534V36.8224H15.583C15.2436 36.8229 14.9075 36.7565 14.5939 36.6269C14.2803 36.4973 13.9953 36.307 13.7554 36.0671C13.5154 35.8271 13.3252 35.5422 13.1955 35.2285C13.0659 34.9149 12.9995 34.5788 13 34.2395V17.583C13 16.8979 13.2721 16.2409 13.7565 15.7565C14.2409 15.2721 14.8979 15 15.583 15H43.561C44.2461 15 44.9031 15.2721 45.3875 15.7565C45.8719 16.2409 46.144 16.8979 46.144 17.583V34.2395C46.1445 34.5788 46.0781 34.9149 45.9485 35.2285C45.8188 35.5422 45.6286 35.8271 45.3887 36.0671C45.1487 36.307 44.8637 36.4973 44.5501 36.6269C44.2365 36.7565 43.9004 36.8229 43.561 36.8224H32.1992V39.6146H35.0356C35.5315 39.6156 36.0067 39.8131 36.3574 40.1637C36.708 40.5143 36.9054 40.9896 36.9065 41.4854V42.1292C36.9054 42.625 36.708 43.1003 36.3574 43.4509C36.0067 43.8015 35.5315 43.9989 35.0356 44ZM23.6457 40.9664C23.5091 40.9664 23.3781 41.0207 23.2815 41.1173C23.1849 41.2138 23.1307 41.3448 23.1307 41.4814V42.1251C23.1307 42.2617 23.1849 42.3927 23.2815 42.4893C23.3781 42.5859 23.5091 42.6401 23.6457 42.6401H35.0356C35.1722 42.6401 35.3032 42.5859 35.3998 42.4893C35.4964 42.3927 35.5506 42.2617 35.5506 42.1251V41.4814C35.5506 41.3448 35.4964 41.2138 35.3998 41.1173C35.3032 41.0207 35.1722 40.9664 35.0356 40.9664H30.8434V35.4746H43.561C43.8812 35.4746 44.1882 35.3475 44.4145 35.1211C44.6409 34.8947 44.768 34.5877 44.768 34.2676V17.6111C44.768 17.291 44.6409 16.984 44.4145 16.7577C44.1882 16.5313 43.8812 16.4041 43.561 16.4041H15.583C15.2629 16.4041 14.9558 16.5313 14.7295 16.7577C14.5031 16.984 14.376 17.291 14.376 17.6111V34.2676C14.3757 34.4308 14.4086 34.5923 14.4725 34.7424C14.5641 34.9653 14.7204 35.1558 14.9211 35.2891C15.1219 35.4225 15.358 35.4927 15.5991 35.4907H28.4254V40.9825H23.6457V40.9664Z" fill="#4164A9" stroke="#4164A9" stroke-width="0.25"/>
<path d="M29.1352 27.6776C30.144 27.6776 30.9618 26.8598 30.9618 25.851C30.9618 24.8422 30.144 24.0244 29.1352 24.0244C28.1264 24.0244 27.3086 24.8422 27.3086 25.851C27.3086 26.8598 28.1264 27.6776 29.1352 27.6776Z" fill="#4164A9" stroke="#4164A9" stroke-width="0.25"/>
<path d="M33.2657 22.6764C33.1046 22.6764 32.9501 22.7404 32.8361 22.8543C32.7222 22.9683 32.6582 23.1228 32.6582 23.2839C32.6576 23.4077 32.6955 23.5287 32.7668 23.6299C33.1751 24.3002 33.3911 25.07 33.3911 25.8548C33.3911 26.6397 33.1751 27.4094 32.7668 28.0797C32.6955 28.1809 32.6576 28.3019 32.6582 28.4257C32.6574 28.5579 32.6998 28.6867 32.7788 28.7927C32.8579 28.8986 32.9694 28.9759 33.0963 29.0127C33.2233 29.0496 33.3588 29.0441 33.4823 28.9969C33.6058 28.9498 33.7106 28.8636 33.7807 28.7516C34.322 27.8823 34.609 26.8788 34.609 25.8548C34.609 24.8308 34.322 23.8273 33.7807 22.958C33.7256 22.8714 33.6495 22.8001 33.5595 22.7509C33.4694 22.7017 33.3684 22.676 33.2657 22.6764Z" fill="#4164A9" stroke="#4164A9" stroke-width="0.25"/>
<path d="M36.6313 20.6648C36.5875 20.598 36.5309 20.5404 36.4648 20.4955C36.3987 20.4505 36.3244 20.419 36.2461 20.4027C36.1679 20.3865 36.0872 20.3858 36.0086 20.4007C35.9301 20.4157 35.8553 20.4459 35.7885 20.4898C35.7216 20.5336 35.6641 20.5902 35.6191 20.6563C35.5741 20.7224 35.5426 20.7967 35.5264 20.875C35.5101 20.9532 35.5095 21.0339 35.5244 21.1125C35.5393 21.191 35.5696 21.2658 35.6134 21.3326C36.5453 22.6618 37.0453 24.2457 37.0453 25.8689C37.0453 27.4922 36.5453 29.0761 35.6134 30.4052C35.5249 30.5402 35.4936 30.7048 35.5264 30.8629C35.5592 31.021 35.6535 31.1595 35.7885 31.2481C35.9234 31.3367 36.0881 31.368 36.2461 31.3351C36.4042 31.3023 36.5428 31.2081 36.6313 31.0731C37.6918 29.5448 38.26 27.7291 38.26 25.8689C38.26 24.0088 37.6918 22.1931 36.6313 20.6648Z" fill="#4164A9" stroke="#4164A9" stroke-width="0.25"/>
<path d="M39.3691 18.2024C39.3219 18.138 39.2623 18.0834 39.194 18.042C39.1256 18.0005 39.0498 17.9729 38.9707 17.9608C38.8917 17.9487 38.8111 17.9522 38.7334 17.9712C38.6558 17.9902 38.5827 18.0244 38.5182 18.0716C38.4537 18.1189 38.3992 18.1785 38.3578 18.2468C38.3163 18.3152 38.2887 18.391 38.2766 18.47C38.2644 18.549 38.268 18.6297 38.287 18.7073C38.306 18.785 38.3402 18.8581 38.3875 18.9226C39.8827 20.9198 40.6908 23.3477 40.6908 25.8427C40.6908 28.3376 39.8827 30.7655 38.3875 32.7628C38.3402 32.8272 38.306 32.9003 38.287 32.978C38.268 33.0556 38.2644 33.1363 38.2766 33.2153C38.2887 33.2943 38.3163 33.3702 38.3578 33.4385C38.3992 33.5069 38.4537 33.5664 38.5182 33.6137C38.5827 33.661 38.6558 33.6951 38.7334 33.7141C38.8111 33.7331 38.8917 33.7367 38.9707 33.7245C39.0498 33.7124 39.1256 33.6848 39.194 33.6433C39.2623 33.6019 39.3219 33.5474 39.3691 33.4829C41.0149 31.2756 41.9039 28.5959 41.9039 25.8427C41.9039 23.0894 41.0149 20.4097 39.3691 18.2024Z" fill="#4164A9" stroke="#4164A9" stroke-width="0.25"/>
<path d="M24.9988 22.6764C25.1599 22.6764 25.3144 22.7404 25.4284 22.8543C25.5423 22.9683 25.6063 23.1228 25.6063 23.2839C25.6064 23.4077 25.5685 23.5284 25.4977 23.6299C25.0889 24.3001 24.8727 25.0699 24.8727 25.8548C24.8727 26.6398 25.0889 27.4096 25.4977 28.0797C25.5868 28.2141 25.6188 28.3785 25.5867 28.5365C25.5547 28.6946 25.4611 28.8335 25.3267 28.9226C25.1922 29.0117 25.0279 29.0437 24.8698 29.0117C24.7118 28.9796 24.5729 28.886 24.4838 28.7516C23.9429 27.8822 23.6562 26.8787 23.6562 25.8548C23.6562 24.8309 23.9429 23.8274 24.4838 22.958C24.5389 22.8714 24.615 22.8001 24.705 22.7509C24.7951 22.7017 24.8961 22.676 24.9988 22.6764Z" fill="#4164A9" stroke="#4164A9" stroke-width="0.25"/>
<path d="M21.6297 20.6648C21.6736 20.598 21.7302 20.5404 21.7963 20.4955C21.8624 20.4505 21.9367 20.419 22.0149 20.4027C22.0932 20.3865 22.1739 20.3858 22.2524 20.4007C22.331 20.4157 22.4058 20.4459 22.4726 20.4898C22.5395 20.5336 22.597 20.5902 22.642 20.6563C22.6869 20.7224 22.7184 20.7967 22.7347 20.875C22.7509 20.9532 22.7516 21.0339 22.7367 21.1125C22.7217 21.191 22.6915 21.2658 22.6476 21.3326C21.7157 22.6618 21.2158 24.2457 21.2158 25.8689C21.2158 27.4922 21.7157 29.0761 22.6476 30.4052C22.7362 30.5402 22.7675 30.7048 22.7347 30.8629C22.7019 31.021 22.6076 31.1595 22.4726 31.2481C22.3376 31.3367 22.173 31.368 22.0149 31.3351C21.8569 31.3023 21.7183 31.2081 21.6297 31.0731C20.5699 29.5446 20.002 27.7289 20.002 25.8689C20.002 24.0089 20.5699 22.1933 21.6297 20.6648Z" fill="#4164A9" stroke="#4164A9" stroke-width="0.25"/>
<path d="M18.8892 18.2024C18.9847 18.0722 19.128 17.9853 19.2876 17.9608C19.4472 17.9363 19.61 17.9761 19.7402 18.0716C19.8703 18.1671 19.9572 18.3104 19.9818 18.47C20.0063 18.6296 19.9664 18.7924 19.8709 18.9226C18.3763 20.9201 17.5686 23.3479 17.5686 25.8427C17.5686 28.3375 18.3763 30.7652 19.8709 32.7628C19.9664 32.8929 20.0063 33.0557 19.9818 33.2153C19.9572 33.3749 19.8703 33.5182 19.7402 33.6137C19.61 33.7092 19.4472 33.7491 19.2876 33.7245C19.128 33.7 18.9847 33.6131 18.8892 33.4829C17.2441 31.2754 16.3555 28.5958 16.3555 25.8427C16.3555 23.0895 17.2441 20.41 18.8892 18.2024Z" fill="#4164A9" stroke="#4164A9" stroke-width="0.25"/>
</svg>
