<svg width="60" height="60" viewBox="0 0 60 60" fill="none" xmlns="http://www.w3.org/2000/svg">
<rect width="60" height="60" rx="18" fill="#EFF4FD"/>
<path d="M18.9497 19.1663C19.6209 19.1663 20.165 18.6221 20.165 17.9509C20.165 17.2797 19.6209 16.7356 18.9497 16.7356C18.2785 16.7356 17.7344 17.2797 17.7344 17.9509C17.7344 18.6221 18.2785 19.1663 18.9497 19.1663Z" fill="#4164A9"/>
<path d="M18.9497 31.323C19.6209 31.323 20.165 30.7789 20.165 30.1077C20.165 29.4365 19.6209 28.8923 18.9497 28.8923C18.2785 28.8923 17.7344 29.4365 17.7344 30.1077C17.7344 30.7789 18.2785 31.323 18.9497 31.323Z" fill="#4164A9"/>
<path d="M18.9501 37.0977C19.6215 37.0977 20.1658 36.5534 20.1658 35.882C20.1658 35.2106 19.6215 34.6663 18.9501 34.6663C18.2787 34.6663 17.7344 35.2106 17.7344 35.882C17.7344 36.5534 18.2787 37.0977 18.9501 37.0977Z" fill="#4164A9"/>
<path d="M18.9497 25.2444C19.6209 25.2444 20.165 24.7003 20.165 24.0291C20.165 23.3578 19.6209 22.8137 18.9497 22.8137C18.2785 22.8137 17.7344 23.3578 17.7344 24.0291C17.7344 24.7003 18.2785 25.2444 18.9497 25.2444Z" fill="#4164A9"/>
<path d="M31.7151 24.6368C32.0507 24.6368 32.3228 24.3648 32.3228 24.0292C32.3228 23.6936 32.0507 23.4215 31.7151 23.4215C31.3795 23.4215 31.1074 23.6936 31.1074 24.0292C31.1074 24.3648 31.3795 24.6368 31.7151 24.6368Z" fill="#4164A9"/>
<path d="M31.7151 18.5586C32.0507 18.5586 32.3228 18.2865 32.3228 17.9509C32.3228 17.6153 32.0507 17.3433 31.7151 17.3433C31.3795 17.3433 31.1074 17.6153 31.1074 17.9509C31.1074 18.2865 31.3795 18.5586 31.7151 18.5586Z" fill="#4164A9"/>
<path d="M29.8909 24.6368C30.2265 24.6368 30.4985 24.3648 30.4985 24.0292C30.4985 23.6936 30.2265 23.4215 29.8909 23.4215C29.5553 23.4215 29.2832 23.6936 29.2832 24.0292C29.2832 24.3648 29.5553 24.6368 29.8909 24.6368Z" fill="#4164A9"/>
<path d="M29.8909 18.5586C30.2265 18.5586 30.4985 18.2865 30.4985 17.9509C30.4985 17.6153 30.2265 17.3433 29.8909 17.3433C29.5553 17.3433 29.2832 17.6153 29.2832 17.9509C29.2832 18.2865 29.5553 18.5586 29.8909 18.5586Z" fill="#4164A9"/>
<path d="M35.6661 30.4119C32.3091 30.4119 29.5879 33.1327 29.5879 36.49C29.5879 39.8466 32.3091 42.5678 35.6661 42.5678C39.0233 42.5678 41.7442 39.8469 41.7442 36.49C41.7446 33.1327 39.0233 30.4119 35.6661 30.4119ZM35.6661 41.9602C32.6448 41.9602 30.1956 39.511 30.1956 36.49C30.1956 33.4684 32.6448 31.0192 35.6661 31.0192C38.6874 31.0192 41.1366 33.4684 41.1366 36.49C41.1366 39.5113 38.6877 41.9602 35.6661 41.9602Z" fill="#4164A9"/>
<path d="M35.6659 27.9805C35.4616 27.9805 35.2588 27.9899 35.0582 28.0043V16.431C35.0582 15.0882 33.9693 14 32.6268 14H17.431C16.0882 14 15 15.0882 15 16.431V37.7057C15 39.0478 16.0882 40.1372 17.431 40.1372H27.9763C29.3422 43.012 32.2715 45 35.6659 45C40.3657 45 44.1755 41.1898 44.1755 36.4904C44.1755 31.7903 40.3657 27.9805 35.6659 27.9805ZM32.6268 15.2153C33.2977 15.2153 33.8425 15.7598 33.8425 16.431V20.6862H22.9394V15.2153H32.6268ZM33.8425 21.2939V26.7648H22.9394V21.2939H33.8425ZM16.2153 16.431C16.2153 15.7602 16.7594 15.2153 17.431 15.2153H21.6858V20.6862H16.2153V16.431ZM16.2153 21.2939H21.6858V26.7648H16.2153V21.2939ZM16.2153 27.372H21.6858V32.8429H16.2153V27.372ZM17.431 38.9215C16.7598 38.9215 16.2153 38.377 16.2153 37.7057V33.4506H21.6858V38.9215H17.431ZM22.9394 38.9215V33.4506H27.7171C27.7473 33.3707 27.7852 33.2939 27.8177 33.2141C27.3962 34.2236 27.1563 35.3277 27.1563 36.49C27.1563 37.3353 27.2812 38.1507 27.5109 38.9215H22.9394ZM27.9619 32.8766C27.9672 32.8664 27.971 32.8535 27.9763 32.8433H22.9394V27.372H33.8422V28.1783C31.2321 28.7482 29.0713 30.5167 27.9619 32.8766ZM35.6659 43.7843C31.6378 43.7843 28.372 40.5186 28.372 36.4904C28.372 32.4623 31.6378 29.1954 35.6659 29.1954C39.6941 29.1954 42.9598 32.4619 42.9598 36.4904C42.9598 40.5189 39.6944 43.7843 35.6659 43.7843Z" fill="#4164A9"/>
<path d="M35.6644 38.9214C34.5323 38.9214 33.5829 38.1454 33.3124 37.0977H33.8406C34.1766 37.0977 34.4479 36.8256 34.4479 36.4904C34.4479 36.3228 34.3802 36.1703 34.2701 36.0602L33.0544 34.8445C32.9443 34.7344 32.7922 34.6663 32.6245 34.6663C32.4569 34.6663 32.3048 34.7344 32.1947 34.8445L30.9786 36.0602C30.8689 36.1703 30.8008 36.3224 30.8008 36.4904C30.8008 36.826 31.0725 37.0977 31.4081 37.0977H32.0717C32.3612 38.8227 33.8569 40.1371 35.6632 40.1371C36.3227 40.1371 36.9395 39.9589 37.473 39.6532L36.5657 38.7466C36.2876 38.8579 35.9841 38.9214 35.6644 38.9214Z" fill="#4164A9"/>
<path d="M39.9202 35.882H39.2565C38.9671 34.1577 37.4718 32.8433 35.6654 32.8433C35.0089 32.8433 34.3941 33.0192 33.8613 33.3238L34.769 34.2311C35.0464 34.121 35.3483 34.059 35.665 34.059C36.7975 34.059 37.7461 34.8343 38.017 35.882H37.4884C37.1524 35.882 36.8811 36.154 36.8811 36.49C36.8811 36.6569 36.9492 36.8094 37.0593 36.9195L38.2747 38.1352C38.3851 38.2453 38.5369 38.3134 38.7049 38.3134C38.8721 38.3134 39.0246 38.2453 39.1347 38.1352L40.3504 36.9195C40.4605 36.8094 40.5286 36.6572 40.5286 36.49C40.5282 36.154 40.2562 35.882 39.9202 35.882Z" fill="#4164A9"/>
</svg>
