<svg class="w-14 h-14" width="38" height="38" viewBox="0 0 38 38" fill="none"
      xmlns="http://www.w3.org/2000/svg">
  <rect width="38" height="38" rx="9.80645" fill="#0B1224"/>
  <mask id="mask0_11407_10061" style="mask-type:alpha" maskUnits="userSpaceOnUse" x="0" y="0" width="38"
        height="38">
    <rect width="38" height="38" rx="4" fill="#151F36"/>
  </mask>
  <g mask="url(#mask0_11407_10061)">
    <path
      d="M19.5932 7.68794L19.5932 7.68802L19.6026 7.69254L28.1019 11.7622C28.3911 11.9191 28.596 12.1545 28.6816 12.4109L30.7883 21.478C30.8189 21.7928 30.7432 22.096 30.5706 22.3456L24.6936 29.6145C24.6876 29.6219 24.6817 29.6295 24.6761 29.6372C24.488 29.8934 24.2212 30.0072 23.9524 29.9777C23.9302 29.9753 23.9079 29.9741 23.8855 29.9741H14.5271C14.2252 29.9517 13.9073 29.8064 13.6778 29.5869L7.82309 22.3456C7.64771 22.092 7.57936 21.7939 7.62836 21.4947L9.71827 12.3275L9.71868 12.3257C9.74852 12.1929 9.80864 12.0689 9.89435 11.9632C9.98006 11.8576 10.089 11.7731 10.2128 11.7166L10.2128 11.7167L10.224 11.7113L18.6733 7.63869C18.802 7.61536 18.9611 7.6129 19.1699 7.6129C19.351 7.6129 19.4927 7.63765 19.5932 7.68794Z"
      stroke="white" stroke-width="1.22581" stroke-linejoin="round"/>
    <path
      d="M19 17.1651L18.0005 16.9552C18.0912 16.3096 17.9275 15.6554 17.5392 15.1112L18.3075 14.5476L17.9303 14.1123L17.1622 14.6756C16.6673 14.2072 16.0087 13.9145 15.3024 13.8489V13H14.6973V13.8489C13.991 13.9145 13.3324 14.2072 12.8375 14.6756L12.0691 14.1123L11.6922 14.5476L12.4605 15.1112C12.0723 15.6554 11.9087 16.3096 11.9995 16.9552L11 17.1651L11.1349 17.7079L12.1323 17.4983C12.3594 18.1194 12.8165 18.6473 13.4237 18.9896L13.0214 19.7587L13.5665 20L13.9686 19.2318C14.6342 19.4588 15.3661 19.4588 16.0317 19.2318L16.4341 20L16.9792 19.7584L16.5769 18.9896C17.1841 18.6473 17.6413 18.1194 17.8683 17.4983L18.8657 17.7076L19 17.1651ZM17.42 16.6184C17.42 16.69 17.4154 16.7607 17.4082 16.8308L15.8956 16.5129C15.888 16.4567 15.8741 16.4013 15.8542 16.3476L17.063 15.4605C17.2961 15.8087 17.4197 16.2095 17.42 16.6184ZM14.6973 16.6184C14.6973 16.5634 14.7151 16.5096 14.7483 16.4638C14.7816 16.418 14.8288 16.3823 14.8841 16.3613C14.9394 16.3402 15.0002 16.3347 15.0589 16.3454C15.1175 16.3562 15.1715 16.3827 15.2138 16.4216C15.2561 16.4605 15.2849 16.5101 15.2966 16.5641C15.3082 16.6181 15.3022 16.6741 15.2793 16.725C15.2564 16.7758 15.2177 16.8193 15.1679 16.8499C15.1182 16.8805 15.0597 16.8968 14.9998 16.8968C14.9196 16.8968 14.8427 16.8675 14.7859 16.8153C14.7292 16.7631 14.6973 16.6923 14.6973 16.6184ZM16.6867 15.0247L15.4778 15.9117C15.4225 15.8803 15.3637 15.8545 15.3024 15.8346V14.4112C15.8242 14.4715 16.3103 14.6867 16.6867 15.0247ZM14.6973 14.4112V15.8349C14.636 15.8548 14.5772 15.8806 14.5219 15.912L13.313 15.0249C13.6894 14.687 14.1755 14.4715 14.6973 14.4112ZM12.5797 16.6184C12.58 16.2095 12.7036 15.8087 12.9367 15.4605L14.1455 16.3476C14.1256 16.4013 14.1117 16.4567 14.1041 16.5129L12.5915 16.8305C12.584 16.76 12.58 16.6893 12.5797 16.6184ZM12.7258 17.3733L14.2312 17.0571C14.2667 17.1111 14.3087 17.1612 14.3564 17.2066L13.6869 18.4861C13.2436 18.2212 12.906 17.8305 12.7258 17.3733ZM14.9998 18.8452C14.7385 18.8448 14.479 18.8053 14.2315 18.7283L14.903 17.4446C14.9351 17.4491 14.9674 17.4521 14.9998 17.4535C15.0322 17.4521 15.0644 17.4491 15.0964 17.4446L15.7682 18.7283C15.5207 18.8054 15.2612 18.8448 14.9998 18.8452ZM16.3128 18.4861L15.6433 17.2063C15.691 17.161 15.733 17.111 15.7685 17.0571L17.2739 17.3733C17.0937 17.8305 16.7561 18.2212 16.3128 18.4861Z"
      fill="white"/>
    <path
      d="M23 25.1651L22.0005 24.9552C22.0912 24.3096 21.9275 23.6554 21.5392 23.1112L22.3075 22.5476L21.9303 22.1123L21.1622 22.6756C20.6673 22.2072 20.0087 21.9145 19.3024 21.8489V21H18.6973V21.8489C17.991 21.9145 17.3324 22.2072 16.8375 22.6756L16.0691 22.1123L15.6922 22.5476L16.4605 23.1112C16.0723 23.6554 15.9087 24.3096 15.9995 24.9552L15 25.1651L15.1349 25.7079L16.1323 25.4983C16.3594 26.1194 16.8165 26.6473 17.4237 26.9896L17.0214 27.7587L17.5665 28L17.9686 27.2318C18.6342 27.4588 19.3661 27.4588 20.0317 27.2318L20.4341 28L20.9792 27.7584L20.5769 26.9896C21.1841 26.6473 21.6413 26.1194 21.8683 25.4983L22.8657 25.7076L23 25.1651ZM21.42 24.6184C21.42 24.69 21.4154 24.7607 21.4082 24.8308L19.8956 24.5129C19.888 24.4567 19.8741 24.4013 19.8542 24.3476L21.063 23.4605C21.2961 23.8087 21.4197 24.2095 21.42 24.6184ZM18.6973 24.6184C18.6973 24.5634 18.7151 24.5096 18.7483 24.4638C18.7816 24.418 18.8288 24.3823 18.8841 24.3613C18.9394 24.3402 19.0002 24.3347 19.0589 24.3454C19.1175 24.3562 19.1715 24.3827 19.2138 24.4216C19.2561 24.4605 19.2849 24.5101 19.2966 24.5641C19.3082 24.6181 19.3022 24.6741 19.2793 24.725C19.2564 24.7758 19.2177 24.8193 19.1679 24.8499C19.1182 24.8805 19.0597 24.8968 18.9998 24.8968C18.9196 24.8968 18.8427 24.8675 18.7859 24.8153C18.7292 24.7631 18.6973 24.6923 18.6973 24.6184ZM20.6867 23.0247L19.4778 23.9117C19.4225 23.8803 19.3637 23.8545 19.3024 23.8346V22.4112C19.8242 22.4715 20.3103 22.6867 20.6867 23.0247ZM18.6973 22.4112V23.8349C18.636 23.8548 18.5772 23.8806 18.5219 23.912L17.313 23.0249C17.6894 22.687 18.1755 22.4715 18.6973 22.4112ZM16.5797 24.6184C16.58 24.2095 16.7036 23.8087 16.9367 23.4605L18.1455 24.3476C18.1256 24.4013 18.1117 24.4567 18.1041 24.5129L16.5915 24.8305C16.584 24.76 16.58 24.6893 16.5797 24.6184ZM16.7258 25.3733L18.2312 25.0571C18.2667 25.1111 18.3087 25.1612 18.3564 25.2066L17.6869 26.4861C17.2436 26.2212 16.906 25.8305 16.7258 25.3733ZM18.9998 26.8452C18.7385 26.8448 18.479 26.8053 18.2315 26.7283L18.903 25.4446C18.9351 25.4491 18.9674 25.4521 18.9998 25.4535C19.0322 25.4521 19.0644 25.4491 19.0964 25.4446L19.7682 26.7283C19.5207 26.8054 19.2612 26.8448 18.9998 26.8452ZM20.3128 26.4861L19.6433 25.2063C19.691 25.161 19.733 25.111 19.7685 25.0571L21.2739 25.3733C21.0937 25.8305 20.7561 26.2212 20.3128 26.4861Z"
      fill="white"/>
    <path
      d="M28 17.1651L27.0005 16.9552C27.0912 16.3096 26.9275 15.6554 26.5392 15.1112L27.3075 14.5476L26.9303 14.1123L26.1622 14.6756C25.6673 14.2072 25.0087 13.9145 24.3024 13.8489V13H23.6973V13.8489C22.991 13.9145 22.3324 14.2072 21.8375 14.6756L21.0691 14.1123L20.6922 14.5476L21.4605 15.1112C21.0723 15.6554 20.9087 16.3096 20.9995 16.9552L20 17.1651L20.1349 17.7079L21.1323 17.4983C21.3594 18.1194 21.8165 18.6473 22.4237 18.9896L22.0214 19.7587L22.5665 20L22.9686 19.2318C23.6342 19.4588 24.3661 19.4588 25.0317 19.2318L25.4341 20L25.9792 19.7584L25.5769 18.9896C26.1841 18.6473 26.6413 18.1194 26.8683 17.4983L27.8657 17.7076L28 17.1651ZM26.42 16.6184C26.42 16.69 26.4154 16.7607 26.4082 16.8308L24.8956 16.5129C24.888 16.4567 24.8741 16.4013 24.8542 16.3476L26.063 15.4605C26.2961 15.8087 26.4197 16.2095 26.42 16.6184ZM23.6973 16.6184C23.6973 16.5634 23.7151 16.5096 23.7483 16.4638C23.7816 16.418 23.8288 16.3823 23.8841 16.3613C23.9394 16.3402 24.0002 16.3347 24.0589 16.3454C24.1175 16.3562 24.1715 16.3827 24.2138 16.4216C24.2561 16.4605 24.2849 16.5101 24.2966 16.5641C24.3082 16.6181 24.3022 16.6741 24.2793 16.725C24.2564 16.7758 24.2177 16.8193 24.1679 16.8499C24.1182 16.8805 24.0597 16.8968 23.9998 16.8968C23.9196 16.8968 23.8427 16.8675 23.7859 16.8153C23.7292 16.7631 23.6973 16.6923 23.6973 16.6184ZM25.6867 15.0247L24.4778 15.9117C24.4225 15.8803 24.3637 15.8545 24.3024 15.8346V14.4112C24.8242 14.4715 25.3103 14.6867 25.6867 15.0247ZM23.6973 14.4112V15.8349C23.636 15.8548 23.5772 15.8806 23.5219 15.912L22.313 15.0249C22.6894 14.687 23.1755 14.4715 23.6973 14.4112ZM21.5797 16.6184C21.58 16.2095 21.7036 15.8087 21.9367 15.4605L23.1455 16.3476C23.1256 16.4013 23.1117 16.4567 23.1041 16.5129L21.5915 16.8305C21.584 16.76 21.58 16.6893 21.5797 16.6184ZM21.7258 17.3733L23.2312 17.0571C23.2667 17.1111 23.3087 17.1612 23.3564 17.2066L22.6869 18.4861C22.2436 18.2212 21.906 17.8305 21.7258 17.3733ZM23.9998 18.8452C23.7385 18.8448 23.479 18.8053 23.2315 18.7283L23.903 17.4446C23.9351 17.4491 23.9674 17.4521 23.9998 17.4535C24.0322 17.4521 24.0644 17.4491 24.0964 17.4446L24.7682 18.7283C24.5207 18.8054 24.2612 18.8448 23.9998 18.8452ZM25.3128 18.4861L24.6433 17.2063C24.691 17.161 24.733 17.111 24.7685 17.0571L26.2739 17.3733C26.0937 17.8305 25.7561 18.2212 25.3128 18.4861Z"
      fill="white"/>
  </g>
</svg>