<svg width="60" height="60" viewBox="0 0 60 60" fill="none" xmlns="http://www.w3.org/2000/svg">
<rect width="60" height="60" rx="18" fill="#EFF4FD"/>
<path d="M45.6863 37.2024H44.2605C44.0867 37.2024 43.9476 37.3415 43.9476 37.5154V38.5933H42.8696C42.6957 38.5933 42.5566 38.7324 42.5566 38.9063V40.332C42.5566 40.5059 42.6957 40.645 42.8696 40.645H45.6863C45.8601 40.645 45.9992 40.5059 45.9992 40.332V37.5154C45.9992 37.3415 45.8601 37.2024 45.6863 37.2024Z" fill="#4164A9"/>
<path d="M40.1919 38.5933H36.645C36.4711 38.5933 36.332 38.7324 36.332 38.9063V40.332C36.332 40.5059 36.4711 40.645 36.645 40.645H40.1919C40.3658 40.645 40.5048 40.5059 40.5048 40.332V38.9063C40.5048 38.7324 40.3658 38.5933 40.1919 38.5933Z" fill="#4164A9"/>
<path d="M33.9692 38.5933H30.4223C30.2485 38.5933 30.1094 38.7324 30.1094 38.9063V40.332C30.1094 40.5059 30.2485 40.645 30.4223 40.645H33.9692C34.1431 40.645 34.2822 40.5059 34.2822 40.332V38.9063C34.2474 38.7324 34.1083 38.5933 33.9692 38.5933Z" fill="#4164A9"/>
<path d="M18.6684 22.6671H20.0941C20.268 22.6671 20.4071 22.528 20.4071 22.3541V18.8072C20.4071 18.6334 20.268 18.4943 20.0941 18.4943H18.6684C18.4946 18.4943 18.3555 18.6334 18.3555 18.8072V22.3541C18.3555 22.528 18.4946 22.6671 18.6684 22.6671Z" fill="#4164A9"/>
<path d="M18.6684 28.8914H20.0941C20.268 28.8914 20.4071 28.7523 20.4071 28.5785V25.0316C20.4071 24.8577 20.268 24.7186 20.0941 24.7186H18.6684C18.4946 24.7186 18.3555 24.8577 18.3555 25.0316V28.5785C18.3555 28.7523 18.4946 28.8914 18.6684 28.8914Z" fill="#4164A9"/>
<path d="M18.6684 16.4426H20.0941C20.268 16.4426 20.4071 16.3035 20.4071 16.1296V15.0516H21.4851C21.6589 15.0516 21.798 14.9125 21.798 14.7387V13.313C21.798 13.1391 21.6589 13 21.4851 13H18.6684C18.4946 13 18.3555 13.1391 18.3555 13.313V16.1296C18.3555 16.3035 18.4946 16.4426 18.6684 16.4426Z" fill="#4164A9"/>
<path d="M40.1919 13H36.645C36.4711 13 36.332 13.1391 36.332 13.313V14.7387C36.332 14.9125 36.4711 15.0516 36.645 15.0516H40.1919C40.3658 15.0516 40.5048 14.9125 40.5048 14.7387V13.313C40.5048 13.1391 40.3658 13 40.1919 13Z" fill="#4164A9"/>
<path d="M30.4223 15.0516H33.9692C34.1431 15.0516 34.2822 14.9125 34.2822 14.7387V13.313C34.2822 13.1391 34.1431 13 33.9692 13H30.4223C30.2485 13 30.1094 13.1391 30.1094 13.313V14.7387C30.1094 14.9125 30.2485 15.0516 30.4223 15.0516Z" fill="#4164A9"/>
<path d="M24.1977 15.0516H27.7446C27.9185 15.0516 28.0576 14.9125 28.0576 14.7387V13.313C28.0576 13.1391 27.9185 13 27.7446 13H24.1977C24.0239 13 23.8848 13.1391 23.8848 13.313V14.7387C23.8848 14.9125 24.0239 15.0516 24.1977 15.0516Z" fill="#4164A9"/>
<path d="M45.6863 13H42.8696C42.6957 13 42.5566 13.1391 42.5566 13.313V14.7387C42.5566 14.9125 42.6957 15.0516 42.8696 15.0516H43.9476V16.1296C43.9476 16.3035 44.0867 16.4426 44.2605 16.4426H45.6863C45.8601 16.4426 45.9992 16.3035 45.9992 16.1296V13.313C45.9992 13.1391 45.8601 13 45.6863 13Z" fill="#4164A9"/>
<path d="M45.6879 24.7533H44.2622C44.0883 24.7533 43.9492 24.8924 43.9492 25.0663V28.6131C43.9492 28.787 44.0883 28.9261 44.2622 28.9261H45.6879C45.8618 28.9261 46.0009 28.787 46.0009 28.6131V25.0315C46.0009 24.8924 45.8618 24.7533 45.6879 24.7533Z" fill="#4164A9"/>
<path d="M45.6879 18.4943H44.2622C44.0883 18.4943 43.9492 18.6334 43.9492 18.8072V22.3541C43.9492 22.528 44.0883 22.6671 44.2622 22.6671H45.6879C45.8618 22.6671 46.0009 22.528 46.0009 22.3541V18.8072C46.0009 18.6334 45.8618 18.4943 45.6879 18.4943Z" fill="#4164A9"/>
<path d="M45.6879 30.978H44.2622C44.0883 30.978 43.9492 31.1171 43.9492 31.2909V34.8378C43.9492 35.0117 44.0883 35.1508 44.2622 35.1508H45.6879C45.8618 35.1508 46.0009 35.0117 46.0009 34.8378V31.2909C46.0009 31.1171 45.8618 30.978 45.6879 30.978Z" fill="#4164A9"/>
<path d="M36.8198 30.213C37.1675 30.1087 37.4457 29.8305 37.5501 29.448L39.6712 20.5807C39.7408 20.233 39.6365 19.8853 39.393 19.6071C39.1496 19.3637 38.7671 19.2593 38.4194 19.3289L29.5522 21.4501C29.2044 21.5544 28.8915 21.7978 28.8219 22.1803C28.7176 22.528 28.8219 22.9106 29.1001 23.1887L31.7429 25.8315L26.5269 31.0475H14.0084C13.4521 31.0475 13 31.4996 13 32.056V45.0265C13 45.5828 13.4521 46.0349 14.0084 46.0349H26.9789C27.5353 46.0349 27.9874 45.5828 27.9874 45.0265V32.508L33.1686 27.3268L35.8114 29.9696C36.02 30.1782 36.2634 30.2825 36.5416 30.2825C36.6112 30.2478 36.7155 30.2478 36.8198 30.213ZM25.9357 43.9833H15.0169V33.0644H25.9357V43.9833ZM31.7777 23.0496L37.2371 21.7283L35.9157 27.1877L31.7777 23.0496Z" fill="#4164A9"/>
</svg>
