<svg width="42" height="37" viewBox="0 0 42 37" fill="none" xmlns="http://www.w3.org/2000/svg">
<mask id="path-1-outside-1" maskUnits="userSpaceOnUse" x="0" y="0" width="42" height="37" fill="black">
<rect fill="white" width="42" height="37"/>
<path fill-rule="evenodd" clip-rule="evenodd" d="M21.0003 11.3737C25.0318 11.3737 28.3008 14.6312 28.3008 18.6497C28.3008 22.6681 25.0318 25.9256 21.0003 25.9256C16.9683 25.9256 13.6993 22.6681 13.6993 18.6497C13.6993 14.6312 16.9683 11.3737 21.0003 11.3737ZM26.2419 7.9045L27.4273 5.86259C26.7026 5.09009 26.4609 3.97056 26.8025 2.96419C27.3178 1.44885 28.9649 0.642147 30.4798 1.15363C31.1827 1.39101 31.7948 1.89546 32.1496 2.61163C32.4907 3.30015 32.5442 4.08875 32.2964 4.8185C31.8301 6.19101 30.4212 7.00174 29.0052 6.72864L27.8017 8.80173C29.5215 9.79151 31.2417 10.7818 32.962 11.7711C32.962 13.7818 32.962 15.792 32.962 17.8022L35.3262 17.8042C35.6416 16.7878 36.4783 16.0239 37.5314 15.8141C39.0988 15.5023 40.6309 16.5218 40.9437 18.0839C41.2566 19.6475 40.2327 21.1734 38.6663 21.4847C37.2463 21.7674 35.8308 20.9501 35.36 19.5977L32.962 19.5957C32.962 21.5732 32.962 23.5513 32.962 25.5293C31.2135 26.5352 29.4639 27.5405 27.7149 28.5469L28.8977 30.5923C29.9358 30.3534 31.0197 30.6974 31.7287 31.5016C32.7864 32.7021 32.6658 34.5258 31.4618 35.5794C30.2587 36.6325 28.4279 36.5139 27.3702 35.3139C26.4114 34.226 26.4114 32.603 27.3566 31.5177L26.1571 29.4431C24.4383 30.4324 22.7191 31.4217 21.0003 32.4109C19.2528 31.4056 17.5053 30.4002 15.7582 29.3943L14.5729 31.4362C15.298 32.2098 15.5392 33.3298 15.1976 34.3351C14.6839 35.8465 13.0368 36.6572 11.5204 36.1452C10.005 35.6337 9.18948 33.9942 9.7037 32.4803C10.17 31.1088 11.5794 30.2976 12.9954 30.5707L14.1984 28.4971C12.4786 27.5073 10.7579 26.5186 9.0386 25.5293C9.0386 23.5186 9.0386 21.5078 9.0386 19.4966L6.67391 19.4951C6.35801 20.5135 5.52083 21.2755 4.46919 21.4847C2.9003 21.797 1.36925 20.7761 1.05638 19.2155C0.743513 17.6513 1.76438 16.1265 3.33377 15.8141C4.49543 15.5833 5.67272 16.0822 6.31713 17.0508C6.45137 17.2525 6.55986 17.4713 6.6401 17.7016L9.0386 17.7037C9.0386 15.7261 9.0386 13.7486 9.0386 11.7711C10.7876 10.7652 12.5362 9.75831 14.2852 8.75194L13.1029 6.70702C12.0643 6.94591 10.9804 6.6019 10.2714 5.79721C9.2137 4.59721 9.33431 2.77358 10.5384 1.71943C11.7414 0.666288 13.5722 0.78498 14.6299 1.98548C15.5887 3.07333 15.5887 4.69579 14.6435 5.78112L15.843 7.85572C17.5623 6.86645 19.2815 5.87617 21.0003 4.88741C22.7468 5.89227 24.4944 6.89914 26.2419 7.9045ZM30.2749 34.229C30.7295 33.8307 30.7729 33.1372 30.3738 32.6845C30.1184 32.3948 29.7374 32.2686 29.362 32.3274C28.5369 32.4577 28.1448 33.4711 28.7252 34.1299C29.1243 34.5831 29.8202 34.6263 30.2749 34.229ZM12.0987 34.4428C12.6729 34.6369 13.2956 34.3301 13.4899 33.7578C13.6842 33.1864 13.3779 32.5678 12.8056 32.3722C12.241 32.1791 11.6016 32.4969 11.4114 33.0567C11.2171 33.629 11.5244 34.2491 12.0987 34.4428ZM2.82612 18.8629C2.94521 19.4574 3.51998 19.8391 4.11595 19.7204C4.70989 19.6022 5.09442 19.0294 4.97836 18.4374C4.86128 17.842 4.28197 17.4592 3.68651 17.5774C3.09004 17.6961 2.70753 18.2689 2.82612 18.8629ZM11.7257 3.0693C11.2711 3.46712 11.2272 4.16067 11.6263 4.61331C12.0391 5.08154 12.7597 5.1097 13.2114 4.67919C13.6327 4.27735 13.6635 3.60895 13.275 3.16788C12.8758 2.71473 12.1799 2.67148 11.7257 3.0693ZM29.9015 2.85505C29.3272 2.66142 28.705 2.96771 28.5102 3.54005C28.3386 4.046 28.6197 4.83158 29.195 4.92613C29.7591 5.11875 30.3985 4.8009 30.5888 4.24164C30.783 3.6693 30.4757 3.04918 29.9015 2.85505ZM39.174 18.4349C39.0549 17.8405 38.4801 17.4592 37.8842 17.5774C37.2938 17.6951 36.9067 18.273 37.0218 18.8609C37.1388 19.4564 37.7182 19.8391 38.3136 19.7204C38.9101 19.6017 39.2931 19.0289 39.174 18.4349ZM21.0003 6.95698C17.6143 8.90534 14.2287 10.8522 10.8431 12.8001V24.4978C14.2287 26.4461 17.6143 28.393 21.0003 30.3409C24.3859 28.393 27.7714 26.4461 31.157 24.4978V12.8001C27.7714 10.8522 24.3859 8.90534 21.0003 6.95698ZM21.9223 14.0473C22.5374 14.1685 23.1092 14.4099 23.6123 14.7454C23.9579 14.4954 24.3036 14.246 24.6493 13.996C24.9889 14.3345 25.329 14.6735 25.6686 15.012C25.4178 15.3565 25.1675 15.701 24.9167 16.0455C25.2533 16.5469 25.4955 17.1167 25.6177 17.7298C26.039 17.7967 26.4604 17.8636 26.8818 17.9305C26.8818 18.4093 26.8818 18.8886 26.8818 19.3674C26.4604 19.4342 26.039 19.5011 25.6177 19.568C25.4955 20.1811 25.2533 20.7509 24.9167 21.2529C25.1675 21.5974 25.4178 21.9414 25.6686 22.2859C25.329 22.6249 24.9889 22.9633 24.6493 23.3018C24.3036 23.0518 23.9579 22.8024 23.6123 22.5524C23.1092 22.8879 22.5374 23.1293 21.9223 23.2505C21.8552 23.671 21.788 24.0909 21.7209 24.5109C21.2405 24.5109 20.7596 24.5109 20.2792 24.5109C20.2121 24.0909 20.145 23.671 20.0779 23.251C19.4627 23.1293 18.891 22.8879 18.3873 22.5529C18.0417 22.8024 17.6965 23.0523 17.3508 23.3018C17.0107 22.9633 16.6711 22.6249 16.3315 22.2859C16.5823 21.9414 16.8326 21.5974 17.0834 21.2523C16.7468 20.7509 16.5046 20.1811 16.383 19.568C15.9611 19.5011 15.5397 19.4342 15.1184 19.3674C15.1184 18.8886 15.1184 18.4093 15.1184 17.9305C15.5397 17.8636 15.9611 17.7967 16.3825 17.7298C16.5046 17.1167 16.7468 16.5469 17.0829 16.045C16.8326 15.7005 16.5818 15.3565 16.3315 15.012C16.6711 14.6735 17.0107 14.3345 17.3508 13.996C17.6965 14.246 18.0417 14.4954 18.3878 14.7454C18.891 14.4099 19.4627 14.1685 20.0779 14.0473C20.145 13.6269 20.2121 13.2069 20.2792 12.787C20.7596 12.787 21.2405 12.787 21.7209 12.787C21.788 13.2069 21.8552 13.6269 21.9223 14.0473ZM20.9998 15.6753C22.6479 15.6753 23.9837 17.0066 23.9837 18.6492C23.9837 20.2912 22.6479 21.6225 20.9998 21.6225C19.3522 21.6225 18.0164 20.2912 18.0164 18.6492C18.0164 17.0066 19.3522 15.6753 20.9998 15.6753Z"/>
</mask>
<path fill-rule="evenodd" clip-rule="evenodd" d="M21.0003 11.3737C25.0318 11.3737 28.3008 14.6312 28.3008 18.6497C28.3008 22.6681 25.0318 25.9256 21.0003 25.9256C16.9683 25.9256 13.6993 22.6681 13.6993 18.6497C13.6993 14.6312 16.9683 11.3737 21.0003 11.3737ZM26.2419 7.9045L27.4273 5.86259C26.7026 5.09009 26.4609 3.97056 26.8025 2.96419C27.3178 1.44885 28.9649 0.642147 30.4798 1.15363C31.1827 1.39101 31.7948 1.89546 32.1496 2.61163C32.4907 3.30015 32.5442 4.08875 32.2964 4.8185C31.8301 6.19101 30.4212 7.00174 29.0052 6.72864L27.8017 8.80173C29.5215 9.79151 31.2417 10.7818 32.962 11.7711C32.962 13.7818 32.962 15.792 32.962 17.8022L35.3262 17.8042C35.6416 16.7878 36.4783 16.0239 37.5314 15.8141C39.0988 15.5023 40.6309 16.5218 40.9437 18.0839C41.2566 19.6475 40.2327 21.1734 38.6663 21.4847C37.2463 21.7674 35.8308 20.9501 35.36 19.5977L32.962 19.5957C32.962 21.5732 32.962 23.5513 32.962 25.5293C31.2135 26.5352 29.4639 27.5405 27.7149 28.5469L28.8977 30.5923C29.9358 30.3534 31.0197 30.6974 31.7287 31.5016C32.7864 32.7021 32.6658 34.5258 31.4618 35.5794C30.2587 36.6325 28.4279 36.5139 27.3702 35.3139C26.4114 34.226 26.4114 32.603 27.3566 31.5177L26.1571 29.4431C24.4383 30.4324 22.7191 31.4217 21.0003 32.4109C19.2528 31.4056 17.5053 30.4002 15.7582 29.3943L14.5729 31.4362C15.298 32.2098 15.5392 33.3298 15.1976 34.3351C14.6839 35.8465 13.0368 36.6572 11.5204 36.1452C10.005 35.6337 9.18948 33.9942 9.7037 32.4803C10.17 31.1088 11.5794 30.2976 12.9954 30.5707L14.1984 28.4971C12.4786 27.5073 10.7579 26.5186 9.0386 25.5293C9.0386 23.5186 9.0386 21.5078 9.0386 19.4966L6.67391 19.4951C6.35801 20.5135 5.52083 21.2755 4.46919 21.4847C2.9003 21.797 1.36925 20.7761 1.05638 19.2155C0.743513 17.6513 1.76438 16.1265 3.33377 15.8141C4.49543 15.5833 5.67272 16.0822 6.31713 17.0508C6.45137 17.2525 6.55986 17.4713 6.6401 17.7016L9.0386 17.7037C9.0386 15.7261 9.0386 13.7486 9.0386 11.7711C10.7876 10.7652 12.5362 9.75831 14.2852 8.75194L13.1029 6.70702C12.0643 6.94591 10.9804 6.6019 10.2714 5.79721C9.2137 4.59721 9.33431 2.77358 10.5384 1.71943C11.7414 0.666288 13.5722 0.78498 14.6299 1.98548C15.5887 3.07333 15.5887 4.69579 14.6435 5.78112L15.843 7.85572C17.5623 6.86645 19.2815 5.87617 21.0003 4.88741C22.7468 5.89227 24.4944 6.89914 26.2419 7.9045ZM30.2749 34.229C30.7295 33.8307 30.7729 33.1372 30.3738 32.6845C30.1184 32.3948 29.7374 32.2686 29.362 32.3274C28.5369 32.4577 28.1448 33.4711 28.7252 34.1299C29.1243 34.5831 29.8202 34.6263 30.2749 34.229ZM12.0987 34.4428C12.6729 34.6369 13.2956 34.3301 13.4899 33.7578C13.6842 33.1864 13.3779 32.5678 12.8056 32.3722C12.241 32.1791 11.6016 32.4969 11.4114 33.0567C11.2171 33.629 11.5244 34.2491 12.0987 34.4428ZM2.82612 18.8629C2.94521 19.4574 3.51998 19.8391 4.11595 19.7204C4.70989 19.6022 5.09442 19.0294 4.97836 18.4374C4.86128 17.842 4.28197 17.4592 3.68651 17.5774C3.09004 17.6961 2.70753 18.2689 2.82612 18.8629ZM11.7257 3.0693C11.2711 3.46712 11.2272 4.16067 11.6263 4.61331C12.0391 5.08154 12.7597 5.1097 13.2114 4.67919C13.6327 4.27735 13.6635 3.60895 13.275 3.16788C12.8758 2.71473 12.1799 2.67148 11.7257 3.0693ZM29.9015 2.85505C29.3272 2.66142 28.705 2.96771 28.5102 3.54005C28.3386 4.046 28.6197 4.83158 29.195 4.92613C29.7591 5.11875 30.3985 4.8009 30.5888 4.24164C30.783 3.6693 30.4757 3.04918 29.9015 2.85505ZM39.174 18.4349C39.0549 17.8405 38.4801 17.4592 37.8842 17.5774C37.2938 17.6951 36.9067 18.273 37.0218 18.8609C37.1388 19.4564 37.7182 19.8391 38.3136 19.7204C38.9101 19.6017 39.2931 19.0289 39.174 18.4349ZM21.0003 6.95698C17.6143 8.90534 14.2287 10.8522 10.8431 12.8001V24.4978C14.2287 26.4461 17.6143 28.393 21.0003 30.3409C24.3859 28.393 27.7714 26.4461 31.157 24.4978V12.8001C27.7714 10.8522 24.3859 8.90534 21.0003 6.95698ZM21.9223 14.0473C22.5374 14.1685 23.1092 14.4099 23.6123 14.7454C23.9579 14.4954 24.3036 14.246 24.6493 13.996C24.9889 14.3345 25.329 14.6735 25.6686 15.012C25.4178 15.3565 25.1675 15.701 24.9167 16.0455C25.2533 16.5469 25.4955 17.1167 25.6177 17.7298C26.039 17.7967 26.4604 17.8636 26.8818 17.9305C26.8818 18.4093 26.8818 18.8886 26.8818 19.3674C26.4604 19.4342 26.039 19.5011 25.6177 19.568C25.4955 20.1811 25.2533 20.7509 24.9167 21.2529C25.1675 21.5974 25.4178 21.9414 25.6686 22.2859C25.329 22.6249 24.9889 22.9633 24.6493 23.3018C24.3036 23.0518 23.9579 22.8024 23.6123 22.5524C23.1092 22.8879 22.5374 23.1293 21.9223 23.2505C21.8552 23.671 21.788 24.0909 21.7209 24.5109C21.2405 24.5109 20.7596 24.5109 20.2792 24.5109C20.2121 24.0909 20.145 23.671 20.0779 23.251C19.4627 23.1293 18.891 22.8879 18.3873 22.5529C18.0417 22.8024 17.6965 23.0523 17.3508 23.3018C17.0107 22.9633 16.6711 22.6249 16.3315 22.2859C16.5823 21.9414 16.8326 21.5974 17.0834 21.2523C16.7468 20.7509 16.5046 20.1811 16.383 19.568C15.9611 19.5011 15.5397 19.4342 15.1184 19.3674C15.1184 18.8886 15.1184 18.4093 15.1184 17.9305C15.5397 17.8636 15.9611 17.7967 16.3825 17.7298C16.5046 17.1167 16.7468 16.5469 17.0829 16.045C16.8326 15.7005 16.5818 15.3565 16.3315 15.012C16.6711 14.6735 17.0107 14.3345 17.3508 13.996C17.6965 14.246 18.0417 14.4954 18.3878 14.7454C18.891 14.4099 19.4627 14.1685 20.0779 14.0473C20.145 13.6269 20.2121 13.2069 20.2792 12.787C20.7596 12.787 21.2405 12.787 21.7209 12.787C21.788 13.2069 21.8552 13.6269 21.9223 14.0473ZM20.9998 15.6753C22.6479 15.6753 23.9837 17.0066 23.9837 18.6492C23.9837 20.2912 22.6479 21.6225 20.9998 21.6225C19.3522 21.6225 18.0164 20.2912 18.0164 18.6492C18.0164 17.0066 19.3522 15.6753 20.9998 15.6753Z" fill="#4164A9"/>
<path fill-rule="evenodd" clip-rule="evenodd" d="M21.0003 11.3737C25.0318 11.3737 28.3008 14.6312 28.3008 18.6497C28.3008 22.6681 25.0318 25.9256 21.0003 25.9256C16.9683 25.9256 13.6993 22.6681 13.6993 18.6497C13.6993 14.6312 16.9683 11.3737 21.0003 11.3737ZM26.2419 7.9045L27.4273 5.86259C26.7026 5.09009 26.4609 3.97056 26.8025 2.96419C27.3178 1.44885 28.9649 0.642147 30.4798 1.15363C31.1827 1.39101 31.7948 1.89546 32.1496 2.61163C32.4907 3.30015 32.5442 4.08875 32.2964 4.8185C31.8301 6.19101 30.4212 7.00174 29.0052 6.72864L27.8017 8.80173C29.5215 9.79151 31.2417 10.7818 32.962 11.7711C32.962 13.7818 32.962 15.792 32.962 17.8022L35.3262 17.8042C35.6416 16.7878 36.4783 16.0239 37.5314 15.8141C39.0988 15.5023 40.6309 16.5218 40.9437 18.0839C41.2566 19.6475 40.2327 21.1734 38.6663 21.4847C37.2463 21.7674 35.8308 20.9501 35.36 19.5977L32.962 19.5957C32.962 21.5732 32.962 23.5513 32.962 25.5293C31.2135 26.5352 29.4639 27.5405 27.7149 28.5469L28.8977 30.5923C29.9358 30.3534 31.0197 30.6974 31.7287 31.5016C32.7864 32.7021 32.6658 34.5258 31.4618 35.5794C30.2587 36.6325 28.4279 36.5139 27.3702 35.3139C26.4114 34.226 26.4114 32.603 27.3566 31.5177L26.1571 29.4431C24.4383 30.4324 22.7191 31.4217 21.0003 32.4109C19.2528 31.4056 17.5053 30.4002 15.7582 29.3943L14.5729 31.4362C15.298 32.2098 15.5392 33.3298 15.1976 34.3351C14.6839 35.8465 13.0368 36.6572 11.5204 36.1452C10.005 35.6337 9.18948 33.9942 9.7037 32.4803C10.17 31.1088 11.5794 30.2976 12.9954 30.5707L14.1984 28.4971C12.4786 27.5073 10.7579 26.5186 9.0386 25.5293C9.0386 23.5186 9.0386 21.5078 9.0386 19.4966L6.67391 19.4951C6.35801 20.5135 5.52083 21.2755 4.46919 21.4847C2.9003 21.797 1.36925 20.7761 1.05638 19.2155C0.743513 17.6513 1.76438 16.1265 3.33377 15.8141C4.49543 15.5833 5.67272 16.0822 6.31713 17.0508C6.45137 17.2525 6.55986 17.4713 6.6401 17.7016L9.0386 17.7037C9.0386 15.7261 9.0386 13.7486 9.0386 11.7711C10.7876 10.7652 12.5362 9.75831 14.2852 8.75194L13.1029 6.70702C12.0643 6.94591 10.9804 6.6019 10.2714 5.79721C9.2137 4.59721 9.33431 2.77358 10.5384 1.71943C11.7414 0.666288 13.5722 0.78498 14.6299 1.98548C15.5887 3.07333 15.5887 4.69579 14.6435 5.78112L15.843 7.85572C17.5623 6.86645 19.2815 5.87617 21.0003 4.88741C22.7468 5.89227 24.4944 6.89914 26.2419 7.9045ZM30.2749 34.229C30.7295 33.8307 30.7729 33.1372 30.3738 32.6845C30.1184 32.3948 29.7374 32.2686 29.362 32.3274C28.5369 32.4577 28.1448 33.4711 28.7252 34.1299C29.1243 34.5831 29.8202 34.6263 30.2749 34.229ZM12.0987 34.4428C12.6729 34.6369 13.2956 34.3301 13.4899 33.7578C13.6842 33.1864 13.3779 32.5678 12.8056 32.3722C12.241 32.1791 11.6016 32.4969 11.4114 33.0567C11.2171 33.629 11.5244 34.2491 12.0987 34.4428ZM2.82612 18.8629C2.94521 19.4574 3.51998 19.8391 4.11595 19.7204C4.70989 19.6022 5.09442 19.0294 4.97836 18.4374C4.86128 17.842 4.28197 17.4592 3.68651 17.5774C3.09004 17.6961 2.70753 18.2689 2.82612 18.8629ZM11.7257 3.0693C11.2711 3.46712 11.2272 4.16067 11.6263 4.61331C12.0391 5.08154 12.7597 5.1097 13.2114 4.67919C13.6327 4.27735 13.6635 3.60895 13.275 3.16788C12.8758 2.71473 12.1799 2.67148 11.7257 3.0693ZM29.9015 2.85505C29.3272 2.66142 28.705 2.96771 28.5102 3.54005C28.3386 4.046 28.6197 4.83158 29.195 4.92613C29.7591 5.11875 30.3985 4.8009 30.5888 4.24164C30.783 3.6693 30.4757 3.04918 29.9015 2.85505ZM39.174 18.4349C39.0549 17.8405 38.4801 17.4592 37.8842 17.5774C37.2938 17.6951 36.9067 18.273 37.0218 18.8609C37.1388 19.4564 37.7182 19.8391 38.3136 19.7204C38.9101 19.6017 39.2931 19.0289 39.174 18.4349ZM21.0003 6.95698C17.6143 8.90534 14.2287 10.8522 10.8431 12.8001V24.4978C14.2287 26.4461 17.6143 28.393 21.0003 30.3409C24.3859 28.393 27.7714 26.4461 31.157 24.4978V12.8001C27.7714 10.8522 24.3859 8.90534 21.0003 6.95698ZM21.9223 14.0473C22.5374 14.1685 23.1092 14.4099 23.6123 14.7454C23.9579 14.4954 24.3036 14.246 24.6493 13.996C24.9889 14.3345 25.329 14.6735 25.6686 15.012C25.4178 15.3565 25.1675 15.701 24.9167 16.0455C25.2533 16.5469 25.4955 17.1167 25.6177 17.7298C26.039 17.7967 26.4604 17.8636 26.8818 17.9305C26.8818 18.4093 26.8818 18.8886 26.8818 19.3674C26.4604 19.4342 26.039 19.5011 25.6177 19.568C25.4955 20.1811 25.2533 20.7509 24.9167 21.2529C25.1675 21.5974 25.4178 21.9414 25.6686 22.2859C25.329 22.6249 24.9889 22.9633 24.6493 23.3018C24.3036 23.0518 23.9579 22.8024 23.6123 22.5524C23.1092 22.8879 22.5374 23.1293 21.9223 23.2505C21.8552 23.671 21.788 24.0909 21.7209 24.5109C21.2405 24.5109 20.7596 24.5109 20.2792 24.5109C20.2121 24.0909 20.145 23.671 20.0779 23.251C19.4627 23.1293 18.891 22.8879 18.3873 22.5529C18.0417 22.8024 17.6965 23.0523 17.3508 23.3018C17.0107 22.9633 16.6711 22.6249 16.3315 22.2859C16.5823 21.9414 16.8326 21.5974 17.0834 21.2523C16.7468 20.7509 16.5046 20.1811 16.383 19.568C15.9611 19.5011 15.5397 19.4342 15.1184 19.3674C15.1184 18.8886 15.1184 18.4093 15.1184 17.9305C15.5397 17.8636 15.9611 17.7967 16.3825 17.7298C16.5046 17.1167 16.7468 16.5469 17.0829 16.045C16.8326 15.7005 16.5818 15.3565 16.3315 15.012C16.6711 14.6735 17.0107 14.3345 17.3508 13.996C17.6965 14.246 18.0417 14.4954 18.3878 14.7454C18.891 14.4099 19.4627 14.1685 20.0779 14.0473C20.145 13.6269 20.2121 13.2069 20.2792 12.787C20.7596 12.787 21.2405 12.787 21.7209 12.787C21.788 13.2069 21.8552 13.6269 21.9223 14.0473ZM20.9998 15.6753C22.6479 15.6753 23.9837 17.0066 23.9837 18.6492C23.9837 20.2912 22.6479 21.6225 20.9998 21.6225C19.3522 21.6225 18.0164 20.2912 18.0164 18.6492C18.0164 17.0066 19.3522 15.6753 20.9998 15.6753Z" stroke="#4164A9" stroke-width="0.5" mask="url(#path-1-outside-1)"/>
</svg>
