<svg width="24" height="24" viewBox="0 0 24 24" fill="none" xmlns="http://www.w3.org/2000/svg">
<mask id="mask0" mask-type="alpha" maskUnits="userSpaceOnUse" x="0" y="0" width="24" height="24">
<rect width="24" height="24" fill="#C4C4C4"/>
</mask>
<g mask="url(#mask0)">
<path d="M17.8513 16.2095C17.5787 16.0067 17.1933 16.0634 16.9905 16.3359C16.879 16.4859 16.7596 16.6329 16.6357 16.7731C16.4107 17.0276 16.4346 17.4164 16.6892 17.6415C16.8062 17.745 16.9516 17.7958 17.0964 17.7958C17.2666 17.7958 17.436 17.7256 17.5576 17.588C17.7043 17.4221 17.8457 17.2479 17.9777 17.0703C18.1806 16.7978 18.124 16.4123 17.8513 16.2095Z" fill="#F2994A"/>
<path d="M18.8791 13.3267C18.5473 13.2544 18.2193 13.465 18.1471 13.797C18.1073 13.9796 18.0592 14.1626 18.0041 14.3409C17.9038 14.6655 18.0857 15.01 18.4103 15.1103C18.4708 15.129 18.532 15.1379 18.5922 15.1379C18.8549 15.1379 19.0981 14.9683 19.1798 14.7041C19.2452 14.4925 19.3022 14.2754 19.3494 14.0587C19.4216 13.7267 19.2111 13.399 18.8791 13.3267Z" fill="#F2994A"/>
<path d="M14.8892 18.1778C14.7259 18.2689 14.5568 18.3542 14.3866 18.431C14.0769 18.5709 13.9392 18.9353 14.0791 19.2449C14.1818 19.4725 14.4057 19.6071 14.6402 19.6071C14.7248 19.6071 14.8108 19.5895 14.893 19.5524C15.0949 19.4613 15.2954 19.3602 15.4891 19.2521C15.7858 19.0865 15.892 18.7117 15.7263 18.415C15.5607 18.1184 15.1859 18.0121 14.8892 18.1778Z" fill="#F2994A"/>
<path d="M11.0114 7.45312V12.1202L8.75538 14.3762C8.51513 14.6165 8.51513 15.006 8.75538 15.2462C8.87554 15.3664 9.03295 15.4264 9.19045 15.4264C9.34788 15.4264 9.50535 15.3664 9.62551 15.2462L12.0617 12.81C12.1771 12.6947 12.2419 12.5382 12.2419 12.375V7.45312C12.2419 7.11333 11.9664 6.83789 11.6267 6.83789C11.2869 6.83789 11.0114 7.11333 11.0114 7.45312Z" fill="#F2994A"/>
<path d="M18.8848 5.82275C18.545 5.82275 18.2695 6.09819 18.2695 6.43799V8.14637C16.8375 5.90052 14.3367 4.5 11.625 4.5C9.52151 4.5 7.54394 5.31915 6.05651 6.80651C4.56915 8.29394 3.75 10.2715 3.75 12.375C3.75 14.4785 4.56915 16.4561 6.05651 17.9435C7.54394 19.4308 9.52151 20.25 11.625 20.25C11.6302 20.25 11.6352 20.2494 11.6404 20.2492C11.6455 20.2494 11.6506 20.25 11.6558 20.25C11.8775 20.25 12.1014 20.2406 12.3214 20.2223C12.6599 20.1939 12.9115 19.8964 12.8831 19.5578C12.8547 19.2192 12.5577 18.9676 12.2187 18.9961C12.0327 19.0116 11.8434 19.0195 11.6558 19.0195C11.6506 19.0195 11.6455 19.0202 11.6404 19.0203C11.6352 19.0202 11.6302 19.0195 11.625 19.0195C7.96119 19.0195 4.98047 16.0388 4.98047 12.375C4.98047 8.71119 7.96119 5.73047 11.625 5.73047C13.9862 5.73047 16.158 6.98902 17.3447 8.99121H15.653C15.3132 8.99121 15.0378 9.26665 15.0378 9.60645C15.0378 9.94624 15.3132 10.2217 15.653 10.2217H17.5312C17.9059 10.2217 18.2565 10.1164 18.5549 9.93397C18.5741 9.92301 18.5926 9.91123 18.6102 9.89853C19.1456 9.54628 19.5 8.94036 19.5 8.25293V6.43799C19.5 6.09819 19.2246 5.82275 18.8848 5.82275Z" fill="#F2994A"/>
</g>
</svg>
