<svg width="31" height="31" viewBox="0 0 31 31" fill="none" xmlns="http://www.w3.org/2000/svg">
<rect width="31" height="31" rx="8" fill="#EDF4FF"/>
<mask id="mask0" mask-type="alpha" maskUnits="userSpaceOnUse" x="0" y="0" width="31" height="31">
<rect width="31" height="31" fill="#CAEDF3"/>
</mask>
<g mask="url(#mask0)">
<path d="M9.37186 19.8155C10.7308 21.7397 12.9703 23 15.5003 23C19.6357 23 23.0003 19.6354 23.0003 15.4997C23.0003 11.3643 19.6357 8 15.5003 8C11.3646 8 8 11.3645 8 15.4997C8 17.0768 8.4905 18.5408 9.32512 19.7498C9.33843 19.7733 9.35407 19.7951 9.37186 19.8155ZM18.0039 21.6742C18.0012 21.6742 17.9991 21.6735 17.9967 21.6735C17.2649 21.6735 17.0833 21.5277 16.9068 21.3858C16.7687 21.2755 16.6856 21.1178 16.704 21.0014C16.7197 20.9036 16.8047 20.7832 16.8946 20.6558C16.9209 20.619 16.9469 20.5823 16.972 20.545C17.3203 20.0309 17.5197 19.407 17.534 18.7881C17.536 18.7058 17.5132 18.6248 17.4693 18.5549C16.9707 17.768 16.0156 18.132 15.2488 18.4245C14.8749 18.5669 14.4686 18.7219 14.1579 18.7414C14.1849 18.7164 14.2128 18.6913 14.2407 18.6659C14.5188 18.4149 14.8648 18.1027 14.8467 17.5972C14.8279 17.0986 14.4325 16.5395 13.8733 16.5021C13.0049 16.4432 12.6292 16.1899 12.5713 15.9908C12.5535 15.9293 12.5668 15.8784 12.583 15.8473C13.067 15.9973 13.9552 16.2348 14.4791 15.6109C14.8768 15.1404 14.8216 14.4427 14.3277 13.696L14.294 13.6451C14.0598 13.2925 13.8178 12.9278 13.9028 12.6467C13.9535 12.4795 14.1335 12.3252 14.2842 12.2099C14.672 11.9138 15.1015 11.68 15.5605 11.5148L15.596 11.502C16.1774 11.2933 17.0562 10.9777 17.1205 10.1426C17.1553 9.68622 16.9048 9.33278 16.7037 9.04869C16.6763 9.00927 16.6493 8.97068 16.623 8.93243C17.6125 9.10108 18.528 9.48829 19.3184 10.043L17.8668 12.079C17.5024 12.5896 17.481 13.0771 17.8096 13.3835C17.9733 13.536 18.1719 13.5778 18.28 13.6007C18.5568 13.6579 18.8427 13.6889 19.1437 13.6927C19.159 13.6929 19.1778 13.6932 19.1954 13.6937C19.2013 13.717 19.2078 13.7526 19.2117 13.8053C19.237 14.1571 19.1926 14.5193 19.0828 14.8532C19.0378 14.99 19.0665 15.1407 19.1589 15.2515C19.3964 15.5359 19.833 15.5778 20.2192 15.3543C20.2659 15.3275 20.3122 15.2979 20.3582 15.2681C20.4164 15.2307 20.5136 15.168 20.545 15.1668C20.5828 15.172 20.7147 15.2675 20.7842 15.3224C20.9632 15.4642 21.2085 15.6582 21.5418 15.6602C21.5438 15.6603 21.5453 15.6603 21.5473 15.6603C21.7702 15.6602 21.9839 15.5677 22.1619 15.407C22.1625 15.4383 22.1645 15.4687 22.1645 15.5C22.1644 18.2893 20.4411 20.6824 18.0039 21.6742ZM21.9783 13.9399C21.8971 14.0905 21.8467 14.2441 21.8024 14.38C21.7722 14.4736 21.7436 14.5622 21.7095 14.6363C21.6488 14.7668 21.5678 14.8244 21.547 14.8244C21.5012 14.824 21.3816 14.7294 21.3026 14.6669C21.1169 14.5198 20.8667 14.3186 20.5129 14.3317C20.3153 14.3392 20.1523 14.4155 20.0208 14.4934C20.0552 14.2467 20.0633 13.9962 20.045 13.7439C20.0158 13.3557 19.8709 13.0894 19.6149 12.9525C19.4438 12.8607 19.2693 12.8586 19.1401 12.8569C18.9065 12.8537 18.6738 12.8288 18.4506 12.7826C18.4428 12.7809 18.4357 12.7794 18.4295 12.7781C18.4476 12.7275 18.4837 12.6532 18.5471 12.5643L19.9729 10.5644C20.9485 11.4489 21.6599 12.6187 21.9783 13.9399ZM15.5003 8.83579C15.5477 8.83579 15.5948 8.83845 15.6424 8.83928C15.7239 9.10907 15.8809 9.33194 16.0221 9.53154C16.1711 9.74177 16.2995 9.92323 16.2879 10.0786C16.2651 10.3736 15.7378 10.5631 15.3142 10.7151L15.2781 10.7283C14.7386 10.9224 14.2334 11.1973 13.777 11.5458C13.5265 11.7375 13.2235 12.0086 13.1036 12.4043C12.9041 13.0625 13.289 13.6418 13.5981 14.1075L13.6312 14.1574C13.8302 14.4583 14.0047 14.8781 13.8404 15.0725C13.6682 15.2775 13.1962 15.1642 12.7583 15.0265C12.4925 14.9421 12.1983 15.0288 11.99 15.2518C11.7299 15.5313 11.6557 15.9499 11.8016 16.319C11.9646 16.7318 12.4471 17.2433 13.8176 17.3361C13.8835 17.3404 14.0067 17.4896 14.0119 17.628C14.0157 17.7354 13.8836 17.863 13.6812 18.0456C13.4577 18.2474 13.2044 18.4761 13.0916 18.8184C13.0402 18.9744 13.0848 19.1462 13.206 19.2572C13.8535 19.8508 14.7923 19.4932 15.5469 19.2054C16.0722 19.0052 16.4991 18.857 16.6884 18.9395C16.6496 19.3428 16.5073 19.7408 16.2806 20.0763C16.2584 20.1086 16.2357 20.141 16.2127 20.1731C16.0845 20.3544 15.925 20.5801 15.8787 20.8702C15.8119 21.288 16.0061 21.7356 16.3842 22.0378C16.408 22.0569 16.4319 22.0759 16.4567 22.0945C16.1442 22.1396 15.8248 22.1642 15.5003 22.1642C13.2874 22.1642 11.324 21.0791 10.1114 19.414C10.1491 18.7035 10.4843 18.2158 10.76 17.8219L10.7981 17.7677C10.8851 17.6421 11.0005 17.447 10.9962 17.2005C10.9901 16.9189 10.8347 16.7218 10.7214 16.578C10.7 16.5507 10.6785 16.5236 10.6591 16.4966C10.3861 16.1119 10.5736 15.5136 10.8884 15.1462L10.9177 15.1121C11.0629 14.9448 11.2825 14.692 11.2565 14.3414C11.2347 14.0165 11.0022 13.7323 10.6627 13.6165C10.4224 13.5355 10.181 13.5526 9.97796 13.5801C9.66543 13.6213 9.35905 13.6927 9.05983 13.7883C9.81728 10.9405 12.4171 8.83579 15.5003 8.83579ZM8.87937 14.7497C9.26558 14.5804 9.67009 14.4635 10.0879 14.4084C10.197 14.3938 10.3186 14.3823 10.3939 14.4077C10.3988 14.4094 10.4034 14.4112 10.4072 14.4134C10.379 14.4578 10.3231 14.522 10.2863 14.5641L10.2539 14.602C9.72015 15.2249 9.45369 16.2418 9.97779 16.9806C10.0054 17.0191 10.035 17.0571 10.0648 17.0951C10.0947 17.1327 10.137 17.1864 10.1551 17.2187C10.1489 17.2321 10.1363 17.2549 10.1118 17.2902L10.0751 17.3426C9.89246 17.6032 9.65728 17.9397 9.48812 18.3731C9.07031 17.5027 8.83579 16.5281 8.83579 15.4997C8.83579 15.246 8.85143 14.9962 8.87937 14.7497Z" fill="#4164A9"/>
</g>
</svg>
