<svg width="60" height="60" viewBox="0 0 60 60" fill="none" xmlns="http://www.w3.org/2000/svg">
<rect width="60" height="60" rx="18" fill="#EFF4FD"/>
<path d="M14.7367 13C13.2273 13 12 14.2273 12 15.7367V20.4282C12 21.4237 12.5351 22.295 13.3317 22.7739C12.5351 23.2528 12 24.1241 12 25.1196V29.8111C12 30.8066 12.5351 31.6779 13.3317 32.1568C12.5351 32.6358 12 33.5071 12 34.5026V39.1941C12 40.7034 13.2273 41.9307 14.7367 41.9307H35.5795C36.1227 44.6066 38.4877 46.6222 41.3217 46.6222C44.5559 46.6222 47.186 43.992 47.186 40.7579C47.186 37.9239 45.1704 35.5589 42.4946 35.0157V34.5026C42.4946 33.5071 41.9594 32.6358 41.1629 32.1568C41.9594 31.6779 42.4946 30.8066 42.4946 29.8111V25.1196C42.4946 24.1241 41.9594 23.2528 41.1629 22.7739C41.9594 22.295 42.4946 21.4237 42.4946 20.4282V15.7367C42.4946 14.2273 41.2672 13 39.7579 13H14.7367ZM14.7367 13.7819H39.7579C40.8476 13.7819 41.7127 14.647 41.7127 15.7367V20.4282C41.7127 21.5179 40.8476 22.3829 39.7579 22.3829H14.7367C13.647 22.3829 12.7819 21.5179 12.7819 20.4282V15.7367C12.7819 14.647 13.647 13.7819 14.7367 13.7819ZM19.4282 16.1276C18.3532 16.1276 17.4734 17.0075 17.4734 18.0824C17.4734 19.1574 18.3532 20.0372 19.4282 20.0372C20.5031 20.0372 21.3829 19.1574 21.3829 18.0824C21.3829 17.0075 20.5031 16.1276 19.4282 16.1276ZM19.4282 16.9096C20.0806 16.9096 20.601 17.43 20.601 18.0824C20.601 18.7348 20.0806 19.2553 19.4282 19.2553C18.7758 19.2553 18.2553 18.7348 18.2553 18.0824C18.2553 17.43 18.7758 16.9096 19.4282 16.9096ZM27.2473 17.6915C27.0314 17.6915 26.8563 17.8665 26.8563 18.0824C26.8563 18.2984 27.0314 18.4734 27.2473 18.4734H35.8483C36.0642 18.4734 36.2393 18.2984 36.2393 18.0824C36.2393 17.8665 36.0642 17.6915 35.8483 17.6915H27.2473ZM14.7367 23.1649H39.7579C40.8476 23.1649 41.7127 24.0299 41.7127 25.1196V29.8111C41.7127 30.9008 40.8476 31.7659 39.7579 31.7659H14.7367C13.647 31.7659 12.7819 30.9008 12.7819 29.8111V25.1196C12.7819 24.0299 13.647 23.1649 14.7367 23.1649ZM19.4282 25.5106C18.3532 25.5106 17.4734 26.3904 17.4734 27.4654C17.4734 28.5403 18.3532 29.4202 19.4282 29.4202C20.5031 29.4202 21.3829 28.5403 21.3829 27.4654C21.3829 26.3904 20.5031 25.5106 19.4282 25.5106ZM19.4282 26.2925C20.0806 26.2925 20.601 26.813 20.601 27.4654C20.601 28.1178 20.0806 28.6382 19.4282 28.6382C18.7758 28.6382 18.2553 28.1178 18.2553 27.4654C18.2553 26.813 18.7758 26.2925 19.4282 26.2925ZM27.2473 27.0744C27.0314 27.0744 26.8563 27.2494 26.8563 27.4654C26.8563 27.6813 27.0314 27.8563 27.2473 27.8563H35.8483C36.0642 27.8563 36.2393 27.6813 36.2393 27.4654C36.2393 27.2494 36.0642 27.0744 35.8483 27.0744H27.2473ZM14.7367 32.5478H39.7579C40.8476 32.5478 41.7127 33.4129 41.7127 34.5026V34.9057C41.5829 34.8971 41.4537 34.8936 41.3217 34.8936C38.0876 34.8936 35.4574 37.5238 35.4574 40.758C35.4574 40.8899 35.4613 41.0191 35.4695 41.1489L14.7367 41.1488C13.647 41.1488 12.7819 40.2838 12.7819 39.1941V34.5026C12.7819 33.4129 13.647 32.5478 14.7367 32.5478ZM19.4282 34.8935C18.3532 34.8935 17.4734 35.7733 17.4734 36.8483C17.4734 37.9233 18.3532 38.8031 19.4282 38.8031C20.5031 38.8031 21.3829 37.9233 21.3829 36.8483C21.3829 35.7733 20.5031 34.8935 19.4282 34.8935ZM19.4282 35.6755C20.0806 35.6755 20.601 36.1959 20.601 36.8483C20.601 37.5007 20.0806 38.0212 19.4282 38.0212C18.7758 38.0212 18.2553 37.5007 18.2553 36.8483C18.2553 36.1959 18.7758 35.6755 19.4282 35.6755ZM41.3217 35.6755C44.1333 35.6755 46.4041 37.9463 46.4041 40.7579C46.4041 43.5694 44.1333 45.8403 41.3217 45.8403C38.5101 45.8403 36.2393 43.5694 36.2393 40.7579C36.2393 37.9463 38.5101 35.6755 41.3217 35.6755ZM27.2473 36.4574C27.0314 36.4574 26.8563 36.6324 26.8563 36.8483C26.8563 37.0642 27.0314 37.2393 27.2473 37.2393H35.8483C36.0642 37.2393 36.2393 37.0642 36.2393 36.8483C36.2393 36.6324 36.0642 36.4574 35.8483 36.4574H27.2473ZM43.9851 38.8031C43.891 38.8172 43.8112 38.8637 43.753 38.9497L40.8574 42.5661L38.4262 40.8312C38.2599 40.7096 37.998 40.7504 37.8764 40.9167C37.7549 41.0831 37.7956 41.345 37.9619 41.4665L40.6986 43.4213C40.8599 43.5392 41.1123 43.5048 41.2362 43.348L44.3638 39.4384C44.486 39.2682 44.5049 39.0496 44.2906 38.8764C44.1875 38.808 44.0792 38.7891 43.9851 38.8031Z" fill="black" stroke="#4164A9"/>
</svg>
