<?xml version="1.0"?>
<svg xmlns="http://www.w3.org/2000/svg" xmlns:xlink="http://www.w3.org/1999/xlink" xmlns:svgjs="http://svgjs.com/svgjs" version="1.1" width="512" height="512" x="0" y="0" viewBox="0 0 280.244 280.244" style="enable-background:new 0 0 512 512" xml:space="preserve" class=""><rect width="280.244" height="280.244" rx="20" ry="20" fill="#edf4ff" shape="rounded"/><g transform="matrix(0.7,0,0,0.7,42.036665940284735,42.036600923538245)">
<g xmlns="http://www.w3.org/2000/svg">
	<path style="" d="M144.166,4.044c-34.067,0-66.223,12.435-91.286,35.156L37.899,24.219   c-3.31-3.31-7.684-5.132-12.316-5.132c-8.584,0-15.857,6.126-17.293,14.567L0.25,80.918c-0.866,5.09,0.545,10.269,3.87,14.208   c3.337,3.953,8.199,6.22,13.34,6.22c0.986,0,1.984-0.085,2.966-0.252l47.264-8.04c6.476-1.102,11.737-5.674,13.731-11.933   c1.994-6.259,0.348-13.033-4.297-17.677L63.506,49.826c22.218-19.897,50.601-30.782,80.66-30.782   c66.763,0,121.078,54.315,121.078,121.078S210.928,261.2,144.166,261.2h-0.25c-4.143,0-7.5,3.358-7.5,7.5s3.357,7.5,7.5,7.5h0.25   c75.034,0,136.078-61.044,136.078-136.078S219.2,4.044,144.166,4.044z M67.129,76.567c-0.172,0.539-0.654,1.477-1.955,1.699   L17.91,86.306c-0.152,0.026-0.305,0.039-0.45,0.039c-1.013,0-1.65-0.627-1.878-0.896c-0.337-0.399-0.705-1.073-0.545-2.016   l8.04-47.264c0.28-1.644,1.707-2.083,2.506-2.083c0.653,0,1.213,0.242,1.71,0.739l39.225,39.225   C67.45,74.983,67.3,76.028,67.129,76.567z" fill="#5c638b" data-original="#222220" class=""/>
	<path style="" d="M48.464,214.299c-2.536-3.276-7.248-3.873-10.521-1.337c-3.275,2.536-3.874,7.247-1.338,10.522   l0.352,0.452c1.479,1.897,3.688,2.889,5.92,2.889c1.612,0,3.237-0.518,4.606-1.586c3.267-2.547,3.851-7.259,1.304-10.526   L48.464,214.299z" fill="#5c638b" data-original="#222220" class=""/>
	<path style="" d="M108.268,255.792l-0.5-0.156c-3.949-1.243-8.162,0.958-9.402,4.91s0.958,8.161,4.91,9.402   l0.551,0.172c0.739,0.229,1.487,0.338,2.223,0.338c3.2,0,6.164-2.064,7.161-5.281C114.438,261.221,112.225,257.019,108.268,255.792   z" fill="#5c638b" data-original="#222220" class=""/>
	<path style="" d="M75.398,239.79l-0.424-0.295c-3.397-2.371-8.071-1.538-10.442,1.857   c-2.371,3.396-1.54,8.072,1.856,10.443l0.479,0.332c1.302,0.9,2.787,1.332,4.259,1.332c2.379,0,4.72-1.129,6.176-3.234   C79.657,246.818,78.805,242.146,75.398,239.79z" fill="#5c638b" data-original="#222220" class=""/>
	<path style="" d="M30.745,182.597c-1.454-3.879-5.774-5.843-9.656-4.389c-3.878,1.455-5.843,5.777-4.389,9.656   l0.088,0.234c1.129,3.011,3.986,4.869,7.023,4.869c0.875,0,1.765-0.154,2.633-0.479c3.878-1.455,5.843-5.777,4.389-9.656   L30.745,182.597z" fill="#5c638b" data-original="#222220" class=""/>
</g>
<g xmlns="http://www.w3.org/2000/svg">
</g>
<g xmlns="http://www.w3.org/2000/svg">
</g>
<g xmlns="http://www.w3.org/2000/svg">
</g>
<g xmlns="http://www.w3.org/2000/svg">
</g>
<g xmlns="http://www.w3.org/2000/svg">
</g>
<g xmlns="http://www.w3.org/2000/svg">
</g>
<g xmlns="http://www.w3.org/2000/svg">
</g>
<g xmlns="http://www.w3.org/2000/svg">
</g>
<g xmlns="http://www.w3.org/2000/svg">
</g>
<g xmlns="http://www.w3.org/2000/svg">
</g>
<g xmlns="http://www.w3.org/2000/svg">
</g>
<g xmlns="http://www.w3.org/2000/svg">
</g>
<g xmlns="http://www.w3.org/2000/svg">
</g>
<g xmlns="http://www.w3.org/2000/svg">
</g>
<g xmlns="http://www.w3.org/2000/svg">
</g>
</g></svg>
