<svg width="38" height="38" viewBox="0 0 38 38" fill="none" xmlns="http://www.w3.org/2000/svg">
<rect width="38" height="38" rx="8" fill="transparent"/>
<mask id="mask0" mask-type="alpha" maskUnits="userSpaceOnUse" x="0" y="0" width="38" height="38">
<rect width="38" height="38" fill="#4164A9"/>
</mask>
<g mask="url(#mask0)">
<path d="M17.9845 23.654C15.0233 23.654 12.6543 21.2851 12.6543 18.3238C12.6543 15.3626 15.0233 12.9937 17.9845 12.9937C20.9457 12.9937 23.3147 15.3626 23.3147 18.3238C23.3147 21.2851 20.9457 23.654 17.9845 23.654ZM17.9845 14.1781C15.6747 14.1781 13.8388 16.0141 13.8388 18.3238C13.8388 20.6336 15.6747 22.4695 17.9845 22.4695C20.2942 22.4695 22.1302 20.6336 22.1302 18.3238C22.1302 16.0141 20.2942 14.1781 17.9845 14.1781Z" fill="white"/>
<path d="M23.9077 14.7707C24.2348 14.7707 24.4999 14.5055 24.4999 14.1784C24.4999 13.8513 24.2348 13.5862 23.9077 13.5862C23.5806 13.5862 23.3154 13.8513 23.3154 14.1784C23.3154 14.5055 23.5806 14.7707 23.9077 14.7707Z" fill="white"/>
<path d="M10.2852 10.6252H12.6541V11.2175H10.2852V10.6252Z" fill="white"/>
<path d="M17.9847 15.955V15.3628C16.3264 15.3628 15.0234 16.6657 15.0234 18.324H15.6157C15.6157 17.0211 16.6817 15.955 17.9847 15.955Z" fill="white"/>
<path d="M28.3607 20.8105C28.6366 20.8105 28.8864 20.9638 29.0244 21.19C29.0915 21.2995 29.1362 21.4345 29.1251 21.5768C29.1176 21.6862 29.1512 21.7957 29.2108 21.8978C29.401 22.208 29.8223 22.3247 30.1505 22.1496C30.5196 21.938 30.9857 22.0657 31.1982 22.4269L31.448 22.8574C31.6643 23.2186 31.545 23.682 31.1721 23.89C30.8552 24.076 30.7433 24.4883 30.9335 24.8021C30.9931 24.9006 31.0603 24.9845 31.1647 25.0356C31.2952 25.105 31.3958 25.2144 31.4667 25.3239C31.6047 25.5501 31.5935 25.8274 31.4592 26.0718L31.1982 26.5097C31.0603 26.7432 30.803 26.8891 30.5382 26.8891C30.4077 26.8891 30.2623 26.8526 30.143 26.7797C30.0461 26.7176 29.9342 26.6957 29.8149 26.6957C29.4457 26.6957 29.1362 26.9986 29.1251 27.3598C29.1251 27.7794 28.782 28.1078 28.3532 28.1078H27.8461C27.4136 28.1078 27.0705 27.7794 27.0705 27.3598C27.0631 26.9986 26.7536 26.6957 26.3845 26.6957C26.2614 26.6957 26.1495 26.7176 26.0563 26.7797C25.937 26.8526 25.7879 26.8891 25.6611 26.8891C25.3926 26.8891 25.1353 26.7432 24.9974 26.5097L24.7401 26.0718C24.6021 25.8347 24.5947 25.5501 24.7326 25.3239C24.7923 25.2144 24.9042 25.105 25.0309 25.0356C25.1353 24.9845 25.2024 24.9006 25.2658 24.8021C25.4523 24.4883 25.3404 24.076 25.0235 23.89C24.6543 23.682 24.535 23.2186 24.7475 22.8574L24.9974 22.4269C25.2136 22.0657 25.676 21.938 26.0489 22.1496C26.3733 22.3247 26.7946 22.208 26.9848 21.8978C27.0444 21.7957 27.078 21.6862 27.0705 21.5768C27.0631 21.4345 27.1041 21.2995 27.1749 21.19C27.3129 20.9638 27.5627 20.8178 27.8349 20.8105H28.3607ZM28.1034 23.4302C27.518 23.4302 27.0444 23.89 27.0444 24.4628C27.0444 25.0356 27.518 25.4917 28.1034 25.4917C28.6888 25.4917 29.1512 25.0356 29.1512 24.4628C29.1512 23.89 28.6888 23.4302 28.1034 23.4302Z" fill="white"/>
<path fill-rule="evenodd" clip-rule="evenodd" d="M28.0533 19.5075V13.5865C28.0533 12.5797 27.2833 11.8097 26.2765 11.8097H22.7231C22.6046 11.8097 22.427 11.7505 22.3677 11.6321L21.7163 10.3291C21.4794 9.85535 20.8871 9.5 20.3541 9.5H15.6162C15.0831 9.5 14.4909 9.85535 14.254 10.3291L13.6025 11.6321C13.5433 11.6913 13.3656 11.8097 13.2472 11.8097H9.69372C8.68691 11.8097 7.91699 12.5797 7.91699 13.5865V24.2469C7.91699 25.2537 8.68691 26.0236 9.69372 26.0236H23.0591C23.0596 26.0228 23.0601 26.0221 23.0605 26.0214C23.2848 25.6439 23.2446 25.179 23.0007 24.8391H9.69372C9.33838 24.8391 9.10148 24.6022 9.10148 24.2469V13.5865C9.10148 13.2311 9.33838 12.9942 9.69372 12.9942H13.2472C13.7802 12.9942 14.3724 12.6389 14.6093 12.1059L15.2608 10.8029C15.32 10.7437 15.4977 10.6253 15.6162 10.6253H20.3541C20.4725 10.6253 20.6502 10.7437 20.7094 10.8622L21.3609 12.1651C21.5978 12.6389 22.1901 12.9942 22.7231 12.9942H26.2765C26.6319 12.9942 26.8688 13.2311 26.8688 13.5865V19.5762C26.991 19.5348 27.1204 19.5111 27.253 19.5075H28.0533Z" fill="white"/>
</g>
</svg>
