<svg width="31" height="31" viewBox="0 0 31 31" fill="none" xmlns="http://www.w3.org/2000/svg">
<rect width="31" height="31" rx="8" fill="#EDF4FF"/>
<mask id="mask0" mask-type="alpha" maskUnits="userSpaceOnUse" x="0" y="0" width="31" height="31">
<rect width="31" height="31" fill="#CAEDF3"/>
</mask>
<g mask="url(#mask0)">
<path d="M14.1151 19.4098C11.728 19.4098 9.81836 17.5002 9.81836 15.1131C9.81836 12.7261 11.728 10.8164 14.1151 10.8164C16.5021 10.8164 18.4118 12.7261 18.4118 15.1131C18.4118 17.5002 16.5021 19.4098 14.1151 19.4098ZM14.1151 11.7712C12.2532 11.7712 10.7732 13.2512 10.7732 15.1131C10.7732 16.975 12.2532 18.455 14.1151 18.455C15.977 18.455 17.457 16.975 17.457 15.1131C17.457 13.2512 15.977 11.7712 14.1151 11.7712Z" fill="#4164A9"/>
<path d="M18.8905 12.249C19.1542 12.249 19.3679 12.0353 19.3679 11.7716C19.3679 11.5079 19.1542 11.2942 18.8905 11.2942C18.6268 11.2942 18.4131 11.5079 18.4131 11.7716C18.4131 12.0353 18.6268 12.249 18.8905 12.249Z" fill="#4164A9"/>
<path d="M7.90918 8.90723H9.81883V9.38464H7.90918V8.90723Z" fill="#4164A9"/>
<path d="M14.1156 13.2037V12.7263C12.7788 12.7263 11.7285 13.7766 11.7285 15.1134H12.2059C12.2059 14.0631 13.0653 13.2037 14.1156 13.2037Z" fill="#4164A9"/>
<path d="M22.4807 17.1177C22.7031 17.1177 22.9045 17.2412 23.0157 17.4236C23.0698 17.5118 23.1058 17.6206 23.0968 17.7353C23.0908 17.8236 23.1179 17.9118 23.166 17.9941C23.3193 18.2441 23.6589 18.3383 23.9234 18.1971C24.221 18.0265 24.5967 18.1294 24.768 18.4206L24.9694 18.7677C25.1438 19.0589 25.0476 19.4324 24.747 19.6C24.4915 19.75 24.4013 20.0824 24.5546 20.3353C24.6027 20.4147 24.6568 20.4824 24.741 20.5236C24.8462 20.5794 24.9273 20.6677 24.9844 20.7559C25.0957 20.9383 25.0866 21.1618 24.9784 21.3589L24.768 21.7118C24.6568 21.9 24.4494 22.0177 24.236 22.0177C24.1308 22.0177 24.0136 21.9883 23.9174 21.9294C23.8393 21.8794 23.7491 21.8618 23.6529 21.8618C23.3553 21.8618 23.1058 22.1059 23.0968 22.3971C23.0968 22.7353 22.8203 23 22.4746 23H22.0659C21.7172 23 21.4407 22.7353 21.4407 22.3971C21.4346 22.1059 21.1852 21.8618 20.8876 21.8618C20.7884 21.8618 20.6982 21.8794 20.6231 21.9294C20.5269 21.9883 20.4067 22.0177 20.3045 22.0177C20.0881 22.0177 19.8807 21.9 19.7695 21.7118L19.5621 21.3589C19.4508 21.1677 19.4448 20.9383 19.5561 20.7559C19.6041 20.6677 19.6943 20.5794 19.7965 20.5236C19.8807 20.4824 19.9348 20.4147 19.9859 20.3353C20.1362 20.0824 20.046 19.75 19.7905 19.6C19.4929 19.4324 19.3967 19.0589 19.5681 18.7677L19.7695 18.4206C19.9438 18.1294 20.3165 18.0265 20.6171 18.1971C20.8786 18.3383 21.2182 18.2441 21.3715 17.9941C21.4196 17.9118 21.4467 17.8236 21.4407 17.7353C21.4346 17.6206 21.4677 17.5118 21.5248 17.4236C21.636 17.2412 21.8374 17.1236 22.0568 17.1177H22.4807ZM22.2733 19.2294C21.8014 19.2294 21.4196 19.6 21.4196 20.0618C21.4196 20.5236 21.8014 20.8912 22.2733 20.8912C22.7452 20.8912 23.1179 20.5236 23.1179 20.0618C23.1179 19.6 22.7452 19.2294 22.2733 19.2294Z" fill="#4164A9"/>
<path fill-rule="evenodd" clip-rule="evenodd" d="M22.2321 16.0671V11.2942C22.2321 10.4825 21.6114 9.86191 20.7998 9.86191H17.9353C17.8399 9.86191 17.6966 9.81417 17.6489 9.71869L17.1237 8.66838C16.9328 8.28645 16.4554 8 16.0257 8H12.2064C11.7767 8 11.2993 8.28645 11.1083 8.66838L10.5832 9.71869C10.5354 9.76643 10.3922 9.86191 10.2967 9.86191H7.43224C6.62064 9.86191 6 10.4825 6 11.2942V19.8876C6 20.6992 6.62064 21.3198 7.43224 21.3198H18.206C18.2064 21.3192 18.2068 21.3186 18.2072 21.318C18.3879 21.0137 18.3555 20.639 18.159 20.365H7.43224C7.14579 20.365 6.95483 20.174 6.95483 19.8876V11.2942C6.95483 11.0077 7.14579 10.8167 7.43224 10.8167H10.2967C10.7264 10.8167 11.2038 10.5303 11.3948 10.1006L11.9199 9.05031C11.9677 9.00257 12.1109 8.90709 12.2064 8.90709H16.0257C16.1212 8.90709 16.2644 9.00257 16.3121 9.09805L16.8373 10.1484C17.0283 10.5303 17.5057 10.8167 17.9353 10.8167H20.7998C21.0863 10.8167 21.2772 11.0077 21.2772 11.2942V16.1224C21.3757 16.0891 21.4799 16.07 21.5868 16.0671H22.2321Z" fill="#4164A9"/>
</g>
</svg>
