<svg width="31" height="31" viewBox="0 0 31 31" fill="none" xmlns="http://www.w3.org/2000/svg">
<rect width="31" height="31" rx="8" fill="#EDF4FF"/>
<mask id="mask0" mask-type="alpha" maskUnits="userSpaceOnUse" x="0" y="0" width="31" height="31">
<rect width="31" height="31" fill="#CAEDF3"/>
</mask>
<g mask="url(#mask0)">
<path d="M23.9494 23.3633H6.98376C5.95371 23.3633 5.16602 22.5756 5.16602 21.5455V10.6391C5.16602 9.60901 5.95371 8.82132 6.98376 8.82132H10.6193C10.7404 8.82132 10.9222 8.70014 10.9828 8.63954L11.6493 7.30653C11.8917 6.8218 12.4976 6.45825 13.0429 6.45825H17.8902C18.4356 6.45825 19.0415 6.8218 19.2838 7.30653L19.9503 8.63954C20.0109 8.76073 20.1927 8.82132 20.3139 8.82132H23.9494C24.9794 8.82132 25.7671 9.60901 25.7671 10.6391V21.5455C25.7671 22.5756 24.9794 23.3633 23.9494 23.3633ZM6.98376 10.0331C6.62021 10.0331 6.37785 10.2755 6.37785 10.6391V21.5455C6.37785 21.9091 6.62021 22.1514 6.98376 22.1514H23.9494C24.3129 22.1514 24.5553 21.9091 24.5553 21.5455V10.6391C24.5553 10.2755 24.3129 10.0331 23.9494 10.0331H20.3139C19.7686 10.0331 19.1627 9.6696 18.9203 9.18487L18.2538 7.85186C18.1932 7.73067 18.0114 7.60949 17.8902 7.60949H13.0429C12.9217 7.60949 12.74 7.73067 12.6794 7.79126L12.0129 9.12428C11.7705 9.6696 11.1646 10.0331 10.6193 10.0331H6.98376Z" fill="#4164A9"/>
<path d="M15.4659 20.9394C12.4364 20.9394 10.0127 18.5158 10.0127 15.4862C10.0127 12.4566 12.4364 10.033 15.4659 10.033C18.4955 10.033 20.9192 12.4566 20.9192 15.4862C20.9192 18.5158 18.4955 20.9394 15.4659 20.9394ZM15.4659 11.2448C13.1029 11.2448 11.2245 13.1231 11.2245 15.4862C11.2245 17.8493 13.1029 19.7276 15.4659 19.7276C17.829 19.7276 19.7073 17.8493 19.7073 15.4862C19.7073 13.1231 17.829 11.2448 15.4659 11.2448Z" fill="#4164A9"/>
<path d="M21.5268 11.851C21.8615 11.851 22.1327 11.5797 22.1327 11.2451C22.1327 10.9104 21.8615 10.6392 21.5268 10.6392C21.1922 10.6392 20.9209 10.9104 20.9209 11.2451C20.9209 11.5797 21.1922 11.851 21.5268 11.851Z" fill="#4164A9"/>
<path d="M7.58984 7.60962H10.0135V8.21553H7.58984V7.60962Z" fill="#4164A9"/>
<path d="M15.4671 13.0629V12.457C13.7705 12.457 12.4375 13.79 12.4375 15.4866H13.0434C13.0434 14.1536 14.1341 13.0629 15.4671 13.0629Z" fill="#4164A9"/>
</g>
</svg>
