<svg width="31" height="31" viewBox="0 0 31 31" fill="none" xmlns="http://www.w3.org/2000/svg">
<rect width="31" height="31" rx="8" fill="#EDF4FF"/>
<mask id="mask0" mask-type="alpha" maskUnits="userSpaceOnUse" x="0" y="0" width="31" height="31">
<rect width="31" height="31" fill="#CAEDF3"/>
</mask>
<g mask="url(#mask0)">
<path d="M19.1293 18.3851C19.6958 18.0808 20.7381 16.8039 20.7381 16.8039C20.0199 16.1594 19.5501 16.0666 18.6611 15.6914C18.6518 15.6867 18.6424 15.6844 18.633 15.6797C20.0867 14.6239 21.0324 12.9081 21.0324 10.9721C21.0324 7.76513 18.4387 5.16675 15.2387 5.16675C12.0387 5.16675 9.44738 7.76513 9.44738 10.9721C9.44738 12.9081 10.3931 14.6239 11.8491 15.6797C11.8398 15.6844 11.8304 15.6867 11.821 15.6914C10.7747 16.1338 9.83597 16.7682 9.02836 17.5781C8.22542 18.3796 7.58617 19.3297 7.14629 20.3755C6.71349 21.3995 6.47991 22.4967 6.45807 23.6083C6.45744 23.6332 6.46182 23.6581 6.47095 23.6814C6.48009 23.7046 6.49378 23.7258 6.51123 23.7437C6.52869 23.7616 6.54954 23.7758 6.57257 23.7855C6.59561 23.7952 6.62035 23.8002 6.64534 23.8002H8.04753C8.14819 23.8002 8.23246 23.7183 8.2348 23.6176C8.28162 21.8105 9.00495 20.118 10.2854 18.8352C11.608 17.5079 13.3684 16.7775 15.2411 16.7775C16.5684 16.7775 17.8418 17.6899 18.9397 18.3781C18.9679 18.3958 19.0003 18.4058 19.0335 18.407C19.0668 18.4082 19.0999 18.4007 19.1293 18.3851ZM15.2411 14.9985C14.169 14.9985 13.16 14.5795 12.3992 13.8187C12.0249 13.4453 11.7282 13.0016 11.5261 12.5131C11.324 12.0245 11.2206 11.5008 11.2218 10.9721C11.2218 9.89768 11.6408 8.88642 12.3992 8.12563C13.1577 7.36484 14.1666 6.94582 15.2411 6.94582C16.3155 6.94582 17.3221 7.36484 18.0829 8.12563C18.4572 8.49898 18.754 8.9427 18.9561 9.43124C19.1581 9.91978 19.2616 10.4435 19.2604 10.9721C19.2604 12.0466 18.8414 13.0579 18.0829 13.8187C17.3221 14.5795 16.3132 14.9985 15.2411 14.9985Z" fill="#4164A9"/>
<path fill-rule="evenodd" clip-rule="evenodd" d="M24.1645 14.6958L18.3603 20.5C18.2735 20.5866 18.2166 20.6985 18.1978 20.8196L17.7918 23.4655C17.7781 23.5548 17.7856 23.6462 17.8138 23.7321C17.8419 23.818 17.8899 23.8961 17.9538 23.96C18.0178 24.0239 18.0958 24.0719 18.1818 24.1001C18.2677 24.1282 18.359 24.1357 18.4484 24.122L21.0948 23.716C21.2158 23.6974 21.3278 23.6407 21.4144 23.5542L27.2187 17.7499C27.3266 17.6419 27.3873 17.4955 27.3873 17.3427C27.3873 17.19 27.3266 17.0436 27.2187 16.9356L24.9783 14.6952C24.8703 14.5874 24.724 14.5269 24.5714 14.5269C24.4188 14.5269 24.2725 14.5874 24.1645 14.6952V14.6958ZM19.0496 22.8648L19.3077 21.1808L24.5717 15.9167L25.9971 17.3427L20.7331 22.6068L19.0496 22.8648Z" fill="#4164A9"/>
<path d="M23.1533 17.0151L23.7638 16.4041L25.631 18.2701L25.0199 18.8811L23.1533 17.0151Z" fill="#4164A9"/>
</g>
</svg>
