<svg width="38" height="38" viewBox="0 0 38 38" fill="none" xmlns="http://www.w3.org/2000/svg">
<rect width="38" height="38" rx="8" fill="transparent"/>
<path d="M21.0865 22.6515C21.6715 22.3372 22.7479 21.0185 22.7479 21.0185C22.0063 20.3529 21.5211 20.257 20.6029 19.8695C20.5933 19.8646 20.5836 19.8622 20.5739 19.8574C22.0752 18.767 23.052 16.995 23.052 14.9956C23.052 11.6835 20.3733 9 17.0684 9C13.7636 9 11.0873 11.6835 11.0873 14.9956C11.0873 16.995 12.064 18.767 13.5678 19.8574C13.5581 19.8622 13.5484 19.8646 13.5388 19.8695C12.4581 20.3264 11.4886 20.9816 10.6546 21.818C9.82532 22.6458 9.16513 23.627 8.71083 24.7071C8.26385 25.7647 8.02262 26.8978 8.00006 28.0457C7.99942 28.0715 8.00394 28.0972 8.01337 28.1212C8.0228 28.1453 8.03695 28.1672 8.05497 28.1856C8.07299 28.2041 8.09453 28.2188 8.11832 28.2288C8.14211 28.2388 8.16766 28.244 8.19347 28.244H9.6416C9.74556 28.244 9.83259 28.1594 9.83501 28.0554C9.88336 26.189 10.6304 24.4411 11.9528 23.1163C13.3188 21.7455 15.1368 20.9912 17.0708 20.9912C18.4416 20.9912 19.7568 21.9334 20.8906 22.6442C20.9198 22.6625 20.9532 22.6728 20.9876 22.6741C21.0219 22.6754 21.0561 22.6675 21.0865 22.6515ZM17.0708 19.1539C15.9636 19.1539 14.9216 18.7211 14.1359 17.9354C13.7493 17.5498 13.4428 17.0916 13.2341 16.587C13.0254 16.0825 12.9186 15.5416 12.9198 14.9956C12.9198 13.8859 13.3526 12.8415 14.1359 12.0558C14.9192 11.2701 15.9612 10.8374 17.0708 10.8374C18.1805 10.8374 19.2201 11.2701 20.0058 12.0558C20.3924 12.4414 20.6988 12.8997 20.9076 13.4042C21.1163 13.9088 21.2231 14.4496 21.2218 14.9956C21.2218 16.1053 20.7891 17.1497 20.0058 17.9354C19.2201 18.7211 18.1781 19.1539 17.0708 19.1539Z" fill="white"/>
<path fill-rule="evenodd" clip-rule="evenodd" d="M26.2866 18.8412L20.2922 24.8356C20.2026 24.925 20.1438 25.0406 20.1244 25.1657L19.7051 27.8982C19.691 27.9905 19.6987 28.0849 19.7278 28.1736C19.7569 28.2623 19.8064 28.3429 19.8725 28.409C19.9385 28.475 20.0191 28.5245 20.1078 28.5536C20.1966 28.5827 20.2909 28.5905 20.3832 28.5763L23.1163 28.157C23.2413 28.1378 23.3569 28.0792 23.4464 27.9898L29.4408 21.9954C29.5523 21.8839 29.615 21.7326 29.615 21.5749C29.615 21.4172 29.5523 21.2659 29.4408 21.1544L27.127 18.8406C27.0155 18.7293 26.8644 18.6667 26.7068 18.6667C26.5492 18.6667 26.3981 18.7293 26.2866 18.8406V18.8412ZM21.0042 27.2779L21.2706 25.5387L26.7071 20.1022L28.1793 21.5749L22.7428 27.0114L21.0042 27.2779V27.2779Z" fill="white"/>
<path d="M25.2422 21.2363L25.8727 20.6052L27.801 22.5324L27.1699 23.1635L25.2422 21.2363Z" fill="white"/>
</svg>
