<svg width="53" height="56" viewBox="0 0 53 56" fill="none" xmlns="http://www.w3.org/2000/svg">
<path d="M41.4427 43.126H18.4689C18.0126 43.126 17.6426 43.4964 17.6426 43.9527C17.6426 44.409 18.0126 44.779 18.4689 44.779H41.4423C41.899 44.779 42.269 44.409 42.269 43.9527C42.269 43.4964 41.899 43.126 41.4427 43.126Z" fill="#4164A9"/>
<path d="M41.4427 37.3203H18.4689C18.0126 37.3203 17.6426 37.6903 17.6426 38.1466C17.6426 38.6033 18.0126 38.9733 18.4689 38.9733H41.4423C41.899 38.9733 42.269 38.6033 42.269 38.1466C42.269 37.6903 41.899 37.3203 41.4427 37.3203Z" fill="#4164A9"/>
<path d="M17.6426 32.338C17.6426 32.7947 18.0126 33.1647 18.4689 33.1647H33.088C33.5447 33.1647 33.9147 32.7947 33.9147 32.338C33.9147 31.8817 33.5447 31.5117 33.088 31.5117H18.4689C18.0126 31.5117 17.6426 31.8817 17.6426 32.338Z" fill="#4164A9"/>
<path d="M50.1664 10.8427L48.6761 9.2251V3.43976C48.6761 1.54321 47.1287 0 45.2261 0H8.25696C6.35443 0 4.80695 1.54321 4.80695 3.43976V9.96552H3.29535C1.47827 9.96552 0 11.4446 0 13.2626V23.2682C0 25.0862 1.47827 26.5653 3.29535 26.5653H4.80695V49.6216C4.80695 51.5182 6.35443 53.0614 8.25696 53.0614H10.1454C10.3488 54.7153 11.7617 56 13.4702 56H49.0376C50.8871 56 52.3915 54.4974 52.3915 52.6504V16.948C52.3915 14.0261 52.3035 13.166 50.1664 10.8427ZM50.7043 15.2471H44.5126C43.5748 15.2471 42.8118 14.4862 42.8118 13.5514L42.8173 6.36383C43.9042 6.44458 44.1943 6.76587 45.1471 7.82544C45.3052 8.00146 45.4778 8.19287 45.6696 8.40137L47.2496 10.1163C47.2551 10.1223 47.2607 10.1287 47.2667 10.1347L48.95 11.962C50.2625 13.389 50.6116 13.988 50.7043 15.2471ZM6.45996 3.43976C6.45996 2.45453 7.26617 1.65302 8.25696 1.65302H45.2261C46.2169 1.65302 47.0231 2.45453 47.0231 3.43976V7.43066L46.8856 7.28113C46.698 7.07819 46.5305 6.89148 46.3767 6.72015C45.0181 5.20941 44.4242 4.68689 41.9923 4.68689H41.9919H13.4702C11.6224 4.68689 10.1193 6.18951 10.1193 8.0365V9.96552H6.45996V3.43976ZM50.7385 52.6504C50.7385 53.5856 49.9754 54.347 49.0376 54.347H13.4702C12.5341 54.347 11.7723 53.5861 11.7723 52.6504V40.673C11.7723 40.2167 11.4023 39.8467 10.9456 39.8467C10.4893 39.8467 10.1193 40.2167 10.1193 40.673V51.4084H8.25696C7.26617 51.4084 6.45996 50.6069 6.45996 49.6221V26.5653H10.1193V36.8884C10.1193 37.3447 10.4893 37.7147 10.9456 37.7147C11.4023 37.7147 11.7723 37.3447 11.7723 36.8884V26.5653H16.0627C16.519 26.5653 16.889 26.1953 16.889 25.7386C16.889 25.2823 16.519 24.9123 16.0627 24.9123H3.29535C2.38959 24.9123 1.65302 24.1749 1.65302 23.2682V13.2626C1.65302 12.356 2.38959 11.6185 3.29535 11.6185H25.0623C25.9693 11.6185 26.7076 12.356 26.7076 13.2626V23.2682C26.7076 24.1749 25.9693 24.9123 25.0623 24.9123H19.8494C19.3927 24.9123 19.0227 25.2823 19.0227 25.7386C19.0227 26.1953 19.3927 26.5653 19.8494 26.5653H25.0623C26.881 26.5653 28.3606 25.0862 28.3606 23.2682V13.2626C28.3606 11.4446 26.881 9.96552 25.0623 9.96552H11.7723V8.0365C11.7723 7.10083 12.5341 6.3399 13.4702 6.3399H41.1643L41.1588 13.551C41.1588 15.3979 42.6635 16.9006 44.5126 16.9006H50.7385V16.948V52.6504Z" fill="#4164A9"/>
<path d="M8.27405 14.7261H6.29419C6.05109 14.7261 5.8443 14.8111 5.67426 14.9816C5.50421 15.1516 5.41919 15.3614 5.41919 15.6113V21.4646C5.41919 21.7077 5.5025 21.9124 5.66913 22.079C5.83575 22.246 6.034 22.3293 6.263 22.3293C6.49243 22.3293 6.69025 22.246 6.85687 22.079C7.02393 21.9124 7.10724 21.7145 7.10724 21.4855V19.7881H8.3783C9.14948 19.7881 9.7677 19.5574 10.233 19.0955C10.6982 18.6337 10.9311 18.0278 10.9311 17.278C10.9311 16.5214 10.6846 15.9066 10.1915 15.4344C9.69806 14.9623 9.0589 14.7261 8.27405 14.7261ZM8.88885 18.0069C8.68719 18.2086 8.45135 18.309 8.18048 18.309H7.10724V16.2364H8.19073C8.47571 16.2364 8.71326 16.3389 8.90466 16.5436C9.09564 16.7487 9.19092 16.9969 9.19092 17.2883C9.19092 17.566 9.09052 17.8057 8.88885 18.0069Z" fill="#4164A9"/>
<path d="M17.8581 16.7098C17.6116 16.1719 17.2659 15.7395 16.8216 15.4131C16.2034 14.9619 15.4044 14.7363 14.4252 14.7363H12.685C12.4415 14.7363 12.2368 14.8231 12.0702 14.9965C11.9031 15.1704 11.8198 15.3682 11.8198 15.5904V21.3915C11.8198 21.6415 11.8997 21.8461 12.0595 22.0059C12.233 22.1589 12.4449 22.2349 12.6953 22.2349H14.5709C15.5847 22.2349 16.3978 21.9606 17.0092 21.412C17.8218 20.6695 18.2281 19.6868 18.2281 18.4649C18.2281 17.833 18.1046 17.2481 17.8581 16.7098ZM15.9462 20.1C15.5847 20.5097 15.1058 20.7144 14.5081 20.7144H13.5079V16.2672H14.4145C15.0536 16.2672 15.5591 16.465 15.9308 16.861C16.3021 17.2567 16.4879 17.7911 16.4879 18.4649C16.4879 19.1455 16.3072 19.6902 15.9462 20.1Z" fill="#4164A9"/>
<path d="M20.1689 22.3503C20.4048 22.3503 20.6047 22.2666 20.7679 22.1C20.9312 21.9333 21.0128 21.7355 21.0128 21.5065V19.2673H22.6175C22.8469 19.2673 23.0379 19.193 23.1904 19.0435C23.3434 18.8943 23.4199 18.7153 23.4199 18.5068C23.4199 18.2919 23.3417 18.1095 23.1853 17.9604C23.0289 17.8113 22.8397 17.7365 22.6175 17.7365H21.0128V16.2676H22.9093C23.1246 16.2676 23.3054 16.1916 23.451 16.0386C23.5972 15.8861 23.6698 15.7088 23.6698 15.5076C23.6698 15.2854 23.5955 15.0995 23.4459 14.9504C23.2964 14.8009 23.1178 14.7266 22.9093 14.7266H20.1792C19.9361 14.7266 19.731 14.8133 19.5644 14.9868C19.3978 15.1606 19.3145 15.3619 19.3145 15.5909V21.5065C19.3145 21.736 19.4012 21.9338 19.5751 22.1004C19.7485 22.2666 19.9464 22.3503 20.1689 22.3503Z" fill="#4164A9"/>
</svg>
