<svg width="14" height="14" viewBox="0 0 14 14" fill="none" xmlns="http://www.w3.org/2000/svg">
<ellipse cx="2.33333" cy="7" rx="2.33333" ry="2.8" fill="#A2A2A2"/>
<ellipse cx="11.6667" cy="2.8" rx="2.33333" ry="2.8" fill="#55F25D"/>
<ellipse cx="11.6667" cy="11.2" rx="2.33333" ry="2.8" fill="#29B6F6"/>
<path d="M5.4472 6.29021C5.32158 5.90929 5.46614 5.40476 5.76978 5.16436L8.2744 3.18141C8.54443 2.96762 8.85411 3.05704 8.97894 3.38485V3.38485C9.11018 3.72952 8.98818 4.20644 8.70827 4.4429L6.23906 6.5288C5.93379 6.78668 5.5753 6.67867 5.4472 6.29021V6.29021Z" fill="#D9D9D9"/>
<path d="M5.42722 7.77035C5.56251 7.36012 5.95237 7.2683 6.2612 7.57393L8.77058 10.0573C9.02231 10.3065 9.12216 10.7514 8.99895 11.075V11.075C8.86634 11.4233 8.52752 11.4983 8.25213 11.2403L5.7014 8.85128C5.42889 8.59604 5.30979 8.12647 5.42722 7.77035V7.77035Z" fill="#D9D9D9"/>
</svg>
