<svg width="31" height="31" viewBox="0 0 31 31" fill="none" xmlns="http://www.w3.org/2000/svg">
<rect width="31" height="31" rx="8" fill="#4164A9"/>
<mask id="mask0_12719_3391" style="mask-type:alpha" maskUnits="userSpaceOnUse" x="0" y="0" width="31" height="31">
<rect width="31" height="31" fill="#CAEDF3"/>
</mask>
<g mask="url(#mask0_12719_3391)">
<mask id="mask1_12719_3391" style="mask-type:alpha" maskUnits="userSpaceOnUse" x="5" y="5" width="20" height="20">
<rect x="5" y="5" width="20" height="20" fill="#C4C4C4"/>
</mask>
<g mask="url(#mask1_12719_3391)">
<path d="M21.6667 15.8333H8.33333C7.875 15.8333 7.5 16.2083 7.5 16.6667V21.6667C7.5 22.125 7.875 22.5 8.33333 22.5H21.6667C22.125 22.5 22.5 22.125 22.5 21.6667V16.6667C22.5 16.2083 22.125 15.8333 21.6667 15.8333ZM10.8333 20.8333C9.91667 20.8333 9.16667 20.0833 9.16667 19.1667C9.16667 18.25 9.91667 17.5 10.8333 17.5C11.75 17.5 12.5 18.25 12.5 19.1667C12.5 20.0833 11.75 20.8333 10.8333 20.8333ZM21.6667 7.5H8.33333C7.875 7.5 7.5 7.875 7.5 8.33333V13.3333C7.5 13.7917 7.875 14.1667 8.33333 14.1667H21.6667C22.125 14.1667 22.5 13.7917 22.5 13.3333V8.33333C22.5 7.875 22.125 7.5 21.6667 7.5ZM10.8333 12.5C9.91667 12.5 9.16667 11.75 9.16667 10.8333C9.16667 9.91667 9.91667 9.16667 10.8333 9.16667C11.75 9.16667 12.5 9.91667 12.5 10.8333C12.5 11.75 11.75 12.5 10.8333 12.5Z" fill="white"/>
</g>
</g>
</svg>
