<svg width="31" height="31" viewBox="0 0 31 31" fill="none" xmlns="http://www.w3.org/2000/svg">
<rect width="31" height="31" rx="8" fill="#EDF4FF"/>
<mask id="mask0" mask-type="alpha" maskUnits="userSpaceOnUse" x="0" y="0" width="31" height="31">
<rect width="31" height="31" fill="#CAEDF3"/>
</mask>
<g mask="url(#mask0)">
<mask id="path-3-inside-1" fill="white">
<rect x="7.75" y="6.45825" width="15.5" height="11.625" rx="0.580646"/>
</mask>
<rect x="7.75" y="6.45825" width="15.5" height="11.625" rx="0.580646" stroke="#4164A9" stroke-width="2" mask="url(#path-3-inside-1)"/>
<mask id="path-4-inside-2" fill="white">
<path d="M6.45801 16.8353C6.45801 16.7952 6.4905 16.7627 6.53059 16.7627H25.0061V18.354C25.0061 19.1825 24.3345 19.854 23.5061 19.854H7.95801C7.12958 19.854 6.45801 19.1825 6.45801 18.354V16.8353Z"/>
</mask>
<path d="M6.45801 16.8353C6.45801 16.7952 6.4905 16.7627 6.53059 16.7627H25.0061V18.354C25.0061 19.1825 24.3345 19.854 23.5061 19.854H7.95801C7.12958 19.854 6.45801 19.1825 6.45801 18.354V16.8353Z" stroke="#4164A9" stroke-width="2" mask="url(#path-4-inside-2)"/>
<circle cx="15.6206" cy="11.8806" r="3.86589" stroke="#4164A9" stroke-width="0.57"/>
<path d="M16.7935 10.9455C16.7935 11.6142 16.2514 12.1563 15.5827 12.1563C14.914 12.1563 14.3719 11.6142 14.3719 10.9455C14.3719 10.2768 14.914 9.73471 15.5827 9.73471C16.2514 9.73471 16.7935 10.2768 16.7935 10.9455Z" stroke="#4164A9" stroke-width="0.57"/>
<path d="M17.3267 23.8856C17.3267 24.7665 16.6127 25.4805 15.7318 25.4805C14.851 25.4805 14.1369 24.7665 14.1369 23.8856C14.1369 23.0048 14.851 22.2907 15.7318 22.2907C16.6127 22.2907 17.3267 23.0048 17.3267 23.8856Z" stroke="#4164A9" stroke-width="0.931969"/>
<path d="M15.7512 18.8237V22.787M17.0132 23.976H25.0061M14.4891 23.976H6.45801" stroke="#4164A9"/>
<path fill-rule="evenodd" clip-rule="evenodd" d="M15.6351 12.1201C14.9206 12.1014 14.2256 12.3549 13.691 12.8294C13.1563 13.3039 12.8221 13.9639 12.7559 14.6756L13.3234 14.7284C13.3762 14.1607 13.6429 13.6342 14.0693 13.2557C14.4958 12.8772 15.0502 12.675 15.6202 12.6899C16.1902 12.7049 16.7332 12.9359 17.1392 13.3363C17.5567 13.748 17.772 14.1567 17.7943 14.7117L18.3639 14.6888C18.3345 13.9598 18.0369 13.421 17.5394 12.9304C17.0304 12.4285 16.3497 12.1389 15.6351 12.1201Z" fill="#4164A9"/>
</g>
</svg>
