<?xml version="1.0" standalone="no"?>
<!DOCTYPE svg PUBLIC "-//W3C//DTD SVG 1.1//EN" "http://www.w3.org/Graphics/SVG/1.1/DTD/svg11.dtd" >
<svg xmlns="http://www.w3.org/2000/svg">
<metadata>Generated by IcoMoon</metadata>
<defs>
<font id="klovercloud-icon" horiz-adv-x="1024">
<font-face units-per-em="1024" ascent="960" descent="-64" />
<missing-glyph horiz-adv-x="1024" />
<glyph unicode="&#x20;" horiz-adv-x="512" d="" />
<glyph unicode="&#xe900;" glyph-name="package" d="M853.34 618.671v68.266c-0.058 47.104-38.229 85.276-85.337 85.334h-511.999c-47.104-0.056-85.276-38.228-85.334-85.334v-68.266c0.076-26.963 12.938-52.293 34.662-68.267-21.726-15.971-34.586-41.301-34.662-68.263v-68.267c0.076-26.965 12.938-52.296 34.662-68.267-21.726-15.971-34.586-41.301-34.662-68.267v-68.267c0.056-47.104 38.228-85.275 85.334-85.333h511.999c47.104 0.058 85.279 38.229 85.337 85.333v68.267c-0.079 26.965-12.94 52.296-34.662 68.267 21.726 15.971 34.584 41.301 34.662 68.267v68.267c-0.079 26.962-12.94 52.292-34.662 68.263 21.722 15.974 34.584 41.305 34.662 68.267zM819.203 277.34v-68.267c0-28.276-22.924-51.2-51.2-51.2h-511.999c-28.276 0-51.2 22.924-51.2 51.2v68.267c0 28.276 22.922 51.2 51.2 51.2h511.999c28.279 0 51.2-22.924 51.2-51.2zM819.203 482.14v-68.267c0-28.276-22.924-51.2-51.2-51.2h-511.999c-28.276 0-51.2 22.924-51.2 51.2v68.267c0 28.276 22.922 51.2 51.2 51.2h511.999c28.279 0 51.2-22.924 51.2-51.2zM819.203 618.671c0-28.277-22.924-51.201-51.2-51.201h-511.999c-28.276 0-51.2 22.924-51.2 51.201v68.266c0 28.276 22.922 51.2 51.2 51.2h511.999c28.276 0 51.2-22.922 51.2-51.2v-68.266zM716.8 669.858h-34.133c-9.428 0-17.067-7.642-17.067-17.066 0-9.426 7.642-17.066 17.067-17.066h34.133c9.428 0 17.067 7.642 17.067 17.066 0 9.426-7.639 17.066-17.067 17.066zM614.4 669.858h-34.133c-9.428 0-17.067-7.642-17.067-17.066 0-9.426 7.639-17.066 17.067-17.066h34.133c9.428 0 17.067 7.642 17.067 17.066 0 9.426-7.639 17.066-17.067 17.066zM324.271 704c-28.276 0-51.2-22.922-51.2-51.2 0-28.276 22.924-51.2 51.2-51.2s51.199 22.922 51.199 51.2c0 28.276-22.921 51.2-51.199 51.2zM324.271 635.734c-9.426 0-17.066 7.642-17.066 17.066 0 9.426 7.64 17.066 17.066 17.066s17.066-7.642 17.066-17.066c0.003-9.426-7.64-17.066-17.066-17.066zM716.8 465.070h-34.133c-9.428 0-17.067-7.639-17.067-17.067 0-9.424 7.642-17.063 17.067-17.063h34.133c9.428 0 17.067 7.639 17.067 17.063 0 9.428-7.639 17.067-17.067 17.067zM614.4 465.070h-34.133c-9.428 0-17.067-7.639-17.067-17.067 0-9.424 7.639-17.063 17.067-17.063h34.133c9.428 0 17.067 7.639 17.067 17.063 0 9.428-7.639 17.067-17.067 17.067zM324.271 499.2c-28.276 0-51.2-22.921-51.2-51.2 0-28.276 22.924-51.2 51.2-51.2s51.199 22.924 51.199 51.2c0 28.276-22.921 51.2-51.199 51.2zM324.271 430.933c-9.426 0-17.066 7.639-17.066 17.067s7.64 17.067 17.066 17.067c9.426 0 17.066-7.639 17.066-17.067 0.003-9.428-7.64-17.067-17.066-17.067zM716.8 260.27h-34.133c-9.428 0-17.067-7.639-17.067-17.067 0-9.424 7.642-17.063 17.067-17.063h34.133c9.428 0 17.067 7.639 17.067 17.063 0 9.428-7.639 17.067-17.067 17.067zM614.4 260.27h-34.133c-9.428 0-17.067-7.639-17.067-17.067 0-9.424 7.639-17.063 17.067-17.063h34.133c9.428 0 17.067 7.639 17.067 17.063 0 9.428-7.639 17.067-17.067 17.067zM324.271 294.4c-28.276 0-51.2-22.924-51.2-51.2s22.924-51.2 51.2-51.2c28.275 0 51.199 22.921 51.199 51.2s-22.921 51.2-51.199 51.2zM324.271 226.133c-9.426 0-17.066 7.639-17.066 17.067s7.64 17.067 17.066 17.067c9.426 0 17.066-7.639 17.066-17.067s-7.64-17.067-17.066-17.067zM1024 448.007c-0.068 1.748-0.413 3.478-1.024 5.12 0.56 1.604 0.87 3.284 0.922 4.983-0.348 17.64-1.591 35.253-3.717 52.77-1.263 9.25-9.718 15.773-18.985 14.636-9.267-1.133-15.903-9.503-14.892-18.784 1.973-16.36 3.113-32.812 3.413-49.289 0.119-1.625 0.468-3.222 1.041-4.745-0.519-1.516-0.819-3.096-0.887-4.693-0.16-177.964-99.12-341.118-256.87-423.492l16.708 41.66c3.516 8.748-0.724 18.688-9.472 22.204-8.745 3.516-18.688-0.727-22.204-9.472l-30.123-75.093c-55.968-22.275-115.664-33.703-175.906-33.673-16.483 0.007-32.956 0.843-49.353 2.509-9.196 0.635-17.237-6.147-18.159-15.319s5.605-17.422 14.746-18.627c17.531-1.795 35.147-2.697 52.77-2.697 63.205-0.024 125.863 11.721 184.764 34.645l84.89-17.237c1.126-0.232 2.266-0.348 3.413-0.345 8.769-0.007 16.118 6.629 16.998 15.353 0.884 8.724-4.99 16.698-13.582 18.439l-38.779 7.871c168.506 88.429 274.125 262.967 274.289 453.274zM958.618 618.363c5.868-15.387 10.933-31.068 15.172-46.985 2.42-9.11 11.773-14.531 20.883-12.107s14.531 11.773 12.107 20.883c-4.55 17.063-9.984 33.881-16.282 50.379-3.509 8.58-13.223 12.792-21.886 9.486-8.66-3.308-13.097-12.922-9.994-21.657zM930.97 678.025c4.628-8.078 14.879-10.956 23.037-6.468s11.213 14.686 6.868 22.92c-8.52 15.464-17.828 30.48-27.887 44.988-3.434 5.114-9.356 7.982-15.497 7.504-6.144-0.48-11.551-4.23-14.148-9.816s-1.987-12.138 1.604-17.144c9.38-13.542 18.067-27.556 26.023-41.984zM733.87 871.391c14.565-7.682 28.73-16.094 42.445-25.208 7.868-5.218 18.473-3.070 23.689 4.796 5.219 7.866 3.069 18.472-4.796 23.688-14.701 9.78-29.901 18.792-45.534 27-5.407 2.822-11.913 2.546-17.060-0.726s-8.161-9.042-7.902-15.138c0.259-6.096 3.751-11.59 9.158-14.412zM626.21 912.21c16.002-3.946 31.788-8.726 47.292-14.318 5.769-2.18 12.261-1.080 16.988 2.876 4.731 3.956 6.956 10.156 5.827 16.216s-5.441 11.040-11.278 13.028c-16.62 5.968-33.536 11.068-50.688 15.274-6.065 1.916-12.691 0.298-17.193-4.194s-6.134-11.116-4.229-17.186c1.901-6.070 7.021-10.578 13.281-11.696zM828.498 805.907c12.346-10.924 24.125-22.472 35.294-34.594 3.246-3.48 7.803-5.436 12.561-5.394 6.738 0.038 12.82 4.032 15.531 10.198s1.543 13.35-2.987 18.338c-11.95 12.984-24.556 25.352-37.765 37.052-7.072 6.25-17.869 5.584-24.119-1.484s-5.584-17.866 1.485-24.116zM93.029 217.972c-4.628 8.079-14.878 10.957-23.036 6.468-8.158-4.485-11.212-14.684-6.866-22.917 8.518-15.466 17.826-30.481 27.886-44.991 3.434-5.113 9.356-7.98 15.498-7.503 6.142 0.481 11.548 4.229 14.146 9.817 2.598 5.584 1.986 12.138-1.604 17.142-9.38 13.544-18.068 27.559-26.024 41.984zM22.836 370.261c9.354 1.147 16.010 9.66 14.866 19.012-1.974 16.36-3.114 32.812-3.414 49.289-0.116 1.635-0.466 3.243-1.042 4.779 0.522 1.502 0.82 3.072 0.888 4.659 0.16 177.962 99.122 341.116 256.87 423.492l-16.708-41.66c-3.516-8.748 0.724-18.688 9.472-22.204s18.688 0.724 22.204 9.472l30.122 75.094c55.968 22.276 115.668 33.702 175.906 33.672 16.483-0.006 32.959-0.842 49.357-2.508 0.567-0.066 1.137-0.1 1.707-0.102 9.12-0.078 16.691 7.034 17.186 16.144 0.492 9.11-6.267 16.996-15.346 17.904-17.575 1.798-35.232 2.698-52.903 2.696-63.205 0.024-125.863-11.724-184.764-34.646l-84.89 17.238c-9.238 1.886-18.254-4.074-20.138-13.312-1.886-9.238 4.074-18.254 13.312-20.138l38.776-7.868c-168.512-88.43-274.132-262.968-274.296-453.274 0.070-1.751 0.416-3.478 1.024-5.12-0.558-1.604-0.87-3.287-0.922-4.983 0.35-17.644 1.592-35.253 3.72-52.77 1.042-8.554 8.296-14.988 16.914-15.002 0.702 0.003 1.402 0.048 2.1 0.137zM397.786-16.145c-16.002 3.925-31.785 8.68-47.292 14.251-8.82 3.004-18.416-1.621-21.564-10.387-3.15-8.765 1.314-18.439 10.026-21.733 16.621-5.97 33.537-11.069 50.689-15.275 1.331-0.331 2.703-0.498 4.076-0.495 8.629 0.010 15.892 6.455 16.927 15.019 1.038 8.567-4.485 16.558-12.861 18.62zM195.497 90.013c-12.344 10.916-24.124 22.449-35.294 34.56-4.080 4.676-10.376 6.772-16.444 5.468s-10.95-5.799-12.75-11.738c-1.8-5.939-0.234-12.387 4.088-16.838 11.952-12.984 24.558-25.354 37.768-37.052 7.070-6.253 17.866-5.584 24.116 1.481 6.25 7.072 5.586 17.869-1.484 24.119zM63.5 261.782c3.184 4.625 3.888 10.523 1.884 15.77v0.085c-5.868 15.391-10.932 31.072-15.172 46.985-2.422 9.11-11.772 14.534-20.88 12.107-9.11-2.42-14.532-11.769-12.108-20.879 4.548-17.094 9.982-33.939 16.282-50.466 2.52-6.612 8.862-10.988 15.94-10.988 5.614-0.003 10.87 2.761 14.054 7.386zM290.135 24.617c-14.564 7.68-28.73 16.094-42.444 25.207-5.088 3.372-11.59 3.779-17.058 1.058-5.466-2.72-9.068-8.148-9.446-14.24-0.378-6.096 2.522-11.93 7.61-15.302 14.702-9.779 29.9-18.794 45.534-26.999 5.408-2.826 11.912-2.546 17.060 0.724 5.15 3.273 8.162 9.042 7.902 15.138-0.258 6.096-3.75 11.588-9.158 14.415z" />
<glyph unicode="&#xe901;" glyph-name="cpu" horiz-adv-x="990" d="M483.546 789.121c-0.007 0-0.014 0-0.020 0-10.554 0-20.77 1.444-30.491 4.098v-77.986h61.027v77.996c-9.731-2.66-19.954-4.106-30.515-4.108zM84.58 687.605v85.738h241.172l-0.042-58.11h61.068v88.624c0 16.852-13.664 30.514-30.515 30.514h-302.199c-16.852 0-30.514-13.662-30.514-30.514v-116.74c9.986 2.812 20.5 4.348 31.372 4.348 10.25 0 20.188-1.352 29.658-3.86zM483.523 850.152c30.334 0 54.924 24.59 54.924 54.924s-24.59 54.924-54.924 54.924c-30.331 0-54.924-24.59-54.924-54.924s24.593-54.924 54.924-54.924zM483.516 106.878h0.020c10.551 0 20.77-1.444 30.491-4.099v77.896h-61.027v-77.906c9.728 2.659 19.954 4.106 30.515 4.11zM882.483 208.394v-85.736h-241.172v58.016h-61.027v-88.532c0-16.852 13.66-30.515 30.515-30.515h302.199c16.852 0 30.512 13.664 30.512 30.515v116.739c-9.984-2.813-20.5-4.349-31.372-4.349-10.247 0-20.183 1.352-29.655 3.86zM325.75 122.655h-241.172v85.736c-9.472-2.509-19.408-3.86-29.656-3.86-10.872 0-21.386 1.536-31.372 4.349v-116.739c0-16.852 13.662-30.515 30.514-30.515h302.199c16.852 0 30.515 13.664 30.515 30.515v88.532h-61.028v-58.016zM483.523-64.003c30.334 0 54.924 24.593 54.924 54.924 0 30.334-24.59 54.924-54.924 54.924-30.331 0-54.924-24.59-54.924-54.924 0-30.331 24.593-54.924 54.924-54.924zM798.164 596.589c-5.54 5.652-13.247 9.168-21.787 9.168h-25.542v-61.027h25.545c8.581 0 16.323 3.553 21.866 9.257 5.345 5.495 8.649 12.984 8.649 21.258-0.003 8.311-3.338 15.841-8.731 21.344zM776.376 478.471h-25.542v-61.027h25.545c16.852 0 30.515 13.66 30.515 30.512-0.003 16.852-13.667 30.515-30.519 30.515zM750.834 351.181v-61.030h25.545c8.547 0 16.261 3.523 21.801 9.182 5.383 5.502 8.714 13.025 8.714 21.333 0 8.277-3.311 15.776-8.663 21.272-5.543 5.693-13.278 9.243-21.852 9.243h-25.545zM216.26 605.754h-25.546c-8.538 0-16.246-3.516-21.786-9.168-5.394-5.502-8.728-13.032-8.728-21.347 0-8.271 3.304-15.759 8.648-21.258 5.544-5.7 13.286-9.254 21.866-9.254h25.546v61.027zM216.26 478.471h-25.546c-16.852 0-30.514-13.664-30.514-30.515s13.662-30.512 30.514-30.512h25.546v61.027zM168.862 341.937c-5.352-5.499-8.662-12.995-8.662-21.272 0-8.308 3.33-15.831 8.714-21.333 5.54-5.659 13.254-9.182 21.798-9.182h25.546v61.030h-25.546c-8.57 0-16.306-3.55-21.85-9.243zM641.311 773.343h241.172v-85.738c9.469 2.508 19.405 3.86 29.655 3.86 10.871 0 21.388-1.536 31.372-4.348v116.74c0 16.852-13.66 30.514-30.512 30.514h-302.199c-16.855 0-30.515-13.662-30.515-30.514v-88.624h61.027v58.11zM689.787 279.545v336.824c0 20.897-16.94 37.839-37.84 37.839h-336.823c-20.898 0-37.84-16.942-37.84-37.839v-336.824c0-20.9 16.942-37.84 37.84-37.84h336.823c20.9 0 37.84 16.94 37.84 37.84zM617.264 344.74c0-16.852-13.66-30.515-30.512-30.515h-206.435c-16.852 0-30.515 13.664-30.515 30.515v206.435c0 16.852 13.664 30.515 30.515 30.515h206.435c16.852 0 30.512-13.664 30.512-30.515v-206.435zM538.242 520.66h-109.408c-9.94 0-18.002-8.059-18.002-18.002v-109.408c0-9.943 8.059-17.999 18.002-17.999h109.408c9.94 0 17.999 8.055 17.999 17.999v109.408c0 9.943-8.059 18.002-17.999 18.002zM912.142 265.745c30.331 0 54.924 24.59 54.924 54.924 0 30.331-24.593 54.924-54.924 54.924-30.334 0-54.924-24.593-54.924-54.924 0-30.334 24.59-54.924 54.924-54.924zM912.142 520.315c30.331 0 54.924 24.59 54.924 54.924s-24.593 54.924-54.924 54.924c-30.334 0-54.924-24.589-54.924-54.924s24.59-54.924 54.924-54.924zM54.924 265.745c30.334 0 54.924 24.59 54.924 54.924 0 30.331-24.59 54.924-54.924 54.924s-54.924-24.593-54.924-54.924c0-30.334 24.59-54.924 54.924-54.924zM54.924 520.315c30.334 0 54.924 24.59 54.924 54.924s-24.59 54.924-54.924 54.924c-30.334 0-54.924-24.589-54.924-54.924s24.59-54.924 54.924-54.924z" />
<glyph unicode="&#xe902;" glyph-name="upload" d="M826.985 654.181c-34.585 173.531-203.296 286.163-376.828 251.577-126.922-25.297-226.164-124.477-251.538-251.383-123.040-14.179-211.298-125.414-197.126-248.46 13.047-113.243 108.961-198.679 222.952-198.602h160.189c17.695 0 32.038 14.343 32.038 32.039s-14.343 32.038-32.038 32.038h-160.189c-88.476 0.524-159.765 72.665-159.249 161.134 0.523 88.468 72.664 159.766 161.141 159.25 16.328-0.007 30.047 12.281 31.843 28.508 16.266 140.617 143.445 241.422 284.062 225.156 118.219-13.68 211.476-106.929 225.148-225.156 2.689-16.516 17.001-28.618 33.735-28.508 88.477 0 160.196-71.718 160.196-160.196 0-88.468-71.719-160.187-160.196-160.187h-160.187c-17.696 0-32.039-14.343-32.039-32.038s14.343-32.039 32.039-32.039h160.195c123.853 0.774 223.633 101.797 222.868 225.656-0.704 112.789-85.062 207.508-197.016 221.212zM626.038 410.21c12.298-12.734 32.579-13.085 45.305-0.788 12.727 12.289 13.079 32.571 0.79 45.297-0.257 0.272-0.524 0.531-0.79 0.788l-135.875 135.907c-12.491 12.531-32.781 12.554-45.312 0.061-0.016-0.023-0.039-0.038-0.056-0.061l-135.875-135.907c-12.727-12.289-13.078-32.571-0.788-45.297 12.297-12.727 32.578-13.078 45.305-0.788 0.265 0.257 0.531 0.524 0.788 0.788l81.219 81.25v-403.234c0-17.696 14.343-32.039 32.038-32.039 17.689 0 32.032 14.343 32.032 32.039v403.234l81.218-81.25z" />
<glyph unicode="&#xe903;" glyph-name="close" d="M1024 856.869l-103.134 103.131-408.866-408.869-408.869 408.869-103.131-103.131 408.869-408.869-408.869-408.866 103.131-103.134 408.869 408.869 408.866-408.869 103.134 103.134-408.869 408.866 408.869 408.869z" />
<glyph unicode="&#xe904;" glyph-name="success" d="M512 960c-282.309 0-512-229.671-512-512s229.691-512 512-512 512 229.671 512 512-229.691 512-512 512zM797.44 618.752l-315.077-354.462c-7.759-8.724-18.57-13.214-29.46-13.214-8.645 0-17.329 2.836-24.596 8.625l-196.923 157.538c-16.975 13.568-19.732 38.361-6.144 55.355 13.568 16.994 38.38 19.751 55.355 6.164l167.719-134.164 290.245 326.518c14.415 16.266 39.345 17.723 55.591 3.269 16.266-14.474 17.743-39.365 3.289-55.631z" />
<glyph unicode="&#xe905;" glyph-name="explore" d="M512 960c-282.624 0-512-229.376-512-512s229.376-512 512-512c282.624 0 512 229.376 512 512s-229.376 512-512 512zM512 38.4c-225.792 0-409.6 183.808-409.6 409.6s183.808 409.6 409.6 409.6c225.792 0 409.6-183.808 409.6-409.6s-183.808-409.6-409.6-409.6zM230.4 166.4l384.512 178.688 178.688 384.512-384.512-178.688-178.688-384.512zM512 504.32c31.232 0 56.32-25.088 56.32-56.32s-25.088-56.32-56.32-56.32c-31.232 0-56.32 25.088-56.32 56.32s25.088 56.32 56.32 56.32z" />
<glyph unicode="&#xe906;" glyph-name="notification" d="M900.402 145.094c-3.010 1.954-25.664 17.824-48.348 65.834-41.658 88.164-50.402 212.36-50.402 301.022 0 0.386-0.008 0.768-0.022 1.152-0.454 117.178-70.62 218.19-171.028 263.512v69.314c0 62.9-51.088 114.072-113.884 114.072h-9.438c-62.796 0-113.884-51.172-113.884-114.072v-69.31c-100.744-45.468-171.050-146.996-171.050-264.668 0-88.662-8.744-212.856-50.402-301.022-22.682-48.008-45.336-63.878-48.348-65.834-12.684-5.87-18.938-19.43-16.020-33.172 2.946-13.878 15.918-23.446 30.084-23.446h219.894c1.228-84.282 70.016-152.476 154.446-152.476s153.218 68.194 154.446 152.476h219.894c14.164 0 27.138 9.568 30.084 23.446 2.914 13.742-3.338 27.304-16.022 33.172zM453.398 845.928c0 29.762 24.172 53.974 53.884 53.974h9.438c29.712 0 53.884-24.212 53.884-53.974v-49.834c-18.936 3.914-38.538 5.974-58.612 5.974-20.068 0-39.664-2.058-58.592-5.968v49.828zM512-3.902c-51.346 0-93.228 41.234-94.446 92.376h188.89c-1.216-51.14-43.098-92.376-94.444-92.376zM632.8 148.576c-0.006 0-426.77 0-426.77 0 5.19 8.088 10.472 17.246 15.722 27.596 40.208 79.286 60.596 192.258 60.596 335.778 0 126.834 103.018 230.020 229.642 230.020s229.642-103.186 229.642-230.12c0-0.37 0.006-0.738 0.020-1.106 0.114-142.944 20.5-255.51 60.596-334.572 5.25-10.352 10.534-19.508 15.722-27.596z" />
<glyph unicode="&#xe907;" glyph-name="wrong" d="M511.999 960c-282.311 0-511.999-229.688-511.999-511.999s229.688-511.999 511.999-511.999 511.999 229.688 511.999 511.999-229.686 511.999-511.999 511.999zM728.107 231.936c-4.364-4.364-10.061-6.545-15.761-6.545s-11.397 2.181-15.761 6.501l-184.587 184.631-184.587-184.587c-4.364-4.364-10.061-6.545-15.761-6.545s-11.397 2.181-15.761 6.501c-8.682 8.682-8.682 22.796 0 31.478l184.587 184.587-184.587 184.631c-8.682 8.682-8.682 22.796 0 31.478s22.796 8.682 31.478 0l184.587-184.587 184.587 184.587c8.682 8.682 22.796 8.682 31.478 0s8.682-22.796 0-31.478l-184.543-184.587 184.631-184.587c8.682-8.682 8.682-22.796 0-31.478z" />
<glyph unicode="&#xe908;" glyph-name="warn" d="M907.5 204.9l-345.1 558.4c-27.8 44.9-73 45-100.8 0v0l-345.1-558.4c-37.3-60.3-10.2-108.9 60.4-108.9h670.2c70.5 0 97.6 48.7 60.4 108.9zM512 192c-17.7 0-32 14.3-32 32s14.3 32 32 32 32-14.3 32-32-14.3-32-32-32zM544 351.9c0-17.4-14.3-31.9-32-31.9-17.8 0-32 14.3-32 31.9v192.2c0 17.4 14.3 31.9 32 31.9v0c17.8 0 32-14.3 32-31.9v-192.2z" />
<glyph unicode="&#xe909;" glyph-name="chart" horiz-adv-x="1575" d="M141.194 28.83l417.477 417.475 256-256c32.295-32.293 84.283-30.718 114.215 3.151l564.775 635.668c27.569 30.72 25.994 77.981-3.151 107.914-31.508 31.508-84.283 30.72-114.215-3.151l-503.335-565.563-259.151 259.151c-30.72 30.72-80.345 30.72-111.065 0l-479.705-480.49c-30.72-30.72-30.72-80.345 0-111.065l7.089-7.089c30.72-30.72 81.132-30.72 111.065 0z" />
<glyph unicode="&#xe90a;" glyph-name="camera" horiz-adv-x="1216" d="M606.181 688.048c-66.499 0.024-130.948-23.014-182.364-65.187s-86.616-100.871-99.601-166.090c-12.985-65.219-2.951-132.923 28.392-191.574 31.343-58.65 82.054-104.614 143.491-130.061s129.798-28.8 193.43-9.491c63.635 19.309 118.605 60.090 155.539 115.386 36.934 55.302 53.549 121.697 47.014 187.874-6.541 66.177-35.821 128.040-82.861 175.044-26.605 26.742-58.246 47.945-93.101 62.38-34.848 14.436-72.218 21.818-109.94 21.72zM606.181 196.467c-40.384 0-79.862 11.974-113.44 34.413-33.579 22.432-59.75 54.323-75.204 91.635-15.454 37.31-19.498 78.365-11.619 117.974s27.325 75.991 55.882 104.547c28.556 28.556 64.939 48.003 104.547 55.882s80.662 3.835 117.974-11.62c37.312-15.454 69.203-41.626 91.635-75.204 22.438-33.579 34.413-73.056 34.413-113.441 0-54.154-21.51-106.088-59.802-144.385-38.298-38.291-90.234-59.802-144.385-59.802zM245.535 955.789c11 0 21.549-4.37 29.327-12.148s12.148-18.328 12.148-29.328c0-11-4.37-21.55-12.148-29.327s-18.327-12.148-29.327-12.148h-110.134c-11 0-21.549 4.369-29.327 12.148s-12.148 18.327-12.148 29.327c0 11 4.369 21.549 12.148 29.328s18.328 12.148 29.327 12.148h110.134zM1077.472 794.991h-156.461c-8.006 0.004-15.91 1.862-23.078 5.426-7.174 3.564-13.427 8.739-18.266 15.12l-68.531 90.736c-12.595 16.654-28.87 30.169-47.558 39.49-18.682 9.32-39.27 14.193-60.154 14.237h-195.508c-20.881-0.044-41.468-4.917-60.152-14.237s-34.961-22.836-47.556-39.49l-68.531-90.736c-4.841-6.381-11.092-11.556-18.266-15.12s-15.073-5.421-23.082-5.426h-155.437c-35.777-0.068-70.067-14.319-95.353-39.629s-39.505-59.613-39.538-95.391v-589.079c0.034-35.77 14.256-70.054 39.546-95.347 25.29-25.286 59.58-39.514 95.345-39.546h942.58c35.763 0.032 70.054 14.259 95.347 39.546 25.286 25.293 39.507 59.578 39.546 95.347v589.079c-0.038 35.777-14.253 70.081-39.539 95.391s-59.578 39.561-95.354 39.629zM1129.414 70.893c0-13.741-5.459-26.925-15.181-36.64-9.715-9.715-22.893-15.174-36.634-15.174h-942.708c-6.815-0.019-13.566 1.312-19.868 3.91-6.301 2.592-12.028 6.406-16.852 11.219s-8.652 10.534-11.264 16.826c-2.612 6.298-3.956 13.043-3.956 19.859v589.079c0 13.754 5.455 26.945 15.168 36.682s22.892 15.224 36.644 15.258h155.565c20.867 0.049 41.44 4.91 60.121 14.206s34.966 22.777 47.588 39.393l68.403 90.863c4.874 6.376 11.15 11.546 18.342 15.108s15.107 5.423 23.133 5.437h195.508c8.013-0.004 15.91-1.862 23.085-5.426s13.421-8.739 18.266-15.12l68.531-90.863c12.621-16.616 28.902-30.097 47.584-39.393s39.258-14.157 60.122-14.206h156.461c13.773 0 26.989-5.472 36.73-15.213s15.213-22.952 15.213-36.728v-589.079z" />
<glyph unicode="&#xe90b;" glyph-name="settings" d="M878.556 397.824c2.048 16.384 3.584 32.768 3.584 50.176s-1.536 33.792-3.584 50.176l108.032 84.48c9.728 7.68 12.288 21.504 6.144 32.768l-102.4 177.152c-6.144 11.264-19.968 15.36-31.232 11.264l-127.488-51.2c-26.624 20.48-55.296 37.376-86.528 50.176l-19.456 135.68c-1.536 12.288-12.288 21.504-25.088 21.504h-204.798c-12.8 0-23.552-9.216-25.088-21.504l-19.456-135.68c-31.232-12.8-59.904-30.208-86.528-50.176l-127.488 51.2c-11.776 4.608-25.088 0-31.232-11.264l-102.4-177.152c-6.656-11.264-3.584-25.088 6.144-32.768l108.032-84.48c-2.048-16.384-3.584-33.28-3.584-50.176s1.536-33.792 3.584-50.176l-108.032-84.48c-9.728-7.68-12.288-21.504-6.144-32.768l102.4-177.152c6.144-11.264 19.968-15.36 31.232-11.264l127.488 51.2c26.624-20.48 55.296-37.376 86.528-50.176l19.456-135.68c1.536-12.288 12.288-21.504 25.088-21.504h204.798c12.8 0 23.552 9.216 25.088 21.504l19.456 135.68c31.232 12.8 59.904 30.208 86.528 50.176l127.488-51.2c11.776-4.608 25.088 0 31.232 11.264l102.4 177.152c6.144 11.264 3.584 25.088-6.144 32.768l-108.032 84.48zM498.142 268.8c-98.816 0-179.2 80.384-179.2 179.2s80.384 179.2 179.2 179.2c98.814 0 179.198-80.384 179.198-179.2s-80.384-179.2-179.198-179.2z" />
<glyph unicode="&#xe90c;" glyph-name="backup" horiz-adv-x="910" d="M337.422 960v-140.8c-193.595-49.738-337.422-225.703-337.422-434.489 0-247.228 201.483-448.711 448.711-448.711s448.711 201.483 448.711 448.711c0 125.132-51.723 238.487-134.758 320l-81.778-59.022c71.782-63.871 116.981-156.904 116.981-260.978 0-193.451-155.705-349.156-349.156-349.156s-349.156 155.705-349.156 349.156c0 154.503 99.304 284.757 237.867 331.022v-148.267l272.711 196.267-272.711 196.267zM452.267 484.267c-13.356 0.371-26.65-1.938-39.099-6.791s-23.797-12.153-33.376-21.467c-9.58-9.314-17.195-20.453-22.395-32.761s-7.883-25.531-7.886-38.895c0.928-25.873 11.861-50.386 30.496-68.363s43.521-28.029 69.415-28.029c25.895 0 50.78 10.052 69.415 28.029s29.569 42.49 30.496 68.363c-0.006 26.011-10.146 50.992-28.269 69.646s-42.801 29.511-68.798 30.268z" />
<glyph unicode="&#xe90d;" glyph-name="Layer" d="M993.106 463.289c-0.016 5.613-1.552 11.118-4.45 15.925-2.895 4.81-7.041 8.741-11.996 11.382l-152.359 81.299 152.359 81.298c5.005 2.632 9.194 6.582 12.117 11.422 2.92 4.84 4.465 10.386 4.465 16.040s-1.545 11.2-4.465 16.040c-2.923 4.84-7.112 8.789-12.117 11.422l-465.455 248.242c-4.49 2.391-9.498 3.641-14.584 3.641s-10.094-1.25-14.584-3.641l-465.454-248.242c-5.004-2.633-9.193-6.582-12.116-11.422s-4.467-10.386-4.467-16.040c0-5.654 1.545-11.2 4.467-16.040s7.112-8.789 12.116-11.422l152.359-81.298-152.359-81.299c-5.004-2.634-9.193-6.582-12.116-11.422s-4.467-10.386-4.467-16.040c0-5.654 1.545-11.202 4.467-16.043 2.923-4.838 7.112-8.788 12.116-11.419l152.359-80.989-152.359-81.299c-5.004-2.634-9.193-6.582-12.116-11.422s-4.467-10.386-4.467-16.040c0-5.654 1.545-11.202 4.467-16.043 2.923-4.838 7.112-8.788 12.116-11.419l465.454-248.242c4.49-2.392 9.498-3.643 14.584-3.643s10.094 1.251 14.584 3.643l465.455 248.242c5.005 2.631 9.194 6.582 12.117 11.419 2.92 4.841 4.465 10.389 4.465 16.043s-1.545 11.199-4.465 16.040c-2.923 4.841-7.112 8.788-12.117 11.422l-152.359 81.299 152.359 81.299c4.956 2.638 9.101 6.569 11.996 11.379 2.898 4.81 4.434 10.314 4.45 15.928zM97.262 680.5l399.36 213.178 399.67-213.178-399.67-213.177-399.36 213.177zM896.292 246.077l-399.67-213.178-399.36 213.178 137.775 73.542 248.242-131.879c4.49-2.392 9.498-3.643 14.584-3.643s10.094 1.251 14.584 3.643l248.242 131.879 135.602-73.542zM496.621 250.11l-399.36 213.178 137.775 73.542 248.242-131.879c4.49-2.392 9.498-3.643 14.584-3.643s10.094 1.251 14.584 3.643l248.242 131.879 135.602-73.542-399.67-213.178z" />
<glyph unicode="&#xe90e;" glyph-name="canary" horiz-adv-x="1229" d="M577.709 673.76c0 79.37-145.728 121.007-288.855 121.007s-288.854-41.637-288.854-121.007v-452.801c0-79.367 145.728-121.003 288.854-121.003s288.855 41.636 288.855 121.003v452.801zM288.854 742.721c153.536 0 236.809-45.54 236.809-68.961s-83.273-68.96-236.809-68.96c-153.535 0-236.808 45.54-236.808 68.96s83.273 68.961 236.808 68.961zM52.046 600.896c54.648-32.529 145.728-48.142 236.808-48.142s182.161 16.914 236.809 48.142v-149.632c0-23.42-83.273-68.96-236.809-68.96s-236.808 45.54-236.808 68.96v149.632zM288.854 152.003c-153.535 0-236.808 45.541-236.808 68.956v158.743c55.949-32.528 147.029-49.443 236.808-49.443s182.161 16.915 236.809 48.142v-157.441c0-23.415-83.273-68.956-236.809-68.956zM274.556 436.921h28.625c6.902 0 13.521 2.742 18.401 7.622s7.622 11.499 7.622 18.401c0 6.902-2.742 13.521-7.622 18.401s-11.5 7.622-18.401 7.622h-28.625c-6.902 0-13.521-2.742-18.401-7.622s-7.622-11.5-7.622-18.401c0-6.902 2.742-13.521 7.622-18.401s11.5-7.622 18.401-7.622zM303.181 271.701h-28.625c-6.902 0-13.521-2.744-18.401-7.625s-7.622-11.496-7.622-18.398c0-6.902 2.742-13.524 7.622-18.405 4.88-4.874 11.5-7.619 18.401-7.619h28.625c6.902 0 13.521 2.744 18.401 7.619 4.88 4.881 7.622 11.503 7.622 18.405s-2.742 13.517-7.622 18.398c-4.88 4.881-11.5 7.625-18.401 7.625zM668.8 744.019v-593.32c0-34.509 13.708-67.604 38.108-92.010 24.405-24.399 57.501-38.106 92.010-38.106h39.028v52.047h-39.028c-20.705 0-40.564 8.226-55.207 22.863-14.643 14.643-22.863 34.502-22.863 55.207v270.636h117.098v52.046h-117.098v270.638c0 20.705 8.219 40.563 22.863 55.203s34.502 22.866 55.207 22.866h39.028v52.046h-39.028c-34.509 0-67.604-13.709-92.010-38.11-24.4-24.401-38.108-57.496-38.108-92.005zM1020.191 326.352h78.070c32.263 0 63.208 12.818 86.023 35.632s35.635 53.759 35.635 86.025c0 32.266-12.82 63.209-35.635 86.025s-53.76 35.632-86.023 35.632h-78.070c-32.263 0-63.208-12.818-86.023-35.632s-35.635-53.759-35.635-86.025c0-32.266 12.82-63.209 35.635-86.025s53.76-35.632 86.023-35.632zM1020.191 517.621h78.070c18.459 0 36.168-7.335 49.22-20.389s20.391-30.76 20.391-49.222c0-18.462-7.339-36.168-20.391-49.222s-30.761-20.389-49.22-20.389h-78.070c-18.459 0-36.168 7.334-49.22 20.389-13.059 13.055-20.391 30.76-20.391 49.222s7.332 36.168 20.391 49.222c13.053 13.055 30.761 20.389 49.22 20.389zM1020.191-64.014h78.070c32.263 0 63.208 12.814 86.023 35.635 22.815 22.815 35.635 53.753 35.635 86.023 0 32.263-12.82 63.208-35.635 86.023s-53.76 35.635-86.023 35.635h-78.070c-32.263 0-63.208-12.82-86.023-35.635s-35.635-53.76-35.635-86.023c0-32.27 12.82-63.208 35.635-86.023 22.815-22.822 53.76-35.635 86.023-35.635zM1020.191 127.256h78.070c18.459 0 36.168-7.339 49.22-20.391s20.391-30.761 20.391-49.22c0-18.466-7.339-36.168-20.391-49.227-13.053-13.053-30.761-20.384-49.22-20.384h-78.070c-18.459 0-36.168 7.332-49.22 20.384-13.059 13.059-20.391 30.761-20.391 49.227 0 18.459 7.332 36.168 20.391 49.22 13.053 13.053 30.761 20.391 49.22 20.391zM1020.191 716.686h78.070c32.263 0 63.208 12.817 86.023 35.632s35.635 53.759 35.635 86.024c0 32.266-12.82 63.21-35.635 86.025s-53.76 35.633-86.023 35.633h-78.070c-32.263 0-63.208-12.817-86.023-35.633s-35.635-53.759-35.635-86.025c0-32.266 12.82-63.209 35.635-86.024s53.76-35.632 86.023-35.632zM1020.191 907.954h78.070c18.459 0 36.168-7.334 49.22-20.389s20.391-30.761 20.391-49.223c0-18.462-7.339-36.168-20.391-49.222s-30.761-20.389-49.22-20.389h-78.070c-18.459 0-36.168 7.334-49.22 20.389-13.059 13.055-20.391 30.76-20.391 49.222s7.332 36.168 20.391 49.223c13.053 13.054 30.761 20.389 49.22 20.389z" />
<glyph unicode="&#xe90f;" glyph-name="scaling" horiz-adv-x="1088" d="M957.21 169.914h-40.96v-66.829h107.789v107.789h-66.829v-40.96zM659.642 169.907h-128.267v-66.829h128.267v66.829zM851.52 169.907h-128.269v-66.829h128.269v66.829zM233.954 787.532h-66.829v-128.269h66.829v128.269zM233.954 595.688h-66.829v-128.269h66.829v128.269zM233.954 893.171h40.96v66.829h-107.789v-107.789h66.829v40.959zM851.52 960h-128.269v-66.829h128.269v66.829zM659.642 960h-128.267v-66.829h128.267v66.829zM467.769 960h-128.269v-66.829h128.269v66.829zM916.25 960v-66.829h40.96v-40.959h66.829v107.789h-107.789zM1024.077 595.688h-66.829v-128.269h66.829v128.269zM1024.077 403.812h-66.829v-128.267h66.829v128.267zM1024.077 787.532h-66.829v-128.269h66.829v128.269zM471.038 407.062h-471.038v-471.037h471.038v471.037zM639.175 734.733h112.102l-242.527-242.525 47.427-47.427 242.524 242.525v-112.1h66.829v226.356h-226.355v-66.829z" />
<glyph unicode="&#xe910;" glyph-name="vpc" d="M990.51-0.097h-447.324v63.903h149.873c58.307 0 105.743 47.437 105.743 105.743v108.037c0 28.682-11.5 54.717-30.106 73.789h10.936c116.28 0 210.883 95.785 210.883 213.518 0 111.796-83.753 200.225-186.516 212.12-27.126 106.788-122.47 182.987-233.114 182.987-91.030 0-170.998-51.409-211.726-127.66-93.565 30.44-187.369-46.54-177.378-145.516-83.982-8.326-149.829-80.188-149.829-167.321 0-92.762 74.135-168.128 166.151-168.128h55.664c-18.606-19.067-30.103-45.102-30.103-73.789v-108.037c0-58.307 47.435-105.738 105.741-105.738h149.875v-63.908h-447.328c-17.646 0-31.952-14.305-31.952-31.949 0-17.649 14.307-31.954 31.952-31.954h958.558c17.649 0 31.954 14.305 31.954 31.954 0 17.644-14.305 31.949-31.954 31.949zM287.568 425.165v108.038c0 23.069 18.768 41.837 41.838 41.837h363.653c23.071 0 41.836-18.768 41.836-41.837v-108.038c0-23.071-18.765-41.836-41.836-41.836h-363.653c-23.070-0.005-41.838 18.765-41.838 41.836zM198.103 415.278c-56.497 0-102.246 46.582-102.246 104.223 0 57.468 45.867 104.222 102.246 104.222h24.963c23.339 0 38.845 24.302 28.946 45.48-22.818 48.819 12.1 105.833 65.372 105.833 14.191 0 27.93-4.194 39.733-12.122 17.248-11.589 40.784-3.866 47.856 15.623 12.397 34.173 34.496 63.435 63.896 84.615 107.614 77.46 258.408 10.754 276.983-121.15 2.115-15.017 14.249-27.497 33.777-27.497 81.106 0 146.98-66.79 146.98-149.615 0-76.014-55.992-138.926-128.189-148.352 0.538 6.62 0.379-0.968 0.379 116.659 0 58.307-47.432 105.741-105.738 105.741h-363.655c-58.307 0-105.741-47.435-105.741-105.741 0-116.808-0.198-110.669 0.477-117.924l-26.037 0.005zM287.568 169.549v108.037c0 23.071 18.768 41.841 41.838 41.841h363.653c23.071 0 41.836-18.77 41.836-41.841v-108.037c0-23.071-18.765-41.836-41.836-41.836h-363.653c-23.070-0.005-41.838 18.765-41.838 41.836zM383.452 447.232c17.647 0 31.952 14.304 31.952 31.95s-14.305 31.952-31.952 31.952c-17.647 0-31.952-14.305-31.952-31.952s14.306-31.95 31.952-31.95zM383.452 191.616c17.647 0 31.952 14.305 31.952 31.949 0 17.649-14.305 31.954-31.952 31.954s-31.952-14.305-31.952-31.954c0-17.644 14.306-31.949 31.952-31.949zM639.012 511.134h-159.76c-17.646 0-31.952-14.304-31.952-31.952s14.306-31.95 31.952-31.95h159.76c17.649 0 31.954 14.303 31.954 31.95s-14.305 31.952-31.954 31.952zM670.966 223.565c0 17.649-14.305 31.954-31.954 31.954h-159.76c-17.646 0-31.952-14.305-31.952-31.954 0-17.644 14.306-31.949 31.952-31.949h159.76c17.649 0 31.954 14.305 31.954 31.949z" />
<glyph unicode="&#xe911;" glyph-name="cpu-2" d="M992.002 608c17.67 0 31.998 14.328 31.998 32v96c0 17.672-14.328 32-31.998 32-17.674 0-32.002-14.328-32.002-32v-64h-95.998c0 70.58-57.422 128-128 128v96h63.996c17.674 0 32.002 14.328 32.002 32s-14.328 32-32.002 32h-95.998c-17.674 0-32.002-14.328-32.002-32v-128h-63.996v128c0 17.672-14.328 32-32.002 32s-32.002-14.328-32.002-32v-128h-63.996v128c0 17.672-14.328 32-32.002 32s-32.002-14.328-32.002-32v-128h-63.998v128c0 17.672-14.326 32-32 32h-96c-17.674 0-32-14.328-32-32s14.326-32 32-32h64v-96c-70.58 0-128-57.42-128-128h-96v64c0 17.672-14.326 32-32 32s-32-14.328-32-32v-96c0-17.672 14.326-32 32-32h128v-63.998h-128c-17.674 0-32-14.332-32-32.002s14.326-32.002 32-32.002h128v-63.996h-128c-17.674 0-32-14.332-32-32.002s14.326-32.002 32-32.002h128v-63.996h-128c-17.674 0-32-14.332-32-32.002v-95.998c0-17.674 14.326-32.002 32-32.002s32 14.328 32 32.002v63.996h96c0-70.578 57.42-128 128-128v-95.998h-64c-17.674 0-32-14.328-32-32.002 0-17.67 14.326-31.998 32-31.998h96c17.674 0 32 14.328 32 31.998v128h63.998v-128c0-17.67 14.328-31.998 32.002-31.998s32.002 14.328 32.002 31.998v128h63.996v-128c0-17.67 14.328-31.998 32.002-31.998s32.002 14.328 32.002 31.998v128h63.996v-128c0-17.67 14.328-31.998 32.002-31.998h95.998c17.674 0 32.002 14.328 32.002 31.998 0 17.674-14.328 32.002-32.002 32.002h-63.996v95.998c70.578 0 128 57.422 128 128h95.998v-63.996c0-17.674 14.328-32.002 32.002-32.002 17.67 0 31.998 14.328 31.998 32.002v95.998c0 17.67-14.328 32.002-31.998 32.002h-128v63.996h128c17.67 0 31.998 14.332 31.998 32.002s-14.328 32.002-31.998 32.002h-128v63.996h128c17.67 0 31.998 14.332 31.998 32.002s-14.328 32.002-31.998 32.002h-128v63.998h128zM799.998 223.998c0-35.287-28.709-63.996-63.996-63.996h-448.002c-35.29 0-64 28.709-64 63.996v448.002c0 35.29 28.71 64 64 64h448.002c35.287 0 63.996-28.71 63.996-64v-448.002zM704.082 672h-384.002c-17.674 0-32-14.328-32-32v-384c0-17.67 14.326-31.998 32-31.998h384.002c17.67 0 31.998 14.328 31.998 31.998v384c0 17.672-14.328 32-31.998 32zM672.080 288.002h-320v319.998h320v-319.998zM479.998 320h128c17.674 0 32.002 14.328 32.002 32.002v128c0 17.67-14.328 31.998-32.002 31.998-17.67 0-31.998-14.328-31.998-31.998v-96.002h-96.002c-17.67 0-31.998-14.328-31.998-31.998 0-17.674 14.328-32.002 31.998-32.002z" />
<glyph unicode="&#xe912;" glyph-name="memory" horiz-adv-x="1365" d="M1291.668 648.889c23.012 0 41.665 19.9 41.665 44.444v222.222c0 24.544-18.654 44.444-41.665 44.444h-1250.001c-23.013 0-41.667-19.9-41.667-44.444v-222.222c0-24.545 18.654-44.444 41.667-44.444 22.974 0 41.666-19.939 41.666-44.444s-18.693-44.444-41.666-44.444c-23.013 0-41.667-19.9-41.667-44.444v-266.667c0-24.542 18.654-44.447 41.667-44.447v-177.778c0-24.542 18.654-44.442 41.666-44.442h666.667c23.012 0 41.665 19.9 41.665 44.442v177.778h83.337v-177.778c0-24.542 18.654-44.442 41.665-44.442h333.335c23.012 0 41.665 19.9 41.665 44.442v177.778c23.012 0 41.665 19.905 41.665 44.447v266.667c0 24.544-18.654 44.444-41.665 44.444-22.977 0-41.665 19.939-41.665 44.444s18.688 44.444 41.665 44.444zM125 204.442h83.333v-133.33h-83.333v133.33zM375 204.442v-133.33h-83.334v133.33h83.334zM541.667 204.442v-133.33h-83.334v133.33h83.334zM708.335 71.111h-83.337v133.33h83.337v-133.33zM958.333 204.442h83.337v-133.33h-83.337v133.33zM1208.331 71.111h-83.331v133.33h83.331v-133.33zM1250.002 730.161c-48.503-18.344-83.337-67.772-83.337-125.716s34.833-107.375 83.337-125.716v-185.397c-58.624 0-1112.562 0-1166.669 0v185.397c48.503 18.342 83.334 67.772 83.334 125.716s-34.831 107.375-83.334 125.716v140.95h1166.669v-140.95zM291.778 426.667h166.666c23.013 0 41.667 19.9 41.667 44.444v266.667c0 24.545-18.654 44.444-41.667 44.444h-166.666c-23.013 0-41.667-19.9-41.667-44.444v-266.667c0-24.545 18.654-44.444 41.667-44.444zM333.445 693.333h83.333v-177.778h-83.333v177.778zM583.447 426.667h166.662c23.017 0 41.671 19.9 41.671 44.444v266.667c0 24.545-18.654 44.444-41.671 44.444h-166.662c-23.016 0-41.669-19.9-41.669-44.444v-266.667c0-24.545 18.653-44.444 41.669-44.444zM625.112 693.333h83.331v-177.778h-83.331v177.778zM875.002 426.667h166.662c23.017 0 41.671 19.9 41.671 44.444v266.667c0 24.545-18.654 44.444-41.671 44.444h-166.662c-23.017 0-41.671-19.9-41.671-44.444v-266.667c0-24.545 18.654-44.444 41.671-44.444zM916.668 693.333h83.331v-177.778h-83.331v177.778z" />
<glyph unicode="&#xe913;" glyph-name="storage" d="M1024 864c0 52.936-43.065 96-96.002 96h-831.998c-52.934 0-96-43.064-96-96v-192c0-24.57 9.288-47.002 24.522-64-15.234-16.998-24.522-39.43-24.522-63.998v-192.004c0-24.568 9.288-47.002 24.522-63.996-15.234-16.998-24.522-39.432-24.522-64.004v-191.996c0-52.937 43.066-96.002 96-96.002h831.998c52.937 0 96.002 43.065 96.002 96.002v191.996c0 24.572-9.29 47.006-24.523 64.004 15.237 16.994 24.523 39.428 24.523 63.996v192.004c0 24.568-9.29 47-24.523 63.998 15.237 16.998 24.523 39.43 24.523 64v192zM64 864c0 17.644 14.356 32 32 32h831.998c17.646 0 32.002-14.356 32.002-32v-192c0-17.644-14.356-32-32.002-32h-831.998c-17.644 0-32 14.356-32 32v192zM960 544.002v-192.004c0-17.641-14.356-31.998-32.002-31.998h-831.998c-17.644 0-32 14.356-32 31.998v192.004c0 17.642 14.356 31.998 32 31.998h831.998c17.646 0 32.002-14.356 32.002-31.998zM960 32.002c0-17.646-14.356-32.002-32.002-32.002h-831.998c-17.644 0-32 14.356-32 32.002v191.996c0 17.646 14.356 32.002 32 32.002h831.998c17.646 0 32.002-14.356 32.002-32.002v-191.996zM864.002 704c17.67 0 31.998 14.326 31.998 32v64c0 17.674-14.328 32-31.998 32-17.674 0-32.002-14.326-32.002-32v-64c0-17.674 14.328-32 32.002-32zM735.92 704c17.67 0 31.998 14.326 31.998 32v64c0 17.674-14.328 32-31.998 32s-32.002-14.326-32.002-32v-64c0-17.674 14.332-32 32.002-32zM352 735.998h256.002c17.67 0 31.998 14.326 31.998 32s-14.328 32-31.998 32h-256.002c-17.672 0-32-14.326-32-32s14.328-32 32-32zM192 384c35.29 0 64 28.709 64 64s-28.71 64-64 64c-35.29 0-64-28.709-64-64s28.71-64 64-64zM192 192c-35.29 0-64-28.709-64-64s28.71-64 64-64c35.29 0 64 28.709 64 64s-28.71 64-64 64zM192 704c35.29 0 64 28.71 64 64s-28.71 64-64 64c-35.29 0-64-28.71-64-64s28.71-64 64-64zM864.002 384c17.67 0 31.998 14.328 31.998 32.002v63.996c0 17.674-14.328 32.002-31.998 32.002-17.674 0-32.002-14.328-32.002-32.002v-63.996c0-17.674 14.328-32.002 32.002-32.002zM735.92 384c17.67 0 31.998 14.328 31.998 32.002v63.996c0 17.674-14.328 32.002-31.998 32.002s-32.002-14.328-32.002-32.002v-63.996c0-17.674 14.332-32.002 32.002-32.002zM352 416.002h256.002c17.67 0 31.998 14.324 31.998 31.998s-14.328 31.998-31.998 31.998h-256.002c-17.672 0-32-14.324-32-31.998s14.328-31.998 32-31.998zM864.002 192c-17.674 0-32.002-14.328-32.002-31.998v-64.004c0-17.67 14.328-31.998 32.002-31.998 17.67 0 31.998 14.328 31.998 31.998v64.004c0 17.67-14.328 31.998-31.998 31.998zM735.92 192c-17.67 0-32.002-14.328-32.002-31.998v-64.004c0-17.67 14.332-31.998 32.002-31.998s31.998 14.328 31.998 31.998v64.004c0 17.67-14.328 31.998-31.998 31.998zM608.002 160.002h-256.002c-17.672 0-32-14.328-32-32.002s14.328-32.002 32-32.002h256.002c17.67 0 31.998 14.328 31.998 32.002s-14.328 32.002-31.998 32.002z" />
<glyph unicode="&#xe914;" glyph-name="git-organization" horiz-adv-x="1162" d="M581.197 645.225c-111.588 0-202.060-90.154-202.060-201.368 0-111.212 90.472-201.365 202.060-201.365 111.574 0 202.046 90.154 202.046 201.365 0 111.215-90.472 201.368-202.046 201.368zM726.262 741.238l32.807 56.511c-20.057 21.379-26.746 52.363-17.292 80.215 14.261 41.938 59.846 64.264 101.772 50.108 19.453-6.57 36.394-20.531 46.213-40.351 9.44-19.055 10.921-40.88 4.063-61.077-12.905-37.985-51.897-60.423-91.086-52.864l-33.308-57.374c47.597-27.393 95.204-54.8 142.815-82.179 0-55.647 0-111.281 0-166.915l65.431-0.055c8.729 28.13 31.885 49.271 61.030 55.077 43.379 8.629 85.781-19.586 94.438-62.818 8.66-43.274-19.677-85.504-63.029-94.119-39.299-7.824-78.474 14.795-91.504 52.224l-66.366 0.055c0-54.729 0-109.474 0-164.216-48.391-27.839-96.812-55.661-145.217-83.514l32.735-56.608c28.73 6.612 58.728-2.909 78.35-25.165 29.273-33.225 25.935-83.697-7.387-112.856-33.297-29.145-83.965-25.863-113.238 7.348-26.535 30.108-26.535 75.026-0.376 105.062l-33.197 57.416c-47.569-27.38-95.149-54.759-142.718-82.136-48.363 27.822-96.726 55.647-145.079 83.486l-32.804-56.511c20.068-21.41 26.743-52.407 17.289-80.229-14.217-41.829-59.802-64.266-101.769-50.096-41.94 14.156-64.51 59.53-50.278 101.429 12.905 37.957 51.911 60.408 91.1 52.849l33.294 57.388c-47.597 27.393-95.218 54.756-142.801 82.136 0 55.647 0 111.298 0 166.959l-65.444 0.042c-8.743-28.185-31.912-49.274-61.017-55.064-43.42-8.643-85.793 19.611-94.452 62.802-8.659 43.29 19.594 85.49 63.028 94.136 32.15 6.388 64.732-7.42 82.567-34.227 3.715-5.582 6.718-11.638 8.938-18.011l66.38-0.058c0 54.731 0 109.46 0 164.189 48.405 27.839 96.798 55.705 145.203 83.557l-32.721 56.595c-28.744-6.611-58.742 2.909-78.364 25.18-29.273 33.211-25.935 83.681 7.389 112.855 33.294 29.146 83.962 25.862 113.235-7.363 26.535-30.107 26.535-75.010 0.376-105.047l33.197-57.416c47.583 27.379 95.163 54.785 142.732 82.15 48.336-27.81 96.702-55.676 145.065-83.5zM837.878 12.689c12.581 11.023 13.782 30.216 2.737 42.745-7.068 8.018-17.613 11.51-28.002 9.883-22.835-3.606-33.687-31.653-17.624-49.885 11.045-12.543 30.305-13.738 42.889-2.743zM334.84 6.772c15.891-5.372 33.125 3.119 38.502 18.958 5.377 15.814-3.1 32.934-18.938 38.347-15.626 5.344-33.322-3.451-38.585-18.944-5.377-15.839 3.127-33 19.021-38.361zM78.215 437.956c3.296-16.453 19.203-27.017 35.697-23.732 16.438 3.271 27.080 19.124 23.868 35.508-3.24 16.478-19.273 27.072-35.753 23.801-16.508-3.285-27.094-19.138-23.812-35.577zM324.517 875.055c-12.581-11.010-13.796-30.204-2.751-42.732 11.425-12.959 31.368-13.738 43.869-1.823 11.66 11.121 12.512 29.62 1.76 41.827-11.048 12.541-30.308 13.738-42.878 2.728zM827.544 880.985c-15.894 5.359-33.114-3.118-38.505-18.958-4.749-14.003 3.030-35.744 18.952-38.361 15.612-5.331 33.308 3.466 38.574 18.944 5.375 15.84-3.13 33.002-19.021 38.375zM1084.167 449.802c-3.296 16.45-19.204 27.003-35.696 23.732-16.34-3.257-27.053-19.251-23.868-35.522 3.238-16.481 19.273-27.072 35.751-23.787 16.509 3.285 27.108 19.138 23.812 35.577zM581.197 767.461c-93.71-53.922-187.409-107.803-281.107-161.712v-323.742c93.699-53.921 187.398-107.802 281.107-161.712 93.699 53.909 187.395 107.791 281.094 161.712v323.742c-93.699 53.909-187.395 107.79-281.094 161.712zM606.714 571.231c17.023-3.354 32.848-10.035 46.772-19.32 9.565 6.919 19.132 13.821 28.7 20.74 9.399-9.368 18.811-18.75 28.21-28.118-6.941-9.534-13.868-19.069-20.809-28.603 9.316-13.877 16.019-29.646 19.401-46.614 11.66-1.852 23.322-3.703 34.985-5.555 0-13.251 0-26.516 0-39.767-11.663-1.849-23.325-3.7-34.985-5.552-3.382-16.968-10.085-32.738-19.401-46.631 6.941-9.534 13.868-19.055 20.809-28.589-9.399-9.382-18.811-18.748-28.21-28.116-9.567 6.919-19.135 13.821-28.7 20.74-13.924-9.285-29.749-15.966-46.772-19.32-1.857-11.638-3.717-23.259-5.574-34.882-13.295 0-26.605 0-39.9 0-1.857 11.624-3.714 23.245-5.571 34.869-17.026 3.368-32.848 10.049-46.788 19.32-9.565-6.905-19.118-13.821-28.686-20.726-9.412 9.368-18.811 18.734-28.21 28.116 6.941 9.534 13.868 19.055 20.809 28.606-9.316 13.877-16.019 29.646-19.384 46.614-11.676 1.852-23.339 3.703-34.999 5.552 0 13.251 0 26.516 0 39.767 11.66 1.852 23.322 3.703 34.985 5.555 3.379 16.968 10.082 32.738 19.384 46.628-6.927 9.534-13.868 19.055-20.796 28.589 9.399 9.368 18.797 18.75 28.21 28.118 9.567-6.919 19.121-13.821 28.7-20.74 13.926 9.285 29.749 15.966 46.775 19.32 1.857 11.635 3.714 23.259 5.571 34.88 13.295 0 26.605 0 39.9 0 1.857-11.621 3.717-23.245 5.574-34.88zM581.184 526.175c45.612 0 82.581-36.845 82.581-82.305 0-45.443-36.969-82.288-82.581-82.288-45.598 0-82.568 36.845-82.568 82.288 0 45.46 36.969 82.305 82.568 82.305z" />
<glyph unicode="&#xe915;" glyph-name="code" horiz-adv-x="1088" d="M241.32 587.058h-76.787c-18.166 0-32.909 14.743-32.909 32.909s14.743 32.908 32.909 32.908h76.787c18.165 0 32.908-14.743 32.908-32.908s-14.743-32.909-32.908-32.909zM241.32 126.31h-76.787c-18.166 0-32.909 14.739-32.909 32.909 0 18.163 14.743 32.909 32.909 32.909h76.787c18.165 0 32.908-14.746 32.908-32.909 0-18.17-14.743-32.909-32.908-32.909zM493.616 477.339h-285.208c-18.165 0-32.908 14.743-32.908 32.909s14.743 32.909 32.908 32.909h285.208c18.166 0 32.909-14.743 32.909-32.909s-14.743-32.909-32.909-32.909zM888.518 367.652h-636.235c-18.166 0-32.909 14.743-32.909 32.908s14.743 32.909 32.909 32.909h636.235c18.163 0 32.909-14.743 32.909-32.909s-14.746-32.908-32.909-32.908zM493.616 235.994h-285.208c-18.165 0-32.908 14.746-32.908 32.909 0 18.17 14.743 32.909 32.908 32.909h285.208c18.166 0 32.909-14.739 32.909-32.909 0-18.163-14.743-32.909-32.909-32.909zM932.41-5.318h-811.745c-66.563 0-120.665 54.106-120.665 120.666v723.988c0 66.563 54.102 120.665 120.665 120.665h811.745c66.56 0 120.666-54.102 120.666-120.665v-723.988c0-66.56-54.106-120.666-120.666-120.666zM120.665 894.183c-30.232 0-54.848-24.616-54.848-54.848v-723.988c0-30.234 24.616-54.848 54.848-54.848h811.745c30.234 0 54.848 24.614 54.848 54.848v723.988c0 30.232-24.614 54.848-54.848 54.848h-811.745zM1020.166 740.589h-987.258c-18.166 0-32.909 14.743-32.909 32.908s14.743 32.909 32.909 32.909h987.258c18.163 0 32.909-14.743 32.909-32.909s-14.746-32.908-32.909-32.908z" />
<glyph unicode="&#xe916;" glyph-name="external-url" horiz-adv-x="1132" d="M940.097 49.271c12.681 0.124 24.808 5.217 33.776 14.185s14.061 21.094 14.185 33.776v517.704c-0.124 12.68-5.217 24.806-14.185 33.773s-21.094 14.060-33.776 14.186h-97.372v-32.296h97.372c4.118-0.122 8.030-1.811 10.941-4.722 2.916-2.912 4.603-6.825 4.727-10.941v-517.623c-0.124-4.118-1.811-8.030-4.727-10.941-2.91-2.916-6.823-4.603-10.941-4.727h-743.775c-4.102 0.124-8.004 1.8-10.914 4.694s-4.607 6.791-4.749 10.892v517.704c0.122 4.116 1.811 8.029 4.722 10.941s6.826 4.6 10.941 4.722h339.593v32.296h-339.593c-12.68-0.126-24.806-5.219-33.773-14.186s-14.060-21.093-14.186-33.773v-517.623c0.105-12.698 5.189-24.84 14.158-33.824s21.107-14.093 33.801-14.217h-144.848c0-32.294 32.296-64.593 64.592-64.593h904.291c32.294 0 64.587 32.299 64.587 64.593h-144.847zM568.104 646.765v-40.37h64.593v40.37c0 29.979 11.911 58.73 33.108 79.929s49.95 33.107 79.926 33.107h51.033l-64.593-64.592 45.859-45.537 142.185 142.425-142.185 142.587-45.617-45.699 64.587-64.592h-51.27c-47.109 0-92.289-18.714-125.602-52.026-33.307-33.312-52.025-78.492-52.025-125.602zM404.479 339.979l-40.37-40.373c-17.799-17.855-27.794-42.043-27.794-67.255s9.995-49.4 27.794-67.255l14.937-14.94c17.858-17.796 42.043-27.794 67.256-27.794s49.398 9.997 67.256 27.794l40.371 40.373c16.341 16.352 26.177 38.098 27.664 61.171 1.482 23.078-5.481 45.902-19.591 64.216l45.131 45.137c18.33-14.158 41.192-21.148 64.302-19.661s44.889 11.345 61.251 27.734l40.367 40.367c17.828 17.877 27.842 42.093 27.842 67.339s-10.014 49.462-27.842 67.337l-15.096 13.807c-17.877 17.828-42.092 27.84-67.336 27.84-25.25 0-49.465-10.012-67.341-27.84l-40.367-40.37c-16.357-16.381-26.193-38.154-27.68-61.255s5.481-45.953 19.607-64.293l-45.135-45.137c-18.171 14.212-40.885 21.342-63.919 20.065s-44.821-10.871-61.309-27.007zM522.036 222.095l-40.37-40.367c-9.406-9.329-22.117-14.562-35.364-14.562s-25.958 5.233-35.364 14.562l-14.937 14.934c-9.329 9.41-14.563 22.118-14.563 35.366s5.234 25.961 14.563 35.366l40.37 40.367c7.902 7.906 18.225 12.929 29.319 14.277s22.319-1.067 31.883-6.845l-37.060-37.063c-2.094-2.091-3.755-4.581-4.889-7.314-1.133-2.738-1.717-5.67-1.717-8.634 0-2.959 0.583-5.891 1.717-8.629 1.133-2.732 2.794-5.222 4.889-7.314 2.094-2.097 4.58-3.756 7.316-4.888 2.736-1.137 5.668-1.719 8.63-1.719s5.894 0.582 8.63 1.719c2.736 1.132 5.222 2.792 7.316 4.888l36.979 37.22c5.82-9.577 8.258-20.825 6.926-31.949-1.332-11.129-6.358-21.482-14.273-29.416zM600.274 450.752c-0.038 6.594 1.234 13.13 3.746 19.229 2.506 6.098 6.203 11.637 10.865 16.297l40.373 40.37c9.415 9.402 22.178 14.684 35.484 14.684s26.069-5.281 35.484-14.684l14.697-14.694c9.383-9.427 14.649-22.185 14.649-35.485s-5.266-26.059-14.649-35.485l-40.373-40.367c-7.917-7.901-18.249-12.924-29.351-14.287-11.097-1.358-22.334 1.024-31.927 6.775l37.058 37.061c4.231 4.229 6.607 9.965 6.607 15.946s-2.377 11.717-6.607 15.946c-4.231 4.229-9.965 6.605-15.947 6.605-5.977 0-11.717-2.376-15.942-6.605l-36.983-36.979c-4.673 7.751-7.157 16.624-7.184 25.675z" />
<glyph unicode="&#xe917;" glyph-name="development" horiz-adv-x="1138" d="M989.090-64h-861.090c-70.609 0-128 57.39-128 128v768c0 70.609 57.391 128 128 128h861.090c70.61 0 128-57.391 128-128v-768c0-70.61-57.39-128-128-128zM128 890.182c-32.070 0-58.182-26.112-58.182-58.182v-768c0-32.071 26.112-58.183 58.182-58.183h861.090c32.071 0 58.183 26.112 58.183 58.183v768c0 32.070-26.112 58.182-58.183 58.182h-861.090zM1082.183 727.265h-1047.274c-19.27 0-34.909 15.639-34.909 34.909s15.639 34.909 34.909 34.909h1047.274c19.268 0 34.907-15.639 34.907-34.909s-15.639-34.909-34.907-34.909zM709.831 238.544c-8.053 0-16.102 2.748-22.713 8.425-14.615 12.567-16.338 34.583-3.772 49.246l50.318 58.692-50.364 58.741c-12.567 14.615-10.846 36.679 3.769 49.246 14.709 12.567 36.725 10.846 49.246-3.772l69.82-81.454c11.216-13.079 11.216-32.35 0-45.474l-69.82-81.456c-6.889-8.050-16.663-12.194-26.485-12.194zM407.319 238.552c-9.822 0-19.595 4.144-26.533 12.197l-69.817 81.454c-11.218 13.079-11.218 32.35 0 45.474l69.817 81.456c12.57 14.615 34.586 16.384 49.246 3.769 14.615-12.567 16.338-34.583 3.772-49.246l-50.318-58.741 50.364-58.741c12.567-14.615 10.846-36.676-3.772-49.243-6.608-5.586-14.706-8.38-22.758-8.38zM523.622 168.724c-2.606 0-5.214 0.279-7.868 0.885-18.802 4.329-30.487 23.086-26.203 41.845l69.817 302.544c4.329 18.759 23.088 30.347 41.845 26.206 18.805-4.329 30.487-23.086 26.206-41.845l-69.82-302.544c-3.675-16.199-18.059-27.090-33.977-27.090z" />
<glyph unicode="&#xe918;" glyph-name="test" horiz-adv-x="1052" d="M725.333 533.333c-117.632 0-213.333 95.701-213.333 213.333s95.701 213.333 213.333 213.333c117.632 0 213.333-95.701 213.333-213.333s-95.701-213.333-213.333-213.333zM725.333 896c-82.347 0-149.333-66.987-149.333-149.333s66.987-149.333 149.333-149.333c82.347 0 149.333 66.987 149.333 149.333s-66.987 149.333-149.333 149.333zM992.003 447.997c-8.192 0-16.384 3.115-22.613 9.387l-120.235 120.235c-12.501 12.501-12.501 32.768 0 45.269s32.768 12.501 45.269 0l120.235-120.235c12.501-12.501 12.501-32.768 0-45.269-6.272-6.272-14.464-9.387-22.656-9.387zM906.667-64h-789.333c-64.725 0-117.333 52.608-117.333 117.333v704c0 64.725 52.608 117.333 117.333 117.333h314.453c17.664 0 32-14.336 32-32s-14.336-32-32-32h-314.453c-29.397 0-53.333-23.936-53.333-53.333v-704c0-29.397 23.936-53.333 53.333-53.333h789.333c29.397 0 53.333 23.936 53.333 53.333v298.667c0 17.664 14.336 32 32 32s32-14.336 32-32v-298.667c0-64.725-52.608-117.333-117.333-117.333zM421.12 661.333h-389.12c-17.664 0-32 14.336-32 32s14.336 32 32 32h389.12c17.664 0 32-14.336 32-32s-14.336-32-32-32zM586.698 127.997c-7.381 0-14.763 2.56-20.821 7.723-13.397 11.52-14.976 31.701-3.456 45.141l46.123 53.803-46.165 53.845c-11.52 13.397-9.941 33.621 3.456 45.141 13.44 11.52 33.621 9.899 45.141-3.456l64-74.667c10.283-11.989 10.283-29.653 0-41.685l-64-74.667c-6.315-7.381-15.275-11.179-24.277-11.179zM309.311 127.997c-9.003 0-17.963 3.797-24.32 11.179l-64.001 74.667c-10.283 11.989-10.283 29.653 0 41.685l64.001 74.667c11.477 13.397 31.659 14.976 45.141 3.456 13.397-11.52 14.976-31.701 3.456-45.141l-46.123-53.845 46.165-53.845c11.52-13.397 9.941-33.621-3.456-45.141-6.059-5.12-13.483-7.68-20.864-7.68zM415.986 64.003c-2.389 0-4.779 0.256-7.211 0.853-17.237 3.968-27.947 21.12-24.021 38.357l64 277.333c3.968 17.195 21.163 28.032 38.357 23.979 17.237-3.968 27.947-21.12 24.021-38.357l-64-277.333c-3.371-14.848-16.555-24.832-31.147-24.832z" />
<glyph unicode="&#xe919;" glyph-name="qa" d="M789.333 213.333c-70.569 0-128 57.428-128 128s57.431 128 128 128c70.572 0 128-57.428 128-128s-57.428-128-128-128zM789.333 405.333c-35.285 0-64-28.715-64-64s28.715-64 64-64c35.285 0 64 28.715 64 64s-28.715 64-64 64zM991.998-64c-17.662 0-31.998 14.336-31.998 32.002v64c0 29.395-23.937 53.332-53.335 53.332h-234.667c-29.395 0-53.332-23.937-53.332-53.332v-64c0-17.666-14.336-32.002-32.002-32.002-17.662 0-31.998 14.336-31.998 32.002v64c0 64.723 52.609 117.332 117.332 117.332h234.667c64.726 0 117.335-52.609 117.335-117.332v-64c0-17.666-14.336-32.002-32.002-32.002zM480.002 320c-7.894 0-15.661 2.901-21.718 8.49l-129.452 119.51h-211.498c-64.725 0-117.333 52.609-117.333 117.332v277.335c0 64.725 52.608 117.333 117.333 117.333h448.002c64.723 0 117.332-52.608 117.332-117.333v-277.335c0-64.723-52.609-117.332-117.332-117.332h-53.335v-96.002c0-12.713-7.553-24.191-19.158-29.352-4.139-1.75-8.49-2.647-12.84-2.647zM117.333 896c-29.397 0-53.333-23.936-53.333-53.333v-277.335c0-29.395 23.936-53.332 53.333-53.332h224c8.021 0 15.785-3.029 21.718-8.49l84.949-78.423v54.911c0 17.666 14.336 32.002 32.002 32.002h85.333c29.395 0 53.332 23.937 53.332 53.332v277.335c0 29.397-23.937 53.333-53.332 53.333h-448.002zM170.667 149.333c-47.061 0-85.333 38.273-85.333 85.333s38.272 85.333 85.333 85.333c47.061 0 85.333-38.273 85.333-85.333s-38.272-85.333-85.333-85.333zM170.667 256c-11.733 0-21.333-9.601-21.333-21.333s9.6-21.333 21.333-21.333c11.733 0 21.333 9.601 21.333 21.333s-9.6 21.333-21.333 21.333zM309.333-64c-17.664 0-32 14.336-32 31.998v21.336c0 29.395-23.936 53.332-53.333 53.332h-106.667c-29.397 0-53.333-23.937-53.333-53.332v-21.336c0-17.662-14.336-31.998-32-31.998s-32 14.336-32 31.998v21.336c0 64.723 52.608 117.332 117.333 117.332h106.667c64.725 0 117.333-52.609 117.333-117.332v-21.336c0-17.662-14.336-31.998-32-31.998zM479.989 597.333c-7.382 0-14.805 2.52-20.821 7.723-13.399 11.522-14.975 31.701-3.457 45.142l46.123 53.803-46.123 53.845c-11.518 13.397-9.942 33.621 3.457 45.141 13.439 11.477 33.621 9.941 45.14-3.456l64-74.667c10.283-11.989 10.283-29.653 0-41.685l-64-74.667c-6.355-7.382-15.317-11.18-24.318-11.18zM202.656 597.333c-9.003 0-17.963 3.795-24.277 11.177l-64 74.667c-10.283 11.989-10.283 29.653 0 41.685l64 74.667c11.563 13.397 31.701 14.976 45.141 3.456s14.976-31.701 3.456-45.141l-46.165-53.845 46.123-53.845c11.52-13.396 9.941-33.622-3.456-45.14-6.016-5.12-13.44-7.68-20.821-7.68zM330.696 576c-1.151 0-2.389 0.043-3.584 0.171-17.536 1.964-30.208 17.793-28.245 35.371l21.335 192c1.918 17.536 17.662 30.165 35.328 28.288 17.535-1.963 30.208-17.792 28.244-35.371l-21.333-191.998c-1.79-16.344-15.658-28.461-31.744-28.461z" />
<glyph unicode="&#xe91a;" glyph-name="pre-production" d="M131.332 113.379l359.341-174.756c3.55-1.728 7.444-2.625 11.391-2.625 3.95 0 7.844 0.897 11.394 2.625l357.565 174.756c4.354 2.144 8.021 5.464 10.588 9.582s3.932 8.875 3.941 13.728v194.616l92.396 53.828c6.371 3.671 11.832 8.726 15.984 14.792s6.889 12.989 8.003 20.257c1.114 7.267 0.577 14.69-1.567 21.721-2.141 7.035-5.84 13.492-10.82 18.904l-95.424 103.474 90.304 107.761c5.551 6.621 9.554 14.4 11.708 22.768 2.157 8.368 2.411 17.112 0.748 25.591-1.666 8.479-5.207 16.478-10.364 23.411s-11.798 12.623-19.44 16.655l-313.561 159.289c-3.063 1.826-6.47 3.002-10.007 3.457-3.534 0.455-7.128 0.178-10.553-0.813s-6.609-2.676-9.356-4.949c-2.749-2.273-4.999-5.087-6.613-8.266-1.617-3.179-2.56-6.656-2.774-10.215-0.217-3.559 0.301-7.125 1.524-10.475 1.219-3.35 3.115-6.415 5.567-9.002 2.454-2.588 5.415-4.643 8.695-6.040l313.561-159.185c0.773-0.414 1.446-0.996 1.964-1.705s0.872-1.524 1.033-2.387c0.158-0.863 0.124-1.752-0.106-2.599s-0.645-1.633-1.219-2.297l-92.082-109.016-136.819 72.434c-3.025 1.687-6.358 2.753-9.802 3.135s-6.929 0.072-10.252-0.91c-3.32-0.983-6.414-2.62-9.095-4.813-2.684-2.194-4.9-4.902-6.523-7.964-1.62-3.062-2.613-6.417-2.92-9.868-0.31-3.451 0.074-6.929 1.13-10.231 1.055-3.299 2.759-6.358 5.008-8.989 2.253-2.634 5.005-4.794 8.102-6.349l110.791-58.635-303.107-151.869-300.706 148.316 110.060 60.515c3.121 1.576 5.889 3.767 8.145 6.436 2.256 2.672 3.95 5.769 4.98 9.107 1.033 3.339 1.381 6.851 1.027 10.327s-1.406 6.847-3.091 9.909-3.972 5.753-6.718 7.912c-2.749 2.16-5.903 3.743-9.277 4.658s-6.896 1.139-10.358 0.662c-3.462-0.477-6.793-1.646-9.793-3.439l-132.636-72.432-94.068 111.94c-0.555 0.663-0.955 1.441-1.173 2.277s-0.248 1.711-0.088 2.56c0.16 0.849 0.506 1.653 1.013 2.353s1.163 1.278 1.921 1.695l310.948 158.662c5.927 3.266 10.346 8.711 12.325 15.182s1.359 13.457-1.725 19.479c-3.088 6.022-8.397 10.605-14.805 12.778s-13.408 1.765-19.521-1.137l-310.844-159.289c-7.609-4.053-14.218-9.754-19.343-16.687s-8.637-14.923-10.279-23.387c-1.643-8.464-1.375-17.187 0.785-25.534s6.155-16.106 11.696-22.711l89.992-108.075-95.427-103.893c-4.9-5.405-8.532-11.838-10.63-18.826s-2.61-14.355-1.499-21.566c1.112-7.211 3.819-14.082 7.924-20.114s9.505-11.069 15.806-14.749l92.396-53.409v-194.513c-0.082-4.952 1.252-9.827 3.844-14.047s6.335-7.615 10.789-9.784zM168.645 301.515l137.758-79.54c11.723-6.799 25.298-9.712 38.778-8.322 13.483 1.387 26.177 7.010 36.268 16.058l0.835 0.732 94.068 91.456v-318.371l-307.707 149.883v148.105zM833.604 153.411l-305.41-149.777v315.861l92.607-90.096c10.088-9.048 22.786-14.671 36.265-16.061 13.483-1.387 27.055 1.527 38.779 8.325l137.759 79.853v-148.105zM853.672 531.462l95.114-103.582-278.966-161.168c-2.194-1.266-4.729-1.825-7.252-1.601-2.526 0.223-4.918 1.223-6.858 2.855l-111.417 108.389 309.378 155.108zM145.756 528.638l311.262-153.122-110.477-107.657c-1.939-1.632-4.335-2.628-6.858-2.855-2.526-0.223-5.058 0.335-7.255 1.601l-278.964 161.274 92.292 100.758zM500.112 960c-6.904 0-13.523-2.742-18.404-7.623s-7.624-11.5-7.624-18.403v-270.812l-70.969 70.969c-4.921 4.655-11.469 7.206-18.243 7.11s-13.247-2.829-18.038-7.62c-4.791-4.791-7.525-11.262-7.618-18.037-0.096-6.775 2.454-13.32 7.109-18.244l114.973-114.973c4.878-4.875 11.497-7.615 18.395-7.615s13.514 2.74 18.395 7.615l114.973 114.973c2.529 2.39 4.552 5.263 5.952 8.449 1.396 3.186 2.144 6.619 2.194 10.099 0.047 3.479-0.602 6.932-1.911 10.156s-3.249 6.152-5.71 8.612c-2.461 2.46-5.39 4.402-8.614 5.711s-6.678 1.958-10.156 1.909c-3.478-0.049-6.91-0.795-10.097-2.194s-6.060-3.422-8.45-5.951l-70.237-70.969v270.603c0.028 3.427-0.621 6.825-1.911 10-1.288 3.175-3.193 6.064-5.601 8.502s-5.272 4.375-8.434 5.703c-3.159 1.327-6.547 2.017-9.973 2.031z" />
<glyph unicode="&#xe91b;" glyph-name="production" d="M512-64c-13.408 0-26.816 2.464-39.072 7.424l-425.888 172.992c-28.992 11.744-47.040 35.744-47.040 62.688v537.824c0 26.88 18.016 50.88 47.040 62.656l425.824 172.928c24.512 9.984 53.76 9.984 78.24 0l425.824-172.928c29.056-11.776 47.072-35.808 47.072-62.656v-537.824c0-26.912-18.016-50.944-47.104-62.688l-425.792-172.96c-12.256-4.96-25.696-7.456-39.104-7.456zM64.192 179.328c0.608 0 2.752-1.92 6.912-3.584l425.888-172.96c8.992-3.616 21.088-3.616 30.112 0l425.792 172.96c0 0 0 0 0.032 0 4.928 1.984 7.072 4.352 7.392 4.992l-0.32 536.192c0-0.96-2.112 1.344-7.168 3.392l-425.792 172.928c-8.992 3.616-21.056 3.648-30.048 0l-425.856-172.928c-4.96-2.048-7.104-4.384-7.456-5.056l0.32-536.16c0 0.16 0.064 0.224 0.192 0.224zM512.029-64.006c-17.664 0-32 14.304-32 32v554.336l-441.408 176.543c-16.416 6.592-24.384 25.184-17.824 41.6s25.12 24.384 41.6 17.824l461.536-184.607c12.128-4.832 20.096-16.608 20.096-29.696v-576c0-17.696-14.336-32-32-32zM512.026 512c-12.704 0-24.704 7.616-29.728 20.128-6.56 16.416 1.408 35.040 17.824 41.6l461.536 184.608c16.256 6.464 35.040-1.408 41.6-17.824s-1.44-35.040-17.856-41.6l-461.504-184.608c-3.872-1.568-7.904-2.304-11.872-2.304zM768.006 607.994c-4.224 0-8.512 0.832-12.608 2.624l-447.999 192.001c-16.224 6.912-23.776 25.728-16.8 41.984 6.944 16.224 25.76 23.808 42.014 16.8l448-192c16.256-6.944 23.776-25.76 16.8-42.017-5.184-12.128-16.992-19.392-29.408-19.392zM768 480c-17.696 0-32 14.336-32 32v128c0 17.664 14.304 32 32 32s32-14.336 32-32v-128c0-17.664-14.304-32-32-32z" />
<glyph unicode="&#xe91c;" glyph-name="bar-chart" d="M914.287 960h-73.144c-29.1 0-57.007-11.559-77.583-32.135-20.57-20.575-32.13-48.482-32.13-77.58v-804.573c0-29.094 11.559-57.001 32.13-77.577 20.576-20.576 48.483-32.136 77.583-32.136h73.144c29.094 0 57.001 11.559 77.577 32.136s32.136 48.483 32.136 77.577v804.573c0 29.098-11.559 57.004-32.136 77.58s-48.483 32.135-77.577 32.135zM950.856 45.713c0-9.698-3.855-18.998-10.71-25.859-6.861-6.855-16.161-10.71-25.859-10.71h-73.144c-9.698 0-19.004 3.855-25.859 10.71-6.861 6.861-10.716 16.161-10.716 25.859v804.573c0 9.7 3.855 19.001 10.716 25.86 6.855 6.858 16.161 10.711 25.859 10.711h73.144c9.698 0 18.998-3.853 25.859-10.711 6.855-6.859 10.71-16.161 10.71-25.86v-804.573zM548.571 667.429h-73.143c-29.098 0-57.004-11.559-77.58-32.135s-32.134-48.482-32.134-77.579v-512.002c0-29.094 11.559-57.001 32.134-77.577s48.482-32.136 77.58-32.136h73.143c29.098 0 57.004 11.559 77.581 32.136s32.136 48.483 32.136 77.577v512.002c0 29.098-11.559 57.004-32.136 77.579s-48.482 32.135-77.581 32.135zM585.143 45.713c0-9.698-3.853-18.998-10.712-25.859-6.858-6.855-16.161-10.71-25.86-10.71h-73.143c-9.7 0-19.002 3.855-25.86 10.71-6.858 6.861-10.712 16.161-10.712 25.859v512.002c0 9.699 3.853 19.001 10.712 25.86s16.161 10.712 25.86 10.712h73.143c9.7 0 19.002-3.853 25.86-10.712s10.712-16.161 10.712-25.86v-512.002zM182.857 448h-73.143c-29.098 0-57.004-11.559-77.58-32.134s-32.135-48.482-32.135-77.578v-292.575c0-29.094 11.559-57.001 32.135-77.577s48.482-32.136 77.58-32.136h73.143c29.098 0 57.004 11.559 77.58 32.136s32.134 48.483 32.134 77.577v292.575c0 29.096-11.559 57.002-32.134 77.578s-48.482 32.134-77.58 32.134zM219.429 45.713c0-9.698-3.853-18.998-10.712-25.859-6.858-6.855-16.161-10.71-25.86-10.71h-73.143c-9.7 0-19.001 3.855-25.86 10.71-6.858 6.861-10.711 16.161-10.711 25.859v292.575c0 9.698 3.853 18.998 10.711 25.858 6.859 6.858 16.161 10.711 25.86 10.711h73.143c9.7 0 19.002-3.853 25.86-10.711 6.858-6.86 10.712-16.161 10.712-25.858v-292.575z" />
<glyph unicode="&#xe91d;" glyph-name="git-repository" horiz-adv-x="1241" d="M94.316 960c-50.106 0-94.316-39.416-94.316-90.527v-653.893c0-51.113 44.21-90.95 94.316-90.95h348.633c-1.759-24.191-5.005-45.677-10.947-62.315-8.251-23.096-18.441-36.489-37.053-45.472h-44.631c-22.323 0-40.422-18.097-40.422-40.423 0-22.323 18.099-40.42 40.422-40.42h512c22.323 0 40.42 18.097 40.42 40.42 0 22.326-18.097 40.423-40.42 40.423h-44.631c-18.615 8.983-28.802 22.376-37.053 45.472-5.945 16.638-9.188 38.124-10.947 62.315h348.632c50.105 0 94.314 39.837 94.314 90.95v653.893c0 51.112-44.209 90.527-94.314 90.527h-1024.001zM94.316 879.158h1024.001c9.61 0 13.473-5.059 13.473-9.685v-653.893c0-4.624-3.863-10.107-13.473-10.107h-1024.001c-9.609 0-13.474 5.483-13.474 10.107v653.893c0 4.626 3.864 9.685 13.474 9.685zM658.525 771.368c-17.091-0.66-32.61-12.534-37.050-29.052l-107.79-377.264c-7.717-20.793 5.204-44.007 26.528-50.105 21.833-6.246 46.418 6.076 50.946 27.788l107.79 377.264c7.478 24.494-14.829 52.216-40.423 51.368zM461.054 718.316c-2.275 0.162-4.462-0.162-6.737-0.418-6.284-0.687-12.394-2.867-17.687-6.315l-215.579-134.736c-11.597-7.224-18.946-20.865-18.946-34.527s7.35-26.882 18.946-34.105l215.579-134.737c17.97-11.245 44.758-4.918 56 13.051 11.245 17.973 4.915 44.336-13.051 55.581l-160.842 100.209 160.842 100.631c15.791 9.344 23.543 30.189 17.684 47.579-5.129 15.217-20.303 26.683-36.209 27.789v-0.004zM752.842 717.898c-17.275-0.526-33.482-13.181-37.894-29.894s3.339-36.070 18.103-45.053l160.846-100.631-160.846-100.209c-17.967-11.245-24.294-37.609-13.051-55.581 11.245-17.97 38.034-24.297 56-13.051l215.58 134.737c11.596 7.224 18.947 20.443 18.947 34.105s-7.351 27.304-18.947 34.527l-215.58 134.736c-6.851 4.368-15.037 6.6-23.158 6.315zM524.21 124.636h164.212c1.84-31.195 6.25-61.223 16.418-89.684 2.166-6.063 4.76-12.238 7.581-18.106h-212.21c2.818 5.868 5.412 12.043 7.578 18.106 10.172 28.461 14.578 58.489 16.421 89.684z" />
<glyph unicode="&#xe91e;" glyph-name="calender" horiz-adv-x="931" d="M837.818 866.909h-46.545v93.091h-93.091v-93.091h-465.455v93.091h-93.091v-93.091h-46.545c-51.2 0-93.091-41.891-93.091-93.091v-744.727c0-51.2 41.891-93.091 93.091-93.091h744.727c51.2 0 93.091 41.891 93.091 93.091v744.727c0 51.2-41.891 93.091-93.091 93.091zM837.818 29.091h-744.727v605.091h744.727v-605.091z" />
<glyph unicode="&#xe91f;" glyph-name="clock" horiz-adv-x="878" d="M585.143 960h-292.571v-97.524h292.571v97.524zM390.095 326.095h97.524v292.571h-97.524v-292.571zM781.653 648.899l69.242 69.242c-20.968 24.869-43.886 48.274-68.754 68.754l-69.242-69.242c-75.581 60.465-170.667 96.549-274.042 96.549-242.347 0-438.857-196.51-438.857-438.857s196.023-438.857 438.857-438.857c242.834 0 438.857 196.51 438.857 438.857 0 102.888-36.084 197.973-96.061 273.554zM438.857 33.524c-188.709 0-341.333 152.625-341.333 341.333s152.625 341.333 341.333 341.333c188.709 0 341.333-152.625 341.333-341.333s-152.625-341.333-341.333-341.333z" />
<glyph unicode="&#xe920;" glyph-name="checked" d="M512 960c-282.312 0-512-229.688-512-512s229.688-512 512-512 512 229.688 512 512-229.688 512-512 512zM512-0.001c-247.031 0-447.999 200.969-447.999 447.999s200.969 448.001 447.999 448.001 448.001-200.969 448.001-447.999-200.971-448.001-448.001-448.001zM447.999 333.25l-137.375 137.375-45.25-45.25 182.625-182.625 310.626 310.626-45.25 45.25z" />
<glyph unicode="&#xe921;" glyph-name="icons8-amazon-s3" d="M685.639 738.44l115.76 38.6 135.040-45.040v-182.16l-135.040-45-115.76 38.56-96.48-32.12v-154.36l-115.76-38.56v-154.36l-135.040-45.040-135.040 45.040v154.36l-115.76 38.56v182.16l135.040 45.040 115.76-38.6 96.48 32.12v154.36l135.040 45.040zM486.24 708.44l83.64-27.88 83.64 27.88-83.64 27.88zM717.719 708.44l83.68-27.88 83.64 27.88-83.64 27.88zM473.4 577.64l77.2-25.68v94.36l-77.2 25.68zM589.16 646.32v-94.36l77.16 25.68v94.36zM704.919 577.64l77.16-25.68v94.36l-77.16 25.68zM820.679 646.32v-94.36l77.16 25.68v94.36zM138.96 515.52l83.64-27.88 83.68 27.88-83.68 27.88zM370.48 515.52l83.64-27.88 83.64 27.88-83.64 27.88zM126.16 384.72l77.16-25.68v94.36l-77.16 25.68zM241.92 453.4v-94.36l77.16 25.68v94.36zM357.68 384.72l77.16-25.68v94.36l-77.16 25.68zM473.4 453.4v-94.36l77.2 25.68v94.36zM254.72 322.6l83.64-27.88 83.68 27.88-83.68 27.88zM241.92 191.801l77.16-25.68v94.36l-77.16 25.68zM357.68 260.481v-94.36l77.16 25.68v94.36zM357.68 260.481M569.88 777.040l-135.040-45.040v-154.36l-96.48-32.12-115.76 38.6-135.040-45.040v-182.16l115.76-38.56v-154.36l135.040-45.040 135.040 45.040v154.36l115.76 38.56v154.36l96.48 32.12 115.76-38.56 135.040 45v182.16l-135.040 45.040-115.76-38.6zM569.88 736.32l83.64-27.88-83.64-27.88-83.64 27.88zM801.4 736.32l83.64-27.88-83.64-27.88-83.68 27.88zM473.4 672l77.2-25.68v-94.36l-77.2 25.68zM666.32 672v-94.36l-77.16-25.68v94.36zM704.92 672l77.16-25.68v-94.36l-77.16 25.68zM897.84 672v-94.36l-77.16-25.68v94.36zM222.6 543.4l83.68-27.88-83.68-27.88-83.64 27.88zM454.12 543.4l83.64-27.88-83.64-27.88-83.64 27.88zM126.16 479.080l77.16-25.68v-94.36l-77.16 25.68zM319.080 479.080v-94.36l-77.16-25.68v94.36zM357.68 479.080l77.16-25.68v-94.36l-77.16 25.68zM550.6 479.080v-94.36l-77.2-25.68v94.36zM338.36 350.48l83.68-27.88-83.68-27.88-83.64 27.88zM241.92 286.16l77.16-25.68v-94.36l-77.16 25.68zM434.84 286.16v-94.36l-77.16-25.68v94.36z" />
<glyph unicode="&#xe922;" glyph-name="network-policy" d="M512 239.407c115.204 0 208.593 93.389 208.593 208.593s-93.389 208.593-208.593 208.593c-115.204 0-208.593-93.389-208.593-208.593s93.389-208.593 208.593-208.593zM646.569 496.344c8.973 7.919 9.827 21.614 1.908 30.587-7.923 8.973-21.618 9.827-30.591 1.904l-121.306-107.084-66.010 53.984c-9.265 7.574-22.919 6.208-30.496-3.061-7.578-9.265-6.208-22.919 3.057-30.492l75.988-62.142c10.688-8.742 26.131-8.45 36.481 0.686l130.97 115.617zM0 456.564c0 277.595 225.841 503.436 503.436 503.436s503.436-225.841 503.436-503.436c0-277.595-225.841-503.436-503.436-503.436s-503.436 225.841-503.436 503.436zM316.997 760.706c28.461 49.538 60.043 89.88 88.234 120.623-60.914-14.096-116.863-40.98-165.092-77.664 14.801-11.042 40.376-27.722 76.858-42.96zM286.522 700.395c-49.236 21.144-81.624 44.772-97.465 57.929-68.031-70.85-112.266-164.422-120.254-268.195h167.678c4.43 79.978 23.594 150.291 50.042 210.267zM236.514 423.003h-167.678c7.954-103.743 52.189-197.348 120.254-268.197 15.841 13.157 48.229 36.784 97.465 57.928-26.447 59.976-45.645 130.287-50.041 210.269zM316.963 152.421c-36.482-15.269-62.057-31.918-76.824-42.959 48.263-36.686 104.178-63.568 165.092-77.665-28.191 30.743-59.807 71.085-88.268 120.623zM382.881 174c29.029-47.825 60.882-85.785 86.991-112.466v125.489c-32.116-1.98-61.148-6.713-86.991-13.024zM440.828 251.862c-33.265-3.44-63.311-9.432-90.302-16.911-24.366 53.665-42.356 116.664-46.887 188.052h1.251c-0.979 8.196-1.483 16.536-1.483 24.997 0 14.431 1.465 28.52 4.256 42.128h-3.991c4.531 71.286 22.588 134.281 47.055 187.981 34.604-9.565 74.206-16.714 119.145-19.131v-6.642c13.608 2.79 27.697 4.256 42.128 4.256 8.461 0 16.801-0.504 24.997-1.483v3.869c45.041 2.45 84.711 9.599 119.315 19.198 17.988-39.616 32.499-84.315 40.687-133.72 15.072-28.846 23.594-61.656 23.594-96.457 0-38.54-10.452-74.638-28.676-105.616-8.537-39.037-20.992-74.9-35.806-107.365-23.378 6.466-49.057 11.833-77.134 15.375-21.022-7.126-43.55-10.987-66.977-10.987-24.993 0-48.962 4.396-71.172 12.455zM383.147 739.059c25.812-6.276 54.708-10.975 86.725-12.955v125.221c-26.010-26.715-57.757-64.608-86.725-112.266zM770.359 490.128h167.644c-7.957 103.74-52.19 197.345-120.221 268.195-15.842-13.157-48.23-36.784-97.466-57.929 26.45-59.976 45.644-130.288 50.043-210.267zM689.876 760.706c36.515 15.271 62.089 31.918 76.857 42.96-48.23 36.684-104.179 63.567-165.095 77.664 28.194-30.743 59.775-71.085 88.238-120.623zM623.991 739.092c-29.032 47.86-60.917 85.786-86.994 112.468v-125.49c32.119 1.98 61.118 6.712 86.994 13.022zM623.722 174.103c-25.809 6.277-54.704 10.976-86.725 12.955v-125.22c26.013 26.681 57.761 64.573 86.725 112.265zM689.876 152.421c-28.429-49.539-60.010-89.881-88.269-120.623 60.947 14.097 116.861 40.979 165.092 77.665-14.768 11.074-40.342 27.724-76.823 42.959zM720.35 212.734c49.235-21.144 81.624-44.772 97.466-57.928 68.032 70.849 112.265 164.454 120.252 268.197h-167.674c-4.434-79.982-23.598-150.293-50.043-210.269z" />
<glyph unicode="&#xe923;" d="M269.474 960h485.053c148.826 0 269.474-120.647 269.474-269.474v-485.053c0-148.826-120.647-269.474-269.474-269.474h-485.053c-148.826 0-269.474 120.647-269.474 269.474v485.053c0 148.826 120.647 269.474 269.474 269.474z" />
<glyph unicode="&#xe924;" d="M350.316 259.368c0-29.642 24.253-53.895 53.895-53.895h215.579c29.642 0 53.895 24.253 53.895 53.895v269.474c0 29.642-24.253 53.895-53.895 53.895h-215.579c-29.642 0-53.895-24.253-53.895-53.895v-269.474zM431.158 528.842h161.684c14.821 0 26.947-12.126 26.947-26.947v-215.579c0-14.821-12.126-26.947-26.947-26.947h-161.684c-14.821 0-26.947 12.126-26.947 26.947v215.579c0 14.821 12.126 26.947 26.947 26.947zM606.316 663.579l-19.133 19.133c-4.851 4.851-11.857 7.815-18.863 7.815h-112.64c-7.006 0-14.013-2.964-18.863-7.815l-19.133-19.133h-67.368c-14.821 0-26.947-12.126-26.947-26.947s12.126-26.947 26.947-26.947h323.368c14.821 0 26.947 12.126 26.947 26.947s-12.126 26.947-26.947 26.947h-67.368z" />
<glyph unicode="&#xe925;" d="M269.474 960h485.053c148.826 0 269.474-120.647 269.474-269.474v-485.053c0-148.826-120.647-269.474-269.474-269.474h-485.053c-148.826 0-269.474 120.647-269.474 269.474v485.053c0 148.826 120.647 269.474 269.474 269.474z" />
<glyph unicode="&#xe926;" glyph-name="document" d="M917.806 730.924c-22.212 30.292-53.174 65.7-87.178 99.704s-69.412 64.964-99.704 87.178c-51.574 37.82-76.592 42.194-90.924 42.194h-496c-44.112 0-80-35.888-80-80v-864c0-44.112 35.888-80 80-80h736c44.112 0 80 35.888 80 80v624c0 14.332-4.372 39.35-42.194 90.924zM785.374 785.374c30.7-30.7 54.8-58.398 72.58-81.374h-153.954v153.946c22.984-17.78 50.678-41.878 81.374-72.572zM896 16c0-8.672-7.328-16-16-16h-736c-8.672 0-16 7.328-16 16v864c0 8.672 7.328 16 16 16 0 0 495.956 0.002 496 0v-224c0-17.672 14.326-32 32-32h224v-624zM736 128h-448c-17.672 0-32 14.326-32 32s14.328 32 32 32h448c17.674 0 32-14.326 32-32s-14.326-32-32-32zM736 256h-448c-17.672 0-32 14.326-32 32s14.328 32 32 32h448c17.674 0 32-14.326 32-32s-14.326-32-32-32zM736 384h-448c-17.672 0-32 14.326-32 32s14.328 32 32 32h448c17.674 0 32-14.326 32-32s-14.326-32-32-32z" />
<glyph unicode="&#xe927;" d="M755.351 503.371l-34.644 9.655-14.764 36.347 17.605 31.235c7.949 14.196 5.678 31.803-5.681 43.162l-29.532 29.529c-11.358 11.358-29.532 13.63-43.162 5.681l-31.235-17.605-36.347 14.764-9.653 34.643c-4.543 15.334-18.742 26.692-34.644 26.692h-41.459c-15.902 0-30.666-10.79-34.641-26.692l-9.655-34.643-36.347-14.764-31.235 17.605c-14.199 7.949-31.803 5.678-43.162-5.681l-30.098-29.529c-11.358-11.358-13.63-29.532-5.681-43.162l17.605-31.235-14.764-36.347-34.643-9.655c-15.334-4.543-26.692-18.742-26.692-34.644v-41.456c0-16.47 10.79-30.669 26.692-34.644l34.643-9.655 14.764-36.347-17.605-31.235c-7.949-14.196-5.678-31.803 5.681-43.162l29.529-29.529c11.358-11.358 29.532-13.63 43.162-5.681l31.235 17.605 36.347-14.764 9.655-34.644c4.543-15.333 18.742-26.691 34.644-26.691h41.456c15.902 0 30.669 10.79 34.644 26.691l9.655 34.644 36.347 14.764 31.235-17.605c14.196-7.949 31.803-5.678 43.162 5.681l29.529 29.529c11.358 11.358 13.63 28.966 5.681 43.162l-17.605 31.235 14.764 36.347 34.644 9.655c15.333 4.543 26.691 18.742 26.691 34.644v41.456c0.569 15.902-10.221 30.1-26.123 34.644zM751.373 426.703c0-2.272-1.703-5.112-3.975-5.681l-48.839-13.061-26.125-63.607 24.988-44.296c1.137-2.272 1.137-5.112-1.134-6.815l-29.532-29.532c-1.703-1.703-4.543-2.272-6.815-1.134l-44.296 24.988-63.607-26.125-13.63-48.839c-0.569-2.272-2.84-3.975-5.681-3.975h-41.456c-2.272 0-4.543 1.703-5.681 3.975l-13.061 48.839-63.607 26.125-44.296-24.988c-2.272-1.137-5.112-1.137-6.815 1.134l-29.532 29.532c-1.703 1.703-2.272 4.543-1.137 6.815l24.988 44.296-26.123 63.607-48.839 13.63c-2.272 0.569-3.977 2.84-3.977 5.681v41.456c0 2.84 1.706 4.543 3.977 5.681l48.839 13.63 26.123 63.607-24.988 43.727c-1.134 2.272-1.134 5.112 1.137 6.815l29.532 29.532c1.703 1.703 4.543 2.272 6.815 1.137l44.296-24.988 63.607 26.123 13.63 48.839c0.569 2.272 2.84 3.977 5.678 3.977h41.459c2.272 0 4.543-1.706 5.681-3.977l13.627-48.839 63.607-26.691 44.299 24.988c2.272 1.134 5.109 1.134 6.815-1.137l29.532-29.532c1.703-1.703 2.272-4.543 1.134-6.815l-24.988-44.296 25.557-63.038 48.839-13.63c2.272-0.569 3.975-2.84 3.975-5.678v-41.459z" />
<glyph unicode="&#xe928;" d="M512.302 549.942c-56.223 0-102.222-46.002-102.222-102.225s45.999-102.225 102.222-102.225c56.223 0 102.225 46.002 102.225 102.225s-46.002 102.225-102.225 102.225zM512.302 376.161c-39.753 0-71.556 32.369-71.556 71.556 0 39.753 32.372 71.556 71.556 71.556 39.187 0 71.559-31.803 71.559-71.556s-31.803-71.556-71.559-71.556z" />
<glyph unicode="&#xe929;" glyph-name="arrow-right-circle" d="M981.333 426.667c0 129.579-52.565 246.997-137.472 331.861s-202.283 137.472-331.861 137.472-246.997-52.565-331.861-137.472-137.472-202.283-137.472-331.861 52.565-246.997 137.472-331.861 202.283-137.472 331.861-137.472 246.997 52.565 331.861 137.472 137.472 202.283 137.472 331.861zM896 426.667c0-106.069-42.923-201.984-112.469-271.531s-165.461-112.469-271.531-112.469-201.984 42.923-271.531 112.469-112.469 165.461-112.469 271.531 42.923 201.984 112.469 271.531 165.461 112.469 271.531 112.469 201.984-42.923 271.531-112.469 112.469-165.461 112.469-271.531zM341.333 384h238.336l-97.835-97.835c-16.683-16.683-16.683-43.691 0-60.331s43.691-16.683 60.331 0l170.667 170.667c3.925 3.925 7.083 8.619 9.259 13.824 4.309 10.453 4.309 22.229 0 32.683-2.091 5.035-5.163 9.728-9.259 13.824l-170.667 170.667c-16.683 16.683-43.691 16.683-60.331 0s-16.683-43.691 0-60.331l97.835-97.835h-238.336c-23.552 0-42.667-19.115-42.667-42.667s19.115-42.667 42.667-42.667z" />
<glyph unicode="&#xe92a;" d="M219.429 960h585.143c121.187 0 219.429-98.242 219.429-219.429v-585.143c0-121.187-98.242-219.429-219.429-219.429h-585.143c-121.187 0-219.429 98.242-219.429 219.429v585.143c0 121.187 98.242 219.429 219.429 219.429z" />
<glyph unicode="&#xe92b;" d="M768 448c0-141.385-114.615-256-256-256s-256 114.615-256 256c0 141.385 114.615 256 256 256s256-114.615 256-256z" />
<glyph unicode="&#xe92c;" d="M479.525 393.644l-62.241 62.245c-10.924 10.92-28.628 10.92-39.548 0l-1.463-1.459c-10.919-10.924-10.919-28.628 0-39.548l83.478-83.478c10.92-10.92 28.628-10.92 39.548 0l165.493 165.493c10.92 10.92 10.92 28.628 0 39.548l-1.459 1.459c-10.92 10.92-28.628 10.92-39.548 0l-144.26-144.26z" />
<glyph unicode="&#xe92d;" d="M219.429 960h585.143c121.187 0 219.429-98.242 219.429-219.429v-585.143c0-121.187-98.242-219.429-219.429-219.429h-585.143c-121.187 0-219.429 98.242-219.429 219.429v585.143c0 121.187 98.242 219.429 219.429 219.429z" />
<glyph unicode="&#xe92e;" d="M512 704c-141.166 0-256-114.834-256-256s114.834-256 256-256c141.166 0 256 114.834 256 256s-114.834 256-256 256z" />
<glyph unicode="&#xe92f;" glyph-name="folder" d="M448 832l128-128h448v-704h-1024v832z" />
<glyph unicode="&#xe930;" d="M606.303 383.901c8.338-8.342 8.338-21.822 0-30.168-4.162-4.158-9.622-6.25-15.086-6.25s-10.924 2.092-15.082 6.25l-64.106 64.11-64.106-64.11c-4.162-4.158-9.622-6.25-15.082-6.25-5.464 0-10.928 2.092-15.086 6.25-8.342 8.346-8.342 21.826 0 30.168l64.11 64.106-64.11 64.106c-8.342 8.342-8.342 21.822 0 30.168 8.342 8.338 21.822 8.338 30.168 0l64.106-64.11 64.106 64.11c8.342 8.338 21.822 8.338 30.168 0 8.338-8.346 8.338-21.826 0-30.168l-64.11-64.106 64.11-64.106z" />
<glyph unicode="&#xe931;" glyph-name="arrow-left-circle" d="M981.333 426.667c0 129.579-52.565 246.997-137.472 331.861s-202.283 137.472-331.861 137.472-246.997-52.565-331.861-137.472-137.472-202.283-137.472-331.861 52.565-246.997 137.472-331.861 202.283-137.472 331.861-137.472 246.997 52.565 331.861 137.472 137.472 202.283 137.472 331.861zM896 426.667c0-106.069-42.923-201.984-112.469-271.531s-165.461-112.469-271.531-112.469-201.984 42.923-271.531 112.469-112.469 165.461-112.469 271.531 42.923 201.984 112.469 271.531 165.461 112.469 271.531 112.469 201.984-42.923 271.531-112.469 112.469-165.461 112.469-271.531zM682.667 469.334h-238.336l97.835 97.835c16.683 16.683 16.683 43.691 0 60.331s-43.691 16.683-60.331 0l-170.667-170.667c-4.096-4.096-7.168-8.789-9.259-13.824-2.176-5.205-3.243-10.795-3.243-16.341 0-10.923 4.181-21.845 12.501-30.165l170.667-170.667c16.683-16.683 43.691-16.683 60.331 0s16.683 43.691 0 60.331l-97.835 97.835h238.336c23.552 0 42.667 19.115 42.667 42.667s-19.115 42.667-42.667 42.667z" />
<glyph unicode="&#xe932;" glyph-name="arrow-down-circle" d="M981.333 426.667c0 129.579-52.565 246.997-137.472 331.861s-202.283 137.472-331.861 137.472-246.997-52.565-331.861-137.472-137.472-202.283-137.472-331.861 52.565-246.997 137.472-331.861 202.283-137.472 331.861-137.472 246.997 52.565 331.861 137.472 137.472 202.283 137.472 331.861zM896 426.667c0-106.069-42.923-201.984-112.469-271.531s-165.461-112.469-271.531-112.469-201.984 42.923-271.531 112.469-112.469 165.461-112.469 271.531 42.923 201.984 112.469 271.531 165.461 112.469 271.531 112.469 201.984-42.923 271.531-112.469 112.469-165.461 112.469-271.531zM469.333 597.334v-238.336l-97.835 97.835c-16.683 16.683-43.691 16.683-60.331 0s-16.683-43.691 0-60.331l170.667-170.667c3.925-3.925 8.619-7.083 13.824-9.259 10.453-4.309 22.229-4.309 32.683 0 5.035 2.091 9.728 5.163 13.824 9.259l170.667 170.667c16.683 16.683 16.683 43.691 0 60.331s-43.691 16.683-60.331 0l-97.835-97.835v238.336c0 23.552-19.115 42.667-42.667 42.667s-42.667-19.115-42.667-42.667z" />
<glyph unicode="&#xe933;" glyph-name="arrow-up-circle" d="M981.333 426.667c0 129.579-52.565 246.997-137.472 331.861s-202.283 137.472-331.861 137.472-246.997-52.565-331.861-137.472-137.472-202.283-137.472-331.861 52.565-246.997 137.472-331.861 202.283-137.472 331.861-137.472 246.997 52.565 331.861 137.472 137.472 202.283 137.472 331.861zM896 426.667c0-106.069-42.923-201.984-112.469-271.531s-165.461-112.469-271.531-112.469-201.984 42.923-271.531 112.469-112.469 165.461-112.469 271.531 42.923 201.984 112.469 271.531 165.461 112.469 271.531 112.469 201.984-42.923 271.531-112.469 112.469-165.461 112.469-271.531zM554.667 256v238.336l97.835-97.835c16.683-16.683 43.691-16.683 60.331 0s16.683 43.691 0 60.331l-170.667 170.667c-4.096 4.096-8.789 7.168-13.824 9.259-5.205 2.176-10.795 3.243-16.341 3.243-10.923 0-21.845-4.181-30.165-12.501l-170.667-170.667c-16.683-16.683-16.683-43.691 0-60.331s43.691-16.683 60.331 0l97.835 97.835v-238.336c0-23.552 19.115-42.667 42.667-42.667s42.667 19.115 42.667 42.667z" />
<glyph unicode="&#xe934;" glyph-name="download" d="M641.862 318.189c11.514 11.123 29.766 11.123 41.286 0 11.802-11.398 12.128-30.208 0.73-42.010l-148.616-148.614c-11.617-11.584-30.43-11.558-42.019 0.058l-148.559 148.557c-11.121 11.514-11.121 29.766 0 41.28 11.4 11.805 30.209 12.132 42.012 0.73l97.842-97.837v581.935c0 16.41 13.302 29.713 29.713 29.713s29.713-13.302 29.713-29.713v-581.935l97.898 97.837zM841.088 267.405c0 16.41 13.299 29.715 29.709 29.715s29.715-13.306 29.715-29.715v-178.272c0-49.222-39.91-89.133-89.139-89.133h-594.237c-49.229 0-89.136 39.91-89.136 89.133v178.272c0 16.41 13.302 29.715 29.713 29.715s29.713-13.306 29.713-29.715v-178.272c0-16.41 13.302-29.709 29.712-29.709h594.236c16.41 0 29.715 13.299 29.715 29.709v178.272z" />
<glyph unicode="&#xe986;" glyph-name="search" d="M992.262 88.604l-242.552 206.294c-25.074 22.566-51.89 32.926-73.552 31.926 57.256 67.068 91.842 154.078 91.842 249.176 0 212.078-171.922 384-384 384-212.076 0-384-171.922-384-384s171.922-384 384-384c95.098 0 182.108 34.586 249.176 91.844-1-21.662 9.36-48.478 31.926-73.552l206.294-242.552c35.322-39.246 93.022-42.554 128.22-7.356s31.892 92.898-7.354 128.22zM384 320c-141.384 0-256 114.616-256 256s114.616 256 256 256 256-114.616 256-256-114.614-256-256-256z" />
<glyph unicode="&#xe98b;" glyph-name="enlarge2" d="M1024 960v-416l-160 160-192-192-96 96 192 192-160 160zM448 288l-192-192 160-160h-416v416l160-160 192 192z" />
<glyph unicode="&#xea0b;" glyph-name="minus" d="M0 544v-192c0-17.672 14.328-32 32-32h960c17.672 0 32 14.328 32 32v192c0 17.672-14.328 32-32 32h-960c-17.672 0-32-14.328-32-32z" />
<glyph unicode="&#xea56;" glyph-name="circle-outline" d="M512 960c-282.77 0-512-229.23-512-512s229.23-512 512-512 512 229.23 512 512-229.23 512-512 512zM512 64c-212.078 0-384 171.922-384 384s171.922 384 384 384c212.078 0 384-171.922 384-384s-171.922-384-384-384z" />
</font>
</defs>
</svg>
