<svg width="56" height="57" viewBox="0 0 56 57" fill="none" xmlns="http://www.w3.org/2000/svg">
<path d="M28.0047 16.8027H29.8718C30.3873 16.8027 30.8052 16.3847 30.8052 15.8692C30.8052 15.3538 30.3872 14.9358 29.8718 14.9358H28.0047C27.4892 14.9358 27.0713 15.3537 27.0713 15.8692C27.0713 16.3848 27.4892 16.8027 28.0047 16.8027Z" fill="#4164A9"/>
<path d="M22.4039 16.8027H24.2709C24.7865 16.8027 25.2044 16.3847 25.2044 15.8692C25.2044 15.3538 24.7865 14.9358 24.2709 14.9358H22.4039C21.8883 14.9358 21.4705 15.3537 21.4705 15.8692C21.4705 16.3848 21.8883 16.8027 22.4039 16.8027Z" fill="#4164A9"/>
<path d="M8.40155 18.6698C9.94816 18.6698 11.202 17.4159 11.202 15.8693C11.202 14.3227 9.94816 13.0688 8.40155 13.0688C6.85495 13.0688 5.60107 14.3226 5.60107 15.8693C5.60107 17.416 6.85495 18.6698 8.40155 18.6698ZM8.40155 14.9359C8.91713 14.9359 9.33501 15.3538 9.33501 15.8693C9.33501 16.3849 8.91713 16.8028 8.40155 16.8028C7.88598 16.8028 7.4681 16.3848 7.4681 15.8693C7.4681 15.3539 7.88598 14.9359 8.40155 14.9359Z" fill="#4164A9"/>
<path d="M28.0047 28.0046H29.8718C30.3873 28.0046 30.8052 27.5867 30.8052 27.0712C30.8052 26.5556 30.3872 26.1377 29.8718 26.1377H28.0047C27.4892 26.1377 27.0713 26.5556 27.0713 27.0712C27.0713 27.5867 27.4892 28.0046 28.0047 28.0046Z" fill="#4164A9"/>
<path d="M22.4039 28.0046H24.2709C24.7865 28.0046 25.2044 27.5867 25.2044 27.0712C25.2044 26.5556 24.7865 26.1377 24.2709 26.1377H22.4039C21.8883 26.1377 21.4705 26.5556 21.4705 27.0712C21.4705 27.5867 21.8883 28.0046 22.4039 28.0046Z" fill="#4164A9"/>
<path d="M8.40155 29.8717C9.94816 29.8717 11.202 28.618 11.202 27.0712C11.202 25.5246 9.94816 24.2708 8.40155 24.2708C6.85495 24.2708 5.60107 25.5245 5.60107 27.0712C5.60107 28.618 6.85495 29.8717 8.40155 29.8717ZM8.40155 26.1378C8.91713 26.1378 9.33501 26.5557 9.33501 27.0712C9.33501 27.5868 8.91713 28.0047 8.40155 28.0047C7.88598 28.0047 7.4681 27.5868 7.4681 27.0712C7.4681 26.5557 7.88598 26.1378 8.40155 26.1378Z" fill="#4164A9"/>
<path d="M29.8718 37.3396H28.0047C27.4892 37.3396 27.0713 37.7575 27.0713 38.2731C27.0713 38.7886 27.4892 39.2065 28.0047 39.2065H29.8718C30.3873 39.2065 30.8052 38.7886 30.8052 38.2731C30.8052 37.7575 30.3873 37.3396 29.8718 37.3396Z" fill="#4164A9"/>
<path d="M24.2709 37.3396H22.4039C21.8883 37.3396 21.4705 37.7575 21.4705 38.2731C21.4705 38.7886 21.8883 39.2065 22.4039 39.2065H24.2709C24.7865 39.2065 25.2044 38.7886 25.2044 38.2731C25.2044 37.7575 24.7865 37.3396 24.2709 37.3396Z" fill="#4164A9"/>
<path d="M8.40155 35.4727C6.85495 35.4727 5.60107 36.7265 5.60107 38.2731C5.60107 39.8197 6.85484 41.0736 8.40155 41.0736C9.94827 41.0736 11.202 39.8199 11.202 38.2731C11.202 36.7264 9.94827 35.4727 8.40155 35.4727ZM8.40155 39.2067C7.88598 39.2067 7.4681 38.7888 7.4681 38.2732C7.4681 37.7577 7.88598 37.3398 8.40155 37.3398C8.91713 37.3398 9.33501 37.7577 9.33501 38.2732C9.33501 38.7888 8.91713 39.2067 8.40155 39.2067Z" fill="#4164A9"/>
<path d="M38.2733 52.2755H28.9384C28.9384 51.2444 28.1025 50.4085 27.0714 50.4085H21.4704V44.8075H32.6723C35.2488 44.8045 37.3367 42.7166 37.3398 40.14V36.4061C37.3357 34.9312 36.6322 33.5458 35.4439 32.6722C36.6323 31.7985 37.3357 30.4131 37.3398 28.9382V25.2043C37.3357 23.7294 36.6322 22.344 35.4439 21.4703C36.6323 20.5967 37.3357 19.2113 37.3398 17.7364V14.0025C37.3368 11.426 35.2489 9.33813 32.6723 9.33496H4.66751C2.09095 9.33791 0.00306303 11.4258 0 14.0024V17.7363C0.00415696 19.2111 0.707669 20.5966 1.8959 21.4702C0.707559 22.3439 0.00415696 23.7293 0 25.2042V28.9381C0.00415696 30.413 0.707669 31.7984 1.8959 32.672C0.707559 33.5457 0.00415696 34.9311 0 36.406V40.1399C0.00306303 42.7164 2.09095 44.8043 4.66751 44.8074H15.8694V50.4084H10.2685C9.23732 50.4084 8.40144 51.2443 8.40144 52.2754H0.933567C0.417994 52.2754 0.000109394 52.6933 0.000109394 53.2089C0.000109394 53.7244 0.417994 54.1423 0.933567 54.1423H8.40155C8.40155 55.1735 9.23743 56.0094 10.2686 56.0094H27.0715C28.1026 56.0094 28.9385 55.1735 28.9385 54.1423H38.2734C38.789 54.1423 39.2068 53.7244 39.2068 53.2089C39.2068 52.6933 38.7889 52.2755 38.2733 52.2755ZM1.86702 17.7363V14.0024C1.86702 12.4557 3.1209 11.2019 4.66751 11.2019H32.6723C34.2189 11.2019 35.4728 12.4556 35.4728 14.0024V17.7363C35.4728 19.2829 34.219 20.5368 32.6723 20.5368H4.66751C3.12079 20.5368 1.86702 19.2829 1.86702 17.7363ZM1.86702 28.9382V25.2043C1.86702 23.6577 3.1209 22.4038 4.66751 22.4038H32.6723C34.2189 22.4038 35.4728 23.6577 35.4728 25.2043V28.9382C35.4728 30.4848 34.219 31.7387 32.6723 31.7387H4.66751C3.12079 31.7387 1.86702 30.4848 1.86702 28.9382ZM4.66751 42.9406C3.1209 42.9406 1.86702 41.6869 1.86702 40.1401V36.4062C1.86702 34.8596 3.1209 33.6057 4.66751 33.6057H32.6723C34.2189 33.6057 35.4728 34.8596 35.4728 36.4062V40.1401C35.4728 41.6868 34.219 42.9406 32.6723 42.9406H4.66751ZM19.6034 44.8076V50.4086H17.7363V44.8076H19.6034ZM27.0714 54.1425H10.2685V52.2755H27.0714V54.1425Z" fill="#4164A9"/>
<path d="M47.3233 6.24948C47.6834 5.88935 47.6884 5.30716 47.3347 4.94091L42.6671 0.273402C42.5802 0.186325 42.4767 0.117407 42.3628 0.0708051C42.1344 -0.0236017 41.878 -0.0236017 41.6497 0.0708051C41.5358 0.117407 41.4323 0.186216 41.3453 0.273402L36.6778 4.94091C36.3241 5.30716 36.3291 5.88946 36.6892 6.24948C37.0493 6.6096 37.6315 6.61463 37.9978 6.26085L41.0736 3.18689V17.7364C41.0736 18.2519 41.4915 18.6698 42.0071 18.6698C42.5226 18.6698 42.9405 18.2519 42.9405 17.7364V3.18678L46.0145 6.26074C46.381 6.61463 46.9632 6.60949 47.3233 6.24948Z" fill="#4164A9"/>
<path d="M55.7266 19.8883C55.3665 19.5281 54.7843 19.5231 54.418 19.8769H54.4162L51.3422 22.9508V8.40148C51.3422 7.8859 50.9243 7.46802 50.4088 7.46802C49.8932 7.46802 49.4753 7.8859 49.4753 8.40148V22.951L46.4013 19.877C46.0351 19.5232 45.4528 19.5282 45.0928 19.8884C44.7326 20.2485 44.7276 20.8307 45.0814 21.1969L49.7489 25.8644C49.924 26.04 50.1619 26.1387 50.4099 26.1387C50.6579 26.1387 50.8957 26.04 51.0708 25.8644L55.7383 21.1969C56.0918 20.8306 56.0867 20.2483 55.7266 19.8883Z" fill="#4164A9"/>
</svg>
