<?xml version="1.0" encoding="UTF-8"?>
<svg xmlns="http://www.w3.org/2000/svg" xmlns:xlink="http://www.w3.org/1999/xlink" width="32px" height="32px" viewBox="0 0 32 32" version="1.1">
<defs>
<linearGradient id="linear0" gradientUnits="userSpaceOnUse" x1="-4960.8643" y1="1037.3204" x2="-4545.2925" y2="1523.2587" gradientTransform="matrix(0.00310122,-0.00665083,0.00665083,0.00310122,26.811953,-27.068875)">
<stop offset="0" style="stop-color:rgb(96.470588%,60%,13.72549%);stop-opacity:1;"/>
<stop offset="0.3123" style="stop-color:rgb(96.862745%,60.392157%,13.72549%);stop-opacity:1;"/>
<stop offset="0.8383" style="stop-color:rgb(91.372549%,47.058824%,14.901961%);stop-opacity:1;"/>
</linearGradient>
<filter id="alpha" filterUnits="objectBoundingBox" x="0%" y="0%" width="100%" height="100%">
  <feColorMatrix type="matrix" in="SourceGraphic" values="0 0 0 0 1 0 0 0 0 1 0 0 0 0 1 0 0 0 1 0"/>
</filter>
<mask id="mask0">
  <g filter="url(#alpha)">
<rect x="0" y="0" width="32" height="32" style="fill:rgb(0%,0%,0%);fill-opacity:0.34902;stroke:none;"/>
  </g>
</mask>
<clipPath id="clip1">
  <rect x="0" y="0" width="32" height="32"/>
</clipPath>
<g id="surface5" clip-path="url(#clip1)">
<path style=" stroke:none;fill-rule:nonzero;fill:rgb(74.509804%,12.54902%,18.039216%);fill-opacity:1;" d="M 17.304688 17.195312 C 17.226562 17.210938 17.144531 17.222656 17.058594 17.238281 C 17.101562 17.234375 17.144531 17.226562 17.183594 17.21875 C 17.222656 17.210938 17.265625 17.203125 17.304688 17.195312 Z M 17.304688 17.195312 "/>
</g>
<mask id="mask1">
  <g filter="url(#alpha)">
<rect x="0" y="0" width="32" height="32" style="fill:rgb(0%,0%,0%);fill-opacity:0.34902;stroke:none;"/>
  </g>
</mask>
<clipPath id="clip2">
  <rect x="0" y="0" width="32" height="32"/>
</clipPath>
<g id="surface8" clip-path="url(#clip2)">
<path style=" stroke:none;fill-rule:nonzero;fill:rgb(74.509804%,12.54902%,18.039216%);fill-opacity:1;" d="M 17.507812 16.175781 C 17.519531 16.175781 17.535156 16.175781 17.546875 16.171875 C 17.597656 16.164062 17.652344 16.15625 17.699219 16.144531 C 17.640625 16.15625 17.574219 16.164062 17.507812 16.175781 Z M 17.507812 16.175781 "/>
</g>
<linearGradient id="linear1" gradientUnits="userSpaceOnUse" x1="-8036.5088" y1="983.6841" x2="-5071.6265" y2="983.6841" gradientTransform="matrix(0.00310122,-0.00665083,0.00665083,0.00310122,26.811953,-27.068875)">
<stop offset="0.3233" style="stop-color:rgb(61.960784%,12.54902%,39.215686%);stop-opacity:1;"/>
<stop offset="0.6302" style="stop-color:rgb(78.823529%,12.54902%,21.568627%);stop-opacity:1;"/>
<stop offset="0.7514" style="stop-color:rgb(80.392157%,13.72549%,20.784314%);stop-opacity:1;"/>
<stop offset="1" style="stop-color:rgb(91.372549%,47.058824%,14.901961%);stop-opacity:1;"/>
</linearGradient>
<linearGradient id="linear2" gradientUnits="userSpaceOnUse" x1="-7678.6079" y1="1281.0576" x2="-5911.8262" y2="1281.0576" gradientTransform="matrix(0.00310122,-0.00665083,0.00665083,0.00310122,26.811953,-27.068875)">
<stop offset="0" style="stop-color:rgb(15.686275%,14.901961%,38.431373%);stop-opacity:1;"/>
<stop offset="0.0954839" style="stop-color:rgb(40%,18.039216%,55.294118%);stop-opacity:1;"/>
<stop offset="0.7882" style="stop-color:rgb(62.352941%,12.54902%,39.215686%);stop-opacity:1;"/>
<stop offset="0.9487" style="stop-color:rgb(80.392157%,12.54902%,19.607843%);stop-opacity:1;"/>
</linearGradient>
<linearGradient id="linear3" gradientUnits="userSpaceOnUse" x1="-7869.9854" y1="956.0568" x2="-4905.1025" y2="956.0568" gradientTransform="matrix(0.00310122,-0.00665083,0.00665083,0.00310122,26.811953,-27.068875)">
<stop offset="0.3233" style="stop-color:rgb(61.960784%,12.54902%,39.215686%);stop-opacity:1;"/>
<stop offset="0.6302" style="stop-color:rgb(78.823529%,12.54902%,21.568627%);stop-opacity:1;"/>
<stop offset="0.7514" style="stop-color:rgb(80.392157%,13.72549%,20.784314%);stop-opacity:1;"/>
<stop offset="1" style="stop-color:rgb(91.372549%,47.058824%,14.901961%);stop-opacity:1;"/>
</linearGradient>
<linearGradient id="linear4" gradientUnits="userSpaceOnUse" x1="-7653.7529" y1="996.1702" x2="-6095.6182" y2="996.1702" gradientTransform="matrix(0.00310122,-0.00665083,0.00665083,0.00310122,26.811953,-27.068875)">
<stop offset="0" style="stop-color:rgb(15.686275%,14.901961%,38.431373%);stop-opacity:1;"/>
<stop offset="0.0954839" style="stop-color:rgb(40%,18.039216%,55.294118%);stop-opacity:1;"/>
<stop offset="0.7882" style="stop-color:rgb(62.352941%,12.54902%,39.215686%);stop-opacity:1;"/>
<stop offset="0.9487" style="stop-color:rgb(80.392157%,12.54902%,19.607843%);stop-opacity:1;"/>
</linearGradient>
<linearGradient id="linear5" gradientUnits="userSpaceOnUse" x1="-7869.9849" y1="1262.9109" x2="-4905.1035" y2="1262.9109" gradientTransform="matrix(0.00310122,-0.00665083,0.00665083,0.00310122,26.811953,-27.068875)">
<stop offset="0.3233" style="stop-color:rgb(61.960784%,12.54902%,39.215686%);stop-opacity:1;"/>
<stop offset="0.6302" style="stop-color:rgb(78.823529%,12.54902%,21.568627%);stop-opacity:1;"/>
<stop offset="0.7514" style="stop-color:rgb(80.392157%,13.72549%,20.784314%);stop-opacity:1;"/>
<stop offset="1" style="stop-color:rgb(91.372549%,47.058824%,14.901961%);stop-opacity:1;"/>
</linearGradient>
<linearGradient id="linear6" gradientUnits="userSpaceOnUse" x1="-8053.9058" y1="1247.6735" x2="-5089.0244" y2="1247.6735" gradientTransform="matrix(0.00310122,-0.00665083,0.00665083,0.00310122,26.811953,-27.068875)">
<stop offset="0.3233" style="stop-color:rgb(61.960784%,12.54902%,39.215686%);stop-opacity:1;"/>
<stop offset="0.6302" style="stop-color:rgb(78.823529%,12.54902%,21.568627%);stop-opacity:1;"/>
<stop offset="0.7514" style="stop-color:rgb(80.392157%,13.72549%,20.784314%);stop-opacity:1;"/>
<stop offset="1" style="stop-color:rgb(91.372549%,47.058824%,14.901961%);stop-opacity:1;"/>
</linearGradient>
<mask id="mask2">
  <g filter="url(#alpha)">
<rect x="0" y="0" width="32" height="32" style="fill:rgb(0%,0%,0%);fill-opacity:0.34902;stroke:none;"/>
  </g>
</mask>
<clipPath id="clip3">
  <rect x="0" y="0" width="32" height="32"/>
</clipPath>
<g id="surface11" clip-path="url(#clip3)">
<path style=" stroke:none;fill-rule:nonzero;fill:rgb(74.509804%,12.54902%,18.039216%);fill-opacity:1;" d="M 17.183594 17.21875 C 17.140625 17.226562 17.101562 17.230469 17.058594 17.238281 C 17.101562 17.230469 17.140625 17.226562 17.183594 17.21875 Z M 17.183594 17.21875 "/>
</g>
<linearGradient id="linear7" gradientUnits="userSpaceOnUse" x1="-7869.9834" y1="1354.1755" x2="-4905.1045" y2="1354.1755" gradientTransform="matrix(0.00310122,-0.00665083,0.00665083,0.00310122,26.811953,-27.068875)">
<stop offset="0.3233" style="stop-color:rgb(61.960784%,12.54902%,39.215686%);stop-opacity:1;"/>
<stop offset="0.6302" style="stop-color:rgb(78.823529%,12.54902%,21.568627%);stop-opacity:1;"/>
<stop offset="0.7514" style="stop-color:rgb(80.392157%,13.72549%,20.784314%);stop-opacity:1;"/>
<stop offset="1" style="stop-color:rgb(91.372549%,47.058824%,14.901961%);stop-opacity:1;"/>
</linearGradient>
<mask id="mask3">
  <g filter="url(#alpha)">
<rect x="0" y="0" width="32" height="32" style="fill:rgb(0%,0%,0%);fill-opacity:0.34902;stroke:none;"/>
  </g>
</mask>
<clipPath id="clip4">
  <rect x="0" y="0" width="32" height="32"/>
</clipPath>
<g id="surface14" clip-path="url(#clip4)">
<path style=" stroke:none;fill-rule:nonzero;fill:rgb(74.509804%,12.54902%,18.039216%);fill-opacity:1;" d="M 17.507812 16.175781 C 17.519531 16.175781 17.535156 16.175781 17.546875 16.171875 C 17.535156 16.175781 17.519531 16.175781 17.507812 16.175781 Z M 17.507812 16.175781 "/>
</g>
<linearGradient id="linear8" gradientUnits="userSpaceOnUse" x1="-7869.9829" y1="1343.7327" x2="-4905.1045" y2="1343.7327" gradientTransform="matrix(0.00310122,-0.00665083,0.00665083,0.00310122,26.811953,-27.068875)">
<stop offset="0.3233" style="stop-color:rgb(61.960784%,12.54902%,39.215686%);stop-opacity:1;"/>
<stop offset="0.6302" style="stop-color:rgb(78.823529%,12.54902%,21.568627%);stop-opacity:1;"/>
<stop offset="0.7514" style="stop-color:rgb(80.392157%,13.72549%,20.784314%);stop-opacity:1;"/>
<stop offset="1" style="stop-color:rgb(91.372549%,47.058824%,14.901961%);stop-opacity:1;"/>
</linearGradient>
</defs>
<g id="surface1">
<path style=" stroke:none;fill-rule:nonzero;fill:rgb(33.333333%,34.117647%,34.901961%);fill-opacity:1;" d="M 16 0 C 7.164062 0 0 7.164062 0 16 C 0 24.835938 7.164062 32 16 32 C 24.835938 32 32 24.835938 32 16 C 32 7.164062 24.835938 0 16 0 Z M 16.132812 26.789062 C 14.539062 26.789062 13.023438 26.4375 11.660156 25.816406 C 11.285156 26.914062 10.824219 28.128906 10.808594 28.171875 C 10.6875 28.53125 10.410156 28.765625 10.410156 28.765625 C 10.410156 28.765625 10.503906 28.457031 11.035156 26.789062 C 11.082031 26.640625 11.257812 26.109375 11.398438 25.691406 C 7.8125 23.9375 5.34375 20.257812 5.34375 16 C 5.34375 10.042969 10.175781 5.210938 16.132812 5.210938 C 22.089844 5.210938 26.921875 10.042969 26.921875 16 C 26.921875 21.957031 22.09375 26.789062 16.132812 26.789062 Z M 16.132812 26.789062 "/>
<path style=" stroke:none;fill-rule:nonzero;fill:rgb(100%,100%,100%);fill-opacity:1;" d="M 1.449219 15.296875 L 1.5625 14.304688 C 1.582031 14.128906 1.609375 14 1.632812 13.90625 C 1.667969 13.78125 1.722656 13.675781 1.792969 13.597656 C 1.863281 13.515625 1.957031 13.457031 2.074219 13.414062 C 2.183594 13.375 2.308594 13.359375 2.4375 13.375 C 2.664062 13.398438 2.847656 13.496094 2.984375 13.65625 C 3.121094 13.8125 3.171875 14.078125 3.128906 14.453125 L 3.050781 15.125 L 4.121094 15.25 L 4.082031 15.597656 Z M 2.820312 14.410156 C 2.84375 14.1875 2.820312 14.019531 2.746094 13.917969 C 2.675781 13.8125 2.558594 13.753906 2.410156 13.734375 C 2.296875 13.722656 2.203125 13.742188 2.117188 13.789062 C 2.03125 13.832031 1.972656 13.902344 1.9375 13.992188 C 1.914062 14.046875 1.894531 14.152344 1.878906 14.3125 L 1.800781 14.984375 L 2.742188 15.09375 Z M 2.820312 14.410156 "/>
<path style=" stroke:none;fill-rule:nonzero;fill:rgb(100%,100%,100%);fill-opacity:1;" d="M 2.238281 12.339844 C 2.078125 12.035156 2.054688 11.707031 2.171875 11.351562 C 2.25 11.121094 2.375 10.929688 2.550781 10.78125 C 2.722656 10.632812 2.921875 10.542969 3.15625 10.511719 C 3.386719 10.480469 3.625 10.503906 3.878906 10.589844 C 4.136719 10.675781 4.347656 10.804688 4.511719 10.972656 C 4.675781 11.140625 4.78125 11.339844 4.820312 11.566406 C 4.859375 11.785156 4.84375 12.003906 4.773438 12.222656 C 4.691406 12.460938 4.566406 12.652344 4.386719 12.800781 C 4.214844 12.949219 4.007812 13.039062 3.78125 13.070312 C 3.550781 13.097656 3.324219 13.078125 3.101562 13.003906 C 2.691406 12.863281 2.402344 12.644531 2.238281 12.339844 M 4.023438 12.65625 C 4.25 12.550781 4.40625 12.378906 4.488281 12.132812 C 4.570312 11.882812 4.550781 11.644531 4.429688 11.425781 C 4.308594 11.207031 4.085938 11.042969 3.765625 10.933594 C 3.558594 10.867188 3.367188 10.839844 3.195312 10.855469 C 3.019531 10.875 2.867188 10.9375 2.738281 11.042969 C 2.609375 11.148438 2.515625 11.28125 2.460938 11.445312 C 2.382812 11.683594 2.394531 11.914062 2.5 12.136719 C 2.605469 12.363281 2.847656 12.535156 3.226562 12.664062 C 3.527344 12.761719 3.792969 12.761719 4.023438 12.65625 "/>
<path style=" stroke:none;fill-rule:nonzero;fill:rgb(100%,100%,100%);fill-opacity:1;" d="M 2.867188 9.527344 L 3.0625 9.226562 L 4.742188 9.824219 C 4.921875 9.886719 5.089844 9.949219 5.261719 10.019531 C 5.054688 9.8125 4.941406 9.691406 4.914062 9.65625 L 3.679688 8.265625 L 3.90625 7.910156 L 5.238281 8.3125 C 5.570312 8.414062 5.871094 8.527344 6.140625 8.652344 C 6.019531 8.53125 5.882812 8.386719 5.726562 8.226562 L 4.519531 6.957031 L 4.710938 6.660156 L 6.546875 8.703125 L 6.363281 8.988281 L 4.363281 8.367188 C 4.199219 8.3125 4.09375 8.28125 4.058594 8.269531 C 4.144531 8.355469 4.214844 8.433594 4.277344 8.5 L 5.671875 10.066406 L 5.476562 10.367188 Z M 2.867188 9.527344 "/>
<path style=" stroke:none;fill-rule:nonzero;fill:rgb(100%,100%,100%);fill-opacity:1;" d="M 5.265625 6.117188 L 6.644531 4.785156 L 6.863281 5.011719 L 5.738281 6.101562 L 6.300781 6.683594 L 7.355469 5.664062 L 7.570312 5.886719 L 6.519531 6.90625 L 7.144531 7.554688 L 8.3125 6.425781 L 8.53125 6.648438 L 7.109375 8.023438 Z M 5.265625 6.117188 "/>
<path style=" stroke:none;fill-rule:nonzero;fill:rgb(100%,100%,100%);fill-opacity:1;" d="M 7.363281 4.207031 L 8.351562 3.574219 C 8.550781 3.449219 8.714844 3.375 8.84375 3.34375 C 8.972656 3.316406 9.097656 3.335938 9.226562 3.402344 C 9.351562 3.460938 9.457031 3.550781 9.535156 3.675781 C 9.636719 3.832031 9.667969 4 9.636719 4.175781 C 9.605469 4.347656 9.488281 4.519531 9.292969 4.6875 C 9.394531 4.671875 9.476562 4.671875 9.542969 4.683594 C 9.679688 4.707031 9.828125 4.75 9.980469 4.820312 L 10.753906 5.183594 L 10.382812 5.421875 L 9.792969 5.144531 C 9.621094 5.066406 9.484375 5.007812 9.382812 4.972656 C 9.28125 4.941406 9.199219 4.921875 9.136719 4.921875 C 9.074219 4.917969 9.019531 4.929688 8.964844 4.949219 C 8.925781 4.960938 8.871094 4.992188 8.792969 5.042969 L 8.449219 5.261719 L 9.085938 6.25 L 8.792969 6.441406 Z M 8.921875 4.597656 C 9.054688 4.511719 9.152344 4.433594 9.214844 4.351562 C 9.269531 4.277344 9.296875 4.195312 9.296875 4.109375 C 9.300781 4.019531 9.277344 3.945312 9.226562 3.871094 C 9.160156 3.765625 9.070312 3.703125 8.945312 3.683594 C 8.828125 3.664062 8.683594 3.707031 8.519531 3.8125 L 7.8125 4.265625 L 8.285156 5.003906 Z M 8.921875 4.597656 "/>
<path style=" stroke:none;fill-rule:nonzero;fill:rgb(100%,100%,100%);fill-opacity:1;" d="M 9.976562 2.660156 L 11.765625 1.96875 L 11.878906 2.261719 L 10.417969 2.824219 L 10.710938 3.582031 L 12.078125 3.050781 L 12.1875 3.34375 L 10.824219 3.871094 L 11.148438 4.710938 L 12.664062 4.128906 L 12.777344 4.417969 L 10.933594 5.128906 Z M 9.976562 2.660156 "/>
<path style=" stroke:none;fill-rule:nonzero;fill:rgb(100%,100%,100%);fill-opacity:1;" d="M 12.644531 1.71875 L 13.546875 1.5625 C 13.746094 1.53125 13.90625 1.519531 14.015625 1.519531 C 14.171875 1.53125 14.3125 1.574219 14.433594 1.644531 C 14.589844 1.738281 14.71875 1.867188 14.816406 2.039062 C 14.917969 2.207031 14.984375 2.40625 15.027344 2.640625 C 15.058594 2.839844 15.066406 3.019531 15.046875 3.179688 C 15.023438 3.34375 14.988281 3.476562 14.933594 3.589844 C 14.875 3.699219 14.808594 3.792969 14.734375 3.867188 C 14.65625 3.941406 14.5625 4 14.445312 4.050781 C 14.328125 4.101562 14.191406 4.140625 14.03125 4.167969 L 13.089844 4.328125 Z M 13.941406 3.867188 C 14.113281 3.839844 14.246094 3.796875 14.339844 3.746094 C 14.433594 3.703125 14.5 3.640625 14.550781 3.574219 C 14.617188 3.480469 14.664062 3.359375 14.683594 3.210938 C 14.707031 3.066406 14.699219 2.894531 14.667969 2.695312 C 14.621094 2.421875 14.542969 2.21875 14.425781 2.089844 C 14.3125 1.957031 14.1875 1.878906 14.050781 1.847656 C 13.949219 1.828125 13.800781 1.839844 13.59375 1.875 L 13.042969 1.96875 L 13.382812 3.964844 Z M 13.941406 3.867188 "/>
<path style=" stroke:none;fill-rule:nonzero;fill:rgb(100%,100%,100%);fill-opacity:1;" d="M 16.785156 1.308594 L 17.777344 1.414062 C 17.976562 1.4375 18.132812 1.480469 18.25 1.546875 C 18.363281 1.613281 18.453125 1.707031 18.507812 1.824219 C 18.566406 1.945312 18.589844 2.0625 18.574219 2.183594 C 18.5625 2.296875 18.523438 2.398438 18.449219 2.492188 C 18.378906 2.585938 18.28125 2.65625 18.148438 2.703125 C 18.300781 2.765625 18.417969 2.859375 18.492188 2.980469 C 18.5625 3.105469 18.59375 3.242188 18.578125 3.390625 C 18.5625 3.515625 18.523438 3.628906 18.460938 3.730469 C 18.394531 3.832031 18.324219 3.90625 18.242188 3.957031 C 18.15625 4.003906 18.058594 4.035156 17.941406 4.054688 C 17.820312 4.070312 17.675781 4.070312 17.507812 4.050781 L 16.503906 3.945312 Z M 17.542969 3.742188 C 17.65625 3.753906 17.734375 3.753906 17.78125 3.753906 C 17.859375 3.746094 17.933594 3.730469 17.988281 3.707031 C 18.046875 3.675781 18.097656 3.632812 18.136719 3.574219 C 18.179688 3.511719 18.207031 3.4375 18.214844 3.355469 C 18.226562 3.257812 18.207031 3.171875 18.164062 3.089844 C 18.121094 3.011719 18.058594 2.953125 17.972656 2.914062 C 17.886719 2.875 17.761719 2.847656 17.589844 2.828125 L 16.984375 2.765625 L 16.886719 3.671875 Z M 17.585938 2.515625 C 17.742188 2.53125 17.855469 2.535156 17.921875 2.523438 C 18.011719 2.5 18.082031 2.46875 18.136719 2.410156 C 18.1875 2.351562 18.21875 2.28125 18.226562 2.191406 C 18.238281 2.101562 18.222656 2.023438 18.191406 1.953125 C 18.152344 1.878906 18.097656 1.828125 18.023438 1.796875 C 17.949219 1.761719 17.816406 1.734375 17.628906 1.714844 L 17.101562 1.660156 L 17.015625 2.453125 Z M 17.585938 2.515625 "/>
<path style=" stroke:none;fill-rule:nonzero;fill:rgb(100%,100%,100%);fill-opacity:1;" d="M 19.859375 3.378906 L 19.332031 1.621094 L 19.742188 1.746094 L 20.003906 2.664062 C 20.054688 2.835938 20.09375 3.003906 20.128906 3.171875 C 20.246094 3.066406 20.382812 2.941406 20.542969 2.8125 L 21.265625 2.214844 L 21.652344 2.335938 L 20.195312 3.484375 L 19.863281 4.558594 L 19.527344 4.453125 Z M 19.859375 3.378906 "/>
<path style=" stroke:none;fill-rule:nonzero;fill:rgb(100%,100%,100%);fill-opacity:1;" d="M 13.90625 31.035156 L 15.5 27.585938 L 15.867188 27.601562 L 17.152344 31.175781 L 16.679688 31.15625 L 16.308594 30.109375 L 14.835938 30.046875 L 14.378906 31.054688 Z M 15.664062 28.109375 L 14.9375 29.703125 L 16.222656 29.757812 Z M 15.664062 28.109375 "/>
<path style=" stroke:none;fill-rule:nonzero;fill:rgb(100%,100%,100%);fill-opacity:1;" d="M 18.109375 31.039062 L 17.402344 27.59375 L 18.835938 27.300781 C 18.988281 27.269531 19.132812 27.269531 19.273438 27.308594 C 19.417969 27.34375 19.542969 27.40625 19.65625 27.492188 C 19.769531 27.578125 19.867188 27.679688 19.945312 27.800781 C 20.023438 27.921875 20.078125 28.050781 20.105469 28.183594 C 20.132812 28.328125 20.136719 28.46875 20.117188 28.613281 C 20.09375 28.753906 20.050781 28.886719 19.984375 29.007812 C 19.914062 29.128906 19.828125 29.234375 19.714844 29.320312 C 19.601562 29.410156 19.46875 29.46875 19.320312 29.5 L 18.289062 29.710938 L 18.546875 30.945312 Z M 18.210938 29.324219 L 19.214844 29.117188 C 19.304688 29.097656 19.382812 29.0625 19.449219 29.011719 C 19.511719 28.957031 19.5625 28.894531 19.601562 28.816406 C 19.640625 28.738281 19.664062 28.65625 19.675781 28.5625 C 19.6875 28.46875 19.683594 28.371094 19.664062 28.277344 C 19.644531 28.175781 19.605469 28.085938 19.554688 28.003906 C 19.503906 27.925781 19.441406 27.859375 19.371094 27.804688 C 19.300781 27.75 19.226562 27.714844 19.140625 27.695312 C 19.058594 27.675781 18.976562 27.675781 18.890625 27.691406 L 17.917969 27.890625 Z M 18.210938 29.324219 "/>
<path style=" stroke:none;fill-rule:nonzero;fill:rgb(100%,100%,100%);fill-opacity:1;" d="M 20.96875 30.425781 L 20.816406 26.628906 L 21.148438 26.476562 L 23.925781 29.070312 L 23.492188 29.269531 L 22.683594 28.507812 L 21.34375 29.121094 L 21.398438 30.226562 Z M 21.195312 27.023438 L 21.28125 28.769531 L 22.449219 28.234375 Z M 21.195312 27.023438 "/>
<path style=" stroke:none;fill-rule:nonzero;fill:rgb(100%,100%,100%);fill-opacity:1;" d="M 23.179688 27.417969 C 23.042969 27.25 22.933594 27.054688 22.855469 26.839844 C 22.777344 26.621094 22.742188 26.398438 22.746094 26.171875 C 22.753906 25.945312 22.804688 25.722656 22.90625 25.503906 C 23.007812 25.285156 23.160156 25.089844 23.371094 24.917969 C 23.625 24.710938 23.886719 24.59375 24.160156 24.558594 C 24.433594 24.527344 24.6875 24.566406 24.921875 24.675781 L 24.789062 25.089844 C 24.675781 25.035156 24.5625 25 24.453125 24.988281 C 24.34375 24.976562 24.238281 24.980469 24.140625 25 C 24.039062 25.019531 23.945312 25.050781 23.859375 25.097656 C 23.769531 25.140625 23.691406 25.195312 23.621094 25.253906 C 23.464844 25.378906 23.351562 25.523438 23.285156 25.6875 C 23.21875 25.851562 23.183594 26.019531 23.1875 26.191406 C 23.191406 26.363281 23.226562 26.53125 23.292969 26.695312 C 23.359375 26.859375 23.445312 27.007812 23.554688 27.140625 C 23.675781 27.289062 23.816406 27.410156 23.972656 27.503906 C 24.132812 27.597656 24.296875 27.660156 24.46875 27.691406 C 24.640625 27.722656 24.808594 27.71875 24.980469 27.683594 C 25.148438 27.648438 25.300781 27.570312 25.441406 27.457031 C 25.515625 27.398438 25.585938 27.324219 25.648438 27.242188 C 25.710938 27.160156 25.761719 27.070312 25.800781 26.96875 C 25.835938 26.871094 25.863281 26.765625 25.875 26.652344 C 25.882812 26.539062 25.875 26.421875 25.84375 26.300781 L 26.273438 26.222656 C 26.3125 26.363281 26.328125 26.507812 26.3125 26.65625 C 26.296875 26.800781 26.261719 26.945312 26.207031 27.082031 C 26.148438 27.222656 26.078125 27.351562 25.988281 27.472656 C 25.898438 27.597656 25.796875 27.703125 25.6875 27.789062 C 25.496094 27.949219 25.285156 28.050781 25.054688 28.097656 C 24.824219 28.144531 24.59375 28.148438 24.363281 28.109375 C 24.136719 28.070312 23.917969 27.988281 23.710938 27.867188 C 23.503906 27.75 23.328125 27.597656 23.179688 27.417969 "/>
<path style=" stroke:none;fill-rule:nonzero;fill:rgb(100%,100%,100%);fill-opacity:1;" d="M 26.429688 21.570312 L 29.292969 23.601562 L 29.035156 23.964844 L 27.734375 23.039062 L 26.613281 24.617188 L 27.917969 25.542969 L 27.660156 25.90625 L 24.792969 23.875 L 25.050781 23.511719 L 26.289062 24.390625 L 27.410156 22.8125 L 26.171875 21.933594 Z M 26.429688 21.570312 "/>
<path style=" stroke:none;fill-rule:nonzero;fill:rgb(100%,100%,100%);fill-opacity:1;" d="M 30.363281 19.851562 L 30.734375 19.988281 L 29.894531 22.222656 L 26.605469 20.984375 L 27.429688 18.792969 L 27.800781 18.933594 L 27.132812 20.707031 L 28.199219 21.109375 L 28.777344 19.566406 L 29.128906 19.695312 L 28.546875 21.238281 L 29.679688 21.664062 Z M 30.363281 19.851562 "/>
<path style=" stroke:none;fill-rule:nonzero;fill:rgb(100%,100%,100%);fill-opacity:1;" d="M 28.910156 9.726562 C 28.914062 10.257812 28.488281 10.695312 27.957031 10.699219 C 27.425781 10.707031 26.988281 10.28125 26.984375 9.75 C 26.976562 9.21875 27.402344 8.78125 27.933594 8.773438 C 28.464844 8.769531 28.902344 9.195312 28.910156 9.726562 "/>
<path style=" stroke:none;fill-rule:nonzero;fill:rgb(100%,100%,100%);fill-opacity:1;" d="M 6.984375 24.792969 C 6.988281 25.324219 6.5625 25.761719 6.03125 25.765625 C 5.5 25.773438 5.066406 25.347656 5.058594 24.816406 C 5.054688 24.285156 5.480469 23.847656 6.011719 23.84375 C 6.542969 23.835938 6.976562 24.261719 6.984375 24.792969 "/>
<path style=" stroke:none;fill-rule:nonzero;fill:rgb(42.745098%,43.137255%,44.313725%);fill-opacity:1;" d="M 21.96875 9.679688 L 21.738281 9.679688 L 21.738281 10.332031 L 21.628906 10.332031 L 21.628906 9.679688 L 21.398438 9.679688 L 21.398438 9.582031 L 21.96875 9.582031 Z M 22.863281 10.332031 L 22.765625 10.332031 L 22.765625 9.738281 L 22.507812 10.253906 L 22.441406 10.253906 L 22.1875 9.738281 L 22.1875 10.332031 L 22.085938 10.332031 L 22.085938 9.582031 L 22.214844 9.582031 L 22.476562 10.105469 L 22.730469 9.582031 L 22.863281 9.582031 Z M 22.863281 10.332031 "/>
<path style=" stroke:none;fill-rule:nonzero;fill:url(#linear0);" d="M 19.375 7.414062 C 19.035156 7.613281 18.472656 8.179688 17.804688 9 L 18.421875 10.164062 C 18.851562 9.542969 19.292969 8.988281 19.738281 8.511719 C 19.773438 8.472656 19.789062 8.457031 19.789062 8.457031 C 19.773438 8.472656 19.753906 8.492188 19.738281 8.511719 C 19.59375 8.667969 19.160156 9.175781 18.5 10.1875 C 19.132812 10.15625 20.105469 10.027344 20.898438 9.890625 C 21.136719 8.570312 20.667969 7.964844 20.667969 7.964844 C 20.667969 7.964844 20.074219 7 19.375 7.414062 Z M 19.375 7.414062 "/>
<path style=" stroke:none;fill-rule:nonzero;fill:rgb(74.509804%,12.54902%,18.039216%);fill-opacity:1;" d="M 17.304688 17.195312 C 17.226562 17.210938 17.144531 17.222656 17.058594 17.238281 C 17.101562 17.234375 17.144531 17.226562 17.183594 17.21875 C 17.222656 17.210938 17.265625 17.203125 17.304688 17.195312 Z M 17.304688 17.195312 "/>
<use xlink:href="#surface5" mask="url(#mask0)"/>
<path style=" stroke:none;fill-rule:nonzero;fill:rgb(74.509804%,12.54902%,18.039216%);fill-opacity:1;" d="M 17.507812 16.175781 C 17.519531 16.175781 17.535156 16.175781 17.546875 16.171875 C 17.597656 16.164062 17.652344 16.15625 17.699219 16.144531 C 17.640625 16.15625 17.574219 16.164062 17.507812 16.175781 Z M 17.507812 16.175781 "/>
<use xlink:href="#surface8" mask="url(#mask1)"/>
<path style=" stroke:none;fill-rule:nonzero;fill:url(#linear1);" d="M 16.601562 13.175781 C 16.789062 12.824219 16.976562 12.480469 17.171875 12.148438 C 17.371094 11.800781 17.570312 11.464844 17.773438 11.140625 C 17.785156 11.121094 17.800781 11.101562 17.8125 11.082031 C 18.011719 10.765625 18.214844 10.457031 18.421875 10.164062 L 17.804688 9 C 17.757812 9.058594 17.710938 9.113281 17.664062 9.171875 C 17.484375 9.394531 17.300781 9.632812 17.109375 9.886719 C 16.898438 10.171875 16.675781 10.476562 16.453125 10.796875 C 16.246094 11.089844 16.039062 11.398438 15.832031 11.722656 C 15.652344 11.992188 15.472656 12.273438 15.296875 12.5625 C 15.289062 12.570312 15.285156 12.582031 15.277344 12.59375 L 16.078125 14.179688 C 16.25 13.839844 16.425781 13.503906 16.601562 13.175781 Z M 16.601562 13.175781 "/>
<path style=" stroke:none;fill-rule:nonzero;fill:url(#linear2);" d="M 12.945312 22.109375 C 12.835938 22.402344 12.730469 22.699219 12.625 23.003906 C 12.621094 23.007812 12.621094 23.011719 12.621094 23.015625 C 12.605469 23.058594 12.589844 23.101562 12.574219 23.144531 C 12.5 23.351562 12.4375 23.535156 12.292969 23.953125 C 12.53125 24.0625 12.722656 24.347656 12.902344 24.667969 C 12.882812 24.335938 12.742188 24.023438 12.480469 23.777344 C 13.648438 23.832031 14.652344 23.535156 15.171875 22.683594 C 15.21875 22.609375 15.261719 22.527344 15.300781 22.441406 C 15.0625 22.742188 14.769531 22.871094 14.21875 22.839844 C 14.21875 22.839844 14.214844 22.839844 14.214844 22.839844 C 14.214844 22.839844 14.21875 22.839844 14.21875 22.839844 C 15.03125 22.476562 15.4375 22.125 15.796875 21.550781 C 15.882812 21.410156 15.964844 21.261719 16.050781 21.097656 C 15.339844 21.824219 14.519531 22.03125 13.652344 21.875 L 13.003906 21.945312 C 12.984375 22 12.964844 22.054688 12.945312 22.109375 Z M 12.945312 22.109375 "/>
<path style=" stroke:none;fill-rule:nonzero;fill:url(#linear3);" d="M 13.246094 20.65625 C 13.386719 20.292969 13.53125 19.925781 13.679688 19.558594 C 13.824219 19.203125 13.96875 18.847656 14.117188 18.488281 C 14.265625 18.128906 14.417969 17.769531 14.574219 17.410156 C 14.734375 17.046875 14.894531 16.679688 15.058594 16.316406 C 15.222656 15.957031 15.390625 15.597656 15.558594 15.246094 C 15.617188 15.117188 15.679688 14.992188 15.742188 14.863281 C 15.847656 14.644531 15.953125 14.429688 16.0625 14.210938 C 16.070312 14.199219 16.074219 14.191406 16.082031 14.179688 L 15.277344 12.589844 C 15.265625 12.613281 15.25 12.632812 15.238281 12.65625 C 15.050781 12.960938 14.863281 13.273438 14.683594 13.59375 C 14.496094 13.914062 14.316406 14.242188 14.140625 14.578125 C 13.988281 14.859375 13.84375 15.140625 13.703125 15.425781 C 13.671875 15.484375 13.644531 15.542969 13.617188 15.601562 C 13.441406 15.960938 13.285156 16.308594 13.140625 16.644531 C 12.980469 17.023438 12.835938 17.382812 12.710938 17.726562 C 12.628906 17.953125 12.554688 18.171875 12.488281 18.382812 C 12.429688 18.558594 12.378906 18.738281 12.324219 18.917969 C 12.207031 19.339844 12.101562 19.757812 12.015625 20.175781 L 12.824219 21.769531 C 12.929688 21.484375 13.039062 21.195312 13.152344 20.902344 C 13.183594 20.820312 13.214844 20.738281 13.246094 20.65625 Z M 13.246094 20.65625 "/>
<path style=" stroke:none;fill-rule:nonzero;fill:url(#linear4);" d="M 12.003906 20.230469 C 11.90625 20.742188 11.832031 21.25 11.796875 21.753906 C 11.796875 21.769531 11.792969 21.789062 11.792969 21.804688 C 11.539062 21.402344 10.867188 21.007812 10.867188 21.011719 C 11.351562 21.710938 11.714844 22.40625 11.769531 23.089844 C 11.511719 23.140625 11.15625 23.066406 10.75 22.914062 C 11.175781 23.308594 11.496094 23.414062 11.621094 23.445312 C 11.230469 23.46875 10.820312 23.738281 10.410156 24.046875 C 11.011719 23.804688 11.496094 23.707031 11.84375 23.785156 C 11.292969 25.347656 10.738281 27.070312 10.1875 28.902344 C 10.355469 28.851562 10.457031 28.738281 10.515625 28.582031 C 10.613281 28.25 11.265625 26.078125 12.292969 23.21875 C 12.320312 23.136719 12.351562 23.054688 12.378906 22.972656 C 12.386719 22.949219 12.398438 22.925781 12.40625 22.902344 C 12.511719 22.605469 12.625 22.296875 12.742188 21.984375 C 12.769531 21.914062 12.792969 21.84375 12.820312 21.773438 C 12.824219 21.769531 12.824219 21.769531 12.824219 21.765625 L 12.015625 20.175781 C 12.015625 20.195312 12.007812 20.214844 12.003906 20.230469 Z M 12.003906 20.230469 "/>
<path style=" stroke:none;fill-rule:nonzero;fill:url(#linear5);" d="M 16.203125 14.3125 C 16.183594 14.359375 16.160156 14.40625 16.136719 14.453125 C 16.066406 14.597656 15.996094 14.742188 15.921875 14.894531 C 15.847656 15.054688 15.769531 15.21875 15.691406 15.390625 C 15.652344 15.476562 15.609375 15.5625 15.570312 15.648438 C 15.449219 15.910156 15.328125 16.179688 15.207031 16.457031 C 15.054688 16.800781 14.898438 17.15625 14.742188 17.523438 C 14.59375 17.875 14.441406 18.242188 14.289062 18.617188 C 14.140625 18.976562 13.992188 19.34375 13.84375 19.726562 C 13.710938 20.066406 13.574219 20.414062 13.441406 20.773438 C 13.433594 20.789062 13.425781 20.808594 13.421875 20.824219 C 13.285156 21.179688 13.148438 21.546875 13.011719 21.921875 C 13.007812 21.929688 13.007812 21.9375 13.003906 21.945312 L 13.652344 21.875 C 13.640625 21.871094 13.625 21.871094 13.613281 21.867188 C 14.390625 21.773438 15.421875 21.191406 16.089844 20.476562 C 16.398438 20.144531 16.675781 19.757812 16.933594 19.300781 C 17.125 18.960938 17.304688 18.585938 17.476562 18.167969 C 17.628906 17.804688 17.773438 17.410156 17.910156 16.984375 C 17.734375 17.078125 17.527344 17.148438 17.300781 17.195312 C 17.261719 17.203125 17.222656 17.210938 17.183594 17.21875 C 17.140625 17.226562 17.101562 17.234375 17.058594 17.238281 C 17.785156 16.960938 18.242188 16.421875 18.570312 15.761719 C 18.382812 15.894531 18.074219 16.0625 17.699219 16.144531 C 17.652344 16.15625 17.597656 16.164062 17.546875 16.171875 C 17.535156 16.175781 17.519531 16.175781 17.507812 16.179688 C 17.507812 16.179688 17.507812 16.179688 17.507812 16.175781 C 17.507812 16.175781 17.511719 16.175781 17.511719 16.175781 C 17.761719 16.074219 17.972656 15.953125 18.15625 15.816406 C 18.195312 15.785156 18.234375 15.753906 18.273438 15.722656 C 18.328125 15.675781 18.382812 15.625 18.433594 15.570312 C 18.464844 15.535156 18.496094 15.5 18.527344 15.464844 C 18.597656 15.378906 18.667969 15.285156 18.730469 15.183594 C 18.75 15.152344 18.769531 15.121094 18.789062 15.089844 C 18.8125 15.042969 18.835938 15 18.855469 14.953125 C 18.957031 14.75 19.039062 14.570312 19.101562 14.410156 C 19.136719 14.332031 19.164062 14.257812 19.1875 14.1875 C 19.199219 14.160156 19.207031 14.136719 19.214844 14.109375 C 19.242188 14.035156 19.261719 13.964844 19.277344 13.90625 C 19.300781 13.816406 19.316406 13.746094 19.324219 13.695312 C 19.300781 13.710938 19.273438 13.734375 19.242188 13.75 C 19.023438 13.882812 18.648438 14 18.34375 14.054688 L 18.941406 13.992188 L 18.34375 14.054688 C 18.339844 14.058594 18.335938 14.058594 18.332031 14.058594 C 18.300781 14.0625 18.269531 14.070312 18.242188 14.074219 C 18.246094 14.070312 18.25 14.070312 18.257812 14.066406 L 16.214844 14.289062 C 16.210938 14.296875 16.207031 14.304688 16.203125 14.3125 Z M 16.203125 14.3125 "/>
<path style=" stroke:none;fill-rule:nonzero;fill:url(#linear6);" d="M 18.5 10.1875 C 18.320312 10.464844 18.121094 10.78125 17.90625 11.140625 C 17.898438 11.160156 17.886719 11.179688 17.875 11.195312 C 17.691406 11.507812 17.496094 11.847656 17.289062 12.21875 C 17.113281 12.542969 16.925781 12.886719 16.734375 13.257812 C 16.566406 13.582031 16.394531 13.925781 16.214844 14.289062 L 18.257812 14.0625 C 18.851562 13.792969 19.117188 13.542969 19.375 13.1875 C 19.441406 13.085938 19.511719 12.984375 19.578125 12.878906 C 19.789062 12.550781 19.996094 12.191406 20.179688 11.832031 C 20.355469 11.488281 20.511719 11.144531 20.632812 10.835938 C 20.707031 10.636719 20.769531 10.457031 20.8125 10.296875 C 20.847656 10.152344 20.878906 10.019531 20.902344 9.890625 C 20.105469 10.027344 19.132812 10.15625 18.5 10.1875 Z M 18.5 10.1875 "/>
<path style=" stroke:none;fill-rule:nonzero;fill:rgb(74.509804%,12.54902%,18.039216%);fill-opacity:1;" d="M 17.183594 17.21875 C 17.140625 17.226562 17.101562 17.230469 17.058594 17.238281 C 17.101562 17.230469 17.140625 17.226562 17.183594 17.21875 Z M 17.183594 17.21875 "/>
<use xlink:href="#surface11" mask="url(#mask2)"/>
<path style=" stroke:none;fill-rule:nonzero;fill:url(#linear7);" d="M 17.183594 17.21875 C 17.140625 17.226562 17.101562 17.230469 17.058594 17.238281 C 17.101562 17.230469 17.140625 17.226562 17.183594 17.21875 Z M 17.183594 17.21875 "/>
<path style=" stroke:none;fill-rule:nonzero;fill:rgb(74.509804%,12.54902%,18.039216%);fill-opacity:1;" d="M 17.507812 16.175781 C 17.519531 16.175781 17.535156 16.175781 17.546875 16.171875 C 17.535156 16.175781 17.519531 16.175781 17.507812 16.175781 Z M 17.507812 16.175781 "/>
<use xlink:href="#surface14" mask="url(#mask3)"/>
<path style=" stroke:none;fill-rule:nonzero;fill:url(#linear8);" d="M 17.507812 16.175781 C 17.519531 16.175781 17.535156 16.175781 17.546875 16.171875 C 17.535156 16.175781 17.519531 16.175781 17.507812 16.175781 Z M 17.507812 16.175781 "/>
</g>
</svg>
