<svg width="407" height="211" viewBox="0 0 407 211" fill="none" xmlns="http://www.w3.org/2000/svg">
<path d="M406.373 209.963C406.373 209.963 406.05 209.963 405.339 209.963C404.628 209.963 403.594 209.963 402.237 209.963C399.523 209.963 395.516 210.028 390.411 210.028C380.135 210.092 365.271 210.157 346.852 210.222C310.079 210.351 259.283 210.48 203.187 210.674C147.091 210.803 96.294 210.803 59.5213 210.674C41.1673 210.609 26.2385 210.545 15.9628 210.415C10.7927 210.351 6.85044 210.286 4.13612 210.157C1.42179 210.092 0 209.963 0 209.898C0 209.898 0.0646278 209.963 0.258508 209.963C0.452389 209.963 0.710896 210.028 1.03403 210.028C1.74493 210.092 2.77895 210.092 4.13612 210.157C6.85044 210.222 10.8573 210.286 15.9628 210.351C26.2385 210.415 41.1027 210.48 59.5213 210.545C96.294 210.609 147.091 210.545 203.187 210.415C259.283 210.286 310.079 210.157 346.852 210.092C365.206 210.028 380.135 210.028 390.411 209.963C395.581 209.963 399.523 209.963 402.237 209.963C403.594 209.963 404.628 209.963 405.339 209.963C406.05 209.898 406.373 209.963 406.373 209.963Z" fill="#1B1C26"/>
<path d="M305.363 157.034L303.812 208.089H301.356L301.809 157.163L305.363 157.034Z" fill="#1B1C26"/>
<path d="M314.152 156.387L326.173 210.286L328.758 210.157L318.87 156.387H314.152Z" fill="#1B1C26"/>
<path d="M291.985 157.034L278.026 210.286L274.924 210.157L288.043 156.775L291.985 157.034Z" fill="#1B1C26"/>
<path d="M325.978 104.169C325.978 104.169 339.033 103.393 337.74 118.516C336.448 133.639 335.672 148.891 330.825 154.125C325.978 159.36 277.12 159.554 273.049 155.224C268.977 150.959 280.869 151.153 283.131 151.153C285.393 151.153 299.158 152.445 303.617 140.683C308.141 128.921 306.978 103.393 325.978 104.169Z" fill="#34384A"/>
<path d="M326.818 104.169C326.818 104.169 336.771 106.237 335.866 116.642C334.961 127.111 332.311 145.336 327.464 149.989C322.617 154.642 303.617 155.676 293.341 155.03C281.385 154.254 273.889 151.993 273.889 151.993C273.889 151.993 271.691 153.414 272.402 154.319C273.049 155.224 278.865 158.843 307.107 158.261C335.284 157.68 333.345 153.479 334.509 148.955C335.672 144.431 338.128 120.196 337.805 114.832C337.417 109.533 334.767 105.073 326.818 104.169Z" fill="#1B1C26"/>
<path d="M255.6 99.7743L264.066 126.207L310.791 127.047L310.532 125.625L293.406 125.108L285.586 99.7743H255.6Z" fill="#34384A"/>
<path d="M274.6 112.958C274.858 114.057 274.406 115.155 273.501 115.414C272.661 115.672 271.691 114.897 271.433 113.798C271.174 112.7 271.627 111.601 272.532 111.342C273.372 111.149 274.277 111.86 274.6 112.958Z" fill="white"/>
<path d="M359.713 118.645C358.873 117.934 357.774 117.87 357.063 117.87C357.063 117.353 357.063 117.03 357.063 117.03H342.781C342.781 117.03 342.329 126.465 349.567 126.788C352.798 126.918 354.672 125.496 355.706 123.686C356.029 123.751 356.676 123.88 357.322 123.88C358.098 123.88 358.938 123.751 359.584 123.234C360.101 122.846 360.683 122.135 360.683 120.843C360.618 119.679 360.101 118.968 359.713 118.645ZM358.744 122.135C358.162 122.588 357.064 122.523 356.353 122.394C356.74 121.295 356.934 120.196 357.063 119.292C357.581 119.292 358.356 119.292 358.873 119.679C359.196 119.938 359.325 120.326 359.325 120.843C359.196 121.424 359.067 121.877 358.744 122.135Z" fill="#4E64A4"/>
<path d="M354.931 113.992C354.931 113.992 354.802 113.928 354.673 113.669C354.543 113.411 354.285 113.087 354.22 112.57C354.091 112.053 354.091 111.342 354.414 110.632C354.673 109.921 355.383 109.339 356.03 108.693C356.676 108.046 357.258 107.206 357.451 106.108C357.645 105.074 357.516 103.846 356.805 102.812C356.482 102.295 356.03 101.842 355.513 101.519C354.996 101.131 354.349 100.938 353.768 100.744C353.121 100.55 352.475 100.291 351.894 99.7742C351.635 99.5157 351.377 99.2572 351.247 98.8695C351.118 98.5463 350.989 98.1586 351.118 97.7708C351.118 97.7062 351.118 97.6415 351.183 97.6415L351.377 97.8354C350.73 98.0293 350.407 98.7402 350.343 99.3865C350.278 100.033 350.472 100.679 350.795 101.261C351.053 101.842 351.441 102.424 351.7 103.006C351.958 103.587 352.152 104.233 352.087 104.88C352.023 105.526 351.635 106.108 351.247 106.495C350.795 106.883 350.343 107.206 349.826 107.465C348.791 107.917 347.822 108.176 347.047 108.693C346.271 109.145 345.689 109.791 345.431 110.502C345.108 111.149 345.043 111.795 345.043 112.312C345.043 113.346 345.366 113.863 345.366 113.863C345.366 113.863 345.366 113.863 345.302 113.798C345.302 113.734 345.237 113.669 345.172 113.54C345.043 113.281 344.979 112.893 344.979 112.376C344.979 111.859 345.043 111.213 345.302 110.502C345.56 109.791 346.142 109.08 346.982 108.628C347.822 108.111 348.791 107.853 349.761 107.4C350.213 107.142 350.73 106.883 351.118 106.495C351.506 106.108 351.829 105.591 351.894 105.009C351.958 104.427 351.764 103.846 351.57 103.264C351.312 102.682 350.989 102.101 350.666 101.519C350.407 100.938 350.149 100.227 350.213 99.4511C350.278 99.0633 350.343 98.7402 350.536 98.4171C350.73 98.0939 351.053 97.8354 351.377 97.7062L351.635 97.6415L351.57 97.9001C351.57 97.9647 351.57 97.9647 351.506 98.0293C351.377 98.6756 351.764 99.3218 352.217 99.7742C352.734 100.227 353.38 100.421 354.026 100.679C354.673 100.873 355.319 101.131 355.836 101.519C356.353 101.907 356.805 102.359 357.193 102.941C357.904 104.04 358.033 105.332 357.839 106.431C357.645 107.529 356.999 108.434 356.288 109.081C355.577 109.727 354.996 110.308 354.673 110.955C354.349 111.601 354.349 112.312 354.479 112.764C354.543 113.604 354.996 113.992 354.931 113.992Z" fill="#2E353A"/>
<path d="M372.38 126.336H225.742V130.795H233.562L229.361 210.157H231.623L235.823 130.795L364.366 130.084L367.339 209.963L369.795 210.092L366.628 130.795H372.38V126.336Z" fill="#1B1C26"/>
<path d="M82.4642 199.946C93.8385 189.993 94.8079 173.772 92.8045 159.489C92.4813 157.098 92.4167 154.578 91.0595 152.574C89.7024 150.571 86.8588 149.472 84.8554 150.7C83.1751 151.734 82.5934 153.867 81.8179 155.676C80.7192 158.068 78.9743 160.2 76.777 161.622C75.3552 162.591 73.481 163.302 71.93 162.591C69.7327 161.687 69.2157 158.843 68.9572 156.452C68.5048 151.993 68.0524 147.598 67.6 143.139C67.3415 140.748 67.083 138.356 66.1136 136.159C65.1442 133.962 63.27 132.088 60.9434 131.7C58.6169 131.312 55.9672 132.928 55.7087 135.319C55.644 136.288 55.9025 137.322 55.9672 138.292C56.0318 139.261 55.644 140.425 54.7393 140.812C53.8345 141.2 52.8005 140.618 52.0249 140.037C49.3106 137.904 47.3072 134.996 45.3684 132.088C43.4942 129.179 41.62 126.207 39.0996 123.815C36.5791 121.424 33.2832 119.679 29.8579 119.873C26.4327 120.067 23.0075 122.587 22.5551 126.013C22.0381 129.438 24.3647 132.669 26.8205 135.125C30.4396 138.809 34.5757 141.976 39.0349 144.431C39.8751 144.884 40.7152 145.336 41.103 146.241C41.8139 147.792 40.4567 149.537 38.9703 150.183C37.29 150.959 35.2866 151.023 33.477 151.411C31.6675 151.863 29.7287 152.897 29.2117 154.707C28.5008 157.227 30.8273 159.554 33.0247 161.04C37.4193 163.949 42.2663 166.081 47.3718 167.309C49.1814 167.762 51.1202 168.085 52.6712 169.183C54.2223 170.282 55.3209 172.286 54.61 174.095C53.9637 175.84 51.8311 176.616 49.9569 176.486C48.0827 176.357 46.3378 175.517 44.5282 175.064C41.103 174.16 36.9023 174.871 35.1573 177.908C33.9941 179.911 34.1233 182.497 35.0927 184.629C36.0621 186.762 37.6778 188.507 39.3581 190.123C45.3037 195.68 52.542 199.881 60.4264 201.691C68.117 203.63 75.226 203.565 82.4642 199.946Z" fill="white"/>
<path d="M83.8215 210.545C82.6583 204.922 80.7194 198.33 77.7466 191.35C74.8384 184.371 71.0254 176.939 66.7601 169.313C65.6614 167.439 64.6274 165.564 63.5933 163.69C62.5593 161.816 61.5253 160.006 60.362 158.326C58.1001 154.836 55.7089 151.734 53.3177 148.761C50.9265 145.853 48.5353 143.139 46.338 140.618C44.076 138.098 41.9434 135.836 39.9399 133.833C35.8684 129.826 32.2493 126.982 29.6643 125.108C28.3717 124.203 27.3377 123.492 26.6268 123.04C26.3037 122.846 26.0452 122.652 25.8513 122.523C25.6574 122.394 25.5928 122.329 25.5928 122.329C25.5928 122.329 25.6574 122.394 25.8513 122.523C26.0452 122.652 26.3037 122.846 26.6268 123.105C27.3377 123.557 28.3071 124.268 29.5996 125.237C32.1201 127.111 35.7392 130.02 39.746 134.026C41.7495 136.03 43.8822 138.356 46.0795 140.812C48.2768 143.333 50.668 146.047 53.0592 148.955C55.4504 151.863 57.8416 155.03 60.0389 158.455C61.1375 160.2 62.1716 162.01 63.2056 163.819C64.2396 165.694 65.3383 167.568 66.3723 169.442C70.6377 177.068 74.4507 184.435 77.3589 191.415C80.2671 198.395 82.2705 204.922 83.4984 210.48" fill="#1B1C26"/>
<path d="M60.2328 158.326C60.2328 158.326 60.2974 157.938 60.362 157.292C60.4266 156.646 60.4266 155.676 60.4913 154.449C60.5559 152.057 60.5559 148.697 60.5559 145.078C60.5559 141.394 60.5559 138.098 60.6852 135.707C60.7498 134.479 60.8144 133.509 60.8144 132.863C60.879 132.217 60.879 131.829 60.8144 131.829C60.8144 131.829 60.7498 132.217 60.6205 132.863C60.4913 133.509 60.4266 134.479 60.362 135.707C60.1681 138.098 60.1035 141.459 60.1035 145.078C60.1681 148.697 60.1681 151.993 60.1681 154.449C60.1681 155.547 60.1681 156.517 60.1681 157.292C60.2328 158.003 60.2328 158.326 60.2328 158.326Z" fill="#1B1C26"/>
<path d="M29.0181 156C29.0181 156 29.4705 156.064 30.246 156C31.0215 156 32.1848 155.935 33.6066 155.935C36.4501 155.935 40.3278 156.064 44.6578 156.387C48.9877 156.71 52.8654 157.227 55.6443 157.615C57.0661 157.809 58.1648 158.003 58.9403 158.132C59.7158 158.261 60.1682 158.326 60.1682 158.262C60.1682 158.262 59.7804 158.132 59.0049 157.938C58.2294 157.744 57.1307 157.486 55.7089 157.292C52.93 156.775 48.9877 156.258 44.6578 155.935C40.3278 155.612 36.3855 155.547 33.5419 155.612C32.1202 155.676 30.9569 155.741 30.1814 155.806C29.4705 155.935 29.0181 156 29.0181 156Z" fill="#1B1C26"/>
<path d="M77.2939 190.898C77.2939 190.898 77.3586 190.769 77.4878 190.51C77.6171 190.187 77.7463 189.799 77.8756 189.347C78.1987 188.313 78.6511 186.827 79.2327 185.017C80.3314 181.333 81.6886 176.228 83.0457 170.605C84.4675 164.918 85.7601 159.813 86.7295 156.129C87.2465 154.319 87.6342 152.833 87.9574 151.799C88.0866 151.347 88.2159 150.959 88.2805 150.636C88.3451 150.377 88.4098 150.248 88.3451 150.183C88.3451 150.183 88.2805 150.312 88.1512 150.571C88.022 150.894 87.8927 151.282 87.7635 151.734C87.4403 152.768 86.988 154.255 86.4063 156.064C85.3077 159.748 83.9505 164.854 82.5933 170.476C81.1716 176.163 79.879 181.269 78.9096 184.952C78.3926 186.762 78.0048 188.248 77.6817 189.282C77.5525 189.735 77.4232 190.123 77.3586 190.446C77.3586 190.704 77.2939 190.898 77.2939 190.898Z" fill="#1B1C26"/>
<path d="M35.2222 182.238C35.2222 182.238 35.3514 182.303 35.6746 182.367C35.9977 182.432 36.3854 182.497 36.9025 182.626C38.0011 182.884 39.5522 183.143 41.4263 183.531C45.2393 184.306 50.4741 185.469 56.2905 186.762C62.1069 188.055 67.3417 189.153 71.1547 189.864C73.0935 190.187 74.6445 190.51 75.6786 190.64C76.1956 190.704 76.5833 190.769 76.9065 190.833C77.165 190.898 77.3589 190.898 77.3589 190.898C77.3589 190.898 77.2296 190.833 76.9065 190.769C76.5833 190.704 76.1956 190.64 75.6786 190.51C74.5799 190.252 73.0289 189.993 71.1547 189.606C67.3417 188.83 62.1069 187.667 56.2905 186.374C50.4741 185.082 45.2393 183.983 41.4263 183.272C39.4875 182.949 37.9365 182.626 36.9025 182.497C36.3854 182.432 35.9977 182.367 35.6746 182.303C35.4161 182.238 35.2222 182.238 35.2222 182.238Z" fill="#1B1C26"/>
<path d="M145.928 19.1846H83.4985V210.415H145.928V19.1846Z" fill="#4E64A4"/>
<path d="M195.239 19.8309H145.864V210.48H195.239V19.8309Z" fill="white"/>
<path d="M139.918 49.8177H86.9238V64.7465H139.918V49.8177Z" fill="#1B1C26"/>
<path d="M91.3835 51.6919H88.4106V63.1308H91.3835V51.6919Z" fill="#34384A"/>
<path d="M93.9684 55.0526C94.5038 55.0526 94.9378 54.6186 94.9378 54.0832C94.9378 53.5478 94.5038 53.1138 93.9684 53.1138C93.433 53.1138 92.999 53.5478 92.999 54.0832C92.999 54.6186 93.433 55.0526 93.9684 55.0526Z" fill="#82C2D3"/>
<path d="M93.9684 59.0593C94.5038 59.0593 94.9378 58.6253 94.9378 58.0899C94.9378 57.5546 94.5038 57.1205 93.9684 57.1205C93.433 57.1205 92.999 57.5546 92.999 58.0899C92.999 58.6253 93.433 59.0593 93.9684 59.0593Z" fill="#82C2D3"/>
<path d="M101.529 53.1138H98.6211V61.903H101.529V53.1138Z" fill="#34384A"/>
<path d="M105.795 53.1138H102.887V61.903H105.795V53.1138Z" fill="#34384A"/>
<path d="M109.996 53.1138H107.087V61.903H109.996V53.1138Z" fill="#34384A"/>
<path d="M114.196 53.1138H111.288V61.903H114.196V53.1138Z" fill="#34384A"/>
<path d="M118.397 53.1138H115.489V61.903H118.397V53.1138Z" fill="#34384A"/>
<path d="M122.598 53.1138H119.69V61.903H122.598V53.1138Z" fill="#34384A"/>
<path d="M126.799 53.1138H123.891V61.903H126.799V53.1138Z" fill="#34384A"/>
<path d="M131 53.1138H128.091V61.903H131V53.1138Z" fill="#34384A"/>
<path d="M135.265 53.1138H132.356V61.903H135.265V53.1138Z" fill="#34384A"/>
<path d="M139.465 53.1138H136.557V61.903H139.465V53.1138Z" fill="#34384A"/>
<path d="M139.918 71.2092H86.9238V86.138H139.918V71.2092Z" fill="#1B1C26"/>
<path d="M91.3835 73.0833H88.4106V84.5223H91.3835V73.0833Z" fill="#34384A"/>
<path d="M93.9684 76.4439C94.5038 76.4439 94.9378 76.0099 94.9378 75.4745C94.9378 74.9391 94.5038 74.5051 93.9684 74.5051C93.433 74.5051 92.999 74.9391 92.999 75.4745C92.999 76.0099 93.433 76.4439 93.9684 76.4439Z" fill="#82C2D3"/>
<path d="M93.9684 80.5154C94.5038 80.5154 94.9378 80.0814 94.9378 79.546C94.9378 79.0106 94.5038 78.5766 93.9684 78.5766C93.433 78.5766 92.999 79.0106 92.999 79.546C92.999 80.0814 93.433 80.5154 93.9684 80.5154Z" fill="#82C2D3"/>
<path d="M101.529 74.5698H98.6211V83.359H101.529V74.5698Z" fill="#34384A"/>
<path d="M105.795 74.5698H102.887V83.359H105.795V74.5698Z" fill="#34384A"/>
<path d="M109.996 74.5698H107.087V83.359H109.996V74.5698Z" fill="#34384A"/>
<path d="M114.196 74.5698H111.288V83.359H114.196V74.5698Z" fill="#34384A"/>
<path d="M118.397 74.5698H115.489V83.359H118.397V74.5698Z" fill="#34384A"/>
<path d="M122.598 74.5698H119.69V83.359H122.598V74.5698Z" fill="#34384A"/>
<path d="M126.799 74.5698H123.891V83.359H126.799V74.5698Z" fill="#34384A"/>
<path d="M131 74.5698H128.091V83.359H131V74.5698Z" fill="#34384A"/>
<path d="M135.265 74.5698H132.356V83.359H135.265V74.5698Z" fill="#34384A"/>
<path d="M139.465 74.5698H136.557V83.359H139.465V74.5698Z" fill="#34384A"/>
<path d="M139.918 92.7946H86.9238V107.723H139.918V92.7946Z" fill="#1B1C26"/>
<path d="M91.3835 94.6688H88.4106V106.108H91.3835V94.6688Z" fill="#34384A"/>
<path d="M93.9684 98.094C94.5038 98.094 94.9378 97.6599 94.9378 97.1246C94.9378 96.5892 94.5038 96.1552 93.9684 96.1552C93.433 96.1552 92.999 96.5892 92.999 97.1246C92.999 97.6599 93.433 98.094 93.9684 98.094Z" fill="#82C2D3"/>
<path d="M93.9684 102.101C94.5038 102.101 94.9378 101.667 94.9378 101.131C94.9378 100.596 94.5038 100.162 93.9684 100.162C93.433 100.162 92.999 100.596 92.999 101.131C92.999 101.667 93.433 102.101 93.9684 102.101Z" fill="#82C2D3"/>
<path d="M101.529 96.1552H98.6211V104.944H101.529V96.1552Z" fill="#34384A"/>
<path d="M105.795 96.1552H102.887V104.944H105.795V96.1552Z" fill="#34384A"/>
<path d="M109.996 96.1552H107.087V104.944H109.996V96.1552Z" fill="#34384A"/>
<path d="M114.196 96.1552H111.288V104.944H114.196V96.1552Z" fill="#34384A"/>
<path d="M118.397 96.1552H115.489V104.944H118.397V96.1552Z" fill="#34384A"/>
<path d="M122.598 96.1552H119.69V104.944H122.598V96.1552Z" fill="#34384A"/>
<path d="M126.799 96.1552H123.891V104.944H126.799V96.1552Z" fill="#34384A"/>
<path d="M131 96.1552H128.091V104.944H131V96.1552Z" fill="#34384A"/>
<path d="M135.265 96.1552H132.356V104.944H135.265V96.1552Z" fill="#34384A"/>
<path d="M139.465 96.1552H136.557V104.944H139.465V96.1552Z" fill="#34384A"/>
<path d="M139.918 114.703H86.9238V129.632H139.918V114.703Z" fill="#1B1C26"/>
<path d="M91.3835 116.577H88.4106V128.016H91.3835V116.577Z" fill="#34384A"/>
<path d="M93.9684 119.938C94.5038 119.938 94.9378 119.504 94.9378 118.968C94.9378 118.433 94.5038 117.999 93.9684 117.999C93.433 117.999 92.999 118.433 92.999 118.968C92.999 119.504 93.433 119.938 93.9684 119.938Z" fill="#82C2D3"/>
<path d="M93.9684 124.009C94.5038 124.009 94.9378 123.575 94.9378 123.04C94.9378 122.505 94.5038 122.07 93.9684 122.07C93.433 122.07 92.999 122.505 92.999 123.04C92.999 123.575 93.433 124.009 93.9684 124.009Z" fill="#82C2D3"/>
<path d="M101.529 118.064H98.6211V126.853H101.529V118.064Z" fill="#34384A"/>
<path d="M105.795 118.064H102.887V126.853H105.795V118.064Z" fill="#34384A"/>
<path d="M109.996 118.064H107.087V126.853H109.996V118.064Z" fill="#34384A"/>
<path d="M114.196 118.064H111.288V126.853H114.196V118.064Z" fill="#34384A"/>
<path d="M118.397 118.064H115.489V126.853H118.397V118.064Z" fill="#34384A"/>
<path d="M122.598 118.064H119.69V126.853H122.598V118.064Z" fill="#34384A"/>
<path d="M126.799 118.064H123.891V126.853H126.799V118.064Z" fill="#34384A"/>
<path d="M131 118.064H128.091V126.853H131V118.064Z" fill="#34384A"/>
<path d="M135.265 118.064H132.356V126.853H135.265V118.064Z" fill="#34384A"/>
<path d="M139.465 118.064H136.557V126.853H139.465V118.064Z" fill="#34384A"/>
<path d="M139.918 139.714H86.9238V154.642H139.918V139.714Z" fill="#1B1C26"/>
<path d="M91.3835 141.588H88.4106V153.027H91.3835V141.588Z" fill="#34384A"/>
<path d="M93.9684 144.948C94.5038 144.948 94.9378 144.514 94.9378 143.979C94.9378 143.444 94.5038 143.01 93.9684 143.01C93.433 143.01 92.999 143.444 92.999 143.979C92.999 144.514 93.433 144.948 93.9684 144.948Z" fill="#82C2D3"/>
<path d="M93.9684 148.955C94.5038 148.955 94.9378 148.521 94.9378 147.986C94.9378 147.45 94.5038 147.016 93.9684 147.016C93.433 147.016 92.999 147.45 92.999 147.986C92.999 148.521 93.433 148.955 93.9684 148.955Z" fill="#82C2D3"/>
<path d="M101.529 143.01H98.6211V151.799H101.529V143.01Z" fill="#34384A"/>
<path d="M105.795 143.01H102.887V151.799H105.795V143.01Z" fill="#34384A"/>
<path d="M109.996 143.01H107.087V151.799H109.996V143.01Z" fill="#34384A"/>
<path d="M114.196 143.01H111.288V151.799H114.196V143.01Z" fill="#34384A"/>
<path d="M118.397 143.01H115.489V151.799H118.397V143.01Z" fill="#34384A"/>
<path d="M122.598 143.01H119.69V151.799H122.598V143.01Z" fill="#34384A"/>
<path d="M126.799 143.01H123.891V151.799H126.799V143.01Z" fill="#34384A"/>
<path d="M131 143.01H128.091V151.799H131V143.01Z" fill="#34384A"/>
<path d="M135.265 143.01H132.356V151.799H135.265V143.01Z" fill="#34384A"/>
<path d="M139.465 143.01H136.557V151.799H139.465V143.01Z" fill="#34384A"/>
<path d="M139.918 186.568H86.9238V201.497H139.918V186.568Z" fill="#1B1C26"/>
<path d="M91.3835 188.442H88.4106V199.881H91.3835V188.442Z" fill="#34384A"/>
<path d="M93.9684 191.803C94.5038 191.803 94.9378 191.369 94.9378 190.833C94.9378 190.298 94.5038 189.864 93.9684 189.864C93.433 189.864 92.999 190.298 92.999 190.833C92.999 191.369 93.433 191.803 93.9684 191.803Z" fill="#82C2D3"/>
<path d="M93.9684 195.874C94.5038 195.874 94.9378 195.44 94.9378 194.905C94.9378 194.37 94.5038 193.935 93.9684 193.935C93.433 193.935 92.999 194.37 92.999 194.905C92.999 195.44 93.433 195.874 93.9684 195.874Z" fill="#82C2D3"/>
<path d="M101.529 189.929H98.6211V198.718H101.529V189.929Z" fill="#34384A"/>
<path d="M105.795 189.929H102.887V198.718H105.795V189.929Z" fill="#34384A"/>
<path d="M109.996 189.929H107.087V198.718H109.996V189.929Z" fill="#34384A"/>
<path d="M114.196 189.929H111.288V198.718H114.196V189.929Z" fill="#34384A"/>
<path d="M118.397 189.929H115.489V198.718H118.397V189.929Z" fill="#34384A"/>
<path d="M122.598 189.929H119.69V198.718H122.598V189.929Z" fill="#34384A"/>
<path d="M126.799 189.929H123.891V198.718H126.799V189.929Z" fill="#34384A"/>
<path d="M131 189.929H128.091V198.718H131V189.929Z" fill="#34384A"/>
<path d="M135.265 189.929H132.356V198.718H135.265V189.929Z" fill="#34384A"/>
<path d="M139.465 189.929H136.557V198.718H139.465V189.929Z" fill="#34384A"/>
<path d="M139.918 163.173H86.9238V178.102H139.918V163.173Z" fill="#1B1C26"/>
<path d="M91.3835 165.047H88.4106V176.486H91.3835V165.047Z" fill="#34384A"/>
<path d="M93.9684 168.408C94.5038 168.408 94.9378 167.974 94.9378 167.438C94.9378 166.903 94.5038 166.469 93.9684 166.469C93.433 166.469 92.999 166.903 92.999 167.438C92.999 167.974 93.433 168.408 93.9684 168.408Z" fill="#82C2D3"/>
<path d="M93.9684 172.415C94.5038 172.415 94.9378 171.981 94.9378 171.445C94.9378 170.91 94.5038 170.476 93.9684 170.476C93.433 170.476 92.999 170.91 92.999 171.445C92.999 171.981 93.433 172.415 93.9684 172.415Z" fill="#82C2D3"/>
<path d="M101.529 166.469H98.6211V175.258H101.529V166.469Z" fill="#34384A"/>
<path d="M105.795 166.469H102.887V175.258H105.795V166.469Z" fill="#34384A"/>
<path d="M109.996 166.469H107.087V175.258H109.996V166.469Z" fill="#34384A"/>
<path d="M114.196 166.469H111.288V175.258H114.196V166.469Z" fill="#34384A"/>
<path d="M118.397 166.469H115.489V175.258H118.397V166.469Z" fill="#34384A"/>
<path d="M122.598 166.469H119.69V175.258H122.598V166.469Z" fill="#34384A"/>
<path d="M126.799 166.469H123.891V175.258H126.799V166.469Z" fill="#34384A"/>
<path d="M131 166.469H128.091V175.258H131V166.469Z" fill="#34384A"/>
<path d="M135.265 166.469H132.356V175.258H135.265V166.469Z" fill="#34384A"/>
<path d="M139.465 166.469H136.557V175.258H139.465V166.469Z" fill="#34384A"/>
<path d="M119.69 49.8177C119.69 49.8177 119.69 49.6884 119.625 49.3653C119.625 49.0422 119.56 48.5898 119.56 48.0728C119.56 47.4911 119.56 46.7802 119.496 46.0047C119.431 45.1646 119.367 44.2598 119.108 43.2904C118.85 42.321 118.397 41.287 117.686 40.3176C116.975 39.3481 116.006 38.508 114.778 37.991C113.55 37.474 112.128 37.2801 110.642 37.1508C109.156 37.0216 107.669 36.8923 106.053 36.7631C99.7847 36.2461 94.1621 35.8583 90.026 35.7937C87.958 35.729 86.2777 35.7937 85.179 35.7937C84.662 35.7937 84.2096 35.7937 83.8865 35.7937C83.5633 35.7937 83.4341 35.7937 83.4341 35.7937C83.4341 35.7937 83.5633 35.7937 83.8865 35.7291C84.2096 35.7291 84.662 35.6644 85.179 35.6644C86.3423 35.5998 88.0226 35.5998 90.026 35.5998C94.1621 35.5998 99.8493 35.9229 106.053 36.4399C107.605 36.5692 109.156 36.6985 110.642 36.8277C112.128 36.957 113.55 37.1508 114.843 37.7325C116.135 38.2495 117.169 39.1543 117.88 40.1883C118.591 41.2223 119.043 42.2564 119.302 43.2904C119.56 44.3244 119.56 45.2292 119.625 46.0693C119.625 46.9095 119.625 47.6204 119.625 48.1374C119.625 48.6544 119.625 49.1068 119.625 49.4299C119.69 49.6238 119.69 49.8177 119.69 49.8177Z" fill="#1B1C26"/>
<path d="M103.662 49.8177C103.662 49.8177 103.662 49.6884 103.662 49.3653C103.662 49.0422 103.662 48.6544 103.662 48.1374C103.662 47.6204 103.662 46.9095 103.598 46.1986C103.533 45.4231 103.404 44.5829 102.951 43.7428C102.499 42.9026 101.594 42.321 100.56 41.8686C99.5262 41.4808 98.2983 41.2869 97.0704 41.5455C96.4887 41.6747 95.8425 41.8686 95.2608 42.1271C94.6792 42.4502 94.1622 42.9026 93.839 43.4196C93.5159 44.0013 93.5159 44.7122 93.839 45.2938C94.1622 45.8754 94.7438 46.3278 95.4547 46.4571C96.101 46.651 96.8119 46.3925 97.3289 45.9401C97.8459 45.4877 98.1044 44.8414 98.169 44.1951C98.2337 43.5489 97.9752 42.9026 97.5874 42.3856C97.1996 41.8686 96.7472 41.4162 96.1656 41.1577C95.6486 40.8346 95.0023 40.8346 94.4207 40.7053C93.839 40.6407 93.2574 40.5114 92.6758 40.4468C91.5771 40.3175 90.4784 40.2529 89.509 40.1883C87.5702 40.1237 86.0192 40.1237 84.9205 40.1237C84.4035 40.1237 84.0158 40.1237 83.6926 40.1237C83.4341 40.1237 83.2402 40.1237 83.2402 40.1237C83.2402 40.1237 83.3695 40.1237 83.6926 40.059C84.0158 40.059 84.4035 39.9944 84.9205 39.9944C86.0192 39.9298 87.5702 39.8652 89.509 39.9298C90.4784 39.9298 91.5125 39.9944 92.6758 40.1237C93.2574 40.1883 93.839 40.2529 94.4207 40.3175C94.7438 40.3822 95.0023 40.3822 95.3255 40.4468C95.6486 40.5114 95.9717 40.6407 96.2302 40.7699C96.8119 41.0931 97.3289 41.5455 97.7813 42.1271C98.169 42.7087 98.4922 43.4196 98.4275 44.1305C98.3629 44.8414 98.0398 45.6169 97.5228 46.134C97.0058 46.651 96.1656 46.9741 95.3901 46.7802C94.6146 46.5863 93.9683 46.0693 93.5805 45.4231C93.1928 44.7768 93.1928 43.872 93.5805 43.2257C93.9037 42.5795 94.4853 42.1271 95.1316 41.804C95.7132 41.4808 96.3595 41.2869 97.0058 41.1577C98.2983 40.9638 99.5908 41.1577 100.625 41.5455C101.659 41.9978 102.628 42.6441 103.145 43.5489C103.598 44.4537 103.727 45.3584 103.792 46.134C103.856 46.9095 103.792 47.5557 103.792 48.1374C103.792 48.6544 103.727 49.0422 103.727 49.3653C103.662 49.6884 103.662 49.8177 103.662 49.8177Z" fill="#1B1C26"/>
<path d="M124.02 49.8178C124.02 49.8178 123.955 49.6239 123.891 49.3008C123.826 48.9776 123.761 48.5252 123.632 47.879C123.374 46.6511 122.921 44.9061 122.081 42.8381C121.241 40.77 119.819 38.4435 117.493 36.6339C116.329 35.7291 114.843 35.2121 113.292 35.0182C111.741 34.7597 110.06 34.8244 108.316 34.7597C101.465 34.6305 95.2609 34.6305 90.8017 34.5012C88.5397 34.4366 86.7302 34.3073 85.5023 34.2427C84.9206 34.1781 84.4036 34.1781 84.0805 34.1135C83.7574 34.1135 83.5635 34.0488 83.5635 34.0488C83.5635 34.0488 83.7574 34.0488 84.0805 34.0488C84.4683 34.0488 84.9206 34.1135 85.5023 34.1135C86.7302 34.1781 88.5397 34.2427 90.8017 34.3073C95.2609 34.4366 101.465 34.372 108.316 34.5012C109.996 34.5658 111.676 34.5658 113.292 34.7597C114.907 34.9536 116.459 35.4706 117.686 36.44C118.85 37.3448 119.884 38.4435 120.595 39.5421C121.37 40.6408 121.887 41.7394 122.34 42.7734C123.18 44.8415 123.567 46.6511 123.826 47.879C123.955 48.5252 124.02 48.9776 124.02 49.3008C124.02 49.6239 124.02 49.8178 124.02 49.8178Z" fill="#1B1C26"/>
<path d="M139.207 21.5758H87.6997V29.0725H139.207V21.5758Z" fill="#1B1C26"/>
<path d="M127.057 25.3242H99.0093V29.0725H127.057V25.3242Z" fill="#34384A"/>
<path d="M160.211 176.68C160.211 176.745 159.629 176.745 158.66 177.068C157.691 177.391 156.269 177.908 154.782 178.942C154.007 179.459 153.296 180.105 152.585 180.946C152.262 181.333 151.939 181.85 151.68 182.303C151.422 182.82 151.293 183.401 151.099 183.983C150.517 186.374 150.711 189.024 150.776 191.867C150.905 194.711 150.711 197.49 149.612 199.752C149.095 200.851 148.32 201.82 147.48 202.531C146.639 203.242 145.735 203.759 144.895 204.147C144.054 204.534 143.214 204.728 142.503 204.857C141.792 204.987 141.146 204.987 140.629 204.922C140.112 204.857 139.724 204.793 139.466 204.728C139.207 204.664 139.078 204.599 139.078 204.599C139.078 204.534 139.66 204.728 140.694 204.793C141.211 204.793 141.857 204.793 142.568 204.664C143.279 204.534 144.054 204.276 144.895 203.888C145.735 203.5 146.575 202.983 147.415 202.272C148.191 201.561 148.901 200.657 149.418 199.558C150.452 197.361 150.646 194.646 150.517 191.803C150.388 189.024 150.259 186.245 150.84 183.854C150.969 183.272 151.163 182.69 151.422 182.109C151.68 181.592 152.003 181.075 152.391 180.687C153.102 179.847 153.878 179.136 154.653 178.619C156.204 177.585 157.626 177.068 158.66 176.809C159.177 176.68 159.565 176.616 159.823 176.616C160.082 176.68 160.211 176.616 160.211 176.68Z" fill="#34384A"/>
<path d="M140.629 202.402H136.428V207.572H140.629V202.402Z" fill="#34384A"/>
<path d="M183.929 163.69H160.211V189.67H183.929V163.69Z" fill="#34384A"/>
<path d="M172.037 184.565C176.356 184.565 179.857 181.064 179.857 176.745C179.857 172.426 176.356 168.925 172.037 168.925C167.718 168.925 164.217 172.426 164.217 176.745C164.217 181.064 167.718 184.565 172.037 184.565Z" fill="#1B1C26"/>
<path d="M172.037 180.622C174.179 180.622 175.915 178.886 175.915 176.745C175.915 174.603 174.179 172.867 172.037 172.867C169.896 172.867 168.16 174.603 168.16 176.745C168.16 178.886 169.896 180.622 172.037 180.622Z" fill="#5BC4D6"/>
<path d="M163.377 168.408C163.77 168.408 164.088 168.09 164.088 167.697C164.088 167.304 163.77 166.986 163.377 166.986C162.985 166.986 162.667 167.304 162.667 167.697C162.667 168.09 162.985 168.408 163.377 168.408Z" fill="#82C2D3"/>
<path d="M180.31 168.408C180.702 168.408 181.02 168.09 181.02 167.697C181.02 167.304 180.702 166.986 180.31 166.986C179.917 166.986 179.599 167.304 179.599 167.697C179.599 168.09 179.917 168.408 180.31 168.408Z" fill="#82C2D3"/>
<path d="M180.439 187.602C180.832 187.602 181.15 187.284 181.15 186.891C181.15 186.499 180.832 186.18 180.439 186.18C180.046 186.18 179.728 186.499 179.728 186.891C179.728 187.284 180.046 187.602 180.439 187.602Z" fill="#82C2D3"/>
<path d="M163.377 187.861C163.77 187.861 164.088 187.542 164.088 187.15C164.088 186.757 163.77 186.439 163.377 186.439C162.985 186.439 162.667 186.757 162.667 187.15C162.667 187.542 162.985 187.861 163.377 187.861Z" fill="#82C2D3"/>
<path d="M185.868 163.69H183.929V189.67H185.868V163.69Z" fill="#1B1C26"/>
<path d="M190.65 192.772C188.647 191.738 186.255 191.544 183.993 191.932C182.766 192.126 181.538 192.449 180.697 193.354C179.857 194.259 179.728 195.874 180.633 196.65C181.214 197.102 181.99 197.167 182.701 197.167C184.446 197.167 186.385 196.844 187.806 197.942C188.582 198.524 189.099 199.558 190.068 199.881C190.973 200.204 192.072 199.623 192.589 198.782C193.106 197.942 193.106 196.908 192.912 195.939C192.912 195.874 192.718 193.806 190.65 192.772Z" fill="#C9515B"/>
<path d="M190.65 192.772C188.647 191.738 186.255 191.544 183.993 191.932C182.766 192.126 181.538 192.449 180.697 193.354C179.857 194.259 179.728 195.874 180.633 196.65C181.214 197.102 181.99 197.167 182.701 197.167C184.446 197.167 186.385 196.844 187.806 197.942C188.582 198.524 189.099 199.558 190.068 199.881C190.973 200.204 192.072 199.623 192.589 198.782C193.106 197.942 193.106 196.908 192.912 195.939C192.912 195.874 192.718 193.806 190.65 192.772Z" fill="#4E64A4"/>
<path d="M195.367 183.854C194.139 185.599 191.748 185.017 190.585 183.918C189.486 182.82 189.034 181.269 188.581 179.782C187.612 176.357 186.643 172.803 187.418 169.313C187.612 168.279 188.064 167.245 188.775 166.469C189.486 165.694 190.649 165.241 191.683 165.564C192.911 165.887 193.622 167.115 194.204 168.214C195.755 171.51 196.595 175.194 196.595 178.877C196.53 180.622 196.337 182.432 195.367 183.854Z" fill="#C9515B"/>
<path d="M195.367 183.854C194.139 185.599 191.748 185.017 190.585 183.918C189.486 182.82 189.034 181.269 188.581 179.782C187.612 176.357 186.643 172.803 187.418 169.313C187.612 168.279 188.064 167.245 188.775 166.469C189.486 165.694 190.649 165.241 191.683 165.564C192.911 165.887 193.622 167.115 194.204 168.214C195.755 171.51 196.595 175.194 196.595 178.877C196.53 180.622 196.337 182.432 195.367 183.854Z" fill="#4E64A4"/>
<path d="M198.729 186.374C197.372 184.759 197.178 182.432 197.759 180.429C198.341 178.425 199.763 176.745 201.314 175.388C203.123 173.772 205.321 172.544 207.583 171.704C208.487 171.381 209.457 171.122 210.426 171.252C211.396 171.381 212.365 171.833 212.753 172.673C213.399 173.966 212.753 175.452 212.042 176.68C210.814 178.878 209.457 180.946 207.906 182.949C206.678 184.5 205.256 186.116 203.382 186.827C201.508 187.537 199.569 187.408 198.535 186.116" fill="#4E64A4"/>
<path d="M195.238 210.48C195.238 210.48 195.173 210.221 195.109 209.704C195.044 209.123 194.98 208.412 194.915 207.507C194.85 206.602 194.721 205.504 194.463 204.276C194.204 203.112 193.816 201.82 193.299 200.463C192.782 199.17 192.136 197.942 191.36 197.038C190.585 196.068 189.745 195.357 188.905 194.969C188.064 194.582 187.354 194.388 186.837 194.323C186.32 194.259 186.061 194.194 186.061 194.194C186.061 194.194 186.32 194.194 186.901 194.194C187.418 194.259 188.194 194.388 189.034 194.776C189.874 195.163 190.843 195.874 191.619 196.844C192.394 197.813 193.041 199.041 193.622 200.334C194.139 201.691 194.527 202.983 194.786 204.211C195.044 205.439 195.109 206.538 195.173 207.442C195.238 208.347 195.238 209.123 195.238 209.64C195.303 210.157 195.303 210.48 195.238 210.48Z" fill="#1B1C26"/>
<path d="M195.11 208.8C195.11 208.8 195.11 208.67 195.11 208.412C195.11 208.153 195.11 207.766 195.11 207.378C195.11 206.473 195.11 205.116 195.11 203.436C195.045 200.14 194.786 195.551 194.269 190.575C193.752 185.534 193.041 181.075 192.395 177.843C192.266 177.003 192.072 176.292 191.943 175.646C191.814 175 191.684 174.483 191.555 174.031C191.426 173.578 191.361 173.255 191.297 172.996C191.232 172.738 191.232 172.609 191.232 172.609C191.232 172.609 191.297 172.738 191.361 172.932C191.426 173.19 191.555 173.513 191.684 173.966C191.814 174.418 191.943 174.935 192.137 175.582C192.331 176.228 192.46 176.939 192.654 177.779C193.365 181.01 194.076 185.534 194.593 190.575C195.11 195.616 195.303 200.14 195.303 203.5C195.303 205.181 195.239 206.473 195.239 207.443C195.239 207.895 195.174 208.218 195.174 208.477C195.174 208.67 195.11 208.8 195.11 208.8Z" fill="#1B1C26"/>
<path d="M195.173 199.946C195.173 199.946 195.173 199.558 195.173 198.847C195.238 198.136 195.303 197.102 195.561 195.81C195.755 194.517 196.078 193.031 196.595 191.415C197.048 189.799 197.694 188.054 198.469 186.245C200.02 182.626 202.088 179.718 203.898 177.908C204.35 177.456 204.803 177.068 205.191 176.745C205.384 176.551 205.578 176.422 205.708 176.292C205.901 176.163 206.031 176.034 206.225 175.969C206.806 175.582 207.129 175.388 207.194 175.388C207.259 175.452 205.837 176.292 204.092 178.102C202.347 179.911 200.343 182.884 198.792 186.439C198.017 188.184 197.371 189.929 196.918 191.544C196.401 193.16 196.078 194.646 195.82 195.874C195.561 197.102 195.432 198.136 195.367 198.847C195.238 199.558 195.173 199.946 195.173 199.946Z" fill="#1B1C26"/>
<path d="M188.905 66.1038C197.293 66.1038 204.092 66.017 204.092 65.9099C204.092 65.8028 197.293 65.716 188.905 65.716C180.517 65.716 173.718 65.8028 173.718 65.9099C173.718 66.017 180.517 66.1038 188.905 66.1038Z" fill="#34384A"/>
<path d="M267.038 69.1412C267.038 69.1412 266.909 69.1412 266.715 69.1412C266.521 69.1412 266.198 69.1412 265.811 69.1412C265.035 69.1412 263.872 69.1412 262.321 69.1412C259.283 69.1412 254.889 69.1412 249.331 69.2058C238.215 69.2058 222.575 69.2704 204.415 69.2704H204.286L204.221 69.1412C203.316 65.9745 203.833 62.2261 205.966 59.3825C208.034 56.5389 211.589 54.7294 215.272 54.8587L215.078 55.0525C214.82 54.1478 214.691 53.0491 214.755 52.0151C214.885 48.5252 216.888 45.1646 219.925 43.6136C222.898 42.0625 226.582 42.0625 229.426 43.6782L229.167 43.7428C230.783 39.8006 234.208 36.957 237.892 35.5999C241.575 34.2427 245.712 34.4366 248.943 36.1169C252.174 37.7972 254.501 40.6408 255.793 43.6136C257.086 46.5864 257.28 49.8178 256.634 52.5967L256.504 52.4675C258.378 52.2736 260.188 52.5967 261.674 53.243C263.225 53.8892 264.518 54.794 265.552 55.8927C266.069 56.4097 266.457 56.9913 266.78 57.6376C267.038 58.2839 267.297 58.8655 267.426 59.5118C267.749 60.7397 267.814 61.8384 267.879 62.8724C267.943 64.9404 267.685 66.4915 267.491 67.5255C267.362 68.0425 267.297 68.4303 267.168 68.6888C267.103 69.0119 267.038 69.1412 267.038 69.1412C267.038 69.1412 267.103 69.0119 267.168 68.7534C267.232 68.4949 267.362 68.1071 267.426 67.5901C267.62 66.5561 267.879 65.0051 267.749 62.937C267.685 61.903 267.555 60.8043 267.297 59.5764C266.974 58.3485 266.457 57.1206 265.423 56.0866C264.453 55.0525 263.161 54.1478 261.61 53.5015C260.123 52.9199 258.314 52.5967 256.504 52.7906H256.31L256.375 52.6613C257.021 49.947 256.827 46.7803 255.535 43.8721C254.242 40.9639 251.98 38.1849 248.814 36.5693C245.647 34.9536 241.64 34.7597 238.021 36.0523C234.402 37.3448 231.106 40.1884 229.49 44.0013L229.426 44.1952L229.232 44.1306C226.517 42.6442 222.898 42.5796 220.055 44.066C217.147 45.5524 215.208 48.7837 215.078 52.1443C215.014 53.1784 215.143 54.1478 215.402 55.0525L215.466 55.2464H215.208C211.653 55.1818 208.228 56.9267 206.225 59.641C204.221 62.42 203.64 66.0391 204.544 69.0765L204.415 68.9473C222.511 68.9473 238.086 69.0119 249.201 69.0119C254.759 69.0119 259.154 69.0765 262.256 69.0765C263.742 69.0765 264.97 69.0765 265.746 69.0765C266.134 69.0765 266.457 69.0765 266.651 69.0765C266.909 69.1412 267.038 69.1412 267.038 69.1412Z" fill="#34384A"/>
<path d="M258.314 107.271C258.314 107.271 258.184 107.271 257.926 107.271C257.603 107.271 257.215 107.271 256.762 107.271C255.728 107.271 254.177 107.271 252.303 107.336C248.49 107.336 243.191 107.4 236.987 107.4H236.857V107.206C236.857 104.621 236.857 101.778 236.857 98.9342C236.857 90.7912 236.922 83.3591 236.922 77.9951C236.922 75.3454 236.987 73.1481 236.987 71.6616C236.987 70.9507 236.987 70.3691 236.987 69.9167C236.987 69.7228 236.987 69.5936 236.987 69.4643C236.987 69.3351 236.987 69.3351 236.987 69.3351C236.987 69.3351 236.987 69.3997 236.987 69.4643C236.987 69.5936 236.987 69.7228 236.987 69.9167C236.987 70.3691 236.987 70.8861 236.987 71.6616C236.987 73.2127 236.987 75.3454 237.051 77.9951C237.051 83.3591 237.051 90.7912 237.116 98.9342C237.116 101.842 237.116 104.621 237.116 107.206L236.987 107.077C243.126 107.077 248.49 107.142 252.303 107.142C254.177 107.142 255.664 107.206 256.762 107.206C257.279 107.206 257.667 107.206 257.926 107.206C258.184 107.271 258.314 107.271 258.314 107.271Z" fill="#34384A"/>
<path d="M252.368 24.5487L237.956 19.3785L223.673 24.4841C221.864 25.3242 220.248 25.8412 220.248 27.5861V36.0523C220.248 41.9333 221.799 47.7497 224.966 52.9198C227.616 57.2498 231.752 61.7091 238.085 64.5527C243.901 62.6785 248.296 57.573 250.946 53.243C254.113 48.0728 255.664 42.2564 255.664 36.3754V28.7494C255.664 26.3582 254.371 25.1303 252.368 24.5487Z" fill="#5BC4D6"/>
<path d="M238.086 59.5764C233.045 57.3145 229.813 53.76 227.681 50.3348C225.16 46.2633 223.932 41.6748 223.932 37.0217V31.076C223.932 29.7188 224.773 28.4909 226.324 27.7154L237.892 23.3854V19.3785L223.609 24.4841C222.123 25.1303 220.184 25.8412 220.184 27.5861V36.0523C220.184 41.9333 221.735 47.7497 224.902 52.9198C227.552 57.2498 231.688 61.7091 238.021 64.5527V59.5764H238.086Z" fill="#4E64A4"/>
<path d="M249.654 27.78C251.27 28.5555 252.045 29.7835 252.045 31.1406V37.0863C252.045 41.7394 250.817 46.3279 248.297 50.3994C246.164 53.8246 243.062 57.3791 238.021 59.5764V64.488C239.055 64.1649 239.96 63.7771 240.865 63.2601C243.256 61.9676 245.324 60.158 246.875 58.5424C248.62 56.7328 249.913 54.794 251.076 52.9198C254.243 47.7497 255.794 41.9333 255.664 35.923V28.9433C255.664 25.4535 253.855 25.195 252.368 24.5487L237.957 19.3785V23.3854" fill="#4E64A4"/>
<path d="M241.77 36.6339V35.4706C241.77 33.4026 240.089 31.7223 238.021 31.7223C235.953 31.7223 234.273 33.4026 234.273 35.4706V36.6339C233.239 36.7632 232.463 37.668 232.463 38.702V45.4232C232.463 46.5865 233.433 47.4912 234.531 47.4912H241.511C242.674 47.4912 243.579 46.5218 243.579 45.4232V38.702C243.708 37.6033 242.868 36.6986 241.77 36.6339ZM239.055 43.7429H237.246L237.504 42.4503C237.181 42.2565 236.987 41.9333 236.987 41.4809C236.987 40.8347 237.504 40.3823 238.086 40.3823C238.732 40.3823 239.185 40.8993 239.185 41.4809C239.185 41.8687 238.991 42.1918 238.668 42.3857C238.861 42.9027 239.055 43.7429 239.055 43.7429ZM240.994 36.5693H235.113V35.406C235.113 33.7904 236.406 32.4978 238.021 32.4978C239.637 32.4978 240.929 33.7904 240.929 35.406L240.994 36.5693Z" fill="white"/>
</svg>
