<svg width="36" height="36" viewBox="0 0 36 36" fill="none" xmlns="http://www.w3.org/2000/svg">
<rect width="36" height="36" rx="12" fill="transparent"/>
<mask id="mask0" mask-type="alpha" maskUnits="userSpaceOnUse" x="6" y="6" width="24" height="24">
<rect x="6" y="6" width="24" height="24" fill="#C4C4C4"/>
</mask>
<g mask="url(#mask0)">
<path d="M15.4914 17.267H11.9401C11.4692 17.267 11.0175 17.0799 10.6846 16.7469C10.3516 16.414 10.1645 15.9623 10.1645 15.4914V11.9401C10.1645 11.4692 10.3516 11.0175 10.6846 10.6846C11.0175 10.3516 11.4692 10.1645 11.9401 10.1645H15.4914C15.9623 10.1645 16.414 10.3516 16.7469 10.6846C17.0799 11.0175 17.267 11.4692 17.267 11.9401V15.4914C17.267 15.9623 17.0799 16.414 16.7469 16.7469C16.414 17.0799 15.9623 17.267 15.4914 17.267ZM11.9401 10.8747C11.6576 10.8747 11.3866 10.987 11.1868 11.1868C10.987 11.3866 10.8747 11.6576 10.8747 11.9401V15.4914C10.8747 15.7739 10.987 16.0449 11.1868 16.2447C11.3866 16.4445 11.6576 16.5568 11.9401 16.5568H15.4914C15.7739 16.5568 16.0449 16.4445 16.2447 16.2447C16.4445 16.0449 16.5568 15.7739 16.5568 15.4914V11.9401C16.5568 11.6576 16.4445 11.3866 16.2447 11.1868C16.0449 10.987 15.7739 10.8747 15.4914 10.8747H11.9401ZM24.0144 17.267H20.4632C19.9922 17.267 19.5406 17.0799 19.2076 16.7469C18.8746 16.414 18.6875 15.9623 18.6875 15.4914V11.9401C18.6875 11.4692 18.8746 11.0175 19.2076 10.6846C19.5406 10.3516 19.9922 10.1645 20.4632 10.1645H24.0144C24.4854 10.1645 24.937 10.3516 25.27 10.6846C25.603 11.0175 25.7901 11.4692 25.7901 11.9401V15.4914C25.7901 15.9623 25.603 16.414 25.27 16.7469C24.937 17.0799 24.4854 17.267 24.0144 17.267ZM20.4632 10.8747C20.1806 10.8747 19.9096 10.987 19.7098 11.1868C19.51 11.3866 19.3978 11.6576 19.3978 11.9401V15.4914C19.3978 15.7739 19.51 16.0449 19.7098 16.2447C19.9096 16.4445 20.1806 16.5568 20.4632 16.5568H24.0144C24.297 16.5568 24.568 16.4445 24.7678 16.2447C24.9676 16.0449 25.0798 15.7739 25.0798 15.4914V11.9401C25.0798 11.6576 24.9676 11.3866 24.7678 11.1868C24.568 10.987 24.297 10.8747 24.0144 10.8747H20.4632ZM15.4914 25.7901H11.9401C11.4692 25.7901 11.0175 25.603 10.6846 25.27C10.3516 24.937 10.1645 24.4854 10.1645 24.0144V20.4632C10.1645 19.9922 10.3516 19.5406 10.6846 19.2076C11.0175 18.8746 11.4692 18.6875 11.9401 18.6875H15.4914C15.9623 18.6875 16.414 18.8746 16.7469 19.2076C17.0799 19.5406 17.267 19.9922 17.267 20.4632V24.0144C17.267 24.4854 17.0799 24.937 16.7469 25.27C16.414 25.603 15.9623 25.7901 15.4914 25.7901ZM11.9401 19.3978C11.6576 19.3978 11.3866 19.51 11.1868 19.7098C10.987 19.9096 10.8747 20.1806 10.8747 20.4632V24.0144C10.8747 24.297 10.987 24.568 11.1868 24.7678C11.3866 24.9676 11.6576 25.0798 11.9401 25.0798H15.4914C15.7739 25.0798 16.0449 24.9676 16.2447 24.7678C16.4445 24.568 16.5568 24.297 16.5568 24.0144V20.4632C16.5568 20.1806 16.4445 19.9096 16.2447 19.7098C16.0449 19.51 15.7739 19.3978 15.4914 19.3978H11.9401ZM25.4349 21.8837H22.5939V19.0427C22.5939 18.9485 22.5565 18.8581 22.4899 18.7915C22.4233 18.7249 22.333 18.6875 22.2388 18.6875C22.1446 18.6875 22.0543 18.7249 21.9877 18.7915C21.9211 18.8581 21.8837 18.9485 21.8837 19.0427V21.8837H19.0427C18.9485 21.8837 18.8581 21.9211 18.7915 21.9877C18.7249 22.0543 18.6875 22.1446 18.6875 22.2388C18.6875 22.333 18.7249 22.4233 18.7915 22.4899C18.8581 22.5565 18.9485 22.5939 19.0427 22.5939H21.8837V25.4349C21.8837 25.5291 21.9211 25.6195 21.9877 25.686C22.0543 25.7526 22.1446 25.7901 22.2388 25.7901C22.333 25.7901 22.4233 25.7526 22.4899 25.686C22.5565 25.6195 22.5939 25.5291 22.5939 25.4349V22.5939H25.4349C25.5291 22.5939 25.6195 22.5565 25.686 22.4899C25.7526 22.4233 25.7901 22.333 25.7901 22.2388C25.7901 22.1446 25.7526 22.0543 25.686 21.9877C25.6195 21.9211 25.5291 21.8837 25.4349 21.8837ZM14.0709 14.7811H11.585V15.4914H14.0709V14.7811ZM15.8465 14.7811H14.7811V15.4914H15.8465V14.7811Z" fill="white"/>
<path fill-rule="evenodd" clip-rule="evenodd" d="M14.2354 14.6166V15.6559H11.4205V14.6166H14.2354ZM16.011 14.6166V15.6559H14.6166V14.6166H16.011ZM15.4914 17.4315H11.9401C11.4256 17.4315 10.9321 17.2271 10.5682 16.8633C10.2044 16.4994 10 16.0059 10 15.4914V11.9401C10 11.4256 10.2044 10.9321 10.5682 10.5682C10.9321 10.2044 11.4256 10 11.9401 10H15.4914C16.0059 10 16.4994 10.2044 16.8633 10.5682C17.2271 10.9321 17.4315 11.4256 17.4315 11.9401V15.4914C17.4315 16.0059 17.2271 16.4994 16.8633 16.8633C16.4994 17.2271 16.0059 17.4315 15.4914 17.4315ZM11.9401 11.0392C11.7012 11.0392 11.472 11.1341 11.3031 11.3031C11.1341 11.472 11.0392 11.7012 11.0392 11.9401V15.4914C11.0392 15.7303 11.1341 15.9595 11.3031 16.1284C11.472 16.2974 11.7012 16.3923 11.9401 16.3923H15.4914C15.7303 16.3923 15.9595 16.2974 16.1284 16.1284C16.2974 15.9595 16.3923 15.7303 16.3923 15.4914V11.9401C16.3923 11.7012 16.2974 11.472 16.1284 11.3031C15.9595 11.1341 15.7303 11.0392 15.4914 11.0392H11.9401ZM24.0144 17.4315H20.4632C19.9486 17.4315 19.4551 17.2271 19.0913 16.8633C18.7274 16.4994 18.523 16.0059 18.523 15.4914V11.9401C18.523 11.4256 18.7274 10.9321 19.0913 10.5682C19.4551 10.2044 19.9486 10 20.4632 10H24.0144C24.529 10 25.0225 10.2044 25.3863 10.5682C25.7501 10.9321 25.9545 11.4256 25.9545 11.9401V15.4914C25.9545 16.0059 25.7501 16.4994 25.3863 16.8633C25.0225 17.2271 24.529 17.4315 24.0144 17.4315ZM20.4632 11.0392C20.2242 11.0392 19.9951 11.1341 19.8261 11.3031C19.6572 11.472 19.5623 11.7012 19.5623 11.9401V15.4914C19.5623 15.7303 19.6572 15.9595 19.8261 16.1284C19.9951 16.2974 20.2242 16.3923 20.4632 16.3923H24.0144C24.2534 16.3923 24.4825 16.2974 24.6515 16.1284C24.8204 15.9595 24.9153 15.7303 24.9153 15.4914V11.9401C24.9153 11.7012 24.8204 11.472 24.6515 11.3031C24.4825 11.1341 24.2534 11.0392 24.0144 11.0392H20.4632ZM15.4914 25.9545H11.9401C11.4256 25.9545 10.9321 25.7501 10.5682 25.3863C10.2044 25.0225 10 24.529 10 24.0144V20.4632C10 19.9486 10.2044 19.4551 10.5682 19.0913C10.9321 18.7274 11.4256 18.523 11.9401 18.523H15.4914C16.0059 18.523 16.4994 18.7274 16.8633 19.0913C17.2271 19.4551 17.4315 19.9486 17.4315 20.4632V24.0144C17.4315 24.529 17.2271 25.0225 16.8633 25.3863C16.4994 25.7501 16.0059 25.9545 15.4914 25.9545ZM11.9401 19.5623C11.7012 19.5623 11.472 19.6572 11.3031 19.8261C11.1341 19.9951 11.0392 20.2242 11.0392 20.4632V24.0144C11.0392 24.2534 11.1341 24.4825 11.3031 24.6515C11.472 24.8204 11.7012 24.9153 11.9401 24.9153H15.4914C15.7303 24.9153 15.9595 24.8204 16.1284 24.6515C16.2974 24.4825 16.3923 24.2534 16.3923 24.0144V20.4632C16.3923 20.2242 16.2974 19.9951 16.1284 19.8261C15.9595 19.6572 15.7303 19.5623 15.4914 19.5623H11.9401ZM22.7584 21.7192H25.4349C25.5727 21.7192 25.7049 21.7739 25.8024 21.8714C25.8998 21.9688 25.9545 22.101 25.9545 22.2388C25.9545 22.3766 25.8998 22.5088 25.8024 22.6062C25.7049 22.7037 25.5727 22.7584 25.4349 22.7584H22.7584V25.4349C22.7584 25.5727 22.7037 25.7049 22.6062 25.8024C22.5088 25.8998 22.3766 25.9545 22.2388 25.9545C22.101 25.9545 21.9688 25.8998 21.8714 25.8024C21.7739 25.7049 21.7192 25.5727 21.7192 25.4349V22.7584H19.0427C18.9048 22.7584 18.7727 22.7037 18.6752 22.6062C18.5778 22.5088 18.523 22.3766 18.523 22.2388C18.523 22.101 18.5778 21.9688 18.6752 21.8714C18.7727 21.7739 18.9048 21.7192 19.0427 21.7192H21.7192V19.0427C21.7192 18.9048 21.7739 18.7727 21.8714 18.6752C21.9688 18.5778 22.101 18.523 22.2388 18.523C22.3766 18.523 22.5088 18.5778 22.6062 18.6752C22.7037 18.7727 22.7584 18.9048 22.7584 19.0427V21.7192ZM11.585 14.7811H14.0709V15.4914H11.585V14.7811ZM14.7811 14.7811H15.8465V15.4914H14.7811V14.7811ZM11.9401 17.267H15.4914C15.9623 17.267 16.414 17.0799 16.7469 16.7469C17.0799 16.414 17.267 15.9623 17.267 15.4914V11.9401C17.267 11.4692 17.0799 11.0175 16.7469 10.6846C16.414 10.3516 15.9623 10.1645 15.4914 10.1645H11.9401C11.4692 10.1645 11.0175 10.3516 10.6846 10.6846C10.3516 11.0175 10.1645 11.4692 10.1645 11.9401V15.4914C10.1645 15.9623 10.3516 16.414 10.6846 16.7469C11.0175 17.0799 11.4692 17.267 11.9401 17.267ZM11.1868 11.1868C11.3866 10.987 11.6576 10.8747 11.9401 10.8747H15.4914C15.7739 10.8747 16.0449 10.987 16.2447 11.1868C16.4445 11.3866 16.5568 11.6576 16.5568 11.9401V15.4914C16.5568 15.7739 16.4445 16.0449 16.2447 16.2447C16.0449 16.4445 15.7739 16.5568 15.4914 16.5568H11.9401C11.6576 16.5568 11.3866 16.4445 11.1868 16.2447C10.987 16.0449 10.8747 15.7739 10.8747 15.4914V11.9401C10.8747 11.6576 10.987 11.3866 11.1868 11.1868ZM20.4632 17.267H24.0144C24.4854 17.267 24.937 17.0799 25.27 16.7469C25.603 16.414 25.7901 15.9623 25.7901 15.4914V11.9401C25.7901 11.4692 25.603 11.0175 25.27 10.6846C24.937 10.3516 24.4854 10.1645 24.0144 10.1645H20.4632C19.9922 10.1645 19.5406 10.3516 19.2076 10.6846C18.8746 11.0175 18.6875 11.4692 18.6875 11.9401V15.4914C18.6875 15.9623 18.8746 16.414 19.2076 16.7469C19.5406 17.0799 19.9922 17.267 20.4632 17.267ZM19.7098 11.1868C19.9096 10.987 20.1806 10.8747 20.4632 10.8747H24.0144C24.297 10.8747 24.568 10.987 24.7678 11.1868C24.9676 11.3866 25.0798 11.6576 25.0798 11.9401V15.4914C25.0798 15.7739 24.9676 16.0449 24.7678 16.2447C24.568 16.4445 24.297 16.5568 24.0144 16.5568H20.4632C20.1806 16.5568 19.9096 16.4445 19.7098 16.2447C19.51 16.0449 19.3978 15.7739 19.3978 15.4914V11.9401C19.3978 11.6576 19.51 11.3866 19.7098 11.1868ZM11.9401 25.7901H15.4914C15.9623 25.7901 16.414 25.603 16.7469 25.27C17.0799 24.937 17.267 24.4854 17.267 24.0144V20.4632C17.267 19.9922 17.0799 19.5406 16.7469 19.2076C16.414 18.8746 15.9623 18.6875 15.4914 18.6875H11.9401C11.4692 18.6875 11.0175 18.8746 10.6846 19.2076C10.3516 19.5406 10.1645 19.9922 10.1645 20.4632V24.0144C10.1645 24.4854 10.3516 24.937 10.6846 25.27C11.0175 25.603 11.4692 25.7901 11.9401 25.7901ZM11.1868 19.7098C11.3866 19.51 11.6576 19.3978 11.9401 19.3978H15.4914C15.7739 19.3978 16.0449 19.51 16.2447 19.7098C16.4445 19.9096 16.5568 20.1806 16.5568 20.4632V24.0144C16.5568 24.297 16.4445 24.568 16.2447 24.7678C16.0449 24.9676 15.7739 25.0798 15.4914 25.0798H11.9401C11.6576 25.0798 11.3866 24.9676 11.1868 24.7678C10.987 24.568 10.8747 24.297 10.8747 24.0144V20.4632C10.8747 20.1806 10.987 19.9096 11.1868 19.7098ZM25.4349 21.8837C25.5291 21.8837 25.6195 21.9211 25.686 21.9877C25.7526 22.0543 25.7901 22.1446 25.7901 22.2388C25.7901 22.333 25.7526 22.4233 25.686 22.4899C25.6195 22.5565 25.5291 22.5939 25.4349 22.5939H22.5939V25.4349C22.5939 25.5291 22.5565 25.6195 22.4899 25.686C22.4233 25.7526 22.333 25.7901 22.2388 25.7901C22.1446 25.7901 22.0543 25.7526 21.9877 25.686C21.9211 25.6195 21.8837 25.5291 21.8837 25.4349V22.5939H19.0427C18.9485 22.5939 18.8581 22.5565 18.7915 22.4899C18.7249 22.4233 18.6875 22.333 18.6875 22.2388C18.6875 22.1446 18.7249 22.0543 18.7915 21.9877C18.8581 21.9211 18.9485 21.8837 19.0427 21.8837H21.8837V19.0427C21.8837 18.9485 21.9211 18.8581 21.9877 18.7915C22.0543 18.7249 22.1446 18.6875 22.2388 18.6875C22.333 18.6875 22.4233 18.7249 22.4899 18.7915C22.5565 18.8581 22.5939 18.9485 22.5939 19.0427V21.8837H25.4349Z" fill="white"/>
</g>
</svg>
