<svg width="60" height="60" viewBox="0 0 60 60" fill="none" xmlns="http://www.w3.org/2000/svg">
<rect width="60" height="60" rx="18" fill="#EFF4FD"/>
<path fill-rule="evenodd" clip-rule="evenodd" d="M30.2478 45.9999L29.248 45.5L24.6476 43.1996V25.7626L18.8674 25.1113L18.6038 25.0816L17 24.9009L18.6853 24.4423L24.6476 25.2029V25.2029L18.6853 24.4422L18 24.6288L17 24.9009V23.8645V20.6245L17.6853 20.2816L18.6853 19.7814L19.6853 20.0159L24.6476 21.1799V16.8004L29.248 14.5L30.2478 14.0001V14L30.2479 14L30.248 14V14.0001L31.2478 14.5L35.8483 16.8004V23.5373L40.8105 22.6844L41.8105 22.5125V23.5271V27.3848L42.0007 27.3734L43.5025 27.5685L42.0172 27.6482L41.9646 27.6511L35.8483 27.9795V43.1996L31.2478 45.5L30.248 45.9999V46L30.2479 46L30.2478 46V45.9999ZM32.3594 27.952V26.9502V24.1369L34.8483 23.7091V17.4185L31.2478 15.6181V44.3819L34.8483 42.5815V28.0332L34.1167 28.0725L32.3594 27.952ZM25.6476 42.5815V25.8753L26.1711 25.9343L28.1364 25.6481L26.2308 25.4049L26.0914 25.3871L25.6476 25.3305V25.3305L27.1364 25.5204L28.1364 25.648V24.6399V21.9982L25.6476 21.4144V17.4185L29.248 15.6181V44.3819L25.6476 42.5815ZM35.8483 26.7409L40.8105 26.4431V23.699L35.8483 24.5519V26.7409ZM34.8483 24.7238V26.8009L33.3594 26.8902V24.9797L34.8483 24.7238ZM27.1364 22.7908L25.6476 22.4416V24.3224L27.1364 24.5123V22.7908ZM19.6853 23.5617L24.6476 24.1948V22.207L19.6853 21.0431V23.5617ZM43.5028 27.5685V26.5601V23.132L42.8108 22.8786L41.8108 22.5125V23.5774V27.3485L42.5028 27.4385L43.5028 27.5685Z" fill="#4164A9"/>
</svg>
