<svg width="85" height="98" viewBox="0 0 85 98" fill="none" xmlns="http://www.w3.org/2000/svg">
<path d="M80.0961 18.8462H61.2498C61.25 8.43738 52.8124 0 42.4038 0C31.9951 0 23.5575 8.43738 23.5575 18.8462H4.71146C2.10872 18.8462 0 20.9552 0 23.5577C0 26.1603 2.10891 28.2692 4.71146 28.2692H6.59605V85.75C6.60734 92.512 12.0841 97.9887 18.8461 98H65.9615C72.7235 97.9887 78.2002 92.512 78.2115 85.75V28.2692H80.0961C82.6988 28.2692 84.8075 26.1603 84.8075 23.5577C84.8075 20.9552 82.6988 18.8462 80.0961 18.8462ZM42.4038 9.42312C47.6071 9.42312 51.8269 13.6429 51.8269 18.8462H32.9806C32.9806 13.6427 37.2004 9.42312 42.4038 9.42312ZM68.7883 85.75C68.7883 87.3105 67.5218 88.5769 65.9615 88.5769H18.8461C17.2855 88.5769 16.0192 87.3103 16.0192 85.75V28.2692H68.7883V85.75Z" fill="#B1122A"/>
<path d="M32.0386 72.5577C29.4359 72.5577 27.3271 70.4488 27.3271 67.8462V49C27.3271 46.3973 29.4361 44.2885 32.0386 44.2885C34.6412 44.2885 36.7501 46.3974 36.7501 49V67.8462C36.7503 70.4488 34.6414 72.5577 32.0386 72.5577Z" fill="#C9838E"/>
<path d="M52.7701 72.5577C50.1673 72.5577 48.0586 70.4488 48.0586 67.8463V49C48.0586 46.3973 50.1675 44.2885 52.7701 44.2885C55.3728 44.2885 57.4815 46.3975 57.4815 49V67.8463C57.4815 70.4488 55.3726 72.5577 52.7701 72.5577Z" fill="#C9838E"/>
</svg>
