<?xml version="1.0"?>
<svg xmlns="http://www.w3.org/2000/svg" height="512px" viewBox="0 0 128 128" width="512px" data-minimalscrollbar="yes" class=""><g><script xmlns=""/><g><path d="m98.75 55.079h-69.5a1.75 1.75 0 0 1 -1.75-1.75v-9.079a36.5 36.5 0 0 1 73 0v9.079a1.749 1.749 0 0 1 -1.75 1.75zm-67.75-3.5h66v-7.329a33 33 0 0 0 -66 0z" fill="#00ccbf" data-original="#00CCBF" class="" style="fill:#0E2A47" data-old_color="#00ccbf"/><path d="m27.167 53.75 9.926 62.688a6 6 0 0 0 5.926 5.062h41.962a6 6 0 0 0 5.926-5.062l9.926-62.688z" fill="#fd637b" data-original="#FD637B" class="" style="fill:#4164A9" data-old_color="#fd637b"/><path d="m85.488 114.055a1.718 1.718 0 0 1 -.275-.022 1.749 1.749 0 0 1 -1.455-2l1.206-7.615a1.75 1.75 0 1 1 3.457.547l-1.206 7.615a1.752 1.752 0 0 1 -1.727 1.475z" fill="#ff3e63" data-original="#FF3E63" class="" style="fill:#194C80" data-old_color="#ff3e63"/><g fill="#62e0da"><path d="m24.192 50.667h79.615v6h-79.615z" data-original="#62E0DA" class="active-path" style="fill:#0E2A47" data-old_color="#62E0DA"/><path d="m74.67 10.361a3.007 3.007 0 0 1 -3.7 2.91 31.864 31.864 0 0 0 -13.934 0 3.007 3.007 0 0 1 -3.7-2.91 3 3 0 0 1 2.321-2.927 37.783 37.783 0 0 1 16.7 0 3 3 0 0 1 2.313 2.927z" data-original="#62E0DA" class="active-path" style="fill:#0E2A47" data-old_color="#62E0DA"/></g></g></g> </svg>
