<svg width="36" height="36" viewBox="0 0 36 36" fill="none" xmlns="http://www.w3.org/2000/svg">
<rect width="36" height="36" rx="12" fill="transparent"/>
<mask id="mask0" mask-type="alpha" maskUnits="userSpaceOnUse" x="6" y="6" width="24" height="24">
<rect x="6" y="6" width="24" height="24" fill="#C4C4C4"/>
</mask>
<g mask="url(#mask0)">
<path fill-rule="evenodd" clip-rule="evenodd" d="M18.9324 9.48983C18.497 8.83672 17.5373 8.83672 17.1019 9.48983L12.4064 16.5331H8.10067C7.36985 16.5331 6.84222 17.2326 7.04299 17.9353L9.40212 26.1923C9.53704 26.6645 9.96867 26.9901 10.4598 26.9901H25.5745C26.0657 26.9901 26.4973 26.6645 26.6322 26.1923L28.9913 17.9353C29.1921 17.2326 28.6645 16.5331 27.9337 16.5331H23.6279L18.9324 9.48983ZM18.0172 10.2803L22.1857 16.5331H13.8486L18.0172 10.2803ZM10.5352 25.7901L8.23324 17.7331H12.7275H23.3068H27.8011L25.4991 25.7901H10.5352ZM18.0187 22.4221C18.7491 22.4221 19.3411 21.83 19.3411 21.0996C19.3411 20.3693 18.7491 19.7772 18.0187 19.7772C17.2884 19.7772 16.6963 20.3693 16.6963 21.0996C16.6963 21.83 17.2884 22.4221 18.0187 22.4221Z" fill="white"/>
<path d="M17.1019 9.48983L16.9771 9.40662V9.40662L17.1019 9.48983ZM18.9324 9.48983L18.8076 9.57303V9.57303L18.9324 9.48983ZM12.4064 16.5331V16.6831H12.4866L12.5312 16.6163L12.4064 16.5331ZM7.04299 17.9353L7.18722 17.8941L7.04299 17.9353ZM9.40212 26.1923L9.25789 26.2335H9.25789L9.40212 26.1923ZM26.6322 26.1923L26.7764 26.2335L26.6322 26.1923ZM28.9913 17.9353L29.1356 17.9765L28.9913 17.9353ZM23.6279 16.5331L23.5031 16.6163L23.5477 16.6831H23.6279V16.5331ZM22.1857 16.5331V16.6831H22.466L22.3105 16.4499L22.1857 16.5331ZM18.0172 10.2803L18.142 10.1971L18.0172 10.0099L17.8924 10.1971L18.0172 10.2803ZM13.8486 16.5331L13.7238 16.4499L13.5683 16.6831H13.8486V16.5331ZM8.23324 17.7331V17.5831H8.03438L8.08901 17.7743L8.23324 17.7331ZM10.5352 25.7901L10.391 25.8313L10.4221 25.9401H10.5352V25.7901ZM27.8011 17.7331L27.9453 17.7743L27.9999 17.5831H27.8011V17.7331ZM25.4991 25.7901V25.9401H25.6122L25.6433 25.8313L25.4991 25.7901ZM17.2267 9.57303C17.6027 9.00899 18.4316 9.00899 18.8076 9.57303L19.0572 9.40662C18.5624 8.66446 17.4719 8.66446 16.9771 9.40662L17.2267 9.57303ZM12.5312 16.6163L17.2267 9.57303L16.9771 9.40662L12.2816 16.4499L12.5312 16.6163ZM8.10067 16.6831H12.4064V16.3831H8.10067V16.6831ZM7.18722 17.8941C7.01383 17.2872 7.46951 16.6831 8.10067 16.6831V16.3831C7.2702 16.3831 6.67062 17.178 6.89876 17.9765L7.18722 17.8941ZM9.54635 26.1511L7.18722 17.8941L6.89876 17.9765L9.25789 26.2335L9.54635 26.1511ZM10.4598 26.8401C10.0356 26.8401 9.66287 26.5589 9.54635 26.1511L9.25789 26.2335C9.41121 26.7701 9.90169 27.1401 10.4598 27.1401V26.8401ZM25.5745 26.8401H10.4598V27.1401H25.5745V26.8401ZM26.488 26.1511C26.3714 26.5589 25.9987 26.8401 25.5745 26.8401V27.1401C26.1326 27.1401 26.6231 26.7701 26.7764 26.2335L26.488 26.1511ZM28.8471 17.8941L26.488 26.1511L26.7764 26.2335L29.1356 17.9765L28.8471 17.8941ZM27.9337 16.6831C28.5648 16.6831 29.0205 17.2872 28.8471 17.8941L29.1356 17.9765C29.3637 17.178 28.7641 16.3831 27.9337 16.3831V16.6831ZM23.6279 16.6831H27.9337V16.3831H23.6279V16.6831ZM18.8076 9.57303L23.5031 16.6163L23.7528 16.4499L19.0572 9.40662L18.8076 9.57303ZM22.3105 16.4499L18.142 10.1971L17.8924 10.3635L22.0609 16.6163L22.3105 16.4499ZM13.8486 16.6831H22.1857V16.3831H13.8486V16.6831ZM17.8924 10.1971L13.7238 16.4499L13.9734 16.6163L18.142 10.3635L17.8924 10.1971ZM8.08901 17.7743L10.391 25.8313L10.6795 25.7489L8.37747 17.6919L8.08901 17.7743ZM12.7275 17.5831H8.23324V17.8831H12.7275V17.5831ZM23.3068 17.5831H12.7275V17.8831H23.3068V17.5831ZM27.8011 17.5831H23.3068V17.8831H27.8011V17.5831ZM25.6433 25.8313L27.9453 17.7743L27.6568 17.6919L25.3549 25.7489L25.6433 25.8313ZM10.5352 25.9401H25.4991V25.6401H10.5352V25.9401ZM19.1911 21.0996C19.1911 21.7472 18.6662 22.2721 18.0187 22.2721V22.5721C18.8319 22.5721 19.4911 21.9128 19.4911 21.0996H19.1911ZM18.0187 19.9272C18.6662 19.9272 19.1911 20.4521 19.1911 21.0996H19.4911C19.4911 20.2865 18.8319 19.6272 18.0187 19.6272V19.9272ZM16.8463 21.0996C16.8463 20.4521 17.3712 19.9272 18.0187 19.9272V19.6272C17.2055 19.6272 16.5463 20.2865 16.5463 21.0996H16.8463ZM18.0187 22.2721C17.3712 22.2721 16.8463 21.7472 16.8463 21.0996H16.5463C16.5463 21.9128 17.2055 22.5721 18.0187 22.5721V22.2721Z" fill="white"/>
</g>
</svg>
