<svg width="44" height="44" viewBox="0 0 44 44" fill="none" xmlns="http://www.w3.org/2000/svg">
<rect width="44" height="44" rx="10" fill="transparent"/>
<mask id="mask0_27_762" style="mask-type:alpha" maskUnits="userSpaceOnUse" x="10" y="10" width="24" height="24">
<rect x="10" y="10" width="24" height="24" fill="#C4C4C4"/>
</mask>
<g mask="url(#mask0_27_762)">
<path d="M20.5 19.5714C17.1686 19.5714 13.8262 18.9688 12 17.6741V19.5714C12 21.1451 15.8073 22.4286 20.5 22.4286C25.1927 22.4286 29 21.1451 29 19.5714V17.6741C27.1738 18.9688 23.8314 19.5714 20.5 19.5714ZM20.5 28.1429C17.1686 28.1429 13.8262 27.5402 12 26.2455V28.1429C12 29.7165 15.8073 31 20.5 31C25.1927 31 29 29.7165 29 28.1429V26.2455C27.1738 27.5402 23.8314 28.1429 20.5 28.1429ZM20.5 23.8571C17.1686 23.8571 13.8262 23.2545 12 21.9598V23.8571C12 25.4308 15.8073 26.7143 20.5 26.7143C25.1927 26.7143 29 25.4308 29 23.8571V21.9598C27.1738 23.2545 23.8314 23.8571 20.5 23.8571ZM20.5 11C15.8073 11 12 12.2835 12 13.8571V15.2857C12 16.8594 15.8073 18.1429 20.5 18.1429C25.1927 18.1429 29 16.8594 29 15.2857V13.8571C29 12.2835 25.1927 11 20.5 11Z" fill="white"/>
<path d="M31.6745 24.775L31.6745 32.0329C31.6727 32.4802 31.253 32.9269 30.4145 33.2683C28.7269 33.9553 25.9812 33.9554 24.2826 33.2683C23.4277 32.9225 23.0007 32.4687 23.0026 32.0155L23.0026 24.7577C23.0007 25.2108 23.4276 25.6647 24.2826 26.0105C25.9812 26.6975 28.7269 26.6975 30.4145 26.0104C31.253 25.6691 31.6727 25.2224 31.6745 24.775Z" fill="#FDE0F1"/>
<path d="M31.6746 24.7749C31.6728 25.2223 31.2531 25.669 30.4146 26.0103C29.6053 26.3398 28.5525 26.5095 27.4888 26.523V33.7808C28.5525 33.7674 29.6053 33.5976 30.4146 33.2682C31.2531 32.9268 31.6728 32.4801 31.6746 32.0327L31.6746 24.7749Z" fill="#FDE0F1"/>
<path d="M31.6747 24.7732C31.6762 23.8015 29.7362 23.0107 27.3415 23.0069C24.9468 23.0031 23.0043 23.7878 23.0028 24.7595C23.0012 25.7312 24.9413 26.522 27.336 26.5258C29.7306 26.5296 31.6732 25.7449 31.6747 24.7732Z" fill="#FDE0F1"/>
<path d="M31.567 24.388C31.6712 24.8757 31.2678 25.3773 30.3512 25.7504C28.6985 26.4232 26.0097 26.4234 24.3461 25.7504C23.4186 25.3753 23.007 24.8703 23.1093 24.3802C22.8 24.9487 23.1889 25.568 24.2829 26.0104C25.9816 26.6975 28.7272 26.6974 30.4149 26.0104C31.4968 25.57 31.8776 24.9543 31.567 24.388Z" fill="white"/>
<path d="M27.0069 28.0471L26.1719 30.2039H27.1911L26.442 32.0451L28.6401 29.4675H27.6761L28.9315 28.0726L27.0069 28.0471Z" fill="white"/>
</g>
</svg>