<svg width="95" height="63" viewBox="0 0 95 63" fill="none" xmlns="http://www.w3.org/2000/svg">
<g clip-path="url(#clip0)">
<path d="M76.2417 16.9616C76.9466 25.1255 64.1469 32.9166 47.6371 34.3332C31.1273 35.7497 17.2146 30.2698 16.5097 22.1059C15.8048 13.942 28.6045 6.15091 45.1143 4.73434C61.5869 3.31778 75.5367 8.76038 76.2417 16.9616Z" fill="#BBE6FB"/>
<path d="M45.5592 5.66629C39.2521 5.55446 31.9062 8.08937 26.4153 10.4379C25.8588 12.0781 25.5249 13.8302 25.5249 15.6568C25.5249 25.3491 34.2435 33.2148 45.0027 33.2148C55.7619 33.2148 64.5176 25.3864 64.5176 15.6568C64.5176 12.6 63.6272 9.69233 62.1061 7.19469C57.7282 6.52369 51.6808 5.77813 45.5592 5.66629Z" fill="white"/>
<path d="M45.0402 5.66629C41.5528 5.44262 35.5425 7.26925 30.5339 9.09588C29.7548 10.8852 29.3467 12.861 29.3467 14.9485C29.3467 23.4479 37.0265 30.3444 45.1144 30.3444C53.1653 30.3444 60.2886 23.4479 60.8822 14.9485C61.0677 12.19 60.1402 9.58049 58.8045 7.34381C53.6476 6.44913 48.1567 5.88996 45.0402 5.66629Z" fill="white"/>
<path d="M36.099 13.8675C36.5442 12.8982 37.1749 12.4509 37.8056 11.6681C37.7314 11.4817 37.583 10.848 37.583 10.6616C37.583 9.69233 38.3621 8.94677 39.2897 8.94677C39.5123 8.94677 39.7349 8.98405 39.9204 9.0586C42.7771 6.85919 46.5243 5.92724 50.3085 6.78464C50.6424 6.8592 50.9763 6.97103 51.3103 7.04559C47.6002 6.52369 43.3707 7.8657 40.514 10.1769C40.5882 10.4006 40.8479 10.9598 40.8479 11.2207C40.8479 12.19 40.2172 12.4136 39.2897 12.4136C39.0671 12.4136 38.8815 12.3764 38.6589 12.3018C38.0282 13.1592 37.212 14.8367 36.841 15.8805C38.4363 17.2971 39.8462 17.819 41.7012 18.5272C41.7012 18.4527 41.7754 18.3408 41.7754 18.2663C41.7754 15.3959 44.2982 13.0474 47.155 13.0474C49.7149 13.0474 51.8668 14.9113 52.2749 17.3716C53.5734 16.5515 54.7977 15.9178 55.7252 14.7249C55.5026 14.4639 55.28 13.6811 55.28 13.3083C55.28 12.4509 55.9849 11.7426 56.8382 11.7426C56.9495 11.7426 57.0608 11.7426 57.2092 11.7799C57.6916 10.7734 58.0626 9.72961 58.2852 8.64854C53.796 5.29352 45.1144 5.77813 45.1144 5.77813C45.1144 5.77813 38.2137 5.40535 33.5391 7.71659C33.873 9.87872 34.7634 12.0409 36.099 13.8675Z" fill="white"/>
<path d="M57.5432 12.5627C57.8771 12.861 58.0255 13.0846 58.1739 13.3456C58.582 14.0911 57.7658 14.7994 56.8754 14.7994C56.8012 14.7994 56.6899 14.7994 56.6157 14.7622C55.6511 16.2906 53.9444 18.229 52.4233 19.2355C54.7607 19.6083 56.9496 20.5403 58.6562 21.9941C59.9176 19.7201 60.8823 16.4024 60.8823 13.6065C60.8823 11.4817 59.9547 9.916 58.5449 8.76038C58.5078 9.916 57.8771 11.519 57.5432 12.5627ZM38.6961 27.0266C39.4752 24.8645 41.3673 23.2243 43.1853 21.7704C42.9256 21.3977 42.5174 20.503 42.369 20.0929C40.1801 19.4219 38.2509 18.1545 36.7298 16.5142C36.7298 16.5515 36.6927 16.6261 36.6927 16.6633C36.3958 17.9308 36.3587 19.2355 36.5071 20.4657C37.546 20.6521 38.3622 21.584 38.3622 22.7024C38.3622 23.3734 37.7686 24.3053 37.3234 24.7527C37.7686 25.7219 38.1025 26.2438 38.6961 27.0266Z" fill="white"/>
<path d="M38.5476 28.816C37.6201 27.8841 36.9894 26.0574 36.3958 24.9018C36.2845 24.9018 36.1732 24.9391 36.0619 24.9391C34.8005 24.9391 33.5019 23.8953 33.7987 22.6651C33.9472 21.9941 34.4295 21.5468 35.1715 21.174C34.986 19.7574 34.9489 17.7817 35.2828 16.3278C35.357 15.9178 35.5796 15.7314 35.6909 15.3213C34.3182 13.3083 33.4277 10.6243 33.4277 7.97755V7.67932C31.0904 8.87222 29.3467 10.6988 29.3467 13.6065C29.3467 20.0557 33.0567 26.3929 38.5476 28.8533V28.816ZM52.0893 19.9065C51.3844 21.9196 49.4552 23.4107 47.1921 23.4107C45.9677 23.4107 44.8547 23.0006 44.0014 22.2923C42.1835 23.7089 40.514 26.2065 39.6977 28.4059C40.0687 28.816 40.3285 29.1515 40.7737 29.5243C42.0351 29.8598 43.8159 29.5243 45.1886 29.5243C50.7166 29.5243 55.651 27.0639 58.4706 22.7024C56.5414 21.3604 54.3154 20.0929 52.0893 19.9065Z" fill="white"/>
<path d="M35.9506 14.613C36.3958 13.6437 36.9152 12.7864 37.5459 11.9662C37.4717 11.7798 37.4346 11.5562 37.4346 11.3698C37.4346 10.4006 38.2137 9.65499 39.1412 9.65499C39.3638 9.65499 39.5864 9.69227 39.7719 9.76683C42.6287 7.56742 46.3758 6.63547 50.1601 7.49286C50.494 7.56742 50.8279 7.67925 51.1618 7.75381C47.4518 7.23191 43.5933 8.38754 40.7366 10.6988C40.8108 10.9224 40.885 11.1461 40.885 11.3698C40.885 12.339 40.1058 13.0846 39.1783 13.0846C38.9557 13.0846 38.7702 13.0473 38.5476 12.9727C37.9169 13.8301 37.3604 14.7994 36.9894 15.8432C38.3621 17.297 40.0316 18.4899 41.8867 19.1609V18.9C41.8867 16.0295 44.224 13.681 47.0808 13.681C49.6407 13.681 51.7925 15.5449 52.2006 18.0053C53.4992 17.1852 54.6122 16.1414 55.5768 14.9112C55.3542 14.6503 55.2058 14.3148 55.2058 13.942C55.2058 13.0846 55.9107 12.3763 56.764 12.3763C56.8753 12.3763 56.9866 12.3763 57.135 12.4136C57.6173 11.4071 57.9883 10.3633 58.2109 9.28221C53.7218 5.92718 45.0402 6.4118 45.0402 6.4118C45.0402 6.4118 38.1395 6.03902 33.4648 8.35026C33.7245 10.6242 34.615 12.7864 35.9506 14.613Z" fill="#1287B1"/>
<path d="M57.7657 12.8237C58.0997 13.1219 58.2852 13.532 58.2852 13.9793C58.2852 14.8367 57.5802 15.545 56.7269 15.545C56.6527 15.545 56.5414 15.545 56.4672 15.5077C55.5026 17.0361 54.2041 18.3408 52.683 19.3101C54.909 19.6456 57.0237 20.6148 58.7675 22.0686C60.0289 19.7947 60.7709 17.1479 60.7709 14.3521C60.7709 12.2272 59.8434 10.6615 58.4336 9.50592C58.3594 10.6615 58.1368 11.7799 57.7657 12.8237ZM38.9187 27.5112C39.6978 25.3491 41.0334 23.4479 42.8513 21.9941C42.5916 21.6213 42.369 21.2485 42.2206 20.8012C40.0317 20.1302 38.1024 18.8627 36.5813 17.2225C36.5813 17.2598 36.5442 17.3343 36.5442 17.3716C36.2474 18.6391 36.2103 19.9438 36.3587 21.174C37.3975 21.3604 38.2137 22.2923 38.2137 23.4107C38.2137 24.0817 37.9169 24.6781 37.4717 25.0882C37.8427 25.9456 38.3621 26.7657 38.9187 27.5112Z" fill="#1287B1"/>
<path d="M38.5471 28.7787C37.6196 27.8468 36.8405 26.803 36.2469 25.6474C36.1356 25.6474 36.0243 25.6846 35.913 25.6846C34.6515 25.6846 33.6498 24.6781 33.6498 23.4107C33.6498 22.516 34.1692 21.7331 34.9112 21.3604C34.7257 19.9438 34.7999 18.5272 35.1338 17.0734C35.208 16.6633 35.3565 16.2533 35.4678 15.8432C34.095 13.8302 33.2788 11.3698 33.2788 8.72309V8.42487C30.9415 9.61777 29.1978 11.4444 29.1978 14.3521C29.1978 20.8012 33.0191 26.3556 38.51 28.816C38.5471 28.816 38.5471 28.816 38.5471 28.7787ZM51.9404 20.6521C51.2355 22.6651 49.3063 24.1562 47.0431 24.1562C45.8188 24.1562 44.7058 23.7462 43.8525 23.0379C42.0346 24.4545 40.6618 26.3929 39.8085 28.5923C40.1795 29.0024 40.5876 29.3752 40.9957 29.7479C42.2572 30.0834 43.5928 30.2698 44.9655 30.2698C50.4935 30.2698 55.3908 27.3994 58.2104 23.0379C56.3554 21.6959 54.1665 20.8385 51.9404 20.6521Z" fill="#1287B1"/>
<path d="M52.1262 19.3101L56.9122 18.1545L52.0891 17.8935L56.0218 14.9113L51.5697 16.5142L54.5749 12.3018L50.3825 15.0976L51.8294 10.1769L48.9727 14.2403L48.8985 9.09587L47.0063 13.6811L45.4481 9.05859L45.5223 14.5012L42.814 9.61777L44.298 14.7994L39.883 11.5935L43.3334 15.955L37.8425 13.942L42.1462 17.1479L36.6182 17.3343L42.2946 18.7882L36.6182 20.0184L42.2204 20.4284L37.5086 23.4479L42.3688 21.6959L38.9926 25.9828L43.2592 22.516L41.738 28.2568L45.04 23.5598L44.5948 29.0769L46.4498 24.0444L48.0451 29.3006L48.4162 24.0071L50.7906 28.5178L49.3808 23.3734L53.6844 26.7284L50.9019 22.4414L55.6508 24.3053L52.0149 20.7266L56.8751 21.0994L52.1262 19.3101Z" fill="white"/>
<path d="M1.03906 28.5177C15.9164 13.5692 27.7886 8.94675 38.5849 6.85917C39.9947 6.59823 40.2915 3.42959 40.2915 3.42959C40.2915 3.42959 40.477 5.74083 41.4787 6.03906C42.4804 6.33728 43.7789 2.42308 43.7789 2.42308C43.7789 2.42308 42.5917 5.92722 43.7789 6.15089C44.9662 6.33728 47.1922 2.72131 47.1922 2.72131C47.1922 2.72131 46.3018 5.81539 46.8954 6.03906C47.489 6.22545 50.4941 1.52841 50.4941 1.52841C50.4941 1.52841 48.7133 4.62249 50.3828 4.95799C52.0895 5.25622 54.5752 2.83314 54.5752 2.83314C54.5752 2.83314 52.646 5.03255 53.4993 5.36805C57.2093 6.67278 60.1774 1.86391 60.1774 1.86391C60.1774 1.86391 59.4725 3.98876 57.6917 6.3C61.5872 7.30651 64.4811 1.41657 64.4811 1.41657L61.5872 7.30651C63.0712 8.05207 69.0444 1.11835 69.0444 1.11835C69.0444 1.11835 65.9651 6.52367 64.1472 7.64201C65.1489 8.46213 68.7476 5.21894 68.7476 5.21894C68.7476 5.21894 65.8538 8.83491 66.9668 9.0213C68.5621 10.326 74.4611 2.31125 74.4611 2.31125C74.4611 2.31125 72.1609 7.04556 68.7847 10.7361C71.6044 12.1899 78.6535 3.05681 78.6535 3.05681C78.6535 3.05681 78.468 5.9645 73.3481 10.587C77.1324 10.1024 82.0296 2.87042 82.0296 2.87042C82.0296 2.87042 80.2488 8.27574 75.9451 12.1154C79.6552 11.7426 85.6284 2.49764 85.6284 2.49764C85.6284 2.49764 83.3282 8.90947 78.6535 12.6373C83.8476 13.7929 91.3419 6.00178 91.3419 6.00178C91.3419 6.00178 88.4109 11.5189 84.5525 13.7929C88.8561 15.4331 94.7551 8.61125 94.7551 8.61125C94.7551 8.61125 88.8561 17.7444 79.4697 17.3343C76.3904 17.1852 67.0781 7.94024 47.118 8.6858C20.7024 9.65503 15.1373 20.913 1.03906 28.5177Z" fill="white" fill-opacity="0.35"/>
<path d="M1.63232 27.3994C16.5097 12.4509 28.3818 7.82843 39.1781 5.74086C40.5879 5.47991 40.8848 2.31127 40.8848 2.31127C40.8848 2.31127 41.0703 4.62251 42.072 4.92074C43.0737 5.21896 44.3722 1.30476 44.3722 1.30476C44.3722 1.30476 43.185 4.80891 44.3722 5.03257C45.5594 5.21896 47.7855 1.60299 47.7855 1.60299C47.7855 1.60299 46.895 4.69707 47.4887 4.92074C48.0823 5.10713 51.0874 0.410088 51.0874 0.410088C51.0874 0.410088 49.3066 3.50417 50.9761 3.83967C52.6827 4.1379 55.1685 1.71482 55.1685 1.71482C55.1685 1.71482 53.2393 3.91423 54.0926 4.24973C57.8026 5.55447 60.7707 0.745591 60.7707 0.745591C60.7707 0.745591 60.0658 2.87044 58.2849 5.18169C62.1805 6.1882 65.0743 0.298254 65.0743 0.298254L62.1805 6.1882C63.6645 7.00831 69.6748 0.074585 69.6748 0.074585C69.6748 0.074585 66.5955 5.47991 64.7775 6.59825C65.7793 7.30654 69.378 4.10062 69.378 4.10062C69.378 4.10062 66.4842 7.7166 67.5972 7.90299C69.1925 9.20772 75.0915 1.19293 75.0915 1.19293C75.0915 1.19293 72.7542 5.92725 69.378 9.61778C72.1977 11.0343 79.2839 1.90121 79.2839 1.90121C79.2839 1.90121 79.0984 4.8089 73.9785 9.43139C77.7627 8.94678 82.66 1.71482 82.66 1.71482C82.66 1.71482 80.8792 7.12015 76.5755 10.9598C80.2856 10.587 86.2588 1.34204 86.2588 1.34204C86.2588 1.34204 83.9585 7.75388 79.2839 11.4817C84.478 12.6373 91.9723 4.84618 91.9723 4.84618C91.9723 4.84618 89.0413 10.3633 85.1829 12.6373C89.4865 14.2775 95.3855 7.45565 95.3855 7.45565C95.3855 7.45565 89.4865 16.5888 80.1001 16.1787C77.0207 16.0296 67.7085 6.78465 47.7484 7.53021C21.3327 8.53672 15.7305 19.7574 1.63232 27.3994Z" fill="white"/>
<path d="M0.66748 30.158C8.53281 34.1095 15.7303 29.5615 24.7829 32.1337C31.6836 34.0722 40.0683 36.4953 51.4582 34.8178C62.8481 33.1775 72.5684 28.1823 77.2431 19.3101C78.69 15.3586 84.589 20.2047 84.589 20.2047C84.589 20.2047 80.2853 18.4154 80.3967 19.2355C80.5079 20.0929 86.8522 23.0379 86.8522 23.0379C86.8522 23.0379 81.1016 21.2485 81.4726 22.5905C81.8065 23.9325 88.6701 29.3752 88.6701 29.3752C88.6701 29.3752 80.8419 23.4852 80.2112 24.3053C79.5433 25.1254 83.5131 28.3686 83.5131 28.3686C83.5131 28.3686 76.9834 24.3053 74.6832 25.4982C73.0136 26.3556 81.4726 31.9101 81.4726 31.9101C81.4726 31.9101 75.9817 27.6976 74.6832 28.816C73.3846 29.9343 80.879 38.9556 80.879 38.9556C80.879 38.9556 72.3458 29.7107 71.4925 30.158C70.6392 30.6053 73.8298 35.0414 73.8298 35.0414C73.8298 35.0414 69.6746 30.4189 68.5245 31.2018C67.3743 32.0219 74.5348 43.9882 74.5348 43.9882C74.5348 43.9882 66.7807 31.7237 63.553 33.774C68.5616 44.8456 66.7065 46.4112 66.7065 46.4112C66.7065 46.4112 66.0758 35.116 59.8058 35.4142C56.6523 35.5633 61.2898 43.8391 61.2898 43.8391C61.2898 43.8391 57.0233 36.2716 54.1665 36.4207C59.3977 46.4112 57.5427 50.4373 57.5427 50.4373C57.5427 50.4373 58.396 41.9006 51.3098 37.1663C54.0181 39.5894 49.6032 50.4373 49.6032 50.4373C49.6032 50.4373 53.4616 34.445 46.7464 37.5018C45.6705 37.9864 46.6722 45.4793 46.6722 45.4793C46.6722 45.4793 45.3366 36.9053 43.2961 37.3527C42.1088 37.6136 35.8017 49.2444 35.8017 49.2444C35.8017 49.2444 40.9587 36.6817 39.4005 37.2036C38.2504 37.5763 36.0985 42.758 36.0985 42.758C36.0985 42.758 37.1374 37.6509 36.0985 37.3527C35.0597 37.0544 29.1978 42.758 29.1978 42.758C29.1978 42.758 33.5386 37.6509 32.7966 36.5698C31.6465 34.9669 30.348 34.8923 28.7526 35.526C26.4524 36.4207 23.373 40.6331 23.373 40.6331C23.373 40.6331 26.4524 36.3462 25.933 34.7805C25.0797 32.2083 16.2126 39.7385 16.2126 39.7385C16.2126 39.7385 21.4438 34.7805 20.2566 33.6994C19.0694 32.6556 12.5397 32.9538 10.5362 32.9538C4.56304 33.0284 2.48541 31.6118 0.66748 30.158Z" fill="white" fill-opacity="0.35"/>
<path d="M0.333984 29.2633C8.19931 33.2148 15.3968 28.6668 24.4494 31.239C31.3501 33.1775 39.7348 35.6006 51.1247 33.923C62.5146 32.2828 72.2349 27.2875 76.9096 18.4153C78.3565 14.4639 84.2555 19.31 84.2555 19.31C84.2555 19.31 79.9519 17.5207 80.0632 18.3408C80.1745 19.1982 86.5187 22.1432 86.5187 22.1432C86.5187 22.1432 80.7681 20.3538 81.1391 21.6958C81.473 23.0378 88.3366 28.4804 88.3366 28.4804C88.3366 28.4804 80.5826 22.5532 79.9519 23.3733C79.3211 24.1935 83.2538 27.4366 83.2538 27.4366C83.2538 27.4366 76.7241 23.3733 74.4239 24.5662C72.7543 25.4236 81.2133 30.9781 81.2133 30.9781C81.2133 30.9781 75.7224 26.7656 74.4239 27.884C73.1254 29.0023 80.6197 38.0236 80.6197 38.0236C80.6197 38.0236 72.1236 28.7787 71.2703 29.226C70.417 29.6733 73.6077 34.1094 73.6077 34.1094C73.6077 34.1094 69.3782 29.5242 68.2281 30.3071C67.0779 31.1272 74.2013 43.0935 74.2013 43.0935C74.2013 43.0935 66.4472 30.7917 63.2566 32.842C68.3023 43.9508 66.4101 45.5165 66.4101 45.5165C66.4101 45.5165 65.7794 34.2213 59.5094 34.5195C56.3559 34.6686 60.9935 42.9443 60.9935 42.9443C60.9935 42.9443 56.764 35.4142 53.9072 35.5633C59.1384 45.5538 57.2834 49.5798 57.2834 49.5798C57.2834 49.5798 58.1367 41.0432 51.0505 36.3088C53.7588 38.7319 49.3439 49.5798 49.3439 49.5798C49.3439 49.5798 53.2023 33.5875 46.4871 36.6443C45.4112 37.129 46.4129 44.6219 46.4129 44.6219C46.4129 44.6219 45.0773 36.0479 43.0368 36.4952C41.8495 36.7562 35.5424 48.3869 35.5424 48.3869C35.5424 48.3869 40.6994 35.8242 39.1412 36.3461C37.9911 36.7189 35.8392 41.9006 35.8392 41.9006C35.8392 41.9006 36.8781 36.7935 35.8392 36.4952C34.8004 36.197 28.9385 41.9006 28.9385 41.9006C28.9385 41.9006 33.2793 36.7935 32.5373 35.7124C31.3872 34.1094 30.0887 34.0349 28.4933 34.6686C26.1931 35.5633 23.1137 39.7757 23.1137 39.7757C23.1137 39.7757 26.1931 35.4887 25.6737 33.923C24.8204 31.3508 15.9533 38.881 15.9533 38.881C15.9533 38.881 21.1845 33.923 19.9973 32.842C18.8101 31.7982 12.2804 32.0964 10.2769 32.0964C4.22955 32.1337 2.15191 30.7171 0.333984 29.2633Z" fill="white"/>
</g>
<defs>
<clipPath id="clip0">
<rect width="95" height="63" fill="white"/>
</clipPath>
</defs>
</svg>
