<svg width="259" height="184" viewBox="0 0 259 184" fill="none" xmlns="http://www.w3.org/2000/svg">
<path d="M125.528 170.116C125.528 172.047 123.938 173.638 122.006 173.638H3.5216C1.5904 173.638 0 172.047 0 170.116V3.5216C0 1.5904 1.5904 0 3.5216 0H122.006C123.938 0 125.528 1.5904 125.528 3.5216V170.116ZM125.358 3.5216C125.358 1.6472 123.881 0.170397 122.006 0.170397H3.5216C1.6472 0.170397 0.1704 1.6472 0.1704 3.5216V170.116C0.1704 171.99 1.6472 173.467 3.5216 173.467H122.006C123.881 173.467 125.358 171.99 125.358 170.116" fill="#4164A9"/>
<path d="M254.748 173.638H136.263C134.332 173.638 132.742 172.047 132.742 170.116V3.5216C132.742 1.5904 134.332 0 136.263 0H254.748C256.679 0 258.27 1.5904 258.27 3.5216V170.116C258.27 172.047 256.679 173.638 254.748 173.638ZM136.263 0.170397C134.389 0.170397 132.912 1.6472 132.912 3.5216V170.116C132.912 171.99 134.389 173.467 136.263 173.467H254.748C256.622 173.467 258.099 171.99 258.099 170.116V3.5216C258.099 1.6472 256.622 0.170397 254.748 0.170397H136.263Z" fill="#4164A9"/>
<path d="M95.0833 56.8568C95.0265 47.3144 87.2449 39.5328 77.6457 39.5328C75.3169 39.5328 73.1585 39.9872 71.1137 40.7824C67.7057 33.796 60.4921 28.968 52.1425 28.968C42.0889 28.968 33.6825 36.0112 31.5809 45.44C22.0953 46.0648 14.5977 53.9032 14.5977 63.5592C14.5977 73.556 22.7201 81.6784 32.7169 81.6784H90.4257C97.5257 81.6784 103.262 75.9416 103.262 68.8416C103.376 63.3888 99.9113 58.7312 95.0833 56.8568Z" fill="#F5F6F8"/>
<path d="M242.934 140.637C242.877 131.094 235.095 123.313 225.496 123.313C223.167 123.313 221.009 123.767 218.964 124.562C215.556 117.576 208.342 112.748 199.993 112.748C189.939 112.748 181.533 119.791 179.431 129.22C169.946 129.845 162.448 137.683 162.448 147.339C162.448 157.336 170.57 165.458 180.567 165.458H238.276C245.376 165.458 251.113 159.722 251.113 152.622C251.226 147.169 247.762 142.454 242.934 140.637Z" fill="#F5F6F8"/>
<path d="M229.87 30.0472C229.813 23.5152 224.474 18.176 217.942 18.176C216.351 18.176 214.874 18.46 213.454 19.028C211.126 14.2 206.184 10.9056 200.447 10.9056C193.574 10.9056 187.781 15.7336 186.361 22.2088C179.886 22.6064 174.717 28.0024 174.717 34.5912C174.717 41.464 180.283 47.0304 187.156 47.0304H226.689C231.574 47.0304 235.493 43.1112 235.493 38.2264C235.55 34.5344 233.221 31.2968 229.87 30.0472Z" fill="#F5F6F8"/>
<path d="M103.035 135.241C102.978 128.709 97.6391 123.37 91.1071 123.37C89.5167 123.37 88.0399 123.654 86.6199 124.222C84.2911 119.394 79.3495 116.099 73.6127 116.099C66.7399 116.099 60.9463 120.927 59.5263 127.402C53.0511 127.8 47.8823 133.196 47.8823 139.785C47.8823 146.658 53.4487 152.224 60.3215 152.224H99.8543C104.739 152.224 108.658 148.305 108.658 143.42C108.715 139.728 106.33 136.49 103.035 135.241Z" fill="#F5F6F8"/>
<path d="M56.9705 73.7832C56.9137 73.7832 56.8001 73.7264 56.7433 73.6696C56.6865 73.6128 56.6865 73.6128 56.6865 73.556C56.6865 73.4992 56.6865 73.4992 56.6865 73.4424C56.6865 73.3856 56.6865 73.3856 56.6865 73.3288C56.6865 73.2719 56.7433 73.272 56.7433 73.2152C56.8001 73.1584 56.9705 73.1016 57.0841 73.1584C57.1409 73.1584 57.1409 73.2152 57.1977 73.2152C57.2545 73.272 57.3113 73.3288 57.3113 73.4424C57.3113 73.4992 57.3113 73.4992 57.3113 73.556C57.3113 73.6128 57.2545 73.6128 57.2545 73.6696C57.0841 73.7264 57.0273 73.7832 56.9705 73.7832Z" fill="#EDF0FA"/>
<path d="M56.6296 86.9608C56.6296 86.7904 56.7432 86.6768 56.9136 86.6768C57.084 86.6768 57.1976 86.7904 57.1976 86.9608C57.1976 87.1312 57.084 87.2448 56.9136 87.2448C56.8 87.3016 56.6296 87.1312 56.6296 86.9608ZM56.6296 83.6096C56.6296 83.4392 56.7432 83.3256 56.9136 83.3256C57.084 83.3256 57.1976 83.4392 57.1976 83.6096C57.1976 83.78 57.084 83.8936 56.9136 83.8936C56.8 83.8936 56.6296 83.78 56.6296 83.6096ZM56.6296 80.2016C56.6296 80.0312 56.7432 79.9176 56.9136 79.9176C57.084 79.9176 57.1976 80.0312 57.1976 80.2016C57.1976 80.372 57.084 80.4856 56.9136 80.4856C56.8 80.5424 56.6296 80.372 56.6296 80.2016ZM56.6296 76.8504C56.6296 76.68 56.7432 76.5664 56.9136 76.5664C57.084 76.5664 57.1976 76.68 57.1976 76.8504C57.1976 77.0208 57.084 77.1344 56.9136 77.1344C56.8 77.1344 56.6296 77.0208 56.6296 76.8504Z" fill="#EDF0FA"/>
<path d="M56.9705 90.6528C56.9137 90.6528 56.9137 90.6528 56.8569 90.6528C56.8001 90.6528 56.8001 90.596 56.7433 90.596C56.6865 90.596 56.6865 90.5392 56.6865 90.4824C56.6865 90.4256 56.6865 90.4256 56.6865 90.3688C56.6865 90.312 56.6865 90.312 56.6865 90.2552C56.6865 90.1984 56.7433 90.1984 56.7433 90.1416C56.7433 90.0848 56.8001 90.0848 56.8569 90.0848C56.9137 90.028 57.0273 90.028 57.0841 90.0848C57.1409 90.0848 57.1409 90.1416 57.1977 90.1416C57.2545 90.1416 57.2545 90.1984 57.2545 90.2552C57.2545 90.312 57.2545 90.312 57.2545 90.3688C57.2545 90.4256 57.1977 90.5392 57.1409 90.596C57.1409 90.6528 57.0841 90.6528 57.0273 90.6528H56.9705Z" fill="#EDF0FA"/>
<path d="M112.918 90.3688C112.918 90.1984 113.032 90.0848 113.202 90.0848C113.373 90.0848 113.543 90.1984 113.543 90.3688C113.543 90.5392 113.43 90.6528 113.202 90.6528C113.032 90.6528 112.918 90.5392 112.918 90.3688ZM109.17 90.3688C109.17 90.1984 109.283 90.0848 109.454 90.0848C109.624 90.0848 109.738 90.1984 109.738 90.3688C109.738 90.5392 109.624 90.6528 109.454 90.6528C109.283 90.6528 109.17 90.5392 109.17 90.3688ZM105.421 90.3688C105.421 90.1984 105.534 90.0848 105.705 90.0848C105.875 90.0848 105.989 90.1984 105.989 90.3688C105.989 90.5392 105.875 90.6528 105.705 90.6528C105.534 90.6528 105.421 90.5392 105.421 90.3688ZM101.672 90.3688C101.672 90.1984 101.786 90.0848 101.956 90.0848C102.126 90.0848 102.24 90.1984 102.24 90.3688C102.24 90.5392 102.126 90.6528 101.956 90.6528C101.786 90.6528 101.672 90.5392 101.672 90.3688ZM97.9232 90.3688C97.9232 90.1984 98.0368 90.0848 98.2072 90.0848C98.3776 90.0848 98.4912 90.1984 98.4912 90.3688C98.4912 90.5392 98.3776 90.6528 98.2072 90.6528C98.0368 90.6528 97.9232 90.5392 97.9232 90.3688ZM94.1744 90.3688C94.1744 90.1984 94.288 90.0848 94.4584 90.0848C94.6288 90.0848 94.7424 90.1984 94.7424 90.3688C94.7424 90.5392 94.6288 90.6528 94.4584 90.6528C94.288 90.6528 94.1744 90.5392 94.1744 90.3688ZM90.4256 90.3688C90.4256 90.1984 90.5392 90.0848 90.7096 90.0848C90.88 90.0848 90.9936 90.1984 90.9936 90.3688C90.9936 90.5392 90.88 90.6528 90.7096 90.6528C90.5392 90.6528 90.4256 90.5392 90.4256 90.3688ZM86.6768 90.3688C86.6768 90.1984 86.7904 90.0848 86.9608 90.0848C87.1312 90.0848 87.2448 90.1984 87.2448 90.3688C87.2448 90.5392 87.1312 90.6528 86.9608 90.6528C86.7904 90.6528 86.6768 90.5392 86.6768 90.3688ZM82.928 90.3688C82.928 90.1984 83.0416 90.0848 83.212 90.0848C83.3824 90.0848 83.496 90.1984 83.496 90.3688C83.496 90.5392 83.3824 90.6528 83.212 90.6528C83.0416 90.6528 82.928 90.5392 82.928 90.3688ZM79.1224 90.3688C79.1224 90.1984 79.236 90.0848 79.4064 90.0848C79.5768 90.0848 79.6904 90.1984 79.6904 90.3688C79.6904 90.5392 79.5768 90.6528 79.4064 90.6528C79.2928 90.6528 79.1224 90.5392 79.1224 90.3688ZM75.3736 90.3688C75.3736 90.1984 75.4872 90.0848 75.6576 90.0848C75.828 90.0848 75.9984 90.1984 75.9984 90.3688C75.9984 90.5392 75.8848 90.6528 75.6576 90.6528C75.544 90.6528 75.3736 90.5392 75.3736 90.3688ZM71.6248 90.3688C71.6248 90.1984 71.7384 90.0848 71.9088 90.0848C72.0792 90.0848 72.1928 90.1984 72.1928 90.3688C72.1928 90.5392 72.0792 90.6528 71.9088 90.6528C71.7952 90.6528 71.6248 90.5392 71.6248 90.3688ZM67.876 90.3688C67.876 90.1984 67.9896 90.0848 68.16 90.0848C68.3304 90.0848 68.444 90.1984 68.444 90.3688C68.444 90.5392 68.3304 90.6528 68.16 90.6528C68.0464 90.6528 67.876 90.5392 67.876 90.3688ZM64.1272 90.3688C64.1272 90.1984 64.2408 90.0848 64.4112 90.0848C64.5816 90.0848 64.6952 90.1984 64.6952 90.3688C64.6952 90.5392 64.5816 90.6528 64.4112 90.6528C64.2976 90.6528 64.1272 90.5392 64.1272 90.3688ZM60.3784 90.3688C60.3784 90.1984 60.492 90.0848 60.6624 90.0848C60.8328 90.0848 60.9464 90.1984 60.9464 90.3688C60.9464 90.5392 60.8328 90.6528 60.6624 90.6528C60.5488 90.6528 60.3784 90.5392 60.3784 90.3688Z" fill="#EDF0FA"/>
<path d="M116.951 90.6528C116.894 90.6528 116.894 90.6528 116.838 90.6528C116.781 90.6528 116.781 90.596 116.724 90.596C116.724 90.596 116.667 90.5392 116.667 90.4824C116.667 90.4256 116.667 90.4256 116.667 90.3688C116.667 90.312 116.667 90.312 116.667 90.2552C116.667 90.1984 116.724 90.1984 116.724 90.1416C116.781 90.0848 116.781 90.0848 116.838 90.0848C116.894 90.028 117.008 90.028 117.065 90.0848C117.122 90.0848 117.122 90.1416 117.178 90.1416C117.178 90.1416 117.235 90.1984 117.235 90.2552C117.235 90.312 117.235 90.312 117.235 90.3688C117.235 90.4256 117.178 90.5392 117.122 90.596C117.122 90.6528 117.065 90.6528 117.008 90.6528C117.065 90.6528 117.008 90.6528 116.951 90.6528Z" fill="#EDF0FA"/>
<path d="M116.667 86.7336C116.667 86.5632 116.781 86.4496 116.951 86.4496C117.122 86.4496 117.235 86.5632 117.235 86.7336C117.235 86.904 117.122 87.0176 116.951 87.0176C116.781 87.0176 116.667 86.8472 116.667 86.7336ZM116.667 83.0416C116.667 82.8712 116.781 82.7576 116.951 82.7576C117.122 82.7576 117.235 82.8712 117.235 83.0416C117.235 83.212 117.122 83.3256 116.951 83.3256C116.781 83.3824 116.667 83.212 116.667 83.0416ZM116.667 79.4064C116.667 79.236 116.781 79.1224 116.951 79.1224C117.122 79.1224 117.235 79.236 117.235 79.4064C117.235 79.5768 117.122 79.6904 116.951 79.6904C116.781 79.6904 116.667 79.5768 116.667 79.4064ZM116.667 75.7144C116.667 75.544 116.781 75.4304 116.951 75.4304C117.122 75.4304 117.235 75.544 117.235 75.7144C117.235 75.8848 117.122 75.9984 116.951 75.9984C116.781 76.0552 116.667 75.8848 116.667 75.7144ZM116.667 72.0792C116.667 71.9088 116.781 71.7952 116.951 71.7952C117.122 71.7952 117.235 71.9088 117.235 72.0792C117.235 72.2496 117.122 72.3632 116.951 72.3632C116.781 72.3632 116.667 72.2496 116.667 72.0792ZM116.667 68.444C116.667 68.2736 116.781 68.16 116.951 68.16C117.122 68.16 117.235 68.2736 117.235 68.444C117.235 68.6144 117.122 68.728 116.951 68.728C116.781 68.728 116.667 68.6144 116.667 68.444ZM116.667 64.752C116.667 64.5816 116.781 64.468 116.951 64.468C117.122 64.468 117.235 64.5816 117.235 64.752C117.235 64.9224 117.122 65.036 116.951 65.036C116.781 65.0928 116.667 64.9224 116.667 64.752ZM116.667 61.1168C116.667 60.9464 116.781 60.8328 116.951 60.8328C117.122 60.8328 117.235 60.9464 117.235 61.1168C117.235 61.2872 117.122 61.4008 116.951 61.4008C116.781 61.4008 116.667 61.2872 116.667 61.1168ZM116.667 57.4816C116.667 57.3112 116.781 57.1976 116.951 57.1976C117.122 57.1976 117.235 57.3112 117.235 57.4816C117.235 57.652 117.122 57.7656 116.951 57.7656C116.781 57.7656 116.667 57.652 116.667 57.4816Z" fill="#EDF0FA"/>
<path d="M116.951 54.1304C116.894 54.1304 116.894 54.1304 116.838 54.1304C116.781 54.1304 116.781 54.0736 116.724 54.0736C116.724 54.0168 116.667 54.0168 116.667 53.96C116.667 53.9032 116.667 53.9032 116.667 53.8464C116.667 53.7896 116.667 53.7896 116.667 53.7328C116.667 53.676 116.724 53.676 116.724 53.6192C116.781 53.6192 116.781 53.5624 116.838 53.5624C116.894 53.5056 117.008 53.5056 117.065 53.5624C117.122 53.5624 117.122 53.6192 117.178 53.6192C117.235 53.676 117.292 53.7328 117.292 53.8464C117.292 53.9032 117.235 54.0168 117.178 54.0736C117.122 54.0736 117.065 54.1304 116.951 54.1304Z" fill="#EDF0FA"/>
<path d="M201.186 53.7896C201.186 53.6192 201.299 53.4488 201.47 53.4488C201.64 53.4488 201.754 53.5624 201.754 53.7896C201.754 53.96 201.64 54.0736 201.47 54.0736C201.299 54.1304 201.186 53.96 201.186 53.7896ZM197.494 53.7896C197.494 53.6192 197.607 53.4488 197.778 53.4488C197.948 53.4488 198.062 53.5624 198.062 53.7896C198.062 53.96 197.948 54.0736 197.778 54.0736C197.607 54.1304 197.494 53.96 197.494 53.7896ZM193.802 53.7896C193.802 53.6192 193.915 53.4488 194.086 53.4488C194.256 53.4488 194.37 53.5624 194.37 53.7896C194.37 53.96 194.256 54.0736 194.086 54.0736C193.972 54.1304 193.802 53.96 193.802 53.7896ZM190.167 53.7896C190.167 53.6192 190.28 53.4488 190.451 53.4488C190.621 53.4488 190.735 53.5624 190.735 53.7896C190.735 53.96 190.621 54.0736 190.451 54.0736C190.28 54.1304 190.167 53.96 190.167 53.7896ZM186.475 53.7896C186.475 53.6192 186.588 53.4488 186.759 53.4488C186.929 53.4488 187.043 53.5624 187.043 53.7896C187.043 53.96 186.929 54.0736 186.759 54.0736C186.588 54.1304 186.475 53.96 186.475 53.7896ZM182.783 53.7896C182.783 53.6192 182.896 53.4488 183.067 53.4488C183.237 53.4488 183.351 53.5624 183.351 53.7896C183.351 53.96 183.237 54.0736 183.067 54.0736C182.953 54.1304 182.783 53.96 182.783 53.7896ZM179.147 53.7896C179.147 53.6192 179.261 53.4488 179.431 53.4488C179.602 53.4488 179.715 53.5624 179.715 53.7896C179.715 53.96 179.602 54.0736 179.431 54.0736C179.261 54.1304 179.147 53.96 179.147 53.7896ZM175.455 53.7896C175.455 53.6192 175.569 53.4488 175.739 53.4488C175.91 53.4488 176.023 53.5624 176.023 53.7896C176.023 53.96 175.91 54.0736 175.739 54.0736C175.569 54.1304 175.455 53.96 175.455 53.7896ZM171.763 53.7896C171.763 53.6192 171.877 53.4488 172.047 53.4488C172.218 53.4488 172.331 53.5624 172.331 53.7896C172.331 53.96 172.218 54.0736 172.047 54.0736C171.934 54.1304 171.763 53.96 171.763 53.7896ZM168.071 53.7896C168.071 53.6192 168.185 53.4488 168.355 53.4488C168.526 53.4488 168.639 53.5624 168.639 53.7896C168.639 53.96 168.526 54.0736 168.355 54.0736C168.242 54.1304 168.071 53.96 168.071 53.7896ZM164.436 53.7896C164.436 53.6192 164.55 53.4488 164.777 53.4488C164.947 53.4488 165.061 53.5624 165.061 53.7896C165.061 53.96 164.947 54.0736 164.777 54.0736C164.55 54.1304 164.436 53.96 164.436 53.7896ZM160.744 53.7896C160.744 53.6192 160.858 53.4488 161.028 53.4488C161.199 53.4488 161.312 53.5624 161.312 53.7896C161.312 53.96 161.199 54.0736 161.028 54.0736C160.915 54.1304 160.744 53.96 160.744 53.7896ZM157.052 53.7896C157.052 53.6192 157.166 53.4488 157.336 53.4488C157.507 53.4488 157.62 53.5624 157.62 53.7896C157.62 53.96 157.507 54.0736 157.336 54.0736C157.223 54.1304 157.052 53.96 157.052 53.7896ZM153.417 53.7896C153.417 53.6192 153.531 53.4488 153.701 53.4488C153.871 53.4488 153.985 53.5624 153.985 53.7896C153.985 53.96 153.871 54.0736 153.701 54.0736C153.531 54.1304 153.417 53.96 153.417 53.7896ZM149.725 53.7896C149.725 53.6192 149.839 53.4488 150.009 53.4488C150.179 53.4488 150.35 53.5624 150.35 53.7896C150.35 53.96 150.236 54.0736 150.009 54.0736C149.839 54.1304 149.725 53.96 149.725 53.7896ZM146.033 53.7896C146.033 53.6192 146.147 53.4488 146.317 53.4488C146.487 53.4488 146.601 53.5624 146.601 53.7896C146.601 53.96 146.487 54.0736 146.317 54.0736C146.203 54.1304 146.033 53.96 146.033 53.7896ZM142.398 53.7896C142.398 53.6192 142.511 53.4488 142.682 53.4488C142.852 53.4488 142.966 53.5624 142.966 53.7896C142.966 53.96 142.852 54.0736 142.682 54.0736C142.511 54.1304 142.398 53.96 142.398 53.7896ZM138.706 53.7896C138.706 53.6192 138.819 53.4488 138.99 53.4488C139.16 53.4488 139.274 53.5624 139.274 53.7896C139.274 53.96 139.16 54.0736 138.99 54.0736C138.819 54.1304 138.706 53.96 138.706 53.7896ZM135.014 53.7896C135.014 53.6192 135.127 53.4488 135.298 53.4488C135.468 53.4488 135.582 53.5624 135.582 53.7896C135.582 53.96 135.468 54.0736 135.298 54.0736C135.184 54.1304 135.014 53.96 135.014 53.7896ZM131.379 53.7896C131.379 53.6192 131.492 53.4488 131.663 53.4488C131.833 53.4488 131.947 53.5624 131.947 53.7896C131.947 53.96 131.833 54.0736 131.663 54.0736C131.492 54.1304 131.379 53.96 131.379 53.7896ZM127.687 53.7896C127.687 53.6192 127.8 53.4488 127.971 53.4488C128.141 53.4488 128.255 53.5624 128.255 53.7896C128.255 53.96 128.141 54.0736 127.971 54.0736C127.8 54.1304 127.687 53.96 127.687 53.7896ZM123.995 53.7896C123.995 53.6192 124.108 53.4488 124.279 53.4488C124.449 53.4488 124.563 53.5624 124.563 53.7896C124.563 53.96 124.449 54.0736 124.279 54.0736C124.165 54.1304 123.995 53.96 123.995 53.7896ZM120.359 53.7896C120.359 53.6192 120.473 53.4488 120.643 53.4488C120.814 53.4488 120.927 53.5624 120.927 53.7896C120.927 53.96 120.814 54.0736 120.643 54.0736C120.473 54.1304 120.359 53.96 120.359 53.7896Z" fill="#EDF0FA"/>
<path d="M205.162 54.1304C205.048 54.1304 204.991 54.0736 204.934 54.0168C204.878 53.96 204.821 53.9032 204.821 53.7896C204.821 53.7328 204.878 53.6192 204.934 53.5624C204.991 53.5624 204.991 53.5056 205.048 53.5056C205.162 53.4488 205.332 53.5056 205.389 53.5624C205.389 53.6192 205.446 53.6192 205.446 53.676C205.446 53.7328 205.446 53.7328 205.446 53.7896C205.446 53.8464 205.389 53.96 205.332 54.0168C205.332 54.0736 205.218 54.1304 205.162 54.1304Z" fill="#EDF0FA"/>
<path d="M204.821 50.268C204.821 50.0976 204.934 49.984 205.105 49.984C205.275 49.984 205.446 50.0976 205.446 50.268C205.446 50.4384 205.332 50.552 205.105 50.552C204.991 50.552 204.821 50.4384 204.821 50.268ZM204.821 46.7464C204.821 46.576 204.934 46.4624 205.105 46.4624C205.275 46.4624 205.446 46.576 205.446 46.7464C205.446 46.9168 205.332 47.0872 205.105 47.0872C204.991 47.0304 204.821 46.9168 204.821 46.7464ZM204.821 43.168C204.821 42.9976 204.934 42.884 205.105 42.884C205.275 42.884 205.446 42.9976 205.446 43.168C205.446 43.3384 205.332 43.452 205.105 43.452C204.991 43.5088 204.821 43.3384 204.821 43.168ZM204.821 39.6464C204.821 39.476 204.934 39.3624 205.105 39.3624C205.275 39.3624 205.446 39.476 205.446 39.6464C205.446 39.8168 205.332 39.9304 205.105 39.9304C204.991 39.9304 204.821 39.8168 204.821 39.6464ZM204.821 36.1248C204.821 35.9544 204.934 35.8408 205.105 35.8408C205.275 35.8408 205.446 35.9544 205.446 36.1248C205.446 36.2952 205.332 36.4088 205.105 36.4088C204.991 36.4088 204.821 36.2952 204.821 36.1248ZM204.821 32.5464C204.821 32.376 204.934 32.2624 205.105 32.2624C205.275 32.2624 205.446 32.376 205.446 32.5464C205.446 32.7168 205.332 32.8304 205.105 32.8304C204.991 32.8872 204.821 32.7168 204.821 32.5464Z" fill="#EDF0FA"/>
<path d="M205.162 29.3088C205.048 29.3088 204.991 29.252 204.934 29.1952C204.878 29.1384 204.821 29.0816 204.821 28.968C204.821 28.9112 204.821 28.9112 204.821 28.8544C204.821 28.7976 204.878 28.7976 204.878 28.7408C204.991 28.6272 205.218 28.6272 205.332 28.7408C205.389 28.7976 205.446 28.8544 205.446 28.968C205.446 29.0248 205.446 29.0248 205.446 29.0816C205.446 29.1384 205.389 29.1384 205.389 29.1952C205.332 29.252 205.332 29.252 205.275 29.252C205.218 29.3088 205.218 29.3088 205.162 29.3088Z" fill="#EDF0FA"/>
<path d="M78.327 144.783C78.2134 144.783 78.1566 144.726 78.0998 144.67C78.043 144.613 78.043 144.613 78.043 144.556C78.043 144.499 78.043 144.499 78.043 144.442C78.043 144.386 78.0998 144.272 78.1566 144.215C78.2702 144.102 78.3838 144.102 78.4974 144.158C78.5542 144.158 78.5542 144.215 78.611 144.215C78.6678 144.272 78.7246 144.329 78.7246 144.442C78.7246 144.499 78.7246 144.499 78.7246 144.556C78.7246 144.613 78.6678 144.613 78.6678 144.67C78.611 144.67 78.611 144.726 78.5542 144.726C78.3838 144.783 78.327 144.783 78.327 144.783Z" fill="#EDF0FA"/>
<path d="M77.9863 159.551C77.9863 159.381 78.0999 159.267 78.2703 159.267C78.4407 159.267 78.5543 159.381 78.5543 159.551C78.5543 159.722 78.4407 159.835 78.2703 159.835C78.1567 159.892 77.9863 159.722 77.9863 159.551ZM77.9863 155.802C77.9863 155.632 78.0999 155.518 78.2703 155.518C78.4407 155.518 78.5543 155.632 78.5543 155.802C78.5543 155.973 78.4407 156.086 78.2703 156.086C78.1567 156.086 77.9863 155.973 77.9863 155.802ZM77.9863 152.054C77.9863 151.883 78.0999 151.77 78.2703 151.77C78.4407 151.77 78.5543 151.883 78.5543 152.054C78.5543 152.224 78.4407 152.338 78.2703 152.338C78.1567 152.338 77.9863 152.224 77.9863 152.054ZM77.9863 148.248C77.9863 148.078 78.0999 147.964 78.2703 147.964C78.4407 147.964 78.5543 148.078 78.5543 148.248C78.5543 148.418 78.4407 148.532 78.2703 148.532C78.1567 148.589 77.9863 148.418 77.9863 148.248Z" fill="#EDF0FA"/>
<path d="M78.327 163.641C78.2134 163.641 78.1566 163.584 78.0998 163.527C78.043 163.527 78.043 163.47 78.043 163.414C78.043 163.357 78.043 163.357 78.043 163.3C78.043 163.243 78.043 163.243 78.043 163.186C78.043 163.13 78.0998 163.13 78.0998 163.073C78.2134 162.959 78.327 162.959 78.4406 163.016C78.4974 163.016 78.4974 163.073 78.5542 163.073C78.5542 163.073 78.611 163.13 78.611 163.186C78.611 163.243 78.611 163.243 78.611 163.3C78.611 163.357 78.611 163.357 78.611 163.414C78.611 163.47 78.5542 163.47 78.5542 163.527C78.4974 163.584 78.4974 163.584 78.4406 163.584C78.3838 163.641 78.327 163.641 78.327 163.641Z" fill="#EDF0FA"/>
<path d="M113.146 163.3C113.146 163.13 113.259 163.016 113.43 163.016C113.6 163.016 113.714 163.13 113.714 163.3C113.714 163.47 113.6 163.584 113.43 163.584C113.259 163.641 113.146 163.47 113.146 163.3ZM109.624 163.3C109.624 163.13 109.738 163.016 109.908 163.016C110.078 163.016 110.192 163.13 110.192 163.3C110.192 163.47 110.078 163.584 109.908 163.584C109.738 163.641 109.624 163.47 109.624 163.3ZM106.102 163.3C106.102 163.13 106.216 163.016 106.386 163.016C106.557 163.016 106.67 163.13 106.67 163.3C106.67 163.47 106.557 163.584 106.386 163.584C106.273 163.641 106.102 163.47 106.102 163.3ZM102.581 163.3C102.581 163.13 102.694 163.016 102.865 163.016C103.035 163.016 103.149 163.13 103.149 163.3C103.149 163.47 103.035 163.584 102.865 163.584C102.751 163.641 102.581 163.47 102.581 163.3ZM99.0593 163.3C99.0593 163.13 99.1729 163.016 99.3433 163.016C99.5137 163.016 99.6273 163.13 99.6273 163.3C99.6273 163.47 99.5137 163.584 99.3433 163.584C99.2297 163.641 99.0593 163.47 99.0593 163.3ZM95.5945 163.3C95.5945 163.13 95.7081 163.016 95.9353 163.016C96.1057 163.016 96.2193 163.13 96.2193 163.3C96.2193 163.47 96.1057 163.584 95.9353 163.584C95.7081 163.641 95.5945 163.47 95.5945 163.3ZM92.0729 163.3C92.0729 163.13 92.1865 163.016 92.3569 163.016C92.5273 163.016 92.6409 163.13 92.6409 163.3C92.6409 163.47 92.5273 163.584 92.3569 163.584C92.1865 163.641 92.0729 163.47 92.0729 163.3ZM88.5513 163.3C88.5513 163.13 88.6649 163.016 88.8353 163.016C89.0057 163.016 89.1193 163.13 89.1193 163.3C89.1193 163.47 89.0057 163.584 88.8353 163.584C88.6649 163.641 88.5513 163.47 88.5513 163.3ZM85.0297 163.3C85.0297 163.13 85.1433 163.016 85.3137 163.016C85.4841 163.016 85.5977 163.13 85.5977 163.3C85.5977 163.47 85.4841 163.584 85.3137 163.584C85.1433 163.641 85.0297 163.47 85.0297 163.3ZM81.5081 163.3C81.5081 163.13 81.6217 163.016 81.7921 163.016C81.9625 163.016 82.0761 163.13 82.0761 163.3C82.0761 163.47 81.9625 163.584 81.7921 163.584C81.6785 163.641 81.5081 163.47 81.5081 163.3Z" fill="#EDF0FA"/>
<path d="M116.951 163.641C116.894 163.641 116.894 163.641 116.837 163.641C116.781 163.641 116.781 163.584 116.724 163.584C116.724 163.584 116.667 163.527 116.667 163.47C116.667 163.414 116.667 163.414 116.667 163.357C116.667 163.3 116.724 163.186 116.781 163.13C116.837 163.073 116.837 163.073 116.894 163.073C116.951 163.016 117.065 163.016 117.121 163.073C117.178 163.073 117.178 163.13 117.235 163.13C117.292 163.186 117.349 163.243 117.349 163.357C117.349 163.414 117.349 163.414 117.349 163.47C117.349 163.527 117.292 163.527 117.292 163.584C117.292 163.641 117.235 163.641 117.178 163.641C117.065 163.641 117.008 163.641 116.951 163.641Z" fill="#EDF0FA"/>
<path d="M116.667 159.778C116.667 159.608 116.781 159.494 116.951 159.494C117.121 159.494 117.235 159.608 117.235 159.778C117.235 159.949 117.121 160.062 116.951 160.062C116.781 160.062 116.667 159.892 116.667 159.778ZM116.667 156.2C116.667 156.03 116.781 155.859 116.951 155.859C117.121 155.859 117.235 155.973 117.235 156.2C117.235 156.37 117.121 156.484 116.951 156.484C116.781 156.484 116.667 156.37 116.667 156.2ZM116.667 152.622C116.667 152.451 116.781 152.338 116.951 152.338C117.121 152.338 117.235 152.451 117.235 152.622C117.235 152.792 117.121 152.906 116.951 152.906C116.781 152.906 116.667 152.792 116.667 152.622ZM116.667 149.043C116.667 148.873 116.781 148.759 116.951 148.759C117.121 148.759 117.235 148.873 117.235 149.043C117.235 149.214 117.121 149.327 116.951 149.327C116.781 149.327 116.667 149.214 116.667 149.043ZM116.667 145.465C116.667 145.294 116.781 145.181 116.951 145.181C117.121 145.181 117.235 145.294 117.235 145.465C117.235 145.635 117.121 145.749 116.951 145.749C116.781 145.749 116.667 145.635 116.667 145.465ZM116.667 141.886C116.667 141.716 116.781 141.602 116.951 141.602C117.121 141.602 117.235 141.716 117.235 141.886C117.235 142.057 117.121 142.17 116.951 142.17C116.781 142.17 116.667 142.057 116.667 141.886ZM116.667 138.308C116.667 138.138 116.781 138.024 116.951 138.024C117.121 138.024 117.235 138.138 117.235 138.308C117.235 138.478 117.121 138.592 116.951 138.592C116.781 138.649 116.667 138.478 116.667 138.308ZM116.667 134.73C116.667 134.559 116.781 134.446 116.951 134.446C117.121 134.446 117.235 134.559 117.235 134.73C117.235 134.9 117.121 135.014 116.951 135.014C116.781 135.07 116.667 134.9 116.667 134.73ZM116.667 131.151C116.667 130.981 116.781 130.867 116.951 130.867C117.121 130.867 117.235 130.981 117.235 131.151C117.235 131.322 117.121 131.435 116.951 131.435C116.781 131.492 116.667 131.322 116.667 131.151ZM116.667 127.573C116.667 127.402 116.781 127.289 116.951 127.289C117.121 127.289 117.235 127.402 117.235 127.573C117.235 127.743 117.121 127.857 116.951 127.857C116.781 127.914 116.667 127.743 116.667 127.573ZM116.667 123.994C116.667 123.824 116.781 123.71 116.951 123.71C117.121 123.71 117.235 123.824 117.235 123.994C117.235 124.165 117.121 124.278 116.951 124.278C116.781 124.335 116.667 124.165 116.667 123.994ZM116.667 120.416C116.667 120.246 116.781 120.132 116.951 120.132C117.121 120.132 117.235 120.246 117.235 120.416C117.235 120.586 117.121 120.7 116.951 120.7C116.781 120.757 116.667 120.643 116.667 120.416ZM116.667 116.894C116.667 116.724 116.781 116.61 116.951 116.61C117.121 116.61 117.235 116.724 117.235 116.894C117.235 117.065 117.121 117.178 116.951 117.178C116.781 117.178 116.667 117.065 116.667 116.894ZM116.667 113.316C116.667 113.146 116.781 113.032 116.951 113.032C117.121 113.032 117.235 113.146 117.235 113.316C117.235 113.486 117.121 113.6 116.951 113.6C116.781 113.6 116.667 113.486 116.667 113.316Z" fill="#EDF0FA"/>
<path d="M116.951 110.022C116.894 110.022 116.894 110.022 116.837 110.022C116.781 110.022 116.781 109.965 116.724 109.965C116.724 109.908 116.667 109.908 116.667 109.851C116.667 109.794 116.667 109.794 116.667 109.738C116.667 109.624 116.724 109.567 116.781 109.51C116.837 109.51 116.837 109.454 116.894 109.454C116.951 109.397 117.065 109.397 117.121 109.454C117.178 109.454 117.178 109.51 117.235 109.51C117.292 109.567 117.349 109.624 117.349 109.738C117.349 109.794 117.349 109.794 117.349 109.851C117.349 109.908 117.292 109.908 117.292 109.965C117.292 109.965 117.235 110.022 117.178 110.022C117.065 110.022 117.008 110.022 116.951 110.022Z" fill="#EDF0FA"/>
<path d="M164.89 109.738C164.89 109.567 165.004 109.454 165.174 109.454C165.345 109.454 165.458 109.567 165.458 109.738C165.458 109.908 165.345 110.022 165.174 110.022C165.061 110.022 164.89 109.908 164.89 109.738ZM161.198 109.738C161.198 109.567 161.312 109.454 161.482 109.454C161.653 109.454 161.823 109.567 161.823 109.738C161.823 109.908 161.71 110.022 161.482 110.022C161.369 110.022 161.198 109.908 161.198 109.738ZM157.506 109.738C157.506 109.567 157.62 109.454 157.79 109.454C157.961 109.454 158.074 109.567 158.074 109.738C158.074 109.908 157.961 110.022 157.79 110.022C157.62 110.022 157.506 109.908 157.506 109.738ZM153.758 109.738C153.758 109.567 153.871 109.454 154.042 109.454C154.212 109.454 154.326 109.567 154.326 109.738C154.326 109.908 154.212 110.022 154.042 110.022C153.928 110.022 153.758 109.908 153.758 109.738ZM150.066 109.738C150.066 109.567 150.179 109.454 150.35 109.454C150.52 109.454 150.634 109.567 150.634 109.738C150.634 109.908 150.52 110.022 150.35 110.022C150.179 110.022 150.066 109.908 150.066 109.738ZM146.374 109.738C146.374 109.567 146.487 109.454 146.658 109.454C146.828 109.454 146.942 109.567 146.942 109.738C146.942 109.908 146.828 110.022 146.658 110.022C146.487 110.022 146.374 109.908 146.374 109.738ZM142.625 109.738C142.625 109.567 142.738 109.454 142.909 109.454C143.079 109.454 143.193 109.567 143.193 109.738C143.193 109.908 143.079 110.022 142.909 110.022C142.795 110.022 142.625 109.908 142.625 109.738ZM138.933 109.738C138.933 109.567 139.046 109.454 139.217 109.454C139.387 109.454 139.501 109.567 139.501 109.738C139.501 109.908 139.387 110.022 139.217 110.022C139.046 110.022 138.933 109.908 138.933 109.738ZM135.241 109.738C135.241 109.567 135.354 109.454 135.525 109.454C135.695 109.454 135.809 109.567 135.809 109.738C135.809 109.908 135.695 110.022 135.525 110.022C135.354 110.022 135.241 109.908 135.241 109.738ZM131.492 109.738C131.492 109.567 131.606 109.454 131.776 109.454C131.946 109.454 132.06 109.567 132.06 109.738C132.06 109.908 131.946 110.022 131.776 110.022C131.662 110.022 131.492 109.908 131.492 109.738ZM127.8 109.738C127.8 109.567 127.914 109.454 128.084 109.454C128.254 109.454 128.368 109.567 128.368 109.738C128.368 109.908 128.254 110.022 128.084 110.022C127.914 110.022 127.8 109.908 127.8 109.738ZM124.108 109.738C124.108 109.567 124.222 109.454 124.392 109.454C124.562 109.454 124.676 109.567 124.676 109.738C124.676 109.908 124.562 110.022 124.392 110.022C124.222 110.022 124.108 109.908 124.108 109.738ZM120.359 109.738C120.359 109.567 120.473 109.454 120.643 109.454C120.814 109.454 120.927 109.567 120.927 109.738C120.927 109.908 120.814 110.022 120.643 110.022C120.53 110.022 120.359 109.908 120.359 109.738Z" fill="#EDF0FA"/>
<path d="M168.923 110.022C168.866 110.022 168.753 109.965 168.696 109.908C168.639 109.851 168.639 109.851 168.639 109.794C168.639 109.738 168.639 109.738 168.639 109.681C168.639 109.624 168.639 109.624 168.639 109.567C168.639 109.51 168.696 109.51 168.696 109.454C168.696 109.454 168.753 109.397 168.81 109.397C168.866 109.34 168.98 109.34 169.037 109.397C169.094 109.397 169.094 109.454 169.15 109.454C169.15 109.51 169.207 109.51 169.207 109.567C169.207 109.624 169.207 109.624 169.207 109.681C169.207 109.738 169.15 109.851 169.094 109.908C169.094 110.022 169.037 110.022 168.923 110.022Z" fill="#EDF0FA"/>
<path d="M168.639 105.875C168.639 105.705 168.753 105.591 168.923 105.591C169.094 105.591 169.207 105.705 169.207 105.875C169.207 106.046 169.094 106.159 168.923 106.159C168.753 106.159 168.639 106.046 168.639 105.875ZM168.639 101.956C168.639 101.786 168.753 101.672 168.923 101.672C169.094 101.672 169.207 101.786 169.207 101.956C169.207 102.126 169.094 102.24 168.923 102.24C168.753 102.297 168.639 102.126 168.639 101.956ZM168.639 98.0936C168.639 97.9232 168.753 97.8096 168.923 97.8096C169.094 97.8096 169.207 97.9232 169.207 98.0936C169.207 98.264 169.094 98.3776 168.923 98.3776C168.753 98.4344 168.639 98.264 168.639 98.0936ZM168.639 94.2312C168.639 94.0608 168.753 93.9472 168.923 93.9472C169.094 93.9472 169.207 94.0608 169.207 94.2312C169.207 94.4016 169.094 94.5152 168.923 94.5152C168.753 94.5152 168.639 94.4016 168.639 94.2312Z" fill="#EDF0FA"/>
<path d="M168.923 90.6528C168.866 90.6528 168.753 90.596 168.696 90.5392C168.639 90.4824 168.639 90.4824 168.639 90.4256C168.639 90.3688 168.639 90.3688 168.639 90.312C168.639 90.2552 168.639 90.2552 168.639 90.1984C168.639 90.1416 168.696 90.1416 168.696 90.0848C168.696 90.028 168.753 90.028 168.81 90.028C168.866 89.9712 168.98 89.9712 169.037 90.028C169.094 90.028 169.094 90.0848 169.15 90.0848C169.15 90.0848 169.207 90.1416 169.207 90.1984C169.207 90.2552 169.207 90.2552 169.207 90.312C169.207 90.3688 169.15 90.4824 169.094 90.5392C169.094 90.6528 169.037 90.6528 168.923 90.6528Z" fill="#EDF0FA"/>
<path d="M205.162 158.529C205.048 158.529 204.991 158.472 204.934 158.415C204.878 158.358 204.821 158.302 204.821 158.188C204.821 158.074 204.878 158.018 204.934 157.961C205.048 157.904 205.162 157.847 205.275 157.904C205.332 157.904 205.332 157.961 205.389 157.961C205.389 158.018 205.446 158.018 205.446 158.074C205.446 158.131 205.446 158.131 205.446 158.188C205.446 158.245 205.389 158.358 205.332 158.415C205.332 158.472 205.218 158.529 205.162 158.529Z" fill="#EDF0FA"/>
<path d="M204.821 179.431C204.821 179.261 204.934 179.147 205.105 179.147C205.275 179.147 205.446 179.261 205.446 179.431C205.446 179.602 205.332 179.715 205.105 179.715C204.991 179.715 204.821 179.602 204.821 179.431ZM204.821 175.91C204.821 175.739 204.934 175.626 205.105 175.626C205.275 175.626 205.446 175.739 205.446 175.91C205.446 176.08 205.332 176.194 205.105 176.194C204.991 176.194 204.821 176.08 204.821 175.91ZM204.821 172.331C204.821 172.161 204.934 172.047 205.105 172.047C205.275 172.047 205.446 172.161 205.446 172.331C205.446 172.502 205.332 172.672 205.105 172.672C204.991 172.672 204.821 172.502 204.821 172.331ZM204.821 168.81C204.821 168.639 204.934 168.526 205.105 168.526C205.275 168.526 205.446 168.639 205.446 168.81C205.446 168.98 205.332 169.094 205.105 169.094C204.991 169.15 204.821 168.98 204.821 168.81ZM204.821 165.288C204.821 165.118 204.934 165.004 205.105 165.004C205.275 165.004 205.446 165.118 205.446 165.288C205.446 165.458 205.332 165.572 205.105 165.572C204.991 165.572 204.821 165.458 204.821 165.288ZM204.821 161.766C204.821 161.596 204.934 161.482 205.105 161.482C205.275 161.482 205.446 161.596 205.446 161.766C205.446 161.937 205.332 162.05 205.105 162.05C204.991 162.05 204.821 161.937 204.821 161.766Z" fill="#EDF0FA"/>
<path d="M205.162 183.294C205.048 183.294 204.991 183.237 204.934 183.18C204.878 183.123 204.821 183.066 204.821 182.953C204.821 182.896 204.821 182.896 204.821 182.839C204.821 182.782 204.878 182.782 204.878 182.726C204.991 182.612 205.218 182.612 205.332 182.726C205.389 182.782 205.446 182.839 205.446 182.953C205.446 183.01 205.446 183.01 205.446 183.066C205.446 183.123 205.389 183.123 205.389 183.18C205.332 183.237 205.332 183.237 205.275 183.237C205.218 183.237 205.218 183.294 205.162 183.294Z" fill="#EDF0FA"/>
<path d="M201.186 182.953C201.186 182.782 201.299 182.669 201.47 182.669C201.64 182.669 201.754 182.782 201.754 182.953C201.754 183.123 201.64 183.237 201.47 183.237C201.299 183.294 201.186 183.123 201.186 182.953ZM197.494 182.953C197.494 182.782 197.607 182.669 197.778 182.669C197.948 182.669 198.062 182.782 198.062 182.953C198.062 183.123 197.948 183.237 197.778 183.237C197.607 183.294 197.494 183.123 197.494 182.953ZM193.802 182.953C193.802 182.782 193.915 182.669 194.086 182.669C194.256 182.669 194.37 182.782 194.37 182.953C194.37 183.123 194.256 183.237 194.086 183.237C193.972 183.294 193.802 183.123 193.802 182.953ZM190.166 182.953C190.166 182.782 190.28 182.669 190.45 182.669C190.621 182.669 190.734 182.782 190.734 182.953C190.734 183.123 190.621 183.237 190.45 183.237C190.28 183.294 190.166 183.123 190.166 182.953ZM186.474 182.953C186.474 182.782 186.588 182.669 186.758 182.669C186.929 182.669 187.042 182.782 187.042 182.953C187.042 183.123 186.929 183.237 186.758 183.237C186.588 183.294 186.474 183.123 186.474 182.953ZM182.782 182.953C182.782 182.782 182.896 182.669 183.066 182.669C183.237 182.669 183.35 182.782 183.35 182.953C183.35 183.123 183.237 183.237 183.066 183.237C182.953 183.294 182.782 183.123 182.782 182.953ZM179.147 182.953C179.147 182.782 179.261 182.669 179.431 182.669C179.602 182.669 179.715 182.782 179.715 182.953C179.715 183.123 179.602 183.237 179.431 183.237C179.261 183.294 179.147 183.123 179.147 182.953ZM175.455 182.953C175.455 182.782 175.569 182.669 175.796 182.669C175.966 182.669 176.08 182.782 176.08 182.953C176.08 183.123 175.966 183.237 175.796 183.237C175.569 183.294 175.455 183.123 175.455 182.953ZM171.763 182.953C171.763 182.782 171.877 182.669 172.047 182.669C172.218 182.669 172.331 182.782 172.331 182.953C172.331 183.123 172.218 183.237 172.047 183.237C171.934 183.294 171.763 183.123 171.763 182.953ZM168.071 182.953C168.071 182.782 168.185 182.669 168.355 182.669C168.526 182.669 168.639 182.782 168.639 182.953C168.639 183.123 168.526 183.237 168.355 183.237C168.242 183.294 168.071 183.123 168.071 182.953ZM164.436 182.953C164.436 182.782 164.55 182.669 164.72 182.669C164.89 182.669 165.004 182.782 165.004 182.953C165.004 183.123 164.89 183.237 164.72 183.237C164.55 183.294 164.436 183.123 164.436 182.953ZM160.744 182.953C160.744 182.782 160.858 182.669 161.028 182.669C161.198 182.669 161.369 182.782 161.369 182.953C161.369 183.123 161.255 183.237 161.028 183.237C160.914 183.294 160.744 183.123 160.744 182.953ZM157.052 182.953C157.052 182.782 157.166 182.669 157.336 182.669C157.506 182.669 157.62 182.782 157.62 182.953C157.62 183.123 157.506 183.237 157.336 183.237C157.222 183.294 157.052 183.123 157.052 182.953ZM153.417 182.953C153.417 182.782 153.53 182.669 153.701 182.669C153.871 182.669 153.985 182.782 153.985 182.953C153.985 183.123 153.871 183.237 153.701 183.237C153.53 183.294 153.417 183.123 153.417 182.953ZM149.725 182.953C149.725 182.782 149.838 182.669 150.009 182.669C150.179 182.669 150.293 182.782 150.293 182.953C150.293 183.123 150.179 183.237 150.009 183.237C149.838 183.294 149.725 183.123 149.725 182.953ZM146.033 182.953C146.033 182.782 146.146 182.669 146.317 182.669C146.487 182.669 146.601 182.782 146.601 182.953C146.601 183.123 146.487 183.237 146.317 183.237C146.203 183.294 146.033 183.123 146.033 182.953ZM142.398 182.953C142.398 182.782 142.511 182.669 142.682 182.669C142.852 182.669 142.966 182.782 142.966 182.953C142.966 183.123 142.852 183.237 142.682 183.237C142.511 183.294 142.398 183.123 142.398 182.953ZM138.706 182.953C138.706 182.782 138.819 182.669 138.99 182.669C139.16 182.669 139.274 182.782 139.274 182.953C139.274 183.123 139.16 183.237 138.99 183.237C138.819 183.294 138.706 183.123 138.706 182.953ZM135.014 182.953C135.014 182.782 135.127 182.669 135.298 182.669C135.468 182.669 135.582 182.782 135.582 182.953C135.582 183.123 135.468 183.237 135.298 183.237C135.184 183.294 135.014 183.123 135.014 182.953ZM131.378 182.953C131.378 182.782 131.492 182.669 131.662 182.669C131.833 182.669 131.946 182.782 131.946 182.953C131.946 183.123 131.833 183.237 131.662 183.237C131.492 183.294 131.378 183.123 131.378 182.953ZM127.686 182.953C127.686 182.782 127.8 182.669 127.97 182.669C128.141 182.669 128.254 182.782 128.254 182.953C128.254 183.123 128.141 183.237 127.97 183.237C127.8 183.294 127.686 183.123 127.686 182.953ZM123.994 182.953C123.994 182.782 124.108 182.669 124.278 182.669C124.449 182.669 124.562 182.782 124.562 182.953C124.562 183.123 124.449 183.237 124.278 183.237C124.165 183.294 123.994 183.123 123.994 182.953ZM120.302 182.953C120.302 182.782 120.416 182.669 120.586 182.669C120.757 182.669 120.927 182.782 120.927 182.953C120.927 183.123 120.814 183.237 120.586 183.237C120.473 183.294 120.302 183.123 120.302 182.953Z" fill="#EDF0FA"/>
<path d="M116.951 183.294C116.894 183.294 116.894 183.294 116.838 183.294C116.781 183.294 116.781 183.237 116.724 183.237C116.724 183.237 116.667 183.18 116.667 183.123C116.667 183.066 116.667 183.066 116.667 183.01C116.667 182.953 116.667 182.953 116.667 182.896C116.667 182.839 116.724 182.839 116.724 182.782C116.781 182.726 116.781 182.726 116.838 182.726C116.894 182.669 117.008 182.669 117.065 182.726C117.122 182.726 117.122 182.782 117.178 182.782C117.178 182.782 117.235 182.839 117.235 182.896C117.235 182.953 117.235 182.953 117.235 183.01C117.235 183.066 117.235 183.066 117.235 183.123C117.235 183.18 117.178 183.18 117.178 183.237C117.178 183.294 117.122 183.294 117.065 183.294C117.065 183.237 117.008 183.294 116.951 183.294Z" fill="#EDF0FA"/>
<path d="M116.667 179.034C116.667 178.863 116.781 178.75 116.951 178.75C117.122 178.75 117.235 178.863 117.235 179.034C117.235 179.204 117.122 179.318 116.951 179.318C116.781 179.318 116.667 179.204 116.667 179.034ZM116.667 175.114C116.667 174.944 116.781 174.83 116.951 174.83C117.122 174.83 117.235 174.944 117.235 175.114C117.235 175.285 117.122 175.398 116.951 175.398C116.781 175.398 116.667 175.285 116.667 175.114ZM116.667 171.195C116.667 171.025 116.781 170.911 116.951 170.911C117.122 170.911 117.235 171.025 117.235 171.195C117.235 171.366 117.122 171.479 116.951 171.479C116.781 171.479 116.667 171.366 116.667 171.195ZM116.667 167.276C116.667 167.106 116.781 166.992 116.951 166.992C117.122 166.992 117.235 167.106 117.235 167.276C117.235 167.446 117.122 167.56 116.951 167.56C116.781 167.56 116.667 167.446 116.667 167.276Z" fill="#EDF0FA"/>
<path d="M116.951 163.641C116.894 163.641 116.894 163.641 116.838 163.641C116.781 163.641 116.781 163.584 116.724 163.584C116.724 163.584 116.667 163.527 116.667 163.47C116.667 163.414 116.667 163.414 116.667 163.357C116.667 163.3 116.724 163.186 116.781 163.13C116.838 163.073 116.838 163.073 116.894 163.073C116.951 163.016 117.065 163.016 117.122 163.073C117.178 163.073 117.178 163.13 117.235 163.13C117.292 163.186 117.349 163.243 117.349 163.357C117.349 163.414 117.349 163.414 117.349 163.47C117.349 163.527 117.292 163.527 117.292 163.584C117.292 163.641 117.235 163.641 117.178 163.641C117.065 163.641 117.008 163.641 116.951 163.641Z" fill="#EDF0FA"/>
<path d="M116.951 90.6528C116.894 90.6528 116.894 90.6528 116.838 90.6528C116.781 90.6528 116.781 90.596 116.724 90.596C116.724 90.596 116.667 90.5392 116.667 90.4824C116.667 90.4256 116.667 90.4256 116.667 90.3688C116.667 90.312 116.667 90.312 116.667 90.2552C116.667 90.1984 116.724 90.1984 116.724 90.1416C116.781 90.0848 116.781 90.0848 116.838 90.0848C116.894 90.028 117.008 90.028 117.065 90.0848C117.122 90.0848 117.122 90.1416 117.178 90.1416C117.178 90.1416 117.235 90.1984 117.235 90.2552C117.235 90.312 117.235 90.312 117.235 90.3688C117.235 90.4256 117.178 90.5392 117.122 90.596C117.122 90.6528 117.065 90.6528 117.008 90.6528C117.065 90.6528 117.008 90.6528 116.951 90.6528Z" fill="#EDF0FA"/>
<path d="M116.667 105.875C116.667 105.705 116.781 105.534 116.951 105.534C117.122 105.534 117.235 105.648 117.235 105.875C117.235 106.046 117.122 106.159 116.951 106.159C116.781 106.159 116.667 106.046 116.667 105.875ZM116.667 101.956C116.667 101.786 116.781 101.672 116.951 101.672C117.122 101.672 117.235 101.786 117.235 101.956C117.235 102.126 117.122 102.24 116.951 102.24C116.781 102.297 116.667 102.126 116.667 101.956ZM116.667 98.0935C116.667 97.9231 116.781 97.8095 116.951 97.8095C117.122 97.8095 117.235 97.9231 117.235 98.0935C117.235 98.2639 117.122 98.3775 116.951 98.3775C116.781 98.4343 116.667 98.2639 116.667 98.0935ZM116.667 94.2311C116.667 94.0607 116.781 93.9471 116.951 93.9471C117.122 93.9471 117.235 94.0607 117.235 94.2311C117.235 94.4015 117.122 94.5151 116.951 94.5151C116.781 94.5151 116.667 94.4015 116.667 94.2311Z" fill="#EDF0FA"/>
<path d="M116.951 110.022C116.894 110.022 116.894 110.022 116.838 110.022C116.781 110.022 116.781 109.965 116.724 109.965C116.724 109.908 116.667 109.908 116.667 109.851C116.667 109.794 116.667 109.794 116.667 109.738C116.667 109.624 116.724 109.567 116.781 109.51C116.838 109.51 116.838 109.454 116.894 109.454C116.951 109.397 117.065 109.397 117.122 109.454C117.178 109.454 117.178 109.51 117.235 109.51C117.292 109.567 117.349 109.624 117.349 109.738C117.349 109.794 117.349 109.794 117.349 109.851C117.349 109.908 117.292 109.908 117.292 109.965C117.292 109.965 117.235 110.022 117.178 110.022C117.065 110.022 117.008 110.022 116.951 110.022Z" fill="#EDF0FA"/>
<path d="M70.8865 155.859C70.8297 155.859 70.8297 155.859 70.7729 155.859C70.7161 155.859 70.7161 155.802 70.6593 155.802C70.6593 155.746 70.6025 155.746 70.6025 155.689C70.6025 155.632 70.6025 155.632 70.6025 155.575C70.6025 155.462 70.6593 155.405 70.7161 155.348C70.8297 155.234 70.9433 155.234 71.0569 155.291C71.1137 155.291 71.1137 155.348 71.1705 155.348C71.2273 155.405 71.2273 155.405 71.2273 155.462C71.2273 155.518 71.2273 155.518 71.2273 155.575C71.2273 155.632 71.2273 155.632 71.2273 155.689C71.2273 155.746 71.1705 155.746 71.1705 155.802C71.1705 155.802 71.1137 155.859 71.0569 155.859C70.9433 155.802 70.8865 155.859 70.8865 155.859Z" fill="#4164A9"/>
<path d="M70.5457 153.303C70.5457 153.133 70.6593 153.019 70.8297 153.019C71.0001 153.019 71.1137 153.133 71.1137 153.303C71.1137 153.474 71.0001 153.587 70.8297 153.587C70.7161 153.587 70.5457 153.474 70.5457 153.303Z" fill="#4164A9"/>
<path d="M70.8868 151.315C70.83 151.315 70.7164 151.258 70.6596 151.202C70.6596 151.202 70.6028 151.145 70.6028 151.088C70.6028 151.031 70.6028 151.031 70.6028 150.974C70.6028 150.918 70.6596 150.804 70.7164 150.747C70.83 150.634 70.9436 150.634 71.0572 150.69C71.114 150.69 71.114 150.747 71.1708 150.747C71.2276 150.747 71.2276 150.804 71.2276 150.861C71.2276 150.918 71.2276 150.918 71.2276 150.974C71.2276 151.031 71.2276 151.031 71.2276 151.088C71.2276 151.145 71.1708 151.145 71.1708 151.202C71.1708 151.258 71.114 151.258 71.0572 151.258C70.9436 151.315 70.8868 151.315 70.8868 151.315Z" fill="#4164A9"/>
<path d="M127.232 151.031C127.232 150.861 127.346 150.747 127.516 150.747C127.687 150.747 127.8 150.861 127.8 151.031C127.8 151.202 127.687 151.315 127.516 151.315C127.346 151.315 127.232 151.202 127.232 151.031ZM124.733 151.031C124.733 150.861 124.847 150.747 125.017 150.747C125.187 150.747 125.301 150.861 125.301 151.031C125.301 151.202 125.187 151.315 125.017 151.315C124.903 151.315 124.733 151.202 124.733 151.031ZM122.291 151.031C122.291 150.861 122.404 150.747 122.575 150.747C122.745 150.747 122.859 150.861 122.859 151.031C122.859 151.202 122.745 151.315 122.575 151.315C122.404 151.315 122.291 151.202 122.291 151.031ZM119.848 151.031C119.848 150.861 119.962 150.747 120.132 150.747C120.303 150.747 120.416 150.861 120.416 151.031C120.416 151.202 120.303 151.315 120.132 151.315C119.962 151.315 119.848 151.202 119.848 151.031ZM117.349 151.031C117.349 150.861 117.463 150.747 117.633 150.747C117.803 150.747 117.917 150.861 117.917 151.031C117.917 151.202 117.803 151.315 117.633 151.315C117.519 151.315 117.349 151.202 117.349 151.031ZM114.907 151.031C114.907 150.861 115.02 150.747 115.191 150.747C115.361 150.747 115.475 150.861 115.475 151.031C115.475 151.202 115.361 151.315 115.191 151.315C115.02 151.315 114.907 151.202 114.907 151.031ZM112.464 151.031C112.464 150.861 112.578 150.747 112.748 150.747C112.919 150.747 113.032 150.861 113.032 151.031C113.032 151.202 112.919 151.315 112.748 151.315C112.578 151.315 112.464 151.202 112.464 151.031ZM109.965 151.031C109.965 150.861 110.079 150.747 110.249 150.747C110.419 150.747 110.533 150.861 110.533 151.031C110.533 151.202 110.419 151.315 110.249 151.315C110.135 151.315 109.965 151.202 109.965 151.031ZM107.523 151.031C107.523 150.861 107.636 150.747 107.807 150.747C107.977 150.747 108.091 150.861 108.091 151.031C108.091 151.202 107.977 151.315 107.807 151.315C107.636 151.315 107.523 151.202 107.523 151.031ZM105.023 151.031C105.023 150.861 105.137 150.747 105.307 150.747C105.478 150.747 105.591 150.861 105.591 151.031C105.591 151.202 105.478 151.315 105.307 151.315C105.194 151.315 105.023 151.202 105.023 151.031ZM102.581 151.031C102.581 150.861 102.695 150.747 102.865 150.747C103.035 150.747 103.149 150.861 103.149 151.031C103.149 151.202 103.035 151.315 102.865 151.315C102.751 151.315 102.581 151.202 102.581 151.031ZM100.139 151.031C100.139 150.861 100.252 150.747 100.423 150.747C100.593 150.747 100.707 150.861 100.707 151.031C100.707 151.202 100.593 151.315 100.423 151.315C100.252 151.315 100.139 151.202 100.139 151.031ZM97.6393 151.031C97.6393 150.861 97.7529 150.747 97.9801 150.747C98.1505 150.747 98.2641 150.861 98.2641 151.031C98.2641 151.202 98.1505 151.315 97.9801 151.315C97.8097 151.315 97.6393 151.202 97.6393 151.031ZM95.1969 151.031C95.1969 150.861 95.3105 150.747 95.4809 150.747C95.6513 150.747 95.7649 150.861 95.7649 151.031C95.7649 151.202 95.6513 151.315 95.4809 151.315C95.3105 151.315 95.1969 151.202 95.1969 151.031ZM92.7545 151.031C92.7545 150.861 92.8681 150.747 93.0385 150.747C93.2089 150.747 93.3225 150.861 93.3225 151.031C93.3225 151.202 93.2089 151.315 93.0385 151.315C92.8681 151.315 92.7545 151.202 92.7545 151.031ZM90.2553 151.031C90.2553 150.861 90.3689 150.747 90.5393 150.747C90.7097 150.747 90.8801 150.861 90.8801 151.031C90.8801 151.202 90.7665 151.315 90.5393 151.315C90.4257 151.315 90.2553 151.202 90.2553 151.031ZM87.8129 151.031C87.8129 150.861 87.9265 150.747 88.0969 150.747C88.2673 150.747 88.3809 150.861 88.3809 151.031C88.3809 151.202 88.2673 151.315 88.0969 151.315C87.9265 151.315 87.8129 151.202 87.8129 151.031ZM85.3705 151.031C85.3705 150.861 85.4841 150.747 85.6545 150.747C85.8249 150.747 85.9385 150.861 85.9385 151.031C85.9385 151.202 85.8249 151.315 85.6545 151.315C85.4841 151.315 85.3705 151.202 85.3705 151.031ZM82.8713 151.031C82.8713 150.861 82.9849 150.747 83.1553 150.747C83.3257 150.747 83.4393 150.861 83.4393 151.031C83.4393 151.202 83.3257 151.315 83.1553 151.315C83.0417 151.315 82.8713 151.202 82.8713 151.031ZM80.4289 151.031C80.4289 150.861 80.5425 150.747 80.7129 150.747C80.8833 150.747 80.9969 150.861 80.9969 151.031C80.9969 151.202 80.8833 151.315 80.7129 151.315C80.5425 151.315 80.4289 151.202 80.4289 151.031ZM77.9297 151.031C77.9297 150.861 78.0433 150.747 78.2137 150.747C78.3841 150.747 78.4977 150.861 78.4977 151.031C78.4977 151.202 78.3841 151.315 78.2137 151.315C78.1001 151.315 77.9297 151.202 77.9297 151.031ZM75.4873 151.031C75.4873 150.861 75.6009 150.747 75.7713 150.747C75.9417 150.747 76.0553 150.861 76.0553 151.031C76.0553 151.202 75.9417 151.315 75.7713 151.315C75.6009 151.315 75.4873 151.202 75.4873 151.031ZM73.0449 151.031C73.0449 150.861 73.1585 150.747 73.3289 150.747C73.4993 150.747 73.6129 150.861 73.6129 151.031C73.6129 151.202 73.4993 151.315 73.3289 151.315C73.1585 151.315 73.0449 151.202 73.0449 151.031Z" fill="#4164A9"/>
<path d="M129.958 151.315C129.902 151.315 129.902 151.315 129.845 151.315C129.788 151.315 129.788 151.258 129.731 151.258C129.674 151.202 129.674 151.202 129.674 151.145C129.674 151.088 129.674 151.088 129.674 151.031C129.674 150.974 129.674 150.974 129.674 150.918C129.674 150.861 129.731 150.861 129.731 150.804C129.731 150.747 129.788 150.747 129.845 150.747C129.902 150.69 130.015 150.69 130.072 150.747C130.129 150.747 130.129 150.804 130.186 150.804C130.242 150.861 130.299 150.918 130.299 151.031C130.299 151.088 130.299 151.088 130.299 151.145C130.299 151.202 130.242 151.202 130.242 151.258C130.242 151.258 130.186 151.315 130.129 151.315C130.072 151.315 130.015 151.315 129.958 151.315Z" fill="#4164A9"/>
<path d="M129.958 151.315C129.902 151.315 129.902 151.315 129.845 151.315C129.788 151.315 129.788 151.258 129.731 151.258C129.674 151.202 129.674 151.202 129.674 151.145C129.674 151.088 129.674 151.088 129.674 151.031C129.674 150.974 129.674 150.974 129.674 150.918C129.674 150.861 129.731 150.861 129.731 150.804C129.731 150.747 129.788 150.747 129.845 150.747C129.902 150.69 130.015 150.69 130.072 150.747C130.129 150.747 130.129 150.804 130.186 150.804C130.242 150.861 130.299 150.918 130.299 151.031C130.299 151.088 130.299 151.088 130.299 151.145C130.299 151.202 130.242 151.202 130.242 151.258C130.242 151.258 130.186 151.315 130.129 151.315C130.072 151.315 130.015 151.315 129.958 151.315Z" fill="#4164A9"/>
<path d="M129.674 148.93C129.674 148.759 129.788 148.646 129.958 148.646C130.129 148.646 130.242 148.759 130.242 148.93C130.242 149.1 130.129 149.214 129.958 149.214C129.845 149.214 129.674 149.1 129.674 148.93ZM129.674 146.771C129.674 146.601 129.788 146.487 129.958 146.487C130.129 146.487 130.242 146.601 130.242 146.771C130.242 146.942 130.129 147.055 129.958 147.055C129.845 147.055 129.674 146.942 129.674 146.771ZM129.674 144.67C129.674 144.499 129.788 144.386 129.958 144.386C130.129 144.386 130.242 144.499 130.242 144.67C130.242 144.84 130.129 144.954 129.958 144.954C129.845 144.954 129.674 144.84 129.674 144.67Z" fill="#4164A9"/>
<path d="M129.958 142.795C129.902 142.795 129.788 142.738 129.731 142.682C129.674 142.682 129.674 142.625 129.674 142.568C129.674 142.511 129.674 142.511 129.674 142.454C129.674 142.398 129.674 142.398 129.674 142.341C129.674 142.284 129.731 142.284 129.731 142.227C129.731 142.227 129.788 142.17 129.845 142.17C129.902 142.114 130.015 142.114 130.072 142.17C130.129 142.17 130.129 142.227 130.186 142.227C130.242 142.284 130.242 142.284 130.242 142.341C130.242 142.398 130.242 142.398 130.242 142.454C130.242 142.511 130.242 142.511 130.242 142.568C130.242 142.625 130.186 142.625 130.186 142.682C130.129 142.795 130.072 142.795 129.958 142.795Z" fill="#4164A9"/>
<path d="M129.958 151.315C129.902 151.315 129.902 151.315 129.845 151.315C129.788 151.315 129.788 151.258 129.731 151.258C129.674 151.202 129.674 151.202 129.674 151.145C129.674 151.088 129.674 151.088 129.674 151.031C129.674 150.974 129.674 150.974 129.674 150.918C129.674 150.861 129.731 150.861 129.731 150.804C129.731 150.747 129.788 150.747 129.845 150.747C129.902 150.69 130.015 150.69 130.072 150.747C130.129 150.747 130.129 150.804 130.186 150.804C130.242 150.861 130.299 150.918 130.299 151.031C130.299 151.088 130.299 151.088 130.299 151.145C130.299 151.202 130.242 151.202 130.242 151.258C130.242 151.258 130.186 151.315 130.129 151.315C130.072 151.315 130.015 151.315 129.958 151.315Z" fill="#4164A9"/>
<path d="M129.674 153.303C129.674 153.133 129.788 153.019 129.958 153.019C130.129 153.019 130.242 153.133 130.242 153.303C130.242 153.474 130.129 153.587 129.958 153.587C129.845 153.587 129.674 153.474 129.674 153.303Z" fill="#4164A9"/>
<path d="M129.958 155.859C129.902 155.859 129.788 155.802 129.731 155.746C129.674 155.689 129.674 155.689 129.674 155.632C129.674 155.575 129.674 155.575 129.674 155.518C129.674 155.462 129.674 155.462 129.674 155.405C129.674 155.348 129.731 155.348 129.731 155.291C129.845 155.178 130.072 155.178 130.186 155.291C130.242 155.348 130.242 155.348 130.242 155.405C130.242 155.462 130.242 155.462 130.242 155.518C130.242 155.575 130.242 155.632 130.242 155.632C130.242 155.689 130.186 155.689 130.186 155.746C130.129 155.802 130.072 155.859 129.958 155.859Z" fill="#4164A9"/>
<path d="M189.087 155.859C189.03 155.859 188.917 155.802 188.86 155.746C188.803 155.689 188.746 155.632 188.746 155.518C188.746 155.462 188.803 155.348 188.86 155.291C188.974 155.178 189.201 155.178 189.314 155.291C189.371 155.348 189.371 155.348 189.371 155.405C189.371 155.462 189.371 155.462 189.371 155.518C189.371 155.575 189.314 155.689 189.258 155.746C189.258 155.802 189.201 155.859 189.087 155.859Z" fill="#4164A9"/>
<path d="M188.803 153.303C188.803 153.133 188.917 153.019 189.087 153.019C189.257 153.019 189.371 153.133 189.371 153.303C189.371 153.474 189.257 153.587 189.087 153.587C188.917 153.587 188.803 153.474 188.803 153.303Z" fill="#4164A9"/>
<path d="M189.087 151.315C189.03 151.315 188.917 151.258 188.86 151.202C188.803 151.145 188.746 151.088 188.746 150.974C188.746 150.918 188.803 150.804 188.86 150.747C188.974 150.634 189.201 150.634 189.314 150.747C189.371 150.804 189.428 150.861 189.428 150.974C189.428 151.031 189.371 151.145 189.314 151.202C189.258 151.315 189.201 151.315 189.087 151.315Z" fill="#4164A9"/>
<path d="M186.304 151.031C186.304 150.861 186.418 150.747 186.588 150.747C186.758 150.747 186.872 150.861 186.872 151.031C186.872 151.202 186.758 151.315 186.588 151.315C186.474 151.315 186.304 151.202 186.304 151.031ZM183.862 151.031C183.862 150.861 183.975 150.747 184.202 150.747C184.373 150.747 184.486 150.861 184.486 151.031C184.486 151.202 184.373 151.315 184.202 151.315C184.032 151.315 183.862 151.202 183.862 151.031ZM181.419 151.031C181.419 150.861 181.533 150.747 181.703 150.747C181.874 150.747 181.987 150.861 181.987 151.031C181.987 151.202 181.874 151.315 181.703 151.315C181.533 151.315 181.419 151.202 181.419 151.031ZM178.92 151.031C178.92 150.861 179.034 150.747 179.204 150.747C179.374 150.747 179.488 150.861 179.488 151.031C179.488 151.202 179.374 151.315 179.204 151.315C179.09 151.315 178.92 151.202 178.92 151.031ZM176.478 151.031C176.478 150.861 176.591 150.747 176.762 150.747C176.932 150.747 177.102 150.861 177.102 151.031C177.102 151.202 176.989 151.315 176.762 151.315C176.591 151.315 176.478 151.202 176.478 151.031ZM174.035 151.031C174.035 150.861 174.149 150.747 174.319 150.747C174.489 150.747 174.603 150.861 174.603 151.031C174.603 151.202 174.489 151.315 174.319 151.315C174.149 151.315 174.035 151.202 174.035 151.031ZM171.536 151.031C171.536 150.861 171.65 150.747 171.82 150.747C171.99 150.747 172.104 150.861 172.104 151.031C172.104 151.202 171.99 151.315 171.82 151.315C171.706 151.315 171.536 151.202 171.536 151.031ZM169.094 151.031C169.094 150.861 169.207 150.747 169.378 150.747C169.548 150.747 169.718 150.861 169.718 151.031C169.718 151.202 169.605 151.315 169.378 151.315C169.207 151.315 169.094 151.202 169.094 151.031ZM166.651 151.031C166.651 150.861 166.765 150.747 166.935 150.747C167.105 150.747 167.219 150.861 167.219 151.031C167.219 151.202 167.105 151.315 166.935 151.315C166.765 151.315 166.651 151.202 166.651 151.031ZM164.152 151.031C164.152 150.861 164.265 150.747 164.436 150.747C164.606 150.747 164.72 150.861 164.72 151.031C164.72 151.202 164.606 151.315 164.436 151.315C164.322 151.315 164.152 151.202 164.152 151.031ZM161.71 151.031C161.71 150.861 161.823 150.747 161.994 150.747C162.164 150.747 162.278 150.861 162.278 151.031C162.278 151.202 162.164 151.315 161.994 151.315C161.823 151.315 161.71 151.202 161.71 151.031ZM159.21 151.031C159.21 150.861 159.324 150.747 159.494 150.747C159.665 150.747 159.778 150.861 159.778 151.031C159.778 151.202 159.665 151.315 159.494 151.315C159.381 151.315 159.21 151.202 159.21 151.031ZM156.768 151.031C156.768 150.861 156.881 150.747 157.052 150.747C157.222 150.747 157.336 150.861 157.336 151.031C157.336 151.202 157.222 151.315 157.052 151.315C156.881 151.315 156.768 151.202 156.768 151.031ZM154.326 151.031C154.326 150.861 154.439 150.747 154.61 150.747C154.78 150.747 154.894 150.861 154.894 151.031C154.894 151.202 154.78 151.315 154.61 151.315C154.439 151.315 154.326 151.202 154.326 151.031ZM151.826 151.031C151.826 150.861 151.94 150.747 152.11 150.747C152.281 150.747 152.394 150.861 152.394 151.031C152.394 151.202 152.281 151.315 152.11 151.315C151.997 151.315 151.826 151.202 151.826 151.031ZM149.384 151.031C149.384 150.861 149.497 150.747 149.668 150.747C149.838 150.747 149.952 150.861 149.952 151.031C149.952 151.202 149.838 151.315 149.668 151.315C149.497 151.315 149.384 151.202 149.384 151.031ZM146.942 151.031C146.942 150.861 147.055 150.747 147.226 150.747C147.396 150.747 147.566 150.861 147.566 151.031C147.566 151.202 147.453 151.315 147.226 151.315C147.055 151.315 146.942 151.202 146.942 151.031ZM144.442 151.031C144.442 150.861 144.556 150.747 144.726 150.747C144.897 150.747 145.01 150.861 145.01 151.031C145.01 151.202 144.897 151.315 144.726 151.315C144.613 151.315 144.442 151.202 144.442 151.031ZM142 151.031C142 150.861 142.113 150.747 142.284 150.747C142.454 150.747 142.568 150.861 142.568 151.031C142.568 151.202 142.454 151.315 142.284 151.315C142.113 151.315 142 151.202 142 151.031ZM139.501 151.031C139.501 150.861 139.614 150.747 139.785 150.747C139.955 150.747 140.126 150.861 140.126 151.031C140.126 151.202 140.012 151.315 139.785 151.315C139.671 151.315 139.501 151.202 139.501 151.031ZM137.058 151.031C137.058 150.861 137.172 150.747 137.342 150.747C137.513 150.747 137.626 150.861 137.626 151.031C137.626 151.202 137.513 151.315 137.342 151.315C137.229 151.315 137.058 151.202 137.058 151.031ZM134.616 151.031C134.616 150.861 134.729 150.747 134.9 150.747C135.07 150.747 135.184 150.861 135.184 151.031C135.184 151.202 135.07 151.315 134.9 151.315C134.729 151.315 134.616 151.202 134.616 151.031ZM132.117 151.031C132.117 150.861 132.23 150.747 132.401 150.747C132.571 150.747 132.741 150.861 132.741 151.031C132.741 151.202 132.628 151.315 132.401 151.315C132.287 151.315 132.117 151.202 132.117 151.031Z" fill="#4164A9"/>
<path d="M129.958 151.315C129.902 151.315 129.902 151.315 129.845 151.315C129.788 151.315 129.788 151.258 129.731 151.258C129.674 151.202 129.674 151.202 129.674 151.145C129.674 151.088 129.674 151.088 129.674 151.031C129.674 150.974 129.674 150.974 129.674 150.918C129.674 150.861 129.731 150.861 129.731 150.804C129.731 150.747 129.788 150.747 129.845 150.747C129.902 150.69 130.015 150.69 130.072 150.747C130.129 150.747 130.129 150.804 130.186 150.804C130.242 150.861 130.299 150.918 130.299 151.031C130.299 151.088 130.299 151.088 130.299 151.145C130.299 151.202 130.242 151.202 130.242 151.258C130.242 151.258 130.186 151.315 130.129 151.315C130.072 151.315 130.015 151.315 129.958 151.315Z" fill="#4164A9"/>
<path d="M193.529 86.3402L193.532 86.6827L193.852 86.8037C203.888 90.5951 211.022 100.296 210.966 111.666V111.669C210.966 126.332 199.091 138.262 184.373 138.262H62.6505C41.8533 138.262 24.9241 121.389 24.9241 100.536C24.9241 80.5249 40.5638 64.1547 60.2408 62.8653L60.6146 62.8408L60.6961 62.4752C65.0767 42.8184 82.5998 28.1048 103.603 28.1048C120.956 28.1048 135.952 38.1567 143.084 52.7594L143.288 53.1767L143.719 53.0042C147.924 51.3225 152.462 50.3704 157.279 50.3704C177.168 50.3704 193.361 66.4503 193.529 86.3402Z" fill="white" stroke="#4164A9"/>
<path d="M88.04 84.5184H98.0368C99.4568 84.5184 100.536 85.6544 100.536 87.0176V135.638C100.536 137.058 99.4 138.138 98.0368 138.138H88.04V84.5184Z" fill="#EDF0FA"/>
<path d="M89.2328 84.5184H67.7624C66.3424 84.5184 65.2632 85.6544 65.2632 87.0176V135.638C65.2632 137.058 66.3992 138.138 67.7624 138.138H89.2328C90.6528 138.138 91.732 137.002 91.732 135.638V87.0176C91.732 85.6544 90.596 84.5184 89.2328 84.5184Z" fill="white"/>
<path d="M91.7888 127.062H65.2632V127.573H91.7888V127.062Z" fill="#EDF0FA"/>
<path d="M91.7888 116.383H65.2632V116.894H91.7888V116.383Z" fill="#EDF0FA"/>
<path d="M91.7888 105.762H65.2632V106.273H91.7888V105.762Z" fill="#EDF0FA"/>
<path d="M91.7888 95.14H65.2632V95.6512H91.7888V95.14Z" fill="#EDF0FA"/>
<path d="M78.4408 91.6752H69.58C69.012 91.6752 68.5576 92.1296 68.5576 92.6976C68.5576 93.2656 69.012 93.72 69.58 93.72H78.4408C79.0088 93.72 79.4632 93.2656 79.4632 92.6976C79.4632 92.1296 79.0088 91.6752 78.4408 91.6752Z" fill="#5BC4D6"/>
<path d="M78.4408 89.0624H69.58C69.012 89.0624 68.5576 89.5168 68.5576 90.0848C68.5576 90.6528 69.012 91.1072 69.58 91.1072H78.4408C79.0088 91.1072 79.4632 90.6528 79.4632 90.0848C79.4632 89.5168 79.0088 89.0624 78.4408 89.0624Z" fill="#5BC4D6"/>
<path d="M78.4408 86.4496H69.58C69.012 86.4496 68.5576 86.904 68.5576 87.472C68.5576 88.04 69.012 88.4944 69.58 88.4944H78.4408C79.0088 88.4944 79.4632 88.04 79.4632 87.472C79.4632 86.904 79.0088 86.4496 78.4408 86.4496Z" fill="#5BC4D6"/>
<path d="M84.1209 91.6752H80.429V93.72H84.1209V91.6752Z" fill="#EDF0FA"/>
<path d="M84.1209 89.0624H80.429V91.1072H84.1209V89.0624Z" fill="#4164A9"/>
<path d="M84.1209 86.4496H80.429V88.4944H84.1209V86.4496Z" fill="#EDF0FA"/>
<path d="M88.381 91.6752H84.689V93.72H88.381V91.6752Z" fill="#EDF0FA"/>
<path d="M88.381 89.0624H84.689V91.1072H88.381V89.0624Z" fill="#EDF0FA"/>
<path d="M88.381 86.4496H84.689V88.4944H88.381V86.4496Z" fill="#4164A9"/>
<path d="M78.4408 102.354H69.58C69.012 102.354 68.5576 102.808 68.5576 103.376C68.5576 103.944 69.012 104.398 69.58 104.398H78.4408C79.0088 104.398 79.4632 103.944 79.4632 103.376C79.4632 102.808 79.0088 102.354 78.4408 102.354Z" fill="#4164A9"/>
<path d="M78.4408 99.684H69.58C69.012 99.684 68.5576 100.138 68.5576 100.706C68.5576 101.274 69.012 101.729 69.58 101.729H78.4408C79.0088 101.729 79.4632 101.274 79.4632 100.706C79.4632 100.138 79.0088 99.684 78.4408 99.684Z" fill="#4164A9"/>
<path d="M78.4408 97.0712H69.58C69.012 97.0712 68.5576 97.5256 68.5576 98.0936C68.5576 98.6616 69.012 99.116 69.58 99.116H78.4408C79.0088 99.116 79.4632 98.6616 79.4632 98.0936C79.4632 97.5256 79.0088 97.0712 78.4408 97.0712Z" fill="#4164A9"/>
<path d="M84.1209 102.354H80.429V104.398H84.1209V102.354Z" fill="#EDF0FA"/>
<path d="M84.1209 99.684H80.429V101.729H84.1209V99.684Z" fill="#EDF0FA"/>
<path d="M84.1209 97.0712H80.429V99.116H84.1209V97.0712Z" fill="#5BC4D6"/>
<path d="M88.381 102.354H84.689V104.398H88.381V102.354Z" fill="#EDF0FA"/>
<path d="M88.381 99.684H84.689V101.729H88.381V99.684Z" fill="#EDF0FA"/>
<path d="M88.381 97.0712H84.689V99.116H88.381V97.0712Z" fill="#EDF0FA"/>
<path d="M78.4408 112.975H69.58C69.012 112.975 68.5576 113.43 68.5576 113.998C68.5576 114.566 69.012 115.02 69.58 115.02H78.4408C79.0088 115.02 79.4632 114.566 79.4632 113.998C79.4632 113.43 79.0088 112.975 78.4408 112.975Z" fill="#5BC4D6"/>
<path d="M78.4408 110.306H69.58C69.012 110.306 68.5576 110.76 68.5576 111.328C68.5576 111.896 69.012 112.35 69.58 112.35H78.4408C79.0088 112.35 79.4632 111.896 79.4632 111.328C79.4632 110.76 79.0088 110.306 78.4408 110.306Z" fill="#5BC4D6"/>
<path d="M78.4408 107.693H69.58C69.012 107.693 68.5576 108.147 68.5576 108.715C68.5576 109.283 69.012 109.738 69.58 109.738H78.4408C79.0088 109.738 79.4632 109.283 79.4632 108.715C79.4632 108.147 79.0088 107.693 78.4408 107.693Z" fill="#5BC4D6"/>
<path d="M84.1209 112.975H80.429V115.02H84.1209V112.975Z" fill="#EDF0FA"/>
<path d="M84.1209 110.306H80.429V112.35H84.1209V110.306Z" fill="#4164A9"/>
<path d="M84.1209 107.693H80.429V109.738H84.1209V107.693Z" fill="#EDF0FA"/>
<path d="M88.381 112.975H84.689V115.02H88.381V112.975Z" fill="#EDF0FA"/>
<path d="M88.381 110.306H84.689V112.35H88.381V110.306Z" fill="#EDF0FA"/>
<path d="M88.381 107.693H84.689V109.738H88.381V107.693Z" fill="#4164A9"/>
<path d="M78.4408 123.597H69.58C69.012 123.597 68.5576 124.051 68.5576 124.619C68.5576 125.187 69.012 125.642 69.58 125.642H78.4408C79.0088 125.642 79.4632 125.187 79.4632 124.619C79.4632 124.051 79.0088 123.597 78.4408 123.597Z" fill="#4164A9"/>
<path d="M78.5543 120.984H69.5231C69.0119 120.984 68.6143 121.382 68.6143 121.893V122.063C68.6143 122.574 69.0119 122.972 69.5231 122.972H78.5543C79.0655 122.972 79.4631 122.574 79.4631 122.063V121.893C79.4631 121.382 79.0655 120.984 78.5543 120.984Z" fill="#4164A9"/>
<path d="M78.4408 118.314H69.58C69.012 118.314 68.5576 118.769 68.5576 119.337C68.5576 119.905 69.012 120.359 69.58 120.359H78.4408C79.0088 120.359 79.4632 119.905 79.4632 119.337C79.4632 118.769 79.0088 118.314 78.4408 118.314Z" fill="#4164A9"/>
<path d="M84.1209 123.597H80.429V125.642H84.1209V123.597Z" fill="#EDF0FA"/>
<path d="M84.1209 120.984H80.429V123.029H84.1209V120.984Z" fill="#5BC4D6"/>
<path d="M84.1209 118.314H80.429V120.359H84.1209V118.314Z" fill="#EDF0FA"/>
<path d="M88.381 123.597H84.689V125.642H88.381V123.597Z" fill="#5BC4D6"/>
<path d="M88.381 120.984H84.689V123.029H88.381V120.984Z" fill="#EDF0FA"/>
<path d="M88.381 118.314H84.689V120.359H88.381V118.314Z" fill="#5BC4D6"/>
<path d="M78.4408 134.218H69.58C69.012 134.218 68.5576 134.673 68.5576 135.241C68.5576 135.809 69.012 136.263 69.58 136.263H78.4408C79.0088 136.263 79.4632 135.809 79.4632 135.241C79.4632 134.673 79.0088 134.218 78.4408 134.218Z" fill="#5BC4D6"/>
<path d="M78.4408 131.606H69.58C69.012 131.606 68.5576 132.06 68.5576 132.628C68.5576 133.196 69.012 133.65 69.58 133.65H78.4408C79.0088 133.65 79.4632 133.196 79.4632 132.628C79.4632 132.06 79.0088 131.606 78.4408 131.606Z" fill="#5BC4D6"/>
<path d="M78.4408 128.936H69.58C69.012 128.936 68.5576 129.39 68.5576 129.958C68.5576 130.526 69.012 130.981 69.58 130.981H78.4408C79.0088 130.981 79.4632 130.526 79.4632 129.958C79.4632 129.39 79.0088 128.936 78.4408 128.936Z" fill="#5BC4D6"/>
<path d="M84.1209 134.218H80.429V136.263H84.1209V134.218Z" fill="#4164A9"/>
<path d="M84.1209 131.606H80.429V133.65H84.1209V131.606Z" fill="#EDF0FA"/>
<path d="M84.1209 128.936H80.429V130.981H84.1209V128.936Z" fill="#EDF0FA"/>
<path d="M88.381 134.218H84.689V136.263H88.381V134.218Z" fill="#EDF0FA"/>
<path d="M88.381 131.606H84.689V133.65H88.381V131.606Z" fill="#EDF0FA"/>
<path d="M88.381 128.936H84.689V130.981H88.381V128.936Z" fill="#4164A9"/>
<path d="M126.209 59.1856H140.921C142.965 59.1856 144.613 60.8328 144.613 62.8776V134.446C144.613 136.49 142.965 138.138 140.921 138.138H126.209V59.1856Z" fill="#EDF0FA"/>
<path d="M127.97 59.1856H96.3895C94.3447 59.1856 92.6975 60.8328 92.6975 62.8776V134.446C92.6975 136.49 94.3447 138.138 96.3895 138.138H127.97C130.015 138.138 131.662 136.49 131.662 134.446V62.8776C131.662 60.8328 130.015 59.1856 127.97 59.1856Z" fill="white"/>
<path d="M131.719 121.779H92.6975V122.518H131.719V121.779Z" fill="#EDF0FA"/>
<path d="M131.719 106.159H92.6975V106.898H131.719V106.159Z" fill="#EDF0FA"/>
<path d="M131.719 90.4824H92.6975V91.2208H131.719V90.4824Z" fill="#EDF0FA"/>
<path d="M131.719 74.8624H92.6975V75.6008H131.719V74.8624Z" fill="#EDF0FA"/>
<path d="M112.123 69.7504H99.0591C98.2639 69.7504 97.5823 70.432 97.5823 71.2272C97.5823 72.0224 98.2639 72.704 99.0591 72.704H112.123C112.918 72.704 113.6 72.0224 113.6 71.2272C113.6 70.432 112.975 69.7504 112.123 69.7504Z" fill="#5BC4D6"/>
<path d="M112.123 65.8881H99.0591C98.2639 65.8881 97.5823 66.5697 97.5823 67.3649C97.5823 68.1601 98.2639 68.8417 99.0591 68.8417H112.123C112.918 68.8417 113.6 68.1601 113.6 67.3649C113.6 66.5697 112.975 65.8881 112.123 65.8881Z" fill="#5BC4D6"/>
<path d="M112.123 62.0256H99.0591C98.2639 62.0256 97.5823 62.7072 97.5823 63.5024C97.5823 64.2976 98.2639 64.9792 99.0591 64.9792H112.123C112.918 64.9792 113.6 64.2976 113.6 63.5024C113.6 62.7072 112.975 62.0256 112.123 62.0256Z" fill="#5BC4D6"/>
<path d="M120.416 69.7504H114.963V72.704H120.416V69.7504Z" fill="#EDF0FA"/>
<path d="M120.416 65.8881H114.963V68.8417H120.416V65.8881Z" fill="#4164A9"/>
<path d="M119.677 62.0256H114.225V64.9792H119.677V62.0256Z" fill="#EDF0FA"/>
<path d="M126.039 69.7504H120.586V72.704H126.039V69.7504Z" fill="#EDF0FA"/>
<path d="M126.039 65.8881H120.586V68.8417H126.039V65.8881Z" fill="#EDF0FA"/>
<path d="M126.777 62.0256H121.325V64.9792H126.777V62.0256Z" fill="#4164A9"/>
<path d="M112.123 85.4272H99.0591C98.2639 85.4272 97.5823 86.1088 97.5823 86.904C97.5823 87.6992 98.2639 88.3808 99.0591 88.3808H112.123C112.918 88.3808 113.6 87.6992 113.6 86.904C113.6 86.052 112.975 85.4272 112.123 85.4272Z" fill="#4164A9"/>
<path d="M112.123 81.5648H99.0591C98.2639 81.5648 97.5823 82.2464 97.5823 83.0416C97.5823 83.8368 98.2639 84.5184 99.0591 84.5184H112.123C112.918 84.5184 113.6 83.8368 113.6 83.0416C113.6 82.1896 112.975 81.5648 112.123 81.5648Z" fill="#4164A9"/>
<path d="M112.123 77.6456H99.0591C98.2639 77.6456 97.5823 78.3272 97.5823 79.1224C97.5823 79.9176 98.2639 80.5992 99.0591 80.5992H112.123C112.918 80.5992 113.6 79.9176 113.6 79.1224C113.6 78.3272 112.975 77.6456 112.123 77.6456Z" fill="#4164A9"/>
<path d="M120.416 85.4272H114.963V88.3808H120.416V85.4272Z" fill="#EDF0FA"/>
<path d="M120.416 81.5648H114.963V84.5184H120.416V81.5648Z" fill="#EDF0FA"/>
<path d="M120.416 76.7936H114.963V79.7472H120.416V76.7936Z" fill="#5BC4D6"/>
<path d="M126.777 84.5184H121.325V87.472H126.777V84.5184Z" fill="#5BC4D6"/>
<path d="M126.777 81.5648H121.325V84.5184H126.777V81.5648Z" fill="#EDF0FA"/>
<path d="M126.777 76.7936H121.325V79.7472H126.777V76.7936Z" fill="#5BC4D6"/>
<path d="M112.123 101.047H99.0591C98.2639 101.047 97.5823 101.729 97.5823 102.524C97.5823 103.319 98.2639 104.001 99.0591 104.001H112.123C112.918 104.001 113.6 103.319 113.6 102.524C113.6 101.729 112.975 101.047 112.123 101.047Z" fill="#5BC4D6"/>
<path d="M112.123 97.1848H99.0591C98.2639 97.1848 97.5823 97.8664 97.5823 98.6616C97.5823 99.4568 98.2639 100.138 99.0591 100.138H112.123C112.918 100.138 113.6 99.4568 113.6 98.6616C113.6 97.8664 112.975 97.1848 112.123 97.1848Z" fill="#5BC4D6"/>
<path d="M112.123 93.3224H99.0591C98.2639 93.3224 97.5823 94.004 97.5823 94.7992C97.5823 95.5944 98.2639 96.276 99.0591 96.276H112.123C112.918 96.276 113.6 95.5944 113.6 94.7992C113.6 94.004 112.975 93.3224 112.123 93.3224Z" fill="#5BC4D6"/>
<path d="M120.416 101.047H114.963V104.001H120.416V101.047Z" fill="#4164A9"/>
<path d="M120.416 97.1848H114.963V100.138H120.416V97.1848Z" fill="#EDF0FA"/>
<path d="M120.416 93.3224H114.963V96.276H120.416V93.3224Z" fill="#EDF0FA"/>
<path d="M126.777 101.047H121.325V104.001H126.777V101.047Z" fill="#EDF0FA"/>
<path d="M126.777 97.1848H121.325V100.138H126.777V97.1848Z" fill="#EDF0FA"/>
<path d="M126.777 93.3224H121.325V96.276H126.777V93.3224Z" fill="#4164A9"/>
<path d="M112.123 116.724H99.0591C98.2639 116.724 97.5823 117.406 97.5823 118.201C97.5823 118.996 98.2639 119.678 99.0591 119.678H112.123C112.918 119.678 113.6 118.996 113.6 118.201C113.6 117.349 112.975 116.724 112.123 116.724Z" fill="#4164A9"/>
<path d="M112.123 112.862H99.0591C98.2639 112.862 97.5823 113.543 97.5823 114.338C97.5823 115.134 98.2639 115.815 99.0591 115.815H112.123C112.918 115.815 113.6 115.134 113.6 114.338C113.6 113.486 112.975 112.862 112.123 112.862Z" fill="#4164A9"/>
<path d="M112.123 108.942H99.0591C98.2639 108.942 97.5823 109.624 97.5823 110.419C97.5823 111.214 98.2639 111.896 99.0591 111.896H112.123C112.918 111.896 113.6 111.214 113.6 110.419C113.6 109.624 112.975 108.942 112.123 108.942Z" fill="#4164A9"/>
<path d="M120.416 116.724H114.963V119.678H120.416V116.724Z" fill="#EDF0FA"/>
<path d="M120.416 112.862H114.963V115.815H120.416V112.862Z" fill="#5BC4D6"/>
<path d="M120.416 108.942H114.963V111.896H120.416V108.942Z" fill="#EDF0FA"/>
<path d="M126.777 115.815H121.325V118.769H126.777V115.815Z" fill="#5BC4D6"/>
<path d="M126.777 111.953H121.325V114.906H126.777V111.953Z" fill="#5BC4D6"/>
<path d="M126.777 108.942H121.325V111.896H126.777V108.942Z" fill="#EDF0FA"/>
<path d="M112.123 132.344H99.0591C98.2639 132.344 97.5823 133.026 97.5823 133.821C97.5823 134.616 98.2639 135.298 99.0591 135.298H112.123C112.918 135.298 113.6 134.616 113.6 133.821C113.6 133.026 112.975 132.344 112.123 132.344Z" fill="#5BC4D6"/>
<path d="M112.123 128.482H99.0591C98.2639 128.482 97.5823 129.163 97.5823 129.958C97.5823 130.754 98.2639 131.435 99.0591 131.435H112.123C112.918 131.435 113.6 130.754 113.6 129.958C113.6 129.163 112.975 128.482 112.123 128.482Z" fill="#5BC4D6"/>
<path d="M112.123 124.619H99.0591C98.2639 124.619 97.5823 125.301 97.5823 126.096C97.5823 126.891 98.2639 127.573 99.0591 127.573H112.123C112.918 127.573 113.6 126.891 113.6 126.096C113.6 125.301 112.975 124.619 112.123 124.619Z" fill="#5BC4D6"/>
<path d="M120.416 132.344H114.963V135.298H120.416V132.344Z" fill="#EDF0FA"/>
<path d="M120.416 128.482H114.963V131.435H120.416V128.482Z" fill="#EDF0FA"/>
<path d="M120.416 124.619H114.963V127.573H120.416V124.619Z" fill="#EDF0FA"/>
<path d="M126.777 132.344H121.325V135.298H126.777V132.344Z" fill="#EDF0FA"/>
<path d="M126.777 128.482H121.325V131.435H126.777V128.482Z" fill="#EDF0FA"/>
<path d="M126.777 124.619H121.325V127.573H126.777V124.619Z" fill="#4164A9"/>
<path d="M162.05 69.4664H174.83C176.591 69.4664 178.068 70.8864 178.068 72.704V134.9C178.068 136.661 176.648 138.138 174.83 138.138H162.05V69.4664Z" fill="#EDF0FA"/>
<path d="M163.527 69.4664H136.036C134.275 69.4664 132.798 70.8864 132.798 72.704V134.9C132.798 136.661 134.218 138.138 136.036 138.138H163.527C165.288 138.138 166.765 136.718 166.765 134.9V72.704C166.765 70.9432 165.345 69.4664 163.527 69.4664Z" fill="white"/>
<path d="M166.765 123.938H132.855V124.562H166.765V123.938Z" fill="#EDF0FA"/>
<path d="M166.765 110.306H132.855V110.93H166.765V110.306Z" fill="#EDF0FA"/>
<path d="M166.765 96.6736H132.855V97.2984H166.765V96.6736Z" fill="#EDF0FA"/>
<path d="M166.765 83.0984H132.855V83.7233H166.765V83.0984Z" fill="#EDF0FA"/>
<path d="M149.781 78.668H138.421C137.683 78.668 137.115 79.236 137.115 79.9744C137.115 80.7128 137.683 81.2808 138.421 81.2808H149.781C150.52 81.2808 151.088 80.7128 151.088 79.9744C151.031 79.236 150.463 78.668 149.781 78.668Z" fill="#5BC4D6"/>
<path d="M149.781 75.3168H138.421C137.683 75.3168 137.115 75.8848 137.115 76.6232C137.115 77.3616 137.683 77.9296 138.421 77.9296H149.781C150.52 77.9296 151.088 77.3616 151.088 76.6232C151.031 75.8848 150.463 75.3168 149.781 75.3168Z" fill="#5BC4D6"/>
<path d="M149.781 71.9088H138.421C137.683 71.9088 137.115 72.4768 137.115 73.2152C137.115 73.9536 137.683 74.5216 138.421 74.5216H149.781C150.52 74.5216 151.088 73.9536 151.088 73.2152C151.031 72.5336 150.463 71.9088 149.781 71.9088Z" fill="#5BC4D6"/>
<path d="M156.938 126.38H152.224V128.993H156.938V126.38Z" fill="#EBEBEB"/>
<path d="M156.938 129.731H152.224V132.344H156.938V129.731Z" fill="#4164A9"/>
<path d="M156.938 133.139H152.224V135.752H156.938V133.139Z" fill="#EBEBEB"/>
<path d="M162.448 126.38H157.733V128.993H162.448V126.38Z" fill="#EBEBEB"/>
<path d="M162.448 129.731H157.733V132.344H162.448V129.731Z" fill="#EBEBEB"/>
<path d="M162.448 133.139H157.733V135.752H162.448V133.139Z" fill="#4164A9"/>
<path d="M149.781 92.3H138.421C137.683 92.3 137.115 92.8681 137.115 93.6064C137.115 94.3448 137.683 94.9128 138.421 94.9128H149.781C150.52 94.9128 151.088 94.3448 151.088 93.6064C151.031 92.8681 150.463 92.3 149.781 92.3Z" fill="#4164A9"/>
<path d="M149.781 88.892H138.421C137.683 88.892 137.115 89.46 137.115 90.1984C137.115 90.9368 137.683 91.5048 138.421 91.5048H149.781C150.52 91.5048 151.088 90.9368 151.088 90.1984C151.031 89.5168 150.463 88.892 149.781 88.892Z" fill="#4164A9"/>
<path d="M149.781 85.5408H138.421C137.683 85.5408 137.115 86.1088 137.115 86.8472C137.115 87.5856 137.683 88.1536 138.421 88.1536H149.781C150.52 88.1536 151.088 87.5856 151.088 86.8472C151.031 86.1088 150.463 85.5408 149.781 85.5408Z" fill="#4164A9"/>
<path d="M156.938 112.748H152.224V115.361H156.938V112.748Z" fill="#EBEBEB"/>
<path d="M156.938 116.156H152.224V118.769H156.938V116.156Z" fill="#EBEBEB"/>
<path d="M156.938 119.507H152.224V122.12H156.938V119.507Z" fill="#5BC4D6"/>
<path d="M162.448 112.748H157.733V115.361H162.448V112.748Z" fill="#5BC4D6"/>
<path d="M162.448 116.156H157.733V118.769H162.448V116.156Z" fill="#EBEBEB"/>
<path d="M162.448 119.507H157.733V122.12H162.448V119.507Z" fill="#5BC4D6"/>
<path d="M149.781 105.875H138.421C137.683 105.875 137.115 106.443 137.115 107.182C137.115 107.92 137.683 108.488 138.421 108.488H149.781C150.52 108.488 151.088 107.92 151.088 107.182C151.031 106.5 150.463 105.875 149.781 105.875Z" fill="#5BC4D6"/>
<path d="M149.781 102.524H138.421C137.683 102.524 137.115 103.092 137.115 103.83C137.115 104.569 137.683 105.137 138.421 105.137H149.781C150.52 105.137 151.088 104.569 151.088 103.83C151.031 103.092 150.463 102.524 149.781 102.524Z" fill="#5BC4D6"/>
<path d="M149.781 99.1729H138.421C137.683 99.1729 137.115 99.7409 137.115 100.479C137.115 101.218 137.683 101.786 138.421 101.786H149.781C150.52 101.786 151.088 101.218 151.088 100.479C151.031 99.7409 150.463 99.1729 149.781 99.1729Z" fill="#5BC4D6"/>
<path d="M156.938 99.1729H152.224V101.786H156.938V99.1729Z" fill="#4164A9"/>
<path d="M156.938 102.524H152.224V105.137H156.938V102.524Z" fill="#EBEBEB"/>
<path d="M156.938 105.875H152.224V108.488H156.938V105.875Z" fill="#EBEBEB"/>
<path d="M162.448 99.1729H157.733V101.786H162.448V99.1729Z" fill="#EBEBEB"/>
<path d="M162.448 102.524H157.733V105.137H162.448V102.524Z" fill="#EBEBEB"/>
<path d="M162.448 105.875H157.733V108.488H162.448V105.875Z" fill="#4164A9"/>
<path d="M149.781 119.507H138.421C137.683 119.507 137.115 120.075 137.115 120.814C137.115 121.552 137.683 122.12 138.421 122.12H149.781C150.52 122.12 151.088 121.552 151.088 120.814C151.031 120.075 150.463 119.507 149.781 119.507Z" fill="#4164A9"/>
<path d="M149.781 116.156H138.421C137.683 116.156 137.115 116.724 137.115 117.462C137.115 118.201 137.683 118.769 138.421 118.769H149.781C150.52 118.769 151.088 118.201 151.088 117.462C151.031 116.724 150.463 116.156 149.781 116.156Z" fill="#4164A9"/>
<path d="M149.781 112.748H138.421C137.683 112.748 137.115 113.316 137.115 114.054C137.115 114.793 137.683 115.361 138.421 115.361H149.781C150.52 115.361 151.088 114.793 151.088 114.054C151.031 113.373 150.463 112.748 149.781 112.748Z" fill="#4164A9"/>
<path d="M156.938 85.5408H152.224V88.1536H156.938V85.5408Z" fill="#EBEBEB"/>
<path d="M156.938 88.892H152.224V91.5048H156.938V88.892Z" fill="#5BC4D6"/>
<path d="M156.938 92.3H152.224V94.9128H156.938V92.3Z" fill="#EBEBEB"/>
<path d="M162.448 85.5408H157.733V88.1536H162.448V85.5408Z" fill="#5BC4D6"/>
<path d="M162.448 88.892H157.733V91.5048H162.448V88.892Z" fill="#EBEBEB"/>
<path d="M162.448 92.3H157.733V94.9128H162.448V92.3Z" fill="#EBEBEB"/>
<path d="M149.781 133.139H138.421C137.683 133.139 137.115 133.707 137.115 134.446C137.115 135.184 137.683 135.752 138.421 135.752H149.781C150.52 135.752 151.088 135.184 151.088 134.446C151.031 133.707 150.463 133.139 149.781 133.139Z" fill="#5BC4D6"/>
<path d="M149.781 129.731H138.421C137.683 129.731 137.115 130.299 137.115 131.038C137.115 131.776 137.683 132.344 138.421 132.344H149.781C150.52 132.344 151.088 131.776 151.088 131.038C151.031 130.299 150.463 129.731 149.781 129.731Z" fill="#5BC4D6"/>
<path d="M149.838 126.38H138.308C137.626 126.38 137.115 126.891 137.115 127.573V127.743C137.115 128.425 137.626 128.936 138.308 128.936H149.838C150.52 128.936 151.031 128.425 151.031 127.743V127.573C151.031 126.891 150.52 126.38 149.838 126.38Z" fill="#5BC4D6"/>
<path d="M156.938 71.9088H152.224V74.5216H156.938V71.9088Z" fill="#4164A9"/>
<path d="M156.938 75.3168H152.224V77.9296H156.938V75.3168Z" fill="#EBEBEB"/>
<path d="M156.938 78.668H152.224V81.2808H156.938V78.668Z" fill="#EBEBEB"/>
<path d="M162.448 71.9088H157.733V74.5216H162.448V71.9088Z" fill="#EBEBEB"/>
<path d="M162.448 75.3168H157.733V77.9296H162.448V75.3168Z" fill="#EBEBEB"/>
<path d="M162.448 78.668H157.733V81.2808H162.448V78.668Z" fill="#4164A9"/>
</svg>
