<svg width="39" height="29" viewBox="0 0 39 29" fill="none" xmlns="http://www.w3.org/2000/svg">
<path d="M12.9551 3.08545H19.1253V11.7237H12.9551V3.08545Z" fill="#D2E1FF"/>
<path d="M12.9551 14.1921H19.1253V22.8304H12.9551V14.1921Z" fill="#D2E1FF"/>
<path d="M24.6787 20.979H31.4659V28.3832H24.6787V20.979Z" fill="#D2E1FF"/>
<path d="M24.6787 16.6599H31.4659V19.128H24.6787V16.6599Z" fill="#D2E1FF"/>
<path d="M30.2341 14.1919H22.2129V4.31958L30.2341 8.02169V14.1919Z" fill="#D2E1FF"/>
<path d="M2.67986 21.3559C2.45163 20.8459 2.4051 20.273 2.54803 19.7328C2.69096 19.1927 3.01472 18.7178 3.46532 18.3874C3.2556 18.1132 3.12674 17.7857 3.09332 17.4421C3.0599 17.0985 3.12323 16.7524 3.27618 16.4429C3.42912 16.1334 3.66558 15.8728 3.95883 15.6906C4.25208 15.5084 4.59044 15.4119 4.93568 15.4119C5.28092 15.4119 5.61928 15.5084 5.91253 15.6906C6.20578 15.8728 6.44223 16.1334 6.59518 16.4429C6.74812 16.7524 6.81146 17.0985 6.77804 17.4421C6.74461 17.7857 6.61576 18.1132 6.40603 18.3874C6.85608 18.7177 7.17946 19.1921 7.32236 19.7317C7.46527 20.2714 7.41909 20.8437 7.1915 21.3534C7.60152 21.7929 7.87423 22.3426 7.97612 22.935C8.07801 23.5273 8.00464 24.1366 7.76503 24.6878C7.52542 25.239 7.13 25.7083 6.62736 26.0379C6.12472 26.3675 5.53674 26.543 4.93568 26.543C4.33461 26.543 3.74664 26.3675 3.244 26.0379C2.74136 25.7083 2.34594 25.239 2.10633 24.6878C1.86671 24.1366 1.79335 23.5273 1.89524 22.935C1.99713 22.3426 2.26984 21.7929 2.67986 21.3534V21.3559Z" fill="#D2E1FF"/>
<path d="M35.17 27.7658H34.553V14.1914C34.553 14.0278 34.488 13.8708 34.3723 13.7551C34.2566 13.6394 34.0996 13.5744 33.936 13.5744H30.8509V8.02124C30.8509 7.90337 30.8172 7.78796 30.7536 7.68867C30.6901 7.58939 30.5994 7.51037 30.4924 7.46098L22.8297 3.92424V0.617018C22.8297 0.453375 22.7647 0.296434 22.649 0.180721C22.5332 0.0650072 22.3763 0 22.2127 0H9.87229C9.70865 0 9.55171 0.0650072 9.43599 0.180721C9.32028 0.296434 9.25527 0.453375 9.25527 0.617018V27.7658H5.55316V27.0933C6.17944 26.9898 6.7684 26.7264 7.26304 26.3286C7.75768 25.9308 8.14125 25.412 8.37662 24.8225C8.61199 24.233 8.69119 23.5927 8.60656 22.9636C8.52192 22.3345 8.27632 21.7379 7.89351 21.2316C8.04654 20.719 8.06234 20.1753 7.93933 19.6547C7.81633 19.1341 7.55883 18.6549 7.19258 18.265C7.33216 17.9541 7.40429 17.6173 7.40422 17.2765C7.40422 16.6219 7.14419 15.9942 6.68134 15.5313C6.21848 15.0685 5.59072 14.8084 4.93615 14.8084C4.28157 14.8084 3.65381 15.0685 3.19095 15.5313C2.7281 15.9942 2.46807 16.6219 2.46807 17.2765C2.46781 17.6181 2.53994 17.9558 2.67971 18.2674C2.31346 18.6572 2.05595 19.1363 1.93295 19.6568C1.80994 20.1773 1.82574 20.721 1.97878 21.2334C1.59643 21.7398 1.3512 22.3362 1.26681 22.9651C1.18242 23.5939 1.26173 24.2339 1.49706 24.8231C1.73239 25.4123 2.11578 25.9309 2.61016 26.3286C3.10453 26.7263 3.69317 26.9896 4.31913 27.0933V27.7658H0.617018C0.453375 27.7658 0.296434 27.8308 0.18072 27.9465C0.0650071 28.0623 0 28.2192 0 28.3828C0 28.5465 0.0650071 28.7034 0.18072 28.8191C0.296434 28.9349 0.453375 28.9999 0.617018 28.9999H35.17C35.3337 28.9999 35.4906 28.9349 35.6063 28.8191C35.722 28.7034 35.7871 28.5465 35.7871 28.3828C35.7871 28.2192 35.722 28.0623 35.6063 27.9465C35.4906 27.8308 35.3337 27.7658 35.17 27.7658ZM2.46807 23.4467C2.47033 22.8256 2.70777 22.2283 3.1326 21.7752C3.2146 21.6869 3.26893 21.5764 3.28889 21.4576C3.30884 21.3387 3.29355 21.2166 3.2449 21.1063C3.07391 20.7245 3.03926 20.2955 3.14675 19.8911C3.25424 19.4868 3.49735 19.1316 3.83539 18.8851C3.9663 18.7869 4.05285 18.6407 4.07599 18.4787C4.09913 18.3167 4.05697 18.1522 3.95879 18.0213C3.79339 17.8081 3.70314 17.5463 3.70211 17.2765C3.70211 16.9492 3.83212 16.6353 4.06355 16.4039C4.29498 16.1725 4.60886 16.0425 4.93615 16.0425C5.26343 16.0425 5.57731 16.1725 5.80874 16.4039C6.04017 16.6353 6.17018 16.9492 6.17018 17.2765C6.16856 17.5447 6.0788 17.8048 5.91474 18.0169C5.81655 18.1478 5.77439 18.3124 5.79753 18.4744C5.82068 18.6364 5.90723 18.7826 6.03814 18.8808C6.37618 19.1273 6.61929 19.4825 6.72678 19.8868C6.83427 20.2912 6.79962 20.7202 6.62863 21.102C6.57997 21.2123 6.56468 21.3344 6.58464 21.4533C6.60459 21.5721 6.65893 21.6825 6.74092 21.7709C7.03415 22.0817 7.24092 22.4639 7.34071 22.8794C7.44049 23.295 7.4298 23.7294 7.30971 24.1395C7.18962 24.5496 6.96431 24.9211 6.65616 25.2172C6.34801 25.5133 5.96775 25.7236 5.55316 25.8272V24.0637C5.55316 23.9001 5.48816 23.7431 5.37244 23.6274C5.25673 23.5117 5.09979 23.4467 4.93615 23.4467C4.7725 23.4467 4.61556 23.5117 4.49985 23.6274C4.38413 23.7431 4.31913 23.9001 4.31913 24.0637V25.8272C3.79087 25.6908 3.32269 25.3832 2.98779 24.9525C2.65288 24.5218 2.47012 23.9923 2.46807 23.4467ZM29.6169 8.41613V13.5744H22.8297V5.28353L29.6169 8.41613ZM10.4893 1.23404H21.5956V27.7658H10.4893V1.23404ZM25.2977 27.7658V21.5956H30.8509V27.7658H25.2977ZM32.0849 27.7658V20.9786C32.0849 20.815 32.0199 20.658 31.9042 20.5423C31.7885 20.4266 31.6316 20.3616 31.4679 20.3616H24.6807C24.5171 20.3616 24.3601 20.4266 24.2444 20.5423C24.1287 20.658 24.0637 20.815 24.0637 20.9786V27.7658H22.8297V14.8084H33.319V27.7658H32.0849Z" fill="#4164A9"/>
<path d="M37.6393 27.7659H37.0223C36.8586 27.7659 36.7017 27.8309 36.586 27.9466C36.4703 28.0623 36.4053 28.2192 36.4053 28.3829C36.4053 28.5465 36.4703 28.7035 36.586 28.8192C36.7017 28.9349 36.8586 28.9999 37.0223 28.9999H37.6393C37.803 28.9999 37.9599 28.9349 38.0756 28.8192C38.1913 28.7035 38.2563 28.5465 38.2563 28.3829C38.2563 28.2192 38.1913 28.0623 38.0756 27.9466C37.9599 27.8309 37.803 27.7659 37.6393 27.7659Z" fill="#4164A9"/>
<path d="M19.128 2.46851H12.9578C12.7942 2.46851 12.6373 2.53351 12.5215 2.64923C12.4058 2.76494 12.3408 2.92188 12.3408 3.08552V11.7238C12.3408 11.8874 12.4058 12.0444 12.5215 12.1601C12.6373 12.2758 12.7942 12.3408 12.9578 12.3408H19.128C19.2917 12.3408 19.4486 12.2758 19.5643 12.1601C19.68 12.0444 19.745 11.8874 19.745 11.7238V3.08552C19.745 2.92188 19.68 2.76494 19.5643 2.64923C19.4486 2.53351 19.2917 2.46851 19.128 2.46851ZM13.5749 11.1068V3.70254H15.4259V11.1068H13.5749ZM18.511 11.1068H16.6599V3.70254H18.511V11.1068Z" fill="#4164A9"/>
<path d="M19.128 13.5745H12.9578C12.7942 13.5745 12.6373 13.6395 12.5215 13.7552C12.4058 13.8709 12.3408 14.0278 12.3408 14.1915V22.8297C12.3408 22.9934 12.4058 23.1503 12.5215 23.266C12.6373 23.3817 12.7942 23.4468 12.9578 23.4468H19.128C19.2917 23.4468 19.4486 23.3817 19.5643 23.266C19.68 23.1503 19.745 22.9934 19.745 22.8297V14.1915C19.745 14.0278 19.68 13.8709 19.5643 13.7552C19.4486 13.6395 19.2917 13.5745 19.128 13.5745ZM13.5749 22.2127V14.8085H15.4259V22.2127H13.5749ZM18.511 22.2127H16.6599V14.8085H18.511V22.2127Z" fill="#4164A9"/>
<path d="M31.4687 16.0425H24.6815C24.5178 16.0425 24.3609 16.1075 24.2452 16.2232C24.1295 16.3389 24.0645 16.4959 24.0645 16.6595V19.1276C24.0645 19.2912 24.1295 19.4482 24.2452 19.5639C24.3609 19.6796 24.5178 19.7446 24.6815 19.7446H31.4687C31.6323 19.7446 31.7893 19.6796 31.905 19.5639C32.0207 19.4482 32.0857 19.2912 32.0857 19.1276V16.6595C32.0857 16.4959 32.0207 16.3389 31.905 16.2232C31.7893 16.1075 31.6323 16.0425 31.4687 16.0425ZM30.8517 18.5106H25.2985V17.2765H30.8517V18.5106Z" fill="#4164A9"/>
<path d="M29.5929 5.48022H32.6939C32.7724 5.48035 32.8492 5.45807 32.9154 5.41598C33.2586 5.31386 33.5559 5.09612 33.7567 4.79973C33.9576 4.50335 34.0497 4.14658 34.0174 3.79C33.9851 3.43342 33.8304 3.099 33.5795 2.84353C33.3287 2.58806 32.9972 2.42727 32.6412 2.38847C32.5554 2.04562 32.3687 1.73638 32.1053 1.50068C31.8419 1.26499 31.5139 1.11367 31.1637 1.06627C30.8134 1.01886 30.457 1.07754 30.1404 1.23474C29.8239 1.39194 29.5617 1.64043 29.3878 1.94812C28.9387 2.00057 28.5267 2.22267 28.236 2.56897C27.9454 2.91527 27.7981 3.35957 27.8243 3.81092C27.8505 4.26227 28.0482 4.68654 28.377 4.99686C28.7058 5.30719 29.1408 5.48011 29.5929 5.48022ZM29.5774 2.82218L29.6429 2.82926C29.7398 2.83646 29.8364 2.81125 29.9174 2.75761C29.9984 2.70396 30.0592 2.62491 30.0904 2.53289C30.1574 2.33634 30.2917 2.16974 30.4694 2.06239C30.6472 1.95504 30.8571 1.91383 31.0623 1.94601C31.2675 1.97818 31.4547 2.08168 31.5911 2.23829C31.7275 2.39491 31.8043 2.5946 31.8079 2.80224C31.8079 2.81287 31.8079 2.82395 31.8057 2.83237C31.8038 2.8991 31.817 2.9654 31.8444 3.02631C31.8717 3.08722 31.9125 3.14117 31.9636 3.18411C32.0147 3.22705 32.0749 3.25788 32.1396 3.2743C32.2043 3.29072 32.2719 3.2923 32.3373 3.27892C32.4337 3.26112 32.5329 3.26448 32.6279 3.28876C32.7229 3.31305 32.8114 3.35768 32.8875 3.41957C32.9635 3.48146 33.0252 3.55913 33.0683 3.64721C33.1114 3.73529 33.1348 3.83167 33.1369 3.92969C33.137 4.08288 33.0841 4.23138 32.9872 4.35005C32.8903 4.46872 32.7554 4.55027 32.6053 4.58091C32.5886 4.58446 32.572 4.58889 32.5557 4.5942H29.5929C29.3579 4.59626 29.1317 4.50488 28.9641 4.34018C28.7965 4.17547 28.7012 3.95093 28.6991 3.71594C28.6971 3.48096 28.7884 3.25478 28.9531 3.08717C29.1179 2.91955 29.3424 2.82423 29.5774 2.82218Z" fill="#4164A9"/>
<path d="M8.41601 10.0954C8.41596 9.73731 8.28366 9.39188 8.04451 9.12538C7.80536 8.85889 7.47621 8.6901 7.12023 8.65143C7.03978 8.33021 6.86489 8.04049 6.61812 7.81967C6.37136 7.59885 6.06407 7.45708 5.73592 7.41267C5.40777 7.36826 5.07385 7.42324 4.77726 7.57051C4.48068 7.71779 4.23506 7.9506 4.07212 8.23887C3.65129 8.28802 3.26518 8.4962 2.99285 8.82077C2.72053 9.14535 2.5826 9.56176 2.60732 9.98473C2.63204 10.4077 2.81754 10.8052 3.12582 11.0958C3.4341 11.3865 3.84184 11.5483 4.26553 11.5481H7.17087C7.24436 11.5482 7.31637 11.5273 7.37839 11.4879C7.67783 11.3978 7.94035 11.2138 8.1272 10.963C8.31404 10.7123 8.4153 10.4081 8.41601 10.0954ZM7.08786 10.7055C7.07215 10.7088 7.05664 10.713 7.04137 10.718H4.26553C4.15652 10.7189 4.04839 10.6984 3.94731 10.6575C3.84624 10.6167 3.75419 10.5564 3.67644 10.48C3.59868 10.4036 3.53673 10.3126 3.49414 10.2122C3.45154 10.1119 3.42912 10.0041 3.42817 9.89512C3.42722 9.78611 3.44774 9.67798 3.48858 9.57691C3.52941 9.47583 3.58976 9.38379 3.66616 9.30603C3.74257 9.22827 3.83355 9.16633 3.93389 9.12373C4.03424 9.08113 4.14199 9.05872 4.251 9.05776L4.31243 9.0644C4.40316 9.07093 4.4935 9.04723 4.56934 8.99699C4.64518 8.94676 4.70225 8.87283 4.73163 8.78674C4.79445 8.60259 4.9202 8.4465 5.08676 8.34593C5.25331 8.24536 5.45 8.20675 5.64222 8.23689C5.83443 8.26703 6.00986 8.364 6.13763 8.51073C6.2654 8.65746 6.33734 8.84455 6.34077 9.03909C6.34077 9.04905 6.34077 9.05942 6.3387 9.06731C6.33693 9.12984 6.34931 9.19195 6.37493 9.24902C6.40054 9.30608 6.43873 9.35662 6.48662 9.39685C6.53452 9.43709 6.59089 9.46597 6.65152 9.48135C6.71215 9.49674 6.77547 9.49821 6.83675 9.48568C6.92708 9.46908 7.01993 9.47228 7.10889 9.49506C7.19786 9.51784 7.28082 9.55966 7.35205 9.61763C7.42328 9.6756 7.48108 9.74834 7.52146 9.83082C7.56183 9.91331 7.58383 10.0036 7.58592 10.0954C7.58595 10.2389 7.53639 10.378 7.44563 10.4892C7.35487 10.6004 7.22848 10.6768 7.08786 10.7055Z" fill="#4164A9"/>
</svg>
