<svg width="25" height="25" viewBox="0 0 25 25" fill="none" xmlns="http://www.w3.org/2000/svg">
  <mask id="mask0_6135_3662" style="mask-type:alpha" maskUnits="userSpaceOnUse" x="0" y="0" width="25" height="25">
    <rect width="25" height="25" fill="#C4C4C4"/>
  </mask>
  <g mask="url(#mask0_6135_3661)">
    <path d="M19.4688 9.84375C19.7622 9.84375 20 9.60588 20 9.3125V7.71875C20 7.42537 19.7622 7.1875 19.4688 7.1875C19.1753 7.1875 18.9375 7.42537 18.9375 7.71875V8.78125H17.3438C17.3438 7.60951 16.3905 6.65625 15.2188 6.65625V5.0625H16.2812C16.5747 5.0625 16.8125 4.82463 16.8125 4.53125C16.8125 4.23787 16.5747 4 16.2812 4H14.6875C14.3941 4 14.1562 4.23787 14.1562 4.53125V6.65625H13.0938V4.53125C13.0938 4.23787 12.8559 4 12.5625 4C12.2691 4 12.0312 4.23787 12.0312 4.53125V6.65625H10.9688V4.53125C10.9688 4.23787 10.7309 4 10.4375 4C10.1441 4 9.90625 4.23787 9.90625 4.53125V6.65625H8.84375V4.53125C8.84375 4.23787 8.60592 4 8.3125 4H6.71875C6.42533 4 6.1875 4.23787 6.1875 4.53125C6.1875 4.82463 6.42533 5.0625 6.71875 5.0625H7.78125V6.65625C6.60951 6.65625 5.65625 7.60951 5.65625 8.78125H4.0625V7.71875C4.0625 7.42537 3.82467 7.1875 3.53125 7.1875C3.23783 7.1875 3 7.42537 3 7.71875V9.3125C3 9.60588 3.23783 9.84375 3.53125 9.84375H5.65625V10.9062H3.53125C3.23783 10.9062 3 11.1441 3 11.4375C3 11.7309 3.23783 11.9688 3.53125 11.9688H5.65625V13.0312H3.53125C3.23783 13.0312 3 13.2691 3 13.5625C3 13.8559 3.23783 14.0938 3.53125 14.0938H5.65625V15.1562H3.53125C3.23783 15.1562 3 15.3941 3 15.6875V17.2812C3 17.5746 3.23783 17.8125 3.53125 17.8125C3.82467 17.8125 4.0625 17.5746 4.0625 17.2812V16.2188H5.65625C5.65625 17.3905 6.60951 18.3438 7.78125 18.3438V19.9375H6.71875C6.42533 19.9375 6.1875 20.1754 6.1875 20.4688C6.1875 20.7621 6.42533 21 6.71875 21H8.3125C8.60592 21 8.84375 20.7621 8.84375 20.4688V18.3438H9.90625V20.4688C9.90625 20.7621 10.1441 21 10.4375 21C10.7309 21 10.9688 20.7621 10.9688 20.4688V18.3438H12.0312V20.4688C12.0312 20.7621 12.2691 21 12.5625 21C12.8559 21 13.0938 20.7621 13.0938 20.4688V18.3438H14.1562V20.4688C14.1562 20.7621 14.3941 21 14.6875 21H16.2812C16.5747 21 16.8125 20.7621 16.8125 20.4688C16.8125 20.1754 16.5747 19.9375 16.2812 19.9375H15.2188V18.3438C16.3905 18.3438 17.3438 17.3905 17.3438 16.2188H18.9375V17.2812C18.9375 17.5746 19.1753 17.8125 19.4688 17.8125C19.7622 17.8125 20 17.5746 20 17.2812V15.6875C20 15.3941 19.7622 15.1562 19.4688 15.1562H17.3438V14.0938H19.4688C19.7622 14.0938 20 13.8559 20 13.5625C20 13.2691 19.7622 13.0312 19.4688 13.0312H17.3438V11.9688H19.4688C19.7622 11.9688 20 11.7309 20 11.4375C20 11.1441 19.7622 10.9062 19.4688 10.9062H17.3438V9.84375H19.4688ZM16.2812 16.2188C16.2812 16.8046 15.8046 17.2812 15.2188 17.2812H7.78125C7.19538 17.2812 6.71875 16.8046 6.71875 16.2188V8.78125C6.71875 8.19538 7.19538 7.71875 7.78125 7.71875H15.2188C15.8046 7.71875 16.2812 8.19538 16.2812 8.78125V16.2188Z" fill="white" stroke="white" stroke-width="0.2"/>
    <path d="M14.6885 8.78125H8.31348C8.02006 8.78125 7.78223 9.01912 7.78223 9.3125V15.6875C7.78223 15.9809 8.02006 16.2187 8.31348 16.2187H14.6885C14.9819 16.2187 15.2197 15.9809 15.2197 15.6875V9.3125C15.2197 9.01912 14.9819 8.78125 14.6885 8.78125ZM14.1572 15.1562H8.84473V9.84375H14.1572V15.1562Z" fill="white" stroke="white" stroke-width="0.2"/>
    <path d="M10.9687 14.625H13.0937C13.3872 14.625 13.625 14.3871 13.625 14.0937V11.9687C13.625 11.6754 13.3872 11.4375 13.0937 11.4375C12.8003 11.4375 12.5625 11.6754 12.5625 11.9687V13.5625H10.9687C10.6753 13.5625 10.4375 13.8004 10.4375 14.0937C10.4375 14.3871 10.6753 14.625 10.9687 14.625Z" fill="white" stroke="white" stroke-width="0.2"/>
  </g>
</svg>
