<svg width="25" height="25" viewBox="0 0 25 25" fill="none" xmlns="http://www.w3.org/2000/svg">
<path d="M24.2188 8.59375C24.6502 8.59375 25 8.24395 25 7.8125V5.46875C25 5.0373 24.6502 4.6875 24.2188 4.6875C23.7873 4.6875 23.4375 5.0373 23.4375 5.46875V7.03125H21.0938C21.0938 5.30811 19.6919 3.90625 17.9688 3.90625V1.5625H19.5312C19.9627 1.5625 20.3125 1.2127 20.3125 0.78125C20.3125 0.349805 19.9627 0 19.5312 0H17.1875C16.756 0 16.4062 0.349805 16.4062 0.78125V3.90625H14.8438V0.78125C14.8438 0.349805 14.494 0 14.0625 0C13.631 0 13.2812 0.349805 13.2812 0.78125V3.90625H11.7188V0.78125C11.7188 0.349805 11.369 0 10.9375 0C10.506 0 10.1562 0.349805 10.1562 0.78125V3.90625H8.59375V0.78125C8.59375 0.349805 8.24399 0 7.8125 0H5.46875C5.03726 0 4.6875 0.349805 4.6875 0.78125C4.6875 1.2127 5.03726 1.5625 5.46875 1.5625H7.03125V3.90625C5.30811 3.90625 3.90625 5.30811 3.90625 7.03125H1.5625V5.46875C1.5625 5.0373 1.21274 4.6875 0.78125 4.6875C0.349756 4.6875 0 5.0373 0 5.46875V7.8125C0 8.24395 0.349756 8.59375 0.78125 8.59375H3.90625V10.1562H0.78125C0.349756 10.1562 0 10.5061 0 10.9375C0 11.3689 0.349756 11.7188 0.78125 11.7188H3.90625V13.2812H0.78125C0.349756 13.2812 0 13.6311 0 14.0625C0 14.4939 0.349756 14.8438 0.78125 14.8438H3.90625V16.4062H0.78125C0.349756 16.4062 0 16.7561 0 17.1875V19.5312C0 19.9627 0.349756 20.3125 0.78125 20.3125C1.21274 20.3125 1.5625 19.9627 1.5625 19.5312V17.9688H3.90625C3.90625 19.6919 5.30811 21.0938 7.03125 21.0938V23.4375H5.46875C5.03726 23.4375 4.6875 23.7873 4.6875 24.2188C4.6875 24.6502 5.03726 25 5.46875 25H7.8125C8.24399 25 8.59375 24.6502 8.59375 24.2188V21.0938H10.1562V24.2188C10.1562 24.6502 10.506 25 10.9375 25C11.369 25 11.7188 24.6502 11.7188 24.2188V21.0938H13.2812V24.2188C13.2812 24.6502 13.631 25 14.0625 25C14.494 25 14.8438 24.6502 14.8438 24.2188V21.0938H16.4062V24.2188C16.4062 24.6502 16.756 25 17.1875 25H19.5312C19.9627 25 20.3125 24.6502 20.3125 24.2188C20.3125 23.7873 19.9627 23.4375 19.5312 23.4375H17.9688V21.0938C19.6919 21.0938 21.0938 19.6919 21.0938 17.9688H23.4375V19.5312C23.4375 19.9627 23.7873 20.3125 24.2188 20.3125C24.6502 20.3125 25 19.9627 25 19.5312V17.1875C25 16.7561 24.6502 16.4062 24.2188 16.4062H21.0938V14.8438H24.2188C24.6502 14.8438 25 14.4939 25 14.0625C25 13.6311 24.6502 13.2812 24.2188 13.2812H21.0938V11.7188H24.2188C24.6502 11.7188 25 11.3689 25 10.9375C25 10.5061 24.6502 10.1562 24.2188 10.1562H21.0938V8.59375H24.2188ZM19.5312 17.9688C19.5312 18.8303 18.8303 19.5312 17.9688 19.5312H7.03125C6.16968 19.5312 5.46875 18.8303 5.46875 17.9688V7.03125C5.46875 6.16968 6.16968 5.46875 7.03125 5.46875H17.9688C18.8303 5.46875 19.5312 6.16968 19.5312 7.03125V17.9688Z" fill="#5C638B"/>
<path d="M17.1885 7.03125H7.81348C7.38198 7.03125 7.03223 7.38105 7.03223 7.8125V17.1875C7.03223 17.6189 7.38198 17.9687 7.81348 17.9687H17.1885C17.62 17.9687 17.9697 17.6189 17.9697 17.1875V7.8125C17.9697 7.38105 17.62 7.03125 17.1885 7.03125ZM16.4072 16.4062H8.59473V8.59375H16.4072V16.4062Z" fill="#5C638B"/>
<path d="M11.7187 15.625H14.8437C15.2752 15.625 15.625 15.2752 15.625 14.8437V11.7187C15.625 11.2873 15.2752 10.9375 14.8437 10.9375C14.4123 10.9375 14.0625 11.2873 14.0625 11.7187V14.0625H11.7187C11.2873 14.0625 10.9375 14.4123 10.9375 14.8437C10.9375 15.2752 11.2873 15.625 11.7187 15.625Z" fill="#5C638B"/>
</svg>
