<?xml version="1.0" encoding="utf-8"?>
<!-- Generator: Adobe Illustrator 19.0.0, SVG Export Plug-In . SVG Version: 6.00 Build 0)  -->
<svg xmlns="http://www.w3.org/2000/svg" xmlns:xlink="http://www.w3.org/1999/xlink" version="1.1" id="Layer_1" x="0px" y="0px" viewBox="0 2 98 98" style="enable-background:new 0 2 98 98;" xml:space="preserve" width="512" height="512">
<style type="text/css">
	.st0{fill:url(#SVGID_1_);}
	.st1{fill:url(#SVGID_2_);}
</style>
<g>
	
		<linearGradient id="SVGID_1_" gradientUnits="userSpaceOnUse" x1="49" y1="93.6667" x2="49" y2="7.3018" gradientTransform="matrix(1 0 0 -1 0 104)">
		<stop offset="0" style="stop-color:#00EFD1"/>
		<stop offset="1" style="stop-color:#00ACEA"/>
	</linearGradient>
	<path class="st0" d="M80.7,49c1.2,2.7,3.9,4.6,7,4.6c4.2,0,7.6-3.4,7.6-7.6s-3.4-7.6-7.6-7.6c-3.1,0-5.8,1.9-7,4.6h-9.1v-9.6   c0-1.7-1.3-3-3-3h-9.7v-8.8h6c1.2,2.7,3.9,4.6,7,4.6c4.2,0,7.6-3.4,7.6-7.6S76.1,11,71.9,11c-3.1,0-5.8,1.9-7,4.6h-9   c-1.7,0-3,1.3-3,3v11.8h-9v-9.1c2.7-1.2,4.6-3.9,4.6-7c0-4.2-3.4-7.6-7.6-7.6s-7.6,3.4-7.6,7.6c0,3.1,1.9,5.8,4.6,7v9.1h-8.5   c-1.7,0-3,1.3-3,3v9.5h-8.8v-6c2.7-1.2,4.6-3.9,4.6-7c0-4.2-3.4-7.6-7.6-7.6S7,25.7,7,29.9c0,3.1,1.9,5.8,4.6,7v9c0,1.7,1.3,3,3,3   h11.8v9h-9.1c-1.2-2.7-3.9-4.6-7-4.6c-4.2,0-7.6,3.4-7.6,7.6c0,4.2,3.4,7.6,7.6,7.6c3.1,0,5.8-1.9,7-4.6h9.1v8.7c0,1.7,1.3,3,3,3   h9.5v8.8h-6c-1.2-2.7-3.9-4.6-7-4.6c-4.2,0-7.6,3.4-7.6,7.6s3.4,7.6,7.6,7.6c3.1,0,5.8-1.9,7-4.6h9c1.7,0,3-1.3,3-3V75.6h9v9.1   c-2.7,1.2-4.6,3.9-4.6,7c0,4.2,3.4,7.6,7.6,7.6s7.6-3.4,7.6-7.6c0-3.1-1.9-5.8-4.6-7v-9.1h8.7c1.7,0,3-1.3,3-3V64h8.8v6   c-2.7,1.2-4.6,3.9-4.6,7c0,4.2,3.4,7.6,7.6,7.6S91,81.2,91,77c0-3.1-1.9-5.8-4.6-7v-9c0-1.7-1.3-3-3-3H71.6v-9H80.7z M87.7,44.4   c0.9,0,1.6,0.7,1.6,1.6s-0.7,1.6-1.6,1.6s-1.6-0.7-1.6-1.6S86.8,44.4,87.7,44.4z M71.9,17c0.9,0,1.6,0.7,1.6,1.6s-0.7,1.6-1.6,1.6   s-1.6-0.7-1.6-1.6S71,17,71.9,17z M40.9,12.7c0.9,0,1.6,0.7,1.6,1.6c0,0.9-0.7,1.6-1.6,1.6s-1.6-0.7-1.6-1.6   C39.3,13.4,40,12.7,40.9,12.7z M14.6,28.3c0.9,0,1.6,0.7,1.6,1.6s-0.7,1.6-1.6,1.6S13,30.8,13,29.9S13.7,28.3,14.6,28.3z    M10.3,62.5c-0.9,0-1.6-0.7-1.6-1.6c0-0.9,0.7-1.6,1.6-1.6c0.9,0,1.6,0.7,1.6,1.6C11.9,61.8,11.2,62.5,10.3,62.5z M25.9,89   c-0.9,0-1.6-0.7-1.6-1.6s0.7-1.6,1.6-1.6s1.6,0.7,1.6,1.6S26.8,89,25.9,89z M56.9,93.3c-0.9,0-1.6-0.7-1.6-1.6s0.7-1.6,1.6-1.6   c0.9,0,1.6,0.7,1.6,1.6C58.5,92.6,57.8,93.3,56.9,93.3z M83.4,78.6c-0.9,0-1.6-0.7-1.6-1.6s0.7-1.6,1.6-1.6S85,76.1,85,77   S84.3,78.6,83.4,78.6z M65.6,69.6H32.4V36.4h33.2C65.6,36.4,65.6,69.6,65.6,69.6z"/>
	
		<linearGradient id="SVGID_2_" gradientUnits="userSpaceOnUse" x1="49" y1="93.6667" x2="49" y2="7.3018" gradientTransform="matrix(1 0 0 -1 0 104)">
		<stop offset="0" style="stop-color:#00EFD1"/>
		<stop offset="1" style="stop-color:#00ACEA"/>
	</linearGradient>
	<path class="st1" d="M39.4,65.6h19.2c1.7,0,3-1.3,3-3V43.4c0-1.7-1.3-3-3-3H39.4c-1.7,0-3,1.3-3,3v19.2   C36.4,64.3,37.7,65.6,39.4,65.6z M42.4,46.4h13.2v13.2H42.4V46.4z"/>
</g>
</svg>
