<svg width="17" height="17" viewBox="0 0 17 17" fill="none" xmlns="http://www.w3.org/2000/svg">
<path d="M17 1.59375C17 0.71493 16.285 0 15.4062 0H1.59375C0.714963 0 0 0.71493 0 1.59375V4.78125C0 5.18915 0.154195 5.56156 0.407104 5.84375C0.154195 6.12594 0 6.49835 0 6.90625V10.0938C0 10.5017 0.154195 10.8741 0.407104 11.1562C0.154195 11.4384 0 11.8108 0 12.2188V15.4062C0 16.2851 0.714963 17 1.59375 17H15.4062C16.285 17 17 16.2851 17 15.4062V12.2188C17 11.8108 16.8458 11.4384 16.5929 11.1562C16.8458 10.8741 17 10.5017 17 10.0938V6.90625C17 6.49835 16.8458 6.12594 16.5929 5.84375C16.8458 5.56156 17 5.18915 17 4.78125V1.59375ZM1.0625 1.59375C1.0625 1.30083 1.30083 1.0625 1.59375 1.0625H15.4062C15.6992 1.0625 15.9375 1.30083 15.9375 1.59375V4.78125C15.9375 5.07417 15.6992 5.3125 15.4062 5.3125H1.59375C1.30083 5.3125 1.0625 5.07417 1.0625 4.78125V1.59375ZM15.9375 6.90625V10.0938C15.9375 10.3867 15.6992 10.625 15.4062 10.625H1.59375C1.30083 10.625 1.0625 10.3867 1.0625 10.0938V6.90625C1.0625 6.61333 1.30083 6.375 1.59375 6.375H15.4062C15.6992 6.375 15.9375 6.61333 15.9375 6.90625ZM15.9375 15.4062C15.9375 15.6992 15.6992 15.9375 15.4062 15.9375H1.59375C1.30083 15.9375 1.0625 15.6992 1.0625 15.4062V12.2188C1.0625 11.9258 1.30083 11.6875 1.59375 11.6875H15.4062C15.6992 11.6875 15.9375 11.9258 15.9375 12.2188V15.4062Z" fill="#5C638B"/>
<path d="M14.3438 4.25C14.6371 4.25 14.875 4.01217 14.875 3.71875V2.65625C14.875 2.36283 14.6371 2.125 14.3438 2.125C14.0504 2.125 13.8125 2.36283 13.8125 2.65625V3.71875C13.8125 4.01217 14.0504 4.25 14.3438 4.25Z" fill="#5C638B"/>
<path d="M12.2178 4.25C12.5112 4.25 12.749 4.01217 12.749 3.71875V2.65625C12.749 2.36283 12.5112 2.125 12.2178 2.125C11.9244 2.125 11.6865 2.36283 11.6865 2.65625V3.71875C11.6865 4.01217 11.9244 4.25 12.2178 4.25Z" fill="#5C638B"/>
<path d="M5.84375 3.71881H10.0938C10.3871 3.71881 10.625 3.48098 10.625 3.18756C10.625 2.89415 10.3871 2.65631 10.0938 2.65631H5.84375C5.55037 2.65631 5.3125 2.89415 5.3125 3.18756C5.3125 3.48098 5.55037 3.71881 5.84375 3.71881Z" fill="#5C638B"/>
<path d="M3.1875 9.5625C3.77337 9.5625 4.25 9.08587 4.25 8.5C4.25 7.91413 3.77337 7.4375 3.1875 7.4375C2.60163 7.4375 2.125 7.91413 2.125 8.5C2.125 9.08587 2.60163 9.5625 3.1875 9.5625Z" fill="#5C638B"/>
<path d="M3.1875 12.75C2.60163 12.75 2.125 13.2266 2.125 13.8125C2.125 14.3984 2.60163 14.875 3.1875 14.875C3.77337 14.875 4.25 14.3984 4.25 13.8125C4.25 13.2266 3.77337 12.75 3.1875 12.75Z" fill="#5C638B"/>
<path d="M3.1875 4.25C3.77337 4.25 4.25 3.77337 4.25 3.1875C4.25 2.60163 3.77337 2.125 3.1875 2.125C2.60163 2.125 2.125 2.60163 2.125 3.1875C2.125 3.77337 2.60163 4.25 3.1875 4.25Z" fill="#5C638B"/>
<path d="M14.3438 9.5625C14.6371 9.5625 14.875 9.32467 14.875 9.03125V7.96875C14.875 7.67533 14.6371 7.4375 14.3438 7.4375C14.0504 7.4375 13.8125 7.67533 13.8125 7.96875V9.03125C13.8125 9.32467 14.0504 9.5625 14.3438 9.5625Z" fill="#5C638B"/>
<path d="M12.2178 9.5625C12.5112 9.5625 12.749 9.32467 12.749 9.03125V7.96875C12.749 7.67533 12.5112 7.4375 12.2178 7.4375C11.9244 7.4375 11.6865 7.67533 11.6865 7.96875V9.03125C11.6865 9.32467 11.9244 9.5625 12.2178 9.5625Z" fill="#5C638B"/>
<path d="M5.84375 9.03125H10.0938C10.3871 9.03125 10.625 8.79342 10.625 8.5C10.625 8.20658 10.3871 7.96875 10.0938 7.96875H5.84375C5.55037 7.96875 5.3125 8.20658 5.3125 8.5C5.3125 8.79342 5.55037 9.03125 5.84375 9.03125Z" fill="#5C638B"/>
<path d="M14.3438 12.75C14.0504 12.75 13.8125 12.9878 13.8125 13.2812V14.3438C13.8125 14.6372 14.0504 14.875 14.3438 14.875C14.6371 14.875 14.875 14.6372 14.875 14.3438V13.2812C14.875 12.9878 14.6371 12.75 14.3438 12.75Z" fill="#5C638B"/>
<path d="M12.2178 12.75C11.9244 12.75 11.6865 12.9878 11.6865 13.2812V14.3438C11.6865 14.6372 11.9244 14.875 12.2178 14.875C12.5112 14.875 12.749 14.6372 12.749 14.3438V13.2812C12.749 12.9878 12.5112 12.75 12.2178 12.75Z" fill="#5C638B"/>
<path d="M10.0938 13.2812H5.84375C5.55037 13.2812 5.3125 13.5191 5.3125 13.8125C5.3125 14.1059 5.55037 14.3438 5.84375 14.3438H10.0938C10.3871 14.3438 10.625 14.1059 10.625 13.8125C10.625 13.5191 10.3871 13.2812 10.0938 13.2812Z" fill="#5C638B"/>
</svg>
