<svg width="36" height="36" viewBox="0 0 36 36" fill="none" xmlns="http://www.w3.org/2000/svg">
<rect width="36" height="36" rx="12" fill="transparent"/>
<mask id="mask0" mask-type="alpha" maskUnits="userSpaceOnUse" x="6" y="6" width="24" height="24">
<rect x="6" y="6" width="24" height="24" fill="#C4C4C4"/>
</mask>
<g mask="url(#mask0)">
<path d="M23.5 11.5C23.5 11.09 23.84 10.75 24.25 10.75C24.66 10.75 25 11.09 25 11.5C25 12.26 24.38 12.8 23.5 13.17V11.5Z" fill="white"/>
<path d="M23.5117 17.16V15.43C23.5117 15.42 23.5217 15.42 23.5217 15.41C23.5217 14.99 23.8517 14.7 24.2617 14.7C24.6717 14.7 25.0017 15.09 25.0017 15.5C25.0017 16.26 24.3817 16.79 23.5117 17.16Z" fill="white"/>
<path d="M23.5217 21.1602L23.5117 19.4202C23.5217 19.4202 23.5217 19.4102 23.5217 19.4102C23.5217 18.9902 23.8517 18.7002 24.2617 18.7002C24.6717 18.7002 25.0017 19.0902 25.0017 19.5002C25.0017 20.2602 24.3917 20.7902 23.5217 21.1602Z" fill="white"/>
<path d="M24.26 14.7C23.85 14.7 23.52 14.99 23.52 15.41C23.52 15.42 23.51 15.42 23.51 15.43L23.5 13.17C24.38 12.8 25 12.26 25 11.5V15.5C25 15.09 24.67 14.7 24.26 14.7Z" fill="white"/>
<path d="M24.2617 18.7C23.8517 18.7 23.5217 18.99 23.5217 19.41C23.5217 19.41 23.5217 19.42 23.5117 19.42V17.16C24.3817 16.79 25.0017 16.26 25.0017 15.5V19.5C25.0017 19.09 24.6717 18.7 24.2617 18.7Z" fill="white"/>
<path d="M12.5 17.1702V15.5002C12.72 15.8002 14.77 16.5002 18 16.5002C21.18 16.5002 23.22 15.8202 23.51 15.4302V17.1602C21.61 17.9702 18.49 18.0002 18 18.0002C17.51 18.0002 14.4 17.9702 12.5 17.1702Z" fill="white"/>
<path d="M12.5 21.1697V19.4997C12.72 19.7997 14.77 20.4997 18 20.4997C21.2 20.4997 23.25 19.8097 23.51 19.4197L23.52 21.1597C21.62 21.9697 18.5 21.9997 18 21.9997C17.51 21.9997 14.4 21.9697 12.5 21.1697Z" fill="white"/>
<path d="M18 10.5C15.01 10.5 13.03 11.1 12.56 11.5H12.5C12.5 11.09 12.16 10.75 11.75 10.75C11.34 10.75 11 11.09 11 11.5C11 9.07 17.28 9 18 9C18.72 9 25 9.07 25 11.5C25 11.09 24.66 10.75 24.25 10.75C23.84 10.75 23.5 11.09 23.5 11.5H23.44C22.97 11.1 20.99 10.5 18 10.5Z" fill="white"/>
<path d="M12.56 11.5C13.03 11.9 15.01 12.5 18 12.5C20.99 12.5 22.97 11.9 23.44 11.5H23.5V13.17C21.6 13.97 18.49 14 18 14C17.51 14 14.4 13.97 12.5 13.17V11.5H12.56Z" fill="white"/>
<path d="M12.5 19.5V21.17C11.62 20.8 11 20.26 11 19.5C11 19.09 11.34 18.75 11.75 18.75C12.16 18.75 12.5 19.09 12.5 19.5Z" fill="white"/>
<path d="M12.5 15.5002V17.1702C11.62 16.8002 11 16.2602 11 15.5002C11 15.0902 11.34 14.7502 11.75 14.7502C12.16 14.7502 12.5 15.0902 12.5 15.5002Z" fill="white"/>
<path d="M12.5 23.5C12.72 23.8 14.77 24.5 18 24.5C21.23 24.5 23.28 23.8 23.52 23.41V21.16C24.39 20.79 25 20.26 25 19.5V23.5C25 25.93 18.72 26 18 26C17.28 26 11 25.93 11 23.5V19.5C11 20.26 11.62 20.8 12.5 21.17V23.5Z" fill="white"/>
<path d="M12.5 11.5V13.17C11.62 12.8 11 12.26 11 11.5C11 11.09 11.34 10.75 11.75 10.75C12.16 10.75 12.5 11.09 12.5 11.5Z" fill="white"/>
<path d="M12.5 13.17V15.5C12.5 15.09 12.16 14.75 11.75 14.75C11.34 14.75 11 15.09 11 15.5V11.5C11 12.26 11.62 12.8 12.5 13.17Z" fill="white"/>
<path d="M12.5 17.17V19.5C12.5 19.09 12.16 18.75 11.75 18.75C11.34 18.75 11 19.09 11 19.5V15.5C11 16.26 11.62 16.8 12.5 17.17Z" fill="white"/>
</g>
</svg>
