<svg width="45" height="30" viewBox="0 0 45 30" fill="none" xmlns="http://www.w3.org/2000/svg">
<path d="M40.3125 0H4.68746C2.10375 0 0 2.10375 0 4.68755V25.3125C0 27.8963 2.10375 30 4.68746 30H40.3124C42.8961 30 44.9998 27.8963 44.9998 25.3125V4.68755C44.9999 2.10375 42.8962 0 40.3125 0ZM43.1249 25.3125C43.1249 26.8631 41.8631 28.1249 40.3125 28.1249H4.68746C3.13681 28.1249 1.87497 26.8631 1.87497 25.3125V4.68755C1.87497 3.1369 3.13681 1.87506 4.68746 1.87506H40.3124C41.863 1.87506 43.1249 3.1369 43.1249 4.68755V25.3125H43.1249Z" fill="#4164A9"/>
<path d="M44.0624 5.62488H0.937528C0.420029 5.62488 0 6.04491 0 6.56241V12.1874C0 12.7049 0.420029 13.1249 0.937528 13.1249H44.0625C44.58 13.1249 45 12.7049 45 12.1874V6.56241C44.9999 6.04491 44.5799 5.62488 44.0624 5.62488ZM43.1249 11.2499H1.87497V7.49985H43.1249V11.2499H43.1249Z" fill="#4164A9"/>
<path d="M17.8125 18.7499H6.56253C6.04503 18.7499 5.625 19.1699 5.625 19.6874C5.625 20.2049 6.04503 20.6248 6.56253 20.6248H17.8125C18.33 20.6248 18.75 20.2048 18.75 19.6873C18.75 19.1698 18.33 18.7499 17.8125 18.7499Z" fill="#4164A9"/>
<path d="M17.8125 22.4999H6.56253C6.04503 22.4999 5.625 22.9199 5.625 23.4374C5.625 23.9549 6.04503 24.3749 6.56253 24.3749H17.8125C18.33 24.3749 18.75 23.9549 18.75 23.4374C18.7499 22.9199 18.33 22.4999 17.8125 22.4999Z" fill="#4164A9"/>
<path d="M36.5625 16.8748H34.6875C33.1368 16.8748 31.875 18.1366 31.875 19.6873V21.5622C31.875 23.1129 33.1368 24.3747 34.6875 24.3747H36.5625C38.1131 24.3747 39.375 23.1129 39.375 21.5622V19.6873C39.375 18.1367 38.1131 16.8748 36.5625 16.8748ZM37.5 21.5623C37.5 22.0798 37.08 22.4998 36.5625 22.4998H34.6875C34.17 22.4998 33.75 22.0798 33.75 21.5623V19.6873C33.75 19.1698 34.17 18.7498 34.6875 18.7498H36.5625C37.08 18.7498 37.5 19.1698 37.5 19.6873V21.5623Z" fill="#4164A9"/>
</svg>
