<svg width="120" height="120" viewBox="0 0 120 120" fill="none" xmlns="http://www.w3.org/2000/svg">
<circle cx="60" cy="60" r="60" fill="url(#paint0_linear)"/>
<circle cx="59.9998" cy="59.9999" r="42.5" fill="#B1122A"/>
<path d="M81.78 68.3943C81.3509 66.397 80.3328 64.5742 78.8571 63.1614C76.9705 61.3093 74.4295 60.276 71.7857 60.2857C69.078 60.2899 66.4823 61.3673 64.5677 63.282C62.653 65.1966 61.5756 67.7923 61.5714 70.5C61.5714 70.7671 61.5714 71.0343 61.5714 71.2857C61.649 72.3676 61.9038 73.4293 62.3257 74.4286C63.3046 76.7759 65.124 78.6736 67.428 79.7505C69.7319 80.8274 72.3548 81.0061 74.7836 80.2515C77.2123 79.4969 79.2722 77.8635 80.5603 75.6705C81.8484 73.4776 82.2721 70.8831 81.7486 68.3943H81.78ZM73.0271 73.9729L71.7857 72.7314L70.5443 73.9729C70.3982 74.1201 70.2244 74.237 70.0329 74.3168C69.8414 74.3966 69.636 74.4377 69.4286 74.4377C69.2211 74.4377 69.0157 74.3966 68.8242 74.3168C68.6327 74.237 68.4589 74.1201 68.3128 73.9729C68.1656 73.8268 68.0486 73.653 67.9689 73.4615C67.8891 73.27 67.848 73.0646 67.848 72.8571C67.848 72.6497 67.8891 72.4443 67.9689 72.2528C68.0486 72.0613 68.1656 71.8875 68.3128 71.7414L68.7686 71.2857L69.5543 70.5L68.3128 69.2586C68.0169 68.9627 67.8507 68.5613 67.8507 68.1429C67.8507 67.7244 68.0169 67.323 68.3128 67.0271C68.6087 66.7312 69.0101 66.565 69.4286 66.565C69.847 66.565 70.2484 66.7312 70.5443 67.0271L71.7857 68.2686L73.0271 67.0271C73.323 66.7312 73.7244 66.565 74.1428 66.565C74.5613 66.565 74.9626 66.7312 75.2586 67.0271C75.5545 67.323 75.7207 67.7244 75.7207 68.1429C75.7207 68.5613 75.5545 68.9627 75.2586 69.2586L74.0171 70.5L74.7557 71.2386L75.2586 71.7414C75.4058 71.8875 75.5227 72.0613 75.6025 72.2528C75.6823 72.4443 75.7234 72.6497 75.7234 72.8571C75.7234 73.0646 75.6823 73.27 75.6025 73.4615C75.5227 73.653 75.4058 73.8268 75.2586 73.9729C75.1125 74.1201 74.9387 74.237 74.7472 74.3168C74.5557 74.3966 74.3503 74.4377 74.1428 74.4377C73.9354 74.4377 73.73 74.3966 73.5385 74.3168C73.347 74.237 73.1732 74.1201 73.0271 73.9729Z" fill="white"/>
<path d="M82 50.8571V52.4286H38V50.8571C38 48.7733 38.8278 46.7748 40.3013 45.3013C41.7748 43.8278 43.7733 43 45.8571 43H74.1429C76.2267 43 78.2252 43.8278 79.6987 45.3013C81.1722 46.7748 82 48.7733 82 50.8571Z" fill="white"/>
<path d="M82 55.5714V61.8571C81.1004 60.7927 80.04 59.8754 78.8571 59.1386C76.7357 57.8191 74.284 57.1271 71.7857 57.1428C68.2445 57.147 64.8494 58.5556 62.3454 61.0596C59.8413 63.5637 58.4327 66.9587 58.4286 70.5C58.4286 70.7671 58.4286 71.0186 58.4286 71.2857C58.4956 72.3516 58.6854 73.4062 58.9943 74.4286H45.8571C43.7733 74.4286 41.7748 73.6008 40.3013 72.1273C38.8278 70.6538 38 68.6553 38 66.5714V55.5714H82Z" fill="white"/>
<defs>
<linearGradient id="paint0_linear" x1="60" y1="0" x2="102.5" y2="226.25" gradientUnits="userSpaceOnUse">
<stop stop-color="#B1122A"/>
<stop offset="1" stop-color="#172139"/>
</linearGradient>
</defs>
</svg>
