<svg width="24" height="24" viewBox="0 0 24 24" fill="none" xmlns="http://www.w3.org/2000/svg">
<mask id="mask0" mask-type="alpha" maskUnits="userSpaceOnUse" x="0" y="0" width="24" height="24">
<rect width="24" height="24" fill="#C4C4C4"/>
</mask>
<g mask="url(#mask0)">
<circle cx="12" cy="12" r="7.64732" stroke="#B1122A" stroke-width="1.20536"/>
<path d="M11.6858 16.0001C12.0639 16.0001 12.3704 15.6936 12.3704 15.3155C12.3704 14.9374 12.0639 14.6309 11.6858 14.6309H11.6854C11.3073 14.6309 11.001 14.9374 11.001 15.3155C11.001 15.6936 11.3077 16.0001 11.6858 16.0001Z" fill="#B1122A"/>
<path d="M12.3693 12.9807V8.59648C12.3693 8.26704 12.0628 8 11.6846 8C11.3065 8 11 8.26704 11 8.59648V12.9807C11 13.3101 11.3065 13.5772 11.6846 13.5772C12.0628 13.5772 12.3693 13.3101 12.3693 12.9807Z" fill="#B1122A"/>
</g>
</svg>
