<svg width="686" height="554" viewBox="0 0 686 554" fill="none" xmlns="http://www.w3.org/2000/svg">
<path d="M474.658 176.202C561.656 247.799 657.597 236.726 586 323.724C514.403 410.722 254.812 436.423 167.814 364.827C80.816 293.23 148.886 176.245 220.482 89.2471C292.079 2.24896 387.66 104.605 474.658 176.202Z" fill="url(#paint0_linear)"/>
<path d="M95.4348 322.674C95.1568 323.371 95.389 324.143 95.9745 324.612L115.732 340.458C116.681 341.219 118.099 340.834 118.605 339.727C125.11 325.498 140.867 313.69 146.617 309.718C147.647 309.006 147.699 307.476 146.703 306.718L125.623 290.693C125.068 290.27 124.31 290.21 123.7 290.549C105.14 300.854 97.2673 318.078 95.4348 322.674Z" fill="url(#paint1_linear)"/>
<rect width="15.223" height="1.79094" rx="0.895471" transform="matrix(-0.772939 -0.63448 -0.63448 0.772939 137.123 312.195)" fill="#9EB0D3"/>
<rect width="7.9945" height="1.79094" rx="0.895471" transform="matrix(-0.772939 -0.63448 -0.63448 0.772939 133.541 314.882)" fill="#9EB0D3"/>
<rect width="11.7596" height="1.79094" rx="0.895471" transform="matrix(-0.772939 -0.63448 -0.63448 0.772939 129.959 317.568)" fill="#9EB0D3"/>
<rect width="19.9931" height="1.79094" rx="0.895471" transform="matrix(-0.772939 -0.63448 -0.63448 0.772939 126.377 320.255)" fill="#9EB0D3"/>
<path d="M684.989 154.17C685.39 155.177 685.055 156.29 684.21 156.968L655.687 179.843C654.316 180.942 652.269 180.386 651.539 178.789C642.148 158.247 619.401 141.2 611.099 135.465C609.612 134.438 609.537 132.229 610.976 131.135L641.407 108C642.21 107.39 643.303 107.304 644.184 107.793C670.978 122.67 682.344 147.535 684.989 154.17Z" fill="url(#paint2_linear)"/>
<rect x="624.806" y="139.042" width="21.9768" height="2.5855" rx="1.29275" transform="rotate(-39.3814 624.806 139.042)" fill="#9EB0D3"/>
<rect x="629.977" y="142.921" width="11.5413" height="2.5855" rx="1.29275" transform="rotate(-39.3814 629.977 142.921)" fill="#9EB0D3"/>
<rect x="635.148" y="146.799" width="16.9768" height="2.5855" rx="1.29275" transform="rotate(-39.3814 635.148 146.799)" fill="#9EB0D3"/>
<rect x="640.319" y="150.677" width="28.8631" height="2.5855" rx="1.29275" transform="rotate(-39.3814 640.319 150.677)" fill="#9EB0D3"/>
<path opacity="0.3" d="M364.799 200.413C367.746 200.413 367.746 195.848 364.799 195.848C361.852 195.848 361.852 200.413 364.799 200.413Z" fill="#A2DBF1"/>
<path opacity="0.3" d="M349.376 198.131C355.262 198.131 355.262 189 349.376 189C343.491 189 343.483 198.131 349.376 198.131Z" fill="#A2DBF1"/>
<path opacity="0.3" d="M593.414 355.363C599.299 355.363 599.299 346.232 593.414 346.232C587.529 346.232 587.529 355.363 593.414 355.363Z" fill="#3A4C6F"/>
<path opacity="0.3" d="M602.545 340.87C610.198 340.87 610.198 329 602.545 329C594.891 329 594.891 340.87 602.545 340.87Z" fill="#3A4C6F"/>
<path opacity="0.3" d="M212.55 266.611C216.966 266.611 216.966 259.763 212.55 259.763C208.134 259.763 208.134 266.611 212.55 266.611Z" fill="#3A4C6F"/>
<path opacity="0.3" d="M480.642 208.407C483.589 208.407 483.589 203.841 480.642 203.841C477.695 203.841 477.704 208.407 480.642 208.407Z" fill="#3A4C6F"/>
<path opacity="0.3" d="M4.41695 286.131C10.3021 286.131 10.3021 277 4.41695 277C-1.46816 277 -1.47646 286.131 4.41695 286.131Z" fill="#3A4C6F"/>
<path opacity="0.3" d="M212.417 361.918C218.302 361.918 218.302 352.787 212.417 352.787C206.532 352.787 206.524 361.918 212.417 361.918Z" fill="#3A4C6F"/>
<path opacity="0.3" d="M263.108 193.682C266.055 193.682 266.055 189.116 263.108 189.116C260.162 189.116 260.162 193.682 263.108 193.682Z" fill="#3A4C6F"/>
<path opacity="0.3" d="M509.752 339.656C512.69 339.656 512.69 335.09 509.752 335.09C506.813 335.09 506.805 339.656 509.752 339.656Z" fill="#3A4C6F"/>
<path opacity="0.3" d="M226.13 367.62C229.068 367.62 229.068 363.055 226.13 363.055C223.191 363.055 223.183 367.62 226.13 367.62Z" fill="#3A4C6F"/>
<path d="M126.08 346.343C126.345 346.34 126.599 346.233 126.787 346.046C126.975 345.858 127.081 345.604 127.085 345.339V343.004C127.085 342.738 126.979 342.482 126.79 342.294C126.602 342.106 126.346 342 126.08 342C125.813 342 125.557 342.106 125.369 342.294C125.181 342.482 125.075 342.738 125.075 343.004V345.339C125.075 345.605 125.181 345.861 125.369 346.049C125.557 346.237 125.813 346.343 126.08 346.343Z" fill="#374C75"/>
<path d="M128.709 348.678H131.046C131.177 348.678 131.308 348.652 131.43 348.602C131.552 348.551 131.663 348.477 131.756 348.384C131.849 348.291 131.923 348.18 131.974 348.058C132.024 347.936 132.05 347.806 132.05 347.674C132.05 347.542 132.024 347.412 131.974 347.29C131.923 347.168 131.849 347.057 131.756 346.964C131.663 346.871 131.552 346.797 131.43 346.746C131.308 346.696 131.177 346.67 131.046 346.67H128.709C128.442 346.67 128.186 346.776 127.998 346.964C127.809 347.152 127.704 347.408 127.704 347.674C127.704 347.94 127.809 348.196 127.998 348.384C128.186 348.572 128.442 348.678 128.709 348.678Z" fill="#374C75"/>
<path d="M126.08 353.5C126.345 353.497 126.599 353.39 126.787 353.202C126.975 353.015 127.081 352.761 127.085 352.496V350.161C127.085 349.895 126.979 349.639 126.79 349.451C126.602 349.263 126.346 349.157 126.08 349.157C125.813 349.157 125.557 349.263 125.369 349.451C125.181 349.639 125.075 349.895 125.075 350.161V352.496C125.075 352.762 125.181 353.017 125.369 353.206C125.557 353.394 125.813 353.5 126.08 353.5Z" fill="#374C75"/>
<path d="M121.113 348.829H123.45C123.59 348.844 123.732 348.83 123.867 348.786C124.001 348.743 124.125 348.672 124.23 348.578C124.335 348.484 124.419 348.369 124.476 348.24C124.533 348.111 124.563 347.972 124.563 347.831C124.563 347.69 124.533 347.55 124.476 347.422C124.419 347.293 124.335 347.178 124.23 347.083C124.125 346.989 124.001 346.918 123.867 346.875C123.732 346.832 123.59 346.817 123.45 346.832H121.113C120.973 346.817 120.831 346.832 120.697 346.875C120.562 346.918 120.439 346.989 120.334 347.083C120.229 347.178 120.145 347.293 120.087 347.422C120.03 347.55 120 347.69 120 347.831C120 347.972 120.03 348.111 120.087 348.24C120.145 348.369 120.229 348.484 120.334 348.578C120.439 348.672 120.562 348.743 120.697 348.786C120.831 348.83 120.973 348.844 121.113 348.829Z" fill="#374C75"/>
<path d="M299 212.173C299 210.493 299.499 208.851 300.433 207.454C301.367 206.058 302.694 204.969 304.247 204.326C305.8 203.683 307.509 203.515 309.158 203.843C310.807 204.171 312.322 204.979 313.51 206.167C314.699 207.355 315.509 208.868 315.837 210.516C316.165 212.163 315.996 213.871 315.353 215.423C314.71 216.974 313.62 218.301 312.222 219.234C310.825 220.167 309.181 220.665 307.5 220.665C305.246 220.665 303.084 219.771 301.49 218.178C299.896 216.585 299 214.425 299 212.173ZM303.221 212.173C303.226 213.017 303.482 213.841 303.956 214.54C304.43 215.239 305.1 215.783 305.883 216.102C306.665 216.421 307.525 216.501 308.353 216.333C309.181 216.165 309.941 215.755 310.536 215.156C311.132 214.557 311.537 213.795 311.699 212.966C311.862 212.138 311.776 211.28 311.451 210.5C311.126 209.72 310.578 209.054 309.874 208.586C309.171 208.117 308.345 207.867 307.5 207.867C306.936 207.867 306.377 207.979 305.855 208.195C305.334 208.412 304.861 208.73 304.463 209.13C304.066 209.53 303.751 210.005 303.538 210.527C303.324 211.049 303.217 211.609 303.221 212.173Z" fill="#3A4C6F"/>
<circle cx="348.5" cy="213.5" r="49.025" stroke="url(#paint3_linear)" stroke-width="0.950096" stroke-linecap="round"/>
<circle cx="72" cy="246" r="25" fill="url(#paint4_linear)"/>
<path d="M82.7167 238.634L82.0547 235.296C82.0151 235.097 81.8216 234.968 81.6224 235.007C81.6223 235.007 81.6223 235.007 81.6222 235.007L63.4018 238.63H62.8387C62.6357 238.63 62.471 238.795 62.471 238.998V240.873C61.6138 241.046 60.9981 241.801 61 242.675V255.179C61.0012 256.194 61.8238 257.016 62.8387 257.017H82.6972C82.9003 257.017 83.0649 256.853 83.0649 256.65V238.998C83.0631 238.803 82.9106 238.644 82.7167 238.634ZM81.4042 235.8L81.9661 238.63H67.1734L81.4042 235.8ZM62.0543 241.895L62.0562 241.896C62.1736 241.78 62.3152 241.691 62.471 241.635V243.711C62.4629 243.708 62.4548 243.707 62.4467 243.704C62.3992 243.685 62.3532 243.663 62.3088 243.637C62.2868 243.625 62.2632 243.615 62.2419 243.6C62.1758 243.559 62.1142 243.51 62.058 243.456C61.627 243.025 61.6253 242.327 62.0543 241.895ZM82.3294 251.869H77.1809V248.927H82.3294V251.869ZM82.3294 248.191H76.8132C76.6101 248.191 76.4454 248.356 76.4454 248.559V252.237C76.4454 252.44 76.6101 252.604 76.8132 252.604H82.3294V256.282H62.8387C62.2294 256.282 61.7355 255.788 61.7355 255.179V244.146C61.7521 244.159 61.7704 244.167 61.7874 244.179C61.8197 244.202 61.8532 244.221 61.8866 244.242C61.9486 244.28 62.0127 244.314 62.0786 244.344C62.1154 244.36 62.1522 244.377 62.1889 244.391C62.2597 244.417 62.332 244.439 62.4055 244.456C62.4397 244.465 62.4728 244.475 62.5074 244.481C62.6166 244.502 62.7275 244.513 62.8387 244.514H82.3294V248.191ZM70.2198 243.778C70.4218 242.371 71.7264 241.394 73.1337 241.596C74.265 241.758 75.1537 242.647 75.3161 243.778H70.2198ZM82.3294 243.778H76.056C75.847 241.962 74.2055 240.66 72.3896 240.869C70.8614 241.045 69.6558 242.25 69.4799 243.778H63.2065V239.365H82.3294V243.778Z" fill="#3B4A6F"/>
<path d="M81.2263 240.101H79.0198V240.836H80.8585V242.675H81.594V240.469C81.594 240.265 81.4294 240.101 81.2263 240.101Z" fill="#3B4A6F"/>
<path d="M64.3098 240.101C64.1067 240.101 63.942 240.265 63.942 240.469V242.675H64.6775V240.836H66.5163V240.101H64.3098Z" fill="#3B4A6F"/>
<path d="M78.6519 250.03H77.9164V250.766H78.6519V250.03Z" fill="#3B4A6F"/>
<path d="M492.489 200.312C492.336 197.871 490.391 195.927 487.95 195.774C487.852 195.753 487.751 195.744 487.647 195.744H486.496V193.871C486.496 193.767 486.485 193.666 486.466 193.568C486.313 191.128 484.368 189.183 481.927 189.031C481.829 189.01 481.728 189 481.624 189H451.872C451.768 189 451.667 189.011 451.568 189.031C449.129 189.183 447.185 191.127 447.031 193.566C447.01 193.666 447 193.767 447 193.872V222.624C447 222.728 447.011 222.829 447.03 222.927C447.184 225.368 449.128 227.313 451.569 227.466C451.667 227.486 451.768 227.496 451.872 227.496H487.647C487.751 227.496 487.852 227.485 487.95 227.466C490.391 227.313 492.336 225.368 492.489 222.927C492.509 222.829 492.519 222.728 492.519 222.624V200.615C492.52 200.512 492.509 200.41 492.489 200.312ZM450.001 193.872C450.001 192.84 450.84 192 451.872 192H481.624C482.656 192 483.496 192.84 483.496 193.871V195.744H451.872C450.841 195.744 450.001 194.905 450 193.875C450 193.873 450.001 193.873 450.001 193.872ZM489.52 205.528H479.616C478.788 205.528 478.116 206.199 478.116 207.028V216.572C478.116 217.4 478.788 218.072 479.616 218.072H489.52V222.624C489.52 223.656 488.68 224.496 487.648 224.496H451.872C450.84 224.496 450 223.656 450 222.624V198.367C450.487 198.57 451.019 198.678 451.569 198.713C451.667 198.733 451.768 198.744 451.872 198.744H487.647C488.679 198.744 489.519 199.583 489.519 200.615V205.528H489.52ZM489.519 208.528V215.072H481.116V208.528H489.519ZM485 213.553C485.46 213.553 485.91 213.364 486.23 213.033C486.559 212.713 486.75 212.263 486.75 211.803C486.75 211.344 486.56 210.883 486.23 210.563C485.589 209.914 484.41 209.914 483.759 210.563C483.429 210.883 483.249 211.334 483.249 211.803C483.249 212.264 483.429 212.713 483.759 213.043C484.09 213.363 484.54 213.553 485 213.553Z" fill="url(#paint5_linear)"/>
<circle cx="649.32" cy="308.22" r="20.21" stroke="#3E5281" stroke-width="0.94" stroke-dasharray="2.26 2.26"/>
<circle cx="626.07" cy="289.07" r="38.07" fill="url(#paint6_linear)"/>
<path d="M166.414 161.414L168 159.828L169.586 161.414C169.961 161.789 170.47 162 171 162C171.53 162 172.039 161.789 172.414 161.414L174 159.828L175.586 161.414C175.961 161.789 176.47 162 177 162C177.53 162 178.039 161.789 178.414 161.414L180 159.828L181.586 161.414C181.961 161.789 182.47 162 183 162C183.53 162 184.039 161.789 184.414 161.414L186 159.828L187.586 161.414C187.961 161.789 188.47 162 189 162C189.53 162 190.039 161.789 190.414 161.414L192 159.828L193.586 161.414C193.961 161.789 194.47 162 195 162C195.53 162 196.039 161.789 196.414 161.414L198 159.828L199.586 161.414C199.961 161.789 200.47 162 201 162C201.53 162 202.039 161.789 202.414 161.414L203.414 160.414C203.789 160.039 204 159.53 204 159V106.723C204.151 106.639 204.29 106.535 204.414 106.414L206 104.828L207.586 106.414C207.961 106.789 208.47 107 209 107C209.53 107 210.039 106.789 210.414 106.414L212 104.828L213.586 106.414C213.866 106.694 214.222 106.884 214.61 106.961C214.998 107.038 215.4 106.999 215.765 106.847C216.131 106.696 216.443 106.44 216.663 106.111C216.883 105.782 217 105.396 217 105V96.5C216.997 94.2465 216.101 92.086 214.507 90.4925C212.914 88.899 210.754 88.0026 208.5 88H164.5C162.246 88.0026 160.086 88.899 158.493 90.4925C156.899 92.086 156.003 94.2465 156 96.5V118C156 118.53 156.211 119.039 156.586 119.414C156.961 119.789 157.47 120 158 120C158.53 120 159.039 119.789 159.414 119.414C159.789 119.039 160 118.53 160 118V96.5C160 95.3065 160.474 94.1619 161.318 93.318C162.162 92.4741 163.307 92 164.5 92H201.3C200.451 93.3473 200 94.9074 200 96.5V156.172L199.414 155.586C199.039 155.211 198.53 155 198 155C197.47 155 196.961 155.211 196.586 155.586L195 157.172L193.414 155.586C193.039 155.211 192.53 155 192 155C191.47 155 190.961 155.211 190.586 155.586L189 157.172L187.414 155.586C187.039 155.211 186.53 155 186 155C185.47 155 184.961 155.211 184.586 155.586L183 157.172L181.414 155.586C181.039 155.211 180.53 155 180 155C179.47 155 178.961 155.211 178.586 155.586L177 157.172L175.414 155.586C175.039 155.211 174.53 155 174 155C173.47 155 172.961 155.211 172.586 155.586L171 157.172L169.414 155.586C169.039 155.211 168.53 155 168 155C167.47 155 166.961 155.211 166.586 155.586L165 157.172L163.414 155.586C163.039 155.211 162.53 155 162 155C161.47 155 160.961 155.211 160.586 155.586L160 156.172V152C160 151.47 159.789 150.961 159.414 150.586C159.039 150.211 158.53 150 158 150C157.47 150 156.961 150.211 156.586 150.586C156.211 150.961 156 151.47 156 152V159C156 159.53 156.211 160.039 156.586 160.414L157.586 161.414C157.961 161.789 158.47 162 159 162C159.53 162 160.039 161.789 160.414 161.414L162 159.828L163.586 161.414C163.961 161.789 164.47 162 165 162C165.53 162 166.039 161.789 166.414 161.414ZM213 96.5V100.268C212.619 100.048 212.175 99.9598 211.739 100.017C211.303 100.075 210.897 100.275 210.586 100.586L209 102.172L207.414 100.586C207.039 100.211 206.53 100 206 100C205.47 100 204.961 100.211 204.586 100.586L204 101.172V96.5C204 95.3065 204.474 94.1619 205.318 93.318C206.162 92.4741 207.307 92 208.5 92C209.693 92 210.838 92.4741 211.682 93.318C212.526 94.1619 213 95.3065 213 96.5Z" fill="url(#paint7_linear)"/>
<path d="M166 110C167.105 110 168 109.105 168 108C168 106.895 167.105 106 166 106C164.895 106 164 106.895 164 108C164 109.105 164.895 110 166 110Z" fill="url(#paint8_linear)"/>
<path d="M172 110C173.105 110 174 109.105 174 108C174 106.895 173.105 106 172 106C170.895 106 170 106.895 170 108C170 109.105 170.895 110 172 110Z" fill="url(#paint9_linear)"/>
<path d="M178 110C179.105 110 180 109.105 180 108C180 106.895 179.105 106 178 106C176.895 106 176 106.895 176 108C176 109.105 176.895 110 178 110Z" fill="url(#paint10_linear)"/>
<path d="M166 118H194C194.53 118 195.039 117.789 195.414 117.414C195.789 117.039 196 116.53 196 116C196 115.47 195.789 114.961 195.414 114.586C195.039 114.211 194.53 114 194 114H166C165.47 114 164.961 114.211 164.586 114.586C164.211 114.961 164 115.47 164 116C164 116.53 164.211 117.039 164.586 117.414C164.961 117.789 165.47 118 166 118Z" fill="url(#paint11_linear)"/>
<path d="M173 126H194C194.53 126 195.039 125.789 195.414 125.414C195.789 125.039 196 124.53 196 124C196 123.47 195.789 122.961 195.414 122.586C195.039 122.211 194.53 122 194 122H173C172.47 122 171.961 122.211 171.586 122.586C171.211 122.961 171 123.47 171 124C171 124.53 171.211 125.039 171.586 125.414C171.961 125.789 172.47 126 173 126Z" fill="url(#paint12_linear)"/>
<path d="M194 130H176C175.47 130 174.961 130.211 174.586 130.586C174.211 130.961 174 131.47 174 132C174 132.53 174.211 133.039 174.586 133.414C174.961 133.789 175.47 134 176 134H194C194.53 134 195.039 133.789 195.414 133.414C195.789 133.039 196 132.53 196 132C196 131.47 195.789 130.961 195.414 130.586C195.039 130.211 194.53 130 194 130Z" fill="url(#paint13_linear)"/>
<path d="M194 138H176C175.47 138 174.961 138.211 174.586 138.586C174.211 138.961 174 139.47 174 140C174 140.53 174.211 141.039 174.586 141.414C174.961 141.789 175.47 142 176 142H194C194.53 142 195.039 141.789 195.414 141.414C195.789 141.039 196 140.53 196 140C196 139.47 195.789 138.961 195.414 138.586C195.039 138.211 194.53 138 194 138Z" fill="url(#paint14_linear)"/>
<path d="M158 148C160.571 148 163.085 147.238 165.222 145.809C167.36 144.381 169.026 142.35 170.01 139.975C170.994 137.599 171.252 134.986 170.75 132.464C170.249 129.942 169.01 127.626 167.192 125.808C165.374 123.99 163.058 122.751 160.536 122.25C158.014 121.748 155.401 122.006 153.025 122.99C150.65 123.974 148.619 125.64 147.191 127.778C145.762 129.915 145 132.429 145 135C145.004 138.447 146.375 141.751 148.812 144.188C151.249 146.625 154.553 147.996 158 148ZM158 126C159.78 126 161.52 126.528 163 127.517C164.48 128.506 165.634 129.911 166.315 131.556C166.996 133.2 167.174 135.01 166.827 136.756C166.48 138.502 165.623 140.105 164.364 141.364C163.105 142.623 161.502 143.48 159.756 143.827C158.01 144.174 156.2 143.996 154.556 143.315C152.911 142.634 151.506 141.48 150.517 140C149.528 138.52 149 136.78 149 135C149.003 132.614 149.952 130.326 151.639 128.639C153.326 126.952 155.614 126.003 158 126Z" fill="url(#paint15_linear)"/>
<path d="M153.05 139.949C153.236 140.135 153.456 140.282 153.699 140.383C153.942 140.483 154.202 140.535 154.465 140.535C154.727 140.535 154.987 140.483 155.23 140.383C155.473 140.282 155.693 140.135 155.879 139.949L158 137.828L160.122 139.949C160.307 140.14 160.527 140.292 160.771 140.397C161.015 140.502 161.278 140.557 161.543 140.56C161.809 140.562 162.072 140.511 162.318 140.411C162.564 140.31 162.787 140.162 162.975 139.974C163.163 139.786 163.311 139.563 163.412 139.317C163.512 139.071 163.563 138.808 163.561 138.542C163.558 138.277 163.503 138.014 163.398 137.77C163.293 137.526 163.141 137.305 162.95 137.121L160.828 135L162.949 132.879C163.14 132.695 163.292 132.474 163.397 132.23C163.502 131.986 163.557 131.723 163.56 131.458C163.562 131.192 163.511 130.929 163.411 130.683C163.31 130.437 163.162 130.214 162.974 130.026C162.786 129.838 162.563 129.69 162.317 129.589C162.071 129.489 161.808 129.438 161.542 129.441C161.277 129.443 161.014 129.498 160.77 129.603C160.526 129.708 160.306 129.86 160.121 130.051L158 132.172L155.878 130.051C155.694 129.86 155.473 129.708 155.229 129.603C154.985 129.498 154.722 129.443 154.457 129.441C154.191 129.438 153.928 129.489 153.682 129.589C153.436 129.69 153.213 129.838 153.025 130.026C152.837 130.214 152.689 130.437 152.588 130.683C152.488 130.929 152.437 131.192 152.44 131.458C152.442 131.723 152.497 131.986 152.602 132.23C152.707 132.474 152.859 132.695 153.05 132.879L155.172 135L153.05 137.121C152.675 137.496 152.464 138.005 152.464 138.535C152.464 139.065 152.675 139.574 153.05 139.949Z" fill="url(#paint16_linear)"/>
<path d="M617.414 230.414C617.414 203.676 595.738 182 569 182" stroke="url(#paint17_linear)" stroke-width="5.09619" stroke-linecap="round"/>
<path d="M433.122 156L430.422 151.799L427.973 156H425.148L429.081 149.707L425.094 143.521H427.973L430.672 147.704L433.104 143.521H435.928L432.013 149.796L436 156H433.122Z" fill="#425175"/>
<defs>
<linearGradient id="paint0_linear" x1="426.498" y1="62.4917" x2="239.211" y2="477.199" gradientUnits="userSpaceOnUse">
<stop stop-color="#151F36"/>
<stop offset="1" stop-color="#1B2743"/>
</linearGradient>
<linearGradient id="paint1_linear" x1="121.882" y1="290" x2="121.882" y2="342" gradientUnits="userSpaceOnUse">
<stop stop-color="#394A70"/>
<stop offset="1" stop-color="#151F36"/>
</linearGradient>
<linearGradient id="paint2_linear" x1="646.808" y1="107" x2="646.808" y2="182.07" gradientUnits="userSpaceOnUse">
<stop stop-color="#394A70"/>
<stop offset="1" stop-color="#151F36"/>
</linearGradient>
<linearGradient id="paint3_linear" x1="450.14" y1="194.36" x2="269.96" y2="213.5" gradientUnits="userSpaceOnUse">
<stop stop-color="#151F36"/>
<stop offset="1" stop-color="#29385A"/>
</linearGradient>
<linearGradient id="paint4_linear" x1="72" y1="221" x2="72" y2="271" gradientUnits="userSpaceOnUse">
<stop stop-color="#151F36"/>
<stop offset="1" stop-color="#1F2C49"/>
</linearGradient>
<linearGradient id="paint5_linear" x1="469.76" y1="189" x2="469.76" y2="227.496" gradientUnits="userSpaceOnUse">
<stop stop-color="#1E2A46"/>
<stop offset="1" stop-color="#2E3D5F"/>
</linearGradient>
<linearGradient id="paint6_linear" x1="626.07" y1="251" x2="626.07" y2="327.14" gradientUnits="userSpaceOnUse">
<stop stop-color="#151F36"/>
<stop offset="1" stop-color="#212E4D"/>
</linearGradient>
<linearGradient id="paint7_linear" x1="186.5" y1="88" x2="186.5" y2="162" gradientUnits="userSpaceOnUse">
<stop stop-color="#1E2A46"/>
<stop offset="1" stop-color="#2E3D5F"/>
</linearGradient>
<linearGradient id="paint8_linear" x1="166" y1="106" x2="166" y2="110" gradientUnits="userSpaceOnUse">
<stop stop-color="#1E2A46"/>
<stop offset="1" stop-color="#2E3D5F"/>
</linearGradient>
<linearGradient id="paint9_linear" x1="172" y1="106" x2="172" y2="110" gradientUnits="userSpaceOnUse">
<stop stop-color="#1E2A46"/>
<stop offset="1" stop-color="#2E3D5F"/>
</linearGradient>
<linearGradient id="paint10_linear" x1="178" y1="106" x2="178" y2="110" gradientUnits="userSpaceOnUse">
<stop stop-color="#1E2A46"/>
<stop offset="1" stop-color="#2E3D5F"/>
</linearGradient>
<linearGradient id="paint11_linear" x1="180" y1="114" x2="180" y2="118" gradientUnits="userSpaceOnUse">
<stop stop-color="#1E2A46"/>
<stop offset="1" stop-color="#2E3D5F"/>
</linearGradient>
<linearGradient id="paint12_linear" x1="183.5" y1="122" x2="183.5" y2="126" gradientUnits="userSpaceOnUse">
<stop stop-color="#1E2A46"/>
<stop offset="1" stop-color="#2E3D5F"/>
</linearGradient>
<linearGradient id="paint13_linear" x1="185" y1="130" x2="185" y2="134" gradientUnits="userSpaceOnUse">
<stop stop-color="#1E2A46"/>
<stop offset="1" stop-color="#2E3D5F"/>
</linearGradient>
<linearGradient id="paint14_linear" x1="185" y1="138" x2="185" y2="142" gradientUnits="userSpaceOnUse">
<stop stop-color="#1E2A46"/>
<stop offset="1" stop-color="#2E3D5F"/>
</linearGradient>
<linearGradient id="paint15_linear" x1="158" y1="122" x2="158" y2="148" gradientUnits="userSpaceOnUse">
<stop stop-color="#1E2A46"/>
<stop offset="1" stop-color="#2E3D5F"/>
</linearGradient>
<linearGradient id="paint16_linear" x1="158" y1="129.44" x2="158" y2="140.56" gradientUnits="userSpaceOnUse">
<stop stop-color="#1E2A46"/>
<stop offset="1" stop-color="#2E3D5F"/>
</linearGradient>
<linearGradient id="paint17_linear" x1="593.207" y1="182" x2="593.207" y2="230.414" gradientUnits="userSpaceOnUse">
<stop stop-color="#151F36"/>
<stop offset="1" stop-color="#29385A"/>
</linearGradient>
</defs>
</svg>
