<svg width="60" height="60" viewBox="0 0 60 60" fill="none" xmlns="http://www.w3.org/2000/svg">
<rect width="60" height="60" rx="18" fill="#EFF4FD"/>
<path fill-rule="evenodd" clip-rule="evenodd" d="M47.2 30C47.2 35.081 43.081 39.2 38 39.2C32.919 39.2 28.8 35.081 28.8 30C28.8 24.919 32.919 20.8 38 20.8C43.081 20.8 47.2 24.919 47.2 30ZM49 30C49 36.0751 44.0751 41 38 41C31.9249 41 27 36.0751 27 30C27 23.9249 31.9249 19 38 19C44.0751 19 49 23.9249 49 30ZM13.9 26.2C13.4029 26.2 13 26.6029 13 27.1C13 27.5971 13.4029 28 13.9 28H24.1C24.5971 28 25 27.5971 25 27.1C25 26.6029 24.5971 26.2 24.1 26.2H13.9ZM13.9 36.2C13.4029 36.2 13 36.6029 13 37.1C13 37.5971 13.4029 38 13.9 38H24.1C24.5971 38 25 37.5971 25 37.1C25 36.6029 24.5971 36.2 24.1 36.2H13.9ZM11 32.1C11 31.6029 11.4029 31.2 11.9 31.2H22.1C22.5971 31.2 23 31.6029 23 32.1C23 32.5971 22.5971 33 22.1 33H11.9C11.4029 33 11 32.5971 11 32.1Z" fill="#4164A9"/>
<path d="M41 28.7146H37.5428L39.2665 24L34 31.2203H37.4572L35.7335 35.9348L41 28.7146Z" fill="#4164A9"/>
</svg>
