<svg width="15" height="15" viewBox="0 0 15 15" fill="none" xmlns="http://www.w3.org/2000/svg">
<path d="M7.08333 0C3.17333 0 0 3.17333 0 7.08333C0 10.9933 3.17333 14.1667 7.08333 14.1667C10.9933 14.1667 14.1667 10.9933 14.1667 7.08333C14.1667 3.17333 10.9933 0 7.08333 0ZM7.79167 12.0417H6.375V10.625H7.79167V12.0417ZM9.25792 6.55208L8.62042 7.20375C8.11042 7.72083 7.79167 8.14583 7.79167 9.20833H6.375V8.85417C6.375 8.075 6.69375 7.36667 7.20375 6.84958L8.08208 5.95708C8.34417 5.70208 8.5 5.34792 8.5 4.95833C8.5 4.17917 7.8625 3.54167 7.08333 3.54167C6.30417 3.54167 5.66667 4.17917 5.66667 4.95833H4.25C4.25 3.39292 5.51792 2.125 7.08333 2.125C8.64875 2.125 9.91667 3.39292 9.91667 4.95833C9.91667 5.58167 9.66167 6.14833 9.25792 6.55208Z" fill="#BDBDBD"/>
</svg>
