<svg width="36" height="36" viewBox="0 0 36 36" fill="none" xmlns="http://www.w3.org/2000/svg">
<rect width="36" height="36" rx="12" fill="transparent"/>
<mask id="mask0" mask-type="alpha" maskUnits="userSpaceOnUse" x="6" y="6" width="24" height="24">
<rect x="6" y="6" width="24" height="24" fill="#C4C4C4"/>
</mask>
<g mask="url(#mask0)">
<mask id="path-3-outside-1" maskUnits="userSpaceOnUse" x="7" y="7" width="21" height="21" fill="black">
<rect fill="white" x="7" y="7" width="21" height="21"/>
<path d="M25.0915 14.3398C25.2155 13.8993 25.2781 13.4499 25.2781 12.9989C25.2781 10.2427 23.0356 8 20.2792 8C18.5179 8 16.9038 8.92028 16.0006 10.4198C15.8316 10.3983 15.6668 10.3871 15.5082 10.3871C13.4253 10.3871 11.7211 12.041 11.6375 14.1063C9.60761 14.2503 8 15.9476 8 18.0136C8 20.0185 9.51469 21.6739 11.4592 21.9018C11.4109 21.9672 11.3767 22.0439 11.3767 22.1315C11.3767 22.3489 11.5528 22.5248 11.77 22.5248H12.9872V23.5803H11.77C11.5528 23.5803 11.3767 23.7562 11.3767 23.9736C11.3767 24.191 11.5528 24.3669 11.77 24.3669H12.9872V25.6632C12.9872 25.8806 13.1633 26.0565 13.3805 26.0565H14.6772V27.2737C14.6772 27.4911 14.8533 27.667 15.0705 27.667C15.2877 27.667 15.4638 27.4911 15.4638 27.2737V26.0565H16.5193V27.2737C16.5193 27.4911 16.6954 27.667 16.9126 27.667C17.1298 27.667 17.3059 27.4911 17.3059 27.2737V26.0565H18.3612V27.2737C18.3612 27.4911 18.5373 27.667 18.7545 27.667C18.9718 27.667 19.1479 27.4911 19.1479 27.2737V26.0565H20.2033V27.2737C20.2033 27.4911 20.3794 27.667 20.5966 27.667C20.8139 27.667 20.99 27.4911 20.99 27.2737V26.0095C21.0265 25.991 21.0626 25.9708 21.0921 25.9413L22.563 24.4706C22.593 24.4406 22.6137 24.404 22.6324 24.3669H23.8971C24.1143 24.3669 24.2904 24.191 24.2904 23.9736C24.2904 23.7562 24.1143 23.5803 23.8971 23.5803H22.6782V22.5248H23.8971C24.1143 22.5248 24.2904 22.3489 24.2904 22.1315C24.2904 22.0437 24.2563 21.9669 24.2078 21.9016C26.1516 21.673 27.6655 20.018 27.6655 18.0136C27.6655 16.3509 26.6261 14.8952 25.0915 14.3398ZM21.8916 24.0297L20.6512 25.2699H20.6005C20.5991 25.2699 20.598 25.2691 20.5966 25.2691C20.5953 25.2691 20.5942 25.2699 20.5928 25.2699H18.7584C18.757 25.2699 18.7559 25.2691 18.7545 25.2691C18.7532 25.2691 18.7521 25.2699 18.7507 25.2699H16.9165C16.9151 25.2699 16.914 25.2691 16.9126 25.2691C16.9113 25.2691 16.9102 25.2699 16.9088 25.2699H15.0744C15.073 25.2699 15.0719 25.2691 15.0705 25.2691C15.0692 25.2691 15.0681 25.2699 15.0667 25.2699H13.7738V23.9793C13.7739 23.9772 13.775 23.9756 13.775 23.9736C13.775 23.9716 13.7739 23.9699 13.7738 23.9678V22.1372C13.7739 22.1351 13.775 22.1335 13.775 22.1315C13.775 22.1295 13.7739 22.1278 13.7738 22.1257V20.2951C13.7739 20.293 13.775 20.2914 13.775 20.2894C13.775 20.2874 13.7739 20.2857 13.7738 20.2836V18.453C13.7739 18.451 13.775 18.4493 13.775 18.4473C13.775 18.4453 13.7739 18.4436 13.7738 18.4416V18.3927L15.0143 17.1521H21.8916V24.0297ZM23.7481 21.1444H22.6782V20.6827H23.8971C24.1143 20.6827 24.2904 20.5068 24.2904 20.2894C24.2904 20.072 24.1143 19.8961 23.8971 19.8961H22.6782V18.8406H23.8971C24.1143 18.8406 24.2904 18.6647 24.2904 18.4473C24.2904 18.2299 24.1143 18.054 23.8971 18.054H22.6782V16.7588C22.6782 16.5414 22.5021 16.3655 22.2849 16.3655H20.99V15.1468C20.99 14.9294 20.8139 14.7535 20.5966 14.7535C20.3794 14.7535 20.2033 14.9294 20.2033 15.1468V16.3655H19.1479V15.1468C19.1479 14.9294 18.9718 14.7535 18.7545 14.7535C18.5373 14.7535 18.3612 14.9294 18.3612 15.1468V16.3655H17.3059V15.1468C17.3059 14.9294 17.1298 14.7535 16.9126 14.7535C16.6954 14.7535 16.5193 14.9294 16.5193 15.1468V16.3655H15.4638V15.1468C15.4638 14.9294 15.2877 14.7535 15.0705 14.7535C14.8533 14.7535 14.6772 14.9294 14.6772 15.1468V16.4113C14.64 16.43 14.6034 16.4507 14.5733 16.4807L13.1025 17.9518C13.0729 17.9814 13.0527 18.0174 13.0341 18.054H11.77C11.5528 18.054 11.3767 18.2299 11.3767 18.4473C11.3767 18.6647 11.5528 18.8406 11.77 18.8406H12.9872V19.8961H11.77C11.5528 19.8961 11.3767 20.072 11.3767 20.2894C11.3767 20.5068 11.5528 20.6827 11.77 20.6827H12.9872V21.1444H11.9173C10.191 21.1444 8.78662 19.7397 8.78662 18.0136C8.78662 16.2875 10.191 14.8829 11.9173 14.8829H12.0393C12.1472 14.8829 12.2505 14.8384 12.3249 14.76C12.399 14.6816 12.4378 14.5764 12.432 14.4685L12.427 14.3897C12.4242 14.3483 12.4209 14.3068 12.4209 14.2653C12.4209 12.5607 13.8059 11.1737 15.5082 11.1737C15.7041 11.1737 15.9146 11.1953 16.1337 11.2375C16.3025 11.2717 16.4754 11.188 16.5562 11.0351C17.2887 9.64813 18.7154 8.78662 20.2792 8.78662C22.6018 8.78662 24.4915 10.6763 24.4915 12.9989C24.4915 13.4925 24.4018 13.9853 24.225 14.4627C24.186 14.568 24.1937 14.6847 24.2463 14.7838C24.2987 14.8829 24.3911 14.9547 24.5 14.9812C25.9006 15.3254 26.8788 16.5721 26.8788 18.0136C26.8788 19.7397 25.4744 21.1444 23.7481 21.1444Z"/>
</mask>
<path d="M25.0915 14.3398C25.2155 13.8993 25.2781 13.4499 25.2781 12.9989C25.2781 10.2427 23.0356 8 20.2792 8C18.5179 8 16.9038 8.92028 16.0006 10.4198C15.8316 10.3983 15.6668 10.3871 15.5082 10.3871C13.4253 10.3871 11.7211 12.041 11.6375 14.1063C9.60761 14.2503 8 15.9476 8 18.0136C8 20.0185 9.51469 21.6739 11.4592 21.9018C11.4109 21.9672 11.3767 22.0439 11.3767 22.1315C11.3767 22.3489 11.5528 22.5248 11.77 22.5248H12.9872V23.5803H11.77C11.5528 23.5803 11.3767 23.7562 11.3767 23.9736C11.3767 24.191 11.5528 24.3669 11.77 24.3669H12.9872V25.6632C12.9872 25.8806 13.1633 26.0565 13.3805 26.0565H14.6772V27.2737C14.6772 27.4911 14.8533 27.667 15.0705 27.667C15.2877 27.667 15.4638 27.4911 15.4638 27.2737V26.0565H16.5193V27.2737C16.5193 27.4911 16.6954 27.667 16.9126 27.667C17.1298 27.667 17.3059 27.4911 17.3059 27.2737V26.0565H18.3612V27.2737C18.3612 27.4911 18.5373 27.667 18.7545 27.667C18.9718 27.667 19.1479 27.4911 19.1479 27.2737V26.0565H20.2033V27.2737C20.2033 27.4911 20.3794 27.667 20.5966 27.667C20.8139 27.667 20.99 27.4911 20.99 27.2737V26.0095C21.0265 25.991 21.0626 25.9708 21.0921 25.9413L22.563 24.4706C22.593 24.4406 22.6137 24.404 22.6324 24.3669H23.8971C24.1143 24.3669 24.2904 24.191 24.2904 23.9736C24.2904 23.7562 24.1143 23.5803 23.8971 23.5803H22.6782V22.5248H23.8971C24.1143 22.5248 24.2904 22.3489 24.2904 22.1315C24.2904 22.0437 24.2563 21.9669 24.2078 21.9016C26.1516 21.673 27.6655 20.018 27.6655 18.0136C27.6655 16.3509 26.6261 14.8952 25.0915 14.3398ZM21.8916 24.0297L20.6512 25.2699H20.6005C20.5991 25.2699 20.598 25.2691 20.5966 25.2691C20.5953 25.2691 20.5942 25.2699 20.5928 25.2699H18.7584C18.757 25.2699 18.7559 25.2691 18.7545 25.2691C18.7532 25.2691 18.7521 25.2699 18.7507 25.2699H16.9165C16.9151 25.2699 16.914 25.2691 16.9126 25.2691C16.9113 25.2691 16.9102 25.2699 16.9088 25.2699H15.0744C15.073 25.2699 15.0719 25.2691 15.0705 25.2691C15.0692 25.2691 15.0681 25.2699 15.0667 25.2699H13.7738V23.9793C13.7739 23.9772 13.775 23.9756 13.775 23.9736C13.775 23.9716 13.7739 23.9699 13.7738 23.9678V22.1372C13.7739 22.1351 13.775 22.1335 13.775 22.1315C13.775 22.1295 13.7739 22.1278 13.7738 22.1257V20.2951C13.7739 20.293 13.775 20.2914 13.775 20.2894C13.775 20.2874 13.7739 20.2857 13.7738 20.2836V18.453C13.7739 18.451 13.775 18.4493 13.775 18.4473C13.775 18.4453 13.7739 18.4436 13.7738 18.4416V18.3927L15.0143 17.1521H21.8916V24.0297ZM23.7481 21.1444H22.6782V20.6827H23.8971C24.1143 20.6827 24.2904 20.5068 24.2904 20.2894C24.2904 20.072 24.1143 19.8961 23.8971 19.8961H22.6782V18.8406H23.8971C24.1143 18.8406 24.2904 18.6647 24.2904 18.4473C24.2904 18.2299 24.1143 18.054 23.8971 18.054H22.6782V16.7588C22.6782 16.5414 22.5021 16.3655 22.2849 16.3655H20.99V15.1468C20.99 14.9294 20.8139 14.7535 20.5966 14.7535C20.3794 14.7535 20.2033 14.9294 20.2033 15.1468V16.3655H19.1479V15.1468C19.1479 14.9294 18.9718 14.7535 18.7545 14.7535C18.5373 14.7535 18.3612 14.9294 18.3612 15.1468V16.3655H17.3059V15.1468C17.3059 14.9294 17.1298 14.7535 16.9126 14.7535C16.6954 14.7535 16.5193 14.9294 16.5193 15.1468V16.3655H15.4638V15.1468C15.4638 14.9294 15.2877 14.7535 15.0705 14.7535C14.8533 14.7535 14.6772 14.9294 14.6772 15.1468V16.4113C14.64 16.43 14.6034 16.4507 14.5733 16.4807L13.1025 17.9518C13.0729 17.9814 13.0527 18.0174 13.0341 18.054H11.77C11.5528 18.054 11.3767 18.2299 11.3767 18.4473C11.3767 18.6647 11.5528 18.8406 11.77 18.8406H12.9872V19.8961H11.77C11.5528 19.8961 11.3767 20.072 11.3767 20.2894C11.3767 20.5068 11.5528 20.6827 11.77 20.6827H12.9872V21.1444H11.9173C10.191 21.1444 8.78662 19.7397 8.78662 18.0136C8.78662 16.2875 10.191 14.8829 11.9173 14.8829H12.0393C12.1472 14.8829 12.2505 14.8384 12.3249 14.76C12.399 14.6816 12.4378 14.5764 12.432 14.4685L12.427 14.3897C12.4242 14.3483 12.4209 14.3068 12.4209 14.2653C12.4209 12.5607 13.8059 11.1737 15.5082 11.1737C15.7041 11.1737 15.9146 11.1953 16.1337 11.2375C16.3025 11.2717 16.4754 11.188 16.5562 11.0351C17.2887 9.64813 18.7154 8.78662 20.2792 8.78662C22.6018 8.78662 24.4915 10.6763 24.4915 12.9989C24.4915 13.4925 24.4018 13.9853 24.225 14.4627C24.186 14.568 24.1937 14.6847 24.2463 14.7838C24.2987 14.8829 24.3911 14.9547 24.5 14.9812C25.9006 15.3254 26.8788 16.5721 26.8788 18.0136C26.8788 19.7397 25.4744 21.1444 23.7481 21.1444Z" fill="white"/>
<path d="M25.0915 14.3398C25.2155 13.8993 25.2781 13.4499 25.2781 12.9989C25.2781 10.2427 23.0356 8 20.2792 8C18.5179 8 16.9038 8.92028 16.0006 10.4198C15.8316 10.3983 15.6668 10.3871 15.5082 10.3871C13.4253 10.3871 11.7211 12.041 11.6375 14.1063C9.60761 14.2503 8 15.9476 8 18.0136C8 20.0185 9.51469 21.6739 11.4592 21.9018C11.4109 21.9672 11.3767 22.0439 11.3767 22.1315C11.3767 22.3489 11.5528 22.5248 11.77 22.5248H12.9872V23.5803H11.77C11.5528 23.5803 11.3767 23.7562 11.3767 23.9736C11.3767 24.191 11.5528 24.3669 11.77 24.3669H12.9872V25.6632C12.9872 25.8806 13.1633 26.0565 13.3805 26.0565H14.6772V27.2737C14.6772 27.4911 14.8533 27.667 15.0705 27.667C15.2877 27.667 15.4638 27.4911 15.4638 27.2737V26.0565H16.5193V27.2737C16.5193 27.4911 16.6954 27.667 16.9126 27.667C17.1298 27.667 17.3059 27.4911 17.3059 27.2737V26.0565H18.3612V27.2737C18.3612 27.4911 18.5373 27.667 18.7545 27.667C18.9718 27.667 19.1479 27.4911 19.1479 27.2737V26.0565H20.2033V27.2737C20.2033 27.4911 20.3794 27.667 20.5966 27.667C20.8139 27.667 20.99 27.4911 20.99 27.2737V26.0095C21.0265 25.991 21.0626 25.9708 21.0921 25.9413L22.563 24.4706C22.593 24.4406 22.6137 24.404 22.6324 24.3669H23.8971C24.1143 24.3669 24.2904 24.191 24.2904 23.9736C24.2904 23.7562 24.1143 23.5803 23.8971 23.5803H22.6782V22.5248H23.8971C24.1143 22.5248 24.2904 22.3489 24.2904 22.1315C24.2904 22.0437 24.2563 21.9669 24.2078 21.9016C26.1516 21.673 27.6655 20.018 27.6655 18.0136C27.6655 16.3509 26.6261 14.8952 25.0915 14.3398ZM21.8916 24.0297L20.6512 25.2699H20.6005C20.5991 25.2699 20.598 25.2691 20.5966 25.2691C20.5953 25.2691 20.5942 25.2699 20.5928 25.2699H18.7584C18.757 25.2699 18.7559 25.2691 18.7545 25.2691C18.7532 25.2691 18.7521 25.2699 18.7507 25.2699H16.9165C16.9151 25.2699 16.914 25.2691 16.9126 25.2691C16.9113 25.2691 16.9102 25.2699 16.9088 25.2699H15.0744C15.073 25.2699 15.0719 25.2691 15.0705 25.2691C15.0692 25.2691 15.0681 25.2699 15.0667 25.2699H13.7738V23.9793C13.7739 23.9772 13.775 23.9756 13.775 23.9736C13.775 23.9716 13.7739 23.9699 13.7738 23.9678V22.1372C13.7739 22.1351 13.775 22.1335 13.775 22.1315C13.775 22.1295 13.7739 22.1278 13.7738 22.1257V20.2951C13.7739 20.293 13.775 20.2914 13.775 20.2894C13.775 20.2874 13.7739 20.2857 13.7738 20.2836V18.453C13.7739 18.451 13.775 18.4493 13.775 18.4473C13.775 18.4453 13.7739 18.4436 13.7738 18.4416V18.3927L15.0143 17.1521H21.8916V24.0297ZM23.7481 21.1444H22.6782V20.6827H23.8971C24.1143 20.6827 24.2904 20.5068 24.2904 20.2894C24.2904 20.072 24.1143 19.8961 23.8971 19.8961H22.6782V18.8406H23.8971C24.1143 18.8406 24.2904 18.6647 24.2904 18.4473C24.2904 18.2299 24.1143 18.054 23.8971 18.054H22.6782V16.7588C22.6782 16.5414 22.5021 16.3655 22.2849 16.3655H20.99V15.1468C20.99 14.9294 20.8139 14.7535 20.5966 14.7535C20.3794 14.7535 20.2033 14.9294 20.2033 15.1468V16.3655H19.1479V15.1468C19.1479 14.9294 18.9718 14.7535 18.7545 14.7535C18.5373 14.7535 18.3612 14.9294 18.3612 15.1468V16.3655H17.3059V15.1468C17.3059 14.9294 17.1298 14.7535 16.9126 14.7535C16.6954 14.7535 16.5193 14.9294 16.5193 15.1468V16.3655H15.4638V15.1468C15.4638 14.9294 15.2877 14.7535 15.0705 14.7535C14.8533 14.7535 14.6772 14.9294 14.6772 15.1468V16.4113C14.64 16.43 14.6034 16.4507 14.5733 16.4807L13.1025 17.9518C13.0729 17.9814 13.0527 18.0174 13.0341 18.054H11.77C11.5528 18.054 11.3767 18.2299 11.3767 18.4473C11.3767 18.6647 11.5528 18.8406 11.77 18.8406H12.9872V19.8961H11.77C11.5528 19.8961 11.3767 20.072 11.3767 20.2894C11.3767 20.5068 11.5528 20.6827 11.77 20.6827H12.9872V21.1444H11.9173C10.191 21.1444 8.78662 19.7397 8.78662 18.0136C8.78662 16.2875 10.191 14.8829 11.9173 14.8829H12.0393C12.1472 14.8829 12.2505 14.8384 12.3249 14.76C12.399 14.6816 12.4378 14.5764 12.432 14.4685L12.427 14.3897C12.4242 14.3483 12.4209 14.3068 12.4209 14.2653C12.4209 12.5607 13.8059 11.1737 15.5082 11.1737C15.7041 11.1737 15.9146 11.1953 16.1337 11.2375C16.3025 11.2717 16.4754 11.188 16.5562 11.0351C17.2887 9.64813 18.7154 8.78662 20.2792 8.78662C22.6018 8.78662 24.4915 10.6763 24.4915 12.9989C24.4915 13.4925 24.4018 13.9853 24.225 14.4627C24.186 14.568 24.1937 14.6847 24.2463 14.7838C24.2987 14.8829 24.3911 14.9547 24.5 14.9812C25.9006 15.3254 26.8788 16.5721 26.8788 18.0136C26.8788 19.7397 25.4744 21.1444 23.7481 21.1444Z" stroke="white" stroke-width="0.24" mask="url(#path-3-outside-1)"/>
<path d="M15.4421 24.0858H20.2287C20.4956 24.0858 20.712 23.8696 20.712 23.6025V21.5376V18.8159C20.712 18.5488 20.4956 18.3326 20.2287 18.3326H15.4421C15.1753 18.3326 14.9588 18.5488 14.9588 18.8159V21.5376V23.6025C14.9588 23.8696 15.1753 24.0858 15.4421 24.0858ZM15.9254 21.5376V19.2992H19.7454V21.5376V23.1191H15.9254V21.5376Z" fill="white" stroke="white" stroke-width="0.18"/>
</g>
</svg>
