<svg width="60" height="60" viewBox="0 0 60 60" fill="none" xmlns="http://www.w3.org/2000/svg">
<rect width="60" height="60" rx="18" fill="#EFF4FD"/>
<path d="M44.5314 21.7364C44.4967 20.8341 44.4967 19.9666 44.4967 19.1337C44.4967 18.4744 43.9762 17.9538 43.3168 17.9538C38.2155 17.9191 34.3288 16.4616 31.1014 13.3384C30.6503 12.8872 29.8868 12.8872 29.4357 13.3384C26.2084 16.4616 22.3216 17.9191 17.255 17.9191C16.5957 17.9191 16.0752 18.4397 16.0752 19.099C16.0752 19.9319 16.0752 20.7994 16.0405 21.7364C15.8669 30.308 15.624 42.0028 29.8868 46.9306C30.0257 46.9653 30.1298 47 30.2686 47C30.4074 47 30.5462 46.9653 30.6503 46.9306C44.9131 42.0028 44.6702 30.308 44.5314 21.7364ZM30.2686 44.5361C18.0532 40.0942 18.2267 30.3774 18.4002 21.8058C18.4002 21.2853 18.4349 20.7994 18.4349 20.3136C23.1892 20.0707 27.0065 18.6479 30.2686 15.8022C33.5306 18.6479 37.3479 20.1054 42.1022 20.2789C42.1022 20.7647 42.1022 21.2506 42.1369 21.7711C42.3104 30.3774 42.4839 40.0942 30.2686 44.5361Z" fill="#4164A9"/>
<path d="M25.6667 35H33.6667C33.8435 35 34.013 34.9298 34.1381 34.8047C34.2631 34.6797 34.3333 34.5101 34.3333 34.3333V29C34.3333 28.8232 34.2631 28.6536 34.1381 28.5286C34.013 28.4036 33.8435 28.3333 33.6667 28.3333H33V26.3333C33 25.4493 32.6488 24.6014 32.0237 23.9763C31.3986 23.3512 30.5507 23 29.6667 23C28.7826 23 27.9348 23.3512 27.3096 23.9763C26.6845 24.6014 26.3333 25.4493 26.3333 26.3333V28.3333H25.6667C25.4899 28.3333 25.3203 28.4036 25.1953 28.5286C25.0702 28.6536 25 28.8232 25 29V34.3333C25 34.5101 25.0702 34.6797 25.1953 34.8047C25.3203 34.9298 25.4899 35 25.6667 35ZM27.6667 26.3333C27.6667 25.8029 27.8774 25.2942 28.2525 24.9191C28.6275 24.544 29.1362 24.3333 29.6667 24.3333C30.1971 24.3333 30.7058 24.544 31.0809 24.9191C31.456 25.2942 31.6667 25.8029 31.6667 26.3333V28.3333H27.6667V26.3333ZM26.3333 29.6667H33V33.6667H26.3333V29.6667Z" fill="#4164A9"/>
<path d="M29.6667 30.333C29.4899 30.333 29.3203 30.4032 29.1953 30.5283C29.0702 30.6533 29 30.8229 29 30.9997V32.333C29 32.5098 29.0702 32.6794 29.1953 32.8044C29.3203 32.9294 29.4899 32.9997 29.6667 32.9997C29.8435 32.9997 30.013 32.9294 30.1381 32.8044C30.2631 32.6794 30.3333 32.5098 30.3333 32.333V30.9997C30.3333 30.8229 30.2631 30.6533 30.1381 30.5283C30.013 30.4032 29.8435 30.333 29.6667 30.333Z" fill="#4164A9"/>
</svg>
