<svg width="30" height="47" viewBox="0 0 30 47" fill="none" xmlns="http://www.w3.org/2000/svg">
<path d="M10.0068 4.17811C9.48899 3.65792 8.76681 3.33666 7.96394 3.33666C7.16403 3.33666 6.44742 3.65792 5.93577 4.17811H5.92098C5.40489 4.6959 5.08363 5.41854 5.08363 6.21857C5.08363 7.02144 5.40489 7.73804 5.92109 8.25277L5.93577 8.26438C6.44742 8.78217 7.16403 9.10036 7.96394 9.10036C8.76681 9.10036 9.48911 8.78206 10.0068 8.26438L10.0145 8.25288C10.5332 7.73816 10.8514 7.02155 10.8514 6.21857C10.8514 5.41866 10.5332 4.6959 10.0145 4.17822H10.0069L10.0068 4.17811ZM7.96394 43.6262C8.72877 43.6268 9.46292 43.3255 10.0068 42.7878L10.0144 42.7725C10.5331 42.2619 10.8513 41.5391 10.8513 40.7449C10.8513 39.9419 10.5331 39.2222 10.0144 38.7019H10.0068C9.48899 38.1756 8.76681 37.8575 7.96394 37.8575C7.16403 37.8575 6.44742 38.1756 5.93577 38.7019H5.92098C5.40489 39.2222 5.08363 39.9419 5.08363 40.7449C5.08363 41.5392 5.40489 42.2619 5.92109 42.7725L5.93577 42.7878C6.20204 43.0541 6.51825 43.2653 6.86629 43.4091C7.21432 43.553 7.58733 43.6268 7.96394 43.6262ZM23.6654 34.8954C24.3795 34.7081 25.0261 34.2498 25.4205 33.557L25.4738 33.456C25.8245 32.7987 25.8885 32.0403 25.7011 31.3685C25.5124 30.6488 25.0485 30.0123 24.3572 29.6139L24.3171 29.5869C23.6436 29.218 22.8761 29.1377 22.1711 29.3281C21.4545 29.5068 20.811 29.9853 20.4186 30.6726C20.0212 31.3532 19.938 32.1383 20.1284 32.8611C20.3247 33.5717 20.784 34.2142 21.4708 34.6157H21.4754C22.1635 35.0111 22.9432 35.0827 23.6654 34.8954V34.8954ZM10.9215 20.5283C10.1643 19.773 9.12073 19.2999 7.96405 19.2999C6.81193 19.2999 5.77087 19.773 5.01523 20.5283C4.263 21.281 3.79915 22.3218 3.79915 23.4755C3.79915 24.6323 4.263 25.6763 5.01523 26.4377C5.77087 27.1867 6.81193 27.6567 7.96405 27.6567C9.12073 27.6567 10.1643 27.1867 10.9215 26.4377C11.6752 25.6763 12.1392 24.6323 12.1392 23.4755C12.1392 22.3219 11.6752 21.281 10.9215 20.5283ZM9.25889 15.6162C10.9347 15.8923 12.4426 16.6952 13.5932 17.855H13.6023C13.787 18.0417 13.9627 18.2372 14.1287 18.4407L17.006 16.7759C16.6192 15.6071 16.6015 14.385 16.912 13.2399C17.3227 11.705 18.3175 10.3311 19.8086 9.46885L19.8579 9.43926C21.3328 8.60339 23.0097 8.43087 24.5238 8.84146C25.3132 9.05232 26.0532 9.41701 26.7013 9.91462C27.3494 10.4122 27.8928 11.0329 28.3004 11.7411V11.7441C29.1572 13.2252 29.3313 14.926 28.9222 16.4547C28.5147 17.9885 27.5153 19.3715 26.0256 20.2278L25.6328 20.4603H25.5927C24.2147 21.117 22.6992 21.2185 21.3075 20.8525C20.1645 20.549 19.1159 19.9125 18.2952 19.0055L15.4225 20.6653C15.7623 21.5633 15.9362 22.5154 15.9356 23.4755C15.9356 24.4658 15.7524 25.4204 15.4224 26.3005L18.2952 27.9541C19.1159 27.0355 20.1645 26.4107 21.3075 26.1072C22.8403 25.6879 24.54 25.8666 26.0257 26.732L26.1205 26.7767V26.7827C27.5559 27.6507 28.5192 28.9951 28.9222 30.5117C29.1329 31.2983 29.1864 32.1187 29.0797 32.9261C28.973 33.7334 28.7082 34.5118 28.3004 35.2167L28.2487 35.3207L28.2426 35.3116C27.3818 36.7424 26.0257 37.7118 24.5283 38.1219C22.992 38.5263 21.2927 38.3538 19.8086 37.5005V37.4885C18.3175 36.6261 17.3227 35.2491 16.912 33.7179C16.6015 32.5759 16.6192 31.3532 17.006 30.1848L14.1287 28.5251C13.9637 28.7277 13.785 28.918 13.6023 29.1022L13.5932 29.1109C12.4427 30.265 10.9347 31.068 9.25877 31.3355V34.6604C10.453 34.9101 11.5234 35.508 12.3625 36.3465L12.3665 36.3556C13.4908 37.4737 14.1866 39.0319 14.1866 40.7449C14.1866 42.4523 13.4907 44.0008 12.3665 45.125L12.3625 45.1428C11.2306 46.267 9.67699 46.9628 7.96405 46.9628C6.26022 46.9628 4.70455 46.267 3.57587 45.1428H3.57177V45.125C2.44593 44.0008 1.74867 42.4523 1.74867 40.7448C1.74757 39.929 1.90812 39.1211 2.22103 38.3678C2.53395 37.6144 2.99304 36.9305 3.57177 36.3556V36.3465H3.57576C4.41333 35.508 5.48523 34.9101 6.67639 34.6604V31.3355C4.99896 31.068 3.49564 30.265 2.34647 29.1109L2.3343 29.1022C0.897893 27.6598 0 25.6763 0 23.4755C0 21.281 0.897893 19.2974 2.33418 17.855H2.34636C3.49553 16.6954 4.99884 15.8923 6.67628 15.6162V12.306C5.50281 12.0502 4.42697 11.4641 3.57564 10.6169H3.57166V10.6078C2.44582 9.47795 1.74856 7.93139 1.74856 6.21845C1.74856 4.51416 2.44582 2.95292 3.57166 1.82868L3.57564 1.8231C4.70455 0.695896 6.26022 0 7.96383 0C9.67688 0 11.2305 0.695896 12.3623 1.8231V1.82879H12.3663C13.4907 2.95292 14.1865 4.51416 14.1865 6.21845C14.1865 7.93139 13.4906 9.47795 12.3663 10.6078L12.3624 10.6169C11.5233 11.4498 10.4529 12.0471 9.25866 12.306V15.6162H9.25889ZM25.4206 13.4093L25.3967 13.3738C24.9993 12.7045 24.3659 12.2582 23.6655 12.0649C22.9433 11.8746 22.1636 11.9553 21.4709 12.3506H21.4755C20.7841 12.743 20.3218 13.3856 20.1284 14.1052C20.0305 14.4712 20.0058 14.8529 20.0556 15.2284C20.1054 15.6039 20.2288 15.966 20.4187 16.2938L20.4319 16.312C20.6209 16.6351 20.8718 16.9178 21.1703 17.1437C21.4688 17.3697 21.8089 17.5345 22.1713 17.6286C22.536 17.7305 22.9174 17.758 23.293 17.7095C23.6685 17.661 24.0305 17.5375 24.3574 17.3464L24.3944 17.3287C25.0664 16.9272 25.5139 16.2938 25.7013 15.598C25.8917 14.8812 25.816 14.0961 25.4206 13.4093Z" fill="#4164A9"/>
</svg>
