<svg width="60" height="60" viewBox="0 0 60 60" fill="none" xmlns="http://www.w3.org/2000/svg">
<rect width="60" height="60" rx="18" fill="#EFF4FD"/>
<path d="M29.6467 31.2701L35.1577 35.0711C35.2533 35.1369 35.371 35.1622 35.4852 35.1412C35.5993 35.1203 35.7005 35.0549 35.7664 34.9593C35.8323 34.8638 35.8575 34.746 35.8366 34.6319C35.8156 34.5177 35.7502 34.4166 35.6546 34.3507L30.1372 30.5454C30.0153 30.8126 29.8495 31.0576 29.6467 31.2701Z" fill="#4164A9"/>
<path d="M29.6467 31.2701L35.1577 35.0711C35.2533 35.1369 35.371 35.1622 35.4852 35.1412C35.5993 35.1203 35.7005 35.0549 35.7664 34.9593C35.8323 34.8638 35.8575 34.746 35.8366 34.6319C35.8156 34.5177 35.7502 34.4166 35.6546 34.3507L30.1372 30.5454C30.0153 30.8126 29.8495 31.0576 29.6467 31.2701Z" stroke="#4164A9"/>
<path d="M32.7428 23.9997C32.6277 23.9972 32.5164 24.0405 32.4332 24.12L29.2484 27.309C29.4888 27.4775 29.6996 27.685 29.8719 27.9229L33.0523 24.7382C33.1146 24.6781 33.1573 24.6006 33.1748 24.5158C33.1922 24.431 33.1837 24.3429 33.1502 24.2631C33.1167 24.1832 33.0599 24.1154 32.9872 24.0684C32.9145 24.0214 32.8293 23.9974 32.7428 23.9997Z" fill="#4164A9"/>
<path d="M32.7428 23.9997C32.6277 23.9972 32.5164 24.0405 32.4332 24.12L29.2484 27.309C29.4888 27.4775 29.6996 27.685 29.8719 27.9229L33.0523 24.7382C33.1146 24.6781 33.1573 24.6006 33.1748 24.5158C33.1922 24.431 33.1837 24.3429 33.1502 24.2631C33.1167 24.1832 33.0599 24.1154 32.9872 24.0684C32.9145 24.0214 32.8293 23.9974 32.7428 23.9997Z" stroke="#4164A9"/>
<path d="M26.5 29.4609C26.5 28.7705 27.0596 28.2109 27.75 28.2109C28.4403 28.2109 29 28.7705 29 29.4609C29 30.1513 28.4403 30.7109 27.75 30.7109C27.0596 30.7109 26.5 30.1513 26.5 29.4609Z" fill="#4164A9" stroke="#4164A9"/>
<circle cx="31" cy="30" r="17" stroke="#4164A9" stroke-width="2"/>
</svg>
