<svg width="180" height="140" viewBox="0 0 180 140" fill="none" xmlns="http://www.w3.org/2000/svg">
<rect width="180" height="140" rx="4" fill="white"/>
<mask id="mask0" mask-type="alpha" maskUnits="userSpaceOnUse" x="16" y="84" width="64" height="36">
<rect x="16" y="84" width="64" height="36" fill="#C4C4C4"/>
</mask>
<g mask="url(#mask0)">
<mask id="mask1" mask-type="alpha" maskUnits="userSpaceOnUse" x="8" y="89" width="80" height="26">
<rect x="8" y="89" width="80" height="25.9459" fill="#C4C4C4"/>
</mask>
<g mask="url(#mask1)">
<path d="M17.8801 100.584C17.8824 100.278 17.8487 99.9737 17.7797 99.6762C17.7254 99.4153 17.5798 99.1823 17.3691 99.0191L19.0214 98.7649V103.645C19.0199 103.656 19.0209 103.667 19.0243 103.677C19.0276 103.687 19.0333 103.696 19.0408 103.703C19.0483 103.711 19.0575 103.717 19.0676 103.72C19.0777 103.723 19.0884 103.724 19.0989 103.723C19.1294 103.723 19.2031 103.658 19.3162 103.526C19.4527 103.374 19.6006 103.232 19.7585 103.103C19.9611 102.938 20.181 102.796 20.4144 102.679C20.6816 102.546 20.9772 102.479 21.2761 102.484C21.695 102.47 22.1078 102.587 22.4568 102.819C22.7773 103.042 23.0411 103.338 23.227 103.681C23.4239 104.044 23.5653 104.435 23.6464 104.84C23.7311 105.249 23.7737 105.665 23.7735 106.083C23.7759 106.586 23.711 107.086 23.5803 107.571C23.4624 108.017 23.2624 108.436 22.9906 108.808C22.7234 109.166 22.3749 109.456 21.9738 109.653C21.5153 109.872 21.0113 109.979 20.5033 109.966C20.2764 109.966 20.0498 109.952 19.8246 109.924C19.6175 109.897 19.4141 109.868 19.212 109.837C19.0099 109.807 18.799 109.778 18.5765 109.751C18.3267 109.724 18.0755 109.711 17.8241 109.713C17.8411 109.056 17.8542 108.402 17.8635 107.749C17.8729 107.097 17.8771 106.443 17.8763 105.787L17.8801 100.584ZM22.4301 105.348C22.3699 105.02 22.2656 104.701 22.12 104.4C21.9892 104.131 21.7978 103.895 21.5608 103.711C21.3223 103.531 21.0299 103.436 20.7308 103.442C20.4818 103.431 20.2343 103.485 20.0125 103.599C19.7908 103.713 19.6025 103.883 19.4662 104.091C19.1714 104.525 19.0239 105.118 19.0239 105.871V107.076C19.0233 107.373 19.0385 107.67 19.0697 107.965C19.093 108.222 19.1642 108.471 19.2794 108.701C19.3871 108.909 19.5509 109.082 19.7522 109.201C20.0145 109.34 20.3097 109.405 20.6063 109.39C20.9528 109.405 21.2942 109.303 21.576 109.1C21.8303 108.907 22.0332 108.654 22.167 108.364C22.3103 108.054 22.4071 107.724 22.4542 107.386C22.5037 107.049 22.5292 106.709 22.5305 106.369C22.5294 106.026 22.4958 105.685 22.4301 105.348Z" fill="#231F20"/>
<path d="M25.6822 101.8C25.6822 101.446 25.6695 101.084 25.6428 100.716C25.6266 100.375 25.5229 100.045 25.3416 99.7561H27.426C27.2447 100.044 27.1409 100.373 27.1248 100.713C27.0985 101.082 27.0854 101.443 27.0854 101.796V104.225C27.2967 104.182 27.4954 104.092 27.6662 103.96C27.8858 103.8 28.0927 103.623 28.2851 103.43C28.4974 103.223 28.7058 102.998 28.913 102.754C29.1202 102.51 29.321 102.274 29.5167 102.045C29.9404 101.547 30.2759 101.137 30.5233 100.815C30.7707 100.493 30.8948 100.239 30.8957 100.052V99.8832C30.8966 99.8403 30.8915 99.7975 30.8804 99.7561H32.7996C32.4386 100.077 32.0997 100.374 31.7828 100.646C31.4361 100.948 31.108 101.27 30.8004 101.612L28.3995 104.227L30.9694 107.93C31.1761 108.232 31.4032 108.537 31.6506 108.843C31.8981 109.15 32.1408 109.439 32.3789 109.71H30.7546C30.6302 109.717 30.5079 109.675 30.414 109.593C30.3179 109.502 30.2326 109.399 30.1598 109.288L27.3726 105.041C27.3371 104.984 27.298 104.929 27.2557 104.877C27.2086 104.821 27.1718 104.792 27.14 104.792C27.1333 104.791 27.1265 104.792 27.1201 104.794C27.1136 104.796 27.1077 104.799 27.1025 104.803C27.0974 104.808 27.0933 104.813 27.0903 104.819C27.0874 104.825 27.0857 104.832 27.0854 104.839C27.0803 104.869 27.0777 104.9 27.0777 104.931V107.664C27.0777 108.019 27.0904 108.38 27.1171 108.751C27.1335 109.091 27.2372 109.422 27.4184 109.71H25.334C25.5152 109.422 25.619 109.091 25.6352 108.751C25.6619 108.382 25.6746 108.02 25.6746 107.667L25.6822 101.8Z" fill="#231F20"/>
<path d="M37.087 109.812C37.027 109.581 36.9846 109.345 36.9599 109.108C36.9434 108.931 36.9065 108.843 36.8455 108.843C36.8232 108.841 36.8007 108.846 36.7819 108.859L36.7514 108.891C36.6472 109.037 36.5468 109.174 36.4477 109.304C36.3481 109.435 36.2299 109.551 36.0969 109.648C35.9507 109.753 35.7879 109.832 35.6152 109.882C35.3917 109.943 35.1606 109.972 34.9289 109.967C34.4331 109.984 33.9466 109.829 33.5512 109.53C33.1775 109.239 32.9907 108.807 32.9907 108.233C32.9826 107.915 33.0835 107.603 33.2767 107.35C33.4781 107.096 33.7198 106.877 33.9922 106.701C34.2826 106.511 34.5887 106.346 34.9073 106.209C35.2339 106.068 35.5262 105.936 35.7855 105.81C36.0029 105.706 36.1846 105.617 36.3282 105.544C36.4574 105.482 36.5735 105.396 36.6701 105.29C36.7576 105.186 36.8163 105.061 36.8404 104.928C36.8763 104.731 36.8921 104.531 36.8874 104.332C36.8988 103.986 36.8073 103.644 36.6244 103.35C36.449 103.082 36.135 102.949 35.68 102.949C35.3076 102.949 35.0509 103.028 34.906 103.183C34.7652 103.333 34.6524 103.508 34.573 103.699C34.5008 103.877 34.4159 104.049 34.3188 104.215C34.2248 104.37 34.0557 104.449 33.8105 104.449C33.659 104.457 33.5098 104.409 33.391 104.315C33.3361 104.262 33.2937 104.198 33.2671 104.126C33.2404 104.055 33.2302 103.978 33.2373 103.902C33.2347 103.779 33.2567 103.658 33.3019 103.544C33.347 103.43 33.4145 103.326 33.5003 103.239C33.6896 103.046 33.9163 102.895 34.1663 102.794C34.4511 102.675 34.7502 102.594 35.056 102.552C35.3661 102.506 35.6792 102.483 35.9927 102.482C36.2568 102.481 36.5206 102.499 36.7819 102.537C37.0077 102.566 37.2271 102.632 37.4314 102.733C37.6104 102.821 37.7623 102.956 37.8712 103.123C37.9851 103.312 38.0417 103.529 38.0338 103.75V107.193C38.0338 107.662 38.0466 108.119 38.072 108.561C38.0875 108.976 38.225 109.376 38.4672 109.713L37.087 109.812ZM34.6289 108.812C34.8757 109.001 35.1812 109.097 35.4919 109.084C35.7038 109.088 35.9132 109.037 36.0994 108.936C36.2733 108.84 36.4245 108.707 36.543 108.547C36.6641 108.381 36.7537 108.193 36.8074 107.994C36.8635 107.787 36.8921 107.574 36.8925 107.359V105.787L36.0524 106.208C35.7626 106.352 35.5085 106.485 35.2898 106.604C35.0935 106.709 34.9086 106.834 34.7383 106.978C34.5964 107.097 34.4823 107.246 34.404 107.414C34.3272 107.593 34.2899 107.787 34.2947 107.982C34.2947 108.354 34.4061 108.63 34.6289 108.812Z" fill="#231F20"/>
<path d="M41.0017 104.69C41.1693 104.906 41.3706 105.094 41.5978 105.247C41.8456 105.415 42.1041 105.566 42.3718 105.7C42.6446 105.838 42.9042 106 43.1471 106.186C43.379 106.363 43.58 106.578 43.7419 106.821C43.9112 107.093 43.9953 107.409 43.9834 107.729C43.9915 108.071 43.9081 108.409 43.7419 108.709C43.5824 108.984 43.3657 109.221 43.1064 109.405C42.836 109.596 42.5352 109.738 42.2167 109.827C41.8967 109.92 41.5651 109.968 41.2317 109.968C40.9373 109.969 40.6435 109.941 40.3548 109.883C40.0661 109.822 39.7829 109.737 39.5083 109.629C39.4377 109.604 39.3722 109.567 39.3151 109.518C39.2882 109.486 39.2681 109.449 39.2561 109.409C39.2441 109.368 39.2404 109.326 39.2452 109.284C39.245 109.096 39.2556 108.907 39.277 108.72C39.2961 108.532 39.3126 108.339 39.324 108.141C39.4477 108.337 39.5664 108.514 39.6799 108.671C39.7885 108.821 39.9192 108.954 40.0675 109.066C40.2154 109.178 40.3813 109.264 40.5581 109.32C40.7724 109.382 40.9948 109.411 41.2178 109.406C41.6838 109.406 42.0439 109.297 42.2981 109.079C42.5523 108.859 42.6794 108.524 42.6794 108.077C42.6893 107.797 42.611 107.521 42.4557 107.288C42.3009 107.069 42.1096 106.879 41.8901 106.725C41.6534 106.556 41.4049 106.404 41.1466 106.271C40.8839 106.134 40.6353 105.971 40.4043 105.786C40.1766 105.604 39.9848 105.382 39.8388 105.13C39.6793 104.835 39.6016 104.503 39.6138 104.168C39.6138 103.574 39.8227 103.147 40.2404 102.885C40.6581 102.623 41.2334 102.493 41.9664 102.495C42.2025 102.495 42.4384 102.513 42.6717 102.55C42.9043 102.585 43.1382 102.63 43.3758 102.677C43.413 102.694 43.4517 102.707 43.4915 102.716C43.5157 102.72 43.5379 102.732 43.5536 102.751C43.5693 102.769 43.5775 102.793 43.5767 102.818C43.5767 102.964 43.5767 103.137 43.569 103.335C43.5614 103.533 43.5563 103.716 43.5462 103.883C43.3911 103.695 43.2538 103.54 43.1356 103.42C43.0285 103.309 42.9061 103.214 42.7721 103.137C42.6527 103.071 42.5242 103.024 42.3909 102.996C42.2373 102.968 42.0816 102.955 41.9257 102.956C41.6407 102.952 41.3607 103.031 41.1199 103.184C41.0009 103.262 40.9051 103.371 40.8423 103.499C40.7795 103.627 40.752 103.77 40.7628 103.912C40.7534 104.191 40.8375 104.465 41.0017 104.69Z" fill="#231F20"/>
<path d="M50.709 108.017C50.709 108.31 50.7204 108.61 50.7407 108.917C50.7528 109.193 50.8266 109.463 50.9568 109.706H49.5651V105.414C49.5653 105.163 49.5522 104.912 49.5257 104.662C49.5051 104.428 49.4418 104.2 49.3389 103.988C49.2422 103.793 49.0969 103.626 48.9169 103.503C48.6955 103.368 48.4387 103.302 48.1797 103.315C47.9167 103.302 47.6559 103.368 47.4299 103.503C47.2415 103.629 47.0884 103.802 46.985 104.004C46.8722 104.226 46.799 104.466 46.769 104.713C46.7324 104.972 46.7141 105.234 46.7143 105.496V108.017C46.7143 108.31 46.7249 108.61 46.7461 108.918C46.7582 109.2 46.846 109.473 47.0003 109.709H45.2896C45.4397 109.472 45.5252 109.2 45.5374 108.92C45.5578 108.614 45.5679 108.314 45.5679 108.021V100.582C45.5689 100.28 45.5537 99.977 45.5222 99.676C45.5127 99.5476 45.476 99.4226 45.4144 99.3095C45.3528 99.1964 45.2678 99.0978 45.165 99.0202L46.7118 98.766V103.188C46.7118 103.249 46.7118 103.307 46.7181 103.359C46.7245 103.411 46.7372 103.437 46.7639 103.437C46.7906 103.437 46.8541 103.387 46.9431 103.288C47.0583 103.166 47.1861 103.056 47.3244 102.96C47.5162 102.827 47.7231 102.717 47.9408 102.632C48.2176 102.528 48.5119 102.478 48.8076 102.485C49.4007 102.485 49.8667 102.641 50.2057 102.954C50.5446 103.266 50.714 103.788 50.714 104.517L50.709 108.017Z" fill="#231F20"/>
<path d="M49.2285 89L62.3766 90.7145L59.2589 101.628L49.2285 89Z" fill="#D83868"/>
<path d="M62.8437 90.7666L72.6136 103.758L61.3364 109.161L59.9383 103.442C59.9383 103.442 59.5748 101.363 60.1455 99.7561L62.8437 90.7666Z" fill="#D83868"/>
<path d="M72.9773 103.655L69.3398 98.5614L75.4722 97.5231L72.9773 103.655Z" fill="#B11116"/>
<path d="M75.94 97.5231L78.2265 99.9646H74.9004L75.94 97.5231Z" fill="#B11116"/>
<path d="M63.3125 108.799L72.6146 104.174L72.3032 105.266L63.3125 108.799Z" fill="#D93B2B"/>
<path d="M59.2584 102.771L55.3604 115.867L61.2843 111.19L59.2584 102.771Z" fill="#9E0B0F"/>
<path d="M54.321 96.0156L50.5272 91.1821L49.0732 91.2342L54.321 96.0156Z" fill="#B11116"/>
<path d="M59.8506 102.724C59.8836 103.162 59.9332 103.447 59.9332 103.447L61.3312 109.166L72.6084 103.762L72.5055 103.625L59.8506 102.724Z" fill="#C4161C"/>
</g>
</g>
<mask id="mask2" mask-type="alpha" maskUnits="userSpaceOnUse" x="101" y="84" width="64" height="36">
<rect x="101" y="84" width="64" height="36" fill="#C4C4C4"/>
</mask>
<g mask="url(#mask2)">
<path d="M141.593 96.877H131.414C131.212 96.877 131.111 97.0281 131.111 97.1793V97.9856C131.111 98.1872 131.263 98.288 131.414 98.288H139.023V102.521C138.821 102.219 138.569 101.916 138.317 101.614C137.41 100.707 136.453 100.253 135.445 100.253C134.639 100.253 133.984 100.656 133.429 101.362C132.976 101.967 132.724 102.672 132.724 103.327C132.724 103.982 132.825 104.839 133.329 105.645C133.933 106.603 134.941 106.905 135.848 106.905C137.007 106.905 137.965 106.099 137.965 105.041C137.965 104.436 137.662 103.932 137.108 103.579L136.554 103.277V103.932C136.554 103.982 136.554 104.033 136.554 104.083C136.554 104.134 136.554 104.184 136.554 104.184C136.503 104.436 136.1 104.789 135.647 104.789C135.244 104.789 134.891 104.637 134.639 104.385C134.488 104.234 134.387 103.932 134.437 103.73C134.437 103.428 134.538 103.176 134.74 102.924C134.992 102.622 135.244 102.471 135.647 102.471C136.655 102.471 137.511 102.924 138.217 103.932C138.771 104.789 139.073 105.595 139.073 106.502V108.618L140.585 109.526C140.636 109.576 140.686 109.576 140.736 109.576C140.938 109.576 141.039 109.425 141.039 109.274V98.3383H141.643C141.845 98.3383 141.946 98.1872 141.946 98.036V97.2297C141.946 97.0281 141.795 96.877 141.593 96.877Z" fill="#ED1C24"/>
<path d="M161.951 96.877H152.881H151.671H149.051C148.849 96.877 148.749 97.0281 148.749 97.1793V98.5903C147.489 97.2801 146.38 96.625 145.372 96.625C144.415 96.625 143.608 96.8266 142.903 97.3809C142.248 97.8848 141.845 98.5399 141.845 99.2958C141.845 101.563 144.364 101.513 145.019 101.211C145.12 101.16 145.271 101.06 145.423 101.06C145.927 101.06 146.128 101.463 146.128 101.815C146.128 102.319 145.372 102.773 144.465 102.773C143.961 102.773 143.659 102.622 143.457 102.319L143.054 101.715L142.802 102.42C142.752 102.571 142.651 102.773 142.651 103.025C142.651 103.529 142.903 104.033 143.407 104.486C143.86 104.889 144.415 105.091 145.019 105.091C145.977 105.091 146.783 104.738 147.287 104.033C147.741 103.478 147.942 102.823 147.942 102.067C147.942 101.664 147.791 101.211 147.438 100.707C147.035 100.102 146.531 99.7997 145.977 99.7997C145.775 99.7997 145.523 99.8501 145.271 99.9509C145.171 100.001 144.969 100.052 144.919 100.052C144.818 100.052 144.667 100.001 144.566 99.8501C144.465 99.7494 144.364 99.5982 144.364 99.3462C144.364 98.7919 144.868 98.2376 145.775 98.2376H145.826C146.43 98.2376 147.035 98.5399 147.59 99.0942C148.043 99.5478 148.396 100.001 148.698 100.505V108.518L150.21 109.425C150.26 109.475 150.311 109.475 150.361 109.475C150.563 109.475 150.663 109.324 150.663 109.173V98.3384H151.621H152.83H152.982V105.343L154.796 106.099C154.846 106.099 154.896 106.099 154.896 106.099C155.048 106.099 155.199 105.998 155.199 105.796V105.746C155.501 103.68 156.408 102.269 157.92 101.412C157.92 101.513 157.92 101.664 157.92 101.815C157.92 102.118 157.92 102.874 157.97 103.277C157.97 103.529 157.97 103.68 158.021 103.831C158.021 104.637 158.122 105.847 158.374 106.754C158.877 108.467 159.734 108.87 160.339 108.87H160.389C160.742 108.87 161.044 108.77 161.246 108.568C161.347 108.467 161.498 108.266 161.498 107.913C161.498 107.611 161.448 107.359 161.347 107.157L161.196 106.905L160.893 106.956C160.591 107.056 160.44 107.056 160.44 107.006H160.389C160.288 107.006 160.288 107.006 160.238 106.956C160.137 106.905 159.936 106.754 159.785 106.2C159.684 105.796 159.633 105.242 159.633 104.94C159.633 102.672 160.087 100.959 160.843 100.606H160.893C160.994 100.556 161.095 100.455 161.095 100.304C161.095 100.253 161.095 100.203 161.044 100.152V100.102C160.692 99.3966 159.936 98.8927 158.928 98.6407H158.827H158.726C157.92 98.7919 156.963 99.3462 155.753 100.354C155.451 100.606 155.148 100.858 154.896 101.11V98.3384H161.951C162.153 98.3384 162.254 98.1872 162.254 98.036V97.2297C162.304 97.0281 162.153 96.877 161.951 96.877Z" fill="#ED1C24"/>
<path d="M127.785 100.606C127.785 100.959 127.785 101.261 127.735 101.563C127.634 102.974 127.281 104.285 126.727 105.494C126.526 105.998 126.274 106.452 125.971 106.905C123.855 110.231 120.126 112.448 115.893 112.448C114.079 112.448 112.365 112.045 110.853 111.34C106.822 109.475 104 105.343 104 100.606C104 95.9195 106.721 91.8881 110.601 89.9731C110.299 90.3763 109.997 90.7794 109.745 91.233C109.745 91.2834 109.694 91.2834 109.694 91.3338C109.543 91.4849 109.392 91.5857 109.241 91.7369C109.039 91.8881 108.888 92.0896 108.687 92.2408C108.636 92.2912 108.586 92.3416 108.586 92.3416C108.535 92.392 108.485 92.4424 108.485 92.4424C108.435 92.4928 108.384 92.5936 108.283 92.644C108.183 92.7951 108.031 92.9463 107.931 93.0975C107.427 93.7526 107.024 94.4581 106.721 95.214C106.671 95.2644 106.671 95.3652 106.62 95.4156C106.57 95.5164 106.57 95.6171 106.52 95.6675C106.52 95.7179 106.469 95.7683 106.469 95.8187C106.419 95.9699 106.368 96.0707 106.318 96.2219C106.268 96.3226 106.268 96.4234 106.217 96.4738C106.217 96.5242 106.167 96.5746 106.167 96.625C106.167 96.7258 106.116 96.8266 106.116 96.9274C106.066 97.2297 106.016 97.5321 105.965 97.8344C105.965 97.9352 105.965 97.9856 105.915 98.0864C105.915 98.1368 105.915 98.1872 105.915 98.288C105.915 98.3887 105.915 98.4895 105.915 98.5399C105.915 98.6407 105.915 98.7415 105.915 98.8423C105.915 98.9935 105.915 99.1446 105.915 99.2958C105.915 102.521 107.376 105.444 109.745 107.308C111.559 108.77 113.827 109.677 116.296 109.677C118.564 109.677 120.63 108.971 122.343 107.711C123.603 106.804 124.611 105.645 125.367 104.285C125.467 104.083 125.568 103.932 125.669 103.73C126.274 102.471 126.626 101.11 126.626 99.6486C126.626 99.5478 126.626 99.447 126.626 99.2958C126.626 98.9431 126.626 98.6407 126.576 98.288L126.626 98.3383C126.778 98.4895 126.929 98.5903 127.08 98.7415C127.231 98.4895 127.382 98.288 127.533 98.036C127.634 98.4895 127.685 98.9431 127.735 99.447C127.785 99.9005 127.785 100.253 127.785 100.606Z" fill="#ED1C24"/>
<path d="M117.303 91.0818L115.086 87C111.407 88.663 108.888 92.3416 108.888 96.625C108.888 98.7919 109.543 100.808 110.651 102.471C110.551 101.916 110.551 101.362 110.551 100.757C110.601 96.3731 113.373 92.644 117.303 91.0818Z" fill="#F7941D"/>
<path d="M119.067 93.0976C119.974 92.8456 120.982 92.7448 121.94 92.7448C122.544 92.7448 123.2 92.7952 123.754 92.896L123.703 91.0819L123.603 87.4536C123.2 87.4032 122.746 87.3528 122.292 87.3528C120.277 87.3528 118.412 88.0079 116.9 89.0661L118.11 91.2834C115.943 92.0393 114.179 93.5511 113.071 95.5164C112.516 96.4739 112.113 97.5825 111.962 98.7416C112.264 98.1368 112.617 97.5825 113.02 97.0786C114.482 95.1637 116.598 93.7023 119.067 93.0976Z" fill="#ED1C24"/>
<path d="M124.359 91.0315L124.459 93.6015C123.603 93.3496 122.746 93.1984 121.788 93.1984C120.025 93.1984 118.362 93.7023 116.9 94.559C115.086 95.6676 113.675 97.4314 112.97 99.4975C113.675 98.54 114.532 97.6833 115.54 97.0282C117.001 96.0708 118.765 95.5165 120.629 95.5165C122.04 95.5165 123.351 95.8188 124.56 96.3731C125.467 96.7763 126.273 97.3306 126.979 98.0361L128.39 95.9196L130.204 93.148C128.591 91.8378 126.576 91.0315 124.359 91.0315Z" fill="#F7941D"/>
<path d="M126.626 99.3966C126.626 99.4974 126.626 99.5982 126.626 99.7494C126.626 101.866 125.77 103.63 125.669 103.831C125.568 104.033 125.467 104.184 125.367 104.386C124.611 105.746 123.603 106.905 122.343 107.812C120.63 109.022 118.564 109.778 116.296 109.778C113.827 109.778 111.509 108.921 109.745 107.409C107.427 105.494 105.915 102.622 105.915 99.3966C105.915 99.2455 105.915 99.0943 105.915 98.9431C105.915 98.8423 105.915 98.7415 105.915 98.6407C105.915 98.54 105.915 98.4392 105.915 98.3888C105.915 98.3384 105.915 98.288 105.915 98.1872C105.915 98.0864 105.915 98.036 105.965 97.9352C106.016 97.6329 106.066 97.3305 106.117 97.0282C106.117 96.9274 106.167 96.8266 106.167 96.7258C106.167 96.6754 106.217 96.625 106.217 96.5746C106.268 96.4739 106.268 96.3731 106.318 96.3227C106.369 96.1715 106.419 96.0203 106.469 95.9195C106.469 95.8691 106.52 95.8187 106.52 95.7684C106.57 95.6676 106.57 95.5668 106.621 95.5164C106.671 95.466 106.671 95.3652 106.721 95.3148C107.024 94.5589 107.477 93.8534 107.931 93.1983C108.032 93.0471 108.183 92.896 108.284 92.7448C108.334 92.6944 108.384 92.5936 108.485 92.5432C108.535 92.4928 108.535 92.4424 108.586 92.4424C108.636 92.392 108.636 92.3416 108.687 92.3416C108.838 92.1401 109.039 91.9889 109.241 91.8377C109.392 91.6865 109.543 91.5857 109.694 91.4346C109.694 91.485 109.644 91.485 109.644 91.5354C109.644 91.5857 109.594 91.6361 109.594 91.6361C108.989 92.8456 108.586 94.307 108.435 95.8187C108.384 96.2219 108.384 96.625 108.384 97.0786C108.384 102.521 111.559 106.905 115.49 106.905H115.54C115.641 106.905 115.792 106.905 115.893 106.905C116.447 106.905 117.001 106.804 117.556 106.704C120.227 105.998 122.192 103.529 122.192 100.656C122.192 100.606 122.192 100.556 122.192 100.505C122.142 98.7919 121.436 97.2297 120.277 96.1715C121.083 96.1715 121.89 96.3227 122.645 96.5242C124.107 96.877 125.417 97.5825 126.576 98.4896L126.626 98.54C126.576 98.7415 126.626 99.0943 126.626 99.3966Z" fill="#F7941D"/>
<path d="M126.626 99.3967C126.626 99.4975 126.626 99.6486 126.626 99.7494C126.626 101.967 125.618 103.882 125.618 103.882C125.517 104.083 125.416 104.234 125.316 104.436C124.56 105.797 123.502 106.956 122.242 107.863C120.478 109.173 118.361 109.828 116.144 109.828C113.725 109.828 111.407 108.971 109.543 107.46C107.124 105.494 105.713 102.521 105.713 99.3967C105.713 96.2723 107.124 93.2991 109.543 91.3338L109.644 91.233C109.644 91.2834 109.593 91.2834 109.593 91.3338C109.593 91.3842 109.543 91.3842 109.543 91.4346C107.174 93.3999 105.814 96.2723 105.814 99.3967C105.814 102.521 107.174 105.393 109.593 107.409C111.407 108.921 113.776 109.727 116.144 109.727C118.311 109.727 120.428 109.072 122.191 107.762C123.451 106.855 124.459 105.696 125.215 104.335C125.316 104.134 125.416 103.982 125.467 103.781C125.467 103.781 126.475 101.916 126.475 99.699C126.475 99.5982 126.475 99.4471 126.475 99.3463C126.475 98.9935 126.475 98.6912 126.424 98.3384V98.288L126.475 98.3384L126.525 98.3888C126.626 98.792 126.626 99.0943 126.626 99.3967Z" fill="#F7941D"/>
</g>
<line x1="10.5" y1="69.5" x2="169.5" y2="69.5" stroke="#D3DBEF" stroke-linecap="round"/>
<line x1="90.5" y1="20.5" x2="90.5" y2="119.5" stroke="#D3DBEF" stroke-linecap="round"/>
<mask id="mask3" mask-type="alpha" maskUnits="userSpaceOnUse" x="101" y="20" width="64" height="36">
<rect x="101" y="20" width="64" height="36" fill="#C4C4C4"/>
</mask>
<g mask="url(#mask3)">
<path d="M150.317 53.5635V53.6457H150.394C150.408 53.646 150.422 53.6423 150.435 53.6352C150.44 53.6317 150.444 53.627 150.447 53.6215C150.449 53.616 150.451 53.6099 150.45 53.6038C150.451 53.5978 150.449 53.5918 150.447 53.5865C150.444 53.5811 150.44 53.5765 150.435 53.5731C150.423 53.5657 150.408 53.562 150.394 53.5627H150.317V53.5635ZM150.395 53.5053C150.428 53.5033 150.46 53.5127 150.487 53.532C150.498 53.5408 150.506 53.5519 150.512 53.5646C150.517 53.5772 150.52 53.591 150.519 53.6048C150.52 53.6167 150.518 53.6286 150.513 53.6396C150.509 53.6506 150.502 53.6606 150.493 53.6688C150.473 53.6867 150.447 53.6974 150.42 53.6994L150.522 53.8166H150.443L150.349 53.7002H150.318V53.8166H150.252V53.5055H150.396L150.395 53.5053ZM150.374 53.924C150.409 53.9243 150.443 53.9173 150.475 53.9034C150.506 53.8902 150.534 53.8713 150.557 53.8477C150.581 53.8241 150.6 53.7962 150.613 53.7654C150.64 53.7002 150.64 53.627 150.613 53.5618C150.6 53.5312 150.581 53.5033 150.557 53.4796C150.534 53.456 150.506 53.4371 150.475 53.4239C150.443 53.4107 150.409 53.4042 150.374 53.4045C150.339 53.4042 150.304 53.4108 150.271 53.4239C150.24 53.4368 150.211 53.4557 150.187 53.4796C150.151 53.5169 150.126 53.5641 150.116 53.6153C150.107 53.6665 150.112 53.7194 150.132 53.7675C150.145 53.7983 150.164 53.8263 150.187 53.8497C150.211 53.8735 150.24 53.8925 150.271 53.9055C150.304 53.9193 150.339 53.9263 150.374 53.926V53.924ZM150.374 53.3297C150.465 53.3296 150.551 53.365 150.616 53.4284C150.647 53.4588 150.672 53.4951 150.689 53.5351C150.706 53.5762 150.715 53.6205 150.715 53.6652C150.715 53.7099 150.706 53.7541 150.689 53.7952C150.671 53.835 150.646 53.8712 150.616 53.902C150.584 53.9322 150.548 53.9566 150.507 53.9739C150.465 53.9918 150.42 54.0009 150.374 54.0007C150.328 54.001 150.282 53.9919 150.239 53.9739C150.199 53.957 150.162 53.9326 150.13 53.902C150.099 53.8701 150.075 53.8327 150.058 53.7917C150.041 53.7506 150.032 53.7064 150.032 53.6617C150.032 53.617 150.041 53.5727 150.058 53.5316C150.075 53.4916 150.1 53.4553 150.131 53.4249C150.162 53.3937 150.199 53.3692 150.24 53.3529C150.283 53.3349 150.329 53.3258 150.375 53.3262L150.374 53.3297ZM118.887 52.1281C118.887 51.5349 119.276 51.0475 119.911 51.0475C120.518 51.0475 120.928 51.5139 120.928 52.1281C120.928 52.7424 120.518 53.2088 119.911 53.2088C119.276 53.2088 118.887 52.7214 118.887 52.1281ZM121.62 52.1281V50.4399H120.886V50.8511C120.653 50.5472 120.3 50.3566 119.82 50.3566C118.874 50.3566 118.131 51.0985 118.131 52.129C118.131 53.1594 118.873 53.9013 119.82 53.9013C120.3 53.9013 120.653 53.7105 120.886 53.4068V53.8166H121.619V52.1281H121.62ZM146.418 52.1281C146.418 51.5349 146.806 51.0475 147.442 51.0475C148.049 51.0475 148.458 51.5139 148.458 52.1281C148.458 52.7424 148.049 53.2088 147.442 53.2088C146.807 53.2088 146.418 52.7214 146.418 52.1281ZM149.151 52.1281V49.0847H148.416V50.8511C148.184 50.5472 147.831 50.3566 147.35 50.3566C146.405 50.3566 145.662 51.0985 145.662 52.129C145.662 53.1594 146.404 53.9013 147.35 53.9013C147.831 53.9013 148.184 53.7105 148.416 53.4068V53.8166H149.151V52.1281ZM130.728 51.0128C131.201 51.0128 131.505 51.3093 131.583 51.8314H129.831C129.91 51.344 130.206 51.0128 130.729 51.0128H130.728ZM130.743 50.3547C129.754 50.3547 129.062 51.0745 129.062 52.1271C129.062 53.2003 129.782 53.8995 130.792 53.8995C131.301 53.8995 131.766 53.7726 132.176 53.4265L131.816 52.8826C131.533 53.1088 131.173 53.2357 130.834 53.2357C130.361 53.2357 129.931 53.0167 129.825 52.409H132.331C132.338 52.3177 132.346 52.2256 132.346 52.1269C132.338 51.0747 131.688 50.3545 130.743 50.3545L130.743 50.3547ZM139.604 52.1269C139.604 51.5336 139.992 51.0463 140.628 51.0463C141.235 51.0463 141.644 51.5127 141.644 52.1269C141.644 52.7411 141.235 53.2075 140.628 53.2075C139.992 53.2075 139.604 52.7202 139.604 52.1269H139.604ZM142.336 52.1269V50.4399H141.603V50.8511C141.369 50.5472 141.017 50.3566 140.536 50.3566C139.591 50.3566 138.848 51.0985 138.848 52.129C138.848 53.1594 139.59 53.9013 140.536 53.9013C141.017 53.9013 141.369 53.7105 141.603 53.4068V53.8166H142.336V52.1281L142.336 52.1269ZM135.459 52.1269C135.459 53.1508 136.172 53.8993 137.26 53.8993C137.768 53.8993 138.107 53.7862 138.473 53.4969L138.12 52.9036C137.845 53.1016 137.556 53.2075 137.236 53.2075C136.65 53.2003 136.22 52.7767 136.22 52.1269C136.22 51.4771 136.65 51.0537 137.236 51.0463C137.555 51.0463 137.844 51.1522 138.12 51.3502L138.473 50.757C138.106 50.4676 137.767 50.3545 137.26 50.3545C136.172 50.3545 135.459 51.1028 135.459 52.1269ZM144.92 50.3545C144.497 50.3545 144.221 50.5526 144.031 50.8491V50.4399H143.303V53.8148H144.038V51.9229C144.038 51.3644 144.278 51.0541 144.758 51.0541C144.915 51.0518 145.071 51.0807 145.217 51.139L145.443 50.4473C145.281 50.3833 145.069 50.3551 144.92 50.3551L144.92 50.3545ZM125.248 50.7082C124.895 50.4754 124.408 50.3551 123.872 50.3551C123.017 50.3551 122.466 50.765 122.466 51.4356C122.466 51.9858 122.876 52.3253 123.631 52.4312L123.977 52.4806C124.38 52.5371 124.57 52.643 124.57 52.8337C124.57 53.0946 124.303 53.2435 123.801 53.2435C123.292 53.2435 122.925 53.0811 122.678 52.8904L122.333 53.4627C122.736 53.7592 123.244 53.9007 123.794 53.9007C124.769 53.9007 125.334 53.4417 125.334 52.7991C125.334 52.2059 124.889 51.8956 124.155 51.7897L123.809 51.7395C123.491 51.6984 123.237 51.6344 123.237 51.4082C123.237 51.1614 123.477 51.013 123.879 51.013C124.31 51.013 124.727 51.1754 124.932 51.3023L125.249 50.709L125.248 50.7082ZM134.718 50.3558C134.294 50.3558 134.019 50.5538 133.829 50.8503V50.4399H133.102V53.8148H133.835V51.9229C133.835 51.3644 134.075 51.0541 134.555 51.0541C134.712 51.0518 134.868 51.0807 135.014 51.139L135.24 50.4473C135.078 50.3833 134.866 50.3551 134.717 50.3551L134.718 50.3558ZM128.455 50.4399H127.255V49.416H126.513V50.4399H125.828V51.1106H126.513V52.6502C126.513 53.4333 126.817 53.8997 127.685 53.8997C128.004 53.8997 128.37 53.801 128.603 53.6387L128.391 53.0103C128.172 53.1372 127.932 53.2011 127.741 53.2011C127.375 53.2011 127.255 52.9749 127.255 52.6363V51.1113H128.455V50.4399ZM117.482 53.8156V51.6975C117.482 50.8999 116.974 50.3632 116.155 50.356C115.724 50.3488 115.279 50.4828 114.968 50.9564C114.736 50.5822 114.369 50.356 113.853 50.356C113.492 50.356 113.14 50.4619 112.864 50.8571V50.4399H112.13V53.8148H112.87V51.9435C112.87 51.3576 113.195 51.0463 113.697 51.0463C114.184 51.0463 114.431 51.364 114.431 51.9361V53.8144H115.173V51.9431C115.173 51.3572 115.511 51.0459 115.999 51.0459C116.5 51.0459 116.739 51.3636 116.739 51.9357V53.8139L117.482 53.8156Z" fill="#323B6E"/>
<path d="M150.735 42.5894V42.0958H150.607L150.458 42.4345L150.31 42.0958H150.181V42.5894H150.273V42.2176L150.412 42.5384H150.506L150.645 42.2167V42.5894H150.736H150.735ZM149.92 42.5894V42.1803H150.084V42.0971H149.664V42.1803H149.829V42.5894H149.919H149.92Z" fill="#F79410"/>
<path d="M136.128 44.706H125.006V24.7181H136.128L136.128 44.706Z" fill="#FF5F00"/>
<path d="M125.711 34.7118C125.711 30.6573 127.609 27.0455 130.565 24.7179C128.328 22.9534 125.56 21.9958 122.71 22C115.69 22 110 27.6912 110 34.7118C110 41.7325 115.69 47.4237 122.71 47.4237C125.56 47.4279 128.328 46.4703 130.565 44.7058C127.609 42.3786 125.711 38.7666 125.711 34.7118Z" fill="#EB001B"/>
<path d="M151.132 34.7124C151.132 41.7331 145.442 47.4243 138.422 47.4243C135.572 47.4285 132.804 46.4708 130.565 44.7064C133.522 42.3788 135.421 38.7672 135.421 34.7124C135.421 30.6577 133.522 27.0461 130.565 24.7185C132.804 22.9541 135.572 21.9965 138.422 22.0006C145.441 22.0006 151.132 27.6918 151.132 34.7124" fill="#F79E1B"/>
</g>
<mask id="mask4" mask-type="alpha" maskUnits="userSpaceOnUse" x="16" y="20" width="64" height="36">
<rect x="16" y="20" width="64" height="36" fill="#C4C4C4"/>
</mask>
<g mask="url(#mask4)">
<path d="M44.3888 46.6833H39.61L42.5967 28.328H47.376L44.3888 46.6833ZM35.5897 28.328L31.0338 40.9529L30.4947 38.2343L30.4952 38.2353L28.8871 29.9807C28.8871 29.9807 28.6927 28.328 26.6202 28.328H19.0884L19 28.6388C19 28.6388 21.3033 29.118 23.9988 30.7368L28.1507 46.6838H33.1298L40.7329 28.328H35.5897ZM73.1778 46.6833H77.5658L73.7399 28.3275H69.8984C68.1244 28.3275 67.6924 29.6954 67.6924 29.6954L60.5651 46.6833H65.5467L66.543 43.9568H72.618L73.1778 46.6833ZM67.9192 40.1904L70.4302 33.3214L71.8427 40.1904H67.9192ZM60.9388 32.742L61.6207 28.8003C61.6207 28.8003 59.5163 28 57.3226 28C54.9511 28 49.3194 29.0365 49.3194 34.0765C49.3194 38.8186 55.9291 38.8775 55.9291 41.3683C55.9291 43.8591 50.0004 43.4128 48.0438 41.8421L47.3333 45.9635C47.3333 45.9635 49.4672 47 52.7274 47C55.9885 47 60.9083 45.3115 60.9083 40.7158C60.9083 35.9433 54.2391 35.499 54.2391 33.424C54.2396 31.3486 58.8938 31.6152 60.9388 32.742Z" fill="#2566AF"/>
<path d="M30.4952 38.2348L28.8871 29.9802C28.8871 29.9802 28.6927 28.3275 26.6202 28.3275H19.0884L19 28.6383C19 28.6383 22.6201 29.3886 26.0924 32.1995C29.4125 34.8862 30.4952 38.2348 30.4952 38.2348Z" fill="#E6A540"/>
</g>
</svg>
