<svg width="28" height="28" viewBox="0 0 28 28" fill="none" xmlns="http://www.w3.org/2000/svg">
<mask id="mask0_274_212" style="mask-type:alpha" maskUnits="userSpaceOnUse" x="0" y="0" width="28" height="28">
<rect width="28" height="28" fill="#E4EAF1"/>
</mask>
<g mask="url(#mask0_274_212)">
<path d="M5.59125 20.7918L11.7746 14.6085L15.5662 18.4001C16.0446 18.8785 16.8146 18.8551 17.2579 18.3535L25.6229 8.93845C26.0313 8.48345 26.0079 7.78345 25.5763 7.34012C25.1096 6.87345 24.3279 6.88512 23.8846 7.38679L16.4296 15.7635L12.5912 11.9251C12.1362 11.4701 11.4012 11.4701 10.9462 11.9251L3.84125 19.0418C3.38625 19.4968 3.38625 20.2318 3.84125 20.6868L3.94625 20.7918C4.40125 21.2468 5.14792 21.2468 5.59125 20.7918Z" fill="#9AA4D1"/>
</g>
</svg>
