<svg width="25" height="25" viewBox="0 0 25 25" fill="none" xmlns="http://www.w3.org/2000/svg">
  <mask id="mask0_6135_3662" style="mask-type:alpha" maskUnits="userSpaceOnUse" x="0" y="0" width="25" height="25">
    <rect width="25" height="25" fill="#C4C4C4"/>
  </mask>
  <g mask="url(#mask0_6135_3662)">
    <path d="M19.9265 9.81818C20.2089 9.81818 20.4379 9.57395 20.4379 9.27273V6.54545C20.4379 6.24423 20.2089 6 19.9265 6H4.58558C4.30315 6 4.07422 6.24423 4.07422 6.54545V9.27273C4.07422 9.57395 4.30315 9.81818 4.58558 9.81818C4.86754 9.81818 5.09695 10.0629 5.09695 10.3636C5.09695 10.6644 4.86754 10.9091 4.58558 10.9091C4.30315 10.9091 4.07422 11.1533 4.07422 11.4545V14.7273C4.07422 15.0285 4.30315 15.2727 4.58558 15.2727V17.4545C4.58558 17.7558 4.81451 18 5.09695 18H13.2788C13.5612 18 13.7901 17.7558 13.7901 17.4545V15.2727H14.8129V17.4545C14.8129 17.7558 15.0418 18 15.3242 18H19.4151C19.6976 18 19.9265 17.7558 19.9265 17.4545V15.2727C20.2089 15.2727 20.4379 15.0285 20.4379 14.7273V11.4545C20.4379 11.1533 20.2089 10.9091 19.9265 10.9091C19.6445 10.9091 19.4151 10.6644 19.4151 10.3636C19.4151 10.0629 19.6445 9.81818 19.9265 9.81818ZM5.60831 15.2727H6.63104V16.9091H5.60831V15.2727ZM8.67649 15.2727V16.9091H7.65376V15.2727H8.67649ZM10.7219 15.2727V16.9091H9.69922V15.2727H10.7219ZM12.7674 16.9091H11.7447V15.2727H12.7674V16.9091ZM15.8356 15.2727H16.8583V16.9091H15.8356V15.2727ZM18.9038 16.9091H17.881V15.2727H18.9038V16.9091ZM19.4151 8.82075C18.8199 9.04589 18.3924 9.6525 18.3924 10.3636C18.3924 11.0748 18.8199 11.6814 19.4151 11.9065V14.1818C18.6957 14.1818 5.76098 14.1818 5.09695 14.1818V11.9065C5.69221 11.6814 6.11967 11.0748 6.11967 10.3636C6.11967 9.6525 5.69221 9.04585 5.09695 8.82075V7.09091H19.4151V8.82075Z" fill="white" stroke="white" stroke-width="0.2"/>
    <path d="M7.65492 12.5453H9.70037C9.9828 12.5453 10.2117 12.301 10.2117 11.9998V8.7271C10.2117 8.42587 9.9828 8.18164 9.70037 8.18164H7.65492C7.37249 8.18164 7.14355 8.42587 7.14355 8.7271V11.9998C7.14355 12.301 7.37249 12.5453 7.65492 12.5453ZM8.16628 9.27255H9.18901V11.4544H8.16628V9.27255Z" fill="white" stroke="white" stroke-width="0.2"/>
    <path d="M11.234 12.5453H13.2795C13.5619 12.5453 13.7908 12.301 13.7908 11.9998V8.7271C13.7908 8.42587 13.5619 8.18164 13.2795 8.18164H11.234C10.9516 8.18164 10.7227 8.42587 10.7227 8.7271V11.9998C10.7227 12.301 10.9516 12.5453 11.234 12.5453ZM11.7454 9.27255H12.7681V11.4544H11.7454V9.27255Z" fill="white" stroke="white" stroke-width="0.2"/>
    <path d="M14.8121 12.5453H16.8576C17.14 12.5453 17.369 12.301 17.369 11.9998V8.7271C17.369 8.42587 17.14 8.18164 16.8576 8.18164H14.8121C14.5297 8.18164 14.3008 8.42587 14.3008 8.7271V11.9998C14.3008 12.301 14.5297 12.5453 14.8121 12.5453ZM15.3235 9.27255H16.3462V11.4544H15.3235V9.27255Z" fill="white" stroke="white" stroke-width="0.2"/>
  </g>
</svg>
