<svg width="47" height="51" viewBox="0 0 47 51" fill="none" xmlns="http://www.w3.org/2000/svg">
<path d="M29.1705 24.0381L19.0433 27.3449L10.2328 31.2335L7.76788 31.8842C7.14013 32.4813 6.48191 33.0861 5.77001 33.6985C4.98924 34.372 4.26205 34.9845 3.70317 35.4284C3.08318 35.9183 2.16461 36.8369 1.69771 37.4185C1.00109 38.2911 0.449973 39.2173 0.21266 39.9293C-0.208382 41.2153 -0.0016042 42.5166 0.809771 43.7185C1.8508 45.2493 3.92527 46.8109 6.34407 47.8749C7.57656 48.4185 9.65096 49.115 11.2125 49.5053C13.8073 50.1637 18.8289 50.8756 21.5922 50.9828C22.1509 51.0057 22.9011 51.0057 22.9317 50.9828C22.993 50.9444 23.4216 50.1254 23.9193 49.1074C25.6186 45.6397 26.8434 42.3865 27.5093 39.6079C27.9073 37.9239 28.2211 35.681 28.4277 33.025C28.4814 32.2824 28.5043 29.7946 28.4583 28.9525C28.3894 27.5747 28.2669 26.4572 28.0757 25.3626C28.0451 25.2018 28.0373 25.0563 28.0527 25.0487C28.0832 25.0257 28.1751 24.9951 29.4228 24.6353L29.1703 24.0383V24.0381H29.1705V24.0381ZM26.8587 25.393C26.9506 25.393 27.1955 27.743 27.2567 29.2281C27.2721 29.5419 27.2643 29.7486 27.249 29.7486C27.1879 29.7486 25.9554 29.0215 25.0752 28.4703C24.3097 27.988 22.8554 27.0235 22.6258 26.8398C22.5491 26.7863 22.5567 26.7786 23.1845 26.5642C24.2484 26.2044 26.7746 25.393 26.8587 25.393ZM21.6995 27.0924C21.7684 27.0924 21.9443 27.1918 22.3654 27.4521C23.9422 28.4396 26.0856 29.6338 27.0041 30.0319C27.2873 30.1543 27.3178 30.1083 26.6673 30.5524C25.2741 31.5015 23.5364 32.4354 21.4084 33.3769C21.0334 33.5453 20.7196 33.6754 20.712 33.6754C20.6967 33.6754 20.7425 33.4842 20.8037 33.2545C21.3166 31.3483 21.6075 29.4194 21.6229 27.8731C21.6305 27.1076 21.6305 27.1076 21.6995 27.0848C21.6841 27.0924 21.6917 27.0924 21.6995 27.0924ZM20.6355 27.4981C20.6813 27.5439 20.6507 29.2587 20.5895 29.7256C20.4517 30.8432 20.2373 31.8842 19.8853 33.0555C19.8011 33.3385 19.7245 33.5759 19.7093 33.5912C19.6785 33.6294 18.6298 32.6037 18.2854 32.2057C17.6883 31.5167 17.2215 30.8278 16.877 30.1542C16.7009 29.8097 16.4254 29.1362 16.4483 29.1132C16.5708 29.029 20.6048 27.4675 20.6355 27.4981ZM15.6292 29.4653C15.6368 29.4653 15.6445 29.4653 15.6522 29.4729C15.6675 29.4882 15.7212 29.6108 15.7671 29.7485C16.012 30.4145 16.563 31.3943 17.0377 32.022C17.5582 32.7109 18.2396 33.4457 18.8059 33.928C18.9897 34.0811 19.158 34.2264 19.1809 34.2495C19.2269 34.2954 19.2422 34.2877 17.9944 34.7624C16.5479 35.3135 14.9709 35.8646 13.1643 36.4463C12.7328 36.5854 12.3016 36.7258 11.8709 36.8674C11.8019 36.8904 11.8249 36.852 12.0239 36.5383C12.9195 35.1374 14.282 32.3894 15.0475 30.4451C15.1776 30.1083 15.3077 29.7715 15.3308 29.6949C15.3614 29.5877 15.3996 29.5495 15.4991 29.4959C15.5526 29.4807 15.6063 29.4653 15.6292 29.4653ZM14.0984 30.1006C14.1213 30.116 13.7309 30.935 13.3482 31.6852C12.6056 33.1319 11.7943 34.5558 10.7073 36.2857C10.5236 36.5842 10.3476 36.8598 10.3246 36.8904C10.2864 36.944 10.271 36.9286 10.1485 36.6914C9.88827 36.1785 9.67387 35.5201 9.55908 34.9154C9.44421 34.3183 9.46723 33.2773 9.59741 32.6344C9.69681 32.1598 9.68926 32.1675 9.91888 32.0526C10.8987 31.5551 14.0678 30.07 14.0984 30.1006ZM27.3027 30.6365V30.958C27.3027 32.665 27.119 35.0073 26.851 36.7144C26.8051 37.0129 26.7666 37.2578 26.7591 37.2655C26.7591 37.2655 26.5372 37.2044 26.2769 37.1277C25.1288 36.7679 23.881 36.2397 22.7557 35.6198C22.0131 35.2141 20.9339 34.548 20.9646 34.5174C20.9721 34.5098 21.2937 34.3414 21.6687 34.1423C23.1692 33.3616 24.6081 32.5196 25.8559 31.6852C26.3228 31.3714 27.0269 30.8662 27.1802 30.7284L27.3027 30.6365ZM8.319 32.9022C8.3496 32.9022 8.34194 32.9634 8.29602 33.239C8.26538 33.4381 8.22715 33.8055 8.21194 34.058C8.15055 35.1756 8.33439 36.0024 8.88551 37.1352C9.0386 37.4491 9.16115 37.7094 9.15339 37.717C9.09977 37.763 4.03247 39.248 2.44018 39.6843C1.96563 39.8144 1.55235 39.9292 1.52157 39.9368C1.46809 39.9522 1.4604 39.9446 1.48334 39.8143C1.65938 38.6892 2.51675 37.2194 3.71083 35.9793C4.50695 35.1527 5.14233 34.6704 6.22928 34.0503C7.01005 33.6064 8.21183 32.9406 8.30368 32.9098C8.30375 32.9022 8.31137 32.9022 8.319 32.9022ZM20.2604 35.0379C20.268 35.0302 20.4517 35.1298 20.6736 35.2599C22.3118 36.2091 24.5928 37.0894 26.537 37.541L26.7132 37.5793L26.4682 37.717C25.4502 38.2835 22.1051 39.6766 18.6835 40.955C18.1859 41.1386 17.696 41.3224 17.604 41.3606C17.5122 41.3989 17.428 41.4219 17.428 41.4142C17.428 41.4065 17.5658 41.1386 17.7418 40.8095C18.6986 39.0183 19.6632 36.8368 20.1531 35.3211C20.2144 35.1757 20.2526 35.0456 20.2604 35.0379ZM19.0433 35.436C19.051 35.4438 18.9897 35.6044 18.9131 35.7881C18.2472 37.4032 17.3744 39.1639 16.2569 41.1387C15.9738 41.644 15.7364 42.0497 15.7286 42.0497C15.7211 42.0497 15.4914 41.9119 15.2159 41.7435C13.593 40.7483 12.154 39.5236 11.2125 38.3371L11.0747 38.1687L11.7712 37.9773C14.2666 37.2961 16.3869 36.5613 18.492 35.6581C18.7906 35.5355 19.0356 35.436 19.0433 35.436ZM26.6061 38.0768C26.6061 38.0768 26.6138 38.0845 26.6061 38.0768C26.6137 38.2529 26.2233 39.8298 25.9018 40.9702C25.6339 41.9271 25.4042 42.6773 24.9833 44.0015C24.7996 44.5834 24.6389 45.0655 24.6311 45.0655C24.6235 45.0655 24.5776 45.0578 24.5317 45.0426C22.2583 44.6291 20.2221 44.0551 18.3084 43.2897C17.7725 43.0753 17.0071 42.7308 16.9612 42.6926C16.9459 42.6771 17.4052 42.4629 17.9869 42.2103C21.4698 40.687 25.0828 38.957 26.3228 38.2146C26.4682 38.1227 26.5831 38.0768 26.6061 38.0768ZM9.14576 38.6739C9.16108 38.6892 8.18892 40.0901 6.82632 41.996C6.35177 42.662 5.80065 43.4428 5.59401 43.7336C5.3873 44.0245 5.0735 44.4838 4.89743 44.7594L4.57579 45.257L4.23131 44.9661C3.82558 44.6292 3.12145 43.9097 2.80761 43.5117C2.14925 42.6927 1.70537 41.8277 1.5293 41.0393C1.44508 40.6718 1.44508 40.488 1.52153 40.4652C1.63632 40.4346 3.68015 39.9523 5.59394 39.5083C6.65795 39.2634 7.89026 38.9725 8.33425 38.8654C8.77827 38.758 9.13814 38.6739 9.14576 38.6739ZM10.1255 39.049L10.3704 39.3246C11.4728 40.557 12.598 41.468 13.9605 42.264C14.2055 42.4018 14.3892 42.5242 14.3738 42.532C14.3204 42.5702 9.64323 44.2312 7.47698 44.9814C6.25996 45.41 5.25712 45.7544 5.24957 45.7544C5.24194 45.7544 5.173 45.7086 5.09634 45.655L4.95864 45.5554L5.18059 45.234C5.90009 44.1929 6.80348 43.0524 8.77071 40.6795L10.1255 39.049ZM16.2341 43.4198C16.2416 43.4122 16.5784 43.5346 16.9917 43.6878C17.987 44.0628 18.7752 44.3001 19.8317 44.568C21.133 44.8972 23.016 45.2187 24.126 45.3106C24.2944 45.3258 24.3863 45.3412 24.3556 45.3642C24.302 45.3948 23.1768 45.7699 22.3501 46.0301C21.0334 46.4434 17.0148 47.6299 13.7386 48.5715C13.1338 48.7475 12.6133 48.893 12.5827 48.9006C12.5062 48.916 12.2535 48.8469 12.2535 48.8163C12.2535 48.8011 12.4372 48.5639 12.6593 48.3036C13.7615 46.9869 14.8562 45.5173 15.7671 44.1241C16.0196 43.7412 16.2341 43.4274 16.2341 43.4198ZM14.8867 43.4581C14.8943 43.4658 14.3509 44.3384 13.4018 45.8387C12.996 46.474 12.5444 47.1935 12.3836 47.4462C12.2305 47.6911 12.0009 48.0739 11.8708 48.2882L11.6488 48.6786L11.534 48.648C11.2584 48.5714 9.32176 47.8901 8.80887 47.6834C8.1735 47.4308 7.51521 47.1247 7.02527 46.8644C6.41298 46.5352 5.64756 46.0453 5.70873 46.0301C5.72402 46.0225 6.77274 45.7391 8.03569 45.3947C11.3885 44.4837 13.2485 43.9556 14.4657 43.5729C14.6878 43.504 14.8791 43.4504 14.8867 43.4581ZM24.4168 45.6932H24.4244C24.4551 45.7698 23.2151 49.2144 22.7633 50.3013C22.6639 50.5463 22.6258 50.6076 22.5721 50.5998C22.4419 50.5923 20.6431 50.3397 19.5484 50.1789C17.6425 49.888 14.4428 49.3291 13.6391 49.1455L13.4554 49.1073L14.5958 48.8468C17.0454 48.2957 18.2242 47.9972 19.4182 47.6298C20.9263 47.1705 22.419 46.5964 23.9269 45.8922C24.1642 45.785 24.3632 45.7008 24.4168 45.6932Z" fill="url(#paint0_linear)"/>
<path d="M18.7311 0.430965C18.5627 0.408126 15.8452 1.38791 14.0923 2.09971C11.727 3.06432 9.88997 3.98293 8.75703 4.77884C8.33609 5.0775 7.80781 5.60561 7.72373 5.81225C7.69312 5.88881 7.67773 5.98066 7.67773 6.0725L8.70351 7.04466L11.1453 7.82543L16.9552 8.8665L23.5994 10.0071L23.6684 9.43297C23.6455 9.43297 23.6301 9.42535 23.6073 9.42535L22.7345 9.28751L22.5585 8.9737C21.6552 7.38148 20.6601 5.40656 20.0784 4.07463C19.6268 3.04123 19.1981 1.84722 18.9608 0.989848C18.8306 0.469334 18.8154 0.43873 18.7313 0.431106V0.430929H18.7311V0.430965ZM18.6085 0.821474H18.6164C18.6239 0.829028 18.6545 1.0435 18.6852 1.29596C18.8152 2.36777 19.0527 3.40099 19.4277 4.51862C19.7109 5.36067 19.7109 5.31478 19.3818 5.2152C18.601 5.00094 15.1028 4.3962 12.5691 4.0441C12.1634 3.99048 11.8189 3.93693 11.8189 3.92931C11.7883 3.89871 13.6484 2.92647 14.4674 2.54384C15.5161 2.06148 18.3943 0.859702 18.6085 0.821474ZM11.2294 4.25074L11.5281 4.35014C13.1508 4.90136 17.2306 5.68217 19.4812 5.86586C19.7337 5.88884 19.9482 5.91186 19.9557 5.91186C19.9633 5.91948 19.7491 6.03431 19.4735 6.16439C18.3866 6.70788 17.1925 7.37386 16.3657 7.88675C16.1209 8.03977 15.8988 8.16233 15.8682 8.16233C15.8376 8.16233 15.6769 8.13169 15.5085 8.10871L15.2023 8.06271L14.4369 7.31251C13.0897 6.00363 12.0333 4.99325 11.6276 4.61043L11.2294 4.25074ZM10.9233 4.48798L12.0026 5.83526C12.592 6.57777 13.1891 7.30492 13.3193 7.4656C13.4493 7.62646 13.5566 7.75664 13.5489 7.76426C13.5183 7.78721 11.9875 7.48862 11.1759 7.30499C10.3416 7.11357 9.99714 7.02172 9.48429 6.86104L9.06324 6.7232V6.61596C9.07087 6.10307 9.7216 5.33766 10.8238 4.55695L10.9233 4.48798ZM20.0936 6.32514C20.1243 6.32514 20.1625 6.394 20.2543 6.60068C20.5146 7.17474 21.3261 8.72107 21.5249 9.01955C21.5864 9.11917 21.6934 9.12679 20.6142 8.95072C18.0193 8.52961 17.1848 8.39198 17.1848 8.37666C17.1848 8.36903 17.2614 8.31542 17.3609 8.2618C18.1647 7.81792 18.976 7.25141 19.6956 6.64667C19.8717 6.5012 20.0324 6.36343 20.063 6.34042C20.0706 6.32514 20.086 6.31751 20.0936 6.32514Z" fill="url(#paint1_linear)"/>
<path d="M7.77622 5.70509C7.77622 5.70509 7.60792 5.97312 7.76864 6.37118C7.86825 6.61605 8.15907 6.91453 8.48816 7.22078C8.48816 7.22078 11.8945 10.5429 12.3079 11.0175C14.1908 13.1914 15.0099 15.3347 15.0865 18.2895C15.1324 20.1879 14.7726 21.8566 13.877 23.7932C12.2849 27.2685 8.92439 31.1035 3.74219 35.3595L4.50012 35.1069C4.99 34.7394 5.65597 34.3492 7.21748 33.4918C10.8228 31.5168 14.8798 29.7026 19.8554 27.8349C27.02 25.1404 38.8007 21.9866 45.5061 20.961L46.2028 20.8537L46.0955 20.6853C45.4833 19.7361 45.0621 19.1468 44.5569 18.5191C43.0873 16.6972 41.3039 15.22 39.1222 13.9952C36.1215 12.3189 32.2405 11.0099 27.3263 10.0378C26.4001 9.85396 24.3639 9.50189 22.7105 9.24929C19.2046 8.70594 16.9388 8.33079 14.4435 7.90212C13.5479 7.74896 12.2083 7.51937 11.3203 7.32806C10.861 7.22844 9.98084 7.0218 9.29191 6.78453C8.7408 6.57009 7.94463 6.35575 7.77622 5.70509ZM9.75126 7.61885C9.75881 7.61129 9.88126 7.65707 10.0421 7.71069C10.333 7.81009 10.708 7.92496 11.1521 8.04751C11.4881 8.13992 11.8249 8.22922 12.1625 8.3154C12.6218 8.43015 13.0045 8.53735 13.0121 8.53735C13.0658 8.59097 13.8389 11.0633 14.0992 12.0125C14.1985 12.3723 14.2752 12.6785 14.2676 12.6785C14.2597 12.6862 14.1756 12.556 14.0762 12.38C13.1805 10.8031 11.7644 9.20326 10.1263 7.91723C9.91204 7.76428 9.75126 7.62647 9.75126 7.61885ZM13.5173 8.65987C13.5556 8.65987 13.7241 8.68285 13.9306 8.72874C15.2319 9.0196 17.5667 9.46359 19.0593 9.71622C19.3119 9.75445 19.511 9.80048 19.511 9.81569C19.511 9.83108 19.419 9.88456 19.3042 9.94588C19.0517 10.076 18.0335 10.6806 17.6968 10.9103C16.8471 11.4767 16.0817 12.0891 15.5305 12.6402C15.3085 12.8623 15.1171 13.0459 15.1171 13.0459C15.1171 13.0459 15.0713 12.9159 15.0329 12.755C14.7575 11.691 14.1833 10.1141 13.6627 9.00425C13.5785 8.82825 13.5096 8.66746 13.5096 8.65221C13.5096 8.6675 13.5096 8.65987 13.5173 8.65987ZM20.1463 9.9229C20.1922 9.93814 20.2687 10.1984 20.4218 10.7725C20.7051 11.8825 20.8352 13.1225 20.7893 14.2784C20.7739 14.5999 20.7587 14.8984 20.7433 14.9368L20.7204 15.0132L20.3223 14.8831C19.5033 14.6229 18.1714 14.2324 17.0309 13.911C16.3801 13.7349 15.8521 13.5742 15.8521 13.5589C15.8521 13.5129 16.8013 12.5637 17.207 12.204C17.9799 11.5226 20.0773 9.89988 20.1463 9.9229ZM20.6744 9.99935C20.6974 9.97651 23.8435 10.5199 25.2749 10.7955C26.339 11.0021 27.8852 11.3237 27.977 11.362C28.0229 11.3772 27.8622 11.4691 27.3493 11.6987C25.3285 12.6097 23.8281 13.4286 22.3356 14.4238C21.9452 14.6841 21.616 14.8984 21.6084 14.8984C21.6007 14.8984 21.5931 14.6765 21.5931 14.4085C21.5931 12.9542 21.3022 11.4844 20.7662 10.2444C20.7127 10.1219 20.6668 10.0071 20.6744 9.99935ZM28.8113 11.6069C28.8344 11.6299 28.7348 12.25 28.6429 12.6173C28.3674 13.7579 27.6249 15.4497 26.7141 17.0418C26.5532 17.325 26.4078 17.5546 26.3924 17.5623C26.3773 17.5699 26.1705 17.455 25.9332 17.3173C25.0453 16.7967 24.0349 16.3069 22.9326 15.8475C22.6265 15.7175 22.3585 15.6102 22.3508 15.595C22.2971 15.549 24.762 13.9186 26.0633 13.1378C27.0967 12.5102 28.7807 11.5763 28.8113 11.6069ZM29.3931 11.6987C29.462 11.6987 30.8552 12.0815 31.5823 12.2958C33.3812 12.8317 35.4479 13.5895 36.7951 14.2018L37.3538 14.4545L36.9636 14.5463C33.6721 15.3041 30.8552 16.1768 28.1377 17.2791C27.9157 17.3709 27.7167 17.4475 27.7015 17.4475C27.6861 17.4475 27.7627 17.2714 27.8622 17.057C28.6813 15.3195 29.2094 13.5053 29.3394 11.959C29.3472 11.8135 29.37 11.6987 29.3931 11.6987ZM15.5229 14.8831C15.5458 14.8601 16.6098 15.1128 17.1839 15.2734C18.0565 15.5184 19.9089 16.1384 19.9089 16.1844C19.9089 16.192 19.7023 16.3681 19.4574 16.5825C18.4547 17.4168 17.4901 18.297 16.3342 19.4146C15.9897 19.7439 15.6989 20.0118 15.6837 20.0118C15.6683 20.0118 15.6607 19.9658 15.6683 19.9045C15.8443 18.6185 15.8061 16.9652 15.5612 15.2888C15.5381 15.0744 15.5152 14.8908 15.5229 14.8831ZM37.8822 14.9062C37.8974 14.9214 37.3922 15.7175 37.0708 16.169C36.6116 16.8273 35.9378 17.7001 34.4145 19.6138C33.6109 20.6241 32.7075 21.7647 32.4091 22.1474C32.1028 22.5301 31.8503 22.8516 31.8425 22.8516C31.8349 22.8516 31.7355 22.7139 31.6283 22.5455C30.7709 21.2595 29.7451 20.1342 28.528 19.1238C28.2984 18.9324 28.0459 18.7257 27.9617 18.6645C27.8775 18.6033 27.8085 18.542 27.8085 18.5344C27.8085 18.5115 29.1097 17.9526 30.0973 17.5546C31.8273 16.8503 34.1847 16.0084 35.9531 15.4648C36.8793 15.174 37.8668 14.8908 37.8822 14.9062ZM38.4716 15.0591C38.5021 15.0515 38.6859 15.1434 38.9079 15.2734C40.768 16.3374 42.5897 17.7077 44.0289 19.1162C44.4346 19.5143 45.4373 20.5553 45.4219 20.5629C45.4219 20.5629 45.0698 20.5935 44.6566 20.6241C41.4339 20.8691 37.3082 21.5503 33.3429 22.5071C33.0751 22.5683 32.8378 22.6219 32.8224 22.6219C32.8073 22.6219 33.1057 22.3234 33.4809 21.9637C35.8078 19.7209 36.8719 18.3047 38.1272 15.7786C38.3032 15.4037 38.4563 15.0822 38.4716 15.0591C38.4639 15.0591 38.4639 15.0591 38.4716 15.0591ZM21.4246 16.8045C21.5318 16.8274 22.5269 17.2945 23.277 17.6694C23.966 18.0138 24.9994 18.565 25.0529 18.6109C25.0606 18.6185 24.6931 18.8099 24.2416 19.0319C22.8024 19.7515 21.5701 20.4327 20.284 21.2135C19.9166 21.4355 19.6105 21.6193 19.6028 21.6193C19.5722 21.6193 19.5798 21.5885 19.7865 21.2135C20.4755 19.9582 21.0265 18.4579 21.3405 16.9958C21.371 16.881 21.4017 16.8045 21.4246 16.8045ZM20.4294 16.9881C20.4524 17.0112 20.1922 17.9526 20.0315 18.4655C19.7176 19.4377 19.1894 20.6547 18.6766 21.5733C18.554 21.7875 18.3703 22.1014 18.2708 22.2774L18.0795 22.5836L17.6509 22.1704C17.1534 21.6881 16.7476 21.3896 16.2272 21.1216C16.0203 21.0145 15.8597 20.9226 15.8597 20.9073C15.8597 20.8461 17.1686 19.6596 18.1714 18.8023C18.8909 18.1823 20.4065 16.9652 20.4294 16.9881ZM26.5151 19.4913L26.8902 19.7361C27.7473 20.295 28.7577 21.0375 29.531 21.6881C29.9672 22.0478 30.8091 22.8057 30.9777 22.9894L31.0694 23.089L30.4495 23.265C26.9436 24.2371 24.2339 25.1021 21.0725 26.2657C20.7204 26.3957 20.4218 26.5029 20.3988 26.5029C20.353 26.5029 20.3146 26.5411 21.1031 25.8139C23.124 23.954 24.9151 21.9024 26.2471 19.9045L26.5151 19.4913ZM24.9152 19.8893C24.9304 19.9045 23.8818 21.3819 23.254 22.2163C22.5039 23.2114 21.1719 24.8801 20.2534 25.967C19.8708 26.4187 19.5417 26.7937 19.5263 26.8014C19.5033 26.809 19.4956 26.6942 19.4956 26.5182C19.4956 25.5919 19.2584 24.6044 18.845 23.7625C18.6689 23.4104 18.6383 23.3262 18.6767 23.2879C18.8221 23.1577 21.0495 21.8871 22.458 21.1293C23.4071 20.6241 24.892 19.874 24.9152 19.8893ZM15.2396 22.2623C15.2626 22.2623 15.4387 22.354 15.6377 22.4613C16.1276 22.7291 16.5639 23.0277 16.9543 23.3492C16.9695 23.3645 16.7706 23.5253 16.5103 23.7166C15.7831 24.2371 14.6809 25.0715 14.038 25.5844C13.3642 26.1202 13.3414 26.1355 13.4178 26.0207C13.9231 25.2476 14.1756 24.8112 14.4436 24.2525C14.6809 23.755 14.9181 23.1655 15.0865 22.6527C15.1477 22.4307 15.2243 22.2623 15.2396 22.2623ZM17.8193 24.283C17.8575 24.2755 17.9035 24.3443 18.1101 24.6505C18.5464 25.301 18.8832 26.1738 18.9676 26.878L18.9827 27.0312L17.9342 27.4369C16.0586 28.164 14.3288 28.8836 13.1575 29.4193C12.8284 29.5725 12.2543 29.848 11.8793 30.0318C11.5042 30.2231 11.198 30.3686 11.198 30.3609C11.198 30.3533 11.4352 30.1772 11.7261 29.9628C14.015 28.3019 15.9975 26.4799 17.4824 24.6582C17.6432 24.4668 17.7887 24.2907 17.8039 24.2831L17.8193 24.283ZM16.6328 24.574C16.6635 24.6046 15.7909 25.592 15.1938 26.1967C13.7164 27.7047 12.2544 28.8836 10.4401 30.0318C10.2105 30.1772 10.0039 30.3073 9.98087 30.3227C9.92726 30.3533 9.99612 30.2767 10.7923 29.4117C11.2975 28.8682 11.6802 28.409 12.1165 27.8426C12.4074 27.4676 12.461 27.414 12.8821 27.1153C14.0073 26.3039 16.6022 24.5433 16.6328 24.574Z" fill="url(#paint2_radial)"/>
<defs>
<linearGradient id="paint0_linear" x1="7.61907" y1="45.9977" x2="11.281" y2="43.8339" gradientUnits="userSpaceOnUse">
<stop stop-color="#909CA9"/>
<stop offset="1" stop-color="#EDEDEE"/>
</linearGradient>
<linearGradient id="paint1_linear" x1="7.70459" y1="5.20404" x2="10.6511" y2="5.20404" gradientUnits="userSpaceOnUse">
<stop stop-color="#939FAB"/>
<stop offset="1" stop-color="#DCDEE1"/>
</linearGradient>
<radialGradient id="paint2_radial" cx="0" cy="0" r="1" gradientUnits="userSpaceOnUse" gradientTransform="translate(22.5718 18.7177) rotate(-171.457) scale(3.79889 7.59965)">
<stop stop-color="#EE352C"/>
<stop offset="1" stop-color="#A91D22"/>
</radialGradient>
</defs>
</svg>
