<svg width="105" height="71" viewBox="0 0 105 71" fill="none" xmlns="http://www.w3.org/2000/svg">
<path d="M25.0198 64.1385H21.0043C20.8623 57.3866 20.4712 51.039 19.8318 45.091H19.7961L13.6824 64.1385H10.6251L4.54786 45.091H4.51295C4.06212 50.8017 3.77812 57.1509 3.66017 64.1385H0C0.23589 55.6413 0.828718 47.6751 1.77616 40.2391H6.75312L12.5456 57.8001H12.5813L18.4095 40.2391H23.1715C24.2144 48.9489 24.8305 56.9159 25.0198 64.1385ZM42.4346 46.5056C40.7996 55.3437 38.6425 61.7655 35.9654 65.7741C33.8797 68.8597 31.5945 70.4041 29.106 70.4041C28.4426 70.4041 27.6239 70.2047 26.654 69.8089V67.6779C27.1281 67.7459 27.6845 67.7845 28.3239 67.7845C29.4862 67.7845 30.4205 67.4661 31.1328 66.8276C31.9848 66.05 32.4108 65.1758 32.4108 64.2088C32.4108 63.5456 32.0787 62.1898 31.416 60.1368L27.0094 46.5048H30.9543L34.1171 56.7002C34.8279 59.0152 35.1243 60.6315 35.0056 61.5521C36.7352 56.9507 37.9434 51.9333 38.6316 46.504H42.4346V46.5056Z" fill="white"/>
<path d="M95.8844 64.1385H84.4779V40.2392H88.315V61.1966H95.8844V64.1385ZM81.492 64.7159L77.0815 62.5477C77.4726 62.2277 77.8466 61.8814 78.1834 61.4803C80.0581 59.2866 80.9931 56.0425 80.9931 51.7455C80.9931 43.8389 77.8784 39.8836 71.6467 39.8836C68.591 39.8836 66.2073 40.8869 64.5025 42.8943C62.6294 45.0895 61.6944 48.3221 61.6944 52.5958C61.6944 56.7969 62.5231 59.8787 64.1813 61.8335C65.6983 63.6044 67.985 64.491 71.043 64.491C72.1837 64.491 73.2305 64.3518 74.1841 64.0713L79.9262 67.4012L81.492 64.7159ZM67.2044 59.3562C66.2329 57.7994 65.7472 55.2996 65.7472 51.853C65.7472 45.8354 67.5823 42.8232 71.2564 42.8232C73.1769 42.8232 74.5845 43.5436 75.4846 44.9813C76.4545 46.5404 76.9426 49.0177 76.9426 52.4165C76.9426 58.4835 75.1059 61.5174 71.4341 61.5174C69.5129 61.5182 68.1053 60.8001 67.2044 59.3562ZM60.0222 57.5142C60.0222 59.5409 59.2757 61.2036 57.7843 62.506C56.2914 63.803 54.2894 64.4531 51.7808 64.4531C49.4343 64.4531 47.1592 63.7064 44.957 62.2208L45.9883 60.1685C47.8832 61.1139 49.5988 61.5839 51.1391 61.5839C52.5847 61.5839 53.7144 61.2646 54.5339 60.6316C55.3525 59.9962 55.8406 59.1049 55.8406 57.978C55.8406 56.558 54.8466 55.3445 53.0231 54.328C51.3416 53.4082 47.9786 51.485 47.9786 51.485C46.1559 50.1617 45.2434 48.741 45.2434 46.4005C45.2434 44.4634 45.9239 42.8997 47.2857 41.7101C48.649 40.5159 50.4081 39.9207 52.5645 39.9207C54.7915 39.9207 56.8159 40.5151 58.6394 41.6916L57.7145 43.7446C56.1548 43.0845 54.6153 42.7544 53.0968 42.7544C51.8669 42.7544 50.9171 43.0489 50.2568 43.6402C49.591 44.2292 49.1805 44.9829 49.1805 45.9073C49.1805 47.3203 50.1955 48.5493 52.0686 49.5859C53.7726 50.5072 57.2194 52.4636 57.2194 52.4636C59.0887 53.7846 60.0222 55.1922 60.0222 57.5142Z" fill="#F8981D"/>
<path d="M100.703 32.2343C98.3826 32.1755 96.5862 32.4082 95.0786 33.0436C94.6432 33.2167 93.9511 33.2167 93.8906 33.7647C94.1257 33.9966 94.1529 34.3707 94.3569 34.6907C94.7046 35.2681 95.3106 36.045 95.8638 36.45C96.4714 36.9138 97.0813 37.3729 97.7207 37.7772C98.8481 38.4721 100.126 38.8763 101.225 39.5689C101.865 39.9716 102.501 40.4926 103.142 40.9263C103.457 41.1574 103.659 41.5323 104.068 41.6768V41.5887C103.863 41.329 103.805 40.9533 103.604 40.6642L102.733 39.8279C101.892 38.7024 100.847 37.72 99.7195 36.913C98.7915 36.2761 96.7616 35.4104 96.3853 34.3452L96.3263 34.2865C96.9641 34.227 97.7207 33.9966 98.3267 33.8196C99.3129 33.5607 100.212 33.6194 101.224 33.3605C101.69 33.2445 102.151 33.0992 102.619 32.9562V32.6957C102.094 32.1755 101.72 31.4845 101.168 30.9929C99.6924 29.7229 98.066 28.4807 96.3853 27.4411C95.4852 26.8621 94.3274 26.4896 93.3691 25.9972C93.0238 25.8233 92.4419 25.7375 92.2386 25.4484C91.7187 24.813 91.4261 23.9767 91.049 23.2246C90.211 21.6377 89.397 19.8768 88.6738 18.1987C88.1508 17.0733 87.8327 15.9494 87.1949 14.9082C84.2074 9.99988 80.9632 7.02706 75.9769 4.10911C74.9053 3.50156 73.6304 3.24261 72.2686 2.92415L70.0936 2.80975C69.6296 2.60724 69.1648 2.05766 68.7598 1.79794C67.1054 0.759073 62.8462 -1.49258 61.6295 1.48025C60.8458 3.35933 62.7888 5.20672 63.4561 6.15979C63.9488 6.82145 64.5875 7.57431 64.932 8.32564C65.1361 8.81647 65.1935 9.33745 65.3976 9.85611C65.8616 11.1269 66.2953 12.5406 66.9052 13.7264C67.2234 14.3308 67.5702 14.9662 67.9768 15.5134C68.2096 15.8335 68.6147 15.9749 68.7031 16.4967C68.2988 17.0718 68.267 17.9398 68.035 18.6617C66.9921 21.9244 67.3995 25.9663 68.8777 28.364C69.3402 29.086 70.4436 30.6752 71.9194 30.0661C73.2262 29.5466 72.9367 27.901 73.3123 26.4579C73.3984 26.1093 73.3418 25.8805 73.5156 25.6517V25.7081C73.9199 26.5159 74.328 27.2942 74.7028 28.1043C75.6021 29.518 77.168 30.9913 78.4724 31.9707C79.1669 32.4932 79.717 33.3867 80.5868 33.706V33.6194H80.5294C80.3533 33.3605 80.0957 33.2445 79.8644 33.0436C79.3414 32.5233 78.7626 31.888 78.3568 31.3113C77.1416 29.6935 76.0661 27.9026 75.1117 26.0544C74.6446 25.1578 74.2419 24.1776 73.8655 23.2825C73.6902 22.937 73.6902 22.416 73.3992 22.2421C72.9631 22.8767 72.3276 23.4263 72.0095 24.2039C71.4578 25.4476 71.4003 26.9773 71.1955 28.5681L71.0814 28.6237C70.158 28.3926 69.8368 27.4411 69.4861 26.6333C68.6178 24.5819 68.4719 21.2891 69.2253 18.9222C69.4271 18.317 70.3 16.4109 69.9516 15.8342C69.777 15.2816 69.1966 14.967 68.8785 14.5318C68.5045 13.9845 68.0948 13.2919 67.8341 12.6844C67.1388 11.0681 66.7888 9.27716 66.04 7.66166C65.6901 6.90879 65.0825 6.12964 64.5906 5.43629C64.0381 4.65714 63.4305 4.10834 62.9936 3.18464C62.8493 2.86695 62.6468 2.34752 62.8788 2.002C62.9355 1.77011 63.0534 1.68354 63.2846 1.62557C63.6602 1.30942 64.7333 1.71137 65.1097 1.88528C66.1844 2.31814 67.0829 2.72241 67.9799 3.32841C68.3857 3.61827 68.8211 4.16708 69.3417 4.31162H69.9516C70.8773 4.51259 71.921 4.36728 72.7924 4.62854C74.328 5.12015 75.7193 5.84132 76.967 6.6197C80.7638 9.01821 83.8947 12.4262 86.0084 16.4967C86.3553 17.1599 86.5027 17.7674 86.8193 18.4592C87.43 19.8753 88.185 21.3192 88.791 22.7051C89.4001 24.0617 89.9805 25.4468 90.8504 26.5738C91.2841 27.1798 93.0269 27.4975 93.8083 27.8152C94.3864 28.0742 95.2865 28.3045 95.808 28.6222C96.7942 29.2274 97.7766 29.9223 98.7038 30.5878C99.1655 30.9341 100.617 31.6561 100.703 32.2343ZM71.1342 7.14068C70.734 7.13654 70.335 7.18541 69.9477 7.286V7.34397H70.0036C70.2372 7.80543 70.643 8.12544 70.9324 8.52816C71.166 8.99116 71.3685 9.4503 71.5974 9.91254L71.6533 9.85534C72.0622 9.56702 72.2655 9.10479 72.2655 8.41144C72.0894 8.20737 72.0622 8.00795 71.9156 7.80543C71.7449 7.51634 71.3685 7.37257 71.1342 7.14068Z" fill="white"/>
<path d="M103.464 64.1345H104.064V61.2065H103.163L102.428 63.2046L101.63 61.2065H100.763V64.1345H101.33V61.9068H101.362L102.198 64.1345H102.63L103.464 61.9068V64.1345ZM98.6255 64.1345H99.261V61.7028H100.093V61.2057H97.7588V61.7028H98.624L98.6255 64.1345Z" fill="#F8981D"/>
</svg>
