<svg width="413" height="255" viewBox="0 0 413 255" fill="none" xmlns="http://www.w3.org/2000/svg">
<path d="M63.2464 243.916C74.5358 234.025 75.498 217.904 73.5095 203.709C73.1888 201.333 73.1246 198.828 71.7776 196.837C70.4305 194.846 67.6082 193.754 65.6197 194.974C63.952 196.002 63.3747 198.121 62.6049 199.92C61.5145 202.296 59.7826 204.416 57.6017 205.829C56.1905 206.792 54.3303 207.499 52.7908 206.792C50.6099 205.893 50.0968 203.067 49.8402 200.691C49.3912 196.259 48.9422 191.891 48.4932 187.46C48.2366 185.083 47.98 182.707 47.0178 180.523C46.0557 178.339 44.1955 176.477 41.8863 176.091C39.5771 175.706 36.9472 177.311 36.6906 179.688C36.6265 180.651 36.883 181.679 36.9472 182.642C37.0113 183.606 36.6265 184.762 35.7284 185.147C34.8304 185.533 33.8041 184.955 33.0344 184.377C30.3403 182.257 28.3518 179.367 26.4275 176.477C24.5673 173.586 22.7071 170.632 20.2055 168.255C17.7039 165.879 14.4325 164.145 11.0328 164.337C7.63318 164.53 4.23353 167.035 3.78452 170.439C3.27136 173.843 5.58056 177.055 8.01805 179.495C11.6101 183.156 15.7154 186.303 20.1413 188.744C20.9752 189.194 21.8091 189.643 22.194 190.543C22.8996 192.084 21.5525 193.818 20.0772 194.46C18.4094 195.231 16.421 195.295 14.6249 195.681C12.8289 196.13 10.9045 197.158 10.3914 198.956C9.6858 201.461 11.995 203.774 14.1759 205.251C18.5377 208.141 23.3486 210.261 28.416 211.481C30.212 211.931 32.1363 212.252 33.6758 213.344C35.2153 214.435 36.3057 216.427 35.6001 218.225C34.9587 219.959 32.8419 220.73 30.9817 220.601C29.1216 220.473 27.3897 219.638 25.5936 219.188C22.194 218.289 18.0246 218.996 16.2927 222.014C15.1381 224.006 15.2664 226.575 16.2285 228.694C17.1907 230.814 18.7943 232.548 20.4621 234.154C26.3633 239.677 33.5475 243.852 41.3731 245.65C49.0063 247.577 56.0622 247.513 63.2464 243.916Z" fill="white"/>
<path d="M64.5934 254.45C63.4388 248.862 61.5145 242.311 58.5638 235.374C55.6773 228.437 51.8928 221.051 47.6593 213.472C46.5688 211.609 45.5425 209.747 44.5162 207.884C43.4899 206.022 42.4636 204.223 41.309 202.553C39.0639 199.085 36.6906 196.002 34.3173 193.047C31.9439 190.157 29.5706 187.46 27.3897 184.955C25.1446 182.45 23.0278 180.202 21.0394 178.211C16.9983 174.228 13.4062 171.402 10.8404 169.54C9.55751 168.641 8.5312 167.934 7.82561 167.485C7.50489 167.292 7.24831 167.099 7.05588 166.971C6.86345 166.842 6.7993 166.778 6.7993 166.778C6.7993 166.778 6.86345 166.842 7.05588 166.971C7.24831 167.099 7.50489 167.292 7.82561 167.549C8.5312 167.998 9.49336 168.705 10.7763 169.668C13.2779 171.531 16.87 174.421 20.8469 178.403C22.8354 180.394 24.9522 182.707 27.1331 185.147C29.314 187.652 31.6873 190.35 34.0607 193.24C36.434 196.13 38.8074 199.278 40.9883 202.682C42.0787 204.416 43.105 206.214 44.1313 208.013C45.1577 209.875 46.2481 211.738 47.2744 213.6C51.508 221.179 55.2925 228.501 58.179 235.438C61.0655 242.375 63.0539 248.862 64.2727 254.385" fill="#141621"/>
<path d="M41.1807 202.553C41.1807 202.553 41.2449 202.168 41.309 201.526C41.3731 200.883 41.3731 199.92 41.4373 198.7C41.5014 196.323 41.5014 192.983 41.5014 189.386C41.5014 185.725 41.5014 182.45 41.6297 180.073C41.6939 178.853 41.758 177.89 41.758 177.247C41.8222 176.605 41.8222 176.22 41.758 176.22C41.758 176.22 41.6939 176.605 41.5656 177.247C41.4373 177.89 41.3731 178.853 41.309 180.073C41.1166 182.45 41.0524 185.79 41.0524 189.386C41.1166 192.983 41.1166 196.259 41.1166 198.7C41.1166 199.791 41.1166 200.755 41.1166 201.526C41.1807 202.232 41.1807 202.553 41.1807 202.553Z" fill="#141621"/>
<path d="M10.199 200.241C10.199 200.241 10.648 200.305 11.4177 200.241C12.1875 200.241 13.3421 200.177 14.7532 200.177C17.5756 200.177 21.4243 200.305 25.7219 200.626C30.0196 200.947 33.8683 201.461 36.6265 201.847C38.0377 202.039 39.1281 202.232 39.8978 202.36C40.6676 202.489 41.1166 202.553 41.1166 202.489C41.1166 202.489 40.7317 202.36 39.962 202.168C39.1923 201.975 38.1018 201.718 36.6906 201.526C33.9324 201.012 30.0196 200.498 25.7219 200.177C21.4243 199.856 17.5115 199.791 14.6891 199.856C13.2779 199.92 12.1233 199.984 11.3536 200.048C10.648 200.177 10.199 200.241 10.199 200.241Z" fill="#141621"/>
<path d="M58.1148 234.924C58.1148 234.924 58.179 234.796 58.3073 234.539C58.4355 234.218 58.5638 233.832 58.6921 233.383C59.0128 232.355 59.4619 230.878 60.0392 229.08C61.1296 225.419 62.4766 220.344 63.8237 214.757C65.2348 209.105 66.5177 204.03 67.4799 200.369C67.9931 198.571 68.3779 197.094 68.6986 196.066C68.8269 195.617 68.9552 195.231 69.0194 194.91C69.0835 194.653 69.1477 194.525 69.0835 194.46C69.0835 194.46 69.0194 194.589 68.8911 194.846C68.7628 195.167 68.6345 195.552 68.5062 196.002C68.1855 197.03 67.7365 198.507 67.1592 200.305C66.0687 203.966 64.7217 209.04 63.3747 214.628C61.9635 220.28 60.6806 225.354 59.7184 229.015C59.2053 230.814 58.8204 232.291 58.4997 233.319C58.3714 233.768 58.2431 234.154 58.179 234.475C58.179 234.732 58.1148 234.924 58.1148 234.924Z" fill="#141621"/>
<path d="M16.3568 226.318C16.3568 226.318 16.4851 226.382 16.8058 226.446C17.1266 226.51 17.5114 226.575 18.0246 226.703C19.115 226.96 20.6545 227.217 22.5147 227.602C26.2992 228.373 31.4949 229.529 37.2679 230.814C43.0409 232.098 48.2366 233.19 52.0211 233.897C53.9454 234.218 55.4849 234.539 56.5112 234.667C57.0244 234.732 57.4092 234.796 57.73 234.86C57.9865 234.924 58.179 234.924 58.179 234.924C58.179 234.924 58.0507 234.86 57.73 234.796C57.4092 234.732 57.0244 234.667 56.5112 234.539C55.4208 234.282 53.8813 234.025 52.0211 233.64C48.2366 232.869 43.0409 231.713 37.2679 230.428C31.4949 229.144 26.2992 228.052 22.5147 227.345C20.5904 227.024 19.0509 226.703 18.0246 226.575C17.5114 226.51 17.1266 226.446 16.8058 226.382C16.5493 226.318 16.3568 226.318 16.3568 226.318Z" fill="#141621"/>
<path d="M118.603 87.6487H64.2085V254.45H118.603V87.6487Z" fill="#5BC4D6"/>
<path d="M161.387 87.6487H118.411V254.45H161.387V87.6487Z" fill="white"/>
<path d="M113.215 114.368H67.0951V127.342H113.215V114.368Z" fill="#EDF0FA"/>
<path d="M70.9437 115.973H68.378V125.929H70.9437V115.973Z" fill="white"/>
<path d="M73.1888 118.928C73.6493 118.928 74.0227 118.554 74.0227 118.093C74.0227 117.632 73.6493 117.258 73.1888 117.258C72.7282 117.258 72.3549 117.632 72.3549 118.093C72.3549 118.554 72.7282 118.928 73.1888 118.928Z" fill="white"/>
<path d="M73.1888 122.46C73.6493 122.46 74.0227 122.087 74.0227 121.625C74.0227 121.164 73.6493 120.791 73.1888 120.791C72.7282 120.791 72.3549 121.164 72.3549 121.625C72.3549 122.087 72.7282 122.46 73.1888 122.46Z" fill="white"/>
<path d="M79.8598 117.258H77.294V124.901H79.8598V117.258Z" fill="white"/>
<path d="M83.516 117.258H80.9503V124.901H83.516V117.258Z" fill="white"/>
<path d="M87.1723 117.258H84.6065V124.901H87.1723V117.258Z" fill="white"/>
<path d="M90.8285 117.258H88.2627V124.901H90.8285V117.258Z" fill="white"/>
<path d="M94.5489 117.258H91.9831V124.901H94.5489V117.258Z" fill="white"/>
<path d="M98.2051 117.258H95.6393V124.901H98.2051V117.258Z" fill="white"/>
<path d="M101.861 117.258H99.2956V124.901H101.861V117.258Z" fill="white"/>
<path d="M105.518 117.258H102.952V124.901H105.518V117.258Z" fill="white"/>
<path d="M109.174 117.258H106.608V124.901H109.174V117.258Z" fill="white"/>
<path d="M112.83 117.258H110.264V124.901H112.83V117.258Z" fill="white"/>
<path d="M113.215 135.178H67.0951V148.152H113.215V135.178Z" fill="#EDF0FA"/>
<path d="M70.9437 136.783H68.378V146.739H70.9437V136.783Z" fill="white"/>
<path d="M73.1888 139.738C73.6493 139.738 74.0227 139.364 74.0227 138.903C74.0227 138.442 73.6493 138.068 73.1888 138.068C72.7282 138.068 72.3549 138.442 72.3549 138.903C72.3549 139.364 72.7282 139.738 73.1888 139.738Z" fill="white"/>
<path d="M73.1888 143.271C73.6493 143.271 74.0227 142.897 74.0227 142.436C74.0227 141.974 73.6493 141.601 73.1888 141.601C72.7282 141.601 72.3549 141.974 72.3549 142.436C72.3549 142.897 72.7282 143.271 73.1888 143.271Z" fill="white"/>
<path d="M79.8598 138.068H77.294V145.711H79.8598V138.068Z" fill="white"/>
<path d="M83.516 138.068H80.9503V145.711H83.516V138.068Z" fill="white"/>
<path d="M87.1723 138.068H84.6065V145.711H87.1723V138.068Z" fill="white"/>
<path d="M90.8285 138.068H88.2627V145.711H90.8285V138.068Z" fill="white"/>
<path d="M94.5489 138.068H91.9831V145.711H94.5489V138.068Z" fill="white"/>
<path d="M98.2051 138.068H95.6393V145.711H98.2051V138.068Z" fill="white"/>
<path d="M101.861 138.068H99.2956V145.711H101.861V138.068Z" fill="white"/>
<path d="M105.518 138.068H102.952V145.711H105.518V138.068Z" fill="white"/>
<path d="M109.174 138.068H106.608V145.711H109.174V138.068Z" fill="white"/>
<path d="M112.83 138.068H110.264V145.711H112.83V138.068Z" fill="white"/>
<path d="M113.215 155.988H67.0951V168.962H113.215V155.988Z" fill="#EDF0FA"/>
<path d="M70.9437 157.658H68.378V167.613H70.9437V157.658Z" fill="white"/>
<path d="M73.1888 160.548C73.6493 160.548 74.0227 160.174 74.0227 159.713C74.0227 159.252 73.6493 158.878 73.1888 158.878C72.7282 158.878 72.3549 159.252 72.3549 159.713C72.3549 160.174 72.7282 160.548 73.1888 160.548Z" fill="white"/>
<path d="M73.1888 164.08C73.6493 164.08 74.0227 163.707 74.0227 163.246C74.0227 162.784 73.6493 162.411 73.1888 162.411C72.7282 162.411 72.3549 162.784 72.3549 163.246C72.3549 163.707 72.7282 164.08 73.1888 164.08Z" fill="white"/>
<path d="M79.8598 158.878H77.294V166.521H79.8598V158.878Z" fill="white"/>
<path d="M83.516 158.878H80.9503V166.521H83.516V158.878Z" fill="white"/>
<path d="M87.1723 158.878H84.6065V166.521H87.1723V158.878Z" fill="white"/>
<path d="M90.8285 158.878H88.2627V166.521H90.8285V158.878Z" fill="white"/>
<path d="M94.5489 158.878H91.9831V166.521H94.5489V158.878Z" fill="white"/>
<path d="M98.2051 158.878H95.6393V166.521H98.2051V158.878Z" fill="white"/>
<path d="M101.861 158.878H99.2956V166.521H101.861V158.878Z" fill="white"/>
<path d="M105.518 158.878H102.952V166.521H105.518V158.878Z" fill="white"/>
<path d="M109.174 158.878H106.608V166.521H109.174V158.878Z" fill="white"/>
<path d="M112.83 158.878H110.264V166.521H112.83V158.878Z" fill="white"/>
<path d="M113.215 176.798H67.0951V189.772H113.215V176.798Z" fill="#EDF0FA"/>
<path d="M70.9437 178.468H68.378V188.423H70.9437V178.468Z" fill="white"/>
<path d="M73.1888 181.358C73.6493 181.358 74.0227 180.984 74.0227 180.523C74.0227 180.062 73.6493 179.688 73.1888 179.688C72.7282 179.688 72.3549 180.062 72.3549 180.523C72.3549 180.984 72.7282 181.358 73.1888 181.358Z" fill="white"/>
<path d="M73.1888 184.89C73.6493 184.89 74.0227 184.517 74.0227 184.055C74.0227 183.594 73.6493 183.221 73.1888 183.221C72.7282 183.221 72.3549 183.594 72.3549 184.055C72.3549 184.517 72.7282 184.89 73.1888 184.89Z" fill="white"/>
<path d="M79.8598 179.752H77.294V187.395H79.8598V179.752Z" fill="white"/>
<path d="M83.516 179.752H80.9503V187.395H83.516V179.752Z" fill="white"/>
<path d="M87.1723 179.752H84.6065V187.395H87.1723V179.752Z" fill="white"/>
<path d="M90.8285 179.752H88.2627V187.395H90.8285V179.752Z" fill="white"/>
<path d="M94.5489 179.752H91.9831V187.395H94.5489V179.752Z" fill="white"/>
<path d="M98.2051 179.752H95.6393V187.395H98.2051V179.752Z" fill="white"/>
<path d="M101.861 179.752H99.2956V187.395H101.861V179.752Z" fill="white"/>
<path d="M105.518 179.752H102.952V187.395H105.518V179.752Z" fill="white"/>
<path d="M109.174 179.752H106.608V187.395H109.174V179.752Z" fill="white"/>
<path d="M112.83 179.752H110.264V187.395H112.83V179.752Z" fill="white"/>
<path d="M113.215 197.672H67.0951V210.646H113.215V197.672Z" fill="#EDF0FA"/>
<path d="M70.9437 199.278H68.378V209.233H70.9437V199.278Z" fill="white"/>
<path d="M73.1888 202.232C73.6493 202.232 74.0227 201.858 74.0227 201.397C74.0227 200.936 73.6493 200.562 73.1888 200.562C72.7282 200.562 72.3549 200.936 72.3549 201.397C72.3549 201.858 72.7282 202.232 73.1888 202.232Z" fill="white"/>
<path d="M73.1888 205.701C73.6493 205.701 74.0227 205.327 74.0227 204.866C74.0227 204.404 73.6493 204.031 73.1888 204.031C72.7282 204.031 72.3549 204.404 72.3549 204.866C72.3549 205.327 72.7282 205.701 73.1888 205.701Z" fill="white"/>
<path d="M79.8598 200.562H77.294V208.205H79.8598V200.562Z" fill="white"/>
<path d="M83.516 200.562H80.9503V208.205H83.516V200.562Z" fill="white"/>
<path d="M87.1723 200.562H84.6065V208.205H87.1723V200.562Z" fill="white"/>
<path d="M90.8285 200.562H88.2627V208.205H90.8285V200.562Z" fill="white"/>
<path d="M94.5489 200.562H91.9831V208.205H94.5489V200.562Z" fill="white"/>
<path d="M98.2051 200.562H95.6393V208.205H98.2051V200.562Z" fill="white"/>
<path d="M101.861 200.562H99.2956V208.205H101.861V200.562Z" fill="white"/>
<path d="M105.518 200.562H102.952V208.205H105.518V200.562Z" fill="white"/>
<path d="M109.174 200.562H106.608V208.205H109.174V200.562Z" fill="white"/>
<path d="M112.83 200.562H110.264V208.205H112.83V200.562Z" fill="white"/>
<path d="M113.215 218.482H67.0951V231.456H113.215V218.482Z" fill="#EDF0FA"/>
<path d="M70.9437 220.088H68.378V230.043H70.9437V220.088Z" fill="white"/>
<path d="M73.1888 223.042C73.6493 223.042 74.0227 222.668 74.0227 222.207C74.0227 221.746 73.6493 221.372 73.1888 221.372C72.7282 221.372 72.3549 221.746 72.3549 222.207C72.3549 222.668 72.7282 223.042 73.1888 223.042Z" fill="white"/>
<path d="M73.1888 226.575C73.6493 226.575 74.0227 226.201 74.0227 225.74C74.0227 225.279 73.6493 224.905 73.1888 224.905C72.7282 224.905 72.3549 225.279 72.3549 225.74C72.3549 226.201 72.7282 226.575 73.1888 226.575Z" fill="white"/>
<path d="M79.8598 221.372H77.294V229.015H79.8598V221.372Z" fill="white"/>
<path d="M83.516 221.372H80.9503V229.015H83.516V221.372Z" fill="white"/>
<path d="M87.1723 221.372H84.6065V229.015H87.1723V221.372Z" fill="white"/>
<path d="M90.8285 221.372H88.2627V229.015H90.8285V221.372Z" fill="white"/>
<path d="M94.5489 221.372H91.9831V229.015H94.5489V221.372Z" fill="white"/>
<path d="M98.2051 221.372H95.6393V229.015H98.2051V221.372Z" fill="white"/>
<path d="M101.861 221.372H99.2956V229.015H101.861V221.372Z" fill="white"/>
<path d="M105.518 221.372H102.952V229.015H105.518V221.372Z" fill="white"/>
<path d="M109.174 221.372H106.608V229.015H109.174V221.372Z" fill="white"/>
<path d="M112.83 221.372H110.264V229.015H112.83V221.372Z" fill="white"/>
<path d="M113.215 239.292H67.0951V252.266H113.215V239.292Z" fill="#EDF0FA"/>
<path d="M70.9437 240.962H68.378V250.917H70.9437V240.962Z" fill="white"/>
<path d="M73.1888 243.852C73.6493 243.852 74.0227 243.478 74.0227 243.017C74.0227 242.556 73.6493 242.182 73.1888 242.182C72.7282 242.182 72.3549 242.556 72.3549 243.017C72.3549 243.478 72.7282 243.852 73.1888 243.852Z" fill="white"/>
<path d="M73.1888 247.385C73.6493 247.385 74.0227 247.011 74.0227 246.55C74.0227 246.089 73.6493 245.715 73.1888 245.715C72.7282 245.715 72.3549 246.089 72.3549 246.55C72.3549 247.011 72.7282 247.385 73.1888 247.385Z" fill="white"/>
<path d="M79.8598 242.182H77.294V249.825H79.8598V242.182Z" fill="white"/>
<path d="M83.516 242.182H80.9503V249.825H83.516V242.182Z" fill="white"/>
<path d="M87.1723 242.182H84.6065V249.825H87.1723V242.182Z" fill="white"/>
<path d="M90.8285 242.182H88.2627V249.825H90.8285V242.182Z" fill="white"/>
<path d="M94.5489 242.182H91.9831V249.825H94.5489V242.182Z" fill="white"/>
<path d="M98.2051 242.182H95.6393V249.825H98.2051V242.182Z" fill="white"/>
<path d="M101.861 242.182H99.2956V249.825H101.861V242.182Z" fill="white"/>
<path d="M105.518 242.182H102.952V249.825H105.518V242.182Z" fill="white"/>
<path d="M109.174 242.182H106.608V249.825H109.174V242.182Z" fill="white"/>
<path d="M112.83 242.182H110.264V249.825H112.83V242.182Z" fill="white"/>
<path d="M95.6393 114.368C95.6393 114.368 95.6393 114.239 95.5751 113.982C95.5751 113.725 95.511 113.34 95.511 112.826C95.511 112.312 95.511 111.734 95.4469 111.028C95.3827 110.321 95.3827 109.486 95.1261 108.651C94.8696 107.816 94.4847 106.917 93.9074 106.082C93.3301 105.247 92.4321 104.477 91.4058 104.027C90.3153 103.577 89.0966 103.385 87.8137 103.32C86.5308 103.192 85.1837 103.063 83.8367 102.999C78.3844 102.55 73.4453 102.229 69.8532 102.164C68.0572 102.1 66.646 102.164 65.6197 102.164C65.1707 102.164 64.7858 102.164 64.4651 102.164C64.2085 102.164 64.0802 102.164 64.0802 102.164C64.0802 102.164 64.2085 102.164 64.4651 102.1C64.7858 102.1 65.1707 102.036 65.6197 102.036C66.646 101.972 68.0572 101.972 69.8532 101.972C73.4453 101.972 78.3844 102.229 83.8367 102.742C85.1837 102.871 86.5308 102.999 87.8137 103.063C89.0966 103.192 90.3794 103.385 91.4699 103.834C92.6245 104.284 93.5225 105.119 94.0998 106.018C94.7413 106.917 95.1261 107.816 95.3186 108.716C95.511 109.615 95.5751 110.45 95.5751 111.156C95.5751 111.863 95.5751 112.505 95.5751 112.955C95.5751 113.404 95.5751 113.79 95.5751 114.111C95.6393 114.239 95.6393 114.368 95.6393 114.368Z" fill="white"/>
<path d="M81.6558 114.368C81.6558 114.368 81.6558 114.239 81.6558 113.982C81.6558 113.725 81.6558 113.34 81.6558 112.891C81.6558 112.441 81.6558 111.863 81.5917 111.156C81.5275 110.514 81.3993 109.743 81.0144 109.037C80.6295 108.33 79.7956 107.816 78.9618 107.431C78.0637 107.11 76.9733 106.917 75.947 107.11C75.4338 107.174 74.8565 107.367 74.4075 107.624C73.8944 107.881 73.4453 108.266 73.1888 108.78C72.9322 109.294 72.9322 109.872 73.1888 110.386C73.4453 110.899 73.9585 111.285 74.5358 111.413C75.1131 111.542 75.6904 111.349 76.1394 110.964C76.5884 110.578 76.845 110 76.845 109.422C76.9091 108.844 76.7167 108.33 76.396 107.881C76.0753 107.431 75.6263 107.046 75.1772 106.789C74.7282 106.532 74.2151 106.468 73.6378 106.403C73.1246 106.339 72.6115 106.275 72.0983 106.211C71.1361 106.082 70.174 106.018 69.3401 106.018C67.6724 105.954 66.3253 105.954 65.3632 105.954C64.9141 105.954 64.5934 105.954 64.2727 105.954C64.0161 105.954 63.8878 105.954 63.8878 105.954C63.8878 105.954 64.0161 105.954 64.2727 105.89C64.5293 105.89 64.9141 105.825 65.3632 105.825C66.3253 105.761 67.6724 105.697 69.3401 105.761C70.174 105.761 71.1361 105.825 72.0983 105.954C72.6115 106.018 73.1246 106.082 73.6378 106.147C73.8944 106.211 74.1509 106.211 74.4075 106.275C74.6641 106.339 74.9848 106.403 75.2414 106.532C75.7545 106.789 76.2036 107.174 76.5884 107.688C76.9733 108.202 77.1657 108.78 77.1016 109.486C77.0374 110.129 76.7809 110.771 76.2677 111.221C75.8187 111.67 75.049 111.927 74.3434 111.799C73.6378 111.67 73.0605 111.221 72.7398 110.578C72.419 110 72.419 109.229 72.7398 108.651C73.0605 108.073 73.5736 107.688 74.0868 107.367C74.5999 107.11 75.1772 106.917 75.7545 106.789C76.9091 106.596 77.9996 106.789 78.9618 107.11C79.8598 107.495 80.6937 108.073 81.1427 108.844C81.5917 109.615 81.6558 110.386 81.72 111.092C81.7841 111.799 81.72 112.377 81.72 112.826C81.72 113.276 81.6558 113.597 81.6558 113.918C81.6558 114.239 81.6558 114.368 81.6558 114.368Z" fill="white"/>
<path d="M99.3597 114.368C99.3597 114.368 99.2955 114.239 99.2314 113.918C99.1672 113.661 99.1031 113.212 98.9748 112.698C98.7182 111.606 98.3975 110.064 97.6278 108.266C96.858 106.468 95.7034 104.412 93.5867 102.871C92.5604 102.1 91.2775 101.65 89.9305 101.458C88.5834 101.265 87.1081 101.265 85.6328 101.201C79.6674 101.072 74.2792 101.137 70.3664 100.944C68.4421 100.88 66.8385 100.751 65.748 100.687C65.2349 100.623 64.7859 100.623 64.4651 100.559C64.2086 100.559 64.0161 100.494 64.0161 100.494C64.0161 100.494 64.1444 100.494 64.4651 100.494C64.7859 100.494 65.2349 100.494 65.748 100.559C66.8385 100.623 68.4421 100.687 70.3664 100.687C74.2792 100.751 79.6674 100.751 85.6328 100.816C87.1081 100.88 88.5834 100.88 89.9946 101.072C91.4058 101.265 92.7528 101.715 93.7791 102.55C94.8054 103.385 95.7034 104.284 96.3449 105.247C96.9863 106.211 97.4995 107.174 97.8202 108.073C98.5899 109.872 98.9107 111.477 99.1031 112.569C99.1672 113.083 99.2314 113.533 99.2955 113.79C99.3597 114.175 99.4238 114.368 99.3597 114.368Z" fill="white"/>
<path d="M112.573 89.704H67.7365V96.2553H112.573V89.704Z" fill="#EDF0FA"/>
<path d="M102.054 92.9796H77.6147V96.2552H102.054V92.9796Z" fill="white"/>
<path d="M412.705 254.514C412.705 254.578 320.337 254.707 206.353 254.707C92.368 254.707 0 254.642 0 254.514C0 254.386 92.368 254.321 206.353 254.321C320.337 254.386 412.705 254.45 412.705 254.514Z" fill="#263238"/>
<path d="M378.837 174.293C378.837 174.293 375.116 171.916 370.755 180.716C366.329 189.579 364.661 194.653 364.661 194.653C364.661 194.653 363.506 196.516 362.223 195.295C360.94 194.075 359.209 190.671 357.028 191.313C354.783 191.956 354.077 194.46 354.526 198.121C354.975 201.782 355.681 209.811 355.745 210.582C355.809 211.288 355.424 212.38 354.398 211.674C353.371 210.967 347.598 204.673 344.776 207.563C341.954 210.453 344.904 220.473 345.161 221.565C345.482 222.657 345.225 223.106 344.712 223.427C344.199 223.749 342.467 221.372 340.735 219.638C339.003 217.904 336.758 216.17 335.219 218.032C333.743 219.831 333.294 227.345 340.543 239.549L344.263 244.944L350.87 244.494C364.917 242.76 370.562 237.75 371.075 235.502C371.588 233.19 368.83 232.419 366.393 232.162C363.955 231.906 361.069 231.906 361.005 231.328C360.876 230.749 361.133 230.3 362.223 229.85C363.25 229.401 372.935 225.611 373.513 221.565C374.09 217.518 365.559 216.876 364.404 216.491C363.25 216.105 363.827 215.142 364.468 214.757C365.11 214.371 371.845 209.939 374.988 208.077C378.131 206.214 379.671 204.095 378.837 201.911C378.003 199.856 374.218 200.562 372.551 200.241C370.819 199.984 371.588 197.929 371.588 197.929C371.588 197.929 374.603 193.497 378.837 184.569C383.07 175.642 378.837 174.164 378.837 174.164" fill="#5BC4D6"/>
<path d="M374.86 182.193C374.86 182.193 374.86 182.257 374.796 182.386C374.732 182.514 374.667 182.707 374.539 182.964C374.283 183.477 373.962 184.184 373.577 185.083C372.743 186.946 371.46 189.579 369.857 192.855C366.714 199.406 362.288 208.398 357.348 218.289C352.409 228.245 347.983 237.237 344.84 243.724C343.237 246.999 341.954 249.633 341.056 251.431C340.607 252.33 340.286 253.037 340.029 253.551C339.901 253.807 339.837 253.936 339.773 254.064C339.709 254.193 339.645 254.257 339.645 254.257C339.645 254.257 339.645 254.193 339.709 254.064C339.773 253.936 339.837 253.743 339.965 253.486C340.222 252.972 340.543 252.266 340.927 251.367C341.761 249.504 343.044 246.871 344.648 243.595C347.791 237.044 352.217 228.052 357.156 218.097C362.095 208.141 366.521 199.213 369.664 192.662C371.268 189.386 372.551 186.753 373.449 184.955C373.898 184.055 374.218 183.349 374.475 182.835C374.603 182.578 374.667 182.45 374.732 182.321C374.796 182.257 374.86 182.193 374.86 182.193Z" fill="#263238"/>
<path d="M359.273 196.195C359.273 196.195 359.337 196.323 359.465 196.644C359.593 196.965 359.722 197.351 359.85 197.865C360.171 198.892 360.556 200.369 360.941 201.975C361.325 203.581 361.646 204.994 361.967 206.086C362.095 206.6 362.159 206.985 362.288 207.37C362.352 207.692 362.416 207.82 362.352 207.82C362.352 207.82 362.288 207.692 362.159 207.37C362.031 207.049 361.903 206.664 361.774 206.15C361.454 205.122 361.133 203.645 360.684 202.039C360.299 200.434 359.914 199.021 359.658 197.929C359.529 197.415 359.401 197.03 359.337 196.708C359.337 196.387 359.273 196.195 359.273 196.195Z" fill="#263238"/>
<path d="M369.565 205.885C365.897 206.974 362.94 207.912 362.96 207.98C362.98 208.048 365.97 207.221 369.638 206.131C373.306 205.042 376.263 204.104 376.243 204.036C376.223 203.968 373.233 204.796 369.565 205.885Z" fill="#263238"/>
<path d="M354.719 222.849C354.719 222.849 354.911 222.849 355.232 222.849C355.617 222.849 356.001 222.849 356.579 222.849C357.669 222.849 359.209 222.849 360.941 222.721C362.608 222.657 364.148 222.528 365.302 222.4C365.816 222.336 366.265 222.336 366.585 222.271C366.906 222.271 367.098 222.271 367.098 222.271C367.098 222.271 366.906 222.336 366.649 222.4C366.329 222.464 365.88 222.528 365.367 222.592C364.276 222.721 362.737 222.849 361.005 222.978C359.337 223.042 357.797 223.042 356.643 223.042C356.066 223.042 355.617 222.978 355.296 222.978C354.911 222.914 354.719 222.914 354.719 222.849Z" fill="#263238"/>
<path d="M349.074 212.958C349.074 212.958 349.202 213.087 349.33 213.344C349.459 213.6 349.715 213.922 349.972 214.371C350.485 215.27 351.255 216.491 352.024 217.84C352.794 219.188 353.5 220.409 354.013 221.308C354.269 221.757 354.462 222.143 354.59 222.4C354.718 222.657 354.783 222.785 354.783 222.785C354.783 222.785 354.654 222.657 354.526 222.4C354.398 222.143 354.141 221.822 353.885 221.372C353.371 220.473 352.602 219.253 351.832 217.904C351.062 216.555 350.357 215.335 349.844 214.435C349.587 213.986 349.395 213.6 349.266 213.344C349.138 213.087 349.074 212.958 349.074 212.958Z" fill="#263238"/>
<path d="M340.158 225.162C340.158 225.162 340.286 225.29 340.479 225.611C340.671 225.932 340.992 226.382 341.312 226.96C342.018 228.052 342.98 229.658 344.006 231.392C345.033 233.126 345.995 234.667 346.636 235.824C346.957 236.337 347.214 236.851 347.406 237.172C347.599 237.493 347.663 237.686 347.663 237.686C347.663 237.686 347.534 237.558 347.342 237.237C347.149 236.915 346.829 236.466 346.508 235.888C345.802 234.796 344.84 233.19 343.814 231.456C342.788 229.722 341.826 228.18 341.184 227.024C340.863 226.51 340.607 225.997 340.414 225.675C340.222 225.354 340.094 225.226 340.158 225.162Z" fill="#263238"/>
<path d="M347.534 237.365C347.534 237.365 347.727 237.301 348.176 237.301C348.625 237.301 349.202 237.237 349.844 237.237C351.255 237.172 353.179 237.108 355.36 236.915C357.477 236.787 359.465 236.594 360.876 236.402C361.518 236.337 362.095 236.273 362.544 236.209C362.929 236.145 363.186 236.145 363.186 236.145C363.186 236.145 362.993 236.209 362.608 236.273C362.223 236.337 361.646 236.402 360.941 236.53C359.529 236.723 357.605 236.915 355.424 237.108C353.307 237.237 351.319 237.365 349.908 237.365C349.202 237.365 348.625 237.365 348.24 237.365C347.727 237.365 347.534 237.365 347.534 237.365Z" fill="#263238"/>
<path d="M61.2579 236.851C59.2694 235.824 56.8961 235.631 54.651 236.016C53.4323 236.209 52.2135 236.53 51.3797 237.429C50.5458 238.328 50.4175 239.934 51.3155 240.705C51.8928 241.154 52.6626 241.219 53.3681 241.219C55.1 241.219 57.0244 240.898 58.4355 241.989C59.2053 242.568 59.7184 243.595 60.6806 243.916C61.5786 244.237 62.6691 243.659 63.1822 242.824C63.6954 241.989 63.6954 240.962 63.503 239.998C63.503 239.934 63.3105 237.879 61.2579 236.851Z" fill="#E8505B"/>
<path d="M61.2579 236.851C59.2694 235.824 56.8961 235.631 54.651 236.016C53.4323 236.209 52.2135 236.53 51.3797 237.429C50.5458 238.328 50.4175 239.934 51.3155 240.705C51.8928 241.154 52.6626 241.219 53.3681 241.219C55.1 241.219 57.0244 240.898 58.4355 241.989C59.2053 242.568 59.7184 243.595 60.6806 243.916C61.5786 244.237 62.6691 243.659 63.1822 242.824C63.6954 241.989 63.6954 240.962 63.503 239.998C63.503 239.934 63.3105 237.879 61.2579 236.851Z" fill="#4164A9"/>
<path d="M65.9404 227.988C64.7217 229.722 62.3483 229.144 61.1938 228.052C60.1033 226.96 59.6543 225.419 59.2053 223.941C58.2431 220.537 57.2809 217.005 58.0507 213.536C58.2431 212.509 58.6921 211.481 59.3977 210.71C60.1033 209.94 61.2579 209.49 62.2842 209.811C63.5029 210.132 64.2085 211.353 64.7858 212.444C66.3253 215.72 67.1592 219.381 67.1592 223.042C67.095 224.776 66.9026 226.575 65.9404 227.988Z" fill="#E8505B"/>
<path d="M65.9404 227.988C64.7217 229.722 62.3483 229.144 61.1938 228.052C60.1033 226.96 59.6543 225.419 59.2053 223.941C58.2431 220.537 57.2809 217.005 58.0507 213.536C58.2431 212.509 58.6921 211.481 59.3977 210.71C60.1033 209.94 61.2579 209.49 62.2842 209.811C63.5029 210.132 64.2085 211.353 64.7858 212.444C66.3253 215.72 67.1592 219.381 67.1592 223.042C67.095 224.776 66.9026 226.575 65.9404 227.988Z" fill="#4164A9"/>
<path d="M69.276 230.493C67.9289 228.887 67.7365 226.575 68.3138 224.584C68.8911 222.593 70.3023 220.923 71.8417 219.574C73.6378 217.968 75.8187 216.748 78.0637 215.913C78.9618 215.592 79.9239 215.335 80.8861 215.463C81.8483 215.592 82.8104 216.041 83.1953 216.876C83.8367 218.161 83.1953 219.638 82.4897 220.858C81.271 223.042 79.9239 225.097 78.3845 227.089C77.1657 228.63 75.7545 230.236 73.8944 230.942C72.0342 231.649 70.1098 231.52 69.0835 230.236" fill="#4164A9"/>
<path d="M65.8122 254.45C65.8122 254.45 65.748 254.193 65.6839 253.679C65.6197 253.101 65.5556 252.394 65.4915 251.495C65.4273 250.596 65.299 249.504 65.0424 248.284C64.7859 247.128 64.401 245.843 63.8878 244.494C63.3747 243.21 62.7332 241.989 61.9635 241.09C61.1938 240.127 60.3599 239.42 59.526 239.035C58.6922 238.65 57.9866 238.457 57.4734 238.393C56.9602 238.328 56.7037 238.264 56.7037 238.264C56.7037 238.264 56.9603 238.264 57.5376 238.264C58.0507 238.328 58.8204 238.457 59.6543 238.842C60.4882 239.228 61.4504 239.934 62.2201 240.898C62.9898 241.861 63.6313 243.081 64.2086 244.366C64.7217 245.715 65.1066 246.999 65.3632 248.22C65.6197 249.44 65.6839 250.532 65.748 251.431C65.8122 252.33 65.8122 253.101 65.8122 253.615C65.8763 254.129 65.8763 254.45 65.8122 254.45Z" fill="#141621"/>
<path d="M65.6839 252.78C65.6839 252.78 65.6839 252.651 65.6839 252.394C65.6839 252.137 65.6839 251.752 65.6839 251.367C65.6839 250.468 65.6839 249.119 65.6839 247.449C65.6197 244.173 65.3632 239.613 64.85 234.667C64.3368 229.658 63.6313 225.226 62.9898 222.014C62.8615 221.179 62.6691 220.473 62.5408 219.831C62.4125 219.188 62.2842 218.675 62.1559 218.225C62.0276 217.775 61.9635 217.454 61.8994 217.197C61.8352 216.94 61.8352 216.812 61.8352 216.812C61.8352 216.812 61.8993 216.94 61.9635 217.133C62.0276 217.39 62.1559 217.711 62.2842 218.161C62.4125 218.61 62.5408 219.124 62.7332 219.766C62.9257 220.409 63.0539 221.115 63.2464 221.95C63.952 225.162 64.6576 229.658 65.1707 234.667C65.6839 239.677 65.8763 244.173 65.8763 247.513C65.8763 249.183 65.8122 250.468 65.8122 251.431C65.8122 251.881 65.748 252.202 65.748 252.459C65.748 252.651 65.6839 252.78 65.6839 252.78Z" fill="#141621"/>
<path d="M65.748 243.981C65.748 243.981 65.748 243.595 65.748 242.889C65.8121 242.182 65.8763 241.154 66.1329 239.87C66.3253 238.585 66.646 237.108 67.1592 235.502C67.6082 233.897 68.2496 232.163 69.0194 230.364C70.5588 226.767 72.6115 223.877 74.4075 222.079C74.8565 221.629 75.3055 221.244 75.6904 220.923C75.8828 220.73 76.0753 220.601 76.2035 220.473C76.396 220.345 76.5243 220.216 76.7167 220.152C77.294 219.766 77.6147 219.574 77.6789 219.574C77.743 219.638 76.3318 220.473 74.5999 222.271C72.868 224.07 70.8795 227.024 69.3401 230.557C68.5703 232.291 67.9289 234.025 67.4799 235.631C66.9667 237.237 66.646 238.714 66.3894 239.934C66.1329 241.154 66.0046 242.182 65.9404 242.889C65.8121 243.595 65.748 243.981 65.748 243.981Z" fill="#141621"/>
<path d="M171.009 63.1777C171.115 63.1777 171.201 56.1037 171.201 47.3775C171.201 38.6513 171.115 31.5773 171.009 31.5773C170.903 31.5773 170.816 38.6513 170.816 47.3775C170.816 56.1037 170.903 63.1777 171.009 63.1777Z" fill="#141621"/>
<path d="M333.358 170.568H261.068V250.018H333.358V170.568Z" fill="#141621"/>
<path d="M329.51 186.432H250.484V206.086H329.51V186.432Z" fill="#2F3549"/>
<path d="M269.599 190.478H254.012V192.855H269.599V190.478Z" fill="#141621"/>
<path d="M269.599 194.589H254.012V196.965H269.599V194.589Z" fill="#141621"/>
<path d="M269.599 198.892H254.012V201.269H269.599V198.892Z" fill="#141621"/>
<path d="M274.859 192.855C275.355 192.855 275.757 192.452 275.757 191.956C275.757 191.459 275.355 191.056 274.859 191.056C274.363 191.056 273.961 191.459 273.961 191.956C273.961 192.452 274.363 192.855 274.859 192.855Z" fill="#141621"/>
<path d="M278.771 192.855C279.267 192.855 279.67 192.452 279.67 191.956C279.67 191.459 279.267 191.056 278.771 191.056C278.276 191.056 277.873 191.459 277.873 191.956C277.873 192.452 278.276 192.855 278.771 192.855Z" fill="#141621"/>
<path d="M282.748 192.855C283.244 192.855 283.646 192.452 283.646 191.956C283.646 191.459 283.244 191.056 282.748 191.056C282.252 191.056 281.85 191.459 281.85 191.956C281.85 192.452 282.252 192.855 282.748 192.855Z" fill="#141621"/>
<path d="M286.661 192.855C287.157 192.855 287.559 192.452 287.559 191.956C287.559 191.459 287.157 191.056 286.661 191.056C286.165 191.056 285.763 191.459 285.763 191.956C285.763 192.452 286.165 192.855 286.661 192.855Z" fill="#141621"/>
<path d="M317.194 192.855C317.69 192.855 318.092 192.452 318.092 191.956C318.092 191.459 317.69 191.056 317.194 191.056C316.698 191.056 316.296 191.459 316.296 191.956C316.296 192.452 316.698 192.855 317.194 192.855Z" fill="#141621"/>
<path d="M321.235 192.855C321.731 192.855 322.133 192.452 322.133 191.956C322.133 191.459 321.731 191.056 321.235 191.056C320.739 191.056 320.337 191.459 320.337 191.956C320.337 192.452 320.739 192.855 321.235 192.855Z" fill="#141621"/>
<path d="M290.574 192.855C291.07 192.855 291.472 192.452 291.472 191.956C291.472 191.459 291.07 191.056 290.574 191.056C290.078 191.056 289.676 191.459 289.676 191.956C289.676 192.452 290.078 192.855 290.574 192.855Z" fill="#141621"/>
<path d="M309.946 192.855C310.442 192.855 310.844 192.452 310.844 191.956C310.844 191.459 310.442 191.056 309.946 191.056C309.45 191.056 309.048 191.459 309.048 191.956C309.048 192.452 309.45 192.855 309.946 192.855Z" fill="#141621"/>
<path d="M294.551 192.855C295.047 192.855 295.449 192.452 295.449 191.956C295.449 191.459 295.047 191.056 294.551 191.056C294.055 191.056 293.653 191.459 293.653 191.956C293.653 192.452 294.055 192.855 294.551 192.855Z" fill="#F5F5F5"/>
<path d="M298.464 192.855C298.96 192.855 299.362 192.452 299.362 191.956C299.362 191.459 298.96 191.056 298.464 191.056C297.968 191.056 297.566 191.459 297.566 191.956C297.566 192.452 297.968 192.855 298.464 192.855Z" fill="#F5F5F5"/>
<path d="M306.482 192.855C306.978 192.855 307.38 192.452 307.38 191.956C307.38 191.459 306.978 191.056 306.482 191.056C305.986 191.056 305.584 191.459 305.584 191.956C305.584 192.452 305.986 192.855 306.482 192.855Z" fill="#F5F5F5"/>
<path d="M324.442 192.855C324.938 192.855 325.34 192.452 325.34 191.956C325.34 191.459 324.938 191.056 324.442 191.056C323.946 191.056 323.544 191.459 323.544 191.956C323.544 192.452 323.946 192.855 324.442 192.855Z" fill="#F5F5F5"/>
<path d="M302.441 192.855C302.937 192.855 303.339 192.452 303.339 191.956C303.339 191.459 302.937 191.056 302.441 191.056C301.945 191.056 301.543 191.459 301.543 191.956C301.543 192.452 301.945 192.855 302.441 192.855Z" fill="#5BC4D6"/>
<path d="M313.666 192.855C314.162 192.855 314.564 192.452 314.564 191.956C314.564 191.459 314.162 191.056 313.666 191.056C313.17 191.056 312.768 191.459 312.768 191.956C312.768 192.452 313.17 192.855 313.666 192.855Z" fill="#5BC4D6"/>
<path d="M324.442 197.158C324.938 197.158 325.34 196.755 325.34 196.259C325.34 195.762 324.938 195.36 324.442 195.36C323.946 195.36 323.544 195.762 323.544 196.259C323.544 196.755 323.946 197.158 324.442 197.158Z" fill="#141621"/>
<path d="M320.529 197.158C321.025 197.158 321.428 196.755 321.428 196.259C321.428 195.762 321.025 195.36 320.529 195.36C320.034 195.36 319.631 195.762 319.631 196.259C319.631 196.755 320.034 197.158 320.529 197.158Z" fill="#141621"/>
<path d="M316.617 197.158C317.113 197.158 317.515 196.755 317.515 196.259C317.515 195.762 317.113 195.36 316.617 195.36C316.121 195.36 315.719 195.762 315.719 196.259C315.719 196.755 316.121 197.158 316.617 197.158Z" fill="#141621"/>
<path d="M312.64 197.158C313.136 197.158 313.538 196.755 313.538 196.259C313.538 195.762 313.136 195.36 312.64 195.36C312.144 195.36 311.742 195.762 311.742 196.259C311.742 196.755 312.144 197.158 312.64 197.158Z" fill="#141621"/>
<path d="M282.107 197.158C282.603 197.158 283.005 196.755 283.005 196.259C283.005 195.762 282.603 195.36 282.107 195.36C281.611 195.36 281.209 195.762 281.209 196.259C281.209 196.755 281.611 197.158 282.107 197.158Z" fill="#141621"/>
<path d="M278.13 197.158C278.626 197.158 279.028 196.755 279.028 196.259C279.028 195.762 278.626 195.36 278.13 195.36C277.634 195.36 277.232 195.762 277.232 196.259C277.232 196.755 277.634 197.158 278.13 197.158Z" fill="#141621"/>
<path d="M308.727 197.158C309.223 197.158 309.625 196.755 309.625 196.259C309.625 195.762 309.223 195.36 308.727 195.36C308.231 195.36 307.829 195.762 307.829 196.259C307.829 196.755 308.231 197.158 308.727 197.158Z" fill="#141621"/>
<path d="M289.355 197.158C289.851 197.158 290.253 196.755 290.253 196.259C290.253 195.762 289.851 195.36 289.355 195.36C288.859 195.36 288.457 195.762 288.457 196.259C288.457 196.755 288.859 197.158 289.355 197.158Z" fill="#141621"/>
<path d="M304.75 197.158C305.246 197.158 305.648 196.755 305.648 196.259C305.648 195.762 305.246 195.36 304.75 195.36C304.254 195.36 303.852 195.762 303.852 196.259C303.852 196.755 304.254 197.158 304.75 197.158Z" fill="#F5F5F5"/>
<path d="M300.837 197.158C301.333 197.158 301.735 196.755 301.735 196.259C301.735 195.762 301.333 195.36 300.837 195.36C300.341 195.36 299.939 195.762 299.939 196.259C299.939 196.755 300.341 197.158 300.837 197.158Z" fill="#F5F5F5"/>
<path d="M292.819 197.158C293.315 197.158 293.717 196.755 293.717 196.259C293.717 195.762 293.315 195.36 292.819 195.36C292.323 195.36 291.921 195.762 291.921 196.259C291.921 196.755 292.323 197.158 292.819 197.158Z" fill="#F5F5F5"/>
<path d="M274.859 197.158C275.355 197.158 275.757 196.755 275.757 196.259C275.757 195.762 275.355 195.36 274.859 195.36C274.363 195.36 273.961 195.762 273.961 196.259C273.961 196.755 274.363 197.158 274.859 197.158Z" fill="#F5F5F5"/>
<path d="M296.924 197.158C297.42 197.158 297.822 196.755 297.822 196.259C297.822 195.762 297.42 195.36 296.924 195.36C296.428 195.36 296.026 195.762 296.026 196.259C296.026 196.755 296.428 197.158 296.924 197.158Z" fill="#5BC4D6"/>
<path d="M285.635 197.158C286.131 197.158 286.533 196.755 286.533 196.259C286.533 195.762 286.131 195.36 285.635 195.36C285.139 195.36 284.737 195.762 284.737 196.259C284.737 196.755 285.139 197.158 285.635 197.158Z" fill="#5BC4D6"/>
<path d="M274.859 201.012C275.355 201.012 275.757 200.609 275.757 200.113C275.757 199.616 275.355 199.213 274.859 199.213C274.363 199.213 273.961 199.616 273.961 200.113C273.961 200.609 274.363 201.012 274.859 201.012Z" fill="#141621"/>
<path d="M278.771 201.012C279.267 201.012 279.67 200.609 279.67 200.113C279.67 199.616 279.267 199.213 278.771 199.213C278.276 199.213 277.873 199.616 277.873 200.113C277.873 200.609 278.276 201.012 278.771 201.012Z" fill="#141621"/>
<path d="M282.748 201.012C283.244 201.012 283.646 200.609 283.646 200.113C283.646 199.616 283.244 199.213 282.748 199.213C282.252 199.213 281.85 199.616 281.85 200.113C281.85 200.609 282.252 201.012 282.748 201.012Z" fill="#141621"/>
<path d="M286.661 201.012C287.157 201.012 287.559 200.609 287.559 200.113C287.559 199.616 287.157 199.213 286.661 199.213C286.165 199.213 285.763 199.616 285.763 200.113C285.763 200.609 286.165 201.012 286.661 201.012Z" fill="#141621"/>
<path d="M317.194 201.012C317.69 201.012 318.092 200.609 318.092 200.113C318.092 199.616 317.69 199.213 317.194 199.213C316.698 199.213 316.296 199.616 316.296 200.113C316.296 200.609 316.698 201.012 317.194 201.012Z" fill="#141621"/>
<path d="M321.235 201.012C321.731 201.012 322.133 200.609 322.133 200.113C322.133 199.616 321.731 199.213 321.235 199.213C320.739 199.213 320.337 199.616 320.337 200.113C320.337 200.609 320.739 201.012 321.235 201.012Z" fill="#141621"/>
<path d="M290.574 201.012C291.07 201.012 291.472 200.609 291.472 200.113C291.472 199.616 291.07 199.213 290.574 199.213C290.078 199.213 289.676 199.616 289.676 200.113C289.676 200.609 290.078 201.012 290.574 201.012Z" fill="#141621"/>
<path d="M309.946 201.012C310.442 201.012 310.844 200.609 310.844 200.113C310.844 199.616 310.442 199.213 309.946 199.213C309.45 199.213 309.048 199.616 309.048 200.113C309.048 200.609 309.45 201.012 309.946 201.012Z" fill="#141621"/>
<path d="M294.551 201.012C295.047 201.012 295.449 200.609 295.449 200.113C295.449 199.616 295.047 199.213 294.551 199.213C294.055 199.213 293.653 199.616 293.653 200.113C293.653 200.609 294.055 201.012 294.551 201.012Z" fill="#F5F5F5"/>
<path d="M298.464 201.012C298.96 201.012 299.362 200.609 299.362 200.113C299.362 199.616 298.96 199.213 298.464 199.213C297.968 199.213 297.566 199.616 297.566 200.113C297.566 200.609 297.968 201.012 298.464 201.012Z" fill="#F5F5F5"/>
<path d="M306.482 201.012C306.978 201.012 307.38 200.609 307.38 200.113C307.38 199.616 306.978 199.213 306.482 199.213C305.986 199.213 305.584 199.616 305.584 200.113C305.584 200.609 305.986 201.012 306.482 201.012Z" fill="#F5F5F5"/>
<path d="M324.442 201.012C324.938 201.012 325.34 200.609 325.34 200.113C325.34 199.616 324.938 199.213 324.442 199.213C323.946 199.213 323.544 199.616 323.544 200.113C323.544 200.609 323.946 201.012 324.442 201.012Z" fill="#F5F5F5"/>
<path d="M302.441 201.012C302.937 201.012 303.339 200.609 303.339 200.113C303.339 199.616 302.937 199.213 302.441 199.213C301.945 199.213 301.543 199.616 301.543 200.113C301.543 200.609 301.945 201.012 302.441 201.012Z" fill="#5BC4D6"/>
<path d="M313.666 201.012C314.162 201.012 314.564 200.609 314.564 200.113C314.564 199.616 314.162 199.213 313.666 199.213C313.17 199.213 312.768 199.616 312.768 200.113C312.768 200.609 313.17 201.012 313.666 201.012Z" fill="#5BC4D6"/>
<path d="M329.51 210.646H250.484V230.3H329.51V210.646Z" fill="#2F3549"/>
<path d="M274.666 216.876C275.162 216.876 275.564 216.474 275.564 215.977C275.564 215.48 275.162 215.078 274.666 215.078C274.17 215.078 273.768 215.48 273.768 215.977C273.768 216.474 274.17 216.876 274.666 216.876Z" fill="#141621"/>
<path d="M278.579 216.876C279.075 216.876 279.477 216.474 279.477 215.977C279.477 215.48 279.075 215.078 278.579 215.078C278.083 215.078 277.681 215.48 277.681 215.977C277.681 216.474 278.083 216.876 278.579 216.876Z" fill="#141621"/>
<path d="M282.556 216.876C283.052 216.876 283.454 216.474 283.454 215.977C283.454 215.48 283.052 215.078 282.556 215.078C282.06 215.078 281.658 215.48 281.658 215.977C281.658 216.474 282.06 216.876 282.556 216.876Z" fill="#141621"/>
<path d="M286.469 216.876C286.965 216.876 287.367 216.474 287.367 215.977C287.367 215.48 286.965 215.078 286.469 215.078C285.973 215.078 285.571 215.48 285.571 215.977C285.571 216.474 285.973 216.876 286.469 216.876Z" fill="#141621"/>
<path d="M317.001 216.876C317.497 216.876 317.899 216.474 317.899 215.977C317.899 215.48 317.497 215.078 317.001 215.078C316.506 215.078 316.103 215.48 316.103 215.977C316.103 216.474 316.506 216.876 317.001 216.876Z" fill="#141621"/>
<path d="M320.978 216.876C321.474 216.876 321.876 216.474 321.876 215.977C321.876 215.48 321.474 215.078 320.978 215.078C320.482 215.078 320.08 215.48 320.08 215.977C320.08 216.474 320.482 216.876 320.978 216.876Z" fill="#141621"/>
<path d="M290.382 216.876C290.877 216.876 291.28 216.474 291.28 215.977C291.28 215.48 290.877 215.078 290.382 215.078C289.886 215.078 289.484 215.48 289.484 215.977C289.484 216.474 289.886 216.876 290.382 216.876Z" fill="#141621"/>
<path d="M309.753 216.876C310.249 216.876 310.651 216.474 310.651 215.977C310.651 215.48 310.249 215.078 309.753 215.078C309.257 215.078 308.855 215.48 308.855 215.977C308.855 216.474 309.257 216.876 309.753 216.876Z" fill="#141621"/>
<path d="M294.358 216.876C294.854 216.876 295.257 216.474 295.257 215.977C295.257 215.48 294.854 215.078 294.358 215.078C293.863 215.078 293.46 215.48 293.46 215.977C293.46 216.474 293.863 216.876 294.358 216.876Z" fill="#F5F5F5"/>
<path d="M298.271 216.876C298.767 216.876 299.169 216.474 299.169 215.977C299.169 215.48 298.767 215.078 298.271 215.078C297.775 215.078 297.373 215.48 297.373 215.977C297.373 216.474 297.775 216.876 298.271 216.876Z" fill="#F5F5F5"/>
<path d="M306.289 216.876C306.785 216.876 307.187 216.474 307.187 215.977C307.187 215.48 306.785 215.078 306.289 215.078C305.793 215.078 305.391 215.48 305.391 215.977C305.391 216.474 305.793 216.876 306.289 216.876Z" fill="#F5F5F5"/>
<path d="M324.25 216.876C324.746 216.876 325.148 216.474 325.148 215.977C325.148 215.48 324.746 215.078 324.25 215.078C323.754 215.078 323.352 215.48 323.352 215.977C323.352 216.474 323.754 216.876 324.25 216.876Z" fill="#F5F5F5"/>
<path d="M302.248 216.876C302.744 216.876 303.146 216.474 303.146 215.977C303.146 215.48 302.744 215.078 302.248 215.078C301.752 215.078 301.35 215.48 301.35 215.977C301.35 216.474 301.752 216.876 302.248 216.876Z" fill="#5BC4D6"/>
<path d="M313.474 216.876C313.97 216.876 314.372 216.474 314.372 215.977C314.372 215.48 313.97 215.078 313.474 215.078C312.978 215.078 312.576 215.48 312.576 215.977C312.576 216.474 312.978 216.876 313.474 216.876Z" fill="#5BC4D6"/>
<path d="M324.25 221.18C324.746 221.18 325.148 220.777 325.148 220.28C325.148 219.784 324.746 219.381 324.25 219.381C323.754 219.381 323.352 219.784 323.352 220.28C323.352 220.777 323.754 221.18 324.25 221.18Z" fill="#141621"/>
<path d="M320.337 221.18C320.833 221.18 321.235 220.777 321.235 220.28C321.235 219.784 320.833 219.381 320.337 219.381C319.841 219.381 319.439 219.784 319.439 220.28C319.439 220.777 319.841 221.18 320.337 221.18Z" fill="#141621"/>
<path d="M316.424 221.18C316.92 221.18 317.322 220.777 317.322 220.28C317.322 219.784 316.92 219.381 316.424 219.381C315.928 219.381 315.526 219.784 315.526 220.28C315.526 220.777 315.928 221.18 316.424 221.18Z" fill="#141621"/>
<path d="M312.447 221.18C312.943 221.18 313.345 220.777 313.345 220.28C313.345 219.784 312.943 219.381 312.447 219.381C311.951 219.381 311.549 219.784 311.549 220.28C311.549 220.777 311.951 221.18 312.447 221.18Z" fill="#141621"/>
<path d="M281.914 221.18C282.41 221.18 282.812 220.777 282.812 220.28C282.812 219.784 282.41 219.381 281.914 219.381C281.419 219.381 281.016 219.784 281.016 220.28C281.016 220.777 281.419 221.18 281.914 221.18Z" fill="#141621"/>
<path d="M277.937 221.18C278.433 221.18 278.836 220.777 278.836 220.28C278.836 219.784 278.433 219.381 277.937 219.381C277.442 219.381 277.039 219.784 277.039 220.28C277.039 220.777 277.442 221.18 277.937 221.18Z" fill="#141621"/>
<path d="M308.534 221.18C309.03 221.18 309.432 220.777 309.432 220.28C309.432 219.784 309.03 219.381 308.534 219.381C308.038 219.381 307.636 219.784 307.636 220.28C307.636 220.777 308.038 221.18 308.534 221.18Z" fill="#141621"/>
<path d="M289.163 221.18C289.659 221.18 290.061 220.777 290.061 220.28C290.061 219.784 289.659 219.381 289.163 219.381C288.667 219.381 288.265 219.784 288.265 220.28C288.265 220.777 288.667 221.18 289.163 221.18Z" fill="#141621"/>
<path d="M304.557 221.18C305.053 221.18 305.455 220.777 305.455 220.28C305.455 219.784 305.053 219.381 304.557 219.381C304.061 219.381 303.659 219.784 303.659 220.28C303.659 220.777 304.061 221.18 304.557 221.18Z" fill="#F5F5F5"/>
<path d="M300.645 221.18C301.141 221.18 301.543 220.777 301.543 220.28C301.543 219.784 301.141 219.381 300.645 219.381C300.149 219.381 299.747 219.784 299.747 220.28C299.747 220.777 300.149 221.18 300.645 221.18Z" fill="#F5F5F5"/>
<path d="M292.627 221.18C293.123 221.18 293.525 220.777 293.525 220.28C293.525 219.784 293.123 219.381 292.627 219.381C292.131 219.381 291.729 219.784 291.729 220.28C291.729 220.777 292.131 221.18 292.627 221.18Z" fill="#F5F5F5"/>
<path d="M274.666 221.18C275.162 221.18 275.564 220.777 275.564 220.28C275.564 219.784 275.162 219.381 274.666 219.381C274.17 219.381 273.768 219.784 273.768 220.28C273.768 220.777 274.17 221.18 274.666 221.18Z" fill="#F5F5F5"/>
<path d="M296.732 221.18C297.228 221.18 297.63 220.777 297.63 220.28C297.63 219.784 297.228 219.381 296.732 219.381C296.236 219.381 295.834 219.784 295.834 220.28C295.834 220.777 296.236 221.18 296.732 221.18Z" fill="#5BC4D6"/>
<path d="M285.442 221.18C285.938 221.18 286.34 220.777 286.34 220.28C286.34 219.784 285.938 219.381 285.442 219.381C284.946 219.381 284.544 219.784 284.544 220.28C284.544 220.777 284.946 221.18 285.442 221.18Z" fill="#5BC4D6"/>
<path d="M274.666 225.033C275.162 225.033 275.564 224.631 275.564 224.134C275.564 223.637 275.162 223.235 274.666 223.235C274.17 223.235 273.768 223.637 273.768 224.134C273.768 224.631 274.17 225.033 274.666 225.033Z" fill="#141621"/>
<path d="M278.579 225.033C279.075 225.033 279.477 224.631 279.477 224.134C279.477 223.637 279.075 223.235 278.579 223.235C278.083 223.235 277.681 223.637 277.681 224.134C277.681 224.631 278.083 225.033 278.579 225.033Z" fill="#141621"/>
<path d="M282.556 225.033C283.052 225.033 283.454 224.631 283.454 224.134C283.454 223.637 283.052 223.235 282.556 223.235C282.06 223.235 281.658 223.637 281.658 224.134C281.658 224.631 282.06 225.033 282.556 225.033Z" fill="#141621"/>
<path d="M286.469 225.033C286.965 225.033 287.367 224.631 287.367 224.134C287.367 223.637 286.965 223.235 286.469 223.235C285.973 223.235 285.571 223.637 285.571 224.134C285.571 224.631 285.973 225.033 286.469 225.033Z" fill="#141621"/>
<path d="M317.001 225.033C317.497 225.033 317.899 224.631 317.899 224.134C317.899 223.637 317.497 223.235 317.001 223.235C316.506 223.235 316.103 223.637 316.103 224.134C316.103 224.631 316.506 225.033 317.001 225.033Z" fill="#141621"/>
<path d="M320.978 225.033C321.474 225.033 321.876 224.631 321.876 224.134C321.876 223.637 321.474 223.235 320.978 223.235C320.482 223.235 320.08 223.637 320.08 224.134C320.08 224.631 320.482 225.033 320.978 225.033Z" fill="#141621"/>
<path d="M290.382 225.033C290.877 225.033 291.28 224.631 291.28 224.134C291.28 223.637 290.877 223.235 290.382 223.235C289.886 223.235 289.484 223.637 289.484 224.134C289.484 224.631 289.886 225.033 290.382 225.033Z" fill="#141621"/>
<path d="M309.753 225.033C310.249 225.033 310.651 224.631 310.651 224.134C310.651 223.637 310.249 223.235 309.753 223.235C309.257 223.235 308.855 223.637 308.855 224.134C308.855 224.631 309.257 225.033 309.753 225.033Z" fill="#141621"/>
<path d="M294.358 225.033C294.854 225.033 295.257 224.631 295.257 224.134C295.257 223.637 294.854 223.235 294.358 223.235C293.863 223.235 293.46 223.637 293.46 224.134C293.46 224.631 293.863 225.033 294.358 225.033Z" fill="#F5F5F5"/>
<path d="M298.271 225.033C298.767 225.033 299.169 224.631 299.169 224.134C299.169 223.637 298.767 223.235 298.271 223.235C297.775 223.235 297.373 223.637 297.373 224.134C297.373 224.631 297.775 225.033 298.271 225.033Z" fill="#F5F5F5"/>
<path d="M306.289 225.033C306.785 225.033 307.187 224.631 307.187 224.134C307.187 223.637 306.785 223.235 306.289 223.235C305.793 223.235 305.391 223.637 305.391 224.134C305.391 224.631 305.793 225.033 306.289 225.033Z" fill="#F5F5F5"/>
<path d="M324.25 225.033C324.746 225.033 325.148 224.631 325.148 224.134C325.148 223.637 324.746 223.235 324.25 223.235C323.754 223.235 323.352 223.637 323.352 224.134C323.352 224.631 323.754 225.033 324.25 225.033Z" fill="#F5F5F5"/>
<path d="M302.248 225.033C302.744 225.033 303.146 224.631 303.146 224.134C303.146 223.637 302.744 223.235 302.248 223.235C301.752 223.235 301.35 223.637 301.35 224.134C301.35 224.631 301.752 225.033 302.248 225.033Z" fill="#5BC4D6"/>
<path d="M313.474 225.033C313.97 225.033 314.372 224.631 314.372 224.134C314.372 223.637 313.97 223.235 313.474 223.235C312.978 223.235 312.576 223.637 312.576 224.134C312.576 224.631 312.978 225.033 313.474 225.033Z" fill="#5BC4D6"/>
<path d="M269.599 214.692H254.012V217.069H269.599V214.692Z" fill="#141621"/>
<path d="M269.599 218.867H254.012V221.244H269.599V218.867Z" fill="#141621"/>
<path d="M269.599 223.106H254.012V225.483H269.599V223.106Z" fill="#141621"/>
<path d="M329.51 234.924H250.484V254.578H329.51V234.924Z" fill="#2F3549"/>
<path d="M269.599 238.971H254.012V241.347H269.599V238.971Z" fill="#141621"/>
<path d="M269.599 243.081H254.012V245.458H269.599V243.081Z" fill="#141621"/>
<path d="M269.599 247.32H254.012V249.697H269.599V247.32Z" fill="#141621"/>
<path d="M274.345 241.09C274.841 241.09 275.243 240.688 275.243 240.191C275.243 239.694 274.841 239.292 274.345 239.292C273.85 239.292 273.447 239.694 273.447 240.191C273.447 240.688 273.85 241.09 274.345 241.09Z" fill="#141621"/>
<path d="M278.322 241.09C278.818 241.09 279.22 240.688 279.22 240.191C279.22 239.694 278.818 239.292 278.322 239.292C277.826 239.292 277.424 239.694 277.424 240.191C277.424 240.688 277.826 241.09 278.322 241.09Z" fill="#141621"/>
<path d="M282.235 241.09C282.731 241.09 283.133 240.688 283.133 240.191C283.133 239.694 282.731 239.292 282.235 239.292C281.739 239.292 281.337 239.694 281.337 240.191C281.337 240.688 281.739 241.09 282.235 241.09Z" fill="#141621"/>
<path d="M286.148 241.09C286.644 241.09 287.046 240.688 287.046 240.191C287.046 239.694 286.644 239.292 286.148 239.292C285.652 239.292 285.25 239.694 285.25 240.191C285.25 240.688 285.652 241.09 286.148 241.09Z" fill="#141621"/>
<path d="M316.681 241.09C317.177 241.09 317.579 240.688 317.579 240.191C317.579 239.694 317.177 239.292 316.681 239.292C316.185 239.292 315.783 239.694 315.783 240.191C315.783 240.688 316.185 241.09 316.681 241.09Z" fill="#141621"/>
<path d="M320.722 241.09C321.218 241.09 321.62 240.688 321.62 240.191C321.62 239.694 321.218 239.292 320.722 239.292C320.226 239.292 319.824 239.694 319.824 240.191C319.824 240.688 320.226 241.09 320.722 241.09Z" fill="#141621"/>
<path d="M290.125 241.09C290.621 241.09 291.023 240.688 291.023 240.191C291.023 239.694 290.621 239.292 290.125 239.292C289.629 239.292 289.227 239.694 289.227 240.191C289.227 240.688 289.629 241.09 290.125 241.09Z" fill="#141621"/>
<path d="M309.432 241.09C309.928 241.09 310.33 240.688 310.33 240.191C310.33 239.694 309.928 239.292 309.432 239.292C308.937 239.292 308.534 239.694 308.534 240.191C308.534 240.688 308.937 241.09 309.432 241.09Z" fill="#141621"/>
<path d="M294.038 241.09C294.534 241.09 294.936 240.688 294.936 240.191C294.936 239.694 294.534 239.292 294.038 239.292C293.542 239.292 293.14 239.694 293.14 240.191C293.14 240.688 293.542 241.09 294.038 241.09Z" fill="#F5F5F5"/>
<path d="M298.015 241.09C298.511 241.09 298.913 240.688 298.913 240.191C298.913 239.694 298.511 239.292 298.015 239.292C297.519 239.292 297.117 239.694 297.117 240.191C297.117 240.688 297.519 241.09 298.015 241.09Z" fill="#F5F5F5"/>
<path d="M305.969 241.09C306.465 241.09 306.867 240.688 306.867 240.191C306.867 239.694 306.465 239.292 305.969 239.292C305.473 239.292 305.071 239.694 305.071 240.191C305.071 240.688 305.473 241.09 305.969 241.09Z" fill="#F5F5F5"/>
<path d="M323.993 241.09C324.489 241.09 324.891 240.688 324.891 240.191C324.891 239.694 324.489 239.292 323.993 239.292C323.497 239.292 323.095 239.694 323.095 240.191C323.095 240.688 323.497 241.09 323.993 241.09Z" fill="#F5F5F5"/>
<path d="M301.928 241.09C302.424 241.09 302.826 240.688 302.826 240.191C302.826 239.694 302.424 239.292 301.928 239.292C301.432 239.292 301.029 239.694 301.029 240.191C301.029 240.688 301.432 241.09 301.928 241.09Z" fill="#5BC4D6"/>
<path d="M313.217 241.09C313.713 241.09 314.115 240.688 314.115 240.191C314.115 239.694 313.713 239.292 313.217 239.292C312.721 239.292 312.319 239.694 312.319 240.191C312.319 240.688 312.721 241.09 313.217 241.09Z" fill="#5BC4D6"/>
<path d="M323.993 245.394C324.489 245.394 324.891 244.991 324.891 244.494C324.891 243.998 324.489 243.595 323.993 243.595C323.497 243.595 323.095 243.998 323.095 244.494C323.095 244.991 323.497 245.394 323.993 245.394Z" fill="#141621"/>
<path d="M320.08 245.394C320.576 245.394 320.978 244.991 320.978 244.494C320.978 243.998 320.576 243.595 320.08 243.595C319.584 243.595 319.182 243.998 319.182 244.494C319.182 244.991 319.584 245.394 320.08 245.394Z" fill="#141621"/>
<path d="M316.103 245.394C316.599 245.394 317.001 244.991 317.001 244.494C317.001 243.998 316.599 243.595 316.103 243.595C315.607 243.595 315.205 243.998 315.205 244.494C315.205 244.991 315.607 245.394 316.103 245.394Z" fill="#141621"/>
<path d="M312.191 245.394C312.687 245.394 313.089 244.991 313.089 244.494C313.089 243.998 312.687 243.595 312.191 243.595C311.695 243.595 311.293 243.998 311.293 244.494C311.293 244.991 311.695 245.394 312.191 245.394Z" fill="#141621"/>
<path d="M281.658 245.394C282.154 245.394 282.556 244.991 282.556 244.494C282.556 243.998 282.154 243.595 281.658 243.595C281.162 243.595 280.76 243.998 280.76 244.494C280.76 244.991 281.162 245.394 281.658 245.394Z" fill="#141621"/>
<path d="M277.617 245.394C278.113 245.394 278.515 244.991 278.515 244.494C278.515 243.998 278.113 243.595 277.617 243.595C277.121 243.595 276.719 243.998 276.719 244.494C276.719 244.991 277.121 245.394 277.617 245.394Z" fill="#141621"/>
<path d="M308.214 245.394C308.71 245.394 309.112 244.991 309.112 244.494C309.112 243.998 308.71 243.595 308.214 243.595C307.718 243.595 307.316 243.998 307.316 244.494C307.316 244.991 307.718 245.394 308.214 245.394Z" fill="#141621"/>
<path d="M288.906 245.394C289.402 245.394 289.804 244.991 289.804 244.494C289.804 243.998 289.402 243.595 288.906 243.595C288.41 243.595 288.008 243.998 288.008 244.494C288.008 244.991 288.41 245.394 288.906 245.394Z" fill="#141621"/>
<path d="M304.301 245.394C304.797 245.394 305.199 244.991 305.199 244.494C305.199 243.998 304.797 243.595 304.301 243.595C303.805 243.595 303.403 243.998 303.403 244.494C303.403 244.991 303.805 245.394 304.301 245.394Z" fill="#F5F5F5"/>
<path d="M300.324 245.394C300.82 245.394 301.222 244.991 301.222 244.494C301.222 243.998 300.82 243.595 300.324 243.595C299.828 243.595 299.426 243.998 299.426 244.494C299.426 244.991 299.828 245.394 300.324 245.394Z" fill="#F5F5F5"/>
<path d="M292.37 245.394C292.866 245.394 293.268 244.991 293.268 244.494C293.268 243.998 292.866 243.595 292.37 243.595C291.874 243.595 291.472 243.998 291.472 244.494C291.472 244.991 291.874 245.394 292.37 245.394Z" fill="#F5F5F5"/>
<path d="M274.345 245.394C274.841 245.394 275.243 244.991 275.243 244.494C275.243 243.998 274.841 243.595 274.345 243.595C273.849 243.595 273.447 243.998 273.447 244.494C273.447 244.991 273.849 245.394 274.345 245.394Z" fill="#F5F5F5"/>
<path d="M296.411 245.394C296.907 245.394 297.309 244.991 297.309 244.494C297.309 243.998 296.907 243.595 296.411 243.595C295.915 243.595 295.513 243.998 295.513 244.494C295.513 244.991 295.915 245.394 296.411 245.394Z" fill="#5BC4D6"/>
<path d="M285.122 245.394C285.618 245.394 286.02 244.991 286.02 244.494C286.02 243.998 285.618 243.595 285.122 243.595C284.626 243.595 284.224 243.998 284.224 244.494C284.224 244.991 284.626 245.394 285.122 245.394Z" fill="#5BC4D6"/>
<path d="M274.345 249.247C274.841 249.247 275.243 248.845 275.243 248.348C275.243 247.851 274.841 247.449 274.345 247.449C273.849 247.449 273.447 247.851 273.447 248.348C273.447 248.845 273.849 249.247 274.345 249.247Z" fill="#141621"/>
<path d="M278.322 249.247C278.818 249.247 279.22 248.845 279.22 248.348C279.22 247.851 278.818 247.449 278.322 247.449C277.826 247.449 277.424 247.851 277.424 248.348C277.424 248.845 277.826 249.247 278.322 249.247Z" fill="#141621"/>
<path d="M282.235 249.247C282.731 249.247 283.133 248.845 283.133 248.348C283.133 247.851 282.731 247.449 282.235 247.449C281.739 247.449 281.337 247.851 281.337 248.348C281.337 248.845 281.739 249.247 282.235 249.247Z" fill="#141621"/>
<path d="M286.148 249.247C286.644 249.247 287.046 248.845 287.046 248.348C287.046 247.851 286.644 247.449 286.148 247.449C285.652 247.449 285.25 247.851 285.25 248.348C285.25 248.845 285.652 249.247 286.148 249.247Z" fill="#141621"/>
<path d="M316.681 249.247C317.177 249.247 317.579 248.845 317.579 248.348C317.579 247.851 317.177 247.449 316.681 247.449C316.185 247.449 315.783 247.851 315.783 248.348C315.783 248.845 316.185 249.247 316.681 249.247Z" fill="#141621"/>
<path d="M320.722 249.247C321.218 249.247 321.62 248.845 321.62 248.348C321.62 247.851 321.218 247.449 320.722 247.449C320.226 247.449 319.824 247.851 319.824 248.348C319.824 248.845 320.226 249.247 320.722 249.247Z" fill="#141621"/>
<path d="M290.125 249.247C290.621 249.247 291.023 248.845 291.023 248.348C291.023 247.851 290.621 247.449 290.125 247.449C289.629 247.449 289.227 247.851 289.227 248.348C289.227 248.845 289.629 249.247 290.125 249.247Z" fill="#141621"/>
<path d="M309.432 249.247C309.928 249.247 310.33 248.845 310.33 248.348C310.33 247.851 309.928 247.449 309.432 247.449C308.936 247.449 308.534 247.851 308.534 248.348C308.534 248.845 308.936 249.247 309.432 249.247Z" fill="#141621"/>
<path d="M294.038 249.247C294.534 249.247 294.936 248.845 294.936 248.348C294.936 247.851 294.534 247.449 294.038 247.449C293.542 247.449 293.14 247.851 293.14 248.348C293.14 248.845 293.542 249.247 294.038 249.247Z" fill="#F5F5F5"/>
<path d="M298.015 249.247C298.511 249.247 298.913 248.845 298.913 248.348C298.913 247.851 298.511 247.449 298.015 247.449C297.519 247.449 297.117 247.851 297.117 248.348C297.117 248.845 297.519 249.247 298.015 249.247Z" fill="#F5F5F5"/>
<path d="M305.969 249.247C306.465 249.247 306.867 248.845 306.867 248.348C306.867 247.851 306.465 247.449 305.969 247.449C305.473 247.449 305.071 247.851 305.071 248.348C305.071 248.845 305.473 249.247 305.969 249.247Z" fill="#F5F5F5"/>
<path d="M323.993 249.247C324.489 249.247 324.891 248.845 324.891 248.348C324.891 247.851 324.489 247.449 323.993 247.449C323.497 247.449 323.095 247.851 323.095 248.348C323.095 248.845 323.497 249.247 323.993 249.247Z" fill="#F5F5F5"/>
<path d="M301.927 249.247C302.423 249.247 302.826 248.845 302.826 248.348C302.826 247.851 302.423 247.449 301.927 247.449C301.432 247.449 301.029 247.851 301.029 248.348C301.029 248.845 301.432 249.247 301.927 249.247Z" fill="#5BC4D6"/>
<path d="M313.217 249.247C313.713 249.247 314.115 248.845 314.115 248.348C314.115 247.851 313.713 247.449 313.217 247.449C312.721 247.449 312.319 247.851 312.319 248.348C312.319 248.845 312.721 249.247 313.217 249.247Z" fill="#5BC4D6"/>
<path d="M341.441 206.022L329.574 206.086V186.432H341.441V206.022Z" fill="#141621"/>
<path d="M341.441 182.193H329.574V162.603L341.441 162.539V182.193Z" fill="#141621"/>
<path d="M341.441 230.107L329.574 230.171V210.518H341.441V230.107Z" fill="#141621"/>
<path d="M341.441 254.514H329.574V234.924L341.441 234.86V254.514Z" fill="#141621"/>
<path d="M330.087 162.41H251.061V182.064H330.087V162.41Z" fill="#2F3549"/>
<path d="M270.176 166.457H254.589V168.833H270.176V166.457Z" fill="#141621"/>
<path d="M270.176 170.567H254.589V172.944H270.176V170.567Z" fill="#141621"/>
<path d="M270.176 174.807H254.589V177.183H270.176V174.807Z" fill="#141621"/>
<path d="M275.436 168.769C275.932 168.769 276.334 168.367 276.334 167.87C276.334 167.373 275.932 166.971 275.436 166.971C274.94 166.971 274.538 167.373 274.538 167.87C274.538 168.367 274.94 168.769 275.436 168.769Z" fill="#141621"/>
<path d="M279.349 168.769C279.845 168.769 280.247 168.367 280.247 167.87C280.247 167.373 279.845 166.971 279.349 166.971C278.853 166.971 278.451 167.373 278.451 167.87C278.451 168.367 278.853 168.769 279.349 168.769Z" fill="#141621"/>
<path d="M283.326 168.769C283.822 168.769 284.224 168.367 284.224 167.87C284.224 167.373 283.822 166.971 283.326 166.971C282.83 166.971 282.428 167.373 282.428 167.87C282.428 168.367 282.83 168.769 283.326 168.769Z" fill="#141621"/>
<path d="M287.239 168.769C287.735 168.769 288.137 168.367 288.137 167.87C288.137 167.373 287.735 166.971 287.239 166.971C286.743 166.971 286.341 167.373 286.341 167.87C286.341 168.367 286.743 168.769 287.239 168.769Z" fill="#141621"/>
<path d="M317.771 168.769C318.267 168.769 318.669 168.367 318.669 167.87C318.669 167.373 318.267 166.971 317.771 166.971C317.275 166.971 316.873 167.373 316.873 167.87C316.873 168.367 317.275 168.769 317.771 168.769Z" fill="#141621"/>
<path d="M321.748 168.769C322.244 168.769 322.646 168.367 322.646 167.87C322.646 167.373 322.244 166.971 321.748 166.971C321.252 166.971 320.85 167.373 320.85 167.87C320.85 168.367 321.252 168.769 321.748 168.769Z" fill="#141621"/>
<path d="M291.151 168.769C291.647 168.769 292.049 168.367 292.049 167.87C292.049 167.373 291.647 166.971 291.151 166.971C290.655 166.971 290.253 167.373 290.253 167.87C290.253 168.367 290.655 168.769 291.151 168.769Z" fill="#141621"/>
<path d="M310.523 168.769C311.019 168.769 311.421 168.367 311.421 167.87C311.421 167.373 311.019 166.971 310.523 166.971C310.027 166.971 309.625 167.373 309.625 167.87C309.625 168.367 310.027 168.769 310.523 168.769Z" fill="#141621"/>
<path d="M295.128 168.769C295.624 168.769 296.026 168.367 296.026 167.87C296.026 167.373 295.624 166.971 295.128 166.971C294.632 166.971 294.23 167.373 294.23 167.87C294.23 168.367 294.632 168.769 295.128 168.769Z" fill="#F5F5F5"/>
<path d="M299.041 168.769C299.537 168.769 299.939 168.367 299.939 167.87C299.939 167.373 299.537 166.971 299.041 166.971C298.545 166.971 298.143 167.373 298.143 167.87C298.143 168.367 298.545 168.769 299.041 168.769Z" fill="#F5F5F5"/>
<path d="M307.059 168.769C307.555 168.769 307.957 168.367 307.957 167.87C307.957 167.373 307.555 166.971 307.059 166.971C306.563 166.971 306.161 167.373 306.161 167.87C306.161 168.367 306.563 168.769 307.059 168.769Z" fill="#F5F5F5"/>
<path d="M325.02 168.769C325.516 168.769 325.918 168.367 325.918 167.87C325.918 167.373 325.516 166.971 325.02 166.971C324.524 166.971 324.122 167.373 324.122 167.87C324.122 168.367 324.524 168.769 325.02 168.769Z" fill="#F5F5F5"/>
<path d="M303.018 168.769C303.514 168.769 303.916 168.367 303.916 167.87C303.916 167.373 303.514 166.971 303.018 166.971C302.522 166.971 302.12 167.373 302.12 167.87C302.12 168.367 302.522 168.769 303.018 168.769Z" fill="#5BC4D6"/>
<path d="M314.243 168.769C314.739 168.769 315.141 168.367 315.141 167.87C315.141 167.373 314.739 166.971 314.243 166.971C313.747 166.971 313.345 167.373 313.345 167.87C313.345 168.367 313.747 168.769 314.243 168.769Z" fill="#5BC4D6"/>
<path d="M325.02 173.072C325.516 173.072 325.918 172.67 325.918 172.173C325.918 171.677 325.516 171.274 325.02 171.274C324.524 171.274 324.122 171.677 324.122 172.173C324.122 172.67 324.524 173.072 325.02 173.072Z" fill="#141621"/>
<path d="M321.107 173.072C321.603 173.072 322.005 172.67 322.005 172.173C322.005 171.677 321.603 171.274 321.107 171.274C320.611 171.274 320.209 171.677 320.209 172.173C320.209 172.67 320.611 173.072 321.107 173.072Z" fill="#141621"/>
<path d="M317.194 173.072C317.69 173.072 318.092 172.67 318.092 172.173C318.092 171.677 317.69 171.274 317.194 171.274C316.698 171.274 316.296 171.677 316.296 172.173C316.296 172.67 316.698 173.072 317.194 173.072Z" fill="#141621"/>
<path d="M313.217 173.072C313.713 173.072 314.115 172.67 314.115 172.173C314.115 171.677 313.713 171.274 313.217 171.274C312.721 171.274 312.319 171.677 312.319 172.173C312.319 172.67 312.721 173.072 313.217 173.072Z" fill="#141621"/>
<path d="M282.684 173.072C283.18 173.072 283.582 172.67 283.582 172.173C283.582 171.677 283.18 171.274 282.684 171.274C282.188 171.274 281.786 171.677 281.786 172.173C281.786 172.67 282.188 173.072 282.684 173.072Z" fill="#141621"/>
<path d="M278.707 173.072C279.203 173.072 279.605 172.67 279.605 172.173C279.605 171.677 279.203 171.274 278.707 171.274C278.211 171.274 277.809 171.677 277.809 172.173C277.809 172.67 278.211 173.072 278.707 173.072Z" fill="#141621"/>
<path d="M309.304 173.072C309.8 173.072 310.202 172.67 310.202 172.173C310.202 171.677 309.8 171.274 309.304 171.274C308.808 171.274 308.406 171.677 308.406 172.173C308.406 172.67 308.808 173.072 309.304 173.072Z" fill="#141621"/>
<path d="M289.933 173.072C290.429 173.072 290.831 172.67 290.831 172.173C290.831 171.677 290.429 171.274 289.933 171.274C289.437 171.274 289.035 171.677 289.035 172.173C289.035 172.67 289.437 173.072 289.933 173.072Z" fill="#141621"/>
<path d="M305.327 173.072C305.823 173.072 306.225 172.67 306.225 172.173C306.225 171.677 305.823 171.274 305.327 171.274C304.831 171.274 304.429 171.677 304.429 172.173C304.429 172.67 304.831 173.072 305.327 173.072Z" fill="#F5F5F5"/>
<path d="M301.414 173.072C301.91 173.072 302.312 172.67 302.312 172.173C302.312 171.677 301.91 171.274 301.414 171.274C300.918 171.274 300.516 171.677 300.516 172.173C300.516 172.67 300.918 173.072 301.414 173.072Z" fill="#F5F5F5"/>
<path d="M293.396 173.072C293.892 173.072 294.294 172.67 294.294 172.173C294.294 171.677 293.892 171.274 293.396 171.274C292.9 171.274 292.498 171.677 292.498 172.173C292.498 172.67 292.9 173.072 293.396 173.072Z" fill="#F5F5F5"/>
<path d="M275.436 173.072C275.932 173.072 276.334 172.67 276.334 172.173C276.334 171.677 275.932 171.274 275.436 171.274C274.94 171.274 274.538 171.677 274.538 172.173C274.538 172.67 274.94 173.072 275.436 173.072Z" fill="#F5F5F5"/>
<path d="M297.502 173.072C297.998 173.072 298.4 172.67 298.4 172.173C298.4 171.677 297.998 171.274 297.502 171.274C297.006 171.274 296.604 171.677 296.604 172.173C296.604 172.67 297.006 173.072 297.502 173.072Z" fill="#5BC4D6"/>
<path d="M286.212 173.072C286.708 173.072 287.11 172.67 287.11 172.173C287.11 171.677 286.708 171.274 286.212 171.274C285.716 171.274 285.314 171.677 285.314 172.173C285.314 172.67 285.716 173.072 286.212 173.072Z" fill="#5BC4D6"/>
<path d="M275.436 176.926C275.932 176.926 276.334 176.523 276.334 176.027C276.334 175.53 275.932 175.128 275.436 175.128C274.94 175.128 274.538 175.53 274.538 176.027C274.538 176.523 274.94 176.926 275.436 176.926Z" fill="#141621"/>
<path d="M279.349 176.926C279.845 176.926 280.247 176.523 280.247 176.027C280.247 175.53 279.845 175.128 279.349 175.128C278.853 175.128 278.451 175.53 278.451 176.027C278.451 176.523 278.853 176.926 279.349 176.926Z" fill="#141621"/>
<path d="M283.326 176.926C283.822 176.926 284.224 176.523 284.224 176.027C284.224 175.53 283.822 175.128 283.326 175.128C282.83 175.128 282.428 175.53 282.428 176.027C282.428 176.523 282.83 176.926 283.326 176.926Z" fill="#141621"/>
<path d="M287.239 176.926C287.735 176.926 288.137 176.523 288.137 176.027C288.137 175.53 287.735 175.128 287.239 175.128C286.743 175.128 286.341 175.53 286.341 176.027C286.341 176.523 286.743 176.926 287.239 176.926Z" fill="#141621"/>
<path d="M317.771 176.926C318.267 176.926 318.669 176.523 318.669 176.027C318.669 175.53 318.267 175.128 317.771 175.128C317.275 175.128 316.873 175.53 316.873 176.027C316.873 176.523 317.275 176.926 317.771 176.926Z" fill="#141621"/>
<path d="M321.748 176.926C322.244 176.926 322.646 176.523 322.646 176.027C322.646 175.53 322.244 175.128 321.748 175.128C321.252 175.128 320.85 175.53 320.85 176.027C320.85 176.523 321.252 176.926 321.748 176.926Z" fill="#141621"/>
<path d="M291.151 176.926C291.647 176.926 292.049 176.523 292.049 176.027C292.049 175.53 291.647 175.128 291.151 175.128C290.655 175.128 290.253 175.53 290.253 176.027C290.253 176.523 290.655 176.926 291.151 176.926Z" fill="#141621"/>
<path d="M310.523 176.926C311.019 176.926 311.421 176.523 311.421 176.027C311.421 175.53 311.019 175.128 310.523 175.128C310.027 175.128 309.625 175.53 309.625 176.027C309.625 176.523 310.027 176.926 310.523 176.926Z" fill="#141621"/>
<path d="M295.128 176.926C295.624 176.926 296.026 176.523 296.026 176.027C296.026 175.53 295.624 175.128 295.128 175.128C294.632 175.128 294.23 175.53 294.23 176.027C294.23 176.523 294.632 176.926 295.128 176.926Z" fill="#F5F5F5"/>
<path d="M299.041 176.926C299.537 176.926 299.939 176.523 299.939 176.027C299.939 175.53 299.537 175.128 299.041 175.128C298.545 175.128 298.143 175.53 298.143 176.027C298.143 176.523 298.545 176.926 299.041 176.926Z" fill="#F5F5F5"/>
<path d="M307.059 176.926C307.555 176.926 307.957 176.523 307.957 176.027C307.957 175.53 307.555 175.128 307.059 175.128C306.563 175.128 306.161 175.53 306.161 176.027C306.161 176.523 306.563 176.926 307.059 176.926Z" fill="#F5F5F5"/>
<path d="M325.02 176.926C325.516 176.926 325.918 176.523 325.918 176.027C325.918 175.53 325.516 175.128 325.02 175.128C324.524 175.128 324.122 175.53 324.122 176.027C324.122 176.523 324.524 176.926 325.02 176.926Z" fill="#F5F5F5"/>
<path d="M303.018 176.926C303.514 176.926 303.916 176.523 303.916 176.027C303.916 175.53 303.514 175.128 303.018 175.128C302.522 175.128 302.12 175.53 302.12 176.027C302.12 176.523 302.522 176.926 303.018 176.926Z" fill="#5BC4D6"/>
<path d="M314.243 176.926C314.739 176.926 315.141 176.523 315.141 176.027C315.141 175.53 314.739 175.128 314.243 175.128C313.747 175.128 313.345 175.53 313.345 176.027C313.345 176.523 313.747 176.926 314.243 176.926Z" fill="#5BC4D6"/>
<path d="M197.308 21.7504C197.308 21.7504 197.565 21.7504 197.95 21.7504C198.399 21.7504 199.04 21.7504 199.938 21.7504C201.67 21.7504 204.236 21.7504 207.507 21.6862C214.114 21.6862 223.607 21.622 235.41 21.622C258.951 21.622 291.536 21.5577 327.457 21.5577C329.702 21.5577 332.011 22.0073 334.128 23.0992C336.245 24.1911 338.233 25.7968 339.965 27.9163C343.429 32.0912 345.738 38.0002 346.572 44.2946C347.021 47.4418 346.957 50.6532 346.957 53.7361C346.957 56.8833 346.957 59.9663 346.957 62.985C346.957 69.0867 346.957 75.06 346.957 80.9047C346.957 104.22 346.957 125.287 346.893 142.949C346.893 147.381 346.893 151.556 346.893 155.538C346.893 157.529 346.893 159.456 346.893 161.319C346.893 163.181 346.7 165.044 346.187 166.65C345.161 169.925 343.237 172.045 341.248 172.687C340.286 173.072 339.26 173.008 338.362 173.008C337.464 173.008 336.566 173.008 335.732 173.008C332.46 173.008 329.895 172.944 328.163 172.944C327.329 172.944 326.623 172.944 326.174 172.944C325.725 172.944 325.533 172.944 325.533 172.944C325.533 172.944 325.789 172.944 326.174 172.944C326.623 172.944 327.265 172.944 328.163 172.944C329.895 172.944 332.46 172.944 335.732 172.88C336.566 172.88 337.399 172.88 338.362 172.88C339.26 172.88 340.222 172.944 341.184 172.559C343.108 171.852 345.033 169.797 345.995 166.585C346.508 165.044 346.7 163.245 346.636 161.383C346.636 159.52 346.636 157.593 346.636 155.602C346.636 151.62 346.636 147.445 346.636 143.014C346.636 125.351 346.636 104.348 346.572 80.969C346.572 75.1242 346.572 69.1509 346.572 63.0493C346.572 59.9663 346.572 56.8833 346.572 53.8004C346.572 50.6532 346.636 47.506 346.187 44.423C345.353 38.2571 343.044 32.4123 339.645 28.3017C337.977 26.2464 335.988 24.6407 333.936 23.613C331.819 22.5212 329.638 22.1358 327.393 22.1358C291.472 22.1358 258.887 22.0716 235.346 22.0716C223.543 22.0073 214.05 22.0073 207.443 22.0073C204.172 22.0073 201.606 21.9431 199.874 21.9431C199.04 21.9431 198.334 21.9431 197.885 21.9431C197.501 21.7504 197.308 21.7504 197.308 21.7504Z" fill="#141621"/>
<path d="M197.308 64.0768H135.345V254.129H197.308V64.0768Z" fill="#4164A9"/>
<path d="M246.186 254.193H197.308L197.18 64.0768H246.186V254.193Z" fill="white"/>
<path d="M191.343 94.5211H138.744V109.358H191.343V94.5211Z" fill="#141621"/>
<path d="M143.17 96.3837H140.22V107.752H143.17V96.3837Z" fill="#2F3549"/>
<path d="M145.672 99.7236C146.203 99.7236 146.634 99.2923 146.634 98.7602C146.634 98.2281 146.203 97.7968 145.672 97.7968C145.141 97.7968 144.71 98.2281 144.71 98.7602C144.71 99.2923 145.141 99.7236 145.672 99.7236Z" fill="#5BC4D6"/>
<path d="M145.672 103.77C146.203 103.77 146.634 103.339 146.634 102.807C146.634 102.274 146.203 101.843 145.672 101.843C145.141 101.843 144.71 102.274 144.71 102.807C144.71 103.339 145.141 103.77 145.672 103.77Z" fill="#5BC4D6"/>
<path d="M153.241 97.861H150.354V106.596H153.241V97.861Z" fill="#2F3549"/>
<path d="M157.41 97.861H154.524V106.596H157.41V97.861Z" fill="#2F3549"/>
<path d="M161.58 97.861H158.693V106.596H161.58V97.861Z" fill="#2F3549"/>
<path d="M165.813 97.861H162.927V106.596H165.813V97.861Z" fill="#2F3549"/>
<path d="M169.983 97.861H167.096V106.596H169.983V97.861Z" fill="#2F3549"/>
<path d="M174.152 97.861H171.266V106.596H174.152V97.861Z" fill="#2F3549"/>
<path d="M178.321 97.861H175.435V106.596H178.321V97.861Z" fill="#2F3549"/>
<path d="M182.491 97.861H179.604V106.596H182.491V97.861Z" fill="#2F3549"/>
<path d="M186.66 97.861H183.774V106.596H186.66V97.861Z" fill="#2F3549"/>
<path d="M190.83 97.861H187.943V106.596H190.83V97.861Z" fill="#2F3549"/>
<path d="M191.343 115.845H138.744V130.682H191.343V115.845Z" fill="#141621"/>
<path d="M143.17 117.708H140.22V129.076H143.17V117.708Z" fill="#2F3549"/>
<path d="M145.672 121.047C146.203 121.047 146.634 120.616 146.634 120.084C146.634 119.552 146.203 119.121 145.672 119.121C145.141 119.121 144.71 119.552 144.71 120.084C144.71 120.616 145.141 121.047 145.672 121.047Z" fill="#5BC4D6"/>
<path d="M145.672 125.03C146.203 125.03 146.634 124.598 146.634 124.066C146.634 123.534 146.203 123.103 145.672 123.103C145.141 123.103 144.71 123.534 144.71 124.066C144.71 124.598 145.141 125.03 145.672 125.03Z" fill="#5BC4D6"/>
<path d="M153.241 119.121H150.354V127.856H153.241V119.121Z" fill="#2F3549"/>
<path d="M157.41 119.121H154.524V127.856H157.41V119.121Z" fill="#2F3549"/>
<path d="M161.58 119.121H158.693V127.856H161.58V119.121Z" fill="#2F3549"/>
<path d="M165.813 119.121H162.927V127.856H165.813V119.121Z" fill="#2F3549"/>
<path d="M169.983 119.121H167.096V127.856H169.983V119.121Z" fill="#2F3549"/>
<path d="M174.152 119.121H171.266V127.856H174.152V119.121Z" fill="#2F3549"/>
<path d="M178.321 119.121H175.435V127.856H178.321V119.121Z" fill="#2F3549"/>
<path d="M182.491 119.121H179.604V127.856H182.491V119.121Z" fill="#2F3549"/>
<path d="M186.66 119.121H183.774V127.856H186.66V119.121Z" fill="#2F3549"/>
<path d="M190.83 119.121H187.943V127.856H190.83V119.121Z" fill="#2F3549"/>
<path d="M191.343 137.297H138.744V152.134H191.343V137.297Z" fill="#141621"/>
<path d="M143.17 139.16H140.22V150.528H143.17V139.16Z" fill="#2F3549"/>
<path d="M145.672 142.5C146.203 142.5 146.634 142.068 146.634 141.536C146.634 141.004 146.203 140.573 145.672 140.573C145.141 140.573 144.71 141.004 144.71 141.536C144.71 142.068 145.141 142.5 145.672 142.5Z" fill="#5BC4D6"/>
<path d="M145.672 146.482C146.203 146.482 146.634 146.051 146.634 145.518C146.634 144.986 146.203 144.555 145.672 144.555C145.141 144.555 144.71 144.986 144.71 145.518C144.71 146.051 145.141 146.482 145.672 146.482Z" fill="#5BC4D6"/>
<path d="M153.241 140.573H150.354V149.308H153.241V140.573Z" fill="#2F3549"/>
<path d="M157.41 140.573H154.524V149.308H157.41V140.573Z" fill="#2F3549"/>
<path d="M161.58 140.573H158.693V149.308H161.58V140.573Z" fill="#2F3549"/>
<path d="M165.813 140.573H162.927V149.308H165.813V140.573Z" fill="#2F3549"/>
<path d="M169.983 140.573H167.096V149.308H169.983V140.573Z" fill="#2F3549"/>
<path d="M174.152 140.573H171.266V149.308H174.152V140.573Z" fill="#2F3549"/>
<path d="M178.321 140.573H175.435V149.308H178.321V140.573Z" fill="#2F3549"/>
<path d="M182.491 140.573H179.604V149.308H182.491V140.573Z" fill="#2F3549"/>
<path d="M186.66 140.573H183.774V149.308H186.66V140.573Z" fill="#2F3549"/>
<path d="M190.83 140.573H187.943V149.308H190.83V140.573Z" fill="#2F3549"/>
<path d="M191.343 160.484H138.744V175.32H191.343V160.484Z" fill="#141621"/>
<path d="M143.17 162.346H140.22V173.715H143.17V162.346Z" fill="#2F3549"/>
<path d="M145.672 165.686C146.203 165.686 146.634 165.255 146.634 164.723C146.634 164.191 146.203 163.759 145.672 163.759C145.141 163.759 144.71 164.191 144.71 164.723C144.71 165.255 145.141 165.686 145.672 165.686Z" fill="#5BC4D6"/>
<path d="M145.672 169.668C146.203 169.668 146.634 169.237 146.634 168.705C146.634 168.173 146.203 167.741 145.672 167.741C145.141 167.741 144.71 168.173 144.71 168.705C144.71 169.237 145.141 169.668 145.672 169.668Z" fill="#5BC4D6"/>
<path d="M153.241 163.759H150.354V172.494H153.241V163.759Z" fill="#2F3549"/>
<path d="M157.41 163.759H154.524V172.494H157.41V163.759Z" fill="#2F3549"/>
<path d="M161.58 163.759H158.693V172.494H161.58V163.759Z" fill="#2F3549"/>
<path d="M165.813 163.759H162.927V172.494H165.813V163.759Z" fill="#2F3549"/>
<path d="M169.983 163.759H167.096V172.494H169.983V163.759Z" fill="#2F3549"/>
<path d="M174.152 163.759H171.266V172.494H174.152V163.759Z" fill="#2F3549"/>
<path d="M178.321 163.759H175.435V172.494H178.321V163.759Z" fill="#2F3549"/>
<path d="M182.491 163.759H179.604V172.494H182.491V163.759Z" fill="#2F3549"/>
<path d="M186.66 163.759H183.774V172.494H186.66V163.759Z" fill="#2F3549"/>
<path d="M190.83 163.759H187.943V172.494H190.83V163.759Z" fill="#2F3549"/>
<path d="M191.343 183.863H138.744V198.7H191.343V183.863Z" fill="#141621"/>
<path d="M143.17 185.725H140.22V197.094H143.17V185.725Z" fill="#2F3549"/>
<path d="M145.672 189.065C146.203 189.065 146.634 188.634 146.634 188.102C146.634 187.57 146.203 187.138 145.672 187.138C145.141 187.138 144.71 187.57 144.71 188.102C144.71 188.634 145.141 189.065 145.672 189.065Z" fill="#5BC4D6"/>
<path d="M145.672 193.112C146.203 193.112 146.634 192.68 146.634 192.148C146.634 191.616 146.203 191.185 145.672 191.185C145.141 191.185 144.71 191.616 144.71 192.148C144.71 192.68 145.141 193.112 145.672 193.112Z" fill="#5BC4D6"/>
<path d="M153.241 187.203H150.354V195.938H153.241V187.203Z" fill="#2F3549"/>
<path d="M157.41 187.203H154.524V195.938H157.41V187.203Z" fill="#2F3549"/>
<path d="M161.58 187.203H158.693V195.938H161.58V187.203Z" fill="#2F3549"/>
<path d="M165.813 187.203H162.927V195.938H165.813V187.203Z" fill="#2F3549"/>
<path d="M169.983 187.203H167.096V195.938H169.983V187.203Z" fill="#2F3549"/>
<path d="M174.152 187.203H171.266V195.938H174.152V187.203Z" fill="#2F3549"/>
<path d="M178.321 187.203H175.435V195.938H178.321V187.203Z" fill="#2F3549"/>
<path d="M182.491 187.203H179.604V195.938H182.491V187.203Z" fill="#2F3549"/>
<path d="M186.66 187.203H183.774V195.938H186.66V187.203Z" fill="#2F3549"/>
<path d="M190.83 187.203H187.943V195.938H190.83V187.203Z" fill="#2F3549"/>
<path d="M191.343 230.428H138.744V245.265H191.343V230.428Z" fill="#141621"/>
<path d="M143.17 232.291H140.22V243.659H143.17V232.291Z" fill="#2F3549"/>
<path d="M145.672 235.695C146.203 235.695 146.634 235.264 146.634 234.732C146.634 234.2 146.203 233.768 145.672 233.768C145.141 233.768 144.71 234.2 144.71 234.732C144.71 235.264 145.141 235.695 145.672 235.695Z" fill="#5BC4D6"/>
<path d="M145.672 239.677C146.203 239.677 146.634 239.246 146.634 238.714C146.634 238.182 146.203 237.75 145.672 237.75C145.141 237.75 144.71 238.182 144.71 238.714C144.71 239.246 145.141 239.677 145.672 239.677Z" fill="#5BC4D6"/>
<path d="M153.241 233.768H150.354V242.503H153.241V233.768Z" fill="#2F3549"/>
<path d="M157.41 233.768H154.524V242.503H157.41V233.768Z" fill="#2F3549"/>
<path d="M161.58 233.768H158.693V242.503H161.58V233.768Z" fill="#2F3549"/>
<path d="M165.813 233.768H162.927V242.503H165.813V233.768Z" fill="#2F3549"/>
<path d="M169.983 233.768H167.096V242.503H169.983V233.768Z" fill="#2F3549"/>
<path d="M174.152 233.768H171.266V242.503H174.152V233.768Z" fill="#2F3549"/>
<path d="M178.321 233.768H175.435V242.503H178.321V233.768Z" fill="#2F3549"/>
<path d="M182.491 233.768H179.604V242.503H182.491V233.768Z" fill="#2F3549"/>
<path d="M186.66 233.768H183.774V242.503H186.66V233.768Z" fill="#2F3549"/>
<path d="M190.83 233.768H187.943V242.503H190.83V233.768Z" fill="#2F3549"/>
<path d="M191.343 207.178H138.744V222.014H191.343V207.178Z" fill="#141621"/>
<path d="M143.17 209.04H140.22V220.409H143.17V209.04Z" fill="#2F3549"/>
<path d="M145.672 212.38C146.203 212.38 146.634 211.949 146.634 211.417C146.634 210.885 146.203 210.453 145.672 210.453C145.141 210.453 144.71 210.885 144.71 211.417C144.71 211.949 145.141 212.38 145.672 212.38Z" fill="#5BC4D6"/>
<path d="M145.672 216.427C146.203 216.427 146.634 215.995 146.634 215.463C146.634 214.931 146.203 214.5 145.672 214.5C145.141 214.5 144.71 214.931 144.71 215.463C144.71 215.995 145.141 216.427 145.672 216.427Z" fill="#5BC4D6"/>
<path d="M153.241 210.517H150.354V219.253H153.241V210.517Z" fill="#2F3549"/>
<path d="M157.41 210.517H154.524V219.253H157.41V210.517Z" fill="#2F3549"/>
<path d="M161.58 210.517H158.693V219.253H161.58V210.517Z" fill="#2F3549"/>
<path d="M165.813 210.517H162.927V219.253H165.813V210.517Z" fill="#2F3549"/>
<path d="M169.983 210.517H167.096V219.253H169.983V210.517Z" fill="#2F3549"/>
<path d="M174.152 210.517H171.266V219.253H174.152V210.517Z" fill="#2F3549"/>
<path d="M178.321 210.517H175.435V219.253H178.321V210.517Z" fill="#2F3549"/>
<path d="M182.491 210.517H179.604V219.253H182.491V210.517Z" fill="#2F3549"/>
<path d="M186.66 210.517H183.774V219.253H186.66V210.517Z" fill="#2F3549"/>
<path d="M190.83 210.517H187.943V219.253H190.83V210.517Z" fill="#2F3549"/>
<path d="M171.266 94.521C171.266 94.521 171.266 94.3926 171.201 94.0715C171.201 93.7503 171.137 93.3007 171.137 92.7869C171.137 92.2088 171.137 91.5023 171.073 90.7316C171.009 89.8966 170.945 88.9974 170.688 88.034C170.432 87.0706 169.983 86.0429 169.277 85.0795C168.571 84.1161 167.609 83.2811 166.391 82.7673C165.172 82.2534 163.761 82.0607 162.285 81.9323C160.81 81.8038 159.335 81.6754 157.731 81.5469C151.509 81.0331 145.928 80.6477 141.823 80.5835C139.771 80.5193 138.103 80.5835 137.012 80.5835C136.499 80.5835 136.05 80.5835 135.73 80.5835C135.409 80.5835 135.281 80.5835 135.281 80.5835C135.281 80.5835 135.409 80.5835 135.73 80.5193C136.05 80.5193 136.499 80.455 137.012 80.455C138.167 80.3908 139.835 80.3908 141.823 80.3908C145.928 80.3908 151.573 80.712 157.731 81.2258C159.271 81.3542 160.81 81.4827 162.285 81.6111C163.761 81.7396 165.172 81.9323 166.455 82.5103C167.738 83.0242 168.764 83.9234 169.469 84.951C170.175 85.9787 170.624 87.0063 170.881 88.034C171.137 89.0616 171.137 89.9608 171.201 90.7958C171.201 91.6308 171.201 92.3373 171.201 92.8511C171.201 93.3649 171.201 93.8145 171.201 94.1357C171.266 94.3926 171.266 94.521 171.266 94.521Z" fill="#141621"/>
<path d="M155.294 94.5211C155.294 94.5211 155.294 94.3926 155.294 94.0715C155.294 93.7504 155.294 93.365 155.294 92.8512C155.294 92.3373 155.294 91.6308 155.229 90.9243C155.165 90.1536 155.037 89.3186 154.588 88.4836C154.139 87.6487 153.241 87.0706 152.215 86.621C151.188 86.2356 149.97 86.0429 148.751 86.2999C148.174 86.4283 147.532 86.621 146.955 86.8779C146.378 87.1991 145.864 87.6487 145.544 88.1625C145.223 88.7405 145.223 89.4471 145.544 90.0251C145.864 90.6032 146.442 91.0528 147.147 91.1812C147.789 91.3739 148.494 91.117 149.007 90.6674C149.521 90.2178 149.777 89.5755 149.841 88.9332C149.905 88.2909 149.649 87.6487 149.264 87.1348C148.879 86.621 148.43 86.1714 147.853 85.9145C147.34 85.5933 146.698 85.5933 146.121 85.4649C145.544 85.4007 144.966 85.2722 144.389 85.208C143.299 85.0795 142.208 85.0153 141.246 84.9511C139.322 84.8868 137.782 84.8868 136.692 84.8868C136.179 84.8868 135.794 84.8868 135.473 84.8868C135.216 84.8868 135.024 84.8868 135.024 84.8868C135.024 84.8868 135.152 84.8868 135.473 84.8226C135.794 84.8226 136.179 84.7584 136.692 84.7584C137.782 84.6941 139.322 84.6299 141.246 84.6941C142.208 84.6941 143.234 84.7584 144.389 84.8868C144.966 84.9511 145.544 85.0153 146.121 85.0795C146.442 85.1437 146.698 85.1437 147.019 85.208C147.34 85.2722 147.66 85.4007 147.917 85.5291C148.494 85.8503 149.007 86.2999 149.456 86.8779C149.841 87.456 150.162 88.1625 150.098 88.869C150.034 89.5755 149.713 90.3463 149.2 90.8601C148.687 91.3739 147.853 91.695 147.083 91.5024C146.313 91.3097 145.672 90.7958 145.287 90.1536C144.902 89.5113 144.902 88.6121 145.287 87.9698C145.608 87.3275 146.185 86.8779 146.827 86.5568C147.404 86.2356 148.045 86.0429 148.687 85.9145C149.97 85.7218 151.253 85.8503 152.279 86.2999C153.305 86.7495 154.267 87.3917 154.78 88.2909C155.229 89.1901 155.358 90.0893 155.422 90.8601C155.486 91.6308 155.422 92.2731 155.422 92.8512C155.422 93.365 155.358 93.7504 155.358 94.0715C155.358 94.3926 155.294 94.5211 155.294 94.5211Z" fill="#141621"/>
<path d="M175.563 94.5211C175.563 94.5211 175.499 94.3284 175.435 94.0073C175.371 93.6861 175.307 93.2365 175.178 92.5942C174.922 91.3739 174.473 89.6397 173.639 87.5844C172.805 85.5291 171.394 83.2169 169.085 81.4185C167.93 80.5193 166.455 80.0055 164.915 79.8128C163.376 79.5559 161.708 79.6201 159.976 79.5559C153.177 79.4274 147.019 79.4274 142.593 79.299C140.348 79.2347 138.552 79.1063 137.333 79.042C136.756 78.9778 136.243 78.9778 135.922 78.9136C135.601 78.9136 135.409 78.8494 135.409 78.8494C135.409 78.8494 135.601 78.8494 135.922 78.8494C136.307 78.8494 136.756 78.9136 137.333 78.9136C138.552 78.9778 140.348 79.042 142.593 79.1063C147.019 79.2347 153.177 79.1705 159.976 79.299C161.644 79.3632 163.312 79.3632 164.915 79.5559C166.519 79.7486 168.058 80.2624 169.277 81.2258C170.432 82.125 171.458 83.2169 172.164 84.3088C172.933 85.4007 173.446 86.4925 173.895 87.5202C174.729 89.5755 175.114 91.3739 175.371 92.5942C175.499 93.2365 175.563 93.6861 175.563 94.0073C175.563 94.3284 175.563 94.5211 175.563 94.5211Z" fill="#141621"/>
<path d="M190.573 66.4532H139.45V73.9037H190.573V66.4532Z" fill="#141621"/>
<path d="M178.578 70.1786H150.739V73.9038H178.578V70.1786Z" fill="#2F3549"/>
<path d="M211.42 220.601C211.42 220.666 210.843 220.666 209.88 220.987C208.918 221.308 207.507 221.822 206.032 222.849C205.262 223.363 204.557 224.005 203.851 224.84C203.53 225.226 203.209 225.74 202.953 226.189C202.696 226.703 202.568 227.281 202.376 227.859C201.798 230.236 201.991 232.869 202.055 235.695C202.183 238.521 201.991 241.283 200.9 243.531C200.387 244.623 199.617 245.586 198.784 246.293C197.95 246.999 197.052 247.513 196.218 247.898C195.384 248.284 194.55 248.476 193.844 248.605C193.139 248.733 192.497 248.733 191.984 248.669C191.471 248.605 191.086 248.541 190.83 248.476C190.573 248.412 190.445 248.348 190.445 248.348C190.445 248.284 191.022 248.476 192.048 248.541C192.561 248.541 193.203 248.541 193.909 248.412C194.614 248.284 195.384 248.027 196.218 247.641C197.052 247.256 197.885 246.742 198.719 246.036C199.489 245.329 200.195 244.43 200.708 243.338C201.734 241.154 201.927 238.457 201.798 235.631C201.67 232.869 201.542 230.107 202.119 227.731C202.247 227.153 202.44 226.575 202.696 225.997C202.953 225.483 203.274 224.969 203.658 224.583C204.364 223.749 205.134 223.042 205.904 222.528C207.443 221.501 208.854 220.987 209.88 220.73C210.394 220.601 210.778 220.537 211.035 220.537C211.292 220.601 211.42 220.601 211.42 220.601Z" fill="#263238"/>
<path d="M192.048 246.164H187.879V251.302H192.048V246.164Z" fill="#263238"/>
<path d="M234.961 207.691H211.42V233.511H234.961V207.691Z" fill="#2F3549"/>
<path d="M223.222 228.437C227.509 228.437 230.984 224.958 230.984 220.666C230.984 216.373 227.509 212.894 223.222 212.894C218.936 212.894 215.461 216.373 215.461 220.666C215.461 224.958 218.936 228.437 223.222 228.437Z" fill="#141621"/>
<path d="M223.222 224.519C225.348 224.519 227.071 222.794 227.071 220.666C227.071 218.537 225.348 216.812 223.222 216.812C221.097 216.812 219.374 218.537 219.374 220.666C219.374 222.794 221.097 224.519 223.222 224.519Z" fill="#5BC4D6"/>
<path d="M214.627 212.38C215.017 212.38 215.333 212.064 215.333 211.674C215.333 211.283 215.017 210.967 214.627 210.967C214.237 210.967 213.922 211.283 213.922 211.674C213.922 212.064 214.237 212.38 214.627 212.38Z" fill="#5BC4D6"/>
<path d="M231.369 212.38C231.758 212.38 232.074 212.064 232.074 211.674C232.074 211.283 231.758 210.967 231.369 210.967C230.979 210.967 230.663 211.283 230.663 211.674C230.663 212.064 230.979 212.38 231.369 212.38Z" fill="#5BC4D6"/>
<path d="M231.561 231.456C231.951 231.456 232.267 231.14 232.267 230.749C232.267 230.359 231.951 230.043 231.561 230.043C231.172 230.043 230.856 230.359 230.856 230.749C230.856 231.14 231.172 231.456 231.561 231.456Z" fill="#5BC4D6"/>
<path d="M214.627 231.777C215.017 231.777 215.333 231.461 215.333 231.071C215.333 230.68 215.017 230.364 214.627 230.364C214.237 230.364 213.922 230.68 213.922 231.071C213.922 231.461 214.237 231.777 214.627 231.777Z" fill="#5BC4D6"/>
<path d="M236.885 207.691H234.961V233.511H236.885V207.691Z" fill="#141621"/>
<path d="M206.353 35.4953C208.662 30.0358 207.251 24.3837 203.466 19.8878C199.617 15.3918 193.203 13.2722 187.494 14.6853C186.468 8.96894 182.491 3.8949 177.231 1.51845C171.971 -0.858001 165.493 -0.408402 160.553 2.61033C155.614 5.62906 152.343 11.2169 152.086 16.9975C148.174 17.6398 144.581 20.1447 142.657 23.613C140.733 27.0813 140.412 31.4489 141.887 35.1741L206.353 35.4953Z" fill="#4164A9"/>
<path d="M168.956 35.3025V26.1821H164.402L171.266 16.4836L178.129 26.1179H173.639V35.3025H168.956Z" fill="white"/>
</svg>
