<svg width="30" height="29" viewBox="0 0 30 29" fill="none" xmlns="http://www.w3.org/2000/svg">
<path d="M2.00195 0.500244H18.002V2.50024H2.00195V0.500244Z" fill="#D2E1FF"/>
<path d="M2 26.5H18V28.5H2V26.5Z" fill="#D2E1FF"/>
<path d="M6 14.9998H9V17.9998H6V14.9998Z" fill="#D2E1FF"/>
<path d="M11 14.9998H14V17.9998H11V14.9998Z" fill="#D2E1FF"/>
<path d="M6 10H9V13H6V10Z" fill="#D2E1FF"/>
<path d="M11 10H14V13H11V10Z" fill="#D2E1FF"/>
<path d="M6 5H9V8H6V5Z" fill="#D2E1FF"/>
<path d="M11 5H14V8H11V5Z" fill="#D2E1FF"/>
<path d="M8.00098 20.5H12.001V26.5H8.00098V20.5Z" fill="#D2E1FF"/>
<path d="M19.173 20.8055C18.988 20.3922 18.9503 19.928 19.0662 19.4903C19.182 19.0525 19.4443 18.6677 19.8095 18.4C19.6395 18.1778 19.5351 17.9124 19.508 17.634C19.4809 17.3555 19.5323 17.0751 19.6562 16.8243C19.7801 16.5734 19.9718 16.3623 20.2094 16.2146C20.447 16.067 20.7212 15.9888 21.001 15.9888C21.2807 15.9888 21.5549 16.067 21.7926 16.2146C22.0302 16.3623 22.2218 16.5734 22.3458 16.8243C22.4697 17.0751 22.521 17.3555 22.4939 17.634C22.4668 17.9124 22.3624 18.1778 22.1925 18.4C22.5572 18.6676 22.8192 19.0521 22.935 19.4894C23.0508 19.9267 23.0134 20.3904 22.829 20.8035C23.1612 21.1596 23.3822 21.6051 23.4648 22.0851C23.5474 22.5651 23.4879 23.0588 23.2937 23.5055C23.0996 23.9522 22.7791 24.3325 22.3718 24.5995C21.9645 24.8666 21.4881 25.0089 21.001 25.0089C20.5139 25.0089 20.0374 24.8666 19.6301 24.5995C19.2228 24.3325 18.9024 23.9522 18.7082 23.5055C18.514 23.0588 18.4546 22.5651 18.5372 22.0851C18.6197 21.6051 18.8407 21.1596 19.173 20.8035V20.8055Z" fill="#D2E1FF"/>
<path d="M25.172 22.8055C24.9871 22.3922 24.9494 21.928 25.0652 21.4903C25.181 21.0525 25.4434 20.6677 25.8085 20.4C25.6386 20.1778 25.5341 19.9124 25.507 19.634C25.48 19.3555 25.5313 19.0751 25.6552 18.8243C25.7792 18.5734 25.9708 18.3623 26.2084 18.2146C26.446 18.067 26.7202 17.9888 27 17.9888C27.2798 17.9888 27.554 18.067 27.7916 18.2146C28.0292 18.3623 28.2208 18.5734 28.3448 18.8243C28.4687 19.0751 28.52 19.3555 28.493 19.634C28.4659 19.9124 28.3615 20.1778 28.1915 20.4C28.5562 20.6676 28.8182 21.0521 28.934 21.4894C29.0499 21.9267 29.0124 22.3904 28.828 22.8035C29.1603 23.1596 29.3813 23.6051 29.4638 24.0851C29.5464 24.5651 29.4869 25.0588 29.2928 25.5055C29.0986 25.9522 28.7782 26.3325 28.3709 26.5995C27.9635 26.8666 27.4871 27.0089 27 27.0089C26.5129 27.0089 26.0365 26.8666 25.6292 26.5995C25.2218 26.3325 24.9014 25.9522 24.7072 25.5055C24.5131 25.0588 24.4536 24.5651 24.5362 24.0851C24.6187 23.6051 24.8397 23.1596 25.172 22.8035V22.8055Z" fill="#D2E1FF"/>
<path d="M9 18.5C9.13261 18.5 9.25979 18.4473 9.35355 18.3536C9.44732 18.2598 9.5 18.1326 9.5 18V15C9.5 14.8674 9.44732 14.7402 9.35355 14.6464C9.25979 14.5527 9.13261 14.5 9 14.5H6C5.86739 14.5 5.74021 14.5527 5.64645 14.6464C5.55268 14.7402 5.5 14.8674 5.5 15V18C5.5 18.1326 5.55268 18.2598 5.64645 18.3536C5.74021 18.4473 5.86739 18.5 6 18.5H9ZM6.5 15.5H8.5V17.5H6.5V15.5Z" fill="#4164A9"/>
<path d="M11 18.5H14C14.1326 18.5 14.2598 18.4473 14.3536 18.3536C14.4473 18.2598 14.5 18.1326 14.5 18V15C14.5 14.8674 14.4473 14.7402 14.3536 14.6464C14.2598 14.5527 14.1326 14.5 14 14.5H11C10.8674 14.5 10.7402 14.5527 10.6464 14.6464C10.5527 14.7402 10.5 14.8674 10.5 15V18C10.5 18.1326 10.5527 18.2598 10.6464 18.3536C10.7402 18.4473 10.8674 18.5 11 18.5ZM11.5 15.5H13.5V17.5H11.5V15.5Z" fill="#4164A9"/>
<path d="M6 13.5H9C9.13261 13.5 9.25979 13.4473 9.35355 13.3536C9.44732 13.2598 9.5 13.1326 9.5 13V10C9.5 9.86739 9.44732 9.74021 9.35355 9.64645C9.25979 9.55268 9.13261 9.5 9 9.5H6C5.86739 9.5 5.74021 9.55268 5.64645 9.64645C5.55268 9.74021 5.5 9.86739 5.5 10V13C5.5 13.1326 5.55268 13.2598 5.64645 13.3536C5.74021 13.4473 5.86739 13.5 6 13.5ZM6.5 10.5H8.5V12.5H6.5V10.5Z" fill="#4164A9"/>
<path d="M11 13.5H14C14.1326 13.5 14.2598 13.4473 14.3536 13.3536C14.4473 13.2598 14.5 13.1326 14.5 13V10C14.5 9.86739 14.4473 9.74021 14.3536 9.64645C14.2598 9.55268 14.1326 9.5 14 9.5H11C10.8674 9.5 10.7402 9.55268 10.6464 9.64645C10.5527 9.74021 10.5 9.86739 10.5 10V13C10.5 13.1326 10.5527 13.2598 10.6464 13.3536C10.7402 13.4473 10.8674 13.5 11 13.5ZM11.5 10.5H13.5V12.5H11.5V10.5Z" fill="#4164A9"/>
<path d="M6 8.5H9C9.13261 8.5 9.25979 8.44732 9.35355 8.35355C9.44732 8.25979 9.5 8.13261 9.5 8V5C9.5 4.86739 9.44732 4.74021 9.35355 4.64645C9.25979 4.55268 9.13261 4.5 9 4.5H6C5.86739 4.5 5.74021 4.55268 5.64645 4.64645C5.55268 4.74021 5.5 4.86739 5.5 5V8C5.5 8.13261 5.55268 8.25979 5.64645 8.35355C5.74021 8.44732 5.86739 8.5 6 8.5ZM6.5 5.5H8.5V7.5H6.5V5.5Z" fill="#4164A9"/>
<path d="M11 8.5H14C14.1326 8.5 14.2598 8.44732 14.3536 8.35355C14.4473 8.25979 14.5 8.13261 14.5 8V5C14.5 4.86739 14.4473 4.74021 14.3536 4.64645C14.2598 4.55268 14.1326 4.5 14 4.5H11C10.8674 4.5 10.7402 4.55268 10.6464 4.64645C10.5527 4.74021 10.5 4.86739 10.5 5V8C10.5 8.13261 10.5527 8.25979 10.6464 8.35355C10.7402 8.44732 10.8674 8.5 11 8.5ZM11.5 5.5H13.5V7.5H11.5V5.5Z" fill="#4164A9"/>
<path d="M20.999 22C21.1316 22 21.2588 21.9473 21.3526 21.8536C21.4463 21.7598 21.499 21.6326 21.499 21.5V21C21.499 20.8674 21.4463 20.7402 21.3526 20.6464C21.2588 20.5527 21.1316 20.5 20.999 20.5C20.8664 20.5 20.7392 20.5527 20.6455 20.6464C20.5517 20.7402 20.499 20.8674 20.499 21V21.5C20.499 21.6326 20.5517 21.7598 20.6455 21.8536C20.7392 21.9473 20.8664 22 20.999 22Z" fill="#4164A9"/>
<path d="M30 24.5C29.9992 23.8524 29.7873 23.2228 29.3965 22.7065C29.5205 22.2911 29.5333 21.8505 29.4336 21.4286C29.334 21.0068 29.1253 20.6184 28.8285 20.3025C28.9418 20.0501 29.0003 19.7766 29 19.5C29 18.9696 28.7893 18.4609 28.4142 18.0858C28.0391 17.7107 27.5304 17.5 27 17.5C26.4696 17.5 25.9609 17.7107 25.5858 18.0858C25.2107 18.4609 25 18.9696 25 19.5C25.0001 19.7758 25.0585 20.0484 25.1715 20.3C24.8747 20.616 24.6661 21.0044 24.5664 21.4264C24.4667 21.8483 24.4795 22.2891 24.6035 22.7045C24.293 23.1148 24.0938 23.5983 24.025 24.1082C23.9563 24.6181 24.0204 25.1371 24.2112 25.6149C24.402 26.0928 24.7129 26.5132 25.1139 26.8356C25.5149 27.158 25.9923 27.3713 26.5 27.455V28H21.5V25.455C22.0075 25.3712 22.4848 25.1577 22.8856 24.8354C23.2864 24.513 23.5973 24.0926 23.788 23.6149C23.9787 23.1372 24.0429 22.6183 23.9743 22.1086C23.9057 21.5988 23.7067 21.1153 23.3965 20.705C23.5207 20.2895 23.5336 19.8487 23.4339 19.4266C23.3342 19.0045 23.1255 18.616 22.8285 18.3C22.9415 18.0484 22.9999 17.7758 23 17.5C23 16.9696 22.7893 16.4609 22.4142 16.0858C22.0391 15.7107 21.5304 15.5 21 15.5C20.4696 15.5 19.9609 15.7107 19.5858 16.0858C19.2107 16.4609 19 16.9696 19 17.5C19.0001 17.7758 19.0585 18.0484 19.1715 18.3C18.8747 18.616 18.6661 19.0044 18.5664 19.4264C18.4667 19.8483 18.4795 20.2891 18.6035 20.7045C18.293 21.1148 18.0938 21.5983 18.025 22.1082C17.9563 22.6181 18.0204 23.1371 18.2112 23.6149C18.402 24.0928 18.7129 24.5132 19.1139 24.8356C19.5149 25.158 19.9923 25.3713 20.5 25.455V26.066L19.7775 25.584C19.6672 25.5104 19.5321 25.4836 19.4021 25.5096C19.272 25.5356 19.1576 25.6122 19.084 25.7225C19.0104 25.8328 18.9836 25.9679 19.0096 26.0979C19.0356 26.228 19.1122 26.3424 19.2225 26.416L20.5 27.2675V28H18.5V26.5C18.5 26.3674 18.4473 26.2402 18.3536 26.1464C18.2598 26.0527 18.1326 26 18 26H16.5V3H18C18.1326 3 18.2598 2.94732 18.3536 2.85355C18.4473 2.75978 18.5 2.63261 18.5 2.5V0.5C18.5 0.367392 18.4473 0.240215 18.3536 0.146447C18.2598 0.0526784 18.1326 0 18 0H2C1.86739 0 1.74021 0.0526784 1.64645 0.146447C1.55268 0.240215 1.5 0.367392 1.5 0.5V2.5C1.5 2.63261 1.55268 2.75978 1.64645 2.85355C1.74021 2.94732 1.86739 3 2 3H3.5V26H2C1.86739 26 1.74021 26.0527 1.64645 26.1464C1.55268 26.2402 1.5 26.3674 1.5 26.5V28H0.5C0.367392 28 0.240215 28.0527 0.146447 28.1464C0.0526784 28.2402 0 28.3674 0 28.5C0 28.6326 0.0526784 28.7598 0.146447 28.8536C0.240215 28.9473 0.367392 29 0.5 29H28.5C28.6326 29 28.7598 28.9473 28.8536 28.8536C28.9473 28.7598 29 28.6326 29 28.5C29 28.3674 28.9473 28.2402 28.8536 28.1464C28.7598 28.0527 28.6326 28 28.5 28H27.5V27.455C28.1983 27.3364 28.8321 26.9747 29.2896 26.434C29.7471 25.8933 29.9987 25.2083 30 24.5ZM19 22.5C19.0016 21.9966 19.1941 21.5126 19.5385 21.1455C19.6049 21.0739 19.6488 20.9844 19.6649 20.888C19.681 20.7917 19.6685 20.6928 19.629 20.6035C19.4908 20.294 19.4629 19.9465 19.55 19.6189C19.6371 19.2913 19.8339 19.0035 20.1075 18.8035C20.2136 18.7239 20.2837 18.6055 20.3025 18.4742C20.3212 18.3429 20.2871 18.2096 20.2075 18.1035C20.0734 17.9308 20.0005 17.7186 20 17.5C20 17.2348 20.1054 16.9804 20.2929 16.7929C20.4804 16.6054 20.7348 16.5 21 16.5C21.2652 16.5 21.5196 16.6054 21.7071 16.7929C21.8946 16.9804 22 17.2348 22 17.5C21.9989 17.7173 21.9261 17.9282 21.793 18.1C21.7134 18.2061 21.6793 18.3394 21.698 18.4707C21.7168 18.602 21.7869 18.7204 21.893 18.8C22.1668 18.9999 22.3636 19.2878 22.4506 19.6154C22.5376 19.943 22.5095 20.2906 22.371 20.6C22.3316 20.6894 22.3192 20.7883 22.3354 20.8846C22.3515 20.9809 22.3956 21.0704 22.462 21.142C22.6996 21.3939 22.8672 21.7035 22.9481 22.0402C23.029 22.3769 23.0204 22.7289 22.9231 23.0612C22.8258 23.3935 22.6433 23.6946 22.3937 23.9346C22.144 24.1745 21.8359 24.345 21.5 24.429V23C21.5 22.8674 21.4473 22.7402 21.3536 22.6464C21.2598 22.5527 21.1326 22.5 21 22.5C20.8674 22.5 20.7402 22.5527 20.6464 22.6464C20.5527 22.7402 20.5 22.8674 20.5 23V24.429C20.0719 24.3185 19.6925 24.0692 19.4212 23.7202C19.1498 23.3712 19.0017 22.9421 19 22.5ZM2.5 1H17.5V2H2.5V1ZM4.5 3H15.5V26H12.5V20.5C12.5 20.3674 12.4473 20.2402 12.3536 20.1464C12.2598 20.0527 12.1326 20 12 20H8C7.86739 20 7.74021 20.0527 7.64645 20.1464C7.55268 20.2402 7.5 20.3674 7.5 20.5V26H4.5V3ZM11.5 26H8.5V21H11.5V26ZM2.5 28V27H17.5V28H2.5ZM25 24.5C25.0016 23.9966 25.1941 23.5126 25.5385 23.1455C25.6049 23.0739 25.6488 22.9844 25.6649 22.888C25.681 22.7917 25.6685 22.6928 25.629 22.6035C25.4908 22.294 25.4629 21.9465 25.55 21.6189C25.6371 21.2913 25.8339 21.0035 26.1075 20.8035C26.2136 20.7239 26.2837 20.6055 26.3025 20.4742C26.3212 20.3429 26.2871 20.2096 26.2075 20.1035C26.0734 19.9308 26.0005 19.7186 26 19.5C26 19.2348 26.1054 18.9804 26.2929 18.7929C26.4804 18.6054 26.7348 18.5 27 18.5C27.2652 18.5 27.5196 18.6054 27.7071 18.7929C27.8946 18.9804 28 19.2348 28 19.5C27.9989 19.7173 27.9261 19.9282 27.793 20.1C27.7134 20.2061 27.6793 20.3394 27.698 20.4707C27.7168 20.602 27.7869 20.7204 27.893 20.8C28.1668 20.9999 28.3636 21.2878 28.4506 21.6154C28.5376 21.943 28.5095 22.2906 28.371 22.6C28.3316 22.6894 28.3192 22.7883 28.3354 22.8846C28.3515 22.9809 28.3956 23.0704 28.462 23.142C28.6996 23.3939 28.8672 23.7035 28.9481 24.0402C29.029 24.3769 29.0204 24.7289 28.9231 25.0612C28.8258 25.3935 28.6433 25.6946 28.3937 25.9346C28.144 26.1745 27.8359 26.345 27.5 26.429V25C27.5 24.8674 27.4473 24.7402 27.3536 24.6464C27.2598 24.5527 27.1326 24.5 27 24.5C26.8674 24.5 26.7402 24.5527 26.6464 24.6464C26.5527 24.7402 26.5 24.8674 26.5 25V26.429C26.0719 26.3185 25.6925 26.0692 25.4211 25.7202C25.1498 25.3712 25.0017 24.9421 25 24.5Z" fill="#4164A9"/>
<path d="M25.3434 7.94977C25.3433 7.54563 25.194 7.15576 24.9241 6.85497C24.6541 6.55419 24.2826 6.36369 23.8809 6.32005C23.7901 5.9575 23.5927 5.63051 23.3142 5.38128C23.0357 5.13206 22.6888 4.97205 22.3185 4.92192C21.9481 4.87179 21.5712 4.93385 21.2365 5.10007C20.9017 5.26629 20.6245 5.52905 20.4406 5.85441C19.9656 5.90988 19.5299 6.14484 19.2225 6.51118C18.9151 6.87751 18.7595 7.34749 18.7874 7.82487C18.8153 8.30225 19.0246 8.7509 19.3726 9.07894C19.7205 9.40697 20.1807 9.58956 20.6589 9.58932H23.938C24.021 9.58947 24.1022 9.5659 24.1722 9.5214C24.5102 9.4197 24.8065 9.21201 25.0174 8.92901C25.2283 8.64601 25.3425 8.3027 25.3434 7.94977ZM23.8443 8.63838C23.8266 8.64213 23.8091 8.64682 23.7919 8.65243H20.6589C20.5359 8.65351 20.4138 8.63034 20.2998 8.58425C20.1857 8.53816 20.0818 8.47006 19.994 8.38382C19.9063 8.29758 19.8364 8.19491 19.7883 8.08165C19.7402 7.96839 19.7149 7.84678 19.7138 7.72374C19.7127 7.60071 19.7359 7.47867 19.782 7.36459C19.8281 7.2505 19.8962 7.14662 19.9824 7.05886C20.0687 6.9711 20.1714 6.90119 20.2846 6.85311C20.3979 6.80503 20.5195 6.77973 20.6425 6.77865L20.7118 6.78615C20.8142 6.79352 20.9162 6.76676 21.0018 6.71007C21.0874 6.65337 21.1518 6.56993 21.185 6.47276C21.2559 6.26493 21.3978 6.08875 21.5858 5.97524C21.7738 5.86173 21.9958 5.81815 22.2127 5.85218C22.4297 5.8862 22.6276 5.99564 22.7719 6.16125C22.9161 6.32685 22.9973 6.53801 23.0011 6.75757C23.0011 6.76882 23.0011 6.78053 22.9988 6.78943C22.9968 6.86 23.0108 6.93011 23.0397 6.99451C23.0686 7.05892 23.1117 7.11596 23.1657 7.16137C23.2198 7.20678 23.2834 7.23938 23.3519 7.25674C23.4203 7.2741 23.4918 7.27577 23.5609 7.26162C23.6629 7.24288 23.7677 7.2465 23.8681 7.27221C23.9685 7.29792 24.0621 7.34512 24.1425 7.41055C24.2229 7.47597 24.2881 7.55807 24.3337 7.65117C24.3793 7.74426 24.4041 7.84614 24.4065 7.94977C24.4065 8.11175 24.3506 8.26877 24.2481 8.39426C24.1457 8.51974 24.003 8.60598 23.8443 8.63838Z" fill="#4164A9"/>
</svg>
