<svg width="30" height="30" viewBox="0 0 30 30" fill="none" xmlns="http://www.w3.org/2000/svg">
<path d="M25.0002 9.99988V7.9999C24.9985 6.6199 23.8802 5.50158 22.5001 5.49988H7.50014C6.12014 5.50152 5.00182 6.61984 5.00012 7.9999V9.99988C5.00235 10.7898 5.37917 11.5319 6.01561 11.9999C5.37911 12.4678 5.00235 13.2099 5.00012 13.9998V15.9998C5.00235 16.7898 5.37917 17.5319 6.01561 17.9998C5.37911 18.4677 5.00235 19.2098 5.00012 19.9998V21.9998C5.00176 23.3798 6.12008 24.4981 7.50014 24.4998H22.5001C23.8801 24.4981 24.9985 23.3798 25.0002 21.9998V19.9998C24.9979 19.2098 24.6211 18.4677 23.9847 17.9998C24.6212 17.5319 24.9979 16.7898 25.0002 15.9998V13.9998C24.9979 13.2099 24.6211 12.4678 23.9847 11.9999C24.6211 11.5319 24.9979 10.7898 25.0002 9.99988ZM24.0001 19.9998V21.9998C24.0001 22.8282 23.3285 23.4998 22.5001 23.4998H7.50014C6.67174 23.4998 6.00014 22.8282 6.00014 21.9998V19.9998C6.00014 19.1714 6.67168 18.4998 7.50014 18.4998H22.5001C23.3286 18.4998 24.0001 19.1714 24.0001 19.9998ZM24.0001 13.9998V15.9998C24.0001 16.8282 23.3285 17.4998 22.5001 17.4998H7.50014C6.67174 17.4998 6.00014 16.8282 6.00014 15.9998V13.9998C6.00014 13.1714 6.67168 12.4998 7.50014 12.4998H22.5001C23.3286 12.4998 24.0001 13.1714 24.0001 13.9998ZM24.0001 9.99988C24.0001 10.8283 23.3285 11.4999 22.5001 11.4999H7.50014C6.67174 11.4999 6.00014 10.8283 6.00014 9.99988V7.9999C6.00014 7.1715 6.67168 6.4999 7.50014 6.4999H22.5001C23.3285 6.4999 24.0001 7.17144 24.0001 7.9999V9.99988Z" fill="black"/>
<path d="M21 8.50024H20C19.7238 8.50024 19.5 8.72413 19.5 9.00023C19.5 9.27638 19.7239 9.50021 20 9.50021H21C21.2762 9.50021 21.5 9.27632 21.5 9.00023C21.5 8.72407 21.2762 8.50024 21 8.50024Z" fill="black"/>
<path d="M18 8.50024H17C16.7238 8.50024 16.5 8.72413 16.5 9.00023C16.5 9.27638 16.7238 9.50021 17 9.50021H18C18.2762 9.50021 18.5 9.27632 18.5 9.00023C18.5 8.72407 18.2762 8.50024 18 8.50024Z" fill="black"/>
<path d="M9.50012 7.5C8.67172 7.5 8.00012 8.17154 8.00012 9C8.00012 9.8284 8.67172 10.5 9.50012 10.5C10.3285 10.5 11.0001 9.82846 11.0001 9C11.0001 8.1716 10.3286 7.5 9.50012 7.5ZM9.50012 9.49998C9.22397 9.49998 9.00014 9.27609 9.00014 9C9.00014 8.72385 9.22397 8.50002 9.50012 8.50002C9.77627 8.50002 10.0001 8.72391 10.0001 9C10.0002 9.27615 9.77627 9.49998 9.50012 9.49998Z" fill="black"/>
<path d="M21 14.4999H20C19.7238 14.4999 19.5 14.7237 19.5 14.9999C19.5 15.276 19.7239 15.4998 20 15.4998H21C21.2762 15.4998 21.5 15.276 21.5 14.9999C21.5 14.7237 21.2762 14.4999 21 14.4999Z" fill="black"/>
<path d="M18 14.4999H17C16.7238 14.4999 16.5 14.7237 16.5 14.9999C16.5 15.276 16.7238 15.4998 17 15.4998H18C18.2762 15.4998 18.5 15.276 18.5 14.9999C18.5 14.7237 18.2762 14.4999 18 14.4999Z" fill="black"/>
<path d="M9.50012 13.5C8.67172 13.5 8.00012 14.1715 8.00012 15C8.00012 15.8284 8.67172 16.5 9.50012 16.5C10.3285 16.5 11.0001 15.8284 11.0001 15C11.0001 14.1716 10.3286 13.5 9.50012 13.5ZM9.50012 15.5C9.22397 15.5 9.00014 15.2762 9.00014 15C9.00014 14.7238 9.22397 14.5 9.50012 14.5C9.77627 14.5 10.0001 14.7238 10.0001 15C10.0002 15.2762 9.77627 15.5 9.50012 15.5Z" fill="black"/>
<path d="M21 20.4999H20C19.7238 20.4999 19.5 20.7237 19.5 20.9999C19.5 21.276 19.7239 21.4998 20 21.4998H21C21.2762 21.4998 21.5 21.276 21.5 20.9999C21.5 20.7237 21.2762 20.4999 21 20.4999Z" fill="black"/>
<path d="M18 20.4999H17C16.7238 20.4999 16.5 20.7237 16.5 20.9999C16.5 21.276 16.7238 21.4998 17 21.4998H18C18.2762 21.4998 18.5 21.276 18.5 20.9999C18.5 20.7237 18.2762 20.4999 18 20.4999Z" fill="black"/>
<path d="M9.50012 19.5C8.67172 19.5 8.00012 20.1716 8.00012 21C8.00012 21.8284 8.67172 22.5 9.50012 22.5C10.3285 22.5 11.0001 21.8285 11.0001 21C11.0001 20.1715 10.3286 19.5 9.50012 19.5ZM9.50012 21.5C9.22397 21.5 9.00014 21.2762 9.00014 21C9.00014 20.7238 9.22397 20.5 9.50012 20.5C9.77627 20.5 10.0001 20.7238 10.0001 21C10.0001 21.2762 9.77627 21.5 9.50012 21.5Z" fill="black"/>
<path d="M30 14.9998C29.998 14.9486 29.9879 14.8979 29.97 14.8498C29.9864 14.8028 29.9955 14.7536 29.997 14.7038C29.9868 14.187 29.9504 13.671 29.8881 13.1578C29.8511 12.8868 29.6034 12.6957 29.3319 12.729C29.0604 12.7622 28.866 13.0074 28.8956 13.2793C28.9534 13.7586 28.9868 14.2406 28.9956 14.7233C28.9991 14.7709 29.0093 14.8177 29.0261 14.8623C29.0109 14.9067 29.0021 14.953 29.0001 14.9998C28.9954 20.2136 26.0962 24.9935 21.4746 27.4068L21.9641 26.1863C22.0671 25.93 21.9429 25.6388 21.6866 25.5358C21.4304 25.4328 21.1391 25.5571 21.0361 25.8133L20.1536 28.0133C18.5139 28.6659 16.765 29.0007 15.0001 28.9998C14.5172 28.9996 14.0346 28.9751 13.5542 28.9263C13.2848 28.9077 13.0492 29.1064 13.0222 29.3751C12.9952 29.6438 13.1864 29.8855 13.4542 29.9208C13.9678 29.9734 14.4839 29.9998 15.0002 29.9998C16.8519 30.0005 18.6876 29.6564 20.4132 28.9848L22.9002 29.4898C22.9332 29.4966 22.9666 29.5 23.0002 29.4999C23.2571 29.5001 23.4724 29.3057 23.4982 29.0501C23.5241 28.7945 23.352 28.5609 23.1003 28.5099L21.9642 28.2793C26.9009 25.6886 29.9952 20.5752 30 14.9998Z" fill="black"/>
<path d="M28.0845 10.0089C28.2564 10.4597 28.4048 10.9191 28.529 11.3854C28.5999 11.6523 28.8739 11.8111 29.1408 11.7401C29.4077 11.6691 29.5665 11.3952 29.4955 11.1283C29.3622 10.6284 29.203 10.1357 29.0185 9.65234C28.9157 9.40097 28.6311 9.27757 28.3773 9.37443C28.1236 9.47134 27.9936 9.753 28.0845 10.0089Z" fill="black"/>
<path d="M27.2745 8.26098C27.4101 8.49764 27.7104 8.58196 27.9494 8.45047C28.1884 8.31899 28.2779 8.02022 28.1506 7.77899C27.901 7.32594 27.6283 6.88602 27.3336 6.46098C27.233 6.31116 27.0595 6.22713 26.8796 6.24114C26.6996 6.2552 26.5412 6.36506 26.4651 6.52871C26.389 6.69237 26.4069 6.88432 26.5121 7.03098C26.7869 7.42772 27.0414 7.83829 27.2745 8.26098Z" fill="black"/>
<path d="M21.5001 2.59598C21.9268 2.82104 22.3418 3.06749 22.7436 3.3345C22.9741 3.48737 23.2848 3.42444 23.4376 3.19399C23.5905 2.96354 23.5275 2.65282 23.2971 2.50001C22.8664 2.21348 22.4211 1.94946 21.9631 1.70899C21.8047 1.62631 21.6141 1.6344 21.4633 1.73026C21.3125 1.82612 21.2242 1.99516 21.2318 2.17376C21.2394 2.35235 21.3417 2.51331 21.5001 2.59598Z" fill="black"/>
<path d="M18.346 1.40009C18.8148 1.51569 19.2773 1.65573 19.7315 1.81956C19.9005 1.88343 20.0907 1.8512 20.2292 1.7353C20.3678 1.6194 20.433 1.43776 20.3999 1.26022C20.3668 1.08268 20.2405 0.936785 20.0695 0.878543C19.5826 0.703699 19.087 0.554285 18.5845 0.431062C18.4068 0.374929 18.2127 0.422332 18.0808 0.553933C17.9489 0.685535 17.9011 0.879598 17.9569 1.05743C18.0126 1.23526 18.1626 1.36733 18.346 1.40009Z" fill="black"/>
<path d="M24.2724 4.51445C24.6341 4.83448 24.9792 5.17281 25.3064 5.52794C25.4015 5.6299 25.535 5.6872 25.6744 5.68597C25.8718 5.68486 26.05 5.56784 26.1294 5.3872C26.2088 5.20656 26.1746 4.99609 26.0419 4.84995C25.6918 4.46956 25.3225 4.10722 24.9355 3.76445C24.7283 3.58134 24.412 3.60085 24.2289 3.80792C24.0458 4.01499 24.0653 4.33134 24.2724 4.51445Z" fill="black"/>
<path d="M2.72545 21.7391C2.58987 21.5024 2.28957 21.4181 2.05057 21.5496C1.81157 21.681 1.72209 21.9798 1.84942 22.221C2.09897 22.6741 2.37166 23.114 2.66639 23.5391C2.767 23.6889 2.94049 23.7729 3.12043 23.7589C3.30038 23.7448 3.45875 23.635 3.53487 23.4713C3.61098 23.3077 3.59305 23.1157 3.48788 22.9691C3.21307 22.5723 2.95854 22.1617 2.72545 21.7391Z" fill="black"/>
<path d="M0.669023 17.2775C0.943066 17.2439 1.13807 16.9945 1.10455 16.7205C1.04672 16.2412 1.01332 15.7592 1.00453 15.2765C1.00113 15.2286 0.990879 15.1815 0.974004 15.1365C0.989297 15.0925 0.998027 15.0465 1.00002 15C1.00471 9.78627 3.90398 5.00637 8.52551 2.59301L8.03602 3.81352C7.93301 4.06981 8.05723 4.36102 8.31352 4.46402C8.56981 4.56703 8.86102 4.44281 8.96402 4.18652L9.8465 1.98651C11.4862 1.33389 13.2352 0.999142 15 1.00002C15.4829 1.0002 15.9656 1.02469 16.446 1.0735C16.4626 1.07543 16.4793 1.07643 16.496 1.07649C16.7632 1.07877 16.985 0.870411 16.9995 0.603517C17.0139 0.336622 16.8159 0.105587 16.5499 0.0789855C16.035 0.0263097 15.5177 -5.75186e-05 15 1.07513e-06C13.1483 -0.00070205 11.3126 0.343478 9.58699 1.01502L7.09998 0.510001C6.82934 0.454747 6.5652 0.629357 6.51 0.900001C6.45475 1.17065 6.62936 1.43479 6.9 1.48998L8.03602 1.72049C3.09914 4.31121 0.00480469 9.42463 0 15C0.00205078 15.0513 0.0121875 15.1019 0.03 15.15C0.0136523 15.197 0.00451172 15.2463 0.00298828 15.296C0.0132422 15.8129 0.0496289 16.3288 0.111973 16.842C0.1425 17.0926 0.35502 17.2811 0.6075 17.2815C0.628066 17.2814 0.648574 17.2801 0.669023 17.2775Z" fill="black"/>
<path d="M11.6539 28.598C11.1851 28.483 10.7227 28.3437 10.2684 28.1805C10.01 28.0925 9.72886 28.228 9.63663 28.4848C9.54434 28.7416 9.67513 29.025 9.93036 29.1215C10.4173 29.2964 10.9129 29.4458 11.4154 29.569C11.4544 29.5787 11.4946 29.5836 11.5348 29.5835C11.7876 29.5832 12.0004 29.3944 12.0307 29.1435C12.0611 28.8925 11.8993 28.6584 11.6539 28.598Z" fill="black"/>
<path d="M5.72745 25.4879C5.36581 25.1681 5.02069 24.8302 4.69345 24.4754C4.57392 24.3384 4.38946 24.277 4.21169 24.3152C4.03392 24.3534 3.89089 24.4851 3.83816 24.6591C3.78542 24.8331 3.8313 25.022 3.95792 25.1524C4.30808 25.5328 4.67739 25.8952 5.0644 26.2379C5.27153 26.4211 5.58782 26.4015 5.77093 26.1945C5.95403 25.9873 5.93458 25.671 5.72745 25.4879Z" fill="black"/>
<path d="M1.86035 20.4556C1.95363 20.3201 1.97425 20.1473 1.91554 19.9936V19.9911C1.74363 19.5402 1.59527 19.0808 1.47105 18.6146C1.40009 18.3477 1.12617 18.1888 0.859332 18.2599C0.592437 18.3308 0.433589 18.6047 0.504605 18.8716C0.637847 19.3724 0.797046 19.8659 0.981617 20.3501C1.05544 20.5438 1.24125 20.672 1.44861 20.672C1.61308 20.6721 1.76707 20.5911 1.86035 20.4556Z" fill="black"/>
<path d="M8.50005 27.4038C8.07337 27.1788 7.65835 26.9323 7.25657 26.6653C7.10751 26.5665 6.91702 26.5546 6.75683 26.6343C6.59669 26.714 6.49116 26.873 6.48009 27.0515C6.46902 27.2301 6.55398 27.401 6.70304 27.4998C7.13376 27.7863 7.57902 28.0504 8.03704 28.2908C8.19548 28.3736 8.38603 28.3654 8.53685 28.2696C8.68773 28.1737 8.77597 28.0047 8.76835 27.8261C8.76079 27.6475 8.65849 27.4866 8.50005 27.4038Z" fill="black"/>
</svg>
