<svg width="180" height="140" viewBox="0 0 180 140" fill="none" xmlns="http://www.w3.org/2000/svg">
<rect width="180" height="140" rx="4" fill="white"/>
<g opacity="0.9">
<circle cx="91.7205" cy="68.1575" r="23.1042" transform="rotate(46.4355 91.7205 68.1575)" fill="url(#paint0_linear)" fill-opacity="0.1"/>
<circle cx="76.189" cy="49.7523" r="15.8429" transform="rotate(91.4355 76.189 49.7523)" fill="url(#paint1_linear)" fill-opacity="0.1"/>
</g>
<path d="M101.581 78.0913L99.4628 76.8224C98.8172 76.4362 98.0785 76.2324 97.3261 76.232H94.1385C93.486 76.2308 92.8363 76.3148 92.2053 76.4813L82.6012 79.0594C81.5511 79.3493 80.7077 80.1314 80.3398 81.1567L71.8921 76.5865C71.2071 76.1967 70.4052 76.0643 69.6312 76.2129C69.3392 76.2645 69.0562 76.3575 68.7903 76.489C68.1897 76.7765 67.6915 77.2411 67.3617 77.8197C67.0734 78.3236 66.922 78.8941 66.922 79.4744C66.913 80.6593 67.5408 81.7573 68.5657 82.3509L83.706 91.4097C84.3639 91.817 85.1216 92.0326 85.8951 92.0326H97.6124C98.1358 92.033 98.6543 91.9339 99.1408 91.7415L101.581 90.7779V92.0326H109.897V75.4004H101.581V78.0913ZM98.5297 90.1948C98.2385 90.3097 97.9279 90.369 97.6148 90.3694H85.8951C85.4265 90.369 84.9673 90.237 84.5701 89.9885L69.4091 80.9192C68.8938 80.6215 68.5783 80.0701 68.5823 79.4752C68.5836 79.1837 68.6603 78.897 68.8053 78.6436C68.9709 78.3565 69.2203 78.1263 69.5195 77.9841C69.6515 77.92 69.7912 77.8745 69.9353 77.8493C70.0405 77.8298 70.1473 77.8197 70.2541 77.8197C70.54 77.8189 70.821 77.8936 71.0691 78.0357L80.2294 82.9856C80.2399 83.0363 80.2399 83.0863 80.2533 83.137C80.6472 84.5887 81.964 85.597 83.4685 85.5986C83.9314 85.5564 84.3899 85.4743 84.839 85.3541L93.4791 83.042L93.0503 81.4353L84.4382 83.7372C84.0589 83.8245 83.5696 83.9244 83.4685 83.9329C82.7173 83.9341 82.0587 83.4323 81.8609 82.7078C81.8341 82.6071 81.8183 82.504 81.8126 82.4001C81.8126 82.4001 81.8061 82.1986 81.8126 82.128C81.8759 81.4324 82.3632 80.8485 83.036 80.6613L92.6361 78.093C93.1262 77.9618 93.6314 77.8952 94.1385 77.8952H97.3261C97.7776 77.8952 98.2207 78.0179 98.6076 78.2497L101.581 80.0299V88.9888L98.5297 90.1948ZM103.244 77.0636H108.234V90.3694H103.244V77.0636Z" fill="#323B6E"/>
<path d="M94.2991 48.7888L89.8381 44.3282C88.4376 42.9196 86.5319 42.1302 84.5459 42.1359H74.0907C73.4455 42.1367 72.8092 42.2874 72.2313 42.5748L70.3675 43.5072C69.9939 43.6952 69.579 43.7849 69.1611 43.7683L68.3161 43.7386V42.1359H60V60.4313H68.3161V57.9365H69.73L70.2331 58.2691C71.6409 59.2038 73.2802 59.7317 74.969 59.7934V70.4107H109.897V48.7888H94.2991ZM66.6529 58.7681H61.6632V43.7991H66.6529V58.7681ZM71.1537 56.8852L70.2286 56.2733H68.3161V45.4026L69.1002 45.4307C69.7966 45.4554 70.4877 45.3056 71.111 44.995L72.9732 44.0626C73.32 43.8893 73.7029 43.7991 74.0907 43.7991H84.5459C86.0906 43.7946 87.5731 44.4086 88.6621 45.5038L91.9472 48.7888H85.0848L83.0662 46.7707L81.8907 47.9462L87.7652 53.8211C88.4177 54.4708 88.4197 55.5265 87.77 56.1795C87.1199 56.832 86.0642 56.834 85.4116 56.1843L80.5052 51.2779L79.9229 51.777C78.3153 53.1421 75.9655 53.1771 74.3177 51.8598L73.8357 51.4692L72.7876 52.7613L73.2749 53.1564C73.7845 53.5636 74.3567 53.886 74.969 54.111V58.1294C73.6079 58.0689 72.2886 57.6389 71.1537 56.8852ZM82.9834 56.1068L84.2381 57.3619C85.5408 58.6451 87.632 58.6471 88.9366 57.366C87.716 59.2562 88.1976 61.7717 90.0302 63.0772C91.8627 64.3827 94.3977 64.016 95.7852 62.2452C97.1727 60.474 96.9222 57.9247 95.2159 56.458C93.5101 54.9913 90.9519 55.1257 89.4093 56.763C89.9774 55.8709 90.0789 54.7591 89.6818 53.7784H100.818C101.176 55.8709 102.815 57.5097 104.907 57.8675V61.332C102.815 61.6897 101.176 63.3286 100.818 65.421H84.0477C83.6899 63.3286 82.0511 61.6897 79.9587 61.332V57.8675C81.1472 57.6673 82.222 57.0415 82.9834 56.1068ZM89.938 59.5997C89.938 58.222 91.055 57.1049 92.4328 57.1049C93.8106 57.1049 94.9276 58.222 94.9276 59.5997C94.9276 60.9775 93.8106 62.0945 92.4328 62.0945C91.055 62.0945 89.938 60.9775 89.938 59.5997ZM108.233 68.7474H76.6322V54.4594C77.9507 54.5585 79.2651 54.2223 80.3745 53.5031L81.7932 54.9219C81.1691 55.7698 80.18 56.2712 79.127 56.2733H78.2954V62.9262H79.127C80.9641 62.9262 82.4535 64.4156 82.4535 66.2526V67.0842H102.412V66.2526C102.412 64.4156 103.902 62.9262 105.739 62.9262H106.57V56.2733H105.739C103.902 56.2733 102.412 54.7838 102.412 52.9468V52.1152H88.4112L86.748 50.452H108.233V68.7474Z" fill="#323B6E"/>
<path d="M59.2417 108.68C59.2417 109.21 59.1167 109.71 58.8667 110.18C58.6167 110.65 58.2167 111.035 57.6667 111.335C57.1167 111.625 56.4117 111.77 55.5517 111.77H53.6617V116H51.9517V105.575H55.5517C56.3517 105.575 57.0267 105.715 57.5767 105.995C58.1367 106.265 58.5517 106.635 58.8217 107.105C59.1017 107.575 59.2417 108.1 59.2417 108.68ZM55.5517 110.375C56.2017 110.375 56.6867 110.23 57.0067 109.94C57.3267 109.64 57.4867 109.22 57.4867 108.68C57.4867 107.54 56.8417 106.97 55.5517 106.97H53.6617V110.375H55.5517ZM60.6026 111.83C60.6026 111 60.7726 110.265 61.1126 109.625C61.4626 108.985 61.9326 108.49 62.5226 108.14C63.1226 107.78 63.7826 107.6 64.5026 107.6C65.1526 107.6 65.7176 107.73 66.1976 107.99C66.6876 108.24 67.0776 108.555 67.3676 108.935V107.735H69.0926V116H67.3676V114.77C67.0776 115.16 66.6826 115.485 66.1826 115.745C65.6826 116.005 65.1126 116.135 64.4726 116.135C63.7626 116.135 63.1126 115.955 62.5226 115.595C61.9326 115.225 61.4626 114.715 61.1126 114.065C60.7726 113.405 60.6026 112.66 60.6026 111.83ZM67.3676 111.86C67.3676 111.29 67.2476 110.795 67.0076 110.375C66.7776 109.955 66.4726 109.635 66.0926 109.415C65.7126 109.195 65.3026 109.085 64.8626 109.085C64.4226 109.085 64.0126 109.195 63.6326 109.415C63.2526 109.625 62.9426 109.94 62.7026 110.36C62.4726 110.77 62.3576 111.26 62.3576 111.83C62.3576 112.4 62.4726 112.9 62.7026 113.33C62.9426 113.76 63.2526 114.09 63.6326 114.32C64.0226 114.54 64.4326 114.65 64.8626 114.65C65.3026 114.65 65.7126 114.54 66.0926 114.32C66.4726 114.1 66.7776 113.78 67.0076 113.36C67.2476 112.93 67.3676 112.43 67.3676 111.86ZM79.0786 107.735L74.0086 119.885H72.2386L73.9186 115.865L70.6636 107.735H72.5686L74.8936 114.035L77.3086 107.735H79.0786ZM89.6205 116.105C88.6505 116.105 87.7555 115.88 86.9355 115.43C86.1255 114.97 85.4805 114.335 85.0005 113.525C84.5305 112.705 84.2955 111.785 84.2955 110.765C84.2955 109.745 84.5305 108.83 85.0005 108.02C85.4805 107.21 86.1255 106.58 86.9355 106.13C87.7555 105.67 88.6505 105.44 89.6205 105.44C90.6005 105.44 91.4955 105.67 92.3055 106.13C93.1255 106.58 93.7705 107.21 94.2405 108.02C94.7105 108.83 94.9455 109.745 94.9455 110.765C94.9455 111.785 94.7105 112.705 94.2405 113.525C93.7705 114.335 93.1255 114.97 92.3055 115.43C91.4955 115.88 90.6005 116.105 89.6205 116.105ZM89.6205 114.62C90.3105 114.62 90.9255 114.465 91.4655 114.155C92.0055 113.835 92.4255 113.385 92.7255 112.805C93.0355 112.215 93.1905 111.535 93.1905 110.765C93.1905 109.995 93.0355 109.32 92.7255 108.74C92.4255 108.16 92.0055 107.715 91.4655 107.405C90.9255 107.095 90.3105 106.94 89.6205 106.94C88.9305 106.94 88.3155 107.095 87.7755 107.405C87.2355 107.715 86.8105 108.16 86.5005 108.74C86.2005 109.32 86.0505 109.995 86.0505 110.765C86.0505 111.535 86.2005 112.215 86.5005 112.805C86.8105 113.385 87.2355 113.835 87.7755 114.155C88.3155 114.465 88.9305 114.62 89.6205 114.62ZM100.393 109.13H98.8632V116H97.1382V109.13H96.1632V107.735H97.1382V107.15C97.1382 106.2 97.3882 105.51 97.8882 105.08C98.3982 104.64 99.1932 104.42 100.273 104.42V105.845C99.7532 105.845 99.3882 105.945 99.1782 106.145C98.9682 106.335 98.8632 106.67 98.8632 107.15V107.735H100.393V109.13ZM105.674 109.13H104.144V116H102.419V109.13H101.444V107.735H102.419V107.15C102.419 106.2 102.669 105.51 103.169 105.08C103.679 104.64 104.474 104.42 105.554 104.42V105.845C105.034 105.845 104.669 105.945 104.459 106.145C104.249 106.335 104.144 106.67 104.144 107.15V107.735H105.674V109.13ZM109.199 104.9V116H107.489V104.9H109.199ZM112.614 106.64C112.304 106.64 112.044 106.535 111.834 106.325C111.624 106.115 111.519 105.855 111.519 105.545C111.519 105.235 111.624 104.975 111.834 104.765C112.044 104.555 112.304 104.45 112.614 104.45C112.914 104.45 113.169 104.555 113.379 104.765C113.589 104.975 113.694 105.235 113.694 105.545C113.694 105.855 113.589 106.115 113.379 106.325C113.169 106.535 112.914 106.64 112.614 106.64ZM113.454 107.735V116H111.744V107.735H113.454ZM120.169 107.6C120.819 107.6 121.399 107.735 121.909 108.005C122.429 108.275 122.834 108.675 123.124 109.205C123.414 109.735 123.559 110.375 123.559 111.125V116H121.864V111.38C121.864 110.64 121.679 110.075 121.309 109.685C120.939 109.285 120.434 109.085 119.794 109.085C119.154 109.085 118.644 109.285 118.264 109.685C117.894 110.075 117.709 110.64 117.709 111.38V116H115.999V107.735H117.709V108.68C117.989 108.34 118.344 108.075 118.774 107.885C119.214 107.695 119.679 107.6 120.169 107.6ZM133.616 111.665C133.616 111.975 133.596 112.255 133.556 112.505H127.241C127.291 113.165 127.536 113.695 127.976 114.095C128.416 114.495 128.956 114.695 129.596 114.695C130.516 114.695 131.166 114.31 131.546 113.54H133.391C133.141 114.3 132.686 114.925 132.026 115.415C131.376 115.895 130.566 116.135 129.596 116.135C128.806 116.135 128.096 115.96 127.466 115.61C126.846 115.25 126.356 114.75 125.996 114.11C125.646 113.46 125.471 112.71 125.471 111.86C125.471 111.01 125.641 110.265 125.981 109.625C126.331 108.975 126.816 108.475 127.436 108.125C128.066 107.775 128.786 107.6 129.596 107.6C130.376 107.6 131.071 107.77 131.681 108.11C132.291 108.45 132.766 108.93 133.106 109.55C133.446 110.16 133.616 110.865 133.616 111.665ZM131.831 111.125C131.821 110.495 131.596 109.99 131.156 109.61C130.716 109.23 130.171 109.04 129.521 109.04C128.931 109.04 128.426 109.23 128.006 109.61C127.586 109.98 127.336 110.485 127.256 111.125H131.831Z" fill="#323B6E"/>
<defs>
<linearGradient id="paint0_linear" x1="89.995" y1="45.6362" x2="87.2278" y2="110.671" gradientUnits="userSpaceOnUse">
<stop stop-color="#1A2C4A"/>
<stop offset="1" stop-color="#4164A9"/>
</linearGradient>
<linearGradient id="paint1_linear" x1="148.87" y1="38.2037" x2="36.2462" y2="55.3312" gradientUnits="userSpaceOnUse">
<stop stop-color="#1A2C4A"/>
<stop offset="1" stop-color="#4164A9"/>
</linearGradient>
</defs>
</svg>
