<?xml version="1.0" encoding="iso-8859-1"?>
<!-- Generator: Adobe Illustrator 19.0.0, SVG Export Plug-In . SVG Version: 6.00 Build 0)  -->
<svg version="1.1" id="Capa_1" xmlns="http://www.w3.org/2000/svg" xmlns:xlink="http://www.w3.org/1999/xlink" x="0px" y="0px"
	 viewBox="0 0 464 464" style="enable-background:new 0 0 464 464;" xml:space="preserve">
<path style="fill:#1F9342;" d="M312,48h152v304H312V48z"/>
<path style="fill:#2CB357;" d="M280,80h152v304H280V80z"/>
<path style="fill:#1F9342;" d="M312,128v208c8.837,0,16,7.163,16,16h56c0-8.837,7.163-16,16-16V128c-8.837,0-16-7.163-16-16h-56
	C328,120.837,320.837,128,312,128z"/>
<path style="fill:#F2CBA7;" d="M112,208h104l64-32v32h144c13.255,0,24,10.745,24,24c0,13.255-10.745,24-24,24h-16
	c13.255,0,24,10.745,24,24s-10.745,24-24,24h-16c13.255,0,24,10.745,24,24s-10.745,24-24,24h-16c13.255,0,24,10.745,24,24
	s-10.745,24-24,24H256l-144-24V208z"/>
<path style="fill:#393856;" d="M0,208h160v208H0V208z"/>
<circle style="fill:#75C9C1;" cx="104" cy="360" r="24"/>
<g>
	<path style="fill:#E1B494;" d="M400,376h-80c-13.255,0-24,10.745-24,24h80C389.255,400,400,389.255,400,376z"/>
	<path style="fill:#E1B494;" d="M416,328h-80c-13.255,0-24,10.745-24,24h80C405.255,352,416,341.255,416,328z"/>
	<path style="fill:#E1B494;" d="M432,280h-80c-13.255,0-24,10.745-24,24h80C421.255,304,432,293.255,432,280z"/>
	<path style="fill:#E1B494;" d="M448,232h-80c-13.255,0-24,10.745-24,24h80C437.255,256,448,245.255,448,232z"/>
</g>
<g>
</g>
<g>
</g>
<g>
</g>
<g>
</g>
<g>
</g>
<g>
</g>
<g>
</g>
<g>
</g>
<g>
</g>
<g>
</g>
<g>
</g>
<g>
</g>
<g>
</g>
<g>
</g>
<g>
</g>
</svg>
