<svg width="39" height="51" viewBox="0 0 39 51" fill="none" xmlns="http://www.w3.org/2000/svg">
<path d="M17.2654 4.11065H9.04384L8.22168 0.822021H18.0876L17.2654 4.11065Z" fill="#D2E1FF"/>
<path d="M18.0876 0.822021L17.2654 4.11065H9.04384L8.22168 0.822021H18.0876Z" fill="#D2E1FF"/>
<path d="M25.4863 24.6646H35.3522V27.131H25.4863V24.6646Z" fill="#D2E1FF"/>
<path d="M13.1543 18.9097H37.819V22.1983H13.1543V18.9097Z" fill="#D2E1FF"/>
<path d="M25.4863 24.6646H35.3522V27.131H25.4863V24.6646Z" fill="#D2E1FF"/>
<path d="M9.86632 46.0408H4.11122C3.89317 46.0408 3.68405 46.1274 3.52987 46.2816C3.37568 46.4358 3.28906 46.6449 3.28906 46.8629C3.28906 47.081 3.37568 47.2901 3.52987 47.4443C3.68405 47.5985 3.89317 47.6851 4.11122 47.6851H9.86632C10.0844 47.6851 10.2935 47.5985 10.4477 47.4443C10.6019 47.2901 10.6885 47.081 10.6885 46.8629C10.6885 46.6449 10.6019 46.4358 10.4477 46.2816C10.2935 46.1274 10.0844 46.0408 9.86632 46.0408Z" fill="#4164A9"/>
<path d="M13.0515 46.0408H12.2294C12.0113 46.0408 11.8022 46.1274 11.648 46.2816C11.4938 46.4358 11.4072 46.6449 11.4072 46.8629C11.4072 47.081 11.4938 47.2901 11.648 47.4443C11.8022 47.5985 12.0113 47.6851 12.2294 47.6851H13.0515C13.2696 47.6851 13.4787 47.5985 13.6329 47.4443C13.7871 47.2901 13.8737 47.081 13.8737 46.8629C13.8737 46.6449 13.7871 46.4358 13.6329 46.2816C13.4787 46.1274 13.2696 46.0408 13.0515 46.0408Z" fill="#4164A9"/>
<path d="M36.1749 14.7988H26.309V4.11079C26.308 3.02087 25.8745 1.97591 25.1038 1.20522C24.3331 0.434537 23.2882 0.00108828 22.1983 0H4.11079C3.02087 0.00108828 1.97591 0.434537 1.20522 1.20522C0.434537 1.97591 0.00108828 3.02087 0 4.11079V46.863C0.00108828 47.9529 0.434537 48.9979 1.20522 49.7685C1.97591 50.5392 3.02087 50.9727 4.11079 50.9738H22.1983C23.2882 50.9727 24.3331 50.5392 25.1038 49.7685C25.8745 48.9979 26.308 47.9529 26.309 46.863V36.1749H36.1749C36.8288 36.1741 37.4557 35.9139 37.918 35.4516C38.3804 34.9892 38.6405 34.3623 38.6414 33.7085V17.2653C38.6405 16.6114 38.3804 15.9846 37.918 15.5222C37.4557 15.0598 36.8288 14.7997 36.1749 14.7988ZM17.0341 1.64432L16.623 3.28863H9.68605L9.27497 1.64432H17.0341ZM24.6647 46.863C24.6639 47.5169 24.4037 48.1437 23.9414 48.6061C23.479 49.0684 22.8521 49.3286 22.1983 49.3295H4.11079C3.45691 49.3286 2.83005 49.0684 2.36769 48.6061C1.90532 48.1437 1.64519 47.5169 1.64432 46.863V4.11079C1.64519 3.45691 1.90532 2.83005 2.36769 2.36769C2.83005 1.90532 3.45691 1.64519 4.11079 1.64432H7.57927L8.24624 4.31016C8.2907 4.48803 8.39333 4.64593 8.53783 4.75877C8.68233 4.87161 8.8604 4.93292 9.04373 4.93295H17.2653C17.4486 4.93292 17.6267 4.87161 17.7712 4.75877C17.9157 4.64593 18.0183 4.48803 18.0628 4.31016L18.7298 1.64432H22.1983C22.8521 1.64519 23.479 1.90532 23.9414 2.36769C24.4037 2.83005 24.6639 3.45691 24.6647 4.11079V14.7988H13.9767V10.688C13.9767 10.47 13.8901 10.2609 13.7359 10.1067C13.5817 9.95251 13.3726 9.86589 13.1545 9.86589C12.9365 9.86589 12.7274 9.95251 12.5732 10.1067C12.419 10.2609 12.3324 10.47 12.3324 10.688V40.2857C12.3324 40.5038 12.419 40.7129 12.5732 40.8671C12.7274 41.0213 12.9365 41.1079 13.1545 41.1079C13.3726 41.1079 13.5817 41.0213 13.7359 40.8671C13.8901 40.7129 13.9767 40.5038 13.9767 40.2857V36.1749H24.6647V46.863ZM36.9971 33.7085C36.9968 33.9264 36.9101 34.1354 36.756 34.2895C36.6018 34.4436 36.3929 34.5303 36.1749 34.5306H13.9767V23.0204H36.9971V33.7085ZM36.9971 21.3761H13.9767V19.7318H36.9971V21.3761ZM36.9971 18.0875H13.9767V16.4432H36.1749C36.3929 16.4435 36.6018 16.5302 36.756 16.6843C36.9101 16.8384 36.9968 17.0473 36.9971 17.2653V18.0875Z" fill="#4164A9"/>
<path d="M35.3521 23.8425H25.4862C25.2682 23.8425 25.0591 23.9291 24.9049 24.0833C24.7507 24.2375 24.6641 24.4466 24.6641 24.6647V27.1312C24.6641 27.3492 24.7507 27.5583 24.9049 27.7125C25.0591 27.8667 25.2682 27.9533 25.4862 27.9533H35.3521C35.5702 27.9533 35.7793 27.8667 35.9335 27.7125C36.0876 27.5583 36.1743 27.3492 36.1743 27.1312V24.6647C36.1743 24.4466 36.0876 24.2375 35.9335 24.0833C35.7793 23.9291 35.5702 23.8425 35.3521 23.8425ZM34.53 26.309H26.3084V25.4868H34.53V26.309Z" fill="#4164A9"/>
<path d="M35.3521 28.7756H25.4862C25.2682 28.7756 25.0591 28.8623 24.9049 29.0164C24.7507 29.1706 24.6641 29.3797 24.6641 29.5978C24.6641 29.8158 24.7507 30.025 24.9049 30.1792C25.0591 30.3333 25.2682 30.42 25.4862 30.42H35.3521C35.5702 30.42 35.7793 30.3333 35.9335 30.1792C36.0876 30.025 36.1743 29.8158 36.1743 29.5978C36.1743 29.3797 36.0876 29.1706 35.9335 29.0164C35.7793 28.8623 35.5702 28.7756 35.3521 28.7756Z" fill="#4164A9"/>
<path d="M35.353 31.2419H32.0643C31.8463 31.2419 31.6372 31.3286 31.483 31.4827C31.3288 31.6369 31.2422 31.8461 31.2422 32.0641C31.2422 32.2822 31.3288 32.4913 31.483 32.6455C31.6372 32.7996 31.8463 32.8863 32.0643 32.8863H35.353C35.571 32.8863 35.7801 32.7996 35.9343 32.6455C36.0885 32.4913 36.1751 32.2822 36.1751 32.0641C36.1751 31.8461 36.0885 31.6369 35.9343 31.4827C35.7801 31.3286 35.571 31.2419 35.353 31.2419Z" fill="#4164A9"/>
<path d="M29.5974 31.2419H28.7753C28.5572 31.2419 28.3481 31.3286 28.1939 31.4827C28.0397 31.6369 27.9531 31.8461 27.9531 32.0641C27.9531 32.2822 28.0397 32.4913 28.1939 32.6455C28.3481 32.7996 28.5572 32.8863 28.7753 32.8863H29.5974C29.8155 32.8863 30.0246 32.7996 30.1788 32.6455C30.333 32.4913 30.4196 32.2822 30.4196 32.0641C30.4196 31.8461 30.333 31.6369 30.1788 31.4827C30.0246 31.3286 29.8155 31.2419 29.5974 31.2419Z" fill="#4164A9"/>
</svg>
