<svg width="56" height="57" viewBox="0 0 56 57" fill="none" xmlns="http://www.w3.org/2000/svg">
<path d="M14.2735 41.7266L16.4136 43.8667H1.8667V45.7334H16.4136L14.2735 47.8735L15.5933 49.1933L19.9865 44.8L15.5933 40.4068L14.2735 41.7266Z" fill="#4164A9"/>
<path d="M4.9401 28.2734L0.546875 32.6667L4.9401 37.0599L6.2599 35.7401L4.11979 33.6H18.6667V31.7333H4.11979L6.2599 29.5932L4.9401 28.2734Z" fill="#4164A9"/>
<path d="M56 38.2667C56.0036 28.8386 48.6163 21.062 39.2 20.583V2.8C39.2 1.25371 37.9463 0 36.4 0H2.8C1.25371 0 0 1.25371 0 2.8V23.3333C0 24.8796 1.25371 26.1333 2.8 26.1333H25.3645C25.2633 26.2395 25.1526 26.3348 25.0546 26.4441C20.6732 31.1409 19.1743 37.8397 21.1358 43.956C23.0973 50.0723 28.2128 54.6497 34.5087 55.9221C40.8042 57.1945 47.296 54.9632 51.4792 50.0892C54.3895 46.8389 55.9991 42.6294 56 38.2667ZM49.0506 49.8869C48.8861 50.0386 48.7156 50.1808 48.5456 50.3253C48.3087 50.5281 48.0685 50.7268 47.8215 50.9141C47.6401 51.0503 47.4537 51.1802 47.2669 51.3092C47.0158 51.4828 46.761 51.6505 46.5008 51.8091C46.3057 51.9272 46.1089 52.0415 45.9088 52.1509C45.6422 52.2986 45.3706 52.4307 45.0958 52.567C44.8925 52.6604 44.6879 52.7611 44.481 52.8473C44.2007 52.9685 43.9068 53.077 43.6156 53.1813C43.4971 53.2242 43.3795 53.2661 43.2601 53.3053C44.4076 51.8857 45.3027 50.2788 45.9061 48.5557C47.0404 48.8487 48.1473 49.2374 49.2156 49.7178C49.1595 49.7738 49.1076 49.8335 49.0506 49.8869ZM32.0546 52.85C31.8454 52.7611 31.6399 52.6632 31.4348 52.5702C31.1623 52.4394 30.8925 52.3031 30.6273 52.1564C30.4258 52.0457 30.2262 51.9304 30.0294 51.8105C29.7723 51.6533 29.5203 51.4883 29.2724 51.3174C29.0855 51.1857 28.8923 51.0544 28.7123 50.9141C28.4694 50.7277 28.2352 50.5354 28.0027 50.3376C27.8282 50.189 27.6518 50.0427 27.4832 49.8869C27.4271 49.8345 27.3766 49.7766 27.3214 49.7242C28.3901 49.2434 29.4975 48.8546 30.6323 48.5611C31.2357 50.2843 32.1307 51.8912 33.2783 53.3112C33.1575 53.2711 33.039 53.2287 32.9205 53.1868C32.6257 53.0788 32.3372 52.9712 32.0546 52.85ZM25.9998 28.237C27.2954 28.8718 28.6503 29.3772 30.0449 29.7455C29.3713 32.2201 29.0063 34.769 28.9575 37.3333H22.4428C22.6411 34.0024 23.8857 30.8187 25.9998 28.237ZM44.4801 23.6833C44.6893 23.7722 44.8943 23.8702 45.0999 23.9632C45.3724 24.094 45.6413 24.232 45.907 24.377C46.1089 24.4877 46.3085 24.6025 46.5044 24.7229C46.7619 24.8787 47.0139 25.0451 47.2623 25.216C47.4487 25.3477 47.6419 25.4789 47.8224 25.6193C48.0648 25.8057 48.2991 25.998 48.5315 26.1958C48.7061 26.3443 48.8824 26.4906 49.0515 26.6465C49.1076 26.6989 49.1577 26.7568 49.2128 26.8092C48.1441 27.29 47.0367 27.6787 45.9024 27.9722C45.299 26.2491 44.404 24.6422 43.2564 23.2221C43.3768 23.2622 43.4953 23.3046 43.6137 23.3466C43.9077 23.4546 44.1971 23.5621 44.4801 23.6833ZM47.5758 37.3333C47.5275 34.769 47.162 32.2201 46.4885 29.7455C47.8835 29.3777 49.2383 28.8727 50.5335 28.237C52.6477 30.8191 53.8923 34.0024 54.0905 37.3333H47.5758ZM27.4832 26.6465C27.6473 26.4947 27.8191 26.3525 27.9882 26.2081C28.2251 26.0053 28.4639 25.8066 28.7123 25.6202C28.8932 25.483 29.0801 25.3522 29.2674 25.2232C29.5185 25.0496 29.7723 24.8828 30.033 24.7251C30.2281 24.6062 30.4249 24.4918 30.6245 24.3824C30.8916 24.2348 31.1632 24.1026 31.4376 23.9663C31.6408 23.8729 31.8454 23.7722 32.0528 23.6861C32.3326 23.5648 32.6266 23.4564 32.9178 23.352C33.0363 23.3092 33.1538 23.2673 33.2732 23.2281C32.1257 24.6477 31.2307 26.2546 30.6273 27.9777C29.4934 27.6846 28.386 27.2959 27.3178 26.8156C27.3738 26.7595 27.4262 26.6998 27.4832 26.6465ZM39.2 22.5445C41.1341 23.085 42.8627 25.2606 44.0535 28.3874C42.4521 28.6886 40.8292 28.8618 39.2 28.9055V22.5445ZM37.3333 22.5445V28.9055C35.7046 28.8613 34.0817 28.6882 32.4803 28.3874C33.6711 25.2606 35.3997 23.085 37.3333 22.5445ZM31.891 30.1738C33.6848 30.5284 35.5054 30.7294 37.3333 30.7749V37.3333H30.8232C30.8816 34.9116 31.2402 32.5067 31.891 30.1738ZM37.3333 39.2V45.7621C35.5059 45.8081 33.6852 46.0081 31.891 46.3604C31.2402 44.0271 30.8816 41.6218 30.8232 39.2H37.3333ZM37.3333 47.6278V53.9889C35.3997 53.4484 33.6711 51.2727 32.4803 48.146C34.0817 47.8447 35.7046 47.6716 37.3333 47.6278ZM44.6423 46.3604C42.8486 46.0081 41.0279 45.8081 39.2 45.7621V39.2H45.7101C45.6522 41.6218 45.2936 44.0271 44.6423 46.3604ZM44.0535 48.146C42.8604 51.2727 41.1323 53.4484 39.2 53.9889V47.6278C40.8292 47.672 42.4521 47.8452 44.0535 48.146ZM39.2 37.3333V30.7749C41.0279 30.7294 42.8486 30.5284 44.6423 30.1738C45.2936 32.5067 45.6522 34.9116 45.7101 37.3333H39.2ZM28.9575 39.2C29.0063 41.7644 29.3713 44.3133 30.0449 46.7879C28.6503 47.1557 27.295 47.6611 25.9998 48.2964C23.8861 45.7142 22.6411 42.5309 22.4428 39.2H28.9575ZM46.4885 46.7879C47.162 44.3133 47.5275 41.7644 47.5758 39.2H54.0905C53.8927 42.5309 52.6477 45.7147 50.5335 48.2964C49.2383 47.6611 47.8835 47.1557 46.4885 46.7879ZM1.86667 7.46667H37.3333V9.33334H1.86667V7.46667ZM1.86667 2.8C1.86667 2.28457 2.28457 1.86667 2.8 1.86667H36.4C36.9154 1.86667 37.3333 2.28457 37.3333 2.8V5.6H1.86667V2.8ZM1.86667 23.3333V11.2H37.3333V20.583C33.723 20.7334 30.2531 22.0231 27.4203 24.2667H2.8C2.28457 24.2667 1.86667 23.8488 1.86667 23.3333Z" fill="#4164A9"/>
<path d="M11.1997 16.8C10.26 16.8014 9.38408 17.274 8.86637 18.0583C8.18643 17.0252 6.90902 16.5608 5.72412 16.9163C4.53923 17.2713 3.72803 18.3614 3.72803 19.5982C3.72803 20.8351 4.53923 21.9252 5.72412 22.2802C6.90902 22.6352 8.18643 22.1713 8.86637 21.1381C9.60238 22.2574 11.0274 22.6986 12.2666 22.1913C13.5062 21.6841 14.213 20.3702 13.9528 19.0564C13.693 17.743 12.5391 16.7969 11.1997 16.8ZM6.53304 20.5334C6.01761 20.5334 5.59971 20.1155 5.59971 19.6C5.59971 19.0846 6.01761 18.6667 6.53304 18.6667C7.04847 18.6667 7.46637 19.0846 7.46637 19.6C7.46637 20.1155 7.04847 20.5334 6.53304 20.5334ZM11.1997 20.5334C10.6843 20.5334 10.2664 20.1155 10.2664 19.6C10.2664 19.0846 10.6843 18.6667 11.1997 18.6667C11.7151 18.6667 12.133 19.0846 12.133 19.6C12.133 20.1155 11.7151 20.5334 11.1997 20.5334Z" fill="#4164A9"/>
</svg>
