<svg width="110" height="28" viewBox="0 0 110 28" fill="none" xmlns="http://www.w3.org/2000/svg">
<path d="M19.9983 2.08977C18.715 0.62705 16.3952 -4.95911e-05 13.4276 -4.95911e-05H4.81461C4.52084 -0.000205994 4.23666 0.104492 4.0132 0.295202C3.78975 0.485912 3.64169 0.750111 3.59568 1.04026L0.0109547 23.7867C-0.00566719 23.8923 0.000784334 24.0001 0.0298652 24.1029C0.058946 24.2057 0.109965 24.301 0.179406 24.3821C0.248847 24.4633 0.335061 24.5285 0.432106 24.5731C0.529152 24.6178 0.634723 24.6408 0.741546 24.6407H6.05884L7.3943 16.1703L7.3529 16.4356C7.39803 16.146 7.5451 15.8821 7.7676 15.6913C7.9901 15.5006 8.2734 15.3956 8.56647 15.3953H11.0933C16.0571 15.3953 19.9439 13.3791 21.0793 7.54659C21.113 7.3741 21.1421 7.20621 21.1674 7.04215C21.5048 4.88641 21.1651 3.41909 19.9991 2.09053" fill="#003087"/>
<path d="M85.0932 12.9138C84.7681 15.0481 83.1383 15.0481 81.5621 15.0481H80.6652L81.2946 11.0632C81.3329 10.8225 81.5399 10.6454 81.7837 10.6454H82.1953C83.2686 10.6454 84.2821 10.6454 84.8049 11.2564C85.1169 11.6221 85.2112 12.1648 85.0932 12.9138ZM84.4071 7.34508H78.4611C78.2642 7.34518 78.0738 7.41546 77.924 7.54332C77.7742 7.67118 77.6749 7.84824 77.6439 8.04271L75.2413 23.2885C75.2303 23.3592 75.2346 23.4315 75.2541 23.5003C75.2736 23.5691 75.3077 23.6329 75.3542 23.6873C75.4007 23.7417 75.4583 23.7854 75.5233 23.8154C75.5882 23.8455 75.6589 23.8611 75.7304 23.8612H78.7816C79.066 23.8612 79.3082 23.6542 79.3527 23.3736L80.035 19.0499C80.0979 18.6489 80.4444 18.3523 80.8507 18.3523H82.732C86.6494 18.3523 88.9094 16.4579 89.4997 12.7007C89.7658 11.0586 89.5105 9.76761 88.7415 8.86376C87.896 7.87022 86.3972 7.34431 84.4078 7.34431" fill="#009CDE"/>
<path d="M42.6832 12.9137C42.3581 15.048 40.7283 15.048 39.1513 15.048H38.2544L38.8838 11.0631C38.9221 10.8224 39.1291 10.6453 39.3729 10.6453H39.7846C40.8578 10.6453 41.8713 10.6453 42.3941 11.2563C42.7069 11.622 42.8012 12.1647 42.6832 12.9137ZM41.997 7.34497H36.0511C35.6448 7.34497 35.2983 7.64088 35.2346 8.04259L32.8313 23.2884C32.8201 23.3591 32.8244 23.4314 32.8438 23.5003C32.8632 23.5692 32.8974 23.6331 32.9439 23.6875C32.9903 23.7419 33.0481 23.7856 33.1131 23.8156C33.1781 23.8456 33.2488 23.8611 33.3204 23.8611H36.16C36.5663 23.8611 36.912 23.5652 36.9757 23.1635L37.625 19.0505C37.6878 18.6488 38.0344 18.3529 38.4407 18.3529H40.322C44.2394 18.3529 46.4994 16.4578 47.0897 12.7006C47.3557 11.0585 47.1004 9.76749 46.3315 8.86365C45.4859 7.8701 43.9872 7.3442 41.9978 7.3442L41.997 7.34497ZM55.8016 18.3874C55.5256 20.0142 54.2354 21.1066 52.5879 21.1066C51.7623 21.1066 51.1007 20.8406 50.676 20.3377C50.2543 19.8394 50.0964 19.1287 50.2298 18.3383C50.4858 16.7254 51.7983 15.5984 53.4205 15.5984C54.2293 15.5984 54.8847 15.8667 55.3186 16.3743C55.7548 16.8856 55.9266 17.6001 55.8016 18.3874ZM59.7697 12.8447H56.9224C56.804 12.8446 56.6895 12.8868 56.5996 12.9637C56.5096 13.0406 56.4501 13.1471 56.4318 13.2641L56.3076 14.0598L56.1083 13.7716C55.4919 12.8769 54.1173 12.5772 52.7451 12.5772C49.5996 12.5772 46.9126 14.9614 46.3898 18.3038C46.1176 19.9728 46.504 21.5666 47.45 22.679C48.3186 23.7009 49.5582 24.1263 51.0355 24.1263C53.5715 24.1263 54.9775 22.498 54.9775 22.498L54.8502 23.2892C54.839 23.36 54.8433 23.4323 54.8628 23.5013C54.8823 23.5702 54.9165 23.6341 54.963 23.6885C55.0096 23.743 55.0675 23.7867 55.1325 23.8166C55.1976 23.8465 55.2685 23.862 55.3401 23.8619H57.9037C58.31 23.8619 58.6565 23.5667 58.7201 23.1642L60.2595 13.4182C60.2706 13.3473 60.2662 13.275 60.2466 13.206C60.2271 13.1371 60.1928 13.0732 60.1461 13.0188C60.0995 12.9644 60.0416 12.9207 59.9765 12.8908C59.9114 12.8608 59.8405 12.8454 59.7689 12.8455" fill="#003087"/>
<path d="M98.2109 18.3874C97.9349 20.0142 96.6447 21.1066 94.9972 21.1066C94.1715 21.1066 93.5099 20.8406 93.0852 20.3377C92.6636 19.8394 92.5057 19.1287 92.639 18.3383C92.8951 16.7254 94.2068 15.5984 95.8297 15.5984C96.6385 15.5984 97.294 15.8667 97.7279 16.3743C98.1641 16.8856 98.3358 17.6001 98.2109 18.3874ZM102.179 12.8447H99.3317C99.2133 12.8446 99.0988 12.8868 99.0088 12.9637C98.9188 13.0406 98.8593 13.1471 98.841 13.2641L98.7168 14.0598L98.5175 13.7716C97.9011 12.8769 96.5266 12.5772 95.1543 12.5772C92.0096 12.5772 89.3226 14.9614 88.799 18.3038C88.5269 19.9728 88.914 21.5666 89.86 22.679C90.7286 23.7009 91.9683 24.1263 93.4455 24.1263C95.9823 24.1263 97.3883 22.498 97.3883 22.498L97.261 23.2892C97.2496 23.3599 97.2536 23.4322 97.2729 23.5011C97.2922 23.5701 97.3262 23.634 97.3727 23.6885C97.4192 23.743 97.4769 23.7867 97.5419 23.8166C97.607 23.8466 97.6778 23.862 97.7494 23.8619H100.312C100.718 23.8619 101.065 23.5667 101.129 23.1642L102.669 13.4182C102.68 13.3473 102.675 13.275 102.656 13.206C102.636 13.1371 102.602 13.0732 102.555 13.0188C102.509 12.9644 102.451 12.9207 102.386 12.8908C102.321 12.8608 102.25 12.8454 102.178 12.8455" fill="#009CDE"/>
<path d="M74.933 12.8455H72.0704C71.7967 12.8455 71.5414 12.9812 71.3881 13.2082L67.44 19.0222L65.7664 13.4351C65.7154 13.2647 65.6108 13.1152 65.4681 13.0089C65.3255 12.9026 65.1524 12.845 64.9745 12.8448H62.1618C62.0829 12.8448 62.0052 12.8637 61.935 12.8998C61.8649 12.9359 61.8044 12.9881 61.7585 13.0523C61.7127 13.1165 61.6828 13.1906 61.6713 13.2687C61.6598 13.3467 61.6671 13.4264 61.6926 13.501L64.8434 22.7511L61.8797 26.933C61.8273 27.0072 61.7963 27.0944 61.7901 27.1851C61.7839 27.2757 61.8027 27.3663 61.8445 27.447C61.8862 27.5277 61.9493 27.5953 62.0269 27.6426C62.1045 27.6898 62.1936 27.7149 62.2844 27.715H65.1439C65.4138 27.715 65.6675 27.5823 65.8224 27.36L75.3393 13.6237C75.3909 13.5494 75.4213 13.4624 75.427 13.3721C75.4327 13.2819 75.4136 13.1917 75.3718 13.1116C75.3299 13.0314 75.2669 12.9642 75.1895 12.9173C75.1121 12.8704 75.0234 12.8456 74.933 12.8455Z" fill="#003087"/>
<path d="M105.534 7.76427L103.093 23.2891C103.082 23.3599 103.086 23.4322 103.106 23.5011C103.125 23.57 103.159 23.6338 103.206 23.6882C103.253 23.7426 103.31 23.7863 103.375 23.8163C103.44 23.8463 103.511 23.8618 103.583 23.8618H106.037C106.443 23.8618 106.79 23.5659 106.853 23.1642L109.26 7.91759C109.271 7.84682 109.267 7.77447 109.247 7.70553C109.228 7.63658 109.193 7.57268 109.147 7.51824C109.1 7.46379 109.042 7.4201 108.977 7.39018C108.912 7.36026 108.841 7.34482 108.77 7.34492H106.024C105.905 7.34462 105.791 7.38668 105.701 7.46346C105.611 7.54025 105.552 7.64669 105.534 7.7635" fill="#009CDE"/>
<path d="M19.9983 2.08977C18.715 0.62705 16.3952 -4.95911e-05 13.4276 -4.95911e-05H4.81461C4.52084 -0.000205994 4.23666 0.104492 4.0132 0.295202C3.78975 0.485912 3.64169 0.750111 3.59568 1.04026L0.0109547 23.7867C-0.00566719 23.8923 0.000784334 24.0001 0.0298652 24.1029C0.058946 24.2057 0.109965 24.301 0.179406 24.3821C0.248847 24.4633 0.335061 24.5285 0.432106 24.5731C0.529152 24.6178 0.634723 24.6408 0.741546 24.6407H6.05884L7.3943 16.1703L7.3529 16.4356C7.39803 16.146 7.5451 15.8821 7.7676 15.6913C7.9901 15.5006 8.2734 15.3956 8.56647 15.3953H11.0933C16.0571 15.3953 19.9439 13.3791 21.0793 7.54659C21.113 7.3741 21.1421 7.20621 21.1674 7.04215C21.5048 4.88641 21.1651 3.41909 19.9991 2.09053" fill="#003087"/>
<path d="M8.82759 7.07043C8.86788 6.8169 8.99721 6.58604 9.19236 6.41927C9.38752 6.25249 9.63572 6.16073 9.89243 6.16045H16.6448C17.4444 6.16045 18.1904 6.21258 18.8719 6.32144C19.2445 6.38138 19.6132 6.46382 19.9758 6.56829C20.3877 6.68408 20.7862 6.84288 21.1649 7.04206C21.5037 4.88556 21.1633 3.41901 19.9973 2.08968C18.7132 0.627733 16.3942 0.00063324 13.4266 0.00063324H4.81278C4.51927 0.000841141 4.23546 0.105703 4.01232 0.296381C3.78919 0.487059 3.64135 0.751055 3.59539 1.04094L0.00912268 23.7851C-0.00761168 23.8906 -0.00127038 23.9985 0.02771 24.1013C0.0566904 24.2042 0.107621 24.2995 0.176991 24.3807C0.246362 24.462 0.332523 24.5272 0.429538 24.572C0.526552 24.6167 0.632114 24.6399 0.738948 24.6399H6.05701L7.39247 16.1687L8.82759 7.07043Z" fill="#003087"/>
<path d="M21.1662 7.04144C21.1399 7.21011 21.1105 7.37828 21.078 7.54588C19.9427 13.3776 16.0559 15.3946 11.092 15.3946H8.56444C8.27142 15.3948 7.98813 15.4997 7.76573 15.6905C7.54332 15.8813 7.39645 16.1453 7.35164 16.4349L6.05758 24.6393L5.6896 26.9667C5.67497 27.0591 5.68055 27.1536 5.70596 27.2437C5.73136 27.3337 5.77599 27.4171 5.83677 27.4883C5.89754 27.5594 5.97302 27.6165 6.05799 27.6556C6.14296 27.6948 6.23541 27.715 6.32897 27.715H10.8114C11.3419 27.715 11.7927 27.3286 11.8763 26.805L11.9199 26.5765L12.7648 21.2224L12.8184 20.9265C12.8586 20.6728 12.988 20.4417 13.1833 20.2749C13.3787 20.1081 13.6272 20.0165 13.884 20.0165H14.5548C18.897 20.0165 22.297 18.2533 23.2905 13.1507C23.7045 11.0194 23.4898 9.23859 22.3935 7.98822C22.0455 7.60057 21.6295 7.27972 21.1662 7.04144Z" fill="#009CDE"/>
<path d="M19.9751 6.56838C19.8019 6.51701 19.6232 6.47102 19.4393 6.43039C19.2553 6.38975 19.0651 6.35372 18.8704 6.32306C18.1881 6.2119 17.443 6.15977 16.6426 6.15977H9.89096C9.63397 6.15945 9.38535 6.2511 9.19005 6.41814C8.99475 6.58518 8.86566 6.81658 8.82613 7.07051L7.39101 16.1703L7.34961 16.4348C7.39442 16.1452 7.54129 15.8812 7.7637 15.6905C7.9861 15.4997 8.26939 15.3947 8.56241 15.3945H11.09C16.0538 15.3945 19.9406 13.3783 21.076 7.54582C21.1097 7.37333 21.1381 7.20621 21.1642 7.04138C20.8643 6.88449 20.552 6.7527 20.2304 6.64734C20.1468 6.61974 20.0617 6.59368 19.9751 6.56761" fill="#012169"/>
</svg>
