<svg width="51" height="39" viewBox="0 0 51 39" fill="none" xmlns="http://www.w3.org/2000/svg">
<path d="M50.1512 4.98394V29.6487C50.1512 31.4648 48.6787 32.9373 46.8625 32.9373V9.91689C46.8625 8.10075 45.39 6.62826 43.5739 6.62826H4.11035V4.98394C4.11035 3.16781 5.58285 1.69531 7.39898 1.69531H46.8625C48.6787 1.69531 50.1512 3.16781 50.1512 4.98394Z" fill="#D2E1FF"/>
<path d="M12.3319 14.0275C12.3319 16.2977 10.4913 18.1383 8.22114 18.1383C5.95097 18.1383 4.11035 16.2977 4.11035 14.0275C4.11035 11.7574 5.95097 9.91675 8.22114 9.91675C10.4913 9.91675 12.3319 11.7574 12.3319 14.0275Z" fill="#D2E1FF"/>
<path d="M17.2655 14.0275C17.2655 16.2977 15.4249 18.1383 13.1547 18.1383C10.8846 18.1383 9.04395 16.2977 9.04395 14.0275C9.04395 11.7574 10.8846 9.91675 13.1547 9.91675C15.4249 9.91675 17.2655 11.7574 17.2655 14.0275Z" fill="#D2E1FF"/>
<path d="M17.2649 26.3599V34.5814H4.11035V26.3599H17.2649Z" fill="#D2E1FF"/>
<path d="M41.9298 9.91675V16.494H35.3525V9.91675H41.9298Z" fill="#D2E1FF"/>
<path d="M46.863 0.873047H7.39942C5.13005 0.875857 3.29144 2.71447 3.28863 4.98383V5.88829C1.37575 6.2817 0.00240866 7.96416 0 9.91678V34.5815C0.00281011 36.8509 1.84142 38.6895 4.11079 38.6923H43.5743C45.8437 38.6895 47.6823 36.8509 47.6851 34.5815V33.6771C49.598 33.2836 50.9714 31.6012 50.9738 29.6486V4.98383C50.971 2.71447 49.1323 0.875857 46.863 0.873047ZM46.0408 34.5815C46.0408 35.9436 44.9364 37.048 43.5743 37.048H4.11079C2.74869 37.048 1.64432 35.9436 1.64432 34.5815V9.91678C1.64432 8.55468 2.74869 7.45031 4.11079 7.45031H43.5743C44.9364 7.45031 46.0408 8.55468 46.0408 9.91678V34.5815ZM49.3294 29.6486C49.325 30.6899 48.6671 31.6164 47.6851 31.9637V9.91678C47.6823 7.64742 45.8437 5.8088 43.5743 5.80599H4.93295V4.98383C4.93295 3.62173 6.03732 2.51736 7.39942 2.51736H46.863C48.2251 2.51736 49.3294 3.62173 49.3294 4.98383V29.6486Z" fill="#4164A9"/>
<path d="M13.1547 9.09449C12.288 9.09489 11.4369 9.32532 10.6882 9.76209C8.61514 8.55776 5.97685 9.01821 4.4341 10.8532C2.89176 12.6882 2.89176 15.3667 4.4341 17.2017C5.97685 19.0367 8.61514 19.4971 10.6882 18.2928C12.4839 19.3361 14.7408 19.143 16.3333 17.8094C17.9254 16.4762 18.5123 14.2884 17.8006 12.3374C17.0888 10.3859 15.2313 9.08967 13.1547 9.09449ZM10.6882 16.18C9.59186 14.9544 9.59186 13.1005 10.6882 11.8749C11.7845 13.1005 11.7845 14.9544 10.6882 16.18ZM4.9331 14.0274C4.9331 12.2113 6.4056 10.7388 8.22173 10.7388C8.59467 10.7428 8.9636 10.8107 9.31366 10.9395C7.85802 12.7408 7.85802 15.3141 9.31366 17.1153C8.9636 17.2442 8.59467 17.3121 8.22173 17.3161C6.4056 17.3161 4.9331 15.8436 4.9331 14.0274ZM13.1547 17.3161C12.7817 17.3121 12.4128 17.2442 12.0627 17.1153C13.5184 15.3141 13.5184 12.7408 12.0627 10.9395C12.4128 10.8107 12.7817 10.7428 13.1547 10.7388C14.9708 10.7388 16.4433 12.2113 16.4433 14.0274C16.4433 15.8436 14.9708 17.3161 13.1547 17.3161Z" fill="#4164A9"/>
<path d="M17.2648 25.5378H4.11024C3.65621 25.5378 3.28809 25.906 3.28809 26.36V34.5816C3.28809 35.0356 3.65621 35.4037 4.11024 35.4037H17.2648C17.7188 35.4037 18.0869 35.0356 18.0869 34.5816V26.36C18.0869 25.906 17.7188 25.5378 17.2648 25.5378ZM16.4426 33.7594H4.9324V27.1822H16.4426V33.7594Z" fill="#4164A9"/>
<path d="M38.6421 25.5378H21.3768C20.9228 25.5378 20.5547 25.906 20.5547 26.36C20.5547 26.814 20.9228 27.1822 21.3768 27.1822H38.6421C39.0962 27.1822 39.4643 26.814 39.4643 26.36C39.4643 25.906 39.0962 25.5378 38.6421 25.5378Z" fill="#4164A9"/>
<path d="M38.6421 29.6484H21.3768C20.9228 29.6484 20.5547 30.0166 20.5547 30.4706C20.5547 30.9246 20.9228 31.2928 21.3768 31.2928H38.6421C39.0962 31.2928 39.4643 30.9246 39.4643 30.4706C39.4643 30.0166 39.0962 29.6484 38.6421 29.6484Z" fill="#4164A9"/>
<path d="M33.7092 33.7593H21.3768C20.9228 33.7593 20.5547 34.1274 20.5547 34.5814C20.5547 35.0355 20.9228 35.4036 21.3768 35.4036H33.7092C34.1632 35.4036 34.5314 35.0355 34.5314 34.5814C34.5314 34.1274 34.1632 33.7593 33.7092 33.7593Z" fill="#4164A9"/>
<path d="M36.9969 33.7593H36.1747C35.7207 33.7593 35.3525 34.1274 35.3525 34.5814C35.3525 35.0355 35.7207 35.4036 36.1747 35.4036H36.9969C37.4509 35.4036 37.819 35.0355 37.819 34.5814C37.819 34.1274 37.4509 33.7593 36.9969 33.7593Z" fill="#4164A9"/>
<path d="M41.9297 9.09448H35.3524C34.8984 9.09448 34.5303 9.46261 34.5303 9.91664V16.4939C34.5303 16.9479 34.8984 17.3161 35.3524 17.3161H41.9297C42.3837 17.3161 42.7518 16.9479 42.7518 16.4939V9.91664C42.7518 9.46261 42.3837 9.09448 41.9297 9.09448ZM41.1075 15.6717H36.1746V10.7388H41.1075V15.6717Z" fill="#4164A9"/>
</svg>
