<svg width="44" height="44" viewBox="0 0 44 44" fill="none" xmlns="http://www.w3.org/2000/svg">
<rect width="44" height="44" rx="10" fill="transparent"/>
<g clip-path="url(#clip0_27_774)">
<path d="M27.7708 34C24.3361 34 21.5416 31.2055 21.5416 27.7708C21.5416 24.3361 24.3361 21.5416 27.7708 21.5416C31.2055 21.5416 34 24.3361 34 27.7708C34 31.2055 31.2055 34 27.7708 34ZM27.7708 22.9791C25.1287 22.9791 22.9791 25.1287 22.9791 27.7708C22.9791 30.4129 25.1287 32.5625 27.7708 32.5625C30.4129 32.5625 32.5625 30.4129 32.5625 27.7708C32.5625 25.1287 30.4129 22.9791 27.7708 22.9791Z" fill="white"/>
<path d="M29.4479 30.1667C29.298 30.1669 29.1519 30.1199 29.0301 30.0325L27.353 28.8346C27.2599 28.7682 27.184 28.6805 27.1317 28.5788C27.0793 28.4771 27.052 28.3644 27.0521 28.25V25.1354C27.0521 24.9448 27.1278 24.762 27.2626 24.6272C27.3974 24.4924 27.5802 24.4167 27.7708 24.4167C27.9615 24.4167 28.1443 24.4924 28.2791 24.6272C28.4139 24.762 28.4896 24.9448 28.4896 25.1354V27.8801L29.8658 28.8624C29.99 28.9508 30.0828 29.0764 30.1309 29.2211C30.1791 29.3658 30.1799 29.522 30.1334 29.6672C30.0869 29.8124 29.9954 29.939 29.8722 30.0288C29.749 30.1186 29.6004 30.1669 29.4479 30.1667ZM17.7083 15.7917C17.0222 15.7917 11 15.7246 11 13.3958C11 11.0671 17.0222 11 17.7083 11C18.3945 11 24.4167 11.0671 24.4167 13.3958C24.4167 15.7246 18.3945 15.7917 17.7083 15.7917ZM12.4988 13.3958C12.9502 13.7801 14.8439 14.3542 17.7083 14.3542C20.5728 14.3542 22.4665 13.7801 22.9178 13.3958C22.4665 13.0115 20.5728 12.4375 17.7083 12.4375C14.8439 12.4375 12.9502 13.0115 12.4988 13.3958ZM17.7083 19.625C17.0222 19.625 11 19.5579 11 17.2292C11 17.0385 11.0757 16.8557 11.2105 16.7209C11.3453 16.5861 11.5281 16.5104 11.7188 16.5104C11.9094 16.5104 12.0922 16.5861 12.227 16.7209C12.3618 16.8557 12.4375 17.0385 12.4375 17.2292C12.6464 17.5157 14.611 18.1875 17.7083 18.1875C20.8057 18.1875 22.7703 17.5157 22.9993 17.1391C22.9993 16.7414 23.3108 16.4654 23.7085 16.4654C24.1043 16.4654 24.4167 16.8324 24.4167 17.2292C24.4167 19.5579 18.3945 19.625 17.7083 19.625ZM17.7083 23.4583C17.0222 23.4583 11 23.3913 11 21.0625C10.9998 20.8774 11.071 20.6993 11.1988 20.5653C11.3266 20.4314 11.5012 20.3519 11.6861 20.3435C11.8711 20.3351 12.0521 20.3984 12.1916 20.5202C12.331 20.642 12.4181 20.8129 12.4346 20.9973C12.7269 21.3768 14.6714 22.0208 17.7083 22.0208C18.6497 22.0243 19.5899 21.9567 20.521 21.8186C20.7076 21.7932 20.8967 21.842 21.0477 21.9546C21.1987 22.0672 21.2994 22.2345 21.3283 22.4206C21.3572 22.6067 21.3119 22.7966 21.2021 22.9497C21.0924 23.1027 20.927 23.2065 20.7415 23.2389C19.8195 23.3826 18.7702 23.4583 17.7083 23.4583Z" fill="white"/>
<path d="M23.6979 20.5834C23.5073 20.5834 23.3245 20.5076 23.1897 20.3729C23.0549 20.2381 22.9792 20.0552 22.9792 19.8646V13.3959C22.9792 13.2052 23.0549 13.0224 23.1897 12.8876C23.3245 12.7528 23.5073 12.6771 23.6979 12.6771C23.8885 12.6771 24.0714 12.7528 24.2062 12.8876C24.3409 13.0224 24.4167 13.2052 24.4167 13.3959V19.8646C24.4167 20.0552 24.3409 20.2381 24.2062 20.3729C24.0714 20.5076 23.8885 20.5834 23.6979 20.5834ZM17.7083 27.2917C17.0222 27.2917 11 27.2246 11 24.8959V13.3959C11 13.2052 11.0757 13.0224 11.2105 12.8876C11.3453 12.7528 11.5281 12.6771 11.7188 12.6771C11.9094 12.6771 12.0922 12.7528 12.227 12.8876C12.3618 13.0224 12.4375 13.2052 12.4375 13.3959V24.8959C12.6455 25.1834 14.6081 25.8542 17.7083 25.8542C18.1319 25.8542 18.5469 25.8456 18.9417 25.8178C19.327 25.7823 19.6806 26.088 19.7093 26.4838C19.7381 26.8796 19.4391 27.2237 19.0433 27.2515C18.6149 27.2821 18.1664 27.2917 17.7083 27.2917Z" fill="white"/>
</g>
<defs>
<clipPath id="clip0_27_774">
<rect width="23" height="23" fill="white" transform="translate(11 11)"/>
</clipPath>
</defs>
</svg>