<svg width="44" height="45" viewBox="0 0 44 45" fill="none" xmlns="http://www.w3.org/2000/svg">
<path d="M42.1802 18.6125H27.5577C27.2053 18.6123 26.8673 18.4723 26.618 18.2231C26.3688 17.9738 26.2287 17.6359 26.2285 17.2834V2.04396C26.2285 0.915432 25.3134 0 24.1854 0H18.9655C17.8368 0 16.9222 0.915432 16.9222 2.04396V17.1911C16.9222 17.977 16.2869 18.6157 15.5011 18.6192L10.7091 18.642C9.91653 18.6463 9.27262 18.0033 9.27416 17.2114L9.30389 2.04739C9.30647 0.91715 8.39104 0 7.2608 0H2.04522C0.916354 0 0.00195312 0.915432 0.00195312 2.04396V44.7165C0.00195312 45.719 0.814105 46.5312 1.8158 46.5312H42.1802C43.1828 46.5312 43.9949 45.719 43.9949 44.7165V20.4272C43.9949 19.4246 43.1828 18.6125 42.1802 18.6125ZM35.3232 34.6343C35.3232 35.9481 34.2581 37.0134 32.9443 37.0134H28.8191C27.5051 37.0134 26.44 35.9481 26.44 34.6343V30.5091C26.44 29.1952 27.5051 28.1301 28.8191 28.1301H32.9443C34.2581 28.1301 35.3232 29.1952 35.3232 30.5091V34.6343Z" fill="#FF6600"/>
</svg>
