<?xml version="1.0" encoding="iso-8859-1"?>
<!-- Generator: Adobe Illustrator 19.0.0, SVG Export Plug-In . SVG Version: 6.00 Build 0)  -->
<svg version="1.1" id="Capa_1" xmlns="http://www.w3.org/2000/svg" xmlns:xlink="http://www.w3.org/1999/xlink" x="0px" y="0px"
	 viewBox="0 0 511.85 511.85" style="enable-background:new 0 0 511.85 511.85;" xml:space="preserve">
<g>
	<g transform="translate(1 1)">
		<path style="fill:#A4C2F7;" d="M502.306,164.386l-337.92,337.92l-42.24-42.24c6.632-6.651,6.634-17.415,0.004-24.068
			s-17.393-6.69-24.068-0.081l-24.149-24.149c6.645-6.669,6.626-17.462-0.043-24.107c-6.669-6.645-17.462-6.626-24.107,0.043
			l-42.24-42.24l337.92-337.92l42.24,42.24c-4.337,4.294-6.047,10.579-4.484,16.478c1.563,5.899,6.16,10.513,12.054,12.097
			s12.185-0.104,16.494-4.426l24.149,24.149c-6.645,6.669-6.626,17.462,0.043,24.107c6.669,6.645,17.462,6.626,24.107-0.043
			L502.306,164.386z"/>
		<path style="fill:#E3E7F2;" d="M485.154,181.367L164.301,502.221l-42.155-42.155c6.632-6.651,6.634-17.415,0.004-24.068
			s-17.393-6.69-24.068-0.081l-24.149-24.149c6.645-6.669,6.626-17.462-0.043-24.107c-6.669-6.645-17.462-6.626-24.107,0.043
			l-42.24-42.24L328.397,24.61l42.155,42.155c-6.669,6.669-6.669,17.481,0,24.149c6.669,6.669,17.481,6.669,24.149,0l24.064,24.149
			c-6.637,6.674-6.622,17.46,0.034,24.116c6.655,6.656,17.442,6.671,24.116,0.034L485.154,181.367z"/>
		<g>
			<path style="fill:#A4C2F7;" d="M91.973,345.448l18.102-18.102c3.332-3.332,8.736-3.332,12.068,0l48.272,48.272
				c3.332,3.332,3.332,8.736,0,12.068l-18.102,18.102c-3.332,3.332-8.736,3.332-12.068,0l-48.272-48.272
				C88.64,354.184,88.64,348.781,91.973,345.448z"/>
			<path style="fill:#A4C2F7;" d="M146.349,291.155l18.102-18.102c3.332-3.332,8.736-3.332,12.068,0l48.272,48.272
				c3.332,3.332,3.332,8.736,0,12.068l-18.102,18.102c-3.332,3.332-8.736,3.332-12.068,0l-48.272-48.272
				C143.017,299.89,143.017,294.487,146.349,291.155z"/>
			<path style="fill:#A4C2F7;" d="M200.621,236.831l18.102-18.102c3.332-3.332,8.736-3.332,12.068,0l48.272,48.272
				c3.332,3.332,3.332,8.736,0,12.068l-18.102,18.102c-3.332,3.332-8.736,3.332-12.068,0l-48.272-48.272
				C197.289,245.566,197.289,240.163,200.621,236.831z"/>
			<path style="fill:#A4C2F7;" d="M405.794,152.354l-12.032,12.032l-11.435,11.435l-5.973,6.059l-12.203,12.117l-6.656,6.656
				l-11.349,11.435l-6.059,6.059l-12.117,12.032L315,243.149c-3.359,3.085-8.554,2.972-11.776-0.256l-48.299-48.299
				c-3.328-3.353-3.328-8.764,0-12.117l73.045-73.045l0.341-0.341l17.152-17.067c1.594-1.598,3.759-2.496,6.016-2.496
				c2.257,0,4.422,0.898,6.016,2.496l48.299,48.213C409.123,143.59,409.123,149.001,405.794,152.354z"/>
		</g>
		<g>
			<path style="fill:#E3E7F2;" d="M388.301,169.762l-11.947,12.117l-12.203,12.117l-6.656,6.656l-5.376,5.291l-5.973,6.144
				l-6.059,6.059l-12.117,12.032L315,243.149c-3.359,3.085-8.554,2.972-11.776-0.256l-48.299-48.299
				c-3.328-3.353-3.328-8.764,0-12.117l73.045-73.045l0.341-0.341c3.399-3.016,8.558-2.867,11.776,0.341l48.213,48.299
				c1.598,1.594,2.496,3.759,2.496,6.016S389.899,168.168,388.301,169.762z"/>
			
				<rect x="147.311" y="461.095" transform="matrix(-0.7071 0.7071 -0.7071 -0.7071 618.724 700.0372)" style="fill:#E3E7F2;" width="34.133" height="34.133"/>
			
				<rect x="116.473" y="304.199" transform="matrix(-0.7071 0.7071 -0.7071 -0.7071 775.6027 321.2657)" style="fill:#E3E7F2;" width="409.585" height="34.133"/>
			
				<rect x="461.087" y="147.343" transform="matrix(-0.7071 0.7071 -0.7071 -0.7071 932.5064 -57.4425)" style="fill:#E3E7F2;" width="34.125" height="34.125"/>
		</g>
		<path style="fill:#FFFFFF;" d="M165.837,478.157l-18.091-18.091c6.632-6.651,6.634-17.415,0.004-24.068s-17.393-6.69-24.068-0.081
			l-24.149-24.149c4.299-4.314,5.969-10.593,4.383-16.473c-1.587-5.88-6.189-10.466-12.075-12.032
			c-5.885-1.566-12.159,0.127-16.457,4.441l-42.24-42.24L353.997,24.61l4.267-4.267l-12.8-12.8L328.397,24.61L7.544,345.463
			l42.24,42.24c6.645-6.669,17.438-6.688,24.107-0.043c6.669,6.645,6.688,17.438,0.043,24.107l24.149,24.149
			c6.675-6.609,17.438-6.573,24.068,0.081s6.628,17.417-0.004,24.068l18.091,18.091l24.064,24.064l0.085,0.085l12.8-12.8
			L165.837,478.157z"/>
	</g>
	<g>
		<polygon style="fill:#FFFFFF;" points="2.502,340.405 80.94,261.958 340.405,2.502 352.471,14.568 93.007,274.024 14.568,352.471 
					"/>
		<g>
			<path style="fill:#428DFF;" d="M62.838,292.128c-1.59-1.621-3.764-2.534-6.034-2.534s-4.445,0.913-6.034,2.534
				c-1.573,1.621-2.478,3.776-2.534,6.034l0.18,1.63c0.107,0.566,0.29,1.115,0.542,1.632c0.169,0.516,0.414,1.003,0.728,1.446
				c0.331,0.466,0.693,0.909,1.084,1.326c1.62,1.575,3.775,2.48,6.034,2.534c2.875,0.054,5.578-1.364,7.167-3.759
				s1.846-5.437,0.68-8.065C64.233,293.871,63.618,292.927,62.838,292.128z"/>
			<path style="fill:#428DFF;" d="M2.5,352.466l42.237,42.237c1.6,1.601,3.77,2.5,6.033,2.5s4.434-0.899,6.033-2.5
				c3.336-3.314,8.725-3.304,12.049,0.022c3.324,3.326,3.332,8.714,0.018,12.049c-1.601,1.6-2.5,3.77-2.5,6.033
				c0,2.263,0.899,4.434,2.5,6.033l24.137,24.137c1.6,1.601,3.77,2.5,6.033,2.5s4.434-0.899,6.033-2.5
				c3.391-3.192,8.68-3.192,12.071,0c3.325,3.335,3.325,8.732,0,12.067c-1.601,1.6-2.5,3.77-2.5,6.033
				c0,2.263,0.899,4.434,2.5,6.033l18.092,18.092l0.009,0.013l0.013,0.009l24.125,24.125c1.6,1.601,3.77,2.5,6.033,2.5
				c2.263,0,4.434-0.899,6.033-2.5l337.9-337.9c1.601-1.6,2.5-3.77,2.5-6.033c0-2.263-0.899-4.434-2.5-6.033l-24.125-24.125
				l-0.009-0.013l-0.013-0.009l-18.092-18.092c-1.6-1.601-3.77-2.5-6.033-2.5c-2.263,0-4.434,0.899-6.033,2.5
				c-3.336,3.314-8.725,3.304-12.049-0.022c-3.324-3.326-3.332-8.714-0.018-12.049c1.601-1.6,2.5-3.77,2.5-6.033
				s-0.899-4.434-2.5-6.033l-24.137-24.137c-1.6-1.601-3.77-2.5-6.033-2.5c-2.263,0-4.434,0.899-6.033,2.5
				c-3.391,3.192-8.68,3.192-12.071,0c-3.325-3.335-3.325-8.732,0-12.067c1.601-1.6,2.5-3.77,2.5-6.033s-0.899-4.434-2.5-6.033
				L352.467,2.5c-1.6-1.6-3.769-2.5-6.032-2.5s-4.433,0.899-6.033,2.499l-0.001-0.001L74.906,267.992
				c-2.156,2.156-2.998,5.298-2.209,8.243s3.089,5.245,6.034,6.034c2.945,0.789,6.087-0.053,8.243-2.209L346.434,20.6l31.204,31.204
				c-4.674,9.791-2.67,21.464,5.002,29.135c7.672,7.671,19.346,9.674,29.136,4.998l14.138,14.138
				c-4.675,9.79-2.673,21.464,4.998,29.136c7.671,7.672,19.345,9.676,29.135,5.002l7.069,7.069L141.281,467.114l-7.069-7.069
				c4.674-9.791,2.67-21.464-5.002-29.135c-7.672-7.671-19.346-9.674-29.136-4.998l-14.138-14.138
				c4.675-9.79,2.673-21.464-4.998-29.136s-19.345-9.676-29.135-5.002l-31.203-31.204l18.101-18.101
				c3.333-3.333,3.333-8.736,0-12.069c-3.333-3.333-8.736-3.333-12.069,0L2.498,340.4l0.001,0.001c-1.6,1.6-2.499,3.77-2.499,6.033
				C0,348.697,0.9,350.867,2.5,352.466z M455.046,177.483l12.07,12.068L189.55,467.116l-12.068-12.07L455.046,177.483z
				 M491.25,165.416l-12.067,12.067l-12.07-12.068l12.068-12.068L491.25,165.416z M165.416,467.113l12.068,12.07l-12.067,12.067
				l-12.069-12.069L165.416,467.113z"/>
			<path style="fill:#428DFF;" d="M60.083,338.525c-3.19-1.362-6.889-0.615-9.3,1.879c-1.606,1.605-2.497,3.789-2.475,6.059
				c-0.021,2.245,0.872,4.402,2.475,5.975c1.596,1.629,3.778,2.55,6.059,2.558c2.255-0.009,4.409-0.932,5.971-2.558
				c0.824-0.759,1.466-1.693,1.879-2.733c0.437-1.026,0.67-2.127,0.683-3.242c-0.022-1.142-0.253-2.271-0.683-3.329
				c-0.412-1.04-1.055-1.973-1.879-2.729C62.032,339.609,61.105,338.971,60.083,338.525z"/>
			<path style="fill:#428DFF;" d="M346.462,65.375c4.665-0.114,8.419-3.869,8.533-8.533c-0.008-2.28-0.93-4.463-2.558-6.059
				c-3.372-3.202-8.661-3.202-12.033,0c-1.606,1.605-2.497,3.789-2.475,6.059c-0.022,2.244,0.872,4.4,2.475,5.971
				C341.999,64.444,344.181,65.367,346.462,65.375z"/>
			<path style="fill:#428DFF;" d="M105.075,322.3l-18.1,18.1c-6.654,6.67-6.654,17.467,0,24.138l48.271,48.271
				c3.2,3.201,7.54,5,12.067,5c4.526,0,8.867-1.799,12.067-5l18.104-18.104c3.201-3.2,5-7.54,5-12.067s-1.799-8.867-5-12.067
				L129.212,322.3C122.546,315.637,111.742,315.637,105.075,322.3z M165.42,382.633l-0.004,0.004l-18.104,18.104l-48.271-48.275
				l18.104-18.1l48.279,48.258L165.42,382.633z"/>
			<path style="fill:#428DFF;" d="M159.383,267.991l-18.104,18.104c-6.654,6.668-6.654,17.465,0,24.133L189.55,358.5
				c6.669,6.656,17.468,6.656,24.137,0l18.1-18.1c3.201-3.2,5-7.54,5-12.067s-1.799-8.867-5-12.067l-48.275-48.279
				C176.843,261.338,166.051,261.34,159.383,267.991z M201.617,346.433l-48.271-48.271l18.104-18.104l48.279,48.267L201.617,346.433
				z"/>
			<path style="fill:#428DFF;" d="M213.687,213.687l-18.096,18.1c-3.203,3.199-5.003,7.541-5.004,12.068
				c-0.001,4.527,1.798,8.869,5,12.07l48.271,48.271c6.668,6.656,17.465,6.656,24.133,0l18.104-18.1l0.004-0.004
				c6.647-6.672,6.645-17.464-0.004-24.133l-48.271-48.267C231.075,207.236,220.44,207.234,213.687,213.687z M255.925,292.129
				l-48.271-48.271l18.1-18.104l48.279,48.271L255.925,292.129z"/>
			<path style="fill:#428DFF;" d="M244.891,189.55c-0.015,4.529,1.786,8.875,5,12.067l48.275,48.279
				c6.672,6.646,17.463,6.644,24.133-0.004l90.509-90.513c3.201-3.2,5-7.54,5-12.067c0-4.526-1.799-8.867-5-12.067l-48.271-48.271
				c-6.669-6.656-17.468-6.656-24.138,0l-90.508,90.508C246.68,180.676,244.879,185.021,244.891,189.55z M352.471,99.041
				L400.75,147.3l-0.004,0.009l-0.004,0.004l-12.071,12.071l-6.033-6.033c-2.155-2.156-5.297-2.997-8.242-2.208
				s-5.244,3.089-6.033,6.033c-0.789,2.944,0.053,6.086,2.208,8.242l6.033,6.033l-12.068,12.068l-6.036-6.034
				c-2.156-2.156-5.297-2.997-8.242-2.208s-5.244,3.089-6.033,6.033c-0.789,2.944,0.053,6.086,2.208,8.242l6.036,6.034l-12.07,12.07
				l-6.033-6.033c-2.155-2.156-5.297-2.997-8.242-2.208c-2.944,0.789-5.244,3.089-6.033,6.033c-0.789,2.944,0.053,6.086,2.208,8.242
				l6.033,6.033l-18.104,18.104l-48.271-48.275L352.471,99.041z"/>
			<path style="fill:#428DFF;" d="M334.367,165.416c3.332-3.332,3.332-8.735,0-12.067c-3.332-3.332-8.735-3.332-12.067,0
				l-24.137,24.133c-2.156,2.156-2.997,5.297-2.208,8.242c0.789,2.944,3.089,5.244,6.033,6.033c2.944,0.789,6.086-0.053,8.242-2.208
				L334.367,165.416z"/>
			<path style="fill:#428DFF;" d="M352.437,143.796c2.259-0.033,4.422-0.917,6.059-2.475c1.592-1.614,2.481-3.792,2.475-6.059
				c0.01-1.137-0.194-2.267-0.6-3.329c-0.443-1.022-1.08-1.949-1.875-2.729c-3.351-3.253-8.682-3.253-12.033,0
				c-2.451,2.431-3.196,6.098-1.888,9.292C345.882,141.69,348.986,143.782,352.437,143.796L352.437,143.796z"/>
		</g>
	</g>
</g>
<g>
</g>
<g>
</g>
<g>
</g>
<g>
</g>
<g>
</g>
<g>
</g>
<g>
</g>
<g>
</g>
<g>
</g>
<g>
</g>
<g>
</g>
<g>
</g>
<g>
</g>
<g>
</g>
<g>
</g>
</svg>
