<svg width="17" height="12" viewBox="0 0 17 12" fill="none" xmlns="http://www.w3.org/2000/svg">
<path d="M16.4688 3.71875C16.7622 3.71875 17 3.48088 17 3.1875V0.53125C17 0.237867 16.7622 0 16.4688 0H0.53125C0.237834 0 0 0.237867 0 0.53125V3.1875C0 3.48088 0.237834 3.71875 0.53125 3.71875C0.824168 3.71875 1.0625 3.95708 1.0625 4.25C1.0625 4.54292 0.824168 4.78125 0.53125 4.78125C0.237834 4.78125 0 5.01912 0 5.3125V8.5C0 8.79338 0.237834 9.03125 0.53125 9.03125V11.1563C0.53125 11.4496 0.769084 11.6875 1.0625 11.6875H9.5625C9.85592 11.6875 10.0938 11.4496 10.0938 11.1563V9.03125H11.1562V11.1563C11.1562 11.4496 11.3941 11.6875 11.6875 11.6875H15.9375C16.2309 11.6875 16.4688 11.4496 16.4688 11.1563V9.03125C16.7622 9.03125 17 8.79338 17 8.5V5.3125C17 5.01912 16.7622 4.78125 16.4688 4.78125C16.1758 4.78125 15.9375 4.54292 15.9375 4.25C15.9375 3.95708 16.1758 3.71875 16.4688 3.71875ZM1.59375 9.03125H2.65625V10.625H1.59375V9.03125ZM4.78125 9.03125V10.625H3.71875V9.03125H4.78125ZM6.90625 9.03125V10.625H5.84375V9.03125H6.90625ZM9.03125 10.625H7.96875V9.03125H9.03125V10.625ZM12.2188 9.03125H13.2812V10.625H12.2188V9.03125ZM15.4062 10.625H14.3438V9.03125H15.4062V10.625ZM15.9375 2.74729C15.3191 2.96657 14.875 3.55738 14.875 4.25C14.875 4.94262 15.3191 5.53347 15.9375 5.75271V7.96875C15.1901 7.96875 1.75236 7.96875 1.0625 7.96875V5.75271C1.68091 5.53347 2.125 4.94262 2.125 4.25C2.125 3.55738 1.68091 2.96653 1.0625 2.74729V1.0625H15.9375V2.74729Z" fill="#5C638B"/>
<path d="M3.71973 6.375H5.84473C6.13814 6.375 6.37598 6.13713 6.37598 5.84375V2.65625C6.37598 2.36287 6.13814 2.125 5.84473 2.125H3.71973C3.42631 2.125 3.18848 2.36287 3.18848 2.65625V5.84375C3.18848 6.13713 3.42631 6.375 3.71973 6.375ZM4.25098 3.1875H5.31348V5.3125H4.25098V3.1875Z" fill="#5C638B"/>
<path d="M7.4375 6.375H9.5625C9.85592 6.375 10.0937 6.13713 10.0937 5.84375V2.65625C10.0937 2.36287 9.85592 2.125 9.5625 2.125H7.4375C7.14408 2.125 6.90625 2.36287 6.90625 2.65625V5.84375C6.90625 6.13713 7.14408 6.375 7.4375 6.375ZM7.96875 3.1875H9.03125V5.3125H7.96875V3.1875Z" fill="#5C638B"/>
<path d="M11.1572 6.375H13.2822C13.5756 6.375 13.8135 6.13713 13.8135 5.84375V2.65625C13.8135 2.36287 13.5756 2.125 13.2822 2.125H11.1572C10.8638 2.125 10.626 2.36287 10.626 2.65625V5.84375C10.626 6.13713 10.8638 6.375 11.1572 6.375ZM11.6885 3.1875H12.751V5.3125H11.6885V3.1875Z" fill="#5C638B"/>
</svg>
