<svg width="50" height="43" viewBox="0 0 50 43" fill="none" xmlns="http://www.w3.org/2000/svg">
<g clip-path="url(#clip0)">
<path d="M48.0312 33.0207C45.3634 34.4125 31.5436 40.1001 28.6014 41.6354C25.6592 43.1708 24.0248 43.156 21.7005 42.0438C19.3763 40.9317 4.66956 34.9856 2.02029 33.7181C0.696343 33.0848 0 32.55 0 32.045V26.9874C0 26.9874 19.1465 22.8154 22.2375 21.7054C25.3282 20.5954 26.4007 20.5554 29.031 21.5197C31.6617 22.4845 47.3902 25.3249 49.9898 26.2779L49.9887 31.2639C49.989 31.7639 49.3892 32.3124 48.0312 33.0207Z" fill="#912626"/>
<path d="M48.0302 27.993C45.3626 29.3842 31.5431 35.072 28.601 36.6071C25.659 38.1427 24.0246 38.1277 21.7004 37.0156C19.3761 35.9042 4.6699 29.9571 2.02083 28.6904C-0.628236 27.4228 -0.683694 26.5505 1.91851 25.5306C4.52072 24.5104 19.1463 18.7669 22.2376 17.657C25.3284 16.5474 26.4006 16.5069 29.031 17.4717C31.6615 18.436 45.3985 23.909 47.9978 24.8618C50.598 25.8158 50.6978 26.6013 48.0302 27.993Z" fill="#C6302B"/>
<path d="M48.0312 24.8372C45.3634 26.2292 31.5436 31.9165 28.6014 33.4524C25.6592 34.9873 24.0248 34.9725 21.7005 33.8603C19.3761 32.7488 4.66956 26.8021 2.02029 25.5345C0.696343 24.9013 0 24.3673 0 23.862V18.8039C0 18.8039 19.1465 14.6321 22.2375 13.5221C25.3282 12.4121 26.4007 12.3718 29.031 13.3364C31.6619 14.301 47.3904 17.1407 49.9898 18.094L49.9887 23.0806C49.989 23.5804 49.3892 24.1288 48.0312 24.8372Z" fill="#912626"/>
<path d="M48.0302 19.8095C45.3626 21.2011 31.5431 26.8884 28.601 28.4241C25.659 29.9592 24.0246 29.9442 21.7004 28.832C19.3761 27.7207 4.6699 21.7738 2.02083 20.5069C-0.628236 19.2397 -0.683694 18.3672 1.91851 17.3469C4.52072 16.3273 19.1464 10.5834 22.2376 9.47364C25.3284 8.36385 26.4006 8.32359 29.031 9.28815C31.6615 10.2525 45.3985 15.7251 47.9978 16.6783C50.598 17.6321 50.6978 18.4178 48.0302 19.8095Z" fill="#C6302B"/>
<path d="M48.0312 16.3504C45.3634 17.742 31.5436 23.4297 28.6014 24.9656C25.6592 26.5007 24.0248 26.4857 21.7005 25.3735C19.3761 24.262 4.66956 18.3151 2.02029 17.0481C0.696343 16.4143 0 15.8801 0 15.3754V10.3171C0 10.3171 19.1465 6.14549 22.2375 5.0357C25.3282 3.92552 26.4007 3.88564 29.031 4.85002C31.6619 5.81458 47.3904 8.65434 49.9898 9.60757L49.9887 14.594C49.989 15.0934 49.3892 15.6418 48.0312 16.3504Z" fill="#912626"/>
<path d="M48.0301 11.3227C45.3625 12.7143 31.543 18.402 28.6009 19.9371C25.6589 21.4722 24.0245 21.4572 21.7003 20.3456C19.3762 19.2335 4.66981 13.287 2.02093 12.0199C-0.628334 10.7529 -0.683596 9.88021 1.91841 8.86014C4.52062 7.84025 19.1464 2.09721 22.2375 0.987032C25.3283 -0.122955 26.4005 -0.162828 29.0309 0.801741C31.6614 1.76631 45.3984 7.23884 47.9977 8.19207C50.598 9.14511 50.6977 9.93103 48.0301 11.3227Z" fill="#C6302B"/>
<path d="M31.1039 6.4025L26.806 6.84911L25.8439 9.16642L24.2899 6.58056L19.327 6.13414L23.0302 4.79743L21.9191 2.74554L25.3862 4.10278L28.6546 3.03169L27.7712 5.15335L31.1039 6.4025ZM25.5873 17.6446L17.5661 14.3147L29.0598 12.5488L25.5873 17.6446ZM14.4665 7.69054C17.8594 7.69054 20.6098 8.75772 20.6098 10.0739C20.6098 11.3905 17.8594 12.4575 14.4665 12.4575C11.0737 12.4575 8.32324 11.3903 8.32324 10.0739C8.32324 8.75772 11.0737 7.69054 14.4665 7.69054Z" fill="white"/>
<path d="M36.1831 7.03596L42.9856 9.72659L36.189 12.4147L36.1831 7.03577" fill="#621B1C"/>
<path d="M28.6572 10.0157L36.183 7.03595L36.1889 12.4147L35.451 12.7035L28.6572 10.0157Z" fill="#9A2928"/>
</g>
<defs>
<clipPath id="clip0">
<rect width="50" height="43" fill="white"/>
</clipPath>
</defs>
</svg>
