<svg width="90" height="90" viewBox="0 0 90 90" fill="none" xmlns="http://www.w3.org/2000/svg">
<path d="M45 0C33.0653 0 21.6193 4.74106 13.1802 13.1802C4.74106 21.6193 0 33.0653 0 45C0 56.9347 4.74106 68.3807 13.1802 76.8198C21.6193 85.2589 33.0653 90 45 90C56.9347 90 68.3807 85.2589 76.8198 76.8198C85.2589 68.3807 90 56.9347 90 45C90 33.0653 85.2589 21.6193 76.8198 13.1802C68.3807 4.74106 56.9347 0 45 0ZM23.4883 28.8965L31.3516 31.0352L39.1152 31.7734L46.6602 31.6777L48.0156 32.666L50.5801 33.0137L48.9785 34.4922L50.4805 34.6387L51.959 33.1602L53.1914 34.2656L55.4082 34.0215L55.9023 35.0078L54.793 35.1289L53.3105 35.9336L52.7227 37.3516L53.2441 36.8047L53.0059 38.7891L53.1133 39.8984L53.332 40.7715L53.7461 41.0332L54.6426 40.7676L54.8398 39.8535L54.3828 38.7656L54.5117 37.6328L54.9258 36.6074L55.0781 37.1289L55.1445 36.4531L55.4277 36.3691L55.4707 36.041L56.8652 36.3242L57.0176 36.9785L56.9746 37.6973L56.6465 38.1543L56.6914 38.4375L57.0176 38.459L57.2363 37.8926L57.4531 37.7637L57.8457 38.0898L58.1504 39.5918L57.4102 40.7676L58.4082 40.7051L59.127 40.291L61.1094 38.6777L60.8906 37.959L62.0664 37.7227L63.0508 37.5039L63.4219 37.0723L62.8984 36.2715L63.4219 35.9336L64.0059 35.041L65.084 34.9473L67.0879 34.3301V34.084L67.6719 34.0215L67.7031 33.5898L67.6113 32.9141L67.8262 32.084L68.1973 30.9727L68.4434 31.252L68.8438 30.6973L69.3984 30.9414L69.9844 32.6348L70.3223 32.7598L70.3535 33.0977H70.6621L71 33.5293L70.8457 33.8398L69.3359 35.1328L68.9668 35.4727L68.627 35.748L68.3809 36.8281L68.5352 37.1035L68.3203 37.5039L68.6582 37.6289L68.998 38.0898L69.3711 37.9453V37.9434L69.1211 37.6582L69.3984 37.9336L69.3711 37.9453L69.5527 38.1523L69.0586 38.3359L68.9355 38.584L67.0879 39.2598L66.5332 39.7539L67.457 39.6602L66.1641 40.5234V41.7578L65.6699 42.9883L65.6094 44.5918L64.2539 42.8633L65.1777 45.7012L66.1016 46.6836L64.5 48.6582L63.3281 50.0723L61.8496 51.9219L61.2949 52.8457L61.1719 54.6328L62.4668 56.1758L62.7129 57.0371L63.3906 58.3301L63.7598 60.3008L62.959 61.1035L62.4043 60.4258L61.1113 59.4414L60.248 57.6543L59.9395 56.4219L58.9551 55.4336L58.2148 55.3125L57.6602 55.7422L55.9961 55.0664L54.5801 55.3125L53.7168 55.0664L52.793 55.4961L52.8535 56.2969L53.0391 56.791H51.9922L50.5137 56.9121L49.959 56.0508L47.6172 56.4219L45.2148 58.084L44.5371 58.6387L44.043 59.6875L44.2891 61.1035L43.5508 60.918L42.0098 60.1797L41.5176 58.8848L40.7773 57.959L40.1621 56.4219L38.4355 55.9258L37.8203 57.2207L36.2793 56.1133L36.0332 55.0039L34.4922 53.2793L32.582 53.1543V53.6465L29.5879 53.2969L25.8398 50.9883L23.2695 50.2461L23.3125 49.8125L22.3555 48.2422L21.1348 47.3711L20.7871 47.2832L20.6992 46.4551L20.002 44.2793V43.2305C20.002 43.0126 19.6973 42.0547 19.6973 42.0547L19.1738 40.7031L19.1309 39.834L19 38.877L19.6543 38.1348L19.6973 36.1289L21.0039 33.8223L21.6133 31.8594L21.7441 30.7715L21.6582 29.7266L22.0488 29.2031L22.3105 29.8984L23.5312 30.2051L23.4883 28.8965Z" fill="#5BC4D6"/>
</svg>
