<svg width="90" height="90" viewBox="0 0 90 90" fill="none" xmlns="http://www.w3.org/2000/svg">
<path d="M45 0C33.0653 0 21.6193 4.74106 13.1802 13.1802C4.74106 21.6193 0 33.0653 0 45C0 56.9347 4.74106 68.3807 13.1802 76.8198C21.6193 85.2589 33.0653 90 45 90C56.9347 90 68.3807 85.2589 76.8198 76.8198C85.2589 68.3807 90 56.9347 90 45C90 33.0653 85.2589 21.6193 76.8198 13.1802C68.3807 4.74106 56.9347 0 45 0ZM57.9746 20.9258C58.0585 20.9225 58.1414 20.9446 58.2124 20.9892C58.2835 21.0338 58.3395 21.0989 58.373 21.1758L59.707 24.2402C59.7249 24.2811 59.7361 24.3247 59.7402 24.3691L59.9121 26.2266L60.5566 26.0605C60.6291 26.042 60.7053 26.0432 60.7771 26.0642C60.8489 26.0851 60.9138 26.125 60.9648 26.1797L62.0469 27.334C62.0845 27.3739 62.1138 27.4208 62.1333 27.4721C62.1527 27.5234 62.1619 27.578 62.1602 27.6328L62.0938 29.5879L62.6953 30.2188C62.7546 30.2817 62.7928 30.3616 62.8047 30.4473L63.1758 33.1133L66.3418 35.248C66.4296 35.307 66.4917 35.397 66.5156 35.5L67.1543 38.3125L67.4336 38.2832C67.5239 38.2728 67.6151 38.2921 67.6934 38.3383C67.7716 38.3845 67.8327 38.455 67.8672 38.5391L68.6133 40.375L69.2344 40.8086C69.2914 40.848 69.3378 40.9011 69.3691 40.9629L70.957 44.1387C70.9944 44.2142 71.0081 44.2994 70.9961 44.3828L70.7148 46.4199L70.9961 48.6016C71.0053 48.6702 70.9972 48.74 70.9727 48.8047L69.2402 53.2793C69.2178 53.3379 69.1824 53.3906 69.1367 53.4336L66.873 55.5547L65.7031 57.6191L64.9238 60.4922C64.9015 60.5736 64.855 60.6463 64.7905 60.7007C64.726 60.7551 64.6465 60.7886 64.5625 60.7969L62.2402 61.0352L61.834 61.3848C61.818 61.3984 61.801 61.4108 61.7832 61.4219L60.1582 62.4316C60.069 62.4872 59.962 62.507 59.8588 62.4871C59.7556 62.4672 59.6637 62.409 59.6016 62.3242L58.709 61.0957L57.5 62.1094C57.444 62.1563 57.3766 62.1877 57.3046 62.2004C57.2326 62.2131 57.1585 62.2066 57.0898 62.1816L53.6992 60.9551C53.6281 60.9294 53.5653 60.8848 53.5176 60.8262L52.4004 59.4551C52.3468 59.3901 52.3141 59.3105 52.3066 59.2266L52.1836 57.7734L51.0684 57.2598C50.9811 57.2198 50.9104 57.1509 50.8681 57.0648C50.8257 56.9787 50.8144 56.8806 50.8359 56.7871L50.8672 56.6562L50.8379 56.6777C50.7566 56.7368 50.6567 56.7646 50.5566 56.7559L49.7266 56.6836C49.6424 56.676 49.5626 56.643 49.4977 56.589C49.4327 56.535 49.3857 56.4626 49.3628 56.3812C49.3399 56.2999 49.3423 56.2136 49.3696 56.1336C49.3969 56.0537 49.4478 55.9839 49.5156 55.9336L49.7617 55.752L49.7969 55.3281C49.8031 55.2559 49.828 55.1866 49.8691 55.127L50.4102 54.3359L50.416 54.0371L48.9434 55.6074L48.8633 56.0703C48.8519 56.1369 48.8246 56.1998 48.7835 56.2535C48.7425 56.3072 48.689 56.3501 48.6277 56.3786C48.5664 56.407 48.4991 56.4201 48.4316 56.4168C48.3641 56.4134 48.2984 56.3937 48.2402 56.3594L47.6797 56.0273C47.6006 55.9814 47.5388 55.9107 47.5039 55.8262L46.6875 53.8047L46.0352 53.3926C45.9619 53.3463 45.9048 53.2784 45.8719 53.1983C45.839 53.1181 45.8319 53.0297 45.8516 52.9453L45.8711 52.8652L42.6484 51.6113L36.8848 52.8027L34.7578 53.6367L34.2051 55.3848C34.1791 55.4682 34.1277 55.5413 34.0579 55.5938C33.9882 55.6464 33.9037 55.6758 33.8164 55.6777L29.7344 55.7754L28.1211 57.957C28.0557 58.0454 27.9582 58.1043 27.8496 58.1211L26.5215 58.3262C26.4482 58.3371 26.3734 58.3283 26.3047 58.3008L23.7539 57.2793C23.6698 57.246 23.5988 57.1863 23.5516 57.1092C23.5043 57.032 23.4835 56.9416 23.4922 56.8516L23.5957 55.8301C23.6024 55.7634 23.625 55.6992 23.6617 55.6431C23.6985 55.587 23.7482 55.5406 23.8066 55.5078L24.457 55.1484L24.2324 54.1035L23.0566 52.4395C23.0294 52.4009 23.0089 52.3579 22.9961 52.3125L22.5957 50.9102L21.6094 48.6406L19.8086 46.4414C19.7525 46.3723 19.7199 46.2871 19.7157 46.1982C19.7115 46.1093 19.7358 46.0213 19.7852 45.9473L20.0605 45.5312L19.041 43.3965C19.0144 43.341 19.0004 43.2803 19 43.2188V39.9512C19.0001 39.8863 19.0153 39.8223 19.0445 39.7643C19.0736 39.7063 19.1159 39.6559 19.168 39.6172L19.5762 39.3125C19.6458 39.2606 19.73 39.2318 19.8168 39.23C19.9036 39.2283 19.9889 39.2537 20.0605 39.3027L20.1348 38.9883C20.1564 38.8962 20.2088 38.8143 20.2832 38.7559L22.834 36.7656C22.8783 36.731 22.9292 36.7057 22.9836 36.6913C23.038 36.6768 23.0947 36.6736 23.1504 36.6816L23.707 36.7617L25.7188 35.4219C25.735 35.4109 25.7519 35.4011 25.7695 35.3926L28.2461 34.2031L29.6758 32.6387L29.4219 31.5801C29.405 31.5108 29.4062 31.4382 29.4253 31.3695C29.4445 31.3008 29.4809 31.2381 29.5312 31.1875L30.6035 30.1152C30.6612 30.0577 30.7345 30.0184 30.8144 30.002C30.8942 29.9857 30.9771 29.9932 31.0527 30.0234L30.9961 29.6582C30.9844 29.5837 30.9932 29.5075 31.0214 29.4376C31.0497 29.3677 31.0963 29.3067 31.1564 29.2612C31.2166 29.2158 31.2879 29.1874 31.3628 29.1793C31.4378 29.1711 31.5135 29.1834 31.582 29.2148L32.1797 29.4863L32.1094 29.4023C32.052 29.3341 32.0181 29.2493 32.0125 29.1604C32.0068 29.0715 32.0298 28.9831 32.0781 28.9082L32.6406 28.041C32.689 27.966 32.7602 27.9085 32.8438 27.877L32.9922 27.8223C32.9469 27.7484 32.9258 27.6622 32.9317 27.5757C32.9377 27.4893 32.9704 27.4068 33.0254 27.3398L33.7402 26.4707C33.8038 26.394 33.8927 26.3426 33.9908 26.3258C34.089 26.3089 34.1899 26.3278 34.2754 26.3789L34.3418 26.418L34.3809 26.2988C34.403 26.2321 34.4416 26.172 34.4932 26.1242C34.5447 26.0764 34.6076 26.0424 34.6758 26.0254L34.9941 25.9453L35.4355 25.5957C35.5152 25.5325 35.6152 25.5005 35.7168 25.5059L36.6875 25.5566C36.7476 25.5598 36.8063 25.5759 36.8596 25.6039C36.9128 25.6319 36.9594 25.6711 36.9961 25.7188L37.8086 26.7871L38.0625 26.7363C38.1376 26.7215 38.2153 26.7275 38.2871 26.7539L39.5879 27.2324L39.6992 27.084L39.1543 26.748C39.0618 26.6915 38.995 26.6011 38.968 26.4961C38.941 26.3911 38.956 26.2797 39.0098 26.1855L39.5859 25.1758C39.6359 25.09 39.7149 25.0249 39.8086 24.9922L40.3672 24.7891L40.2266 24.1367C40.2128 24.0741 40.2137 24.0092 40.2291 23.947C40.2445 23.8848 40.274 23.827 40.3154 23.7781C40.3568 23.7292 40.4089 23.6904 40.4677 23.6649C40.5264 23.6394 40.5903 23.6277 40.6543 23.6309C40.6644 23.5564 40.6944 23.4861 40.7411 23.4273C40.7879 23.3685 40.8497 23.3235 40.9199 23.2969L41.498 23.0801C41.545 23.0629 41.5946 23.0543 41.6445 23.0547H42.1621L43.5176 22.8945L42.8223 22.1719C42.7559 22.1031 42.7151 22.0136 42.7069 21.9184C42.6986 21.8231 42.7233 21.7279 42.7769 21.6488C42.8304 21.5696 42.9096 21.5112 43.001 21.4834C43.0925 21.4556 43.1907 21.4601 43.2793 21.4961L45.2285 22.2832L45.7617 22.1934C45.8643 22.176 45.9697 22.1976 46.0571 22.254C46.1446 22.3104 46.2078 22.3974 46.2344 22.498L46.2832 22.6875L46.7637 22.4492C46.8313 22.4155 46.9068 22.4007 46.9821 22.4066C47.0575 22.4124 47.1298 22.4386 47.1914 22.4824L47.7969 22.9141L48.5508 22.7402C48.6176 22.725 48.6871 22.7265 48.7532 22.7446C48.8193 22.7626 48.8799 22.7967 48.9297 22.8438L49.2734 22.543C49.3179 22.5045 49.3699 22.4759 49.4262 22.4589C49.4825 22.442 49.5417 22.4372 49.6 22.4447C49.6582 22.4523 49.7143 22.4721 49.7644 22.5028C49.8145 22.5335 49.8575 22.5745 49.8906 22.623L50.3594 23.3086C50.4203 23.3976 50.4443 23.5067 50.4265 23.613C50.4086 23.7194 50.3503 23.8147 50.2637 23.8789L49.7363 24.2676L49.7109 24.7559C49.7052 24.8624 49.6589 24.9626 49.5815 25.036C49.5041 25.1094 49.4016 25.1503 49.2949 25.1504H49.2461C49.2705 25.2085 49.2814 25.2714 49.278 25.3343C49.2747 25.3972 49.2571 25.4585 49.2266 25.5137L48.4141 26.9863L49.8477 28.2402L52.9277 29.6211C52.9821 29.645 53.0307 29.6803 53.0703 29.7246L53.834 30.584L54.7012 30.7012L56.1152 27.4258L55.8477 25.9258C55.8328 25.8402 55.8451 25.7521 55.8828 25.6738L56.5449 24.2695C56.4791 24.2516 56.4187 24.2178 56.3689 24.1711C56.3192 24.1244 56.2817 24.0661 56.2597 24.0016C56.2377 23.937 56.2319 23.868 56.2429 23.8006C56.2538 23.7332 56.281 23.6696 56.3223 23.6152L56.8262 22.957L56.9238 21.5996C56.9296 21.5243 56.9558 21.4521 56.9995 21.3905C57.0432 21.3289 57.1028 21.2804 57.1719 21.25L57.8203 20.9609C57.869 20.9395 57.9214 20.9275 57.9746 20.9258ZM58.0254 64.002C58.0391 64.0019 58.0528 64.0026 58.0664 64.0039C58.1219 64.0061 58.1763 64.0194 58.2266 64.043L59.9922 64.8906L61.5449 64.4043C61.6088 64.3843 61.6766 64.38 61.7425 64.3917C61.8084 64.4035 61.8705 64.4309 61.9235 64.4717C61.9766 64.5125 62.0191 64.5655 62.0473 64.6262C62.0756 64.6868 62.0888 64.7534 62.0859 64.8203L62.0078 66.5586C62.0058 66.5965 61.9985 66.634 61.9863 66.6699L61.4512 68.2539C61.4285 68.3211 61.3891 68.3814 61.3367 68.4291C61.2843 68.4768 61.2205 68.5104 61.1515 68.5266C61.0825 68.5428 61.0105 68.5412 60.9423 68.5218C60.8741 68.5025 60.8119 68.4661 60.7617 68.416L60.4941 68.1504L60.2773 68.791C60.2582 68.8474 60.2271 68.8991 60.1862 68.9425C60.1454 68.9859 60.0957 69.0201 60.0406 69.0426C59.9854 69.0652 59.9261 69.0757 59.8665 69.0734C59.8069 69.0711 59.7486 69.0561 59.6953 69.0293L58.7773 68.5703C58.6896 68.5259 58.6205 68.4518 58.582 68.3613L58.332 67.791L57.9082 66.9883C57.8595 66.8969 57.8466 66.7908 57.8719 66.6904C57.8971 66.5901 57.9588 66.5027 58.0449 66.4453L57.9512 66.5078L57.4785 65.6719C57.4289 65.5849 57.4123 65.483 57.4316 65.3848L57.6367 64.3398C57.6546 64.2488 57.7024 64.1663 57.7724 64.1055C57.8424 64.0446 57.9308 64.0089 58.0234 64.0039C58.0241 64.0033 58.0247 64.0026 58.0254 64.002Z" fill="#5BC4D6"/>
</svg>
