<svg width="90" height="90" viewBox="0 0 90 90" fill="none" xmlns="http://www.w3.org/2000/svg">
<path d="M45 0C33.0653 0 21.6193 4.74106 13.1802 13.1802C4.74106 21.6193 0 33.0653 0 45C0 56.9347 4.74106 68.3807 13.1802 76.8198C21.6193 85.2589 33.0653 90 45 90C56.9347 90 68.3807 85.2589 76.8198 76.8198C85.2589 68.3807 90 56.9347 90 45C90 33.0653 85.2589 21.6193 76.8198 13.1802C68.3807 4.74106 56.9347 0 45 0ZM64.2344 18.998V19C64.3174 18.9982 64.3984 19.0259 64.4629 19.0781L65.7207 20.0977C65.7684 20.1364 65.8051 20.1869 65.8271 20.2443C65.8491 20.3016 65.8557 20.3637 65.8463 20.4244C65.8368 20.4851 65.8115 20.5422 65.773 20.5901C65.7346 20.638 65.6842 20.6749 65.627 20.6973L64.9316 20.9688L65.0859 21.2324L66.2363 21.7246C66.2871 21.746 66.3322 21.7791 66.3678 21.8212C66.4034 21.8633 66.4286 21.9132 66.4414 21.9668L66.8594 23.7656C66.8703 23.8138 66.871 23.8637 66.8613 23.9121L66.5898 25.2754L67.1172 26.1406L67.7305 26.3965C67.7946 26.423 67.8494 26.468 67.888 26.5257C67.9266 26.5834 67.9472 26.6513 67.9473 26.7207V27.1895L68.2227 27.5098C68.2559 27.5496 68.2799 27.5963 68.293 27.6465L68.4746 28.3047C68.4753 28.3079 68.476 28.3112 68.4766 28.3145L68.6523 29.0195L69.127 30.4453C69.1505 30.5166 69.1505 30.5935 69.1271 30.6648C69.1037 30.7361 69.0581 30.798 68.9969 30.8414C68.9358 30.8849 68.8623 30.9076 68.7873 30.9063C68.7123 30.9049 68.6396 30.8796 68.5801 30.834L67.5625 30.0566C67.5425 30.0417 67.5242 30.0247 67.5078 30.0059L65.8301 28.0273C65.7976 27.9892 65.7736 27.9446 65.7598 27.8965L65.6406 27.4766C65.6406 27.4733 65.6406 27.4701 65.6406 27.4668L65.2812 26.1484C65.2791 26.142 65.2772 26.1355 65.2754 26.1289L65.1797 25.6699C65.1659 25.7206 65.1409 25.7676 65.1066 25.8074C65.0722 25.8471 65.0293 25.8787 64.9812 25.8997C64.933 25.9207 64.8807 25.9306 64.8282 25.9287C64.7757 25.9268 64.7243 25.9131 64.6777 25.8887L64.7715 27.0488C64.7718 27.0579 64.7718 27.0671 64.7715 27.0762V27.3145C64.7718 27.3915 64.7467 27.4666 64.7001 27.528C64.6535 27.5894 64.588 27.6338 64.5137 27.6543L63.9238 27.8145L62.707 28.7676L62.377 30.6406V31.3633L62.7949 31.5996L62.8926 31.3281C62.9212 31.2489 62.9775 31.1825 63.051 31.1413C63.1245 31.1001 63.2104 31.0867 63.293 31.1035L63.8906 31.2246C63.9404 31.2343 63.9875 31.2547 64.0286 31.2844C64.0697 31.3141 64.104 31.3523 64.1289 31.3965L64.668 32.3555C64.6728 32.3631 64.6774 32.3709 64.6816 32.3789L65.0391 33.1582C65.045 33.1703 65.0502 33.1827 65.0547 33.1953L65.4121 34.2734C65.4257 34.3123 65.4323 34.3533 65.4316 34.3945L65.3105 38.1699C65.3078 38.2587 65.2715 38.3432 65.209 38.4062L64.6094 39.0059C64.5555 39.0596 64.4856 39.0944 64.4102 39.105C64.3348 39.1155 64.258 39.1013 64.1914 39.0645L64.0156 38.9668L63.7461 39.7422L63.6309 40.4883C63.6207 40.5509 63.5937 40.6097 63.5527 40.6582L63.1309 41.1641L63.4805 41.6289L64.2285 42.2637C64.2867 42.3132 64.3272 42.3804 64.3438 42.4551L64.4648 42.9941C64.4702 43.0192 64.4728 43.0447 64.4727 43.0703V43.8496C64.4727 43.9059 64.4593 43.9613 64.4334 44.0113C64.4076 44.0612 64.3701 44.1043 64.3242 44.1367L63.3066 44.8555C63.2591 44.8892 63.2039 44.9106 63.146 44.9176C63.0881 44.9247 63.0294 44.9172 62.9751 44.8959C62.9208 44.8746 62.8727 44.8401 62.8351 44.7955C62.7975 44.7509 62.7716 44.6977 62.7598 44.6406L62.5938 43.8633L62.3262 43.4355C62.2811 43.3634 62.2637 43.2773 62.2773 43.1934L62.3105 42.9922L62.2344 42.8984L61.8203 42.9414C61.7666 42.9468 61.7123 42.9396 61.6617 42.9206C61.6112 42.9015 61.5657 42.8711 61.5289 42.8316C61.492 42.7921 61.4648 42.7446 61.4493 42.6928C61.4338 42.6411 61.4304 42.5865 61.4395 42.5332L61.4961 42.2031V41.8867L61 41.918L60.416 42.2891C60.3671 42.3203 60.3112 42.3389 60.2533 42.3432C60.1954 42.3475 60.1374 42.3374 60.0844 42.3138C60.0313 42.2902 59.985 42.2538 59.9495 42.2079C59.914 42.162 59.8904 42.108 59.8809 42.0508L59.8379 41.793L59.1934 42.6777C59.1397 42.7522 59.0591 42.8026 58.9688 42.8184L58.9297 42.8281L58.9316 42.8438H59.0293C59.1013 42.8437 59.1716 42.8657 59.2307 42.907C59.2897 42.9482 59.3346 43.0066 59.3594 43.0742L59.4023 43.1895L59.6699 42.8965C59.703 42.8606 59.7431 42.832 59.7879 42.8125C59.8326 42.793 59.8809 42.783 59.9297 42.7832H60.8867C60.9521 42.783 61.0162 42.8011 61.0719 42.8354C61.1275 42.8697 61.1725 42.9188 61.2017 42.9773C61.2309 43.0357 61.2433 43.1012 61.2373 43.1663C61.2313 43.2314 61.2073 43.2935 61.168 43.3457L60.6387 44.0508L60.1055 44.9258L60.3145 44.9414C60.3715 44.9459 60.4266 44.9642 60.4749 44.9949C60.5233 45.0255 60.5634 45.0675 60.5918 45.1172L61.5508 46.793C61.5631 46.8153 61.5729 46.8389 61.5801 46.8633L61.9414 48.002C61.9676 48.085 61.962 48.1748 61.9258 48.2539L59.9473 52.5664C59.9132 52.6417 59.8538 52.7025 59.7793 52.7383L56.6387 54.2188L55.832 54.8516C55.7853 54.8885 55.7299 54.9128 55.6711 54.9224C55.6123 54.932 55.552 54.9265 55.496 54.9064C55.4399 54.8863 55.3899 54.8522 55.3506 54.8074C55.3113 54.7626 55.2841 54.7086 55.2715 54.6504L55.1699 54.1738L54.9414 54.2363L54.0762 54.9492L53.9531 55.5215L54.7109 56.6309L55.4531 56.9492C55.5086 56.9726 55.5572 57.0098 55.5941 57.0574C55.631 57.1049 55.6551 57.1612 55.6641 57.2207L55.9023 58.8379C55.9055 58.8547 55.9075 58.8716 55.9082 58.8887V60.0879C55.908 60.1575 55.8871 60.2256 55.8482 60.2833C55.8092 60.341 55.754 60.3859 55.6895 60.4121L54.1387 61.0547L54.1055 61.2754C54.0962 61.3399 54.0692 61.4005 54.0275 61.4505C53.9858 61.5005 53.9309 61.538 53.8691 61.5586L53.1504 61.7988C53.0978 61.8162 53.0418 61.8208 52.987 61.8124C52.9323 61.8039 52.8803 61.7826 52.8353 61.7503C52.7904 61.7179 52.7537 61.6753 52.7284 61.626C52.703 61.5768 52.6897 61.5222 52.6895 61.4668V61.0352L51.9414 60.709C51.8986 60.6902 51.86 60.6631 51.8278 60.6293C51.7956 60.5954 51.7705 60.5554 51.7539 60.5117L51.4668 59.7617L51.0312 59.834C50.9595 59.8459 50.8857 59.8351 50.8203 59.8033C50.7549 59.7715 50.701 59.7201 50.666 59.6562V59.668C50.6657 59.6943 50.6624 59.7205 50.6562 59.7461L50.3965 60.8906L50.6406 61.1758C50.6849 61.2271 50.7134 61.2902 50.7227 61.3574L50.7891 61.8438L51.4766 62.2383C51.5204 62.2631 51.5584 62.2971 51.5879 62.3379L52.3672 63.416C52.4019 63.4651 52.4234 63.5223 52.4297 63.582L52.5449 64.6094L52.8828 65.4004C52.9028 65.447 52.9124 65.4974 52.911 65.5481C52.9097 65.5988 52.8973 65.6486 52.8749 65.6941C52.8524 65.7396 52.8204 65.7796 52.7809 65.8115C52.7415 65.8434 52.6956 65.8664 52.6465 65.8789L52.4062 65.9375C52.3612 65.9487 52.3143 65.9509 52.2683 65.9438C52.2224 65.9368 52.1783 65.9207 52.1387 65.8965L50.4609 64.8789C50.3866 64.8339 50.3316 64.7629 50.3066 64.6797L49.7402 62.748L48.9277 62.0977C48.8873 62.0656 48.8544 62.0249 48.8314 61.9787C48.8085 61.9324 48.796 61.8817 48.7949 61.8301L48.7695 60.3711C48.7679 60.3029 48.7863 60.2357 48.8223 60.1777L48.9375 59.9922L48.7969 59.6523C48.7718 59.5939 48.763 59.5298 48.7715 59.4668L48.8008 59.2578L48.6699 58.8926L48.3398 58.2324C48.3083 58.169 48.2968 58.0975 48.3066 58.0273L48.3711 57.5781L48.1621 57.3008L47.4375 57.7402C47.3963 57.7651 47.3504 57.7812 47.3027 57.7876C47.255 57.794 47.2065 57.7905 47.1602 57.7773L46.5664 57.6094C46.5218 57.5968 46.4801 57.5756 46.4438 57.5469C46.4074 57.5181 46.3771 57.4825 46.3546 57.442C46.3321 57.4015 46.3178 57.357 46.3126 57.311C46.3074 57.2649 46.3113 57.2183 46.3242 57.1738L46.4746 56.6543L46.3652 55.8906L46.0391 55.2031L45.5469 54.7852C45.4861 54.7334 45.4447 54.6624 45.4297 54.584L45.2285 53.5508L45.0312 53.7227C44.9696 53.7771 44.8908 53.8082 44.8086 53.8105L43.3184 53.8516L43.1113 53.9551C43.1247 54.0367 43.1087 54.1204 43.0664 54.1914L42.8125 54.6152C42.767 54.6899 42.6953 54.745 42.6113 54.7695L41.5293 55.0898L40.2012 56.0977L40.0059 56.291C39.9544 56.3424 39.8882 56.3765 39.8164 56.3887L39.4004 56.459L39.0078 56.7812C38.9609 56.8188 38.905 56.8437 38.8457 56.8535L38.6973 56.8809L38.7949 57.959C38.8005 58.0206 38.7897 58.0826 38.7637 58.1387L38.4941 58.7148L38.457 59.3262C38.4541 59.3729 38.4419 59.4185 38.4211 59.4605C38.4003 59.5024 38.3714 59.5397 38.3359 59.5703L37.7012 60.1211C37.6836 60.1359 37.6646 60.149 37.6445 60.1602L36.7559 60.668C36.7126 60.6926 36.6647 60.7078 36.6151 60.7125C36.5656 60.7172 36.5156 60.7114 36.4685 60.6953C36.4214 60.6792 36.3783 60.6533 36.342 60.6193C36.3056 60.5853 36.2769 60.544 36.2578 60.498C36.2578 60.498 36.0984 60.1148 35.9336 59.7109C35.8512 59.5089 35.7677 59.3021 35.7012 59.1328C35.6346 58.9634 35.5931 58.8763 35.5625 58.7539C35.5644 58.7615 35.4935 58.512 35.4043 58.2148C35.3151 57.9175 35.1997 57.536 35.0859 57.1602C34.8584 56.4086 34.6367 55.6797 34.6367 55.6797C34.6288 55.6556 34.6236 55.6307 34.6211 55.6055L34.4102 53.0215C34.4075 52.9888 34.4095 52.9559 34.416 52.9238L34.502 52.4941C34.4896 52.4948 34.4772 52.4948 34.4648 52.4941H33.8711C33.8059 52.4943 33.7419 52.4763 33.6864 52.4421C33.6309 52.408 33.5859 52.359 33.5566 52.3008L33.0059 51.1992C32.9681 51.1229 32.9594 51.0355 32.9813 50.9532C33.0032 50.8709 33.0543 50.7994 33.125 50.752L32.8125 50.5195C32.7541 50.4752 32.7111 50.4137 32.6895 50.3438L32.2441 48.9355L30.418 48.5918C30.3657 48.5822 30.3163 48.5608 30.2734 48.5293L28.4277 47.1543L28.4531 47.6113L28.9004 48.2051C28.9249 48.2381 28.9434 48.2751 28.9551 48.3145L29.209 49.1621C29.2277 49.2249 29.2284 49.2916 29.2111 49.3548C29.1939 49.4179 29.1593 49.475 29.1113 49.5195L28.4844 50.1055L27.6445 50.9883C27.5905 51.0451 27.519 51.0823 27.4414 51.0938L25.1543 51.4316C25.1344 51.4367 25.1142 51.4399 25.0938 51.4414L23.1465 51.4004C23.132 51.398 23.1176 51.3948 23.1035 51.3906L21.959 51.2207C21.9142 51.2141 21.8711 51.1988 21.832 51.1758L21.1133 50.752C21.0604 50.721 21.0166 50.6768 20.9861 50.6237C20.9556 50.5706 20.9395 50.5105 20.9395 50.4492V48.7559C20.9391 48.695 20.9546 48.6351 20.9844 48.582L21.3047 48.0117L20.9863 46.0156C20.9855 46.0085 20.9848 46.0013 20.9844 45.9941L20.8555 44.7246C20.8518 44.6826 20.8558 44.6402 20.8672 44.5996L21.2676 43.0742L21.1172 42.4395C21.1067 42.3939 21.1053 42.3468 21.1133 42.3008L21.4805 40.1426L21.3809 39.8438C21.362 39.7865 21.3582 39.7253 21.3698 39.6661C21.3814 39.6069 21.4081 39.5517 21.4473 39.5059L21.8984 38.9785L22.1328 37.8809C22.15 37.8004 22.1949 37.7285 22.2598 37.6777L23.5312 36.6836L23.7109 36.1484C23.7393 36.064 23.7986 35.9935 23.877 35.9512L24.0488 35.8574L23.9434 35.7305L23.5371 35.5078C23.4878 35.4812 23.4457 35.4432 23.4141 35.397C23.3825 35.3508 23.3624 35.2977 23.3555 35.2422L23.3066 34.832H23.1113C23.022 34.8318 22.9361 34.7976 22.8711 34.7362C22.8062 34.6749 22.7671 34.5911 22.7617 34.502L22.6758 33.1035C22.6702 33.0143 22.6988 32.9263 22.7559 32.8574L23.8164 31.5879C23.8647 31.5297 23.9304 31.4886 24.0039 31.4707L24.3828 31.3789C24.4599 31.3602 24.5411 31.3682 24.6131 31.4015C24.6851 31.4348 24.7437 31.4916 24.7793 31.5625L24.8379 31.6816C24.9171 31.6389 25.0098 31.6283 25.0966 31.6519C25.1835 31.6755 25.258 31.7316 25.3047 31.8086L25.4961 32.127L25.916 32.2148C25.9647 32.2252 26.0107 32.2459 26.0508 32.2754L26.5 32.6055C26.5447 32.638 26.581 32.6806 26.6062 32.7298C26.6313 32.779 26.6444 32.8334 26.6445 32.8887V33.4902L26.7324 33.7578L27.0879 34.334H27.3867L27.4043 34.3242L27.4707 33.7363V33.1855V32.6777C27.4707 32.6745 27.4707 32.6712 27.4707 32.668C27.4708 32.6562 27.4714 32.6445 27.4727 32.6328C27.4772 32.5977 27.4871 32.5634 27.502 32.5312C27.5116 32.5099 27.5234 32.4897 27.5371 32.4707C27.5438 32.4612 27.551 32.4521 27.5586 32.4434C27.5739 32.4261 27.5909 32.4104 27.6094 32.3965C27.6188 32.3895 27.6286 32.383 27.6387 32.377C27.6787 32.3528 27.7232 32.3368 27.7695 32.3301C27.7926 32.3245 27.8161 32.3212 27.8398 32.3203C27.8517 32.323 27.8635 32.3262 27.875 32.3301C27.8869 32.3327 27.8986 32.336 27.9102 32.3398C27.9324 32.3462 27.954 32.3547 27.9746 32.3652C28.0171 32.3861 28.055 32.4153 28.0859 32.4512C28.0935 32.4599 28.1007 32.4691 28.1074 32.4785C28.1205 32.4976 28.1316 32.5178 28.1406 32.5391C28.1555 32.5712 28.1653 32.6055 28.1699 32.6406C28.1712 32.6523 28.1718 32.664 28.1719 32.6758V33.0801L28.7422 33.9512C28.7709 33.9947 28.7896 34.0441 28.7969 34.0957L28.8828 34.7207L29.291 35.8848C29.3182 35.962 29.3175 36.0463 29.2891 36.123L29.2969 36.1094L29.7715 36.9336C29.8005 36.9842 29.8164 37.0413 29.8177 37.0997C29.8191 37.158 29.8059 37.2158 29.7794 37.2677C29.7528 37.3197 29.7137 37.3642 29.6656 37.3973C29.6175 37.4303 29.5619 37.4509 29.5039 37.457L29.3281 37.4766L29.2363 37.5664L28.9824 37.8223L28.7246 38.3789L29.2227 39.2402L29.5566 39.3418L29.9746 38.2402L29.9004 37.7949C29.8907 37.7368 29.8959 37.6771 29.9153 37.6215C29.9348 37.5659 29.9679 37.516 30.0117 37.4766L30.3105 37.207C30.341 37.1797 30.3761 37.1579 30.4141 37.1426C30.3572 37.0836 30.3228 37.0066 30.3167 36.9249C30.3107 36.8433 30.3334 36.762 30.3809 36.6953L30.543 36.4688L30.25 36.0098C30.2203 35.9628 30.2021 35.9095 30.197 35.8541C30.1919 35.7988 30.2 35.743 30.2207 35.6914L30.4609 35.0918C30.4746 35.0571 30.4937 35.0248 30.5176 34.9961L30.8477 34.6055C30.8832 34.5636 30.928 34.5307 30.9785 34.5094C31.0291 34.488 31.0839 34.4788 31.1387 34.4824L31.8027 34.5273L31.9375 34.3203L31.7754 34.1309C31.7424 34.0916 31.7184 34.0456 31.7051 33.9961L31.6152 33.666C31.6013 33.6144 31.5994 33.5603 31.6095 33.5079C31.6197 33.4554 31.6417 33.406 31.6738 33.3633L32.1699 32.7012L32.332 32.0508C32.3435 32.0033 32.3648 31.9587 32.3945 31.9199L32.8145 31.3828C32.8616 31.3219 32.9275 31.2782 33.002 31.2584C33.0765 31.2386 33.1554 31.2439 33.2266 31.2734L34.0605 31.6172L34.6836 31.7305C34.7391 31.7407 34.7914 31.7641 34.8359 31.7988C34.8804 31.8334 34.916 31.8784 34.9395 31.9297L35.2168 32.5371L35.4062 32.6309C35.4396 32.6481 35.4699 32.6705 35.4961 32.6973L35.6777 32.8789L35.7793 32.9121L35.6797 32.2168C35.6694 32.1455 35.6814 32.0728 35.7139 32.0085C35.7464 31.9442 35.7978 31.8915 35.8613 31.8574L36.1406 31.709L35.5859 31.3164C35.54 31.2839 35.5025 31.2409 35.4767 31.1909C35.4509 31.141 35.4374 31.0855 35.4375 31.0293V30.25C35.4377 30.2008 35.4482 30.1523 35.4684 30.1074C35.4885 30.0626 35.5179 30.0225 35.5545 29.9897C35.5912 29.957 35.6343 29.9322 35.6811 29.9172C35.7279 29.9021 35.7773 29.8971 35.8262 29.9023L36.5156 29.9785V29.293C36.5157 29.2046 36.5492 29.1195 36.6093 29.0547C36.6694 28.9899 36.7517 28.9501 36.8398 28.9434L37.4668 28.8945L38.8691 27.1543C38.8788 27.1426 38.8893 27.1315 38.9004 27.1211L40.0996 25.9844C40.1347 25.95 40.1766 25.9234 40.2227 25.9062L41.8418 25.3281L43.1133 24.2891C43.1244 24.2792 43.1362 24.2701 43.1484 24.2617L45.0664 23.0645C45.1223 23.0295 45.1869 23.011 45.2529 23.011C45.3188 23.0111 45.3834 23.0297 45.4392 23.0647C45.4951 23.0998 45.5399 23.1499 45.5686 23.2092C45.5973 23.2686 45.6088 23.3348 45.6016 23.4004L45.5684 23.7051L45.9805 23.9297L46.2598 24L46.1797 23.7793C46.1612 23.7275 46.1551 23.672 46.162 23.6174C46.1689 23.5628 46.1886 23.5105 46.2194 23.4649C46.2502 23.4193 46.2912 23.3815 46.3393 23.3547C46.3874 23.3279 46.4411 23.3128 46.4961 23.3105L47.4785 23.2676C47.4847 23.2039 47.5082 23.1432 47.5464 23.0919C47.5846 23.0406 47.6361 23.0007 47.6953 22.9766L49.3047 22.3223L50.5527 21.7266C50.6308 21.6895 50.7198 21.6825 50.8027 21.707L51.8203 22.0059C51.8612 22.0177 51.8996 22.0369 51.9336 22.0625L52.4121 22.4238C52.48 22.4752 52.527 22.5494 52.5442 22.6328C52.5614 22.7161 52.5478 22.8029 52.5059 22.877L52.0996 23.5879L53.1406 23.5527L53.707 23.3105V23.1816C53.7071 23.1282 53.7194 23.0755 53.7429 23.0275C53.7664 22.9796 53.8005 22.9376 53.8427 22.9048C53.8849 22.872 53.934 22.8493 53.9863 22.8384C54.0386 22.8275 54.0927 22.8286 54.1445 22.8418L55.3418 23.1426C55.4187 23.1618 55.4869 23.2066 55.5352 23.2695L56.1191 24.0312L56.7539 23.6309L56.541 22.9941C56.5147 22.9151 56.5173 22.8293 56.5484 22.752C56.5796 22.6747 56.6372 22.611 56.7109 22.5723L57.8477 21.9746C57.8959 21.9489 57.9494 21.9349 58.004 21.9335C58.0585 21.9322 58.1127 21.9436 58.1621 21.9668L59.1016 22.4121L59.8867 21.7715C59.9576 21.7144 60.048 21.6871 60.1387 21.6953L60.7305 21.7441L61.3945 21.2793L61.1777 21.1426C61.1365 21.1163 61.1013 21.0816 61.0743 21.0409C61.0472 21.0002 61.029 20.9543 61.0207 20.9061C61.0124 20.858 61.0143 20.8086 61.0262 20.7612C61.0381 20.7138 61.0598 20.6694 61.0898 20.6309L61.5098 20.0918C61.5489 20.0418 61.6009 20.0033 61.6602 19.9805L63.2148 19.3809L64.1113 19.0234C64.1505 19.0076 64.1922 18.999 64.2344 18.998ZM64.4883 29.6602V29.6621C64.5352 29.6602 64.582 29.6676 64.6259 29.6841C64.6698 29.7005 64.7101 29.7256 64.7441 29.7578L66.873 31.7949C66.9273 31.8467 66.9636 31.9144 66.9766 31.9883L67.1309 32.8906L67.4902 34.25C67.5028 34.2985 67.5048 34.3491 67.4961 34.3984L67.4434 34.7051C67.4307 34.7744 67.3975 34.8383 67.3481 34.8884C67.2987 34.9386 67.2353 34.9728 67.1662 34.9865C67.0971 35.0002 67.0255 34.9928 66.9607 34.9652C66.8959 34.9377 66.8408 34.8913 66.8027 34.832L65.8672 33.3555C65.8624 33.3491 65.8578 33.3426 65.8535 33.3359L64.918 31.6055C64.9173 31.6016 64.9166 31.5977 64.916 31.5938L64.1875 30.1699C64.1608 30.1173 64.1478 30.0589 64.1497 29.9999C64.1515 29.9409 64.1682 29.8834 64.1982 29.8326C64.2282 29.7818 64.2704 29.7394 64.3212 29.7092C64.3719 29.6791 64.4293 29.6622 64.4883 29.6602ZM66.6426 35.3926C66.7021 35.3902 66.7612 35.4029 66.8145 35.4297L67.6875 35.8672L67.9648 35.7578C68.0235 35.734 68.0875 35.7266 68.1501 35.7362C68.2127 35.7458 68.2715 35.7722 68.3203 35.8125L68.5742 36.0254C68.6223 36.0653 68.6588 36.1172 68.6801 36.1759C68.7014 36.2346 68.7067 36.298 68.6953 36.3594L68.5254 37.25C68.5141 37.3094 68.4877 37.3649 68.4487 37.4111C68.4097 37.4573 68.3594 37.4926 68.3027 37.5137L67.8262 37.6895L67.9727 38.082L68.332 38.4062C68.3776 38.4482 68.4113 38.5014 68.4297 38.5605L68.7266 39.4922C68.742 39.5407 68.7466 39.592 68.7402 39.6426L68.6641 40.2559L68.9883 41.5469C69.0015 41.6022 69.0012 41.6598 68.9872 41.715C68.9733 41.7701 68.9462 41.821 68.9082 41.8633L68.2324 42.627C68.2312 42.6309 68.2299 42.6348 68.2285 42.6387L67.8047 43.1055C67.7582 43.1563 67.6977 43.1923 67.6309 43.209L67.4609 43.252L67.1055 44.0684C67.0768 44.1348 67.0284 44.1907 66.9668 44.2285L66.2031 44.6934C66.1905 44.7007 66.1775 44.7072 66.1641 44.7129L66.2012 45.3457C66.2047 45.4125 66.1891 45.4789 66.1562 45.5371L65.7754 46.2168C65.7442 46.2714 65.699 46.3167 65.6444 46.3478C65.5897 46.3789 65.5277 46.3949 65.4649 46.3939C65.402 46.3929 65.3406 46.375 65.287 46.3421C65.2334 46.3093 65.1896 46.2626 65.1602 46.207L64.8281 45.584L64.3711 44.875C64.3387 44.825 64.3195 44.7676 64.3154 44.7081C64.3113 44.6487 64.3224 44.5891 64.3477 44.5352L64.7285 43.7305C64.7368 43.7128 64.7467 43.6958 64.7578 43.6797L65.4355 42.7051C65.472 42.653 65.522 42.6118 65.5801 42.5859L66.5898 42.1328L66.5605 41.5254C66.5584 41.479 66.5654 41.4327 66.5813 41.3891C66.5971 41.3455 66.6215 41.3055 66.6529 41.2713C66.6843 41.2372 66.7222 41.2096 66.7643 41.1902C66.8065 41.1708 66.8521 41.1599 66.8984 41.1582L67.1523 40.5488V39.4316L66.7383 37.6914C66.7368 37.6843 66.7355 37.6771 66.7344 37.6699L66.5254 36.4668L66.3223 35.8574C66.3052 35.8057 66.3004 35.7508 66.3082 35.6969C66.316 35.643 66.3363 35.5917 66.3673 35.547C66.3984 35.5023 66.4394 35.4654 66.4872 35.4393C66.535 35.4132 66.5882 35.3985 66.6426 35.3965V35.3926ZM61.7715 54.0762C61.7952 54.077 61.8187 54.0803 61.8418 54.0859L62.6055 54.2129C62.6682 54.2238 62.7268 54.2515 62.7749 54.2932C62.8231 54.3348 62.859 54.3887 62.8789 54.4492C62.8789 54.4492 62.9555 54.6729 63.0312 54.9219C63.0691 55.0464 63.1068 55.1776 63.1367 55.293C63.1666 55.4084 63.1953 55.4725 63.1953 55.6172C63.1953 55.748 63.1623 55.7955 63.1367 55.8535C63.1111 55.9114 63.0825 55.9654 63.0488 56.0234C62.9815 56.1402 62.8986 56.2661 62.8164 56.3867C62.7547 56.4775 62.746 56.4875 62.6934 56.5605L63.2656 56.9902C63.3055 57.0205 63.3385 57.0589 63.3624 57.1029C63.3862 57.1469 63.4004 57.1955 63.4039 57.2455C63.4074 57.2954 63.4002 57.3455 63.3828 57.3925C63.3653 57.4394 63.338 57.4821 63.3027 57.5176L62.7949 58.0273C62.7395 58.0829 62.6671 58.1183 62.5892 58.1278C62.5113 58.1374 62.4324 58.1206 62.3652 58.0801L61.1797 57.3594C61.133 57.3312 61.0935 57.2925 61.0643 57.2464C61.0352 57.2003 61.0172 57.148 61.0117 57.0938L60.9258 56.2461C60.918 56.167 60.9374 56.0875 60.9807 56.0208C61.024 55.9541 61.0886 55.9041 61.1641 55.8789L61.3262 55.8242L61.4336 54.5879V54.4336C61.4334 54.3426 61.4685 54.2552 61.5315 54.1896C61.5946 54.124 61.6806 54.0854 61.7715 54.082V54.0762ZM60.2285 61.3496V61.3516H60.7676C60.8523 61.3516 60.9342 61.3822 60.9981 61.4379C61.062 61.4935 61.1036 61.5704 61.1152 61.6543C61.1765 61.6628 61.2343 61.6874 61.283 61.7254C61.3317 61.7635 61.3695 61.8137 61.3926 61.8711L61.4238 61.9473H61.6055C61.6821 61.9462 61.7569 61.9702 61.8186 62.0157C61.8802 62.0611 61.9253 62.1255 61.947 62.1989C61.9687 62.2724 61.9658 62.3509 61.9387 62.4226C61.9116 62.4942 61.8618 62.555 61.7969 62.5957L61.5098 62.7793L61.5234 62.8281C61.5378 62.8762 61.5416 62.9268 61.5348 62.9765C61.5279 63.0262 61.5104 63.0738 61.4836 63.1162C61.4568 63.1586 61.4212 63.1947 61.3792 63.2222C61.3372 63.2496 61.2898 63.2678 61.2402 63.2754L61.127 63.293L61.1172 63.4062C61.1113 63.4747 61.0855 63.5399 61.043 63.5938L61.1816 63.6738C61.2462 63.711 61.2973 63.7677 61.3275 63.8358C61.3577 63.904 61.3654 63.9799 61.3496 64.0527L61.6016 64.168C61.6566 64.1931 61.7043 64.232 61.7399 64.281C61.7755 64.33 61.7978 64.3873 61.8046 64.4475C61.8115 64.5076 61.8027 64.5685 61.7791 64.6243C61.7555 64.68 61.7179 64.7287 61.6699 64.7656L61.3086 65.043L60.9805 65.4141L60.998 65.5938C61.0026 65.6449 60.9958 65.6964 60.9783 65.7447C60.9607 65.7929 60.9328 65.8368 60.8965 65.873L60.6309 66.1387L60.3965 66.3887L60.3652 66.3516C60.4024 66.4044 60.4242 66.4664 60.4283 66.5309C60.4324 66.5953 60.4187 66.6597 60.3887 66.7168L60.1191 67.2266C60.0929 67.2757 60.0555 67.3178 60.0098 67.3496L59.1113 67.9785C59.0633 68.0118 59.0077 68.0326 58.9495 68.039C58.8914 68.0454 58.8326 68.0371 58.7785 68.015C58.7243 67.9929 58.6766 67.9576 58.6395 67.9124C58.6025 67.8671 58.5774 67.8133 58.5664 67.7559L58.5586 67.7246L58.4609 67.7695C58.4166 67.7905 58.3685 67.8019 58.3195 67.803C58.2705 67.8042 58.2218 67.7951 58.1766 67.7764C58.1313 67.7576 58.0905 67.7296 58.0567 67.6941C58.0229 67.6586 57.997 67.6164 57.9805 67.5703L57.8984 67.582L57.4629 67.7734C57.3846 67.8074 57.2965 67.8117 57.2153 67.7854C57.134 67.7592 57.0651 67.7042 57.0215 67.6309L56.9688 67.543L56.2812 67.6758C56.2327 67.6851 56.1827 67.684 56.1345 67.6726C56.0864 67.6612 56.0412 67.6398 56.0019 67.6098C55.9627 67.5797 55.9302 67.5417 55.9066 67.4982C55.8831 67.4547 55.869 67.4067 55.8652 67.3574L55.8164 66.6562L55.4766 66.4238C55.4047 66.3743 55.3539 66.2998 55.334 66.2148H55.4785C55.4318 66.2124 55.386 66.2007 55.3438 66.1804C55.3017 66.16 55.2641 66.1314 55.2331 66.0963C55.2022 66.0612 55.1786 66.0202 55.1637 65.9758C55.1488 65.9315 55.143 65.8846 55.1465 65.8379L55.1758 65.4492C55.1804 65.3861 55.202 65.3253 55.2383 65.2734L55.6582 64.6738C55.7099 64.6005 55.7876 64.5498 55.8755 64.532C55.9634 64.5142 56.0548 64.5307 56.1309 64.5781L56.3281 64.7012L56.666 64.7969L56.7402 64.4453C56.7531 64.3831 56.7826 64.3255 56.8256 64.2787C56.8686 64.232 56.9235 64.1977 56.9844 64.1797L57.9062 63.9062L58.1543 63.043C58.1719 62.9802 58.2066 62.9236 58.2545 62.8794C58.3025 62.8353 58.3618 62.8053 58.4258 62.793L59.1641 62.6562L59.2285 62.3945C59.2413 62.3421 59.266 62.2933 59.3008 62.252L59.9609 61.4746C59.9938 61.4356 60.0347 61.4042 60.0809 61.3826C60.1272 61.361 60.1775 61.3498 60.2285 61.3496ZM46.7402 63.4941C46.7448 63.4941 46.7493 63.4941 46.7539 63.4941V63.498C46.8067 63.4985 46.8587 63.5109 46.906 63.5342C46.9534 63.5575 46.9948 63.5912 47.0273 63.6328L48.0508 63.8438C48.106 63.8554 48.1576 63.8802 48.2012 63.916L48.75 64.3594C48.7909 64.3923 48.8238 64.4339 48.8465 64.4812C48.8691 64.5286 48.8809 64.5804 48.8809 64.6328V64.6777L49.4961 64.9473C49.5263 64.9602 49.5546 64.9773 49.5801 64.998L50.1855 65.5C50.2358 65.4879 50.2882 65.487 50.3388 65.4975C50.3894 65.508 50.4372 65.5295 50.4785 65.5605L51.3809 66.2363L52.1113 66.582C52.1555 66.6029 52.1948 66.6327 52.2268 66.6696C52.2588 66.7066 52.2827 66.7497 52.297 66.7964C52.3114 66.8431 52.3158 66.8923 52.3101 66.9408C52.3043 66.9893 52.2885 67.0361 52.2637 67.0781L52.2227 67.1484L52.3945 67.1953C52.4489 67.2107 52.4988 67.2389 52.54 67.2777C52.5811 67.3164 52.6123 67.3646 52.6309 67.418L52.7207 67.6719L53.1855 67.8105C53.2336 67.825 53.2779 67.8495 53.3157 67.8825C53.3534 67.9156 53.3836 67.9563 53.4043 68.002L53.6367 68.5098C53.6678 68.5783 53.676 68.655 53.6602 68.7285L53.4277 69.8301C53.4231 69.8542 53.4159 69.8778 53.4062 69.9004L54.2129 69.6055C54.269 69.5847 54.3295 69.5787 54.3887 69.5879L55.1367 69.707L56.0977 69.5469C56.1085 69.5424 56.1196 69.5385 56.1309 69.5352C56.1309 69.5352 56.4383 69.5132 56.7676 69.4922C57.0968 69.4712 57.4095 69.4492 57.5527 69.4492C57.6682 69.4492 57.7918 69.4624 58.0195 69.4824C58.2473 69.5024 58.5334 69.5287 58.8145 69.5547C59.3525 69.6052 59.8278 69.6482 59.8711 69.6582C59.9156 69.6503 60.6219 69.5226 61.4414 69.3887C61.8638 69.3196 62.304 69.2512 62.6758 69.1992C63.0476 69.1472 63.3292 69.1094 63.5254 69.1094C63.5722 69.1094 63.6139 69.1091 63.666 69.1191C63.7181 69.1283 63.7924 69.1252 63.8984 69.2363C63.9514 69.2918 63.9988 69.3943 64 69.4863C64.0009 69.5786 63.9695 69.6455 63.9434 69.6875C63.891 69.7714 63.8487 69.7944 63.8145 69.8184C63.6773 69.9157 63.5518 69.9575 63.3926 70.0195C63.0741 70.1424 62.6992 70.2598 62.6992 70.2598C62.6851 70.2639 62.6708 70.2672 62.6562 70.2695L58.6738 70.9902C58.6533 70.9954 58.6324 70.9986 58.6113 71H54.8008C54.7691 71.0003 54.7376 70.9964 54.707 70.9883L53.3105 70.6074C53.2596 70.5937 53.2123 70.5687 53.1724 70.5342C53.1324 70.4997 53.1007 70.4566 53.0797 70.4082C53.0587 70.3598 53.0488 70.3072 53.0509 70.2545C53.053 70.2017 53.067 70.1501 53.0918 70.1035L52.4727 70.1855C52.3875 70.1963 52.3013 70.1754 52.2305 70.127L50.4297 68.8984C50.3964 68.8756 50.3674 68.8472 50.3438 68.8145L49.5254 67.6914L48.9082 67.2129C48.8585 67.1743 48.82 67.123 48.7969 67.0645L48.5312 66.3906L48.0215 66.1523C47.9718 66.1289 47.9283 66.0941 47.8945 66.0508L47.3164 65.3125L46.623 64.8555C46.5532 64.8096 46.5019 64.7404 46.4785 64.6602L46.3086 64.0664C46.2931 64.0115 46.2912 63.9536 46.3031 63.8978C46.315 63.842 46.3404 63.7899 46.377 63.7461L46.4824 63.6191C46.5142 63.5813 46.5536 63.5507 46.598 63.5291C46.6424 63.5076 46.6909 63.4957 46.7402 63.4941Z" fill="#5BC4D6"/>
</svg>
