<svg width="90" height="90" viewBox="0 0 90 90" fill="none" xmlns="http://www.w3.org/2000/svg">
<path d="M45 0C33.0653 0 21.6193 4.74106 13.1802 13.1802C4.74106 21.6193 0 33.0653 0 45C0 56.9347 4.74106 68.3807 13.1802 76.8198C21.6193 85.2589 33.0653 90 45 90C56.9347 90 68.3807 85.2589 76.8198 76.8198C85.2589 68.3807 90 56.9347 90 45C90 33.0653 85.2589 21.6193 76.8198 13.1802C68.3807 4.74106 56.9347 0 45 0ZM44.1758 20.4609L46.2734 20.9375L45.0039 22.6309L44.0762 22.0898L43.5508 21.7441L43.498 21.0039L44.041 20.5703L44.1758 20.4609ZM54.4551 20.8125L55.8066 21.9883L55.0508 23.8691L55.5352 25.1934L55.3477 25.2422L55.4004 25.334L55.3691 25.8555L55.3379 25.9219L55.6484 26.166L55.7012 27.2344L55.7598 27.5801L57.7617 28.4102L55.6582 29.3359L55.4863 29.1895C55.4863 29.1895 55.3515 29.0736 55.1992 28.9492C55.1488 28.908 55.0992 28.87 55.0508 28.832L54.9492 29.0449L53.4707 28.7305L53.584 28.3555C53.584 28.3555 53.6301 28.2039 53.6758 28.041C53.6986 27.9595 53.7224 27.8765 53.7383 27.8105C53.7443 27.7855 53.7471 27.7612 53.75 27.7402C53.7429 27.7097 53.7299 27.6399 53.7129 27.5859C53.6914 27.5182 53.6802 27.482 53.6719 27.459L53.3613 26.9863L53.4746 26.6191H53.043L53.2832 25.2715L52.6074 24.9863L53.5234 23.4707L53.5 23.0176L54.1973 22.4043L54.3535 21.4512L54.4551 20.8125ZM41.9023 22.3574H43.3555L44.6113 22.9238L44.8262 24.1133L44.0684 24.5098L43.4648 26.7812L42.5234 24.9355L42.3496 24.418L42.2637 24.0488L41.9941 22.791L41.9023 22.3574ZM60.7832 27.6641L62.1836 28.7734L62.3242 30.2051L61.6758 33.0352L63.3184 35.4414L64.9492 39.1387L65 40.5449L66.0508 40.6758V42.1953L65.2969 42.8184L65.9023 43.1367H66.0801L66.1172 43.0566L66.9668 41.9551L67.8086 42.5898L68.2988 43.5762L68.3359 43.9492L69.2422 44.0098L69.3008 44.4199H69.7012L70.5918 44.332L71 45.7344L70.1016 46.2773L66.9355 46.9453L64.8496 48.4473L65.2559 49.4492L66.2246 50.2832L66.2832 51.3164L66.5977 51.5742L66.959 52.3984L65.6836 54.0605V55.0234L64.7695 55.2109V56.2754L64.9961 56.623L65.2539 55.9219L65.9922 57.8145L68.4941 59.8555L65.0605 59.498L63.9707 59.8574L59.6855 59.6699L56.6172 58.3184L57.3496 57.8906L57.3301 56.9277L57.0332 56.5059L56.1445 56.8867L56.0645 57.1543L56.3184 57.4629L56.3828 58.375L55.3418 59.8691L54.4473 60.1035L53.4258 58.1426L53.9863 58.0215H53.1777L53.0312 57.6914L52.7695 57.9043L52.1465 58.873L51.6641 59.998L51.3086 60.2129V61.1152L50.8438 62.2773L52.3984 64.1699H50.5586L48.5977 64.5938L47.2051 64.8027L47.3223 65.6777L48.4043 67.5156L47.0469 67.8008L47.3496 69.5391L45.6816 68.9355L44.8613 67.2031L43.0742 65.1523V63.1836L40.9297 62.2773L39.8223 60.0566L39.1016 60.418V59.2031L38.4727 59.2832L38.5898 60.3281L39.3867 60.8828L40.4883 62.75L41.2109 63.0684L42.6055 64.2812L43.5664 66.3633L42.0977 65.6777L42.2891 66.3398L40.3379 68.1504L40.3242 67.7676L40.0098 69.2383L37.3965 67.7168L37.2383 67.2969L37.1133 66.9688L38.0234 66.5996L40.2852 66.7266L40.2344 65.377L36.4688 62.5547L35.9297 60.5703L35.7402 60.1895L32.7773 61.1719L31.3672 60.4316L30.8242 60.8145L30.7285 61.959L28.9375 62.2441L27.6914 63.7207L27.5352 64.2832L27.0703 65.2031H26.209L25.2871 66.0391L23.4688 65.3125L21.8633 65.834L21.168 64.002L19.3594 63.4434L19.9121 62.1855L19.4141 62.0176L19.5352 61.8066H19L20.5469 60.3027L21.3848 57.9688L20.8203 56.9258L23.168 56.5801L23.7305 57.2422L27.0488 58.5742L28 56.3613L27.6543 56.0645L27.5938 55.082L26.6484 54.1953L26.2656 52.9395L27.2676 52.7207L28.3008 52.9238L28.3809 52.9629L28.5195 51.8555L29.7871 52.8652L30.9512 52.4746L31.4941 51.6934L33.1699 51.0137L33.9766 50.123L34.2461 50.2734L34.4219 50.2559V49.873L35.3125 49.4238L36.9219 49.4727L36.8965 49.3184L36.4199 48.9707L36.7656 46.1133L36.8789 46.0215C36.8789 46.0215 37.1341 45.8145 37.4492 45.6055C37.6068 45.5011 37.7804 45.3955 37.9551 45.3105C38.1297 45.2254 38.296 45.1504 38.5137 45.1504C38.6401 45.1504 38.8187 45.2113 38.9141 45.3438C38.9617 45.41 38.9849 45.4771 38.9961 45.5391C38.9432 45.405 38.8879 45.2675 38.8438 45.1328H38.8418C38.7672 44.9084 38.7533 44.777 38.7051 44.5508L37.8672 45.1758L36.7695 45.4082L35.873 44.6758L35.5195 43.2754L35.791 40.6113L37.2852 39.5254L38.6797 38.8223L39.2012 37.9141L39.957 37.7988C40.0059 37.664 40.079 37.4633 40.2305 37.0879C40.3277 36.8469 40.4335 36.5918 40.5391 36.3691C40.6446 36.1465 40.7341 35.9647 40.8613 35.8125C40.9516 35.7041 41.2356 35.2278 41.4551 34.8203C41.6745 34.4129 41.8574 34.0488 41.8574 34.0488L41.9082 33.9434L42.0137 33.8906C42.0137 33.8906 42.4552 33.6624 42.9258 33.4121C43.1611 33.2869 43.4035 33.1568 43.5996 33.0469C43.7958 32.9372 43.967 32.8362 43.9707 32.8262H43.9727H43.9746C43.9905 32.8142 44.1008 32.7143 44.2168 32.5957C44.3328 32.4769 44.4691 32.3312 44.5977 32.1914C44.8548 31.9119 45.084 31.6543 45.084 31.6543L45.1133 31.6191L46.6055 30.627L49.0957 31.8184L48.0977 32.1758L49.3379 32.2773L52.0039 33.2852L53.5586 34.457L52.2969 36.0508L50.0859 35.9473L50.0977 35.9824L50.8691 36.3906L51.4844 37.498L51.5566 37.541L52.0312 36.6992L53.082 37.1094L52.7852 35.9219L53.5059 34.8027L53.9922 34.7305L52.8125 32.0977L55.043 32.8301L55 32.793L55.4707 31.6738L56.377 30.0723L56.8828 31.1719H57.0859V30.6699L57.5488 30.3574L58.1621 29.3535L58.4727 29.5059L58.4746 29.4863L57.6074 28.7617L58.2402 28.0195L60.7832 27.6719V27.6641ZM38.9961 45.5391C39.0073 45.6007 39.0065 45.6571 39.002 45.7051C38.9838 45.8986 38.9116 46.042 38.8379 46.1895C38.7306 46.404 38.6554 46.5076 38.5918 46.6016L38.7871 47.3281L37.9531 48.1621V48.4023L38.2852 48.9531L38.4355 49.3281L40.0938 49.0957L40.5391 49.7852L40.8965 49.4648L42.9629 48.8418L43.6094 49.2559L44.5332 48.8359L44.3086 47.0156L45.1562 45.7012H46.0059L46.3008 46.043L46.4043 45.7266L46.0176 45.334L45.5645 43.9902L45.6621 43.9609L45.5059 43.8438C45.5059 43.8438 45.3306 43.7123 45.1191 43.5742C44.9076 43.4361 44.61 43.2989 44.6094 43.2988H44.6133C44.4972 43.2761 44.3551 43.1885 44.2891 43.0703C44.2231 42.952 44.2217 42.8418 44.2305 42.7578C44.2481 42.5906 44.3081 42.4741 44.3672 42.3594C44.4555 42.188 44.5185 42.108 44.5664 42.041L44.627 40.0625L46.3906 37.8848L46.2227 37.543L45.7461 37.5078L45.3086 37.7871L45.1367 38.7734L43.5117 40.6016L42.9512 40.6465L42.9043 42.3535L43.1719 42.5762L43.8867 43.5273L43.3574 44.4863L42.2578 45.1445L42.4805 46.7441L42.3066 47.584L41.3906 48.0449L39.5273 48.6074L39.4375 47.2676L39.1992 46.0371C39.185 46.0048 39.0938 45.7868 38.9961 45.5391ZM26.8398 30.0059L27.3652 31.6426L27.5859 31.4375L27.9512 32.127L28.1367 32.1387L28.2637 31.9922L29.1348 32.3047L29.5488 32.3711L29.6738 32.8691L29.7988 34.168V34.6914L28.4961 35.2832L26.418 35.1035L25.6914 33.9297L24.4297 33.4766L25.6602 33.043L25.0078 31.0801L25.3809 31.3047L26.2324 31.0859L26.3691 31.0488L26.8398 30.0059ZM30.0723 40.6875L31.8496 41.207L31.1465 42.3594L32.1543 42.6211L31.3418 43.9824L31.1113 44.3457L31.1699 44.6133L31.4688 45.6797L31.6953 46.4102L31.7461 47.4062L31.6719 47.7734L32.1328 47.9688L32.5391 48.8672L31.7559 49.793L32.2617 50.2383L30.4727 50.6895L28.627 50.1426L28.123 50.4316L26.0234 50.0605L27.4922 48.8438L27.8125 48.8301L26.9707 48.0957L28.1348 47.4316V47.207L28.4395 46.6445L29.3535 46.582L29.3125 46.4531L29.1035 45.8066L29.2266 45.5352L28.707 45.4395L28.6445 44.2461L28.873 43.9453L28.5156 43.7285L28.748 43.1582L28.5293 42.6699L29.0059 42.2422L29.043 41.7793L29.0703 41.418L29.6992 41.4766L30.0723 40.6875ZM25.6406 43.5391V43.541L26.3867 43.8555L27.3262 44.2656L27.1406 45.7793L26.9473 45.8594C26.9473 45.8594 26.8117 45.9157 26.6504 45.9727C26.5551 46.0067 26.439 46.0209 26.3359 46.0469C26.3232 46.0759 26.3123 46.1004 26.2949 46.1484C26.2408 46.2991 26.1754 46.5189 26.1172 46.7402C26.0008 47.1828 25.9062 47.6309 25.9062 47.6309L25.834 47.959L23.1289 47.5684L22.8789 47.5332L22.7031 46.6777L23.6855 45.9082L24.0137 45.7695L23.2695 45.1445L23.9746 44.6816L24.2129 44.1484L24.7891 44.2129L24.9023 44.2031L24.8672 43.873L25.6406 43.5391ZM35.4199 62.8594L36.0527 64.1152L35.5977 65.6777L33.8828 66.0879L34.0488 63.4902L34.0645 63.2344L35.4199 62.8594Z" fill="#5BC4D6"/>
</svg>
