<svg width="90" height="90" viewBox="0 0 90 90" fill="none" xmlns="http://www.w3.org/2000/svg">
<path d="M45 0C33.0653 0 21.6193 4.74106 13.1802 13.1802C4.74106 21.6193 0 33.0653 0 45C0 56.9347 4.74106 68.3807 13.1802 76.8198C21.6193 85.2589 33.0653 90 45 90C56.9347 90 68.3807 85.2589 76.8198 76.8198C85.2589 68.3807 90 56.9347 90 45C90 33.0653 85.2589 21.6193 76.8198 13.1802C68.3807 4.74106 56.9347 0 45 0ZM36.9727 19V19.002C36.9792 19.0018 36.9857 19.0018 36.9922 19.002C37.0631 19.0016 37.1329 19.0191 37.1953 19.0527L38.4258 19.709L40.4492 19.5391C40.4525 19.539 40.4557 19.539 40.459 19.5391L41.9785 19.4512C42.0897 19.4443 42.1992 19.4815 42.2832 19.5547L45.0488 21.9629L45.8535 22.6074L48.6094 23.123C48.6583 23.1323 48.7053 23.1502 48.748 23.1758L51.1621 24.6074C51.2511 24.6601 51.3178 24.7434 51.3496 24.8418L52.0664 27.0781C52.0853 27.1371 52.0911 27.1994 52.0833 27.2608C52.0756 27.3222 52.0545 27.3812 52.0215 27.4336L51.4688 28.3066L52.3867 28.1309C52.4384 28.1212 52.4913 28.1212 52.543 28.1309L53.5254 28.3105C53.548 28.3146 53.5702 28.3205 53.5918 28.3281L56.3633 29.3105C56.4497 29.3409 56.524 29.3983 56.5751 29.4744C56.6261 29.5504 56.6512 29.641 56.6465 29.7324L56.6055 30.4883L56.7617 30.3633C56.8074 30.3268 56.8601 30.3002 56.9166 30.2851C56.9731 30.2699 57.032 30.2666 57.0898 30.2754L58.8789 30.543C58.9028 30.5468 58.9263 30.5527 58.9492 30.5605L59.7539 30.8281C59.8046 30.8452 59.8517 30.8717 59.8926 30.9062L62.0664 32.7324L62.7949 32.9746C62.8659 32.9984 62.9293 33.0406 62.9787 33.0969C63.0281 33.1531 63.0617 33.2215 63.0762 33.2949L63.6133 35.9766C63.6264 36.0413 63.6242 36.1082 63.607 36.172C63.5897 36.2357 63.5577 36.2945 63.5137 36.3438L60.373 39.832L59.6797 43.4727C59.6724 43.5106 59.6599 43.5474 59.6426 43.582L58.748 45.3711C58.7399 45.3866 58.7307 45.4016 58.7207 45.416L57.4688 47.2949C57.4325 47.3492 57.3842 47.3943 57.3276 47.4268C57.271 47.4593 57.2077 47.4784 57.1426 47.4824L54.2129 47.6543L52.6211 48.6895L52.1758 49.6562V50.9043C52.1758 50.9681 52.1614 51.0311 52.1337 51.0886C52.1059 51.1461 52.0656 51.1966 52.0156 51.2363L49.4863 53.2422L48.3652 55.2266C48.3268 55.2937 48.2708 55.3491 48.2031 55.3867L46.7734 56.1934C46.6967 56.2359 46.6087 56.2537 46.5215 56.2441L45.5918 56.1465L45.5996 56.1621L46.1309 57.1387C46.1706 57.2109 46.1885 57.2931 46.1822 57.3754C46.176 57.4576 46.1459 57.5362 46.0957 57.6016L45.2012 58.7637C45.1357 58.8479 45.0408 58.9044 44.9355 58.9219L42.5273 59.3242L42.2363 60.4863C42.2148 60.5715 42.1673 60.6479 42.1005 60.7049C42.0337 60.7619 41.9508 60.7968 41.8633 60.8047L40.9863 60.8848L41.1309 61.1758C41.1465 61.2068 41.1583 61.2396 41.166 61.2734L41.3438 62.0781C41.3595 62.1478 41.3573 62.2203 41.3375 62.289C41.3177 62.3576 41.2809 62.4201 41.2305 62.4707L40.8184 62.8828V63.4219C40.8186 63.5164 40.7871 63.6084 40.7291 63.683C40.6711 63.7577 40.5897 63.8108 40.498 63.834L39.6504 64.0449L39.791 64.2559L40.7617 64.7422C40.8194 64.7708 40.8698 64.8122 40.9091 64.8632C40.9483 64.9142 40.9755 64.9735 40.9885 65.0365C41.0015 65.0996 41 65.1647 40.984 65.2271C40.9681 65.2895 40.9381 65.3474 40.8965 65.3965L39.9355 66.5312L39.1875 67.8027L39.5762 68.4473L40.8027 69.8496C40.8464 69.8993 40.8779 69.9586 40.8946 70.0226C40.9113 70.0867 40.9128 70.1538 40.899 70.2185C40.8851 70.2832 40.8563 70.3438 40.8148 70.3954C40.7734 70.447 40.7204 70.4882 40.6602 70.5156L39.6758 70.9629C39.6245 70.9862 39.569 70.9991 39.5127 71.0008C39.4564 71.0025 39.4003 70.9929 39.3477 70.9727L37.0234 70.0801C36.9309 70.045 36.8535 69.9787 36.8047 69.8926L36 68.4609C35.9831 68.4307 35.97 68.3986 35.9609 68.3652L35.2461 65.7715C35.2383 65.7421 35.2337 65.712 35.2324 65.6816L35.1426 64.0078L34.7891 61.9766L34.5215 60.457C34.5163 60.4274 34.5144 60.3973 34.5156 60.3672L34.6055 58.043C34.6067 58.012 34.6112 57.9812 34.6191 57.9512L35.3223 55.3145L35.4082 52.7559L34.9844 51.4863C34.9562 51.4015 34.9555 51.3099 34.9824 51.2246L35.5742 49.3613L35.1504 47.2324C35.1379 47.1724 35.1386 47.1105 35.1523 47.0508L35.5762 45.2754L34.9297 42.6934L33.3047 41.7988C33.304 41.7988 33.3034 41.7988 33.3027 41.7988L30.8887 40.457C30.8108 40.4135 30.7486 40.3465 30.7109 40.2656L30.084 38.9238C30.0833 38.9206 30.0826 38.9173 30.082 38.9141L28.6738 35.832L27.0059 33.7266C26.9806 33.6939 26.9602 33.6577 26.9453 33.6191L26.4082 32.2773C26.3838 32.2155 26.3743 32.1489 26.3804 32.0827C26.3865 32.0166 26.4081 31.9528 26.4434 31.8965L27.1113 30.8242L26.7559 30.6016C26.6785 30.5534 26.6186 30.4817 26.5852 30.3969C26.5518 30.3121 26.5466 30.2188 26.5703 30.1309L26.8398 29.1484C26.85 29.1114 26.8651 29.0759 26.8848 29.043L27.7773 27.5234C27.7958 27.4928 27.8182 27.4645 27.8438 27.4395L29.7734 25.5098L29.6426 25.2441C29.6208 25.2019 29.6063 25.1564 29.5996 25.1094L29.4336 23.7773L29.1309 23.3242C29.0806 23.2486 29.0559 23.1588 29.0605 23.0681C29.065 22.9774 29.0986 22.8905 29.1562 22.8203L29.9609 21.8359C29.9837 21.808 30.01 21.783 30.0391 21.7617L31.1699 20.9336L31.123 20.6543C31.1075 20.5609 31.1236 20.4649 31.1689 20.3817C31.2143 20.2985 31.2861 20.2329 31.373 20.1953L32.6152 19.6621L33.498 19.2207C33.5499 19.1952 33.6064 19.1806 33.6641 19.1777L36.9727 19Z" fill="#5BC4D6"/>
</svg>
