<svg width="58" height="58" viewBox="0 0 58 58" fill="none" xmlns="http://www.w3.org/2000/svg">
<path d="M49.2903 20.2398C49.1819 9.11125 40.1295 0.146545 29.0001 0.146545C17.8707 0.146545 8.81834 9.11125 8.70993 20.2398C8.70993 20.2571 8.7002 20.2708 8.7002 20.288C8.7002 20.3057 8.70595 20.3066 8.70595 20.3172C8.70595 20.3557 8.7002 20.3925 8.7002 20.4314C8.7002 31.6427 17.7888 40.7313 29.0001 40.7313C40.2114 40.7313 49.3 31.6427 49.3 20.4314C49.3 20.3925 49.2943 20.3557 49.2943 20.3172C49.2943 20.3066 49.3 20.2987 49.3 20.288C49.3 20.2774 49.2916 20.2571 49.2903 20.2398ZM47.3105 19.3216H40.569C40.5132 15.2652 39.6472 11.2609 38.0228 7.54346C38.3799 7.46558 38.7317 7.38593 39.0768 7.30893C39.8499 7.13458 40.5884 6.97351 41.3 6.82527C44.8652 10.041 47.0242 14.5288 47.3105 19.3216ZM35.1385 3.1423C36.6267 3.66667 38.0409 4.38176 39.3454 5.26898L38.6534 5.42165C38.144 5.53581 37.6179 5.65308 37.0842 5.76768C36.5315 4.82559 35.8793 3.94545 35.1385 3.1423ZM35.0137 6.18452C33.3482 6.50357 31.6613 6.70093 29.967 6.77438V2.16127C31.8498 2.53519 33.5898 3.99501 35.0137 6.18452ZM28.0332 2.16127V6.77438C26.3389 6.70093 24.6521 6.50357 22.9865 6.18452C24.4104 3.99501 26.1504 2.53519 28.0332 2.16127ZM20.916 5.76768C20.3823 5.65308 19.8526 5.53581 19.3469 5.42165L18.6566 5.26898C19.9615 4.38176 21.3753 3.66667 22.8639 3.1423C22.1223 3.94545 21.4696 4.82559 20.916 5.76768ZM28.0332 8.70769V19.3216H19.3646C19.4389 15.3944 20.3323 11.5256 21.9868 7.96339C23.9794 8.37271 26.0013 8.6214 28.0332 8.70769ZM28.0332 21.2549V32.1529C25.9853 32.2211 23.944 32.4264 21.9231 32.7667C20.2744 29.1505 19.4 25.229 19.3557 21.2549H28.0332ZM28.0332 34.0862V38.7024C26.1167 38.3214 24.3454 36.8222 22.9099 34.5677C24.6065 34.3026 26.3172 34.1415 28.0332 34.0862ZM22.8617 37.721C21.2673 37.1546 19.7593 36.37 18.3804 35.3894C19.1632 35.2336 19.9712 35.0735 20.8049 34.9208C21.3824 35.9288 22.0727 36.8683 22.8617 37.721ZM29.967 38.7024V34.0862C31.683 34.1424 33.3937 34.3035 35.0903 34.5699C33.6548 36.8183 31.8835 38.3214 29.967 38.7024ZM37.1953 34.9208C38.029 35.0735 38.8388 35.2336 39.6198 35.3894C38.2409 36.37 36.7329 37.1546 35.1385 37.721C35.9275 36.8683 36.6178 35.9288 37.1953 34.9208ZM29.967 32.1529V21.2549H38.6445C38.6003 25.229 37.7259 29.1505 36.0771 32.7667C34.0562 32.4264 32.0149 32.2211 29.967 32.1529ZM29.967 19.3216V8.70769C31.999 8.6214 34.0208 8.37271 36.0134 7.96339C37.6679 11.5256 38.5613 15.3944 38.6357 19.3216H29.967ZM16.7011 6.83014C17.4118 6.97351 18.1512 7.13458 18.9247 7.3138C19.2694 7.39079 19.6217 7.47 19.9783 7.54832C18.3539 11.264 17.4883 15.2669 17.4313 19.3216H10.6897C10.9778 14.5306 13.1367 10.0445 16.7011 6.83014ZM10.6751 21.2549H17.4233C17.4512 25.3366 18.291 29.3718 19.8942 33.1255C19.1924 33.2579 18.5119 33.3924 17.8698 33.5198C17.379 33.6167 16.9034 33.7132 16.4458 33.8004C12.9571 30.5334 10.8853 26.03 10.6751 21.2549ZM41.5544 33.8004C41.092 33.7114 40.6212 33.6185 40.1304 33.5198C39.4884 33.3924 38.8078 33.2579 38.106 33.1255C39.7092 29.3718 40.549 25.3366 40.5769 21.2549H47.3251C47.1149 26.03 45.0431 30.5334 41.5544 33.8004Z" fill="#4164A9"/>
<path d="M57.0331 19.3216H54.1334C53.5993 19.3216 53.1665 19.7544 53.1665 20.288C53.1665 20.8221 53.5993 21.2549 54.1334 21.2549H57.0331C57.5672 21.2549 58 20.8221 58 20.288C58 19.7544 57.5672 19.3216 57.0331 19.3216Z" fill="#4164A9"/>
<path d="M0.966873 21.2549H3.86661C4.40071 21.2549 4.83348 20.8221 4.83348 20.288C4.83348 19.7544 4.40071 19.3216 3.86661 19.3216H0.966873C0.43277 19.3216 0 19.7544 0 20.288C0 20.8221 0.43277 21.2549 0.966873 21.2549Z" fill="#4164A9"/>
<path d="M45.15 3.57155L47.0833 1.63825C47.4497 1.25902 47.4443 0.655885 47.0713 0.283296C46.6987 -0.0897354 46.0956 -0.0950455 45.7164 0.271349L43.7831 2.20465C43.5317 2.44759 43.4308 2.8069 43.5193 3.14498C43.6078 3.48305 43.872 3.74678 44.2101 3.83528C44.5477 3.92378 44.9075 3.82289 45.15 3.57155Z" fill="#4164A9"/>
<path d="M50.3682 30.4895C50.2535 30.7187 50.2345 30.9846 50.3159 31.2276C50.3969 31.471 50.5717 31.6723 50.8014 31.7865L52.7347 32.7533C53.2126 32.9919 53.7931 32.798 54.0316 32.3201C54.2706 31.8422 54.0768 31.2617 53.5989 31.0231L51.6656 30.0563C51.4359 29.9417 51.1704 29.9226 50.927 30.0041C50.6837 30.085 50.4828 30.2598 50.3682 30.4895Z" fill="#4164A9"/>
<path d="M6.33449 30.0563L4.40119 31.0231C4.09232 31.1771 3.88877 31.4847 3.86797 31.8298C3.84717 32.1745 4.01179 32.5046 4.3003 32.6949C4.58837 32.8852 4.95653 32.9078 5.2654 32.7533L7.19871 31.7865C7.67661 31.5479 7.87043 30.9674 7.63192 30.4895C7.39341 30.0116 6.8124 29.8178 6.33449 30.0563Z" fill="#4164A9"/>
<path d="M54.0365 9.22275C53.9224 8.99309 53.721 8.81874 53.4776 8.73732C53.2347 8.65634 52.9688 8.67493 52.7395 8.78954L50.8063 9.75641C50.3283 9.99492 50.1345 10.5759 50.373 11.0538C50.6115 11.5313 51.1926 11.7251 51.6705 11.4866L53.6038 10.5202C53.833 10.4056 54.0078 10.2042 54.0892 9.96129C54.1702 9.71791 54.1516 9.45241 54.0365 9.22275Z" fill="#4164A9"/>
<path d="M7.19871 9.7564L5.2654 8.78953C4.95653 8.63509 4.58837 8.65766 4.3003 8.84794C4.01179 9.03866 3.84717 9.36832 3.86797 9.71303C3.88877 10.0582 4.09232 10.3657 4.40119 10.5202L6.33449 11.4866C6.8124 11.7251 7.39341 11.5313 7.63192 11.0538C7.87043 10.5759 7.67661 9.99491 7.19871 9.7564Z" fill="#4164A9"/>
<path d="M13.5331 3.85475C13.9243 3.85475 14.2766 3.61934 14.4261 3.25826C14.5757 2.89673 14.4934 2.48122 14.2168 2.20465L12.2835 0.271349C11.9043 -0.0950455 11.3011 -0.0897354 10.9286 0.283296C10.5555 0.655885 10.5502 1.25902 10.9166 1.63825L12.8499 3.57155C13.0313 3.75298 13.2769 3.85475 13.5331 3.85475Z" fill="#4164A9"/>
<path d="M54.3161 41.4004C53.9493 41.3973 53.5834 41.4429 53.2285 41.5354L34.4972 46.2644C34.1667 46.3489 33.8264 46.3905 33.4852 46.3883H33.3498C33.5459 45.4874 33.3335 44.5457 32.7701 43.816L32.6861 43.701C31.5515 42.2978 29.8275 41.5044 28.0238 41.5548H23.2775C21.6394 41.5668 20.0313 41.1168 18.6374 40.2565C16.9311 39.1989 14.9611 38.644 12.9534 38.6547H10.6334C10.6068 38.6591 10.5803 38.6644 10.5542 38.6715C10.1555 37.4639 9.00365 36.6678 7.73322 36.7214H2.90018C1.40849 36.6244 0.115936 37.7444 0 39.2348V55.4747C0.115936 56.9651 1.40849 58.0855 2.90018 57.9882H7.73322C8.59167 57.9983 9.41473 57.6479 10.0019 57.0217H33.1759C34.5623 57.0279 35.9314 56.7191 37.181 56.1186L56.1499 47.2583C57.0229 46.8645 57.6739 46.1007 57.9234 45.1759C58.1394 44.2435 57.8664 43.2651 57.1986 42.5797C56.4419 41.8053 55.3985 41.3783 54.3161 41.4004ZM2.90018 56.0549C2.34705 56.0549 1.9333 55.7495 1.9333 55.4747V39.2348C1.9333 38.9604 2.34705 38.6547 2.90018 38.6547H7.73322C8.28635 38.6547 8.70009 38.9604 8.70009 39.2348V55.4747C8.70009 55.7495 8.28635 56.0549 7.73322 56.0549H2.90018ZM56.0446 44.7205C55.9304 45.0781 55.6653 45.3675 55.3193 45.5126L36.3465 54.376C35.3575 54.8504 34.2733 55.0942 33.1759 55.0884H10.6334V40.5884H12.9534C14.5912 40.5765 16.1992 41.0265 17.5936 41.8863C19.2999 42.9443 21.2699 43.4992 23.2775 43.4881H28.0238C29.2115 43.4474 30.3536 43.9492 31.1267 44.8524L31.2116 44.9683C31.5373 45.3776 31.5643 45.9494 31.2793 46.3883H24.6984C22.8231 46.3768 20.9738 46.8273 19.314 47.6999L18.5892 48.0867C18.2781 48.2455 18.0768 48.5597 18.0626 48.9088C18.0489 49.258 18.2241 49.5872 18.5215 49.7704C18.8193 49.9536 19.1923 49.9624 19.4977 49.793L20.2256 49.4062C21.6049 48.6827 23.1408 48.3106 24.6984 48.3216H33.4852C33.9892 48.3243 34.4915 48.2628 34.98 48.138L53.7236 43.4014C53.917 43.351 54.1161 43.3271 54.3161 43.3297C54.86 43.3111 55.3883 43.5129 55.7813 43.8895C56.003 44.1046 56.1021 44.417 56.0446 44.7205Z" fill="#4164A9"/>
</svg>
