<svg width="16" height="18" viewBox="0 0 16 18" fill="none" xmlns="http://www.w3.org/2000/svg">
<path fill-rule="evenodd" clip-rule="evenodd" d="M5.93125 0V2.475C2.52822 3.3493 0 6.44244 0 10.1125C0 14.4583 3.54169 18 7.8875 18C12.2333 18 15.775 14.4583 15.775 10.1125C15.775 7.91292 14.8658 5.92034 13.4062 4.4875L11.9687 5.525C13.2305 6.64773 14.025 8.28307 14.025 10.1125C14.025 13.513 11.288 16.25 7.8875 16.25C4.48701 16.25 1.75 13.513 1.75 10.1125C1.75 7.39663 3.49557 5.107 5.93125 4.29375V6.9L10.725 3.45L5.93125 0ZM7.95 8.3625C7.71523 8.35597 7.48154 8.39656 7.26272 8.48188C7.04391 8.56719 6.84442 8.69551 6.67604 8.85923C6.50765 9.02295 6.37379 9.21876 6.28237 9.4351C6.19094 9.65143 6.14381 9.88389 6.14375 10.1188C6.16006 10.5736 6.35224 11.0045 6.67981 11.3205C7.00739 11.6365 7.44482 11.8132 7.9 11.8132C8.35518 11.8132 8.79261 11.6365 9.12018 11.3205C9.44776 11.0045 9.63994 10.5736 9.65625 10.1188C9.65615 9.66158 9.4779 9.22245 9.15934 8.89455C8.84077 8.56665 8.40697 8.3758 7.95 8.3625Z" fill="white"/>
</svg>
