<svg width="24" height="24" viewBox="0 0 24 24" fill="none" xmlns="http://www.w3.org/2000/svg">
<mask id="mask0" mask-type="alpha" maskUnits="userSpaceOnUse" x="0" y="0" width="24" height="24">
<rect width="24" height="24" fill="#5BC4D6"/>
</mask>
<g mask="url(#mask0)">
<path d="M4.76074 11.625C4.76074 7.42648 8.17648 4.01074 12.375 4.01074C13.954 4.01074 15.4599 4.48953 16.7278 5.37817H15.7483C15.4692 5.37817 15.2429 5.60445 15.2429 5.88355C15.2429 6.16265 15.4692 6.38892 15.7483 6.38892H18.1165C18.3956 6.38892 18.6219 6.16265 18.6219 5.88355V3.51531C18.6219 3.23621 18.3956 3.00994 18.1165 3.00994C17.8374 3.00994 17.6111 3.23621 17.6111 3.51531V4.77331C16.1143 3.62326 14.2924 3 12.375 3C10.0712 3 7.90526 3.89717 6.27618 5.52618C4.64717 7.15526 3.75 9.32118 3.75 11.625C3.75 13.1384 4.14995 14.6297 4.90663 15.9374C5.00029 16.0993 5.17003 16.1898 5.34451 16.1898C5.43043 16.1898 5.51748 16.1678 5.59716 16.1218C5.83873 15.982 5.92124 15.6728 5.78149 15.4312C5.11373 14.2771 4.76074 12.9609 4.76074 11.625Z" fill="#28C37A"/>
<path d="M19.8431 7.31288C19.7033 7.07128 19.3941 6.9888 19.1526 7.12859C18.911 7.26838 18.8285 7.57753 18.9683 7.81913C19.636 8.97316 19.989 10.2893 19.989 11.6253C19.989 15.8238 16.5733 19.2396 12.3748 19.2396C10.7959 19.2396 9.29027 18.7606 8.0225 17.8721H9.0015C9.2806 17.8721 9.50687 17.6459 9.50687 17.3668C9.50687 17.0877 9.2806 16.8614 9.0015 16.8614H6.6333C6.3542 16.8614 6.12793 17.0877 6.12793 17.3668V19.735C6.12793 20.0141 6.3542 20.2404 6.6333 20.2404C6.9124 20.2404 7.13867 20.0141 7.13867 19.735V18.4758C8.63545 19.6262 10.4571 20.2503 12.3748 20.2503C14.6786 20.2503 16.8445 19.3531 18.4736 17.7241C20.1026 16.0951 20.9998 13.9291 20.9998 11.6253C20.9998 10.1118 20.5998 8.62058 19.8431 7.31288Z" fill="#28C37A"/>
</g>
<path d="M16.4261 11.3704L14.5128 10.2642V8.04627C14.5128 7.99284 14.4844 7.94395 14.4389 7.91781L12.4506 6.76961C12.404 6.74346 12.3471 6.74346 12.3017 6.76961L10.3133 7.91781C10.2667 7.94395 10.2383 7.99284 10.2383 8.04627V10.2642L8.32389 11.3704C8.27842 11.3954 8.25 11.4454 8.25 11.4977V13.7952C8.25 13.8486 8.27842 13.8975 8.32389 13.9237L10.3133 15.0719C10.3361 15.0855 10.3622 15.0901 10.3872 15.0901C10.4134 15.0901 10.4384 15.0855 10.4611 15.0719L12.3756 13.9669L14.29 15.073C14.3138 15.0866 14.3389 15.0912 14.3639 15.0912C14.3889 15.0912 14.415 15.0866 14.4378 15.073L16.4261 13.9248C16.4727 13.8987 16.5 13.8498 16.5 13.7963V11.4977C16.5011 11.4454 16.4727 11.3954 16.4261 11.3704ZM10.3861 14.7729L8.54671 13.7088V11.5841L10.3861 10.5223L12.2266 11.5852V13.71L10.3861 14.7729ZM16.2033 13.7088L14.3639 14.7729L12.5233 13.7088V11.5841L14.3639 10.5223L16.2033 11.5852V13.7088Z" fill="#28C37A"/>
</svg>
