<svg width="64" height="56" viewBox="0 0 64 56" fill="none" xmlns="http://www.w3.org/2000/svg">
<path d="M48.8151 8.40759H50.917C51.4974 8.40759 51.9679 7.93713 51.9679 7.35669C51.9679 6.77625 51.4974 6.30579 50.917 6.30579H48.8151C48.2346 6.30579 47.7642 6.77625 47.7642 7.35669C47.7642 7.93713 48.2347 8.40759 48.8151 8.40759Z" fill="#4164A9"/>
<path d="M42.5092 8.40759H44.6111C45.1915 8.40759 45.662 7.93713 45.662 7.35669C45.662 6.77625 45.1915 6.30579 44.6111 6.30579H42.5092C41.9287 6.30579 41.4583 6.77625 41.4583 7.35669C41.4583 7.93713 41.9288 8.40759 42.5092 8.40759Z" fill="#4164A9"/>
<path d="M16.2358 10.5095C17.977 10.5095 19.3887 9.09788 19.3887 7.35668C19.3887 5.61549 17.977 4.20386 16.2358 4.20386C14.4946 4.20386 13.083 5.61536 13.083 7.35668C13.083 9.098 14.4946 10.5095 16.2358 10.5095ZM16.2358 6.30578C16.8163 6.30578 17.2867 6.77624 17.2867 7.35668C17.2867 7.93712 16.8163 8.40758 16.2358 8.40758C15.6554 8.40758 15.1849 7.93712 15.1849 7.35668C15.1849 6.77624 15.6554 6.30578 16.2358 6.30578Z" fill="#4164A9"/>
<path d="M16.2358 16.8152C14.4946 16.8152 13.083 18.2268 13.083 19.968C13.083 21.7092 14.4945 23.1208 16.2358 23.1208C17.9771 23.1208 19.3887 21.7093 19.3887 19.968C19.3887 18.2267 17.977 16.8152 16.2358 16.8152ZM16.2358 21.0189C15.6554 21.0189 15.1849 20.5485 15.1849 19.968C15.1849 19.3876 15.6554 18.9171 16.2358 18.9171C16.8163 18.9171 17.2867 19.3876 17.2867 19.968C17.2867 20.5485 16.8163 21.0189 16.2358 21.0189Z" fill="#4164A9"/>
<path d="M61.4263 39.9358V28.3754C61.4207 27.0441 60.5796 25.8597 59.3243 25.416V19.4425C59.3208 16.8403 57.8391 14.4662 55.5031 13.3197C56.5943 12.3321 57.2186 10.9303 57.2225 9.4586V5.25475C57.2191 2.35415 54.8685 0.00357156 51.9678 0H12.0321C9.13137 0.00357156 6.78079 2.35415 6.77734 5.25475V9.45848C6.78202 11.1189 7.57405 12.6787 8.91178 13.6622C7.57392 14.6457 6.78202 16.2055 6.77734 17.8659V22.0697C6.78202 23.7301 7.57405 25.2898 8.91178 26.2734C7.57392 27.2569 6.78202 28.8167 6.77734 30.4771V34.6808C6.78079 37.5814 9.13137 39.932 12.0321 39.9356H42.5094C42.5094 42.2572 44.3915 44.1393 46.7132 44.1393H57.2225C59.5442 44.1397 61.4263 42.2576 61.4263 39.9358ZM57.2225 19.4425V25.2226H46.7132V19.4425C46.716 16.8318 48.8317 14.7161 51.4424 14.7132H51.9679C52.0208 14.7105 52.0737 14.7105 52.1267 14.7132C52.1424 14.7132 52.1561 14.7079 52.1708 14.7132H52.4934C55.104 14.7162 57.2197 16.8318 57.2225 19.4425ZM8.87927 9.4586V5.25475C8.87927 3.51355 10.2908 2.10192 12.0321 2.10192H51.9679C53.7091 2.10192 55.1207 3.51343 55.1207 5.25475V9.45848C55.1207 11.1997 53.7092 12.6113 51.9679 12.6113H12.0321C10.2908 12.6114 8.87927 11.1998 8.87927 9.4586ZM42.5093 28.3755V37.834H12.0321C10.2908 37.834 8.87927 36.4225 8.87927 34.6812V30.4775C8.87927 28.7363 10.2908 27.3246 12.0321 27.3246H42.7028C42.5783 27.6611 42.5129 28.0167 42.5093 28.3755ZM12.0321 25.2227C10.2908 25.2227 8.87927 23.8111 8.87927 22.0699V17.8662C8.87927 16.125 10.2908 14.7133 12.0321 14.7133H46.5251C45.2977 15.9817 44.6115 17.6776 44.6114 19.4426V25.2227H12.0321ZM59.3245 29.4264H58.2736C57.6931 29.4264 57.2227 29.8969 57.2227 30.4774C57.2227 31.0578 57.6931 31.5282 58.2736 31.5282H59.3245V33.6302H58.2736C57.6931 33.6302 57.2227 34.1006 57.2227 34.6811C57.2227 35.2615 57.6931 35.732 58.2736 35.732H59.3245V37.8339H58.2736C57.6931 37.8339 57.2227 38.3045 57.2227 38.8848C57.2227 39.4652 57.6931 39.9357 58.2736 39.9357H59.3245C59.3245 41.0966 58.3834 42.0376 57.2225 42.0376H46.7132C45.5523 42.0376 44.6112 41.0966 44.6112 39.9357H45.6621C46.2426 39.9357 46.713 39.4651 46.713 38.8848C46.713 38.3044 46.2426 37.8339 45.6621 37.8339H44.6112V35.7321H45.6621C46.2426 35.7321 46.713 35.2616 46.713 34.6812C46.713 34.1008 46.2426 33.6303 45.6621 33.6303H44.6112V31.5284H45.6621C46.2426 31.5284 46.713 31.0579 46.713 30.4775C46.713 29.897 46.2426 29.4266 45.6621 29.4266H44.6112V28.3757C44.6112 27.7952 45.0817 27.3248 45.6621 27.3248H58.2734C58.8539 27.3248 59.3243 27.7952 59.3243 28.3757V29.4264H59.3245Z" fill="#4164A9"/>
<path d="M16.2358 35.732C17.977 35.732 19.3887 34.3204 19.3887 32.5792C19.3887 30.838 17.977 29.4264 16.2358 29.4264C14.4946 29.4264 13.083 30.838 13.083 32.5792C13.083 34.3204 14.4946 35.732 16.2358 35.732ZM16.2358 31.5283C16.8163 31.5283 17.2867 31.9989 17.2867 32.5792C17.2867 33.1595 16.8163 33.6301 16.2358 33.6301C15.6554 33.6301 15.1849 33.1597 15.1849 32.5792C15.1849 31.9988 15.6554 31.5283 16.2358 31.5283Z" fill="#4164A9"/>
<path d="M55.1206 51.4962H41.4584C41.4584 50.3353 40.5174 49.3943 39.3565 49.3943H35.1528V43.0886C35.1528 42.5082 34.6822 42.0377 34.1019 42.0377H29.8981C29.3177 42.0377 28.8472 42.5082 28.8472 43.0886V49.3943H24.6435C23.4826 49.3943 22.5416 50.3353 22.5416 51.4962H1.52258C0.94214 51.4962 0.47168 51.9666 0.47168 52.5471C0.47168 53.1275 0.94214 53.598 1.52258 53.598H22.5415C22.5415 54.7589 23.4825 55.6999 24.6434 55.6999H39.3566C40.5175 55.6999 41.4585 54.7589 41.4585 53.598H55.1207C55.7012 53.598 56.1716 53.1275 56.1716 52.5471C56.1716 51.9666 55.701 51.4962 55.1206 51.4962ZM30.949 44.1396H33.051V49.3944H30.949V44.1396ZM39.3565 53.5981H24.6434V51.4962H39.3566V53.5981H39.3565Z" fill="#4164A9"/>
<path d="M62.4772 51.4962H59.3243C58.7439 51.4962 58.2734 51.9667 58.2734 52.5471C58.2734 53.1276 58.7439 53.598 59.3243 53.598H62.4772C63.0576 53.598 63.5281 53.1276 63.5281 52.5471C63.5281 51.9667 63.0576 51.4962 62.4772 51.4962Z" fill="#4164A9"/>
<path d="M51.9678 29.4265C50.434 29.4235 49.1218 30.5274 48.8619 32.0389C48.6021 33.5505 49.4702 35.0291 50.9169 35.5388V37.834C50.9169 38.4145 51.3874 38.8849 51.9678 38.8849C52.5483 38.8849 53.0187 38.4145 53.0187 37.834V35.5388C54.4655 35.0293 55.3336 33.5505 55.0737 32.0389C54.8139 30.5274 53.5016 29.4235 51.9678 29.4265ZM51.9678 33.6302C51.3874 33.6302 50.9169 33.1597 50.9169 32.5793C50.9169 31.9988 51.3874 31.5284 51.9678 31.5284C52.5483 31.5284 53.0187 31.999 53.0187 32.5793C53.0187 33.1596 52.5483 33.6302 51.9678 33.6302Z" fill="#4164A9"/>
</svg>
