<svg width="686" height="554" viewBox="0 0 686 554" fill="none" xmlns="http://www.w3.org/2000/svg">
<path d="M474.658 176.202C561.656 247.799 657.597 236.726 586 323.724C514.403 410.722 254.812 436.423 167.814 364.827C80.816 293.23 148.886 176.245 220.482 89.2471C292.079 2.24896 387.66 104.605 474.658 176.202Z" fill="url(#paint0_linear)"/>
<path d="M97.4348 315.674C97.1568 316.371 97.389 317.143 97.9745 317.612L117.732 333.458C118.681 334.219 120.099 333.834 120.605 332.727C127.11 318.498 142.867 306.69 148.617 302.718C149.647 302.006 149.699 300.476 148.703 299.718L127.623 283.693C127.068 283.27 126.31 283.21 125.7 283.549C107.14 293.854 99.2673 311.078 97.4348 315.674Z" fill="url(#paint1_linear)"/>
<rect width="15.223" height="1.79094" rx="0.895471" transform="matrix(-0.772939 -0.63448 -0.63448 0.772939 139.123 305.195)" fill="#9EB0D3"/>
<rect width="7.9945" height="1.79094" rx="0.895471" transform="matrix(-0.772939 -0.63448 -0.63448 0.772939 135.541 307.882)" fill="#9EB0D3"/>
<rect width="11.7596" height="1.79094" rx="0.895471" transform="matrix(-0.772939 -0.63448 -0.63448 0.772939 131.959 310.568)" fill="#9EB0D3"/>
<rect width="19.9931" height="1.79094" rx="0.895471" transform="matrix(-0.772939 -0.63448 -0.63448 0.772939 128.377 313.255)" fill="#9EB0D3"/>
<path d="M684.989 154.17C685.39 155.177 685.055 156.29 684.21 156.968L655.687 179.843C654.316 180.942 652.269 180.386 651.539 178.789C642.148 158.247 619.401 141.2 611.099 135.465C609.612 134.438 609.537 132.229 610.976 131.135L641.407 108C642.21 107.39 643.303 107.304 644.184 107.793C670.978 122.67 682.344 147.535 684.989 154.17Z" fill="url(#paint2_linear)"/>
<rect x="624.806" y="139.042" width="21.9768" height="2.5855" rx="1.29275" transform="rotate(-39.3814 624.806 139.042)" fill="#9EB0D3"/>
<rect x="629.977" y="142.921" width="11.5413" height="2.5855" rx="1.29275" transform="rotate(-39.3814 629.977 142.921)" fill="#9EB0D3"/>
<rect x="635.148" y="146.799" width="16.9768" height="2.5855" rx="1.29275" transform="rotate(-39.3814 635.148 146.799)" fill="#9EB0D3"/>
<rect x="640.319" y="150.677" width="28.8631" height="2.5855" rx="1.29275" transform="rotate(-39.3814 640.319 150.677)" fill="#9EB0D3"/>
<path opacity="0.3" d="M364.799 200.413C367.746 200.413 367.746 195.848 364.799 195.848C361.852 195.848 361.852 200.413 364.799 200.413Z" fill="#A2DBF1"/>
<path opacity="0.3" d="M349.376 198.131C355.262 198.131 355.262 189 349.376 189C343.491 189 343.483 198.131 349.376 198.131Z" fill="#A2DBF1"/>
<path opacity="0.3" d="M632.414 223.363C638.299 223.363 638.299 214.232 632.414 214.232C626.529 214.232 626.529 223.363 632.414 223.363Z" fill="#3A4C6F"/>
<path opacity="0.3" d="M641.545 208.87C649.198 208.87 649.198 197 641.545 197C633.891 197 633.891 208.87 641.545 208.87Z" fill="#3A4C6F"/>
<path opacity="0.3" d="M212.55 266.611C216.966 266.611 216.966 259.763 212.55 259.763C208.134 259.763 208.134 266.611 212.55 266.611Z" fill="#3A4C6F"/>
<path opacity="0.3" d="M480.642 208.407C483.589 208.407 483.589 203.841 480.642 203.841C477.695 203.841 477.704 208.407 480.642 208.407Z" fill="#3A4C6F"/>
<path opacity="0.3" d="M4.41695 286.131C10.3021 286.131 10.3021 277 4.41695 277C-1.46816 277 -1.47646 286.131 4.41695 286.131Z" fill="#3A4C6F"/>
<path opacity="0.3" d="M212.417 361.918C218.302 361.918 218.302 352.787 212.417 352.787C206.532 352.787 206.524 361.918 212.417 361.918Z" fill="#3A4C6F"/>
<path opacity="0.3" d="M263.108 193.682C266.055 193.682 266.055 189.116 263.108 189.116C260.162 189.116 260.162 193.682 263.108 193.682Z" fill="#3A4C6F"/>
<path opacity="0.3" d="M509.752 339.656C512.69 339.656 512.69 335.09 509.752 335.09C506.813 335.09 506.805 339.656 509.752 339.656Z" fill="#3A4C6F"/>
<path opacity="0.3" d="M226.13 367.62C229.068 367.62 229.068 363.055 226.13 363.055C223.191 363.055 223.183 367.62 226.13 367.62Z" fill="#3A4C6F"/>
<path d="M126.08 346.343C126.345 346.34 126.599 346.233 126.787 346.046C126.975 345.858 127.081 345.604 127.085 345.339V343.004C127.085 342.738 126.979 342.482 126.79 342.294C126.602 342.106 126.346 342 126.08 342C125.813 342 125.557 342.106 125.369 342.294C125.181 342.482 125.075 342.738 125.075 343.004V345.339C125.075 345.605 125.181 345.861 125.369 346.049C125.557 346.237 125.813 346.343 126.08 346.343Z" fill="#374C75"/>
<path d="M128.709 348.678H131.046C131.177 348.678 131.308 348.652 131.43 348.602C131.552 348.551 131.663 348.477 131.756 348.384C131.849 348.291 131.923 348.18 131.974 348.058C132.024 347.936 132.05 347.806 132.05 347.674C132.05 347.542 132.024 347.412 131.974 347.29C131.923 347.168 131.849 347.057 131.756 346.964C131.663 346.871 131.552 346.797 131.43 346.746C131.308 346.696 131.177 346.67 131.046 346.67H128.709C128.442 346.67 128.186 346.776 127.998 346.964C127.809 347.152 127.704 347.408 127.704 347.674C127.704 347.94 127.809 348.196 127.998 348.384C128.186 348.572 128.442 348.678 128.709 348.678Z" fill="#374C75"/>
<path d="M126.08 353.5C126.345 353.497 126.599 353.39 126.787 353.202C126.975 353.015 127.081 352.761 127.085 352.496V350.161C127.085 349.895 126.979 349.639 126.79 349.451C126.602 349.263 126.346 349.157 126.08 349.157C125.813 349.157 125.557 349.263 125.369 349.451C125.181 349.639 125.075 349.895 125.075 350.161V352.496C125.075 352.762 125.181 353.017 125.369 353.206C125.557 353.394 125.813 353.5 126.08 353.5Z" fill="#374C75"/>
<path d="M121.113 348.829H123.45C123.59 348.844 123.732 348.83 123.867 348.786C124.001 348.743 124.125 348.672 124.23 348.578C124.335 348.484 124.419 348.369 124.476 348.24C124.533 348.111 124.563 347.972 124.563 347.831C124.563 347.69 124.533 347.55 124.476 347.422C124.419 347.293 124.335 347.178 124.23 347.083C124.125 346.989 124.001 346.918 123.867 346.875C123.732 346.832 123.59 346.817 123.45 346.832H121.113C120.973 346.817 120.831 346.832 120.697 346.875C120.562 346.918 120.439 346.989 120.334 347.083C120.229 347.178 120.145 347.293 120.087 347.422C120.03 347.55 120 347.69 120 347.831C120 347.972 120.03 348.111 120.087 348.24C120.145 348.369 120.229 348.484 120.334 348.578C120.439 348.672 120.562 348.743 120.697 348.786C120.831 348.83 120.973 348.844 121.113 348.829Z" fill="#374C75"/>
<path d="M299 212.173C299 210.493 299.499 208.851 300.433 207.454C301.367 206.058 302.694 204.969 304.247 204.326C305.8 203.683 307.509 203.515 309.158 203.843C310.807 204.171 312.322 204.979 313.51 206.167C314.699 207.355 315.509 208.868 315.837 210.516C316.165 212.163 315.996 213.871 315.353 215.423C314.71 216.974 313.62 218.301 312.222 219.234C310.825 220.167 309.181 220.665 307.5 220.665C305.246 220.665 303.084 219.771 301.49 218.178C299.896 216.585 299 214.425 299 212.173ZM303.221 212.173C303.226 213.017 303.482 213.841 303.956 214.54C304.43 215.239 305.1 215.783 305.883 216.102C306.665 216.421 307.525 216.501 308.353 216.333C309.181 216.165 309.941 215.755 310.536 215.156C311.132 214.557 311.537 213.795 311.699 212.966C311.862 212.138 311.776 211.28 311.451 210.5C311.126 209.72 310.578 209.054 309.874 208.586C309.171 208.117 308.345 207.867 307.5 207.867C306.936 207.867 306.377 207.979 305.855 208.195C305.334 208.412 304.861 208.73 304.463 209.13C304.066 209.53 303.751 210.005 303.538 210.527C303.324 211.049 303.217 211.609 303.221 212.173Z" fill="#3A4C6F"/>
<circle cx="359" cy="214" r="52.4914" stroke="url(#paint3_linear)" stroke-width="1.01727" stroke-linecap="round"/>
<circle cx="72" cy="246" r="25" fill="url(#paint4_linear)"/>
<path d="M82.7167 238.634L82.0547 235.296C82.0151 235.097 81.8216 234.968 81.6224 235.007C81.6223 235.007 81.6223 235.007 81.6222 235.007L63.4018 238.63H62.8387C62.6357 238.63 62.471 238.795 62.471 238.998V240.873C61.6138 241.046 60.9981 241.801 61 242.675V255.179C61.0012 256.194 61.8238 257.016 62.8387 257.017H82.6972C82.9003 257.017 83.0649 256.853 83.0649 256.65V238.998C83.0631 238.803 82.9106 238.644 82.7167 238.634ZM81.4042 235.8L81.9661 238.63H67.1734L81.4042 235.8ZM62.0543 241.895L62.0562 241.896C62.1736 241.78 62.3152 241.691 62.471 241.635V243.711C62.4629 243.708 62.4548 243.707 62.4467 243.704C62.3992 243.685 62.3532 243.663 62.3088 243.637C62.2868 243.625 62.2632 243.615 62.2419 243.6C62.1758 243.559 62.1142 243.51 62.058 243.456C61.627 243.025 61.6253 242.327 62.0543 241.895ZM82.3294 251.869H77.1809V248.927H82.3294V251.869ZM82.3294 248.191H76.8132C76.6101 248.191 76.4454 248.356 76.4454 248.559V252.237C76.4454 252.44 76.6101 252.604 76.8132 252.604H82.3294V256.282H62.8387C62.2294 256.282 61.7355 255.788 61.7355 255.179V244.146C61.7521 244.159 61.7704 244.167 61.7874 244.179C61.8197 244.202 61.8532 244.221 61.8866 244.242C61.9486 244.28 62.0127 244.314 62.0786 244.344C62.1154 244.36 62.1522 244.377 62.1889 244.391C62.2597 244.417 62.332 244.439 62.4055 244.456C62.4397 244.465 62.4728 244.475 62.5074 244.481C62.6166 244.502 62.7275 244.513 62.8387 244.514H82.3294V248.191ZM70.2198 243.778C70.4218 242.371 71.7264 241.394 73.1337 241.596C74.265 241.758 75.1537 242.647 75.3161 243.778H70.2198ZM82.3294 243.778H76.056C75.847 241.962 74.2055 240.66 72.3896 240.869C70.8614 241.045 69.6558 242.25 69.4799 243.778H63.2065V239.365H82.3294V243.778Z" fill="#3B4A6F"/>
<path d="M81.2263 240.101H79.0198V240.836H80.8585V242.675H81.594V240.469C81.594 240.265 81.4294 240.101 81.2263 240.101Z" fill="#3B4A6F"/>
<path d="M64.3098 240.101C64.1067 240.101 63.942 240.265 63.942 240.469V242.675H64.6775V240.836H66.5163V240.101H64.3098Z" fill="#3B4A6F"/>
<path d="M78.6519 250.03H77.9164V250.766H78.6519V250.03Z" fill="#3B4A6F"/>
<path d="M144.943 362C143.174 362 141.445 362.525 139.974 363.508C138.504 364.49 137.357 365.887 136.681 367.522C136.004 369.156 135.827 370.954 136.172 372.689C136.517 374.424 137.369 376.018 138.62 377.268C139.871 378.519 141.464 379.371 143.199 379.716C144.934 380.061 146.732 379.884 148.367 379.207C150.001 378.53 151.398 377.383 152.38 375.913C153.363 374.442 153.888 372.713 153.888 370.944C153.885 368.573 152.942 366.299 151.265 364.622C149.588 362.946 147.315 362.003 144.943 362ZM144.943 377.887C143.57 377.887 142.228 377.48 141.086 376.717C139.944 375.954 139.054 374.869 138.529 373.601C138.003 372.332 137.866 370.936 138.134 369.589C138.402 368.242 139.063 367.005 140.034 366.034C141.005 365.063 142.242 364.401 143.589 364.134C144.936 363.866 146.332 364.003 147.601 364.529C148.87 365.054 149.954 365.944 150.717 367.086C151.48 368.228 151.887 369.571 151.887 370.944C151.885 372.785 151.153 374.55 149.851 375.852C148.549 377.153 146.784 377.886 144.943 377.887Z" fill="url(#paint5_linear)"/>
<path d="M144.943 368.077C145.103 368.077 145.256 368.141 145.368 368.253C145.481 368.366 145.545 368.519 145.545 368.678C145.545 368.944 145.65 369.198 145.838 369.386C146.026 369.573 146.28 369.679 146.545 369.679C146.81 369.679 147.065 369.573 147.252 369.386C147.44 369.198 147.545 368.944 147.545 368.678C147.545 368.165 147.393 367.664 147.108 367.237C146.823 366.81 146.419 366.476 145.945 366.278V365.848C145.945 365.583 145.84 365.328 145.652 365.141C145.465 364.953 145.21 364.848 144.945 364.848C144.68 364.848 144.425 364.953 144.238 365.141C144.05 365.328 143.945 365.583 143.945 365.848V366.278C143.471 366.476 143.067 366.81 142.782 367.237C142.497 367.664 142.345 368.165 142.345 368.678V369.183C142.343 369.589 142.446 369.989 142.643 370.343C142.84 370.698 143.125 370.996 143.471 371.209C145.25 372.379 145.545 372.333 145.545 372.705V373.209C145.545 373.288 145.529 373.366 145.499 373.439C145.469 373.512 145.425 373.578 145.369 373.634C145.313 373.69 145.247 373.734 145.174 373.765C145.101 373.795 145.022 373.81 144.943 373.81C144.864 373.81 144.786 373.795 144.713 373.765C144.64 373.734 144.574 373.69 144.518 373.634C144.462 373.578 144.418 373.512 144.387 373.439C144.357 373.366 144.341 373.288 144.341 373.209C144.341 372.943 144.236 372.689 144.049 372.502C143.861 372.314 143.607 372.209 143.341 372.209C143.076 372.209 142.822 372.314 142.634 372.502C142.447 372.689 142.341 372.943 142.341 373.209C142.342 373.722 142.494 374.224 142.779 374.651C143.063 375.078 143.468 375.411 143.941 375.609V376.039C143.941 376.305 144.047 376.559 144.234 376.746C144.422 376.934 144.676 377.039 144.942 377.039C145.207 377.039 145.461 376.934 145.649 376.746C145.836 376.559 145.942 376.305 145.942 376.039V375.609C146.415 375.411 146.82 375.078 147.104 374.651C147.389 374.224 147.541 373.722 147.542 373.209V372.703C147.543 372.296 147.44 371.897 147.242 371.542C147.044 371.187 146.758 370.889 146.411 370.676L144.523 369.508C144.467 369.474 144.421 369.426 144.389 369.369C144.358 369.312 144.341 369.248 144.341 369.183V368.678C144.342 368.519 144.405 368.366 144.518 368.253C144.631 368.141 144.784 368.077 144.943 368.077Z" fill="url(#paint6_linear)"/>
<path d="M160.414 205.414L162 203.828L163.586 205.414C163.961 205.789 164.47 206 165 206C165.53 206 166.039 205.789 166.414 205.414L168 203.828L169.586 205.414C169.961 205.789 170.47 206 171 206C171.53 206 172.039 205.789 172.414 205.414L174 203.828L175.586 205.414C175.961 205.789 176.47 206 177 206C177.53 206 178.039 205.789 178.414 205.414L180 203.828L181.586 205.414C181.961 205.789 182.47 206 183 206C183.53 206 184.039 205.789 184.414 205.414L186 203.828L187.586 205.414C187.961 205.789 188.47 206 189 206C189.53 206 190.039 205.789 190.414 205.414L192 203.828L193.586 205.414C193.961 205.789 194.47 206 195 206C195.53 206 196.039 205.789 196.414 205.414L197.414 204.414C197.789 204.039 198 203.53 198 203V150.723C198.151 150.639 198.29 150.535 198.414 150.414L200 148.828L201.586 150.414C201.961 150.789 202.47 151 203 151C203.53 151 204.039 150.789 204.414 150.414L206 148.828L207.586 150.414C207.866 150.694 208.222 150.884 208.61 150.961C208.998 151.038 209.4 150.999 209.765 150.847C210.131 150.696 210.443 150.44 210.663 150.111C210.883 149.782 211 149.396 211 149V140.5C210.997 138.246 210.101 136.086 208.507 134.493C206.914 132.899 204.754 132.003 202.5 132H158.5C156.246 132.003 154.086 132.899 152.493 134.493C150.899 136.086 150.003 138.246 150 140.5V162C150 162.53 150.211 163.039 150.586 163.414C150.961 163.789 151.47 164 152 164C152.53 164 153.039 163.789 153.414 163.414C153.789 163.039 154 162.53 154 162V140.5C154 139.307 154.474 138.162 155.318 137.318C156.162 136.474 157.307 136 158.5 136H195.3C194.451 137.347 194 138.907 194 140.5V200.172L193.414 199.586C193.039 199.211 192.53 199 192 199C191.47 199 190.961 199.211 190.586 199.586L189 201.172L187.414 199.586C187.039 199.211 186.53 199 186 199C185.47 199 184.961 199.211 184.586 199.586L183 201.172L181.414 199.586C181.039 199.211 180.53 199 180 199C179.47 199 178.961 199.211 178.586 199.586L177 201.172L175.414 199.586C175.039 199.211 174.53 199 174 199C173.47 199 172.961 199.211 172.586 199.586L171 201.172L169.414 199.586C169.039 199.211 168.53 199 168 199C167.47 199 166.961 199.211 166.586 199.586L165 201.172L163.414 199.586C163.039 199.211 162.53 199 162 199C161.47 199 160.961 199.211 160.586 199.586L159 201.172L157.414 199.586C157.039 199.211 156.53 199 156 199C155.47 199 154.961 199.211 154.586 199.586L154 200.172V196C154 195.47 153.789 194.961 153.414 194.586C153.039 194.211 152.53 194 152 194C151.47 194 150.961 194.211 150.586 194.586C150.211 194.961 150 195.47 150 196V203C150 203.53 150.211 204.039 150.586 204.414L151.586 205.414C151.961 205.789 152.47 206 153 206C153.53 206 154.039 205.789 154.414 205.414L156 203.828L157.586 205.414C157.961 205.789 158.47 206 159 206C159.53 206 160.039 205.789 160.414 205.414ZM207 140.5V144.268C206.619 144.048 206.175 143.96 205.739 144.017C205.303 144.075 204.897 144.275 204.586 144.586L203 146.172L201.414 144.586C201.039 144.211 200.53 144 200 144C199.47 144 198.961 144.211 198.586 144.586L198 145.172V140.5C198 139.307 198.474 138.162 199.318 137.318C200.162 136.474 201.307 136 202.5 136C203.693 136 204.838 136.474 205.682 137.318C206.526 138.162 207 139.307 207 140.5Z" fill="url(#paint7_linear)"/>
<path d="M160 154C161.105 154 162 153.105 162 152C162 150.895 161.105 150 160 150C158.895 150 158 150.895 158 152C158 153.105 158.895 154 160 154Z" fill="url(#paint8_linear)"/>
<path d="M166 154C167.105 154 168 153.105 168 152C168 150.895 167.105 150 166 150C164.895 150 164 150.895 164 152C164 153.105 164.895 154 166 154Z" fill="url(#paint9_linear)"/>
<path d="M172 154C173.105 154 174 153.105 174 152C174 150.895 173.105 150 172 150C170.895 150 170 150.895 170 152C170 153.105 170.895 154 172 154Z" fill="url(#paint10_linear)"/>
<path d="M160 162H188C188.53 162 189.039 161.789 189.414 161.414C189.789 161.039 190 160.53 190 160C190 159.47 189.789 158.961 189.414 158.586C189.039 158.211 188.53 158 188 158H160C159.47 158 158.961 158.211 158.586 158.586C158.211 158.961 158 159.47 158 160C158 160.53 158.211 161.039 158.586 161.414C158.961 161.789 159.47 162 160 162Z" fill="url(#paint11_linear)"/>
<path d="M167 170H188C188.53 170 189.039 169.789 189.414 169.414C189.789 169.039 190 168.53 190 168C190 167.47 189.789 166.961 189.414 166.586C189.039 166.211 188.53 166 188 166H167C166.47 166 165.961 166.211 165.586 166.586C165.211 166.961 165 167.47 165 168C165 168.53 165.211 169.039 165.586 169.414C165.961 169.789 166.47 170 167 170Z" fill="url(#paint12_linear)"/>
<path d="M188 174H170C169.47 174 168.961 174.211 168.586 174.586C168.211 174.961 168 175.47 168 176C168 176.53 168.211 177.039 168.586 177.414C168.961 177.789 169.47 178 170 178H188C188.53 178 189.039 177.789 189.414 177.414C189.789 177.039 190 176.53 190 176C190 175.47 189.789 174.961 189.414 174.586C189.039 174.211 188.53 174 188 174Z" fill="url(#paint13_linear)"/>
<path d="M188 182H170C169.47 182 168.961 182.211 168.586 182.586C168.211 182.961 168 183.47 168 184C168 184.53 168.211 185.039 168.586 185.414C168.961 185.789 169.47 186 170 186H188C188.53 186 189.039 185.789 189.414 185.414C189.789 185.039 190 184.53 190 184C190 183.47 189.789 182.961 189.414 182.586C189.039 182.211 188.53 182 188 182Z" fill="url(#paint14_linear)"/>
<path d="M152 192C154.571 192 157.085 191.238 159.222 189.809C161.36 188.381 163.026 186.35 164.01 183.975C164.994 181.599 165.252 178.986 164.75 176.464C164.249 173.942 163.01 171.626 161.192 169.808C159.374 167.99 157.058 166.751 154.536 166.25C152.014 165.748 149.401 166.006 147.025 166.99C144.65 167.974 142.619 169.64 141.191 171.778C139.762 173.915 139 176.429 139 179C139.004 182.447 140.375 185.751 142.812 188.188C145.249 190.625 148.553 191.996 152 192ZM152 170C153.78 170 155.52 170.528 157 171.517C158.48 172.506 159.634 173.911 160.315 175.556C160.996 177.2 161.174 179.01 160.827 180.756C160.48 182.502 159.623 184.105 158.364 185.364C157.105 186.623 155.502 187.48 153.756 187.827C152.01 188.174 150.2 187.996 148.556 187.315C146.911 186.634 145.506 185.48 144.517 184C143.528 182.52 143 180.78 143 179C143.003 176.614 143.952 174.326 145.639 172.639C147.326 170.952 149.614 170.003 152 170Z" fill="url(#paint15_linear)"/>
<path d="M156.581 175.064L156.281 175.364L156.581 175.064C156.214 174.697 155.619 174.697 155.252 175.064L150.25 180.066L148.081 177.897C147.714 177.53 147.119 177.53 146.752 177.897L146.064 178.585C145.697 178.952 145.697 179.548 146.064 179.915L149.585 183.436C149.952 183.803 150.548 183.803 150.915 183.436L157.27 177.081C157.637 176.714 157.637 176.119 157.27 175.752L156.581 175.064Z" fill="#2C3A5B" stroke="#2C3A5B" stroke-width="0.85"/>
<path d="M492.489 200.312C492.336 197.871 490.391 195.927 487.95 195.774C487.852 195.753 487.751 195.744 487.647 195.744H486.496V193.871C486.496 193.767 486.485 193.666 486.466 193.568C486.313 191.128 484.368 189.183 481.927 189.031C481.829 189.01 481.728 189 481.624 189H451.872C451.768 189 451.667 189.011 451.568 189.031C449.129 189.183 447.185 191.127 447.031 193.566C447.01 193.666 447 193.767 447 193.872V222.624C447 222.728 447.011 222.829 447.03 222.927C447.184 225.368 449.128 227.313 451.569 227.466C451.667 227.486 451.768 227.496 451.872 227.496H487.647C487.751 227.496 487.852 227.485 487.95 227.466C490.391 227.313 492.336 225.368 492.489 222.927C492.509 222.829 492.519 222.728 492.519 222.624V200.615C492.52 200.512 492.509 200.41 492.489 200.312ZM450.001 193.872C450.001 192.84 450.84 192 451.872 192H481.624C482.656 192 483.496 192.84 483.496 193.871V195.744H451.872C450.841 195.744 450.001 194.905 450 193.875C450 193.873 450.001 193.873 450.001 193.872ZM489.52 205.528H479.616C478.788 205.528 478.116 206.199 478.116 207.028V216.572C478.116 217.4 478.788 218.072 479.616 218.072H489.52V222.624C489.52 223.656 488.68 224.496 487.648 224.496H451.872C450.84 224.496 450 223.656 450 222.624V198.367C450.487 198.57 451.019 198.678 451.569 198.713C451.667 198.733 451.768 198.744 451.872 198.744H487.647C488.679 198.744 489.519 199.583 489.519 200.615V205.528H489.52ZM489.519 208.528V215.072H481.116V208.528H489.519ZM485 213.553C485.46 213.553 485.91 213.364 486.23 213.033C486.559 212.713 486.75 212.263 486.75 211.803C486.75 211.344 486.56 210.883 486.23 210.563C485.589 209.914 484.41 209.914 483.759 210.563C483.429 210.883 483.249 211.334 483.249 211.803C483.249 212.264 483.429 212.713 483.759 213.043C484.09 213.363 484.54 213.553 485 213.553Z" fill="url(#paint16_linear)"/>
<circle cx="649.32" cy="308.22" r="20.21" stroke="#3E5281" stroke-width="0.94" stroke-dasharray="2.26 2.26"/>
<circle cx="626.07" cy="289.07" r="38.07" fill="url(#paint17_linear)"/>
<path d="M591 402C566.147 402 546 381.853 546 357" stroke="url(#paint18_linear)" stroke-width="3.11239" stroke-linecap="round"/>
<path d="M568.414 217.414C568.414 190.676 546.738 169 520 169" stroke="url(#paint19_linear)" stroke-width="5.09619" stroke-linecap="round"/>
<path d="M386.999 101C383.835 101 380.741 101.939 378.11 103.697C375.479 105.455 373.428 107.954 372.218 110.878C371.007 113.801 370.69 117.018 371.308 120.122C371.925 123.226 373.449 126.077 375.687 128.314C377.924 130.552 380.775 132.075 383.879 132.693C386.983 133.31 390.2 132.993 393.123 131.782C396.047 130.571 398.546 128.52 400.304 125.889C402.062 123.258 403 120.164 403 117C402.995 112.758 401.308 108.691 398.308 105.691C395.308 102.692 391.241 101.005 386.999 101ZM386.999 129.422C384.542 129.422 382.141 128.693 380.098 127.328C378.056 125.963 376.464 124.023 375.524 121.753C374.584 119.483 374.338 116.986 374.817 114.576C375.296 112.166 376.48 109.953 378.217 108.216C379.954 106.479 382.167 105.296 384.577 104.817C386.987 104.338 389.484 104.584 391.754 105.524C394.024 106.464 395.963 108.056 397.328 110.099C398.693 112.142 399.422 114.543 399.422 117C399.418 120.294 398.108 123.451 395.779 125.78C393.45 128.109 390.293 129.418 386.999 129.422Z" fill="url(#paint20_linear)"/>
<path d="M386.999 111.872C387.284 111.872 387.558 111.985 387.76 112.187C387.961 112.389 388.075 112.662 388.076 112.947C388.076 113.422 388.264 113.877 388.6 114.213C388.935 114.548 389.39 114.737 389.865 114.737C390.339 114.737 390.794 114.548 391.13 114.213C391.465 113.877 391.654 113.422 391.654 112.947C391.653 112.029 391.381 111.132 390.871 110.368C390.362 109.604 389.638 109.007 388.791 108.653V107.884C388.791 107.409 388.603 106.954 388.267 106.619C387.932 106.283 387.477 106.094 387.002 106.094C386.528 106.094 386.072 106.283 385.737 106.619C385.401 106.954 385.213 107.409 385.213 107.884V108.653C384.366 109.007 383.642 109.604 383.133 110.368C382.623 111.132 382.351 112.029 382.35 112.947V113.85C382.347 114.576 382.531 115.291 382.884 115.926C383.236 116.561 383.747 117.094 384.365 117.474C387.547 119.567 388.076 119.485 388.076 120.15V121.052C388.076 121.193 388.048 121.333 387.994 121.464C387.939 121.594 387.86 121.713 387.76 121.813C387.66 121.913 387.542 121.992 387.411 122.046C387.28 122.1 387.14 122.128 386.999 122.128C386.858 122.128 386.718 122.1 386.587 122.046C386.456 121.992 386.338 121.913 386.238 121.813C386.138 121.713 386.058 121.594 386.004 121.464C385.95 121.333 385.922 121.193 385.922 121.052C385.922 120.577 385.734 120.122 385.398 119.787C385.063 119.451 384.608 119.263 384.133 119.263C383.659 119.263 383.204 119.451 382.868 119.787C382.533 120.122 382.344 120.577 382.344 121.052C382.345 121.97 382.617 122.867 383.127 123.631C383.636 124.395 384.36 124.992 385.207 125.346V126.115C385.207 126.59 385.395 127.045 385.731 127.381C386.066 127.716 386.521 127.905 386.996 127.905C387.47 127.905 387.925 127.716 388.261 127.381C388.597 127.045 388.785 126.59 388.785 126.115V125.346C389.632 124.992 390.356 124.395 390.865 123.631C391.375 122.867 391.647 121.97 391.648 121.052V120.147C391.65 119.42 391.466 118.704 391.112 118.069C390.757 117.434 390.245 116.901 389.625 116.522L386.247 114.431C386.147 114.37 386.065 114.285 386.008 114.183C385.952 114.081 385.922 113.967 385.922 113.85V112.947C385.923 112.662 386.037 112.389 386.238 112.187C386.44 111.985 386.714 111.872 386.999 111.872Z" fill="url(#paint21_linear)"/>
<defs>
<linearGradient id="paint0_linear" x1="426.498" y1="62.4917" x2="239.211" y2="477.199" gradientUnits="userSpaceOnUse">
<stop stop-color="#151F36"/>
<stop offset="1" stop-color="#1B2743"/>
</linearGradient>
<linearGradient id="paint1_linear" x1="123.882" y1="283" x2="123.882" y2="335" gradientUnits="userSpaceOnUse">
<stop stop-color="#394A70"/>
<stop offset="1" stop-color="#151F36"/>
</linearGradient>
<linearGradient id="paint2_linear" x1="646.808" y1="107" x2="646.808" y2="182.07" gradientUnits="userSpaceOnUse">
<stop stop-color="#394A70"/>
<stop offset="1" stop-color="#151F36"/>
</linearGradient>
<linearGradient id="paint3_linear" x1="467.827" y1="193.507" x2="274.907" y2="214" gradientUnits="userSpaceOnUse">
<stop stop-color="#151F36"/>
<stop offset="1" stop-color="#29385A"/>
</linearGradient>
<linearGradient id="paint4_linear" x1="72" y1="221" x2="72" y2="271" gradientUnits="userSpaceOnUse">
<stop stop-color="#151F36"/>
<stop offset="1" stop-color="#1F2C49"/>
</linearGradient>
<linearGradient id="paint5_linear" x1="144.944" y1="362" x2="144.944" y2="379.888" gradientUnits="userSpaceOnUse">
<stop stop-color="#1E2A46"/>
<stop offset="1" stop-color="#2E3D5F"/>
</linearGradient>
<linearGradient id="paint6_linear" x1="144.943" y1="364.848" x2="144.943" y2="377.039" gradientUnits="userSpaceOnUse">
<stop stop-color="#1E2A46"/>
<stop offset="1" stop-color="#2E3D5F"/>
</linearGradient>
<linearGradient id="paint7_linear" x1="180.5" y1="132" x2="180.5" y2="206" gradientUnits="userSpaceOnUse">
<stop stop-color="#1E2A46"/>
<stop offset="1" stop-color="#2E3D5F"/>
</linearGradient>
<linearGradient id="paint8_linear" x1="160" y1="150" x2="160" y2="154" gradientUnits="userSpaceOnUse">
<stop stop-color="#1E2A46"/>
<stop offset="1" stop-color="#2E3D5F"/>
</linearGradient>
<linearGradient id="paint9_linear" x1="166" y1="150" x2="166" y2="154" gradientUnits="userSpaceOnUse">
<stop stop-color="#1E2A46"/>
<stop offset="1" stop-color="#2E3D5F"/>
</linearGradient>
<linearGradient id="paint10_linear" x1="172" y1="150" x2="172" y2="154" gradientUnits="userSpaceOnUse">
<stop stop-color="#1E2A46"/>
<stop offset="1" stop-color="#2E3D5F"/>
</linearGradient>
<linearGradient id="paint11_linear" x1="174" y1="158" x2="174" y2="162" gradientUnits="userSpaceOnUse">
<stop stop-color="#1E2A46"/>
<stop offset="1" stop-color="#2E3D5F"/>
</linearGradient>
<linearGradient id="paint12_linear" x1="177.5" y1="166" x2="177.5" y2="170" gradientUnits="userSpaceOnUse">
<stop stop-color="#1E2A46"/>
<stop offset="1" stop-color="#2E3D5F"/>
</linearGradient>
<linearGradient id="paint13_linear" x1="179" y1="174" x2="179" y2="178" gradientUnits="userSpaceOnUse">
<stop stop-color="#1E2A46"/>
<stop offset="1" stop-color="#2E3D5F"/>
</linearGradient>
<linearGradient id="paint14_linear" x1="179" y1="182" x2="179" y2="186" gradientUnits="userSpaceOnUse">
<stop stop-color="#1E2A46"/>
<stop offset="1" stop-color="#2E3D5F"/>
</linearGradient>
<linearGradient id="paint15_linear" x1="152" y1="166" x2="152" y2="192" gradientUnits="userSpaceOnUse">
<stop stop-color="#1E2A46"/>
<stop offset="1" stop-color="#2E3D5F"/>
</linearGradient>
<linearGradient id="paint16_linear" x1="469.76" y1="189" x2="469.76" y2="227.496" gradientUnits="userSpaceOnUse">
<stop stop-color="#1E2A46"/>
<stop offset="1" stop-color="#2E3D5F"/>
</linearGradient>
<linearGradient id="paint17_linear" x1="626.07" y1="251" x2="626.07" y2="327.14" gradientUnits="userSpaceOnUse">
<stop stop-color="#151F36"/>
<stop offset="1" stop-color="#212E4D"/>
</linearGradient>
<linearGradient id="paint18_linear" x1="568.5" y1="357" x2="568.5" y2="402" gradientUnits="userSpaceOnUse">
<stop stop-color="#151F36"/>
<stop offset="1" stop-color="#29385A"/>
</linearGradient>
<linearGradient id="paint19_linear" x1="544.207" y1="169" x2="544.207" y2="217.414" gradientUnits="userSpaceOnUse">
<stop stop-color="#151F36"/>
<stop offset="1" stop-color="#29385A"/>
</linearGradient>
<linearGradient id="paint20_linear" x1="387" y1="101" x2="387" y2="133" gradientUnits="userSpaceOnUse">
<stop stop-color="#3D4F77"/>
<stop offset="1" stop-color="#2E3D5F"/>
</linearGradient>
<linearGradient id="paint21_linear" x1="386.999" y1="106.094" x2="386.999" y2="127.905" gradientUnits="userSpaceOnUse">
<stop stop-color="#3D4F77"/>
<stop offset="1" stop-color="#2E3D5F"/>
</linearGradient>
</defs>
</svg>
