<svg width="60" height="60" viewBox="0 0 60 60" fill="none" xmlns="http://www.w3.org/2000/svg">
<rect width="60" height="60" rx="18" fill="#EFF4FD"/>
<path d="M40.0012 25.9553V27.0923C39.404 27.3035 39.0039 27.867 39.0012 28.5004V32.5005C39.0012 33.3292 39.6728 34.0006 40.5012 34.0006C41.3296 34.0006 42.0013 33.3292 42.0013 32.5005V28.5004C41.9986 27.867 41.5985 27.3035 41.0013 27.0923V25.9553C42.5392 25.6953 43.6212 24.3005 43.4909 22.7462C43.3605 21.1922 42.0609 19.9971 40.5012 19.9971C38.9416 19.9971 37.642 21.1922 37.5116 22.7462C37.3812 24.3005 38.4633 25.6953 40.0012 25.9553ZM41.0013 32.5005C41.0013 32.7767 40.7774 33.0006 40.5012 33.0006C40.2251 33.0006 40.0012 32.7767 40.0012 32.5005V28.5004C40.0012 28.2242 40.2251 28.0003 40.5012 28.0003C40.7774 28.0003 41.0013 28.2242 41.0013 28.5004V32.5005ZM40.5012 21C41.6058 21 42.5013 21.8956 42.5013 23.0001C42.5013 24.1049 41.6058 25.0002 40.5012 25.0002C39.3967 25.0002 38.5012 24.1049 38.5012 23.0001C38.5012 21.8956 39.3967 21 40.5012 21Z" fill="#4164A9"/>
<path d="M17 21H18V22H17V21Z" fill="#4164A9"/>
<path d="M19 21H22.0001V22H19V21Z" fill="#4164A9"/>
<path d="M17 24H22.0002V25H17V24Z" fill="#4164A9"/>
<path d="M17 27H22.0002V28H17V27Z" fill="#4164A9"/>
<path d="M17 30.001H18V31.001H17V30.001Z" fill="#4164A9"/>
<path d="M19 30.001H22.0001V31.001H19V30.001Z" fill="#4164A9"/>
<path d="M42.5 18H35.4685C34.2781 16.1313 32.2158 15 30 15C27.7844 15 25.7222 16.1313 24.5315 18H17.5C16.1201 18.0017 15.0017 19.1201 15 20.5V36.5C15.0017 37.8801 16.1201 38.9985 17.5 39H27.3601L26.594 42.063C25.873 42.2642 25.4116 42.9673 25.5139 43.709C25.6165 44.4504 26.2515 45.0022 27 45H33C33.7485 45.0022 34.3835 44.4504 34.4861 43.709C34.5886 42.9673 34.1272 42.2642 33.406 42.063L32.6401 39H42.5C43.8801 38.9985 44.9983 37.8801 45 36.5V20.5C44.9983 19.1201 43.8801 18.0017 42.5 18ZM35.4746 21H32.4915C32.4722 20.1941 32.3936 19.3906 32.2561 18.5962C32.8599 18.3726 33.4268 18.0598 33.9375 17.668C34.8176 18.5691 35.3603 19.7458 35.4746 21ZM27.5085 22C27.5278 22.8062 27.6067 23.6096 27.7441 24.4041C27.1401 24.6274 26.5735 24.9404 26.0625 25.332C25.1824 24.4312 24.6396 23.2544 24.5256 22H27.5085ZM30 16C30.2944 16 30.75 16.6536 31.0815 17.8906C30.7256 17.9626 30.3633 17.9993 30 18C29.6367 17.9993 29.2747 17.9626 28.9185 17.8906C29.25 16.6536 29.7056 16 30 16ZM27.9636 17.6077C27.5679 17.4504 27.1921 17.2473 26.844 17.0027C27.3423 16.6516 27.8958 16.3865 28.4814 16.218C28.2598 16.6614 28.0862 17.1272 27.9636 17.6077ZM31.5186 16.218C32.1042 16.3865 32.6577 16.6516 33.156 17.0027C32.8079 17.2473 32.4321 17.4504 32.0366 17.6077C31.9138 17.1272 31.7402 16.6614 31.5186 16.218ZM30 19C30.4338 18.9988 30.8665 18.9541 31.2915 18.8672C31.4082 19.5725 31.4748 20.2852 31.4915 21H28.5085C28.5251 20.2852 28.592 19.5725 28.7085 18.8672C29.1335 18.9541 29.5662 18.9988 30 19ZM31.4915 22C31.4748 22.7148 31.4082 23.4277 31.2915 24.1331C30.4397 23.9558 29.5603 23.9558 28.7085 24.1331C28.592 23.4277 28.5251 22.7148 28.5085 22H31.4915ZM27.9636 25.3926C28.0862 25.8728 28.2598 26.3386 28.4814 26.782C27.896 26.6145 27.3425 26.3501 26.844 26C27.1921 25.7544 27.5679 25.5505 27.9636 25.3926ZM28.9185 25.1096C29.6321 24.9636 30.3679 24.9636 31.0815 25.1096C30.75 26.3467 30.2944 27 30 27C29.7056 27 29.25 26.3467 28.9185 25.1096ZM32.0366 25.3926C32.4321 25.5505 32.8079 25.7544 33.156 26C32.6577 26.3511 32.1042 26.6162 31.5186 26.7847C31.7405 26.3403 31.9141 25.8738 32.0366 25.3926ZM33.9365 25.332C33.4255 24.9404 32.8589 24.6274 32.2551 24.4041C32.3928 23.6096 32.4719 22.8062 32.4915 22H35.4746C35.3603 23.2544 34.8176 24.4312 33.9375 25.332H33.9365ZM26.0625 17.668C26.5735 18.0598 27.1401 18.3726 27.7441 18.5962C27.6067 19.3906 27.5278 20.1941 27.5085 21H24.5256C24.6396 19.7458 25.1824 18.5691 26.0625 17.668ZM17.5 19H24C22.8672 21.7187 23.7041 24.8594 26.0395 26.6541C28.375 28.4487 31.6252 28.4487 33.9607 26.6541C36.2959 24.8594 37.1328 21.7187 36 19H42.5C43.3284 19 44 19.6716 44 20.5V35H16V20.5C16 19.6716 16.6716 19 17.5 19ZM33 44H27C26.7239 44 26.5 43.7761 26.5 43.5C26.5 43.2239 26.7239 43 27 43H33C33.2761 43 33.5 43.2239 33.5 43.5C33.5 43.7761 33.2761 44 33 44ZM32.3596 42H27.6406L28.3906 39H31.6096L32.3596 42ZM42.5 38H17.5C16.6716 38 16 37.3286 16 36.5V36H44V36.5C44 37.3286 43.3284 38 42.5 38Z" fill="#4164A9"/>
<path d="M29.001 36.501H31.0011V37.501H29.001V36.501Z" fill="#4164A9"/>
</svg>
