<svg width="29" height="24" viewBox="0 0 29 24" fill="none" xmlns="http://www.w3.org/2000/svg">
<path d="M20.5813 0.467773V5.14524H8.41992V0.467773H11.2264V2.33876H13.0974V0.467773H15.9039V2.33876H17.7749V0.467773H20.5813Z" fill="#D2E1FF"/>
<path d="M16.3709 22.9194H12.6289V17.3064C13.1472 16.854 13.8119 16.6047 14.4999 16.6047C15.1879 16.6047 15.8526 16.854 16.3709 17.3064V22.9194Z" fill="#D2E1FF"/>
<path d="M13.5653 10.2905H11.2266V7.484C11.5504 7.20108 11.9659 7.04517 12.3959 7.04517C12.826 7.04517 13.2414 7.20108 13.5653 7.484V10.2905Z" fill="#D2E1FF"/>
<path d="M17.7753 10.2905H15.4365V7.484C15.7604 7.20108 16.1758 7.04517 16.6059 7.04517C17.0359 7.04517 17.4514 7.20108 17.7753 7.484V10.2905Z" fill="#D2E1FF"/>
<path d="M13.5653 14.9677H11.2266V12.1612C11.5504 11.8783 11.9659 11.7224 12.3959 11.7224C12.826 11.7224 13.2414 11.8783 13.5653 12.1612V14.9677Z" fill="#D2E1FF"/>
<path d="M17.7753 14.9677H15.4365V12.1612C15.7604 11.8783 16.1758 11.7224 16.6059 11.7224C17.0359 11.7224 17.4514 11.8783 17.7753 12.1612V14.9677Z" fill="#D2E1FF"/>
<path d="M7.79198 17.1247C7.96499 16.738 8.00027 16.3038 7.89191 15.8943C7.78356 15.4848 7.53813 15.1248 7.19654 14.8743C7.35553 14.6664 7.45321 14.4182 7.47854 14.1577C7.50388 13.8973 7.45587 13.6349 7.33992 13.4002C7.22398 13.1656 7.04473 12.9681 6.82242 12.83C6.60012 12.6918 6.34362 12.6187 6.0819 12.6187C5.82018 12.6187 5.56368 12.6918 5.34137 12.83C5.11907 12.9681 4.93981 13.1656 4.82387 13.4002C4.70793 13.6349 4.65991 13.8973 4.68525 14.1577C4.71059 14.4182 4.80827 14.6664 4.96726 14.8743C4.62609 15.1247 4.38094 15.4844 4.27261 15.8934C4.16428 16.3025 4.19929 16.7364 4.37182 17.1228C4.06099 17.456 3.85425 17.8727 3.77701 18.3217C3.69977 18.7708 3.75539 19.2326 3.93703 19.6505C4.11868 20.0684 4.41843 20.4241 4.79948 20.674C5.18052 20.9238 5.62625 21.0569 6.0819 21.0569C6.53755 21.0569 6.98328 20.9238 7.36432 20.674C7.74536 20.4241 8.04512 20.0684 8.22676 19.6505C8.4084 19.2326 8.46402 18.7708 8.38678 18.3217C8.30954 17.8727 8.10281 17.456 7.79198 17.1228V17.1247Z" fill="#D2E1FF"/>
<path d="M21.6775 15.7216C21.5045 15.3349 21.4692 14.9007 21.5775 14.4912C21.6859 14.0817 21.9313 13.7217 22.2729 13.4713C22.1139 13.2634 22.0163 13.0152 21.9909 12.7547C21.9656 12.4942 22.0136 12.2318 22.1295 11.9972C22.2455 11.7625 22.4247 11.565 22.647 11.4269C22.8693 11.2888 23.1258 11.2156 23.3876 11.2156C23.6493 11.2156 23.9058 11.2888 24.1281 11.4269C24.3504 11.565 24.5296 11.7625 24.6456 11.9972C24.7615 12.2318 24.8096 12.4942 24.7842 12.7547C24.7589 13.0152 24.6612 13.2634 24.5022 13.4713C24.8434 13.7216 25.0885 14.0813 25.1969 14.4904C25.3052 14.8995 25.2702 15.3333 25.0976 15.7197C25.4085 16.0529 25.6152 16.4696 25.6925 16.9187C25.7697 17.3677 25.7141 17.8296 25.5324 18.2474C25.3508 18.6653 25.051 19.021 24.67 19.2709C24.2889 19.5207 23.8432 19.6538 23.3876 19.6538C22.9319 19.6538 22.4862 19.5207 22.1051 19.2709C21.7241 19.021 21.4243 18.6653 21.2427 18.2474C21.0611 17.8296 21.0054 17.3677 21.0827 16.9187C21.1599 16.4696 21.3667 16.0529 21.6775 15.7197V15.7216Z" fill="#D2E1FF"/>
<path d="M26.6615 22.4518H23.8551V20.071C24.3298 19.9926 24.7763 19.7929 25.1513 19.4913C25.5263 19.1898 25.817 18.7965 25.9955 18.3496C26.1739 17.9027 26.2339 17.4173 26.1698 16.9404C26.1056 16.4635 25.9194 16.0113 25.6292 15.6274C25.7454 15.2387 25.7575 14.8263 25.6642 14.4315C25.571 14.0366 25.3757 13.6732 25.0979 13.3775C25.2036 13.1422 25.2582 12.8871 25.2583 12.6292C25.2583 12.1329 25.0612 11.657 24.7103 11.3062C24.3594 10.9553 23.8835 10.7582 23.3873 10.7582C22.8911 10.7582 22.4152 10.9553 22.0643 11.3062C21.7135 11.657 21.5163 12.1329 21.5163 12.6292C21.5164 12.8871 21.5711 13.1422 21.6768 13.3775C21.3991 13.6732 21.2039 14.0366 21.1107 14.4313C21.0174 14.826 21.0294 15.2383 21.1454 15.6269C20.855 16.0108 20.6686 16.4631 20.6043 16.9401C20.54 17.4171 20.6 17.9026 20.7784 18.3496C20.9569 18.7966 21.2478 19.19 21.6229 19.4916C21.998 19.7931 22.4447 19.9927 22.9196 20.071V20.6426L22.2437 20.1917C22.1405 20.1228 22.0141 20.0978 21.8925 20.1221C21.7708 20.1464 21.6638 20.218 21.5949 20.3212C21.5261 20.4245 21.501 20.5508 21.5253 20.6725C21.5496 20.7941 21.6213 20.9012 21.7245 20.97L22.9196 21.7666V22.4518H19.6454V5.61296H20.5808C20.7049 5.61296 20.8239 5.56368 20.9116 5.47596C20.9993 5.38824 21.0486 5.26926 21.0486 5.14521V0.467746C21.0486 0.343692 20.9993 0.224719 20.9116 0.137C20.8239 0.0492804 20.7049 0 20.5808 0H17.7744C17.6503 0 17.5313 0.0492804 17.4436 0.137C17.3559 0.224719 17.3066 0.343692 17.3066 0.467746V1.87099H16.3711V0.467746C16.3711 0.343692 16.3218 0.224719 16.2341 0.137C16.1464 0.0492804 16.0274 0 15.9034 0H13.0969C12.9728 0 12.8539 0.0492804 12.7662 0.137C12.6784 0.224719 12.6292 0.343692 12.6292 0.467746V1.87099H11.6937V0.467746C11.6937 0.343692 11.6444 0.224719 11.5567 0.137C11.4689 0.0492804 11.35 0 11.2259 0H8.41944C8.29538 0 8.17641 0.0492804 8.08869 0.137C8.00097 0.224719 7.95169 0.343692 7.95169 0.467746V5.14521C7.95169 5.26926 8.00097 5.38824 8.08869 5.47596C8.17641 5.56368 8.29538 5.61296 8.41944 5.61296H9.35493V22.4518H6.54845V21.4742C7.02321 21.3958 7.46969 21.1961 7.84467 20.8946C8.21964 20.593 8.51042 20.1997 8.68885 19.7528C8.86727 19.306 8.92731 18.8206 8.86315 18.3437C8.79899 17.8668 8.61281 17.4145 8.32261 17.0306C8.43879 16.6419 8.45086 16.2295 8.35761 15.8347C8.26436 15.4399 8.06906 15.0764 7.79125 14.7808C7.89693 14.5454 7.95161 14.2904 7.95169 14.0324C7.95169 13.5362 7.75457 13.0603 7.40369 12.7094C7.05281 12.3585 6.57692 12.1614 6.0807 12.1614C5.58449 12.1614 5.10859 12.3585 4.75772 12.7094C4.40684 13.0603 4.20972 13.5362 4.20972 14.0324C4.2098 14.2904 4.26448 14.5454 4.37015 14.7808C4.09251 15.0764 3.89731 15.4396 3.80406 15.8343C3.71082 16.2289 3.72279 16.6411 3.83879 17.0297C3.54837 17.4136 3.36199 17.8659 3.29771 18.3429C3.23342 18.82 3.29341 19.3055 3.47186 19.7526C3.65031 20.1996 3.94117 20.593 4.31628 20.8946C4.69139 21.1962 5.13804 21.3959 5.61296 21.4742V22.4518H0.467746C0.343692 22.4518 0.224719 22.5011 0.137 22.5888C0.0492803 22.6765 0 22.7955 0 22.9196C0 23.0436 0.0492803 23.1626 0.137 23.2503C0.224719 23.338 0.343692 23.3873 0.467746 23.3873H26.6615C26.7856 23.3873 26.9046 23.338 26.9923 23.2503C27.08 23.1626 27.1293 23.0436 27.1293 22.9196C27.1293 22.7955 27.08 22.6765 26.9923 22.5888C26.9046 22.5011 26.7856 22.4518 26.6615 22.4518ZM21.5163 17.3066C21.5179 16.8357 21.6979 16.3829 22.0201 16.0395C22.0822 15.9725 22.1233 15.8888 22.1383 15.7986C22.1534 15.7085 22.1417 15.616 22.1048 15.5325C21.9755 15.2429 21.9494 14.9178 22.0309 14.6114C22.1123 14.3049 22.2964 14.0357 22.5524 13.8486C22.6516 13.7741 22.7172 13.6633 22.7348 13.5405C22.7523 13.4177 22.7204 13.293 22.6459 13.1937C22.5205 13.0322 22.4523 12.8336 22.4518 12.6292C22.4518 12.381 22.5504 12.1431 22.7258 11.9677C22.9013 11.7922 23.1392 11.6937 23.3873 11.6937C23.6354 11.6937 23.8734 11.7922 24.0488 11.9677C24.2243 12.1431 24.3228 12.381 24.3228 12.6292C24.3218 12.8325 24.2537 13.0298 24.1292 13.1904C24.0547 13.2897 24.0228 13.4144 24.0403 13.5372C24.0579 13.6601 24.1235 13.7709 24.2227 13.8453C24.4788 14.0323 24.663 14.3016 24.7444 14.6081C24.8258 14.9146 24.7995 15.2397 24.6699 15.5292C24.633 15.6128 24.6214 15.7053 24.6365 15.7954C24.6517 15.8856 24.6929 15.9693 24.755 16.0362C24.9773 16.2718 25.1341 16.5615 25.2097 16.8765C25.2854 17.1915 25.2773 17.5207 25.1864 17.8316C25.0954 18.1425 24.9246 18.4242 24.6911 18.6487C24.4575 18.8731 24.1693 19.0326 23.8551 19.1112V17.7744C23.8551 17.6503 23.8058 17.5313 23.7181 17.4436C23.6303 17.3559 23.5114 17.3066 23.3873 17.3066C23.2633 17.3066 23.1443 17.3559 23.0566 17.4436C22.9689 17.5313 22.9196 17.6503 22.9196 17.7744V19.1112C22.5191 19.0078 22.1642 18.7746 21.9103 18.4481C21.6564 18.1216 21.5179 17.7202 21.5163 17.3066ZM4.20972 18.7099C4.21125 18.239 4.39127 17.7861 4.71348 17.4427C4.77564 17.3758 4.81683 17.2921 4.83196 17.202C4.84709 17.1119 4.83549 17.0193 4.79861 16.9357C4.66903 16.6463 4.64274 16.3211 4.72413 16.0146C4.80552 15.7081 4.98967 15.4388 5.24578 15.2518C5.34502 15.1774 5.41063 15.0666 5.42817 14.9438C5.44572 14.821 5.41376 14.6962 5.33933 14.597C5.21392 14.4354 5.14565 14.2369 5.14521 14.0324C5.14521 13.7843 5.24377 13.5463 5.41921 13.3709C5.59465 13.1955 5.8326 13.0969 6.0807 13.0969C6.32881 13.0969 6.56676 13.1955 6.7422 13.3709C6.91764 13.5463 7.0162 13.7843 7.0162 14.0324C7.01517 14.2357 6.94711 14.433 6.82255 14.5937C6.74812 14.6929 6.71616 14.8177 6.7337 14.9405C6.75125 15.0633 6.81686 15.1741 6.9161 15.2485C7.17221 15.4356 7.35635 15.7048 7.43775 16.0113C7.51914 16.3178 7.49285 16.643 7.36326 16.9324C7.32638 17.016 7.31479 17.1086 7.32992 17.1987C7.34505 17.2888 7.38623 17.3725 7.44839 17.4395C7.67068 17.6751 7.82745 17.9648 7.90312 18.2797C7.97879 18.5947 7.97073 18.924 7.87974 19.2349C7.78876 19.5458 7.61801 19.8274 7.38446 20.0519C7.15091 20.2764 6.8627 20.4358 6.54845 20.5144V19.1776C6.54845 19.0536 6.49917 18.9346 6.41145 18.8469C6.32373 18.7591 6.20476 18.7099 6.0807 18.7099C5.95665 18.7099 5.83768 18.7591 5.74996 18.8469C5.66224 18.9346 5.61296 19.0536 5.61296 19.1776V20.5144C5.2125 20.411 4.85759 20.1779 4.6037 19.8514C4.34981 19.5249 4.21127 19.1234 4.20972 18.7099ZM8.88718 0.935493H10.7582V2.33873C10.7582 2.46279 10.8074 2.58176 10.8952 2.66948C10.9829 2.7572 11.1019 2.80648 11.2259 2.80648H13.0969C13.221 2.80648 13.3399 2.7572 13.4276 2.66948C13.5154 2.58176 13.5646 2.46279 13.5646 2.33873V0.935493H15.4356V2.33873C15.4356 2.46279 15.4849 2.58176 15.5726 2.66948C15.6604 2.7572 15.7793 2.80648 15.9034 2.80648H17.7744C17.8984 2.80648 18.0174 2.7572 18.1051 2.66948C18.1928 2.58176 18.2421 2.46279 18.2421 2.33873V0.935493H20.1131V4.67746H8.88718V0.935493ZM13.0969 22.4518V17.548C13.4992 17.2384 13.9925 17.0705 14.5001 17.0705C15.0077 17.0705 15.5011 17.2384 15.9034 17.548V22.4518H13.0969ZM16.8389 22.4518V17.3066C16.8389 17.234 16.822 17.1624 16.7895 17.0974C16.757 17.0325 16.7099 16.976 16.6518 16.9324C16.0515 16.4211 15.2887 16.1403 14.5001 16.1403C13.7116 16.1403 12.9488 16.4211 12.3485 16.9324C12.2904 16.976 12.2433 17.0325 12.2108 17.0974C12.1783 17.1624 12.1614 17.234 12.1614 17.3066V22.4518H10.2904V5.61296H18.7099V22.4518H16.8389Z" fill="#4164A9"/>
<path d="M28.5322 22.4514H28.0644C27.9404 22.4514 27.8214 22.5007 27.7337 22.5884C27.646 22.6761 27.5967 22.7951 27.5967 22.9192C27.5967 23.0432 27.646 23.1622 27.7337 23.2499C27.8214 23.3376 27.9404 23.3869 28.0644 23.3869H28.5322C28.6562 23.3869 28.7752 23.3376 28.8629 23.2499C28.9506 23.1622 28.9999 23.0432 28.9999 22.9192C28.9999 22.7951 28.9506 22.6761 28.8629 22.5884C28.7752 22.5007 28.6562 22.4514 28.5322 22.4514Z" fill="#4164A9"/>
<path d="M10.9449 7.10968C10.8868 7.15325 10.8397 7.20975 10.8072 7.2747C10.7747 7.33965 10.7578 7.41126 10.7578 7.48388V10.2904C10.7578 10.4144 10.8071 10.5334 10.8948 10.6211C10.9825 10.7088 11.1015 10.7581 11.2256 10.7581H13.5643C13.6883 10.7581 13.8073 10.7088 13.895 10.6211C13.9828 10.5334 14.032 10.4144 14.032 10.2904V7.48388C14.032 7.41126 14.0151 7.33965 13.9827 7.2747C13.9502 7.20975 13.903 7.15325 13.8449 7.10968C13.4403 6.76529 12.9263 6.57617 12.3949 6.57617C11.8636 6.57617 11.3496 6.76529 10.9449 7.10968ZM13.0965 9.82261H11.6933V7.73085C11.8996 7.5885 12.1443 7.51226 12.3949 7.51226C12.6456 7.51226 12.8903 7.5885 13.0965 7.73085V9.82261Z" fill="#4164A9"/>
<path d="M15.1549 7.10968C15.0968 7.15325 15.0496 7.20975 15.0172 7.2747C14.9847 7.33965 14.9678 7.41126 14.9678 7.48388V10.2904C14.9678 10.4144 15.0171 10.5334 15.1048 10.6211C15.1925 10.7088 15.3115 10.7581 15.4355 10.7581H17.7743C17.8983 10.7581 18.0173 10.7088 18.105 10.6211C18.1927 10.5334 18.242 10.4144 18.242 10.2904V7.48388C18.242 7.41126 18.2251 7.33965 18.1926 7.2747C18.1601 7.20975 18.113 7.15325 18.0549 7.10968C17.6503 6.76529 17.1362 6.57617 16.6049 6.57617C16.0735 6.57617 15.5595 6.76529 15.1549 7.10968ZM17.3065 9.82261H15.9033V7.73085C16.1095 7.5885 16.3543 7.51226 16.6049 7.51226C16.8555 7.51226 17.1002 7.5885 17.3065 7.73085V9.82261Z" fill="#4164A9"/>
<path d="M10.9449 11.7874C10.8868 11.831 10.8397 11.8875 10.8072 11.9524C10.7747 12.0174 10.7578 12.089 10.7578 12.1616V14.9681C10.7578 15.0921 10.8071 15.2111 10.8948 15.2988C10.9825 15.3866 11.1015 15.4358 11.2256 15.4358H13.5643C13.6883 15.4358 13.8073 15.3866 13.895 15.2988C13.9828 15.2111 14.032 15.0921 14.032 14.9681V12.1616C14.032 12.089 14.0151 12.0174 13.9827 11.9524C13.9502 11.8875 13.903 11.831 13.8449 11.7874C13.4403 11.443 12.9263 11.2539 12.3949 11.2539C11.8636 11.2539 11.3496 11.443 10.9449 11.7874ZM13.0965 14.5003H11.6933V12.4086C11.8996 12.2662 12.1443 12.19 12.3949 12.19C12.6456 12.19 12.8903 12.2662 13.0965 12.4086V14.5003Z" fill="#4164A9"/>
<path d="M15.1549 11.7874C15.0968 11.831 15.0496 11.8875 15.0172 11.9524C14.9847 12.0174 14.9678 12.089 14.9678 12.1616V14.9681C14.9678 15.0921 15.0171 15.2111 15.1048 15.2988C15.1925 15.3866 15.3115 15.4358 15.4355 15.4358H17.7743C17.8983 15.4358 18.0173 15.3866 18.105 15.2988C18.1927 15.2111 18.242 15.0921 18.242 14.9681V12.1616C18.242 12.089 18.2251 12.0174 18.1926 11.9524C18.1601 11.8875 18.113 11.831 18.0549 11.7874C17.6503 11.443 17.1362 11.2539 16.6049 11.2539C16.0735 11.2539 15.5595 11.443 15.1549 11.7874ZM17.3065 14.5003H15.9033V12.4086C16.1095 12.2662 16.3543 12.19 16.6049 12.19C16.8555 12.19 17.1002 12.2662 17.3065 12.4086V14.5003Z" fill="#4164A9"/>
<path d="M23.3877 16.8388C23.5117 16.8388 23.6307 16.7895 23.7184 16.7018C23.8061 16.6141 23.8554 16.4951 23.8554 16.371V15.9033C23.8554 15.7792 23.8061 15.6603 23.7184 15.5725C23.6307 15.4848 23.5117 15.4355 23.3877 15.4355C23.2636 15.4355 23.1446 15.4848 23.0569 15.5725C22.9692 15.6603 22.9199 15.7792 22.9199 15.9033V16.371C22.9199 16.4951 22.9692 16.6141 23.0569 16.7018C23.1446 16.7895 23.2636 16.8388 23.3877 16.8388Z" fill="#4164A9"/>
</svg>
