<svg width="28" height="28" viewBox="0 0 28 28" fill="none" xmlns="http://www.w3.org/2000/svg">
  <rect width="28" height="28" rx="6" fill="white"/>
  <mask id="mask0" mask-type="alpha" maskUnits="userSpaceOnUse" x="1" y="1" width="26" height="26">
    <rect x="1.16797" y="1.16699" width="25.6667" height="25.6667" fill="#C4C4C4"/>
  </mask>
  <g mask="url(#mask0)">
    <path d="M14 7C10.14 7 7 10.14 7 14C7 17.86 10.14 21 14 21C17.86 21 21 17.86 21 14C21 10.14 17.86 7 14 7Z" fill="#B1122A"/>
    <path d="M16.5786 15.7527C16.8066 15.9808 16.8066 16.3494 16.5786 16.5776C16.4648 16.6913 16.3155 16.7485 16.1661 16.7485C16.0167 16.7485 15.8674 16.6913 15.7537 16.5776L14.0008 14.8246L12.2479 16.5776C12.1341 16.6913 11.9848 16.7485 11.8355 16.7485C11.6861 16.7485 11.5367 16.6913 11.423 16.5776C11.1949 16.3494 11.1949 15.9808 11.423 15.7527L13.176 13.9998L11.423 12.2469C11.1949 12.0188 11.1949 11.6502 11.423 11.422C11.6511 11.194 12.0197 11.194 12.2479 11.422L14.0008 13.175L15.7537 11.422C15.9818 11.194 16.3504 11.194 16.5786 11.422C16.8066 11.6502 16.8066 12.0188 16.5786 12.2469L14.8256 13.9998L16.5786 15.7527Z" fill="#FAFAFA"/>
  </g>
</svg>
