<svg width="286" height="192" viewBox="0 0 286 192" fill="none" xmlns="http://www.w3.org/2000/svg">
<circle cx="193" cy="69" r="56" transform="rotate(165 193 69)" fill="url(#paint0_linear)"/>
<circle cx="136.5" cy="96.5" r="86.5" fill="url(#paint1_linear)"/>
<circle cx="234.106" cy="140.107" r="41.7283" transform="rotate(105 234.106 140.107)" fill="url(#paint2_linear)"/>
<circle cx="39.1791" cy="76.3571" r="31.7258" transform="rotate(105 39.1791 76.3571)" fill="url(#paint3_linear)"/>
<circle cx="52.6715" cy="51.6713" r="18.0606" transform="rotate(150 52.6715 51.6713)" fill="url(#paint4_linear)"/>
<path d="M217.654 109.423L174.796 84.6154C172.469 83.2699 168.402 83.4343 165.711 84.9792L75.8448 136.717C73.1537 138.262 72.8547 140.614 75.182 141.96L118.04 166.762C120.367 168.113 124.433 167.949 127.124 166.399L216.996 114.666C219.687 113.116 219.981 110.769 217.654 109.423Z" fill="#D2E1FF"/>
<path d="M221.087 90.0673L176.51 64.253C173.38 62.444 167.909 62.6633 164.291 64.7514L73.0935 117.232C69.4755 119.315 69.0768 122.47 72.2064 124.284L116.783 150.098C119.913 151.912 125.385 151.693 129.008 149.6L220.205 97.1189C223.823 95.0507 224.221 91.8713 221.087 90.0673Z" fill="#D2E1FF"/>
<path d="M122.116 151.558C120.221 151.613 118.343 151.178 116.664 150.297L72.0871 124.488C70.6419 123.651 69.8495 122.495 69.8545 121.204C69.8545 119.669 70.9907 118.139 72.9742 116.998L164.171 64.5172C167.854 62.3992 173.445 62.1799 176.63 64.0188L221.207 89.8331C222.647 90.6703 223.439 91.8264 223.439 93.1171C223.439 94.6471 222.298 96.177 220.315 97.3182L129.118 149.799C126.97 150.968 124.561 151.573 122.116 151.558ZM171.193 63.2663C168.829 63.2451 166.499 63.8247 164.42 64.9507L73.2233 117.431C71.3994 118.478 70.3529 119.853 70.3529 121.204C70.3529 122.3 71.0555 123.312 72.3462 124.054L116.913 149.869C119.968 151.638 125.34 151.418 128.873 149.37L220.07 96.8896C221.894 95.8381 222.946 94.4627 222.946 93.1171C222.946 92.0208 222.243 91.0091 220.953 90.2666L176.376 64.4524C174.777 63.6219 172.993 63.2136 171.193 63.2663Z" fill="#4164A9"/>
<path d="M223.19 93.1769C223.165 94.5523 222.158 95.9875 220.2 97.1138L129.002 149.594C125.379 151.678 119.908 151.897 116.778 150.093L72.2012 124.279C70.756 123.441 70.0732 122.32 70.1031 121.149V127.627C70.0533 128.818 70.736 129.96 72.2012 130.807L116.778 156.621C119.908 158.435 125.384 158.216 129.002 156.123L220.2 103.642C222.243 102.466 223.259 100.946 223.19 99.5208V93.1918V93.1769Z" fill="#4164A9"/>
<path d="M122.095 158.056C120.2 158.112 118.323 157.68 116.643 156.801L72.0665 130.991C70.6064 130.144 69.819 128.963 69.8439 127.652C69.8411 127.634 69.8411 127.616 69.8439 127.598V121.119C69.8435 121.069 69.8585 121.019 69.8868 120.978C69.9151 120.936 69.9554 120.904 70.0024 120.885C70.0494 120.867 70.1008 120.863 70.1499 120.875C70.1991 120.886 70.2435 120.912 70.2775 120.95C70.3234 121 70.3499 121.066 70.3522 121.134C70.3223 122.255 71.025 123.292 72.3456 124.044L116.913 149.869C119.967 151.638 125.34 151.418 128.873 149.37L220.07 96.8896C221.864 95.858 222.91 94.4976 222.935 93.162C222.936 93.1049 222.957 93.05 222.995 93.0075C223.029 92.9706 223.074 92.945 223.123 92.9343C223.172 92.9236 223.223 92.9283 223.269 92.9477C223.316 92.9659 223.357 92.9981 223.385 93.0399C223.414 93.0818 223.429 93.1313 223.429 93.1819V99.5059C223.483 101.081 222.347 102.65 220.309 103.827L129.112 156.307C126.959 157.475 124.545 158.077 122.095 158.056ZM70.3323 127.528C70.3371 127.553 70.3371 127.578 70.3323 127.603C70.2874 128.744 70.9901 129.795 72.3256 130.558L116.873 156.372C119.933 158.141 125.3 157.922 128.833 155.874L220.03 103.393C221.914 102.307 222.96 100.901 222.895 99.496C222.893 99.4828 222.893 99.4693 222.895 99.4561V94.8763C222.253 95.9074 221.348 96.7499 220.274 97.3182L129.077 149.799C125.389 151.922 119.798 152.141 116.619 150.297L72.0416 124.488C71.3375 124.104 70.7399 123.551 70.3024 122.878L70.3323 127.528Z" fill="#4164A9"/>
<path d="M207.642 96.1122L158.804 67.9059L116.978 92.255L114.636 93.6005L163.329 121.712C165.188 122.789 168.442 122.654 170.595 121.408L207.143 100.308C209.271 99.0674 209.506 97.1886 207.642 96.1122Z" fill="#D2E1FF"/>
<path d="M217.654 91.0638L174.796 66.2612C172.469 64.9157 168.402 65.0752 165.711 66.625L75.8448 118.368C73.1537 119.918 72.8547 122.265 75.182 123.616L118.04 148.418C120.367 149.764 124.433 149.604 127.124 148.055L216.996 96.3214C219.687 94.7715 219.981 92.4243 217.654 91.0638Z" fill="white"/>
<path d="M113.883 148.119L155.754 123.95L119.056 102.76L77.001 127.044L111.123 146.515L113.883 148.119Z" fill="#D2E1FF"/>
<path d="M217.654 91.0638L174.796 66.2612C172.469 64.9157 168.402 65.0752 165.711 66.625L75.8448 118.368C73.1537 119.918 72.8547 122.265 75.182 123.616L118.04 148.418C120.367 149.764 124.433 149.604 127.124 148.055L216.996 96.3214C219.687 94.7715 219.981 92.4243 217.654 91.0638Z" fill="white"/>
<path d="M194.281 160.164C201.173 160.164 206.76 156.938 206.76 152.958C206.76 148.978 201.173 145.752 194.281 145.752C187.39 145.752 181.803 148.978 181.803 152.958C181.803 156.938 187.39 160.164 194.281 160.164Z" fill="#D2E1FF"/>
<path d="M205.105 149.066C199.125 152.52 189.437 152.52 183.462 149.066C180.472 147.342 178.977 145.079 178.977 142.822V145.314C178.977 147.576 180.472 149.839 183.462 151.563C189.442 155.011 199.125 155.011 205.105 151.563C208.095 149.839 209.59 147.576 209.59 145.314V142.822C209.565 145.084 208.07 147.342 205.105 149.066Z" fill="#4164A9"/>
<path d="M194.281 154.399C190.319 154.399 186.357 153.526 183.318 151.782C180.278 150.038 178.713 147.795 178.713 145.304V142.812C178.713 142.746 178.739 142.683 178.786 142.636C178.833 142.589 178.896 142.563 178.962 142.563C179.028 142.563 179.092 142.589 179.138 142.636C179.185 142.683 179.211 142.746 179.211 142.812C179.211 145.08 180.756 147.217 183.567 148.842C189.467 152.246 199.06 152.246 204.961 148.842C207.766 147.222 209.316 145.08 209.316 142.812C209.316 142.746 209.342 142.683 209.389 142.636C209.436 142.589 209.499 142.563 209.565 142.563C209.631 142.563 209.695 142.589 209.742 142.636C209.788 142.683 209.815 142.746 209.815 142.812V145.304C209.815 147.756 208.18 150.053 205.21 151.782C202.24 153.511 198.248 154.399 194.281 154.399ZM179.231 145.124V145.319C179.231 147.586 180.776 149.729 183.587 151.354C189.487 154.757 199.08 154.757 204.981 151.354C207.786 149.729 209.336 147.586 209.336 145.319V145.124C208.643 146.689 207.243 148.114 205.23 149.286C199.19 152.774 189.372 152.774 183.338 149.286C181.324 148.119 179.924 146.689 179.231 145.124Z" fill="#4164A9"/>
<path d="M194.281 151.658C202.733 151.658 209.585 147.702 209.585 142.822C209.585 137.942 202.733 133.986 194.281 133.986C185.828 133.986 178.977 137.942 178.977 142.822C178.977 147.702 185.828 151.658 194.281 151.658Z" fill="#D2E1FF"/>
<path d="M194.281 151.897C190.319 151.897 186.357 151.025 183.318 149.286C180.278 147.546 178.713 145.274 178.713 142.807C178.713 140.34 180.347 138.058 183.318 136.329C189.353 132.84 199.17 132.84 205.21 136.329C208.2 138.043 209.815 140.34 209.815 142.807C209.815 145.274 208.18 147.556 205.21 149.286C202.24 151.015 198.248 151.897 194.281 151.897ZM194.281 134.236C190.409 134.236 186.537 135.088 183.587 136.787C180.776 138.412 179.231 140.555 179.231 142.822C179.231 145.089 180.776 147.232 183.587 148.852C189.482 152.256 199.08 152.256 204.981 148.852C207.786 147.232 209.336 145.089 209.336 142.822C209.336 140.555 207.786 138.412 204.981 136.787C202.03 135.088 198.153 134.236 194.281 134.236Z" fill="#4164A9"/>
<path d="M189.083 145.463L190.045 144.91C189.387 144.491 189.093 144.068 189.163 143.634C189.233 143.201 189.661 142.732 190.498 142.229L192.252 142.977C191.896 143.151 191.582 143.403 191.336 143.714C191.221 143.913 191.281 144.078 191.51 144.212C191.672 144.296 191.854 144.333 192.036 144.319C192.218 144.306 192.393 144.243 192.542 144.138C192.737 144.039 192.907 143.898 193.04 143.724C193.135 143.597 193.197 143.448 193.219 143.29C193.243 143.112 193.243 142.931 193.219 142.752L193.125 141.985C193.107 141.819 193.107 141.652 193.125 141.486C193.138 141.332 193.175 141.181 193.234 141.038C193.307 140.861 193.417 140.703 193.558 140.575C193.741 140.405 193.943 140.257 194.161 140.136C194.766 139.783 195.454 139.596 196.155 139.593C196.878 139.593 197.592 139.764 198.238 140.091L199.155 139.563L199.653 139.857L198.711 140.4C198.886 140.507 199.043 140.642 199.174 140.799C199.274 140.907 199.347 141.036 199.389 141.177C199.424 141.296 199.424 141.423 199.389 141.541C199.356 141.664 199.3 141.779 199.224 141.88C199.139 141.995 199.042 142.1 198.935 142.194C198.811 142.304 198.696 142.393 198.586 142.473C198.477 142.553 198.347 142.633 198.203 142.722L196.468 141.95L196.792 141.751L197.052 141.571C197.12 141.521 197.183 141.464 197.241 141.402C197.278 141.356 197.305 141.304 197.321 141.247C197.334 141.225 197.341 141.2 197.341 141.175C197.341 141.15 197.334 141.125 197.321 141.103C197.273 141.046 197.213 141 197.146 140.968C196.978 140.879 196.786 140.847 196.598 140.878C196.404 140.898 196.215 140.957 196.045 141.053C195.913 141.125 195.792 141.216 195.686 141.322C195.6 141.412 195.541 141.524 195.517 141.646C195.496 141.738 195.484 141.831 195.482 141.925C195.482 141.995 195.482 142.099 195.482 142.249L195.561 142.991C195.579 143.177 195.579 143.364 195.561 143.55C195.539 143.731 195.492 143.909 195.422 144.078C195.338 144.279 195.215 144.46 195.058 144.611C194.862 144.805 194.641 144.973 194.4 145.109C193.832 145.429 193.193 145.6 192.542 145.608C191.855 145.641 191.17 145.506 190.548 145.214L189.551 145.777L189.083 145.463Z" fill="white"/>
<path d="M56.5733 169C63.465 169 69.0518 165.774 69.0518 161.794C69.0518 157.814 63.465 154.588 56.5733 154.588C49.6816 154.588 44.0947 157.814 44.0947 161.794C44.0947 165.774 49.6816 169 56.5733 169Z" fill="#D2E1FF"/>
<path d="M67.3928 157.902C61.4126 161.355 51.7298 161.355 45.7546 157.902C42.7646 156.178 41.2695 153.915 41.2695 151.658V154.149C41.2695 156.412 42.7646 158.674 45.7546 160.399C51.7348 163.847 61.4176 163.847 67.3928 160.399C70.3828 158.674 71.8778 156.412 71.8778 154.149V151.658C71.8778 153.915 70.3828 156.178 67.3928 157.902Z" fill="#4164A9"/>
<path d="M56.5733 163.229C52.6114 163.229 48.6446 162.362 45.6097 160.618C42.5748 158.874 41 156.606 41 154.139V151.648C41 151.582 41.0263 151.518 41.073 151.472C41.1197 151.425 41.1831 151.399 41.2492 151.399C41.3153 151.399 41.3786 151.425 41.4254 151.472C41.4721 151.518 41.4983 151.582 41.4983 151.648C41.4983 153.915 43.0482 156.053 45.8589 157.678C51.7543 161.081 61.3524 161.081 67.2478 157.678C70.0585 156.053 71.6083 153.915 71.6083 151.648C71.6083 151.582 71.6346 151.518 71.6813 151.472C71.728 151.425 71.7914 151.399 71.8575 151.399C71.9236 151.399 71.987 151.425 72.0337 151.472C72.0804 151.518 72.1067 151.582 72.1067 151.648V154.139C72.1067 156.591 70.4671 158.889 67.497 160.618C64.5268 162.347 60.56 163.229 56.5733 163.229ZM41.5183 153.96V154.154C41.5183 156.422 43.0681 158.565 45.8788 160.184C51.7742 163.593 61.3723 163.593 67.2677 160.184C70.0784 158.56 71.6282 156.417 71.6282 154.149V153.955C70.9355 155.52 69.5352 156.945 67.5169 158.116C61.482 161.605 51.6646 161.605 45.6296 158.116C43.6163 156.955 42.211 155.525 41.5183 153.96Z" fill="#4164A9"/>
<path d="M56.5737 160.493C65.0259 160.493 71.8778 156.537 71.8778 151.658C71.8778 146.778 65.0259 142.822 56.5737 142.822C48.1214 142.822 41.2695 146.778 41.2695 151.658C41.2695 156.537 48.1214 160.493 56.5737 160.493Z" fill="#D2E1FF"/>
<path d="M56.5733 160.732C52.6114 160.732 48.6446 159.86 45.6097 158.121C42.5748 156.382 41 154.109 41 151.643C41 149.176 42.6396 146.893 45.6097 145.164C51.6446 141.676 61.462 141.676 67.497 145.164C70.487 146.878 72.1067 149.176 72.1067 151.643C72.1067 154.109 70.4671 156.387 67.497 158.121C64.5019 159.86 60.56 160.732 56.5733 160.732ZM56.5733 143.071C52.7011 143.071 48.824 143.923 45.8788 145.623C43.0681 147.247 41.5183 149.39 41.5183 151.658C41.5183 153.925 43.0681 156.063 45.8788 157.688C51.7742 161.091 61.3723 161.091 67.2677 157.688C70.0784 156.063 71.6282 153.925 71.6282 151.658C71.6282 149.39 70.0784 147.247 67.2677 145.623C64.3225 143.923 60.4454 143.071 56.5733 143.071Z" fill="#4164A9"/>
<path d="M51.3701 154.299L52.3369 153.746C51.6791 153.327 51.3801 152.898 51.4499 152.47C51.5196 152.041 51.9482 151.568 52.7854 151.065L54.5396 151.807C54.1844 151.984 53.8729 152.238 53.6276 152.55C53.513 152.744 53.5728 152.913 53.802 153.048C53.9644 153.131 54.1464 153.168 54.3283 153.155C54.5102 153.142 54.685 153.079 54.8336 152.973C55.028 152.873 55.1981 152.732 55.332 152.56C55.4276 152.433 55.4893 152.283 55.5114 152.126C55.5325 151.947 55.5325 151.767 55.5114 151.588L55.4167 150.82C55.3988 150.655 55.3988 150.488 55.4167 150.322C55.4299 150.168 55.4651 150.017 55.5213 149.874C55.5955 149.698 55.7059 149.54 55.8452 149.41C56.0297 149.24 56.2338 149.093 56.4532 148.972C57.0584 148.618 57.746 148.431 58.4466 148.428C59.1704 148.429 59.884 148.599 60.5297 148.927L61.4466 148.393L61.945 148.687L61.033 149.216C61.2067 149.322 61.363 149.455 61.4965 149.609C61.5938 149.72 61.6653 149.851 61.7058 149.993C61.738 150.112 61.738 150.238 61.7058 150.357C61.6682 150.477 61.6128 150.592 61.5413 150.696C61.4549 150.809 61.3581 150.914 61.2523 151.01C61.1398 151.109 61.0217 151.203 60.8985 151.289C60.7888 151.364 60.6642 151.448 60.5197 151.538L58.7855 150.766L59.1094 150.566L59.3685 150.387C59.4379 150.338 59.4999 150.279 59.5529 150.212C59.5924 150.17 59.6214 150.119 59.6376 150.063C59.6483 150.04 59.6538 150.016 59.6538 149.991C59.6538 149.966 59.6483 149.941 59.6376 149.918C59.5903 149.861 59.5307 149.815 59.4632 149.784C59.294 149.693 59.0998 149.66 58.9101 149.689C58.7161 149.714 58.5285 149.775 58.3569 149.869C58.2258 149.942 58.1051 150.032 57.9981 150.138C57.9154 150.229 57.8587 150.341 57.8336 150.462C57.8105 150.553 57.7987 150.647 57.7988 150.741C57.7929 150.849 57.7929 150.957 57.7988 151.065L57.8835 151.807C57.9035 151.993 57.9035 152.18 57.8835 152.365C57.8652 152.547 57.8198 152.725 57.7489 152.893C57.6654 153.094 57.5416 153.276 57.3851 153.427C57.1859 153.62 56.9633 153.787 56.7223 153.925C56.1545 154.245 55.5152 154.416 54.8635 154.423C54.1851 154.454 53.5096 154.319 52.8951 154.03L51.8984 154.593L51.3701 154.299Z" fill="white"/>
<path d="M207.641 96.1122L161.156 69.2714L116.748 94.8314L163.308 121.712C165.167 122.789 168.421 122.654 170.574 121.408L207.123 100.308C209.271 99.0674 209.505 97.1886 207.641 96.1122Z" fill="#DEDEDE"/>
<path d="M210.93 91.6072L209.226 91.3381L135.72 48.899C133.762 47.7678 130.333 47.9023 128.071 49.218L89.5935 71.4292C89.2081 71.6478 88.853 71.9159 88.537 72.2265L87.7197 72.097V73.9259C87.7452 74.3354 87.8815 74.7302 88.1142 75.0682C88.3468 75.4062 88.6669 75.6745 89.0403 75.8445L162.925 118.503C164.888 119.634 168.312 119.499 170.579 118.184L209.067 95.9776C210.317 95.255 210.95 94.3281 210.94 93.456L210.93 91.6072Z" fill="#4164A9"/>
<path d="M166.254 119.514C165.055 119.549 163.868 119.276 162.805 118.722L88.9207 76.0638C88.5182 75.8739 88.1728 75.5814 87.9192 75.2158C87.6655 74.8502 87.5125 74.4242 87.4755 73.9808C87.473 73.9626 87.473 73.9441 87.4755 73.9259V72.097C87.4767 72.061 87.4853 72.0256 87.5007 71.993C87.5162 71.9605 87.5381 71.9314 87.5652 71.9076C87.5922 71.8842 87.6241 71.8671 87.6586 71.8576C87.6931 71.8481 87.7293 71.8465 87.7645 71.8528L88.4572 71.9625C88.7587 71.6747 89.0933 71.4238 89.4539 71.2149L127.931 49.0037C130.258 47.6582 133.802 47.5087 135.83 48.6848L209.296 91.0989L210.955 91.363C211.013 91.3724 211.066 91.4021 211.105 91.4468C211.143 91.4915 211.164 91.5483 211.165 91.6072V93.4959C211.165 94.4926 210.427 95.4893 209.171 96.192L170.694 118.408C169.331 119.146 167.804 119.527 166.254 119.514ZM87.9688 73.8811C87.9715 73.8976 87.9715 73.9144 87.9688 73.9309C87.9981 74.2958 88.1245 74.6463 88.3348 74.9459C88.5451 75.2456 88.8317 75.4836 89.1649 75.6353L163.049 118.294C164.938 119.385 168.257 119.24 170.455 117.975L208.927 95.7634C210.048 95.1155 210.686 94.2684 210.676 93.461V91.8215L209.181 91.5823C209.151 91.5776 209.123 91.5675 209.096 91.5524L135.591 49.1183C133.702 48.027 130.383 48.1665 128.19 49.4323L89.718 71.6286C89.3554 71.8363 89.0205 72.0892 88.7213 72.3811C88.6944 72.4098 88.6606 72.4312 88.6231 72.4434C88.5857 72.4556 88.5457 72.4582 88.507 72.4508L87.9788 72.3711L87.9688 73.8811Z" fill="#4164A9"/>
<path d="M162.93 116.619L89.0452 73.9607C87.0817 72.8295 87.3259 70.8511 89.5933 69.5404L128.071 47.3292C130.333 46.0186 133.762 45.879 135.72 47.0103L209.61 89.6686C211.568 90.7998 211.324 92.7782 209.056 94.0889L170.584 116.3C168.317 117.611 164.893 117.75 162.93 116.619Z" fill="#D2E1FF"/>
<path d="M166.254 117.626C165.056 117.66 163.869 117.387 162.805 116.833L88.9209 74.175C88.5076 73.9856 88.154 73.6868 87.8983 73.3108C87.6427 72.9348 87.4948 72.4961 87.4707 72.0421C87.4707 71.0454 88.1983 70.0487 89.4641 69.3261L127.941 47.1149C130.269 45.7644 133.812 45.6199 135.84 46.796L209.73 89.4543C210.14 89.6466 210.491 89.9463 210.746 90.3218C211 90.6972 211.148 91.1344 211.175 91.5872C211.175 92.5839 210.447 93.5805 209.181 94.3031L170.694 116.514C169.333 117.256 167.804 117.639 166.254 117.626ZM132.396 46.492C130.93 46.4809 129.484 46.8427 128.195 47.5435L89.7182 69.7597C88.6069 70.3976 87.969 71.2298 87.969 72.0421C87.9993 72.4074 88.1266 72.758 88.3378 73.0576C88.5489 73.3572 88.8362 73.595 89.1701 73.7464L163.055 116.405C164.943 117.491 168.267 117.352 170.46 116.086L208.932 93.8696C210.043 93.2317 210.681 92.3995 210.681 91.5872C210.652 91.2223 210.526 90.8718 210.315 90.5721C210.105 90.2725 209.819 90.0345 209.485 89.8828L135.596 47.2096C134.607 46.7038 133.506 46.4569 132.396 46.492Z" fill="#4164A9"/>
<path d="M94.6074 66.6449L175.598 113.405L182.605 109.358L101.614 62.5984L94.6074 66.6449Z" fill="#4164A9"/>
<path d="M175.597 113.654C175.553 113.655 175.51 113.643 175.473 113.619L94.4818 66.8643C94.4434 66.8426 94.4115 66.8111 94.3894 66.773C94.3672 66.7349 94.3555 66.6916 94.3555 66.6476C94.3555 66.6035 94.3672 66.5602 94.3894 66.5221C94.4115 66.484 94.4434 66.4525 94.4818 66.4308L101.489 62.3842C101.526 62.3623 101.569 62.3508 101.613 62.3508C101.657 62.3508 101.7 62.3623 101.738 62.3842L182.729 109.144C182.767 109.166 182.799 109.197 182.821 109.235C182.843 109.273 182.855 109.317 182.855 109.361C182.855 109.405 182.843 109.448 182.821 109.486C182.799 109.524 182.767 109.556 182.729 109.577L175.722 113.619C175.684 113.642 175.641 113.654 175.597 113.654ZM95.1047 66.6451L175.597 113.121L182.106 109.358L101.613 62.8875L95.1047 66.6451Z" fill="#4164A9"/>
<path d="M146.659 77.9476L124.079 64.9159L131.554 60.6002L154.129 73.6319L146.659 77.9476Z" fill="white"/>
<path d="M115.697 147.073L155.754 123.95L119.056 102.76L79.0537 125.858L115.697 147.073Z" fill="#DEDEDE"/>
<path d="M49.8312 130.578C45.9441 128.42 43.5221 123.695 43.4972 116.928C43.4573 103.532 52.8412 87.1568 64.4277 80.4242L72.7799 75.5653L73.1786 75.7896L111.506 97.3479L101.799 103.657L98.1506 106.323L93.1323 111.566L92.325 112.303L86.9877 120.396L85.0342 125.45L83.584 129.481L82.388 137.928L82.3083 138.661L82.7418 142.224L83.9727 146.634L85.712 149.624L88.2386 152.614L49.8312 130.578Z" fill="white"/>
<path d="M89.3389 153.551L48.8035 130.274H48.8833C45.2653 127.782 43.2769 123.102 43.257 116.923C43.2171 103.468 52.6557 86.9775 64.307 80.205L72.7789 75.2714L73.3071 75.5704L111.994 97.3231L101.922 103.866L98.3091 106.513L93.3256 111.73L92.5283 112.493L87.2159 120.536L85.2674 125.574L83.8272 129.561L82.5564 138.676L82.985 142.214L84.2009 146.555L85.9252 149.515L89.3389 153.551ZM50.8617 130.882L87.1362 151.717L85.5166 149.794L83.7325 146.709L82.4866 142.299L82.0481 138.671L82.1328 137.913L83.3388 129.407L84.789 125.375L86.7824 120.257L92.1645 112.119L92.9718 111.381L97.9553 106.154L101.633 103.458L111.012 97.363L72.7639 75.8494L64.5462 80.6385C53.0345 87.3313 43.7055 103.612 43.7453 116.928C43.7703 123.406 45.9729 128.151 49.9497 130.383L50.8916 130.882H50.8617Z" fill="#4164A9"/>
<path d="M116.903 97.1836V98.5989L91.4873 113.37C92.0111 112.372 92.7158 111.479 93.5654 110.739L116.903 97.1836Z" fill="#D2E1FF"/>
<path d="M155.231 119.195L116.903 97.1836L93.6999 111.112L90.7946 114.491L86.4291 122.161L83.6932 129.82L82.7962 135.81L82.6865 141.79L86.4291 150.342L91.2979 153.188L96.3013 153.447L102.306 150.955L149.764 123.038L155.231 119.195Z" fill="#D2E1FF"/>
<path d="M96.3015 153.696L91.2931 153.437C91.2544 153.433 91.217 153.421 91.1835 153.402L86.3147 150.556C86.2689 150.53 86.2324 150.49 86.21 150.442L82.4575 141.895C82.4504 141.86 82.4504 141.825 82.4575 141.79L82.5671 135.81L83.4641 129.79L86.215 122.081L90.5954 114.376L93.5307 110.953C93.5472 110.932 93.5675 110.915 93.5905 110.903L116.793 96.9493C116.832 96.9275 116.876 96.916 116.92 96.916C116.965 96.916 117.009 96.9275 117.048 96.9493L155.355 118.971C155.39 118.994 155.419 119.025 155.439 119.061C155.459 119.098 155.469 119.139 155.469 119.18C155.469 119.222 155.459 119.263 155.439 119.3C155.419 119.336 155.39 119.367 155.355 119.39L149.874 123.232L102.401 151.139L96.3663 153.631C96.3499 153.657 96.3277 153.679 96.3015 153.696ZM91.3729 152.938L96.2616 153.192L102.212 150.726L149.634 122.818L154.747 119.22L116.873 97.4726L93.8247 111.307L90.9493 114.655L86.6137 122.28L83.8927 129.905L83.0106 135.845L82.901 141.741L86.5888 150.168L91.3729 152.938Z" fill="#4164A9"/>
<path d="M43.8607 121.049C43.6255 119.688 43.5071 118.309 43.5068 116.928C43.5068 115.931 43.5617 114.935 43.6563 113.938L82.6269 136.274L82.3877 137.953L82.3079 138.686L82.7415 142.249L83.1053 143.554L43.8607 121.049Z" fill="#4164A9"/>
<path d="M155.246 120.616V119.195L102.92 149.594C92.016 155.933 83.1156 150.83 83.0757 138.217C83.0359 125.604 91.8715 110.185 102.775 103.831L111.531 98.7384V97.3231L102.775 102.416C91.1987 109.149 81.8099 125.524 81.8448 138.92C81.8797 152.315 91.3383 157.732 102.92 151L155.246 120.616Z" fill="#4164A9"/>
<path d="M93.5054 154.174C91.5519 154.198 89.6267 153.707 87.924 152.749C83.8575 150.417 81.6099 145.513 81.59 138.945C81.5452 125.489 90.9888 108.994 102.635 102.222L111.391 97.1287C111.429 97.1069 111.472 97.0954 111.515 97.0953C111.559 97.0953 111.602 97.1066 111.64 97.1283C111.677 97.15 111.709 97.1813 111.731 97.2189C111.753 97.2566 111.764 97.2994 111.765 97.343V98.7633C111.765 98.8076 111.754 98.8513 111.732 98.8899C111.71 98.9284 111.679 98.9604 111.64 98.9826L102.889 104.071C92.0552 110.375 83.2744 125.694 83.3143 138.227C83.3143 144.237 85.3625 148.692 89.0353 150.805C92.7081 152.918 97.5918 152.41 102.785 149.39L155.111 118.991C155.149 118.969 155.192 118.958 155.235 118.958C155.279 118.958 155.322 118.969 155.36 118.991C155.398 119.012 155.43 119.043 155.452 119.081C155.474 119.119 155.485 119.162 155.485 119.205V120.626C155.485 120.669 155.474 120.712 155.452 120.75C155.43 120.788 155.398 120.819 155.36 120.84L103.034 151.239C99.6849 153.187 96.4407 154.174 93.5054 154.174ZM111.271 97.7766L102.884 102.655C91.3775 109.348 82.0435 125.624 82.0883 138.94C82.0883 145.329 84.2711 150.078 88.1731 152.315C92.0752 154.553 97.2679 154.02 102.79 150.82L154.986 120.466V119.624L103.034 149.819C97.6815 152.933 92.6233 153.437 88.7911 151.239C84.9588 149.041 82.8359 144.422 82.8109 138.232C82.7711 125.539 91.6615 110.021 102.635 103.642L111.266 98.6238L111.271 97.7766Z" fill="#4164A9"/>
<path d="M134.405 122.958L113.928 111.396C113.424 111.171 112.875 111.069 112.324 111.097C111.773 111.126 111.236 111.285 110.759 111.561L99.0575 118.473C98.1256 119.026 98.0309 119.848 98.8482 120.307L119.325 131.868C119.83 132.089 120.379 132.189 120.929 132.161C121.48 132.132 122.016 131.976 122.495 131.704L134.196 124.782C135.128 124.239 135.222 123.416 134.405 122.958Z" fill="#D2E1FF"/>
<path d="M118.817 127.563L97.7665 115.697C97.5925 115.619 97.4429 115.495 97.3333 115.339C97.2236 115.183 97.1581 115 97.1436 114.81V112.468L98.3147 113.43L111.391 105.68C111.938 105.368 112.551 105.188 113.18 105.155C113.809 105.122 114.437 105.237 115.014 105.491L135.137 116.828L136.677 115.921L136.702 118.289C136.67 118.541 136.574 118.781 136.423 118.986C136.272 119.191 136.071 119.354 135.84 119.46L122.444 127.383C121.896 127.694 121.282 127.872 120.652 127.904C120.022 127.935 119.393 127.818 118.817 127.563Z" fill="#4164A9"/>
<path d="M120.361 128.161C119.785 128.176 119.213 128.044 118.702 127.777L97.6518 115.916C97.4558 115.823 97.2854 115.684 97.1552 115.51C97.025 115.337 96.9389 115.134 96.9043 114.92C96.8991 114.892 96.8991 114.863 96.9043 114.835V112.493C96.9024 112.445 96.9145 112.398 96.939 112.357C96.9635 112.317 96.9994 112.284 97.0423 112.263C97.0852 112.243 97.1332 112.235 97.1804 112.241C97.2276 112.247 97.2719 112.267 97.3079 112.298L98.3494 113.151L111.306 105.481C111.891 105.143 112.548 104.95 113.222 104.917C113.896 104.884 114.569 105.012 115.184 105.292L135.177 116.559L136.592 115.722C136.63 115.7 136.673 115.689 136.717 115.689C136.761 115.689 136.804 115.7 136.842 115.722C136.88 115.744 136.912 115.775 136.935 115.812C136.957 115.85 136.97 115.893 136.971 115.936L136.996 118.304C136.998 118.332 136.998 118.36 136.996 118.388C136.946 118.669 136.829 118.933 136.656 119.16C136.482 119.386 136.257 119.568 135.999 119.689L122.609 127.608C121.921 127.985 121.146 128.176 120.361 128.161ZM118.946 127.343C119.485 127.578 120.071 127.683 120.657 127.651C121.244 127.619 121.815 127.451 122.325 127.159L135.715 119.235C135.91 119.15 136.08 119.018 136.21 118.849C136.339 118.681 136.425 118.483 136.458 118.274C136.455 118.255 136.455 118.237 136.458 118.219V116.355L135.287 117.048C135.249 117.069 135.206 117.08 135.162 117.08C135.119 117.08 135.076 117.069 135.038 117.048L114.919 105.71C114.381 105.475 113.795 105.37 113.208 105.402C112.621 105.434 112.05 105.603 111.541 105.895L98.4342 113.654C98.39 113.679 98.339 113.691 98.2882 113.686C98.2374 113.682 98.1892 113.662 98.1501 113.629L97.3627 112.991V114.725C97.3656 114.747 97.3656 114.769 97.3627 114.79C97.3801 114.937 97.4351 115.076 97.5224 115.195C97.6098 115.314 97.7265 115.408 97.8611 115.468L118.946 127.343Z" fill="#4164A9"/>
<path d="M136.049 114.984L114.999 103.124C114.422 102.869 113.793 102.753 113.163 102.785C112.533 102.818 111.92 102.997 111.371 103.308L97.9808 111.232C96.9093 111.86 96.8047 112.802 97.7416 113.33L118.792 125.191C119.369 125.445 119.998 125.561 120.628 125.528C121.258 125.495 121.872 125.315 122.42 125.001L135.81 117.068C136.877 116.435 136.986 115.483 136.049 114.984Z" fill="#D2E1FF"/>
<path d="M120.332 125.774C119.755 125.788 119.185 125.658 118.672 125.395L97.617 113.529C97.4011 113.429 97.2163 113.273 97.0821 113.076C96.9479 112.88 96.8692 112.65 96.8545 112.413C96.8834 112.111 96.9906 111.823 97.1654 111.575C97.3403 111.328 97.5766 111.131 97.8512 111.003L111.247 103.079C111.831 102.742 112.487 102.549 113.16 102.517C113.833 102.484 114.505 102.611 115.119 102.89L136.174 114.75C136.39 114.851 136.575 115.009 136.709 115.206C136.844 115.403 136.922 115.633 136.936 115.871C136.907 116.173 136.8 116.462 136.625 116.709C136.451 116.956 136.214 117.154 135.94 117.282L122.544 125.2C121.869 125.582 121.106 125.779 120.332 125.774ZM113.464 103.024C112.778 103.018 112.102 103.19 111.501 103.522L98.1053 111.446C97.607 111.73 97.3479 112.084 97.3528 112.443C97.3695 112.591 97.4241 112.732 97.5115 112.852C97.5988 112.973 97.7158 113.069 97.8512 113.131L118.916 124.951C119.454 125.187 120.039 125.294 120.625 125.262C121.211 125.229 121.781 125.06 122.29 124.767L135.685 116.848C136.184 116.564 136.443 116.205 136.438 115.852C136.421 115.703 136.366 115.562 136.279 115.44C136.192 115.319 136.075 115.222 135.94 115.159L114.88 103.323C114.44 103.106 113.954 103.004 113.464 103.024Z" fill="#4164A9"/>
<path d="M113.968 111.895C114.74 111.436 114.73 110.704 113.968 110.265C113.527 110.047 113.042 109.937 112.551 109.942C112.06 109.947 111.577 110.068 111.142 110.295C110.369 110.754 110.374 111.481 111.142 111.925C111.582 112.141 112.067 112.251 112.558 112.246C113.049 112.241 113.532 112.121 113.968 111.895Z" fill="white"/>
<path d="M118.268 114.317C119.041 113.858 119.036 113.131 118.268 112.687C117.828 112.469 117.343 112.359 116.852 112.364C116.361 112.369 115.878 112.49 115.443 112.717C114.665 113.176 114.675 113.908 115.443 114.347C115.883 114.564 116.368 114.675 116.859 114.67C117.35 114.665 117.833 114.544 118.268 114.317Z" fill="white"/>
<path d="M122.569 116.744C123.346 116.285 123.337 115.553 122.569 115.114C122.129 114.896 121.644 114.786 121.153 114.791C120.662 114.796 120.179 114.917 119.743 115.144C118.971 115.602 118.976 116.33 119.743 116.774C120.184 116.991 120.669 117.101 121.16 117.096C121.651 117.091 122.134 116.97 122.569 116.744Z" fill="white"/>
<path d="M167.41 95.554C174.255 95.554 179.804 92.3501 179.804 88.3978C179.804 84.4455 174.255 81.2416 167.41 81.2416C160.566 81.2416 155.017 84.4455 155.017 88.3978C155.017 92.3501 160.566 95.554 167.41 95.554Z" fill="#D2E1FF"/>
<path d="M181.204 82.0339V79.4973H180.472C179.659 78.194 178.518 77.1269 177.163 76.4026C171.781 73.2929 163.045 73.2929 157.658 76.4026C156.304 77.1284 155.163 78.1952 154.349 79.4973H153.621V82.0139C153.621 84.0571 154.957 86.1053 157.658 87.6651C163.045 90.7748 171.781 90.7748 177.163 87.6651C179.859 86.1103 181.204 84.087 181.204 82.0339Z" fill="#4164A9"/>
<path d="M167.41 90.2417C163.837 90.2417 160.259 89.4543 157.533 87.8795C154.807 86.3048 153.362 84.2416 153.372 82.014V79.4974C153.372 79.4324 153.397 79.3698 153.442 79.323C153.465 79.2989 153.493 79.2798 153.524 79.267C153.555 79.2541 153.588 79.2477 153.621 79.2482H154.209C155.044 77.9662 156.187 76.9141 157.533 76.1884C162.98 73.0438 171.841 73.0438 177.288 76.1884C178.637 76.9125 179.782 77.9648 180.617 79.2482H181.205C181.271 79.2482 181.334 79.2745 181.381 79.3212C181.428 79.3679 181.454 79.4313 181.454 79.4974V82.034C181.454 84.2516 179.959 86.3297 177.293 87.8795C174.627 89.4294 170.989 90.2417 167.41 90.2417ZM153.87 79.7466V82.014C153.87 84.0572 155.251 86.0008 157.782 87.451C163.095 90.5158 171.736 90.5158 177.043 87.451C179.565 85.9908 180.955 84.0672 180.955 82.034V79.7466H180.457C180.414 79.7463 180.371 79.7347 180.333 79.7128C180.296 79.6909 180.265 79.6596 180.243 79.622C179.448 78.3619 178.339 77.3312 177.024 76.6319C171.716 73.5671 163.07 73.5671 157.768 76.6319C156.454 77.334 155.345 78.3641 154.548 79.622C154.527 79.6603 154.496 79.6922 154.458 79.7142C154.421 79.7361 154.378 79.7473 154.334 79.7466H153.87Z" fill="#4164A9"/>
<path d="M167.41 87.4609C175.029 87.4609 181.205 83.8955 181.205 79.4974C181.205 75.0992 175.029 71.5338 167.41 71.5338C159.792 71.5338 153.616 75.0992 153.616 79.4974C153.616 83.8955 159.792 87.4609 167.41 87.4609Z" fill="#D2E1FF"/>
<path d="M167.411 87.7051C163.837 87.7051 160.259 86.9177 157.533 85.3429C154.807 83.7681 153.367 81.7199 153.367 79.4973C153.367 77.2747 154.862 75.2016 157.533 73.6518C162.98 70.5072 171.841 70.5072 177.288 73.6518C179.974 75.2016 181.454 77.2797 181.454 79.4973C181.454 81.715 179.959 83.7931 177.293 85.3429C174.567 86.9177 170.989 87.7051 167.411 87.7051ZM167.411 71.783C163.922 71.783 160.434 72.5504 157.783 74.0803C155.256 75.5405 153.866 77.4641 153.866 79.4973C153.866 81.5306 155.261 83.4542 157.783 84.9143C163.095 87.9792 171.736 87.9792 177.044 84.9143C179.565 83.4542 180.956 81.5306 180.956 79.4973C180.956 77.4641 179.565 75.5405 177.039 74.0803C174.387 72.5504 170.899 71.783 167.411 71.783Z" fill="#4164A9"/>
<path d="M160.762 82.1336C160.664 82.0893 160.578 82.02 160.514 81.9326C160.451 81.8452 160.411 81.7427 160.398 81.6352V76.4475C160.398 76.0538 160.957 75.7299 161.644 75.7299C162.332 75.7299 162.88 76.0538 162.88 76.4525V80.7532L175.369 79.2233C176.036 79.1435 176.694 79.3877 176.839 79.7764C176.983 80.1651 176.555 80.5439 175.882 80.6236L161.893 82.3379C161.54 82.3864 161.179 82.3363 160.852 82.1934L160.762 82.1336Z" fill="white"/>
<defs>
<linearGradient id="paint0_linear" x1="188.818" y1="14.4128" x2="182.111" y2="172.044" gradientUnits="userSpaceOnUse">
<stop stop-color="#F4F7FC"/>
<stop offset="1" stop-color="#CAEDF3"/>
</linearGradient>
<linearGradient id="paint1_linear" x1="130.04" y1="12.1822" x2="119.884" y2="162.582" gradientUnits="userSpaceOnUse">
<stop stop-color="#F4F7FC"/>
<stop offset="1" stop-color="#D2E1FF"/>
</linearGradient>
<linearGradient id="paint2_linear" x1="230.99" y1="99.431" x2="226.091" y2="171.985" gradientUnits="userSpaceOnUse">
<stop stop-color="#F4F7FC"/>
<stop offset="1" stop-color="#D2E1FF"/>
</linearGradient>
<linearGradient id="paint3_linear" x1="36.8097" y1="45.4317" x2="8.86045" y2="134.42" gradientUnits="userSpaceOnUse">
<stop stop-color="#F4F7FC"/>
<stop offset="1" stop-color="#D2E1FF"/>
</linearGradient>
<linearGradient id="paint4_linear" x1="51.3227" y1="34.0663" x2="26.9763" y2="111.583" gradientUnits="userSpaceOnUse">
<stop stop-color="#F4F7FC"/>
<stop offset="1" stop-color="#5BC4D6"/>
</linearGradient>
</defs>
</svg>
