<svg width="57" height="79" viewBox="0 0 57 79" fill="none" xmlns="http://www.w3.org/2000/svg">
<path d="M56.0858 48.8975H0.00683594V62.6622C0.00683594 66.8078 2.71119 70.9534 8.10372 74.1111C19.0669 80.4267 36.8153 80.4267 47.7623 74.1111C53.2358 70.9534 55.9563 66.8078 55.9563 62.6622L56.0858 48.8975Z" fill="#4164A9"/>
<path d="M47.8749 60.8001C36.9279 67.1157 19.1795 67.1157 8.21631 60.8001C-2.74687 54.4846 -2.73067 44.2339 8.21631 37.9022C19.1633 31.5704 36.9279 31.5866 47.8749 37.9022C58.8218 44.2177 58.8218 54.4846 47.8749 60.8001Z" fill="#ECECEC"/>
<path d="M55.3238 44.9775H0.783203V48.6373C0.783203 52.6696 3.42281 56.7342 8.75056 59.7624C19.4061 65.9161 36.6686 65.9161 47.3079 59.7624C52.6357 56.6856 55.2752 52.6696 55.2752 48.6373L55.3238 44.9775Z" fill="#D2E1FF"/>
<path d="M47.3241 56.1031C36.6848 62.2567 19.4223 62.2567 8.7668 56.1031C-1.8887 49.9494 -1.8725 39.9093 8.7668 33.8366C19.4061 27.764 36.6848 27.6992 47.3241 33.8366C57.9634 39.9741 57.9796 49.9494 47.3241 56.1031Z" fill="#ECECEC"/>
<path d="M56.0858 32.7842H0.00683594V46.5651C0.00683594 50.6945 2.71119 54.8401 8.10372 57.9979C19.0669 64.3296 36.8153 64.3296 47.7623 57.9979C53.2358 54.7591 55.9563 50.6945 55.9563 46.5651L56.0858 32.7842Z" fill="#4164A9"/>
<path d="M28.0548 48.9783C43.5362 48.9783 56.0862 41.7281 56.0862 32.7846C56.0862 23.841 43.5362 16.5908 28.0548 16.5908C12.5735 16.5908 0.0234375 23.841 0.0234375 32.7846C0.0234375 41.7281 12.5735 48.9783 28.0548 48.9783Z" fill="#ECECEC"/>
<path d="M55.5357 28.3635H0.995117V32.0233C0.995117 36.0556 3.65087 40.1202 8.96242 43.1646C19.6179 49.3021 36.8805 49.3021 47.536 43.1646C52.8475 40.0878 55.5033 36.0556 55.4871 32.0233L55.5357 28.3635Z" fill="#D2E1FF"/>
<path d="M47.5523 39.4883C36.8968 45.6419 19.6342 45.6419 8.97871 39.4883C-1.67678 33.3346 -1.66059 23.2945 8.97871 17.238C19.618 11.1816 36.8968 11.0844 47.5523 17.238C58.2078 23.3917 58.1916 33.3508 47.5523 39.4883Z" fill="#ECECEC"/>
<path d="M56.2962 16.1851H0.233398V29.885C0.233398 34.0306 2.95395 38.1762 8.42744 41.334C19.3744 47.6495 37.1228 47.6495 48.0698 41.334C53.5433 38.0952 56.2638 34.0306 56.2638 29.885L56.2962 16.1851Z" fill="#4164A9"/>
<path d="M48.0852 27.6347C37.1382 33.9502 19.3899 33.9502 8.44287 27.6347C-2.50411 21.3191 -2.5203 11.0522 8.44287 4.73668C19.406 -1.57889 37.1382 -1.57889 48.0852 4.73668C59.0321 11.0522 58.9836 21.3029 48.0852 27.6347Z" fill="#ECECEC"/>
<path d="M7.29438 34.0315C7.15526 34.3093 6.93448 34.5379 6.66167 34.6865C6.38885 34.8352 6.07711 34.8968 5.76826 34.8631C5.45941 34.8294 5.16825 34.702 4.93391 34.498C4.69957 34.294 4.53326 34.0232 4.45731 33.722C4.38136 33.4207 4.39943 33.1034 4.50905 32.8127C4.61868 32.522 4.81464 32.2718 5.07061 32.0957C5.32657 31.9197 5.63025 31.8261 5.94093 31.8277C6.25161 31.8292 6.5544 31.9258 6.80859 32.1044C7.12457 32.2991 7.35211 32.6094 7.44284 32.9693C7.53357 33.3292 7.4803 33.7103 7.29438 34.0315Z" fill="white"/>
<path d="M12.3296 36.1847C12.2137 36.4681 12.0141 36.7094 11.7575 36.8765C11.5009 37.0436 11.1994 37.1285 10.8933 37.1198C10.5872 37.1112 10.2911 37.0095 10.0443 36.8283C9.7975 36.647 9.61177 36.3948 9.51195 36.1054C9.41213 35.8159 9.40293 35.5029 9.48556 35.208C9.56819 34.9132 9.73875 34.6505 9.97447 34.4551C10.2102 34.2596 10.4999 34.1407 10.8049 34.1141C11.11 34.0875 11.4159 34.1545 11.6819 34.3062C12.0161 34.4702 12.2719 34.7598 12.3933 35.1118C12.5146 35.4638 12.4918 35.8495 12.3296 36.1847Z" fill="white"/>
<path d="M7.29438 50.5327C7.15526 50.8105 6.93448 51.0391 6.66167 51.1877C6.38885 51.3364 6.07711 51.398 5.76826 51.3643C5.45941 51.3306 5.16825 51.2032 4.93391 50.9992C4.69957 50.7952 4.53326 50.5244 4.45731 50.2232C4.38136 49.9219 4.39943 49.6046 4.50905 49.3139C4.61868 49.0232 4.81464 48.773 5.07061 48.597C5.32657 48.4209 5.63025 48.3273 5.94093 48.3289C6.25161 48.3304 6.5544 48.427 6.80859 48.6057C7.12457 48.8003 7.35211 49.1106 7.44284 49.4705C7.53357 49.8304 7.4803 50.2115 7.29438 50.5327Z" fill="white"/>
<path d="M12.3312 52.6861C12.2186 52.9766 12.0196 53.2255 11.761 53.3993C11.5024 53.5731 11.1967 53.6634 10.8852 53.658C10.5737 53.6525 10.2714 53.5516 10.019 53.3689C9.76669 53.1861 9.57649 52.9303 9.47413 52.6361C9.37178 52.3418 9.36219 52.0232 9.44666 51.7233C9.53112 51.4234 9.7056 51.1567 9.94648 50.9591C10.1874 50.7615 10.4831 50.6426 10.7937 50.6184C11.1044 50.5942 11.4149 50.6659 11.6835 50.8238C12.0136 50.9878 12.2663 51.2746 12.3874 51.6228C12.5085 51.9709 12.4883 52.3527 12.3312 52.6861Z" fill="white"/>
<path d="M7.29469 67.0339C7.04281 67.2971 6.70497 67.4612 6.34242 67.4964C5.97988 67.5317 5.6167 67.4357 5.31885 67.2261C5.02099 67.0164 4.80819 66.7069 4.71909 66.3537C4.63 66.0005 4.6705 65.6271 4.83325 65.3012C5.08513 65.038 5.42302 64.874 5.78557 64.8387C6.14811 64.8034 6.51129 64.8994 6.80914 65.109C7.107 65.3187 7.3198 65.6283 7.4089 65.9814C7.49799 66.3346 7.45744 66.7081 7.29469 67.0339Z" fill="white"/>
<path d="M12.3312 69.1876C12.2186 69.4781 12.0196 69.727 11.761 69.9008C11.5024 70.0746 11.1967 70.1649 10.8852 70.1594C10.5737 70.154 10.2714 70.0531 10.019 69.8703C9.76669 69.6876 9.57649 69.4318 9.47413 69.1375C9.37178 68.8433 9.36219 68.5247 9.44666 68.2248C9.53112 67.9249 9.7056 67.6581 9.94648 67.4605C10.1874 67.2629 10.4831 67.144 10.7937 67.1198C11.1044 67.0956 11.4149 67.1673 11.6835 67.3253C12.0136 67.4892 12.2663 67.7761 12.3874 68.1242C12.5085 68.4724 12.4883 68.8541 12.3312 69.1876Z" fill="white"/>
<path d="M13.6424 6.64689C21.7393 1.96689 34.9048 1.96689 43.0179 6.64689C46.7587 8.81685 48.7667 11.505 49.0582 14.4199C49.382 11.1811 47.4388 7.76425 43.0179 5.23802C34.921 0.558028 21.7555 0.558028 13.6424 5.23802C9.2863 7.76425 7.26206 11.1326 7.60213 14.4199C7.82884 11.586 9.83688 8.83304 13.6424 6.64689Z" fill="#D4D4D4"/>
<path d="M13.6428 22.1927C21.7397 26.8889 34.9053 26.8889 43.0183 22.1927C46.7591 20.039 48.7671 17.3346 49.0586 14.4197C48.7671 11.5858 46.7591 8.81668 43.0183 6.64672C34.9215 1.96672 21.7559 1.96672 13.6428 6.64672C9.90207 8.81668 7.89403 11.5048 7.60254 14.4197C7.82925 17.2536 9.8373 20.039 13.6428 22.1927Z" fill="white"/>
<g style="mix-blend-mode:multiply" opacity="0.03">
<path d="M27.4559 24.8496C37.2044 24.8496 45.1071 20.1442 45.1071 14.3398C45.1071 8.53545 37.2044 3.83008 27.4559 3.83008C17.7074 3.83008 9.80469 8.53545 9.80469 14.3398C9.80469 20.1442 17.7074 24.8496 27.4559 24.8496Z" fill="#FCFCFC"/>
</g>
<g style="mix-blend-mode:multiply" opacity="0.06">
<path d="M27.4555 24.5093C36.891 24.5093 44.5399 19.9562 44.5399 14.3396C44.5399 8.72304 36.891 4.16992 27.4555 4.16992C18.02 4.16992 10.3711 8.72304 10.3711 14.3396C10.3711 19.9562 18.02 24.5093 27.4555 24.5093Z" fill="#F8F8F8"/>
</g>
<g style="mix-blend-mode:multiply" opacity="0.1">
<path d="M15.763 21.3027C19.3705 23.2018 23.3861 24.1942 27.463 24.1942C31.5399 24.1942 35.5555 23.2018 39.163 21.3027C45.6405 17.4647 45.6405 11.2301 39.163 7.37602C35.553 5.48492 31.5383 4.49707 27.463 4.49707C23.3876 4.49707 19.373 5.48492 15.763 7.37602C9.30166 11.2301 9.30166 17.4647 15.763 21.3027Z" fill="#F5F5F5"/>
</g>
<g style="mix-blend-mode:multiply" opacity="0.13">
<path d="M16.1525 21.0762C19.6466 22.9198 23.5375 23.8834 27.4881 23.8834C31.4387 23.8834 35.3297 22.9198 38.8238 21.0762C45.0746 17.3516 45.0746 11.36 38.8238 7.6192C35.3297 5.77558 31.4387 4.81201 27.4881 4.81201C23.5375 4.81201 19.6466 5.77558 16.1525 7.6192C9.91791 11.3276 9.91791 17.3516 16.1525 21.0762Z" fill="#D2E1FF"/>
</g>
</svg>
