<svg width="36" height="36" viewBox="0 0 36 36" fill="none" xmlns="http://www.w3.org/2000/svg">
<rect width="36" height="36" rx="12" fill="transparent"/>
<mask id="mask0" mask-type="alpha" maskUnits="userSpaceOnUse" x="6" y="6" width="24" height="24">
<rect x="6" y="6" width="24" height="24" fill="#C4C4C4"/>
</mask>
<g mask="url(#mask0)">
<path d="M18.0282 27.1896V27.6396H18.4782H27.6543C27.7678 27.6396 27.8597 27.7315 27.8597 27.8449C27.8597 27.9584 27.7677 28.0504 27.6543 28.0504H7.99137C7.87792 28.0504 7.78594 27.9584 7.78594 27.8449C7.78594 27.7315 7.87792 27.6395 7.99137 27.6395H17.1674H17.6174V27.1895V25.8787V25.4287H17.1674H14.093C13.1455 25.4287 12.3739 24.6571 12.3739 23.7096V21.4934C12.3739 21.0278 12.5601 20.605 12.8635 20.294L13.5062 19.6354C13.6827 19.7243 13.8821 19.7744 14.093 19.7744C14.093 19.7744 14.093 19.7744 14.093 19.7744H21.5526C21.7635 19.7744 21.9629 19.7243 22.1394 19.6354L22.7821 20.2941C23.0855 20.6051 23.2717 21.0278 23.2717 21.4935V23.7096C23.2717 24.6571 22.5001 25.4287 21.5526 25.4287H18.4782H18.0282V25.8787V27.1896ZM12.7848 18.4662C12.7848 18.9041 13.0007 19.2923 13.3318 19.5298H12.5414H11.3996C9.76622 19.5298 8.44137 18.1909 8.44137 16.531C8.44137 14.9732 9.61848 13.6943 11.1092 13.5466L11.5578 13.5021L11.5125 13.0536C11.3393 11.3372 12.9629 10.0208 14.5641 10.5417L14.9226 10.6584L15.1003 10.3258C15.861 8.90166 17.3525 7.94512 19.0464 7.94512C21.105 7.94512 22.8851 9.3633 23.3922 11.3595L23.4686 11.6601L23.7766 11.6957C25.6612 11.9139 27.2043 13.5389 27.2043 15.5999C27.2043 17.7718 25.46 19.5298 23.3285 19.5298H23.1042H22.3137C22.6449 19.2923 22.8608 18.9041 22.8608 18.4662V16.25C22.8608 15.5282 22.2744 14.9418 21.5526 14.9418H14.093C13.3713 14.9418 12.7848 15.5282 12.7848 16.25V18.4662ZM12.0978 13.6508L12.0978 13.6508C12.1612 13.7864 12.0615 13.9431 11.9117 13.9431H11.3996C9.98649 13.9431 8.85223 15.1118 8.85223 16.531C8.85223 17.7994 9.7517 18.8629 10.9496 19.0789V19.119H11.3996H11.9337H12.4275L12.3818 18.6274C12.3806 18.6152 12.3797 18.606 12.3788 18.5967C12.3711 18.5134 12.3739 18.429 12.3739 16.2501C12.3739 15.3026 13.1455 14.531 14.093 14.531H21.5526C22.5001 14.531 23.2716 15.3026 23.2716 16.2501C23.2716 18.4333 23.2738 18.5063 23.2677 18.5786C23.267 18.5869 23.2662 18.5952 23.2653 18.6067L23.2203 19.1614L23.7721 19.0893C25.4799 18.8663 26.7934 17.3825 26.7934 15.6C26.7934 13.6595 25.2476 12.0809 23.3284 12.0809C23.2277 12.0809 23.1727 12.0505 23.1435 12.0251C23.1121 11.9977 23.0886 11.9571 23.0811 11.9042L22.6355 11.9669L23.0811 11.9042C22.6545 8.87506 19.1828 7.32289 16.6909 9.11654L16.6908 9.11665C16.0141 9.60415 15.5051 10.2783 15.2201 11.064C15.1746 11.1892 15.023 11.2388 14.9124 11.1644L14.9124 11.1644C14.5963 10.9521 14.2271 10.8393 13.8464 10.8393C12.4078 10.8393 11.4973 12.366 12.0978 13.6508ZM12.7848 21.4934V23.7096C12.7848 24.4313 13.3712 25.0178 14.093 25.0178C14.093 25.0178 14.093 25.0178 14.0931 25.0178H21.5526C22.2744 25.0178 22.8608 24.4313 22.8608 23.7096V21.4934C22.8608 20.7717 22.2744 20.1852 21.5526 20.1852H14.093C13.3713 20.1852 12.7848 20.7717 12.7848 21.4934Z" fill="white" stroke="white" stroke-width="0.9"/>
<path d="M15.4038 17.3581C15.4038 17.4715 15.3119 17.5635 15.1984 17.5635C15.0849 17.5635 14.993 17.4715 14.993 17.3581C14.993 17.2446 15.0849 17.1526 15.1984 17.1526C15.3119 17.1526 15.4038 17.2446 15.4038 17.3581Z" fill="white" stroke="white" stroke-width="0.9"/>
<path d="M15.4038 22.6012C15.4038 22.7147 15.3119 22.8067 15.1984 22.8067C15.0849 22.8067 14.993 22.7147 14.993 22.6012C14.993 22.4878 15.0849 22.3958 15.1984 22.3958C15.3119 22.3958 15.4038 22.4878 15.4038 22.6012Z" fill="white" stroke="white" stroke-width="0.9"/>
<path d="M17.1632 17.1526H20.4404C20.5539 17.1526 20.6458 17.2446 20.6458 17.3581C20.6458 17.4715 20.5539 17.5635 20.4404 17.5635H17.1632C17.0498 17.5635 16.9578 17.4715 16.9578 17.3581C16.9578 17.2446 17.0498 17.1526 17.1632 17.1526Z" fill="white" stroke="white" stroke-width="0.9"/>
<path d="M20.4404 22.3958C20.5539 22.3958 20.6458 22.4878 20.6458 22.6012C20.6458 22.7147 20.5538 22.8067 20.4404 22.8067H17.1632C17.0498 22.8067 16.9578 22.7147 16.9578 22.6012C16.9578 22.4878 17.0498 22.3958 17.1632 22.3958H20.4404Z" fill="white" stroke="white" stroke-width="0.9"/>
</g>
</svg>
