<svg width="57" height="49" viewBox="0 0 57 49" fill="none" xmlns="http://www.w3.org/2000/svg">
<path d="M28.0314 48.9837C43.5127 48.9837 56.0628 41.7335 56.0628 32.7899C56.0628 23.8464 43.5127 16.5962 28.0314 16.5962C12.5501 16.5962 0 23.8464 0 32.7899C0 41.7335 12.5501 48.9837 28.0314 48.9837Z" fill="#ECECEC"/>
<path d="M55.4799 28.3691H0.97168V32.0289C0.97168 36.0612 3.61128 40.1258 8.93903 43.1541C19.5783 49.3077 36.8409 49.3077 47.4964 43.1541C52.8241 40.0772 55.4637 36.0612 55.4637 32.0289L55.4799 28.3691Z" fill="#D2E1FF"/>
<path d="M47.5273 39.4946C36.8718 45.6483 19.6092 45.6483 8.96992 39.4946C-1.66938 33.341 -1.68557 23.3009 8.96992 17.2282C19.6254 11.1556 36.8718 11.0908 47.5273 17.2282C58.1828 23.3657 58.1666 33.341 47.5273 39.4946Z" fill="#ECECEC"/>
<path d="M56.2728 16.1758H0.209961V29.9891C0.209961 34.1185 2.93051 38.2641 8.404 41.4219C19.351 47.7536 37.0994 47.7536 48.0463 41.4219C53.5198 38.2641 56.2404 34.1185 56.2404 29.9891L56.2728 16.1758Z" fill="#4164A9"/>
<path d="M48.0625 27.6245C37.1156 33.9563 19.3672 33.9563 8.4202 27.6245C-2.52678 21.2928 -2.52678 11.0583 8.4202 4.74275C19.3672 -1.57282 37.1156 -1.58901 48.0625 4.74275C59.0095 11.0745 59.0257 21.309 48.0625 27.6245Z" fill="#ECECEC"/>
<path d="M7.27026 34.0205C7.01805 34.2763 6.68348 34.4347 6.32576 34.4676C5.96804 34.5005 5.61018 34.4058 5.31552 34.2003C5.02087 33.9949 4.80841 33.6918 4.71567 33.3447C4.62293 32.9977 4.65589 32.629 4.80878 32.3039C5.04816 32.021 5.38835 31.8424 5.75719 31.8062C6.12602 31.7699 6.4945 31.8787 6.78442 32.1096C6.94194 32.203 7.07947 32.3266 7.18916 32.4733C7.29886 32.6199 7.37858 32.7868 7.42371 32.9643C7.46883 33.1418 7.47851 33.3264 7.45217 33.5077C7.42584 33.6889 7.36403 33.8632 7.27026 34.0205Z" fill="white"/>
<path d="M12.3245 36.1743C12.0967 36.4534 11.7773 36.6426 11.4231 36.7084C11.0689 36.7741 10.7028 36.7121 10.39 36.5334C10.0773 36.3546 9.83801 36.0708 9.71482 35.7322C9.59164 35.3937 9.59248 35.0225 9.71724 34.6845C9.92989 34.3829 10.2513 34.1755 10.6137 34.106C10.9762 34.0366 11.3514 34.1104 11.6605 34.3121C11.8269 34.3902 11.9761 34.5005 12.0997 34.6365C12.2232 34.7726 12.3185 34.9318 12.3803 35.1049C12.442 35.2781 12.4689 35.4617 12.4593 35.6452C12.4497 35.8288 12.4039 36.0086 12.3245 36.1743Z" fill="white"/>
<path d="M13.5544 6.65371C21.6513 1.95752 34.8169 1.95752 42.9299 6.65371C46.6707 8.80748 48.6787 11.5118 48.9702 14.4267C49.3103 11.188 47.3508 7.77109 42.9299 5.24486C34.8331 0.564864 21.6675 0.564864 13.5544 5.24486C9.19832 7.77109 7.19033 11.1232 7.5142 14.4267C7.80569 11.5928 9.81368 8.80748 13.5544 6.65371Z" fill="#D4D4D4"/>
<path d="M13.5529 22.1995C21.6498 26.8795 34.8154 26.8795 42.9284 22.1995C46.6692 20.0295 48.6772 17.3414 48.9687 14.4265C48.6772 11.5926 46.6692 8.80726 42.9284 6.65349C34.8316 1.9573 21.666 1.9573 13.5529 6.65349C9.81218 8.80726 7.80418 11.5116 7.5127 14.4265C7.80418 17.2604 9.81218 20.0295 13.5529 22.1995Z" fill="white"/>
<g style="mix-blend-mode:multiply" opacity="0.13">
<path d="M18.1525 21.0762C21.6466 22.9198 25.5375 23.8834 29.4881 23.8834C33.4387 23.8834 37.3297 22.9198 40.8238 21.0762C47.0746 17.3516 47.0746 11.36 40.8238 7.6192C37.3297 5.77558 33.4387 4.81201 29.4881 4.81201C25.5375 4.81201 21.6466 5.77558 18.1525 7.6192C11.9179 11.3276 11.9179 17.3516 18.1525 21.0762Z" fill="#D2E1FF"/>
</g>
</svg>
