<svg width="57" height="66" viewBox="0 0 57 66" fill="none" xmlns="http://www.w3.org/2000/svg">
<path d="M28.048 65.5501C43.5293 65.5501 56.0794 58.2999 56.0794 49.3564C56.0794 40.4128 43.5293 33.1626 28.048 33.1626C12.5667 33.1626 0.0166016 40.4128 0.0166016 49.3564C0.0166016 58.2999 12.5667 65.5501 28.048 65.5501Z" fill="#ECECEC"/>
<path d="M55.3017 45H0.777344V48.6598C0.777344 52.692 3.4169 56.7567 8.74465 59.7849C19.4001 65.9385 36.6627 65.9385 47.302 59.7849C52.6297 56.7081 55.2693 52.692 55.2693 48.6598L55.3017 45Z" fill="#D2E1FF"/>
<path d="M28.0476 60.7238C43.1086 60.7238 55.3179 53.6766 55.3179 44.9835C55.3179 36.2904 43.1086 29.2432 28.0476 29.2432C12.9867 29.2432 0.777344 36.2904 0.777344 44.9835C0.777344 53.6766 12.9867 60.7238 28.0476 60.7238Z" fill="#ECECEC"/>
<path d="M56.0142 32.79H0V46.6195C0 50.7651 2.72055 54.9107 8.19404 58.0685C19.141 64.4003 36.9056 64.4003 47.8525 58.0685C53.326 54.8297 56.0466 50.7651 56.0466 46.6195L56.0142 32.79Z" fill="#4164A9"/>
<path d="M28.048 48.9837C43.5293 48.9837 56.0794 41.7335 56.0794 32.79C56.0794 23.8464 43.5293 16.5962 28.048 16.5962C12.5667 16.5962 0.0166016 23.8464 0.0166016 32.79C0.0166016 41.7335 12.5667 48.9837 28.048 48.9837Z" fill="#ECECEC"/>
<path d="M55.5119 28.3689H0.955078V32.0449C0.955078 36.0771 3.59468 40.1418 8.92243 43.17C19.5779 49.3236 36.8405 49.3236 47.4798 43.17C52.8075 40.1094 55.4471 36.0771 55.4471 32.0449L55.5119 28.3689Z" fill="#D2E1FF"/>
<path d="M47.5273 39.4939C36.888 45.6475 19.6254 45.6475 8.96992 39.4939C-1.68557 33.3403 -1.66938 23.3811 8.96992 17.2437C19.6092 11.1062 36.888 11.09 47.5273 17.2437C58.1666 23.3973 58.1828 33.3565 47.5273 39.4939Z" fill="#ECECEC"/>
<path d="M56.289 16.1914H0.209961V29.9561C0.209961 34.1017 2.9143 38.2311 8.38779 41.4051C19.351 47.7207 37.0993 47.7207 48.0463 41.4051C53.5198 38.1663 56.2404 34.1017 56.2404 29.9561L56.289 16.1914Z" fill="#4164A9"/>
<path d="M48.079 27.6245C37.132 33.9563 19.3836 33.9563 8.42041 27.6245C-2.54276 21.2928 -2.52657 11.0583 8.42041 4.74275C19.3674 -1.57282 37.132 -1.58901 48.079 4.74275C59.0259 11.0745 59.0259 21.309 48.079 27.6245Z" fill="#ECECEC"/>
<path d="M7.28564 34.0364C7.14652 34.3142 6.92574 34.5427 6.65293 34.6914C6.38011 34.84 6.06832 34.9017 5.75947 34.868C5.45062 34.8343 5.15946 34.7069 4.92512 34.5029C4.69078 34.2989 4.52447 34.0281 4.44852 33.7268C4.37258 33.4256 4.39064 33.1083 4.50027 32.8176C4.60989 32.5269 4.80585 32.2767 5.06182 32.1006C5.31778 31.9245 5.62151 31.831 5.93219 31.8325C6.24287 31.8341 6.54561 31.9307 6.7998 32.1093C7.11262 32.3068 7.33754 32.617 7.42797 32.9757C7.5184 33.3344 7.46746 33.7142 7.28564 34.0364Z" fill="white"/>
<path d="M12.2905 36.1908C12.1746 36.4742 11.975 36.7155 11.7184 36.8826C11.4618 37.0497 11.1603 37.1346 10.8542 37.1259C10.5482 37.1173 10.252 37.0156 10.0052 36.8344C9.75842 36.6531 9.57274 36.401 9.47292 36.1115C9.3731 35.822 9.36385 35.509 9.44648 35.2141C9.52911 34.9193 9.69967 34.6566 9.93538 34.4612C10.1711 34.2657 10.4608 34.1468 10.7658 34.1202C11.0709 34.0936 11.3768 34.1606 11.6428 34.3123C11.9741 34.4795 12.2271 34.7693 12.348 35.12C12.469 35.4708 12.4484 35.855 12.2905 36.1908Z" fill="white"/>
<path d="M7.28564 50.5378C7.14652 50.8156 6.92574 51.0442 6.65293 51.1929C6.38011 51.3415 6.06832 51.4031 5.75947 51.3694C5.45062 51.3357 5.15946 51.2083 4.92512 51.0044C4.69078 50.8004 4.52447 50.5296 4.44852 50.2283C4.37258 49.9271 4.39064 49.6098 4.50027 49.3191C4.60989 49.0284 4.80585 48.7782 5.06182 48.6021C5.31778 48.426 5.62151 48.3324 5.93219 48.334C6.24287 48.3356 6.54561 48.4321 6.7998 48.6108C7.11262 48.8083 7.33754 49.1185 7.42797 49.4772C7.5184 49.8359 7.46746 50.2157 7.28564 50.5378Z" fill="white"/>
<path d="M12.2905 52.692C12.1746 52.9754 11.975 53.2167 11.7184 53.3838C11.4618 53.5509 11.1603 53.6358 10.8542 53.6272C10.5482 53.6186 10.252 53.5168 10.0052 53.3356C9.75842 53.1543 9.57274 52.9022 9.47292 52.6127C9.3731 52.3232 9.36385 52.0102 9.44648 51.7153C9.52911 51.4205 9.69967 51.1579 9.93538 50.9624C10.1711 50.767 10.4608 50.648 10.7658 50.6214C11.0709 50.5948 11.3768 50.6618 11.6428 50.8135C11.9741 50.9807 12.2271 51.2705 12.348 51.6213C12.469 51.9721 12.4484 52.3562 12.2905 52.692Z" fill="white"/>
<path d="M13.5714 6.65372C21.6682 1.97373 34.8337 1.97373 42.9468 6.65372C46.6876 8.80749 48.6956 11.5928 48.9871 14.4267C49.311 11.188 47.3677 7.77109 42.9468 5.24486C34.8499 0.564864 21.6844 0.564864 13.5714 5.24486C9.19905 7.77109 7.191 11.1232 7.53107 14.4267C7.80637 11.5928 9.8306 8.80749 13.5714 6.65372Z" fill="#D4D4D4"/>
<path d="M13.5696 22.1993C21.6665 26.8793 34.832 26.8793 42.945 22.1993C46.6858 20.0455 48.6938 17.3412 48.9853 14.4263C48.6938 11.5924 46.6858 8.80708 42.945 6.65331C34.8482 1.97331 21.6827 1.97331 13.5696 6.65331C9.82883 8.80708 7.80459 11.5924 7.5293 14.4263C7.80459 17.2602 9.82883 20.0455 13.5696 22.1993Z" fill="white"/>
<g style="mix-blend-mode:multiply" opacity="0.13">
<path d="M16.1525 21.0762C19.6466 22.9198 23.5375 23.8834 27.4881 23.8834C31.4387 23.8834 35.3297 22.9198 38.8238 21.0762C45.0746 17.3516 45.0746 11.36 38.8238 7.6192C35.3297 5.77558 31.4387 4.81201 27.4881 4.81201C23.5375 4.81201 19.6466 5.77558 16.1525 7.6192C9.91791 11.3276 9.91791 17.3516 16.1525 21.0762Z" fill="#D2E1FF"/>
</g>
</svg>
