<svg width="38" height="38" viewBox="0 0 38 38" fill="none" xmlns="http://www.w3.org/2000/svg">
<rect width="38" height="38" rx="10" fill="#4164A9"/>
<path d="M28.3459 27.7519H19.6091V26.5038H22.5363C23.6751 26.5038 24.6016 25.5773 24.6016 24.4385V22.3284C24.6016 21.7682 24.377 21.2597 24.0136 20.8872H24.2272C26.4983 20.8872 28.346 19.0164 28.346 16.7169C28.346 14.5334 26.7102 12.8063 24.7031 12.574C24.1733 10.4883 22.3111 9 20.1501 9C18.3722 9 16.8103 10.0041 16.0148 11.4934C14.1874 10.8988 12.3553 12.4024 12.5504 14.3355C10.9101 14.4981 9.62406 15.9016 9.62406 17.6034C9.62406 19.4152 11.072 20.8872 12.8692 20.8872H13.9564C13.593 21.2596 13.3684 21.7681 13.3684 22.3284V24.4385C13.3684 25.5773 14.2949 26.5037 15.4337 26.5037H18.3609V27.7519H9.62406C9.27942 27.7519 9 28.0313 9 28.3759C9 28.7206 9.27942 29 9.62406 29H28.3459C28.6906 29 28.97 28.7206 28.97 28.3759C28.97 28.0313 28.6906 27.7519 28.3459 27.7519ZM14.6166 19.446V17.3359C14.6166 16.8853 14.9831 16.5187 15.4337 16.5187H22.5363C22.9869 16.5187 23.3534 16.8853 23.3534 17.3359V19.446C23.3534 19.8966 22.9869 20.2631 22.5363 20.2631H15.4337C14.9831 20.2632 14.6166 19.8966 14.6166 19.446ZM12.8692 19.6391C11.7657 19.6391 10.8722 18.7293 10.8722 17.6035C10.8722 16.4811 11.768 15.5679 12.8692 15.5679H13.3567C13.8126 15.5679 14.1154 15.0933 13.9221 14.6796C13.4764 13.7261 14.1584 12.6126 15.1989 12.6126C15.4761 12.6126 15.7444 12.6945 15.9749 12.8493C16.3118 13.0757 16.7715 12.9248 16.9096 12.5442C17.1517 11.8768 17.5834 11.3052 18.1576 10.8916C20.2594 9.37869 23.2046 10.6815 23.5674 13.2578C23.6087 13.5511 23.8457 13.7948 24.2271 13.7948C25.8112 13.7948 27.0978 15.0993 27.0978 16.717C27.0978 18.2016 26.0042 19.4304 24.5941 19.6145C24.6046 19.4852 24.6015 19.6334 24.6015 17.336C24.6015 16.1972 23.6751 15.2707 22.5363 15.2707H15.4337C14.2949 15.2707 13.3684 16.1972 13.3684 17.336C13.3684 19.6174 13.3645 19.4975 13.3777 19.6392H12.8692V19.6391ZM14.6166 24.4385V22.3284C14.6166 21.8778 14.9831 21.5112 15.4337 21.5112H22.5363C22.9869 21.5112 23.3534 21.8778 23.3534 22.3284V24.4385C23.3534 24.8891 22.9869 25.2556 22.5363 25.2556H15.4337C14.9831 25.2557 14.6166 24.8891 14.6166 24.4385Z" fill="white"/>
<path d="M16.4893 19.015C16.834 19.015 17.1134 18.7356 17.1134 18.391C17.1134 18.0463 16.834 17.7669 16.4893 17.7669C16.1446 17.7669 15.8652 18.0463 15.8652 18.391C15.8652 18.7356 16.1446 19.015 16.4893 19.015Z" fill="white"/>
<path d="M16.4893 24.0075C16.834 24.0075 17.1134 23.7281 17.1134 23.3835C17.1134 23.0388 16.834 22.7594 16.4893 22.7594C16.1446 22.7594 15.8652 23.0388 15.8652 23.3835C15.8652 23.7281 16.1446 24.0075 16.4893 24.0075Z" fill="white"/>
<path d="M21.4817 17.7669H18.3614C18.0167 17.7669 17.7373 18.0463 17.7373 18.391C17.7373 18.7356 18.0167 19.015 18.3614 19.015H21.4817C21.8264 19.015 22.1057 18.7356 22.1057 18.391C22.1057 18.0463 21.8264 17.7669 21.4817 17.7669Z" fill="white"/>
<path d="M22.1057 23.3835C22.1057 23.0388 21.8264 22.7594 21.4817 22.7594H18.3614C18.0167 22.7594 17.7373 23.0388 17.7373 23.3835C17.7373 23.7281 18.0167 24.0075 18.3614 24.0075H21.4817C21.8264 24.0075 22.1057 23.7281 22.1057 23.3835Z" fill="white"/>
</svg>
