<svg width="154" height="149" viewBox="0 0 154 149" fill="none" xmlns="http://www.w3.org/2000/svg">
<path d="M0.864564 51.647C0.864564 51.647 -1.26369 52.491 1.15812 57.0044C3.57993 61.5544 5.23116 63.7928 5.23116 63.7928C5.23116 63.7928 5.67149 64.8569 4.75414 65.0037C3.83679 65.1871 1.892 64.8936 1.48836 65.9944C1.08473 67.1319 1.92869 68.1961 3.61662 69.1134C5.30455 70.0308 8.93727 72.159 9.26751 72.3792C9.59776 72.5627 9.92801 73.0764 9.3409 73.2965C8.7171 73.5167 4.31381 74.0671 4.68075 76.122C5.04769 78.1769 10.1849 79.9749 10.7353 80.195C11.2857 80.3785 11.3958 80.6354 11.3958 80.9656C11.3591 81.2959 9.85462 81.2959 8.57032 81.516C7.32273 81.7362 5.89166 82.1398 6.2219 83.3507C6.55215 84.5249 9.59776 86.9834 16.9366 87.6072L20.3491 87.6439L22.1471 84.7084C25.6698 78.2135 25.2294 74.324 24.4589 73.4066C23.6516 72.4893 22.4774 73.4433 21.6334 74.3974C20.7895 75.3514 19.9088 76.5623 19.6519 76.4155C19.3584 76.3055 19.2483 76.0486 19.3951 75.4615C19.5052 74.8744 20.8262 69.6271 19.285 68.1594C17.7438 66.6916 14.8817 70.1042 14.368 70.4711C13.8543 70.838 13.6341 70.3243 13.6341 69.9207C13.6708 69.517 13.8176 65.3339 14.0011 63.4258C14.1478 61.5177 13.7442 60.2334 12.5333 59.9399C11.3958 59.683 10.5518 61.481 9.92801 62.1048C9.30421 62.7653 8.64371 61.8113 8.64371 61.8113C8.64371 61.8113 7.68967 59.206 5.15777 54.6926C2.66258 50.2159 0.754482 51.5369 0.754482 51.5369" fill="#4164A9"/>
<path d="M3.02954 55.7202C3.02954 55.7202 3.06623 55.7569 3.10293 55.7936C3.13962 55.867 3.21301 55.9404 3.2864 56.0872C3.43318 56.344 3.61665 56.711 3.9102 57.1513C4.46061 58.0686 5.1578 59.4263 6.07515 61.0776C7.90986 64.38 10.3684 69.0035 13.0837 74.0673C15.7991 79.1677 18.2943 83.7545 20.0923 87.057C21.0097 88.7449 21.7068 90.0659 22.2206 90.9832C22.4774 91.4603 22.6609 91.7905 22.8077 92.0474C22.8811 92.1941 22.9177 92.2309 22.9544 92.3042C22.9911 92.3776 22.9911 92.4143 22.9911 92.4143C22.9911 92.4143 22.9544 92.3776 22.9177 92.3409C22.8811 92.2675 22.8077 92.1941 22.7343 92.0474C22.5875 91.7905 22.404 91.4236 22.1105 90.9832C21.5601 90.0659 20.8629 88.7082 19.9455 87.057C18.1108 83.7545 15.6523 79.131 12.9369 74.0306C10.1482 68.9668 7.72639 64.38 5.89168 61.0776C4.97433 59.3896 4.27714 58.0686 3.76342 57.1513C3.50656 56.6743 3.32309 56.344 3.17632 56.0872C3.10293 55.9404 3.06624 55.9037 3.02954 55.8303C3.02954 55.7569 3.02954 55.7202 3.02954 55.7202Z" fill="#263238"/>
<path d="M4.24072 66.5449C4.24072 66.5449 4.31411 66.5449 4.49758 66.5816C4.68105 66.6183 4.86452 66.6917 5.12138 66.8018C5.67179 66.9853 6.40567 67.2421 7.17625 67.5724C7.98352 67.9026 8.68071 68.1962 9.23112 68.3796C9.48798 68.4897 9.67145 68.5631 9.85492 68.6365C10.0017 68.7099 10.0751 68.7099 10.0751 68.7466C10.0751 68.7466 10.0017 68.7466 9.81823 68.7099C9.63476 68.6732 9.45128 68.5998 9.19443 68.4897C8.64401 68.3063 7.94683 68.0127 7.13956 67.7191C6.33229 67.3889 5.6351 67.132 5.08469 66.9119C4.82783 66.8018 4.60766 66.7651 4.46089 66.6917C4.3508 66.5816 4.24072 66.5449 4.24072 66.5449Z" fill="#263238"/>
<path d="M11.4693 65.1138C10.8088 66.9852 10.3317 68.5263 10.3684 68.563C10.4051 68.563 10.9555 67.0586 11.616 65.1872C12.2765 63.3158 12.7536 61.7746 12.7169 61.7379C12.6802 61.7013 12.0931 63.2424 11.4693 65.1138Z" fill="#263238"/>
<path d="M14.1479 76.5255C14.1479 76.5255 14.2213 76.4521 14.2947 76.3053C14.4048 76.1585 14.5149 75.975 14.6984 75.7182C15.0286 75.2412 15.5056 74.6174 15.946 73.8468C16.423 73.1129 16.8266 72.4157 17.1202 71.902C17.2303 71.6818 17.377 71.4617 17.4504 71.3149C17.5605 71.1681 17.5972 71.0947 17.5972 71.0947C17.5972 71.0947 17.5605 71.2048 17.5238 71.3149C17.4504 71.4617 17.3403 71.6818 17.2303 71.902C16.9367 72.4157 16.5331 73.0762 16.0927 73.8835C15.6157 74.6174 15.1387 75.2779 14.8084 75.7549C14.625 76.0117 14.4782 76.1585 14.3681 76.3053C14.258 76.4888 14.1846 76.5622 14.1479 76.5255Z" fill="#263238"/>
<path d="M8.27637 75.9385C8.27637 75.9385 8.38645 75.9385 8.53323 75.9385C8.68 75.9752 8.90017 75.9385 9.15703 75.9752C9.70744 76.0119 10.4413 76.0853 11.2486 76.1586C12.0559 76.232 12.7897 76.3054 13.3035 76.3788C13.5603 76.4155 13.7805 76.4522 13.9273 76.4522C14.074 76.4889 14.1474 76.4889 14.1474 76.4889C14.1474 76.4889 14.0373 76.4889 13.8906 76.4889C13.7438 76.4522 13.5236 76.4889 13.2668 76.4522C12.7164 76.4155 11.9825 76.3421 11.1752 76.2687C10.3679 76.1953 9.63405 76.1219 9.12033 76.0486C8.86347 76.0119 8.64331 75.9752 8.49653 75.9752C8.34975 75.9385 8.27637 75.9385 8.27637 75.9385Z" fill="#263238"/>
<path d="M10.7349 83.4238C10.7349 83.4238 10.8449 83.4238 11.0284 83.4238C11.2119 83.4238 11.5054 83.4238 11.8357 83.4605C12.4962 83.4972 13.4869 83.5706 14.5144 83.644C15.5418 83.7174 16.4958 83.7908 17.193 83.8642C17.5233 83.9008 17.8168 83.9375 18.0003 83.9375C18.1838 83.9375 18.2938 83.9742 18.2938 83.9742C18.2938 83.9742 18.1838 83.9742 18.0003 83.9742C17.8168 83.9742 17.5233 83.9742 17.193 83.9375C16.5325 83.9008 15.5418 83.8275 14.5144 83.7541C13.4869 83.6807 12.5329 83.6073 11.8357 83.5339C11.5054 83.4972 11.2119 83.4605 11.0284 83.4605C10.8449 83.4238 10.7349 83.4605 10.7349 83.4238Z" fill="#263238"/>
<path d="M18.1475 83.9744C18.1475 83.9744 18.1842 83.8643 18.3309 83.6808C18.4777 83.4974 18.6245 83.2405 18.808 82.9469C19.2116 82.3232 19.762 81.4792 20.3491 80.5251C20.9362 79.5711 21.4499 78.6904 21.8169 78.03C22.0003 77.7364 22.1471 77.4795 22.2572 77.2594C22.3306 77.0759 22.4407 76.9658 22.4407 76.9658C22.4407 76.9658 22.404 77.0759 22.3306 77.2594C22.2572 77.4428 22.1104 77.6997 21.927 78.03C21.5967 78.6904 21.083 79.5711 20.4959 80.5251C19.9088 81.4792 19.3584 82.3598 18.9547 82.9469C18.7346 83.2405 18.5511 83.4974 18.441 83.6441C18.2208 83.901 18.1475 83.9744 18.1475 83.9744Z" fill="#263238"/>
<path d="M53.4842 120.448C43.1365 120.448 33.4126 118.137 26.0738 113.88C18.5515 109.55 14.405 103.679 14.405 97.4045C14.405 91.1298 18.5515 85.2954 26.0738 80.9288C41.1917 72.1956 65.7768 72.1956 80.8947 80.9288C88.417 85.2587 92.5635 91.1298 92.5635 97.4045C92.5635 103.679 88.417 109.514 80.8947 113.88C73.5926 118.137 63.832 120.448 53.4842 120.448ZM53.4842 75.8283C43.8337 75.8283 34.1465 77.9566 26.8076 82.2131C19.7257 86.2861 15.8361 91.6802 15.8361 97.4412C15.8361 103.165 19.7257 108.596 26.8076 112.669C33.9263 116.779 43.3934 119.017 53.4842 119.017C63.5751 119.017 73.0789 116.742 80.1609 112.669C87.2428 108.596 91.1324 103.202 91.1324 97.4412C91.1324 91.7169 87.2428 86.2861 80.1609 82.2131C72.822 77.9566 63.1715 75.8283 53.4842 75.8283Z" fill="#2F3549"/>
<path d="M73.6297 109.073C62.5114 115.495 44.4578 115.495 33.3028 109.073C22.1845 102.652 22.1845 92.2307 33.3028 85.8093C44.4212 79.3878 62.4747 79.3878 73.6297 85.8093C84.7847 92.2307 84.7847 102.652 73.6297 109.073Z" fill="#141621"/>
<path d="M88.4165 85.0385V77.2961H85.7378C84.0499 74.9476 81.518 72.7093 78.1789 70.8012C64.5287 62.912 42.4388 62.912 28.8253 70.8012C25.4861 72.7093 22.9909 74.9476 21.2663 77.2961H18.5876V85.0385C18.5876 90.2124 22.0002 95.3496 28.8253 99.2758C42.4755 107.165 64.5653 107.165 78.1789 99.2758C85.004 95.3496 88.4165 90.1757 88.4165 85.0385Z" fill="#2F3549"/>
<path d="M78.1796 91.5335C64.5294 99.3861 42.4395 99.3861 28.826 91.5335C15.1758 83.6443 15.1758 70.9114 28.826 63.0222C42.4762 55.1697 64.5661 55.1697 78.1796 63.0222C91.7931 70.8747 91.7931 83.6443 78.1796 91.5335Z" fill="#5BC4D6"/>
<path d="M85.7381 76.966V66.3981H83.2796C81.7018 64.1964 79.3901 62.1782 76.3078 60.3802C63.7217 53.1148 43.3198 53.1148 30.697 60.3802C27.6147 62.1415 25.303 64.1964 23.7251 66.3981H21.2666V76.966C21.2666 81.7362 24.4223 86.5064 30.697 90.1391C43.2831 97.4046 63.685 97.4046 76.3078 90.1391C82.5824 86.5064 85.7381 81.7362 85.7381 76.966Z" fill="#141621"/>
<path d="M85.7381 74.4342V63.8663H83.2796C81.7018 61.6647 79.3901 59.6465 76.3078 57.8485C63.7217 50.5831 43.3198 50.5831 30.697 57.8485C27.6147 59.6098 25.303 61.6647 23.7251 63.8663H21.2666V74.4342C21.2666 79.2045 24.4223 83.9747 30.697 87.6074C43.2831 94.8728 63.685 94.8728 76.3078 87.6074C82.5824 83.9747 85.7381 79.2045 85.7381 74.4342Z" fill="#4164A9"/>
<path d="M76.2713 79.5712C63.6852 86.8367 43.2833 86.8367 30.6605 79.5712C18.0744 72.3058 18.0744 60.527 30.6605 53.2616C43.2466 45.9961 63.6485 45.9961 76.2713 53.2616C88.8941 60.527 88.8941 72.3058 76.2713 79.5712Z" fill="#BCBEFF"/>
<path d="M88.4165 66.2514V58.509H85.7378C84.0499 56.1605 81.518 53.9222 78.1789 52.0141C64.5287 44.1249 42.4388 44.1249 28.8253 52.0141C25.4861 53.9222 22.9909 56.1605 21.2663 58.509H18.5876V66.2514C18.5876 71.4253 22.0002 76.5625 28.8253 80.4887C42.4755 88.378 64.5653 88.378 78.1789 80.4887C85.004 76.5625 88.4165 71.3886 88.4165 66.2514Z" fill="#2F3549"/>
<path d="M78.1796 72.7459C64.5294 80.5985 42.4395 80.5985 28.826 72.7459C15.1758 64.8567 15.1758 52.1238 28.826 44.2346C42.4762 36.3821 64.5661 36.3821 78.1796 44.2346C91.7931 52.1238 91.7931 64.8934 78.1796 72.7459Z" fill="#5BC4D6"/>
<path d="M85.7381 57.8117V47.2438H83.2796C81.7018 45.0421 79.3901 43.0239 76.3078 41.2259C63.7217 33.9605 43.3198 33.9605 30.697 41.2259C27.6147 42.9872 25.303 45.0421 23.7251 47.2438H21.2666V57.8117C21.2666 62.5819 24.4223 67.3521 30.697 70.9848C43.2831 78.2503 63.685 78.2503 76.3078 70.9848C82.5824 67.3521 85.7381 62.5819 85.7381 57.8117Z" fill="#141621"/>
<path d="M85.7381 55.3898V44.8219H83.2796C81.7018 42.6202 79.3901 40.6021 76.3078 38.8041C63.7217 31.5386 43.3198 31.5386 30.697 38.8041C27.6147 40.5654 25.303 42.6202 23.7251 44.8219H21.2666V55.3898C21.2666 60.16 24.4223 64.9303 30.697 68.563C43.2831 75.8284 63.685 75.8284 76.3078 68.563C82.5824 64.9303 85.7381 60.16 85.7381 55.3898Z" fill="#4164A9"/>
<path d="M76.2713 60.4169C63.6852 67.6824 43.2833 67.6824 30.6605 60.4169C18.0744 53.1515 18.0744 41.3727 30.6605 34.1073C43.2466 26.8418 63.6485 26.8418 76.2713 34.1073C88.8941 41.336 88.8941 53.1148 76.2713 60.4169Z" fill="#BCBEFF"/>
<path d="M88.4165 47.0605V39.318H85.7378C84.0499 36.9696 81.518 34.7313 78.1789 32.8232C64.5287 24.9339 42.4388 24.9339 28.8253 32.8232C25.4861 34.7313 22.9909 36.9696 21.2663 39.318H18.5876V47.0605C18.5876 52.2344 22.0002 57.3715 28.8253 61.2978C42.4755 69.187 64.5653 69.187 78.1789 61.2978C85.004 57.3715 88.4165 52.2344 88.4165 47.0605Z" fill="#2F3549"/>
<path d="M78.1796 53.5921C64.5294 61.4447 42.4395 61.4447 28.826 53.5921C15.1758 45.7029 15.1758 32.97 28.826 25.0808C42.4762 17.2283 64.5661 17.2283 78.1796 25.0808C91.7931 32.9333 91.7931 45.7029 78.1796 53.5921Z" fill="#5BC4D6"/>
<path d="M85.7381 38.6207V28.0528H83.2796C81.7018 25.8512 79.3901 23.833 76.3078 22.035C63.7217 14.7696 43.3198 14.7696 30.697 22.035C27.6147 23.7963 25.303 25.8512 23.7251 28.0528H21.2666V38.6207C21.2666 43.391 24.4223 48.1612 30.697 51.7939C43.2831 59.0594 63.685 59.0594 76.3078 51.7939C82.5824 48.1612 85.7381 43.391 85.7381 38.6207Z" fill="#141621"/>
<path d="M85.7381 35.6852V25.1173H83.2796C81.7018 22.9156 79.3901 20.8975 76.3078 19.0995C63.7217 11.834 43.3198 11.834 30.697 19.0995C27.6147 20.8608 25.303 22.9156 23.7251 25.1173H21.2666V35.6852C21.2666 40.4554 24.4223 45.2257 30.697 48.8584C43.2831 56.1238 63.685 56.1238 76.3078 48.8584C82.5824 45.2257 85.7381 40.4554 85.7381 35.6852Z" fill="#4164A9"/>
<path d="M76.2713 41.226C63.6852 48.4915 43.2833 48.4915 30.6605 41.226C18.0744 33.9606 18.0744 22.1818 30.6605 14.9164C43.2466 7.65093 63.6485 7.65093 76.2713 14.9164C88.8941 22.1818 88.8941 33.9606 76.2713 41.226Z" fill="#BCBEFF"/>
<path d="M88.4172 27.9062V20.1637H85.7386C84.0507 17.8153 81.5188 15.577 78.1796 13.6689C64.5294 5.77964 42.4395 5.77964 28.826 13.6689C25.4869 15.577 22.9917 17.8153 21.267 20.1637H18.5884V27.9062C18.5884 33.0801 22.0009 38.2172 28.826 42.1435C42.4762 50.0327 64.5661 50.0327 78.1796 42.1435C85.0047 38.2172 88.4172 33.0434 88.4172 27.9062Z" fill="url(#paint0_linear)"/>
<path d="M78.1793 34.4007C64.5291 42.2532 42.4393 42.2532 28.8258 34.4007C15.1756 26.5115 15.1756 13.7786 28.8258 5.8894C42.476 -1.96313 64.5658 -1.96313 78.1793 5.8894C91.7928 13.7786 91.7928 26.5482 78.1793 34.4007Z" fill="#BCBEFF"/>
<path d="M78.1793 34.4007C64.5291 42.2532 42.4393 42.2532 28.8258 34.4007C15.1756 26.5115 15.1756 13.7786 28.8258 5.8894C42.476 -1.96313 64.5658 -1.96313 78.1793 5.8894C91.7928 13.7786 91.7928 26.5482 78.1793 34.4007Z" fill="#BCBEFF"/>
<path d="M88.4172 27.9062V20.1637H85.7386C84.0507 17.8153 81.5188 15.577 78.1796 13.6689C64.5294 5.77964 42.4395 5.77964 28.826 13.6689C25.4869 15.577 22.9917 17.8153 21.267 20.1637H18.5884V27.9062C18.5884 33.0801 22.0009 38.2172 28.826 42.1435C42.4762 50.0327 64.5661 50.0327 78.1796 42.1435C85.0047 38.2172 88.4172 33.0434 88.4172 27.9062Z" fill="#2F3549"/>
<path d="M78.1793 34.4007C64.5291 42.2532 42.4393 42.2532 28.8258 34.4007C15.1756 26.5115 15.1756 13.7786 28.8258 5.8894C42.476 -1.96313 64.5658 -1.96313 78.1793 5.8894C91.7928 13.7786 91.7928 26.5482 78.1793 34.4007Z" fill="#BCBEFF"/>
<path d="M78.1793 34.4007C64.5291 42.2532 42.4393 42.2532 28.8258 34.4007C15.1756 26.5115 15.1756 13.7786 28.8258 5.8894C42.476 -1.96313 64.5658 -1.96313 78.1793 5.8894C91.7928 13.7786 91.7928 26.5482 78.1793 34.4007Z" fill="#5BC4D6"/>
<path d="M78.3632 33.777C64.713 41.6295 42.6231 41.6295 29.0096 33.777C20.6434 28.97 17.451 22.2917 19.3224 16.0537C17.0473 22.4752 20.203 29.4104 28.8261 34.3641C42.4763 42.2533 64.5662 42.2533 78.1797 34.3641C83.4637 31.3185 86.6927 27.539 87.867 23.576C86.546 27.3555 83.3903 30.9148 78.3632 33.777Z" fill="white"/>
<path d="M78.3632 52.9679C64.713 60.8204 42.6231 60.8204 29.0096 52.9679C20.6434 48.161 17.451 41.4826 19.3224 35.2446C17.0473 41.6661 20.203 48.6013 28.8261 53.555C42.4763 61.4442 64.5662 61.4442 78.1797 53.555C83.4637 50.5094 86.6927 46.7299 87.867 42.7669C86.546 46.5097 83.3903 50.069 78.3632 52.9679Z" fill="white"/>
<path d="M78.3632 72.1222C64.713 79.9747 42.6231 79.9747 29.0096 72.1222C20.6434 67.3152 17.451 60.6369 19.3224 54.3989C17.0473 60.8204 20.203 67.7556 28.8261 72.7093C42.4763 80.5985 64.5662 80.5985 78.1797 72.7093C83.4637 69.6637 86.6927 65.8842 87.867 61.9212C86.546 65.7007 83.3903 69.26 78.3632 72.1222Z" fill="white"/>
<path d="M78.3632 91.3136C64.713 99.1661 42.6231 99.1661 29.0096 91.3136C20.6434 86.5067 17.451 79.8283 19.3224 73.5903C17.0473 80.0118 20.203 86.947 28.8261 91.9007C42.4763 99.7899 64.5662 99.7899 78.1797 91.9007C83.4637 88.8551 86.6927 85.0756 87.867 81.1126C86.546 84.8554 83.3903 88.4148 78.3632 91.3136Z" fill="white"/>
<path d="M71.4273 18.2552V14.2922H70.0696C69.1889 13.0813 67.9047 11.9438 66.18 10.953C59.1715 6.91669 47.833 6.91669 40.8244 10.953C39.0998 11.9438 37.8155 13.0813 36.9348 14.2922H35.5771V18.2552C35.5771 20.8971 37.3385 23.5391 40.8244 25.5573C47.833 29.5936 59.1715 29.5936 66.18 25.5573C69.666 23.5758 71.4273 20.9338 71.4273 18.2552Z" fill="#2F3549"/>
<path d="M66.1807 21.5945C59.1721 25.6308 47.8336 25.6308 40.825 21.5945C33.8165 17.5581 33.8165 10.9899 40.825 6.95353C47.8336 2.91718 59.1721 2.91718 66.1807 6.95353C73.1525 11.0266 73.1525 17.5581 66.1807 21.5945Z" fill="#BCBEFF"/>
<path d="M66.1807 21.5945C59.1721 25.6308 47.8336 25.6308 40.825 21.5945C33.8165 17.5581 33.8165 10.9899 40.825 6.95353C47.8336 2.91718 59.1721 2.91718 66.1807 6.95353C73.1525 11.0266 73.1525 17.5581 66.1807 21.5945Z" fill="#86E5EA"/>
<path d="M62.0339 19.2093C57.337 21.9246 49.668 21.9246 44.9711 19.2093C43.5034 18.3653 42.4759 17.3379 41.9255 16.2737C40.7146 13.8886 43.7602 12.2007 46.9893 10.3293C51.6862 7.61392 55.062 6.91673 59.7589 9.66879C62.9879 11.5402 66.2904 13.9253 65.0795 16.3104C64.4924 17.3379 63.5017 18.3653 62.0339 19.2093Z" fill="#141621"/>
<path d="M44.9712 13.3384C49.6681 10.623 57.3372 10.623 62.034 13.3384C63.5018 14.1823 64.5292 15.2098 65.0796 16.2739C66.2905 13.8888 65.2998 11.2468 62.034 9.37539C57.3372 6.66003 49.6681 6.66003 44.9712 9.37539C41.7422 11.2468 40.7147 13.9255 41.9256 16.2739C42.476 15.2098 43.5035 14.1823 44.9712 13.3384Z" fill="#5BC4D6"/>
<g opacity="0.51">
<path opacity="0.51" d="M78.2754 83.6271C78.5815 84.0559 79.2843 84.079 79.8451 83.6787C80.4059 83.2784 80.6124 82.6062 80.3063 82.1774C80.0001 81.7485 79.2973 81.7254 78.7365 82.1257C78.1757 82.5261 77.9693 83.1982 78.2754 83.6271Z" fill="#6767C1"/>
</g>
<path d="M87.9038 56.0501C86.5828 54.3254 84.5646 53.1879 82.4364 52.6008C81.2988 52.2706 80.0879 52.0504 78.9871 52.4907C77.8863 52.9311 77.1157 54.2887 77.5927 55.3529C77.923 55.9767 78.5835 56.3436 79.2073 56.6372C80.7484 57.3343 82.5464 57.8481 83.3537 59.3892C83.794 60.2332 83.8307 61.334 84.5279 61.9945C85.1884 62.655 86.3993 62.5816 87.1699 62.0679C87.9772 61.5542 88.3808 60.6368 88.601 59.7195C88.6377 59.6828 89.2982 57.8114 87.9038 56.0501Z" fill="#E8505B"/>
<path d="M87.9038 56.0501C86.5828 54.3254 84.5646 53.1879 82.4364 52.6008C81.2988 52.2706 80.0879 52.0504 78.9871 52.4907C77.8863 52.9311 77.1157 54.2887 77.5927 55.3529C77.923 55.9767 78.5835 56.3436 79.2073 56.6372C80.7484 57.3343 82.5464 57.8481 83.3537 59.3892C83.794 60.2332 83.8307 61.334 84.5279 61.9945C85.1884 62.655 86.3993 62.5816 87.1699 62.0679C87.9772 61.5542 88.3808 60.6368 88.601 59.7195C88.6377 59.6828 89.2982 57.8114 87.9038 56.0501Z" fill="#4164A9"/>
<path d="M95.6828 50.1422C93.8848 51.1697 92.0501 49.7019 91.463 48.2341C90.9493 46.8398 91.1694 45.2619 91.3896 43.7941C91.94 40.3816 92.5271 36.8956 94.6554 34.1436C95.2425 33.2996 96.0498 32.6024 97.0038 32.1988C97.9579 31.7952 99.1321 31.8686 99.9026 32.6024C100.857 33.373 100.967 34.7674 101.04 35.9416C101.04 39.4642 100.27 43.0236 98.7651 46.2527C98.0312 47.7938 97.1139 49.2983 95.6828 50.1422Z" fill="#E8505B"/>
<path d="M95.6828 50.1422C93.8848 51.1697 92.0501 49.7019 91.463 48.2341C90.9493 46.8398 91.1694 45.2619 91.3896 43.7941C91.94 40.3816 92.5271 36.8956 94.6554 34.1436C95.2425 33.2996 96.0498 32.6024 97.0038 32.1988C97.9579 31.7952 99.1321 31.8686 99.9026 32.6024C100.857 33.373 100.967 34.7674 101.04 35.9416C101.04 39.4642 100.27 43.0236 98.7651 46.2527C98.0312 47.7938 97.1139 49.2983 95.6828 50.1422Z" fill="#4164A9"/>
<path d="M97.5915 53.7384C97.0777 51.7569 97.8483 49.6654 99.1693 48.1242C100.49 46.6197 102.435 45.7024 104.343 45.152C106.582 44.4915 109.003 44.308 111.352 44.4915C112.269 44.5649 113.223 44.7483 114.03 45.2621C114.838 45.7758 115.498 46.5464 115.498 47.4637C115.535 48.8581 114.361 49.8855 113.223 50.6928C111.242 52.1239 109.224 53.3715 107.059 54.509C105.334 55.3529 103.463 56.1969 101.518 56.0501C99.573 55.9034 97.9584 55.0227 97.5548 53.4448" fill="#4164A9"/>
<path d="M84.7117 73.4431C84.7117 73.4431 84.7484 73.1862 84.9318 72.7092C85.1153 72.1588 85.3355 71.535 85.6657 70.691C85.996 69.8837 86.3262 68.8563 86.5831 67.6821C86.8399 66.5446 87.0234 65.2603 87.1335 63.8659C87.2069 62.5082 87.1335 61.1872 86.8399 60.0864C86.5464 58.9122 86.1061 57.9582 85.519 57.261C84.9318 56.5638 84.3814 56.1235 83.9778 55.8666C83.5375 55.6097 83.354 55.4263 83.354 55.4263C83.354 55.4263 83.5742 55.5363 84.0879 55.7565C84.5282 56.0134 85.152 56.4537 85.7024 57.1509C86.2528 57.8481 86.8399 58.8388 87.1335 60.013C87.427 61.1872 87.4637 62.5082 87.4637 63.9026C87.3537 65.297 87.1702 66.5813 86.9133 67.7922C86.6198 68.9664 86.2528 69.9571 85.9226 70.8011C85.5923 71.6084 85.2988 72.3055 85.0786 72.7459C84.8952 73.1862 84.7484 73.4798 84.7117 73.4431Z" fill="#141621"/>
<path d="M85.2622 71.9018C85.2622 71.9018 85.2989 71.7917 85.409 71.5716C85.5191 71.3514 85.6658 71.0212 85.8493 70.6542C86.2162 69.8469 86.7667 68.6727 87.4638 67.205C88.7481 64.3061 90.3994 60.1597 91.9772 55.5729C93.5918 50.9495 94.766 46.7297 95.5365 43.6474C95.7567 42.8401 95.9035 42.1429 96.0503 41.5191C96.197 40.8953 96.3071 40.3816 96.3805 39.9412C96.4539 39.5009 96.5273 39.1707 96.564 38.9138C96.6007 38.657 96.6741 38.5469 96.6741 38.5469C96.6741 38.5469 96.674 38.6936 96.6374 38.8771C96.6007 39.134 96.564 39.4642 96.4906 39.9046C96.4172 40.3449 96.3071 40.8586 96.2337 41.5191C96.1236 42.1796 95.9769 42.8401 95.7934 43.6474C95.0962 46.7664 93.8853 51.0229 92.2708 55.6463C90.6562 60.2698 89.005 64.3061 87.6106 67.2784C86.9134 68.7461 86.3263 69.8469 85.9594 70.6909C85.7759 71.0945 85.5925 71.3514 85.4824 71.5716C85.3723 71.8284 85.2622 71.9018 85.2622 71.9018Z" fill="#141621"/>
<path d="M88.9312 64.1962C88.9312 64.1962 89.0779 63.8659 89.3715 63.2421C89.7017 62.655 90.2154 61.7744 90.9493 60.7469C91.6465 59.6828 92.5272 58.5086 93.6647 57.3344C94.7288 56.0868 96.0131 54.8392 97.4075 53.5549C100.233 51.023 103.242 49.2984 105.554 48.4544C106.141 48.2342 106.691 48.0875 107.168 47.9774C107.425 47.904 107.645 47.8673 107.792 47.7939C108.012 47.7572 108.196 47.6838 108.379 47.7205C109.04 47.6104 109.406 47.5737 109.48 47.6104C109.517 47.6838 107.939 47.8673 105.664 48.7113C103.389 49.5919 100.416 51.3899 97.6277 53.8484C96.2333 55.0593 94.949 56.3436 93.8849 57.5545C92.784 58.7654 91.8667 59.9397 91.1695 60.8937C90.4356 61.8477 89.9219 62.7284 89.555 63.3155C89.1513 63.8659 88.9312 64.1962 88.9312 64.1962Z" fill="#141621"/>
<path d="M41.9249 148.226C41.7048 148.226 41.5213 148.116 41.4112 147.932C41.2278 147.639 41.3378 147.272 41.6314 147.088L64.235 133.512C64.5285 133.328 64.8955 133.438 65.0789 133.732C65.2624 134.025 65.1523 134.392 64.8588 134.576L42.2552 148.153C42.1451 148.189 42.035 148.226 41.9249 148.226Z" fill="#2F3549"/>
<path d="M74.6926 139.273C73.9221 139.273 73.1515 139.089 72.5277 138.722L56.6392 129.549C55.942 129.145 55.5383 128.558 55.5383 127.934C55.5383 127.384 55.8686 126.907 56.419 126.577L132.779 82.4702C133.807 81.8831 135.531 81.9198 136.706 82.617L152.594 91.7906C153.291 92.1942 153.695 92.7813 153.695 93.4051C153.695 93.9555 153.365 94.4325 152.814 94.7628L76.454 138.869C75.9769 139.163 75.3531 139.273 74.6926 139.273ZM134.504 83.3142C134.064 83.3142 133.66 83.3876 133.367 83.5711L57.0061 127.677C56.8226 127.787 56.7492 127.898 56.7492 127.971C56.7492 128.118 56.896 128.338 57.263 128.521L73.1515 137.695C73.9221 138.135 75.2064 138.209 75.8669 137.842L152.227 93.7353C152.411 93.6253 152.484 93.5152 152.484 93.4418C152.484 93.295 152.337 93.0749 151.97 92.8914L136.082 83.7179C135.642 83.461 135.054 83.3142 134.504 83.3142Z" fill="#2F3549"/>
<path d="M121.845 57.0047C119.826 58.1789 117.955 59.7935 116.23 61.7383C113.882 54.216 106.727 51.8676 98.2503 56.7479C91.2417 60.7842 85.1505 68.7468 81.9214 77.1865C80.8573 77.2232 79.6464 77.5901 78.3988 78.2873C73.812 80.9293 70.1059 87.3508 70.1059 92.6347C70.1059 92.7448 70.1059 92.8549 70.1059 92.965C68.7849 93.0383 67.3538 93.5154 65.8494 94.396C60.015 97.7719 55.2815 105.991 55.2815 112.743C55.2815 119.495 60.015 122.21 65.8494 118.871L121.808 86.5802C128.853 82.5071 134.577 72.5997 134.577 64.4536C134.614 56.2342 128.89 52.9317 121.845 57.0047Z" fill="url(#paint1_linear)"/>
<path d="M121.845 57.0046C120.671 57.6651 119.57 58.509 118.469 59.4631L112.231 55.8304C108.782 53.4085 103.828 53.5186 98.2876 56.711C91.2791 60.7474 85.1878 68.71 81.9588 77.1496C80.8946 77.1863 79.6837 77.5533 78.4361 78.2505C73.8494 80.8924 70.1433 87.3139 70.1433 92.5978C70.1433 92.7079 70.1433 92.818 70.1433 92.9281C68.8223 93.0015 67.3912 93.4785 65.8867 94.3592C60.0524 97.735 55.3188 105.955 55.3188 112.706C55.3188 116.045 56.4931 118.394 58.3645 119.531L58.4012 119.568L73.7393 128.448L77.0784 112.339L121.845 86.5066C128.891 82.4336 134.615 72.5262 134.615 64.3801C134.615 56.234 128.891 52.9315 121.845 57.0046Z" fill="url(#paint2_radial)"/>
<path d="M146.467 65.1874L130.945 56.1606C128.634 54.7662 125.405 54.9497 121.845 57.0046C120.671 57.6651 119.57 58.509 118.469 59.4631L112.231 55.8304C108.782 53.4085 103.828 53.5186 98.2876 56.711C91.2791 60.7474 85.1878 68.71 81.9588 77.1496C80.8946 77.1863 79.6837 77.5533 78.4361 78.2505C73.8494 80.8924 70.1433 87.3139 70.1433 92.5978C70.1433 92.7079 70.1433 92.818 70.1433 92.9281C68.8223 93.0015 67.3912 93.4785 65.8867 94.3592C60.0524 97.735 55.3188 105.955 55.3188 112.706C55.3188 116.045 56.4931 118.394 58.3645 119.531L58.4012 119.568L73.7393 128.448L77.0784 112.339L121.845 86.5066C127.57 83.2042 132.413 76.0855 134.028 69.1503L146.467 65.1874Z" fill="#5BC4D6"/>
<path d="M137.219 65.9579C135.201 67.1321 133.33 68.7466 131.605 70.6914C129.256 63.1691 122.101 60.8207 113.625 65.701C106.616 69.7374 100.525 77.7 97.2959 86.1396C96.2318 86.1763 95.0209 86.5432 93.7733 87.2404C89.1865 89.8824 85.4804 96.3039 85.4804 101.588C85.4804 101.698 85.4804 101.808 85.4804 101.918C84.1594 101.991 82.7284 102.468 81.2239 103.349C75.3895 106.725 70.656 114.944 70.656 121.696C70.656 128.448 75.3895 131.163 81.2239 127.824L137.182 95.5333C144.228 91.4603 149.952 81.5529 149.952 73.4068C149.989 65.1873 144.264 61.8848 137.219 65.9579Z" fill="#4164A9"/>
<path d="M131.606 70.6548C133.294 68.71 135.202 67.0954 137.22 65.9212C141.55 63.426 145.366 63.7196 147.678 66.1414C145.403 63.3159 141.403 62.8389 136.853 65.4809C134.908 66.6184 133.074 68.1596 131.422 70.031C131.459 70.2511 131.532 70.4713 131.606 70.6548Z" fill="white"/>
<path d="M70.6931 121.623C70.6931 114.871 75.4266 106.651 81.261 103.276C82.7655 102.395 84.2332 101.955 85.5175 101.845C85.5175 101.734 85.5175 101.624 85.5175 101.514C85.5175 96.2304 89.2236 89.8089 93.8104 87.1669C95.058 86.4331 96.2689 86.1028 97.333 86.0661C100.562 77.6265 106.653 69.7005 113.662 65.6275C120.083 61.9214 125.734 62.3617 129.11 66.0678C125.771 61.9581 119.937 61.371 113.295 65.1872C106.286 69.2235 100.195 77.1861 96.9661 85.6258C95.902 85.6625 94.6911 86.0294 93.4435 86.7266C88.8567 89.3686 85.1506 95.79 85.1506 101.074C85.1506 101.184 85.1506 101.294 85.1506 101.404C83.8296 101.478 82.3985 101.955 80.8941 102.835C75.0597 106.211 70.3262 114.431 70.3262 121.182C70.3262 123.824 71.0601 125.843 72.3077 127.127C71.2802 125.879 70.6931 124.008 70.6931 121.623Z" fill="white"/>
<defs>
<linearGradient id="paint0_linear" x1="18.5822" y1="27.8991" x2="88.4003" y2="27.8991" gradientUnits="userSpaceOnUse">
<stop stop-color="#5761D7"/>
<stop offset="0.1779" stop-color="#5C66D9"/>
<stop offset="0.3876" stop-color="#6A73DF"/>
<stop offset="0.6134" stop-color="#8289E8"/>
<stop offset="0.849" stop-color="#A3A7F5"/>
<stop offset="1" stop-color="#BCBEFF"/>
</linearGradient>
<linearGradient id="paint1_linear" x1="55.3053" y1="103.248" x2="134.608" y2="103.248" gradientUnits="userSpaceOnUse">
<stop stop-color="#5761D7"/>
<stop offset="0.1779" stop-color="#5C66D9"/>
<stop offset="0.3876" stop-color="#6A73DF"/>
<stop offset="0.6134" stop-color="#8289E8"/>
<stop offset="0.849" stop-color="#A3A7F5"/>
<stop offset="1" stop-color="#BCBEFF"/>
</linearGradient>
<radialGradient id="paint2_radial" cx="0" cy="0" r="1" gradientUnits="userSpaceOnUse" gradientTransform="translate(73.9432 79.444) scale(37.829)">
<stop stop-color="#2B237C"/>
<stop offset="1" stop-color="#180D5B"/>
</radialGradient>
</defs>
</svg>
