<svg width="56" height="56" viewBox="0 0 56 56" fill="none" xmlns="http://www.w3.org/2000/svg">
	<path d="M56 28C56 12.536 43.464 0 28 0C12.536 0 0 12.536 0 28C0 43.464 12.536 56 28 56C43.464 56 56 43.464 56 28Z" fill="#D7DCE3"/>
	<path d="M50 28C50 15.8497 40.1503 6 28 6C15.8497 6 6 15.8497 6 28C6 40.1503 15.8497 50 28 50C40.1503 50 50 40.1503 50 28Z" fill="#F3F5F8"/>
	<path d="M25 31C25 29.7 24.2 28.6 23 28.2V19C23 18.4 22.6 18 22 18C21.4 18 21 18.4 21 19V28.2C19.8 28.6 19 29.7 19 31C19 32.3 19.8 33.4 21 33.8V37C21 37.6 21.4 38 22 38C22.6 38 23 37.6 23 37V33.8C24.2 33.4 25 32.3 25 31ZM22 32C21.4 32 21 31.6 21 31C21 30.4 21.4 30 22 30C22.6 30 23 30.4 23 31C23 31.6 22.6 32 22 32ZM31 25C31 23.7 30.2 22.6 29 22.2V19C29 18.4 28.6 18 28 18C27.4 18 27 18.4 27 19V22.2C25.8 22.6 25 23.7 25 25C25 26.3 25.8 27.4 27 27.8V37C27 37.6 27.4 38 28 38C28.6 38 29 37.6 29 37V27.8C30.2 27.4 31 26.3 31 25ZM28 26C27.4 26 27 25.6 27 25C27 24.4 27.4 24 28 24C28.6 24 29 24.4 29 25C29 25.6 28.6 26 28 26ZM37 31C37 29.7 36.2 28.6 35 28.2V19C35 18.4 34.6 18 34 18C33.4 18 33 18.4 33 19V28.2C31.8 28.6 31 29.7 31 31C31 32.3 31.8 33.4 33 33.8V37C33 37.6 33.4 38 34 38C34.6 38 35 37.6 35 37V33.8C36.2 33.4 37 32.3 37 31ZM34 32C33.4 32 33 31.6 33 31C33 30.4 33.4 30 34 30C34.6 30 35 30.4 35 31C35 31.6 34.6 32 34 32Z" fill="#5C638B"/>
</svg>
