<svg width="56" height="56" viewBox="0 0 56 56" fill="none" xmlns="http://www.w3.org/2000/svg" preserveAspectRatio="none">
<rect width="56" height="56" rx="28" fill="#D7DCE3"/>
<rect x="6" y="6" width="44" height="44" rx="22" fill="#F3F5F8"/>
<mask id="mask0" mask-type="alpha" maskUnits="userSpaceOnUse" x="11" y="11" width="34" height="34">
<rect x="11" y="11" width="34" height="34" fill="#5C638B"/>
</mask>
<g mask="url(#mask0)">
<path d="M24.9899 25.3455L23.8636 25.2875C23.3316 25.2609 22.8 25.3461 22.3029 25.5376C21.8059 25.7291 21.3545 26.0226 20.9779 26.3993L19.0951 28.27C18.9896 28.3776 18.9121 28.5095 18.8697 28.6542C18.8272 28.7988 18.821 28.9517 18.8515 29.0993C18.8821 29.2469 18.9485 29.3847 19.045 29.5006C19.1414 29.6164 19.2649 29.7068 19.4045 29.7636L21.9954 30.844C21.8019 31.4309 21.6406 32.028 21.512 32.6325C21.4862 32.7511 21.4905 32.8744 21.5247 32.991C21.5589 33.1075 21.6219 33.2136 21.7078 33.2995L25.2364 36.8282C25.3223 36.9141 25.4284 36.977 25.545 37.0112C25.6615 37.0454 25.7848 37.0498 25.9035 37.0239C26.508 36.8956 27.1051 36.7342 27.692 36.5406L28.7627 39.1218C28.8195 39.2614 28.9099 39.3849 29.0257 39.4813C29.1416 39.5777 29.2794 39.6442 29.427 39.6748C29.5746 39.7053 29.7275 39.6991 29.8721 39.6566C30.0167 39.6141 30.1487 39.5367 30.2563 39.4312L32.127 37.5605C32.5031 37.1836 32.7961 36.7321 32.9872 36.2351C33.1783 35.738 33.2631 35.2065 33.2363 34.6747L33.1783 33.5485C37.2701 30.276 39.7305 25.4591 40.4894 19.209C40.5085 19.0505 40.4913 18.8897 40.4392 18.7388C40.387 18.5879 40.3012 18.4508 40.1883 18.3379C40.0754 18.225 39.9384 18.1393 39.7875 18.0871C39.6365 18.0349 39.4758 18.0178 39.3172 18.0369C33.0672 18.7982 28.2503 21.2562 24.9899 25.3455ZM38.9861 19.545C38.1861 25.2948 35.8442 29.6959 31.9989 32.6228C31.905 32.6942 31.83 32.7874 31.7803 32.8944C31.7306 33.0014 31.7077 33.1189 31.7137 33.2367L31.791 34.7376C31.808 35.0682 31.7552 35.3988 31.6361 35.7077C31.5171 36.0167 31.3343 36.2971 31.0998 36.5309L29.7923 37.8384L28.7627 35.337C28.6902 35.1628 28.5528 35.0238 28.3795 34.9493C28.2062 34.8749 28.0108 34.8709 27.8346 34.9382C27.2259 35.1701 26.6036 35.3646 25.9712 35.5206L23.0056 32.5575C23.1618 31.9251 23.3563 31.3028 23.5881 30.6941C23.6561 30.5176 23.6525 30.3216 23.578 30.1477C23.5035 29.9739 23.364 29.8361 23.1893 29.7636L20.6951 28.734L21.9954 27.4265C22.229 27.1933 22.5088 27.0115 22.8168 26.8929C23.1248 26.7742 23.4542 26.7214 23.7839 26.7377L25.2848 26.815C25.4026 26.821 25.5201 26.7981 25.627 26.7484C25.734 26.6987 25.8273 26.6237 25.8987 26.5298C28.8352 22.6918 33.2339 20.3377 38.9837 19.5426L38.9861 19.545ZM33.1566 28.0041C33.7672 28.0037 34.3589 27.7916 34.8306 27.4039C35.3024 27.0162 35.6252 26.4769 35.7439 25.8778C35.8625 25.2788 35.7698 24.6572 35.4816 24.1189C35.1933 23.5806 34.7272 23.1589 34.1628 22.9257C33.5985 22.6925 32.9707 22.6622 32.3865 22.84C31.8023 23.0178 31.2978 23.3926 30.9591 23.9007C30.6203 24.4088 30.4682 25.0186 30.5287 25.6263C30.5892 26.2339 30.8585 26.8018 31.2907 27.2331C31.5348 27.4791 31.8251 27.6745 32.1448 27.8081C32.4646 27.9416 32.8076 28.0107 33.1542 28.0114L33.1566 28.0041ZM32.3155 24.5238C32.4824 24.3589 32.6943 24.2471 32.9245 24.2024C33.1548 24.1577 33.3932 24.1821 33.6096 24.2725C33.826 24.3629 34.0109 24.5153 34.1409 24.7106C34.271 24.9058 34.3403 25.1351 34.3403 25.3697C34.3403 25.6043 34.271 25.8336 34.1409 26.0288C34.0109 26.2241 33.826 26.3765 33.6096 26.4669C33.3932 26.5573 33.1548 26.5817 32.9245 26.537C32.6943 26.4923 32.4824 26.3805 32.3155 26.2156C32.2042 26.1055 32.1158 25.9744 32.0554 25.8299C31.995 25.6854 31.9638 25.5304 31.9635 25.3738C31.9633 25.2172 31.9941 25.0621 32.0541 24.9175C32.1141 24.7728 32.2021 24.6415 32.3131 24.531L32.3155 24.5238ZM17.9326 41.5H17.9471C21.918 41.4299 23.8685 39.3248 24.5235 38.4112C24.624 38.2709 24.6792 38.1031 24.6814 37.9305C24.6836 37.7579 24.6328 37.5888 24.5358 37.4459C24.4388 37.3031 24.3003 37.1935 24.1391 37.1319C23.9778 37.0702 23.8016 37.0596 23.634 37.1013C23.1562 37.2249 22.6595 37.2585 22.1694 37.2004C21.9547 37.1744 21.755 37.0771 21.6021 36.9242C21.4491 36.7713 21.3519 36.5716 21.3259 36.3569C21.2677 35.8667 21.3013 35.3701 21.425 34.8922C21.4667 34.7247 21.4561 34.5484 21.3944 34.3872C21.3328 34.2259 21.2232 34.0875 21.0803 33.9905C20.9375 33.8935 20.7684 33.8427 20.5958 33.8449C20.4231 33.8471 20.2553 33.9022 20.115 34.0028C19.2111 34.6554 17.0964 36.6082 17.0287 40.5768C17.0268 40.6971 17.0488 40.8167 17.0934 40.9284C17.1381 41.0402 17.2045 41.142 17.2888 41.2279C17.3731 41.3138 17.4737 41.3821 17.5846 41.4288C17.6955 41.4755 17.8146 41.4997 17.935 41.5H17.9326ZM19.8661 36.265C19.8661 36.3537 19.8742 36.4415 19.8903 36.5285C19.9549 37.0649 20.1973 37.5641 20.5789 37.9466C20.9605 38.329 21.4592 38.5726 21.9954 38.6384L22.2588 38.6626C21.1673 39.4725 19.8624 39.9447 18.5054 40.0209C18.5804 38.6633 19.0518 37.3575 19.8613 36.265H19.8661Z" fill="#5C638B"/>
</g>
</svg>
