<svg width="56" height="56" viewBox="0 0 56 56" fill="none" xmlns="http://www.w3.org/2000/svg">
<rect width="56" height="56" rx="28" fill="#6FCF97"/>
<rect x="6" y="6" width="44" height="44" rx="22" fill="#E4FFF5"/>
<mask id="mask0" mask-type="alpha" maskUnits="userSpaceOnUse" x="11" y="11" width="34" height="34">
<rect x="11" y="11" width="34" height="34" fill="#5C638B"/>
</mask>
<g mask="url(#mask0)">
<path d="M27.9754 38.7124C27.4251 38.7124 26.8693 38.5902 26.3688 38.3596C21.8058 35.8382 19 31.0792 19 25.9177V21.4521H20.793C22.5142 21.4521 24.118 20.6816 25.193 19.3373C25.8731 18.4874 26.8873 18 27.9754 18C29.0635 18 30.0777 18.4874 30.7578 19.3373C31.8327 20.6816 33.4366 21.4521 35.1578 21.4521H36.9508V25.9177C36.9508 31.0799 34.1449 35.8389 29.6269 38.3369C29.0814 38.5902 28.5257 38.7124 27.9754 38.7124Z" fill="#6FCF97"/>
<path d="M26.5943 31.2129L24.3207 28.9393L23.3445 29.9156L26.5943 33.1654L34.677 25.0827L33.7007 24.1064L26.5943 31.2129Z" fill="white"/>
</g>
</svg>
