<svg width="156" height="54" viewBox="0 0 156 54" fill="none" xmlns="http://www.w3.org/2000/svg">
<path d="M20.933 21.1003C22.5461 21.1003 24.1208 21.749 25.4267 23.0081C32.0329 29.2276 38.5239 35.6759 44.746 42.1625C47.3962 44.9097 47.3193 48.8779 44.6308 51.6252C43.2481 53.0369 41.4429 53.8 39.5993 53.8C37.9478 53.8 36.4114 53.1896 35.1824 51.9686C28.8834 45.9781 22.8534 39.9113 16.4392 33.501L15.8631 32.9287C14.5188 31.5932 13.789 29.7999 13.8659 27.8921C13.9043 26.0606 14.7108 24.3436 16.0935 23.1226L16.1319 23.0845L16.1703 23.0463C17.5914 21.7872 19.243 21.1003 20.933 21.1003Z" fill="#4164A9"/>
<path d="M6.95187 7.32593C8.87228 7.32593 10.6006 8.05089 11.9065 9.3482C14.5567 12.0191 14.4799 16.5215 11.7913 19.1161C10.4854 20.3753 8.79546 21.0621 6.99028 21.0621C5.10828 21.0621 3.34151 20.3371 1.99722 18.9635C0.691347 17.6662 0 15.911 0 14.0795C0 12.2481 0.768163 10.531 2.07404 9.23373C3.37992 8.01274 5.10828 7.32593 6.95187 7.32593Z" fill="#5BC4D6"/>
<path d="M39.0213 0C40.7497 1.67886 42.3628 3.24326 43.8223 4.84581C46.3573 7.66936 46.3573 11.0271 43.8992 13.6217C37.6386 20.1464 31.1477 26.5947 24.6183 32.776C23.3508 33.9589 21.8145 34.6075 20.2013 34.6075C18.5114 34.6075 16.8598 33.9207 15.554 32.6616C12.9038 30.1051 12.7502 26.2513 15.2083 23.7712C21.2384 17.5518 27.3452 11.5231 33.7978 5.15106C35.4878 3.4722 37.2545 1.71702 39.0213 0Z" fill="#5BC4D6"/>
<path d="M56.9971 12.9734H60.5306V20.9099H60.7227L67.5593 12.9734H71.7842V13.1642L65.0244 20.8336L72.4756 31.2883V31.4791H68.2122L62.6815 23.5808L60.5306 26.0228V31.441H56.9971V12.9734Z" fill="#141621"/>
<path d="M74.4355 12.9734H77.9691V28.1977H85.8428V31.5173H74.4355V12.9734Z" fill="#141621"/>
<path d="M96.7876 31.8985C95.4049 31.8985 94.099 31.6314 92.9083 31.1354C91.7177 30.6394 90.6807 29.9526 89.8357 29.075C88.9523 28.1974 88.2994 27.1672 87.8001 25.9843C87.3008 24.8015 87.0703 23.5423 87.0703 22.2069C87.0703 20.8714 87.3008 19.6123 87.8001 18.4294C88.2994 17.2466 88.9907 16.2164 89.8357 15.3388C90.7191 14.4612 91.7177 13.7744 92.9083 13.2784C94.099 12.7824 95.3665 12.5153 96.7876 12.5153C98.1703 12.5153 99.4761 12.7824 100.667 13.2784C101.857 13.7744 102.894 14.4612 103.739 15.3388C104.623 16.2164 105.276 17.2466 105.775 18.4294C106.274 19.6123 106.505 20.8714 106.505 22.2069C106.505 23.5423 106.274 24.8015 105.775 25.9843C105.276 27.1672 104.584 28.1974 103.739 29.075C102.856 29.9526 101.857 30.6394 100.667 31.1354C99.4377 31.6696 98.1703 31.8985 96.7876 31.8985ZM96.7876 28.6171C97.671 28.6171 98.4775 28.4645 99.2073 28.1592C99.9754 27.854 100.628 27.4343 101.205 26.8619C101.781 26.3277 102.203 25.6409 102.549 24.8397C102.856 24.0384 103.048 23.1989 103.048 22.245C103.048 21.2911 102.894 20.4136 102.549 19.6504C102.242 18.8492 101.781 18.2005 101.205 17.6282C100.628 17.094 99.9754 16.6361 99.2073 16.3309C98.4391 16.0256 97.6325 15.873 96.7876 15.873C95.9042 15.873 95.0976 16.0256 94.3679 16.3309C93.5997 16.6361 92.9468 17.0558 92.3706 17.6282C91.7945 18.1623 91.372 18.8492 91.0263 19.6504C90.7191 20.4517 90.527 21.2911 90.527 22.245C90.527 23.1989 90.6807 24.0765 91.0263 24.8397C91.3336 25.6409 91.7945 26.2896 92.3706 26.8619C92.9468 27.3961 93.5997 27.854 94.3679 28.1592C95.0976 28.4645 95.9042 28.6171 96.7876 28.6171Z" fill="#141621"/>
<path d="M107.005 12.9734H110.807L114.648 24.115L115.339 26.4807H115.531L116.261 24.115L120.256 12.9734H124.058L117.26 31.4791H113.573L107.005 12.9734Z" fill="#141621"/>
<path d="M129.78 16.293V20.6047H137.269V23.9242H129.78V28.2359H138.076V31.5554H126.246V12.9734H138.076V16.293H129.78Z" fill="#141621"/>
<path d="M141.304 12.9734H148.102C149.024 12.9734 149.907 13.1261 150.637 13.4313C151.405 13.7366 152.058 14.1181 152.596 14.6523C153.133 15.1865 153.556 15.797 153.863 16.4838C154.17 17.2088 154.324 17.9719 154.324 18.8113C154.324 19.4218 154.209 20.0323 154.017 20.5665C153.825 21.1007 153.518 21.5967 153.172 22.0546C152.826 22.5125 152.365 22.894 151.904 23.2374C151.405 23.5808 150.906 23.8479 150.368 24.0387L150.33 24.2295L155.323 31.3265V31.5173H151.29L146.489 24.5729H144.837V31.5173H141.304V12.9734ZM148.102 21.3296C148.909 21.3296 149.561 21.1007 150.061 20.6047C150.56 20.1086 150.829 19.4981 150.829 18.7732C150.829 18.4298 150.791 18.1245 150.675 17.8193C150.56 17.514 150.406 17.2469 150.176 16.9798C149.946 16.7509 149.677 16.5601 149.331 16.4075C148.985 16.2549 148.601 16.1786 148.179 16.1786H144.876V21.3296H148.102Z" fill="#141621"/>
<path d="M64.2559 44.7572C63.8718 45.2151 63.4109 45.5585 62.8732 45.8256C62.3355 46.0545 61.7594 46.2071 61.1064 46.2071C60.5303 46.2071 59.9926 46.0927 59.4933 45.9019C58.994 45.6729 58.5715 45.4058 58.1874 45.0624C57.8417 44.719 57.5345 44.2612 57.3424 43.7651C57.112 43.2691 57.0352 42.7349 57.0352 42.1626C57.0352 41.5902 57.1504 41.0561 57.3424 40.56C57.5729 40.064 57.8417 39.6443 58.1874 39.2627C58.5331 38.9193 58.994 38.6141 59.4933 38.4233C59.9926 38.1944 60.5303 38.118 61.1064 38.118C61.7209 38.118 62.2971 38.2325 62.758 38.4614C63.2189 38.6904 63.6414 38.9956 64.0254 39.4153L62.9884 40.4074C62.758 40.1403 62.4891 39.9114 62.1818 39.7587C61.8746 39.6061 61.5289 39.5298 61.1064 39.5298C60.7607 39.5298 60.4151 39.6061 60.0694 39.7206C59.7621 39.8351 59.4549 40.0258 59.2244 40.2548C58.994 40.4837 58.8019 40.7508 58.6483 41.0942C58.4947 41.4376 58.4563 41.781 58.4563 42.2007C58.4563 42.6205 58.5331 42.9639 58.6483 43.3073C58.8019 43.6507 58.9556 43.9178 59.2244 44.1467C59.4549 44.3756 59.7237 44.5664 60.0694 44.6809C60.3767 44.7953 60.7223 44.8717 61.1064 44.8717C61.5289 44.8717 61.9514 44.7953 62.2587 44.6046C62.6043 44.4138 62.9116 44.1849 63.142 43.8414L64.2559 44.7572Z" fill="#141621"/>
<path d="M80.7318 38.2327H82.1913V44.6048H85.4944V45.9784H80.6934V38.2327H80.7318Z" fill="#141621"/>
<path d="M105.427 46.2073C104.851 46.2073 104.313 46.0929 103.814 45.9021C103.314 45.6731 102.892 45.406 102.508 45.0245C102.162 44.6429 101.855 44.2232 101.663 43.7272C101.471 43.2312 101.355 42.697 101.355 42.1246C101.355 41.5523 101.471 41.0181 101.663 40.5221C101.855 40.026 102.162 39.6063 102.508 39.2248C102.853 38.8432 103.314 38.5761 103.814 38.3472C104.313 38.1182 104.851 38.0419 105.427 38.0419C106.003 38.0419 106.541 38.1564 107.04 38.3472C107.539 38.538 107.962 38.8432 108.346 39.2248C108.691 39.6063 108.999 40.026 109.191 40.5221C109.383 41.0181 109.498 41.5523 109.498 42.1246C109.498 42.697 109.383 43.2312 109.191 43.7272C108.999 44.2232 108.691 44.6429 108.346 45.0245C108 45.406 107.539 45.6731 107.04 45.9021C106.541 46.0929 106.003 46.2073 105.427 46.2073ZM105.427 44.7956C105.772 44.7956 106.118 44.7192 106.464 44.6048C106.771 44.4903 107.04 44.2995 107.309 44.0706C107.539 43.8417 107.731 43.5746 107.885 43.2312C108.038 42.8878 108.077 42.5443 108.077 42.1246C108.077 41.7049 108 41.3615 107.885 41.0181C107.731 40.6747 107.578 40.4076 107.309 40.1787C107.078 39.9497 106.809 39.759 106.464 39.6445C106.156 39.53 105.811 39.4537 105.427 39.4537C105.043 39.4537 104.735 39.53 104.39 39.6445C104.082 39.759 103.814 39.9497 103.545 40.1787C103.314 40.4076 103.122 40.6747 102.969 41.0181C102.815 41.3615 102.777 41.7049 102.777 42.1246C102.777 42.5443 102.853 42.8878 102.969 43.2312C103.122 43.5746 103.276 43.8417 103.545 44.0706C103.775 44.2995 104.044 44.4903 104.39 44.6048C104.735 44.7574 105.081 44.7956 105.427 44.7956Z" fill="#141621"/>
<path d="M128.896 46.2073C128.435 46.2073 128.013 46.131 127.628 45.9784C127.244 45.8258 126.937 45.5968 126.668 45.3297C126.399 45.0626 126.207 44.7192 126.054 44.2995C125.9 43.8798 125.823 43.4219 125.823 42.9259V38.2327H127.283V43.0022C127.283 43.2693 127.321 43.4983 127.398 43.7272C127.475 43.9561 127.552 44.1469 127.705 44.2995C127.859 44.4522 128.013 44.5666 128.205 44.6811C128.397 44.7574 128.627 44.8337 128.896 44.8337C129.165 44.8337 129.395 44.7956 129.587 44.6811C129.779 44.6048 129.933 44.4522 130.087 44.2995C130.202 44.1469 130.317 43.9561 130.394 43.7272C130.471 43.4983 130.509 43.2693 130.509 43.0022V38.2327H131.969V42.9259C131.969 43.4219 131.892 43.8417 131.738 44.2614C131.584 44.6811 131.392 45.0245 131.124 45.2916C130.855 45.5968 130.547 45.7876 130.163 45.9784C129.779 46.131 129.357 46.2073 128.896 46.2073Z" fill="#141621"/>
<path d="M148.636 38.2327H151.286C151.9 38.2327 152.477 38.309 152.976 38.4998C153.475 38.6906 153.898 38.9577 154.243 39.3011C154.589 39.6445 154.858 40.0642 155.05 40.5221C155.242 41.0181 155.319 41.5141 155.319 42.0865C155.319 42.6588 155.242 43.193 155.05 43.689C154.858 44.1851 154.589 44.5666 154.243 44.91C153.898 45.2534 153.475 45.5205 152.976 45.7113C152.477 45.9021 151.939 45.9784 151.286 45.9784H148.636V38.2327ZM151.248 44.6429C151.67 44.6429 152.054 44.5666 152.4 44.4522C152.745 44.3377 153.014 44.1469 153.206 43.9561C153.437 43.7272 153.59 43.4601 153.706 43.1549C153.821 42.8496 153.859 42.5062 153.859 42.1246C153.859 41.7431 153.821 41.3997 153.706 41.0944C153.59 40.7892 153.437 40.5221 153.206 40.2932C152.976 40.0642 152.707 39.9116 152.4 39.7971C152.054 39.6827 151.708 39.6063 151.248 39.6063H150.134V44.6048H151.248V44.6429Z" fill="#141621"/>
</svg>
