<svg width="241" height="80" viewBox="0 0 241 80" fill="none" xmlns="http://www.w3.org/2000/svg">
  <path d="M59.0191 0.000785553C59.2514 0.000396704 59.2514 0.000396704 59.4884 0C59.7397 0.00143335 59.7397 0.00143335 59.9962 0.00289565C60.1717 0.00347277 60.3473 0.0040499 60.5281 0.00464451C62.46 0.0172126 64.3876 0.0995167 66.3172 0.189318C66.6949 0.206245 67.0726 0.223094 67.4503 0.239869C68.4297 0.283575 69.4092 0.328322 70.3886 0.37331C71.3939 0.419293 72.3992 0.464259 73.4045 0.509319C75.3663 0.597394 77.328 0.686571 79.2897 0.776476C79.0123 1.49096 78.6917 2.11917 78.2908 2.77355C78.1643 2.98075 78.0379 3.18795 77.9077 3.40144C77.7694 3.6264 77.6312 3.85135 77.493 4.0763C77.349 4.31173 77.2052 4.54721 77.0614 4.78273C76.7627 5.27187 76.4637 5.76081 76.1644 6.24961C75.5468 7.25906 74.9331 8.27097 74.3195 9.28287C73.9879 9.82955 73.656 10.376 73.3242 10.9226C73.1911 11.1418 73.058 11.361 72.9249 11.5802C66.337 22.4309 59.7491 33.2815 43.1795 60.5726C43.0464 60.7918 42.9133 61.0111 42.7802 61.2303C42.4476 61.778 42.1151 62.3258 41.7825 62.8735C41.0469 64.0847 40.3118 65.2962 39.5776 66.5082C39.2457 67.056 38.9133 67.6034 38.5796 68.1501C38.4481 68.3658 38.3165 68.5815 38.185 68.7972C38.0875 68.9571 38.0875 68.9571 37.988 69.1202C37.5743 69.8004 37.1669 70.484 36.7632 71.1701C36.4914 71.631 36.217 72.0903 35.9423 72.5493C35.75 72.8728 35.5614 73.1983 35.3728 73.5239C35.2567 73.7172 35.1406 73.9104 35.0209 74.1095C34.9202 74.2807 34.8195 74.4519 34.7158 74.6283C34.3839 74.9932 34.3839 74.9932 33.8743 75.0484C33.7324 75.0302 33.5906 75.012 33.4444 74.9932C32.8645 73.3516 32.4291 71.6723 31.9809 69.9914C31.8931 69.6636 31.8053 69.3359 31.7175 69.0082C31.486 68.1444 31.2551 67.2804 31.0244 66.4163C30.7507 65.392 30.4761 64.3678 30.2017 63.3437C29.977 62.5045 29.7527 61.6653 29.5295 60.8258C29.4414 60.4946 29.3532 60.1634 29.2651 59.8322C29.222 59.6702 29.1789 59.5083 29.1346 59.3414C28.8808 58.39 28.6231 57.4399 28.3615 56.4906C28.2001 55.9045 28.0404 55.3179 27.881 54.7312C27.807 54.4608 27.7322 54.1907 27.6564 53.9209C26.7088 50.5421 26.7088 50.5421 27.2792 49.0408C27.3916 48.8626 27.504 48.6843 27.6198 48.5007C27.6843 48.3954 27.7488 48.2902 27.8152 48.1818C27.9681 47.9335 28.1229 47.6864 28.2792 47.4403C28.6074 46.9213 28.9284 46.3982 29.2492 45.8746C29.7027 45.1346 30.1572 44.3954 30.6136 43.6572C31.3111 42.5287 32.0008 41.3959 32.6811 40.257C33.5791 38.754 34.4847 37.2557 35.3938 35.7593C35.4622 35.6467 35.5306 35.534 35.6011 35.418C36.6159 33.7478 37.632 32.0783 38.6485 30.4091C39.9112 28.3353 41.1708 26.2596 42.4306 24.184C43.0326 23.1921 43.6348 22.2004 44.2369 21.2086C44.5695 20.6609 44.902 20.1132 45.2345 19.5655C45.3676 19.3463 45.5007 19.1271 45.6338 18.9079C45.6997 18.7994 45.7656 18.6909 45.8334 18.5791C49.6265 12.3317 49.6265 12.3317 49.8261 12.003C49.9593 11.7836 50.0925 11.5642 50.2257 11.3448C50.5566 10.7997 50.8876 10.2546 51.2186 9.70953C51.8386 8.68841 52.4585 7.66721 53.078 6.64574C53.3685 6.16672 53.6591 5.68775 53.9496 5.20878C54.0873 4.98189 54.2249 4.75498 54.3624 4.52805C54.6717 4.0177 54.9815 3.50766 55.2923 2.99818C55.4942 2.66663 55.6949 2.33436 55.8939 2.00102C55.975 1.86698 56.056 1.73293 56.1395 1.59483C56.2068 1.48225 56.274 1.36967 56.3433 1.25368C56.9935 0.364924 57.9578 0.0012725 59.0191 0.000785553Z" fill="#428BEE"/>
  <path d="M59.7492 37.9788C61.0808 39.2989 62.2767 40.6988 63.4269 42.1771C64.1121 43.057 64.8103 43.9255 65.515 44.7898C66.2819 45.7305 67.0449 46.6737 67.8013 47.6228C68.2228 48.148 68.6478 48.6701 69.0732 49.192C70.0375 50.3751 70.9917 51.5646 71.9311 52.7676C72.6908 53.7381 73.4686 54.6934 74.248 55.6482C74.9004 56.449 75.5429 57.2566 76.1778 58.0713C76.9485 59.0596 77.7389 60.0301 78.5382 60.9953C79.4237 62.0647 80.294 63.1435 81.1474 64.2387C81.8016 65.0765 82.4693 65.9026 83.1415 66.726C83.8991 67.6541 84.6481 68.5877 85.3845 69.5326C86.1552 70.5209 86.9455 71.4914 87.7448 72.4567C88.6326 73.529 89.507 74.6097 90.3627 75.7078C90.8227 76.298 91.2865 76.8846 91.7559 77.4673C91.8605 77.5972 91.9651 77.7271 92.0728 77.861C92.2766 78.1136 92.4806 78.3659 92.6851 78.6179C93.3816 79.482 93.3816 79.482 93.3816 79.6904C89.8407 79.7476 86.2998 79.7906 82.7586 79.817C81.1141 79.8296 79.47 79.8467 77.8257 79.8747C76.3918 79.8991 74.9582 79.9148 73.5241 79.9203C72.7653 79.9234 72.007 79.9308 71.2484 79.9487C66.2586 80.0617 66.2586 80.0617 65.1273 79.1553C64.5732 78.5791 64.2309 77.9635 63.8828 77.2479C63.7005 77.0062 63.5124 76.7687 63.3147 76.5396C63.1689 76.3509 63.0231 76.1623 62.8728 75.9679C62.1254 75.0066 61.3648 74.0574 60.5947 73.1143C59.8371 72.1862 59.0881 71.2526 58.3517 70.3077C57.581 69.3193 56.7907 68.3489 55.9914 67.3836C55.1062 66.3147 54.2359 65.2367 53.3834 64.1415C52.8223 63.4223 52.2502 62.7131 51.672 62.0075C50.8628 61.0194 50.0564 60.0295 49.286 59.0107C49.1163 58.7866 49.1163 58.7866 48.9433 58.5579C48.572 57.9274 48.3761 57.5029 48.2878 56.7678C48.5343 56.097 48.9112 55.5226 49.2978 54.9241C49.4642 54.655 49.4642 54.655 49.6341 54.3804C49.873 53.9948 50.1138 53.6104 50.3563 53.227C50.8502 52.4445 51.3328 51.6553 51.8161 50.8663C52.1933 50.251 52.5726 49.6371 52.9521 49.0232C53.6894 47.8285 54.4178 46.6284 55.1445 45.4272C56.6558 42.9294 58.1938 40.4495 59.7492 37.9788Z" fill="#428BEE"/>
  <path d="M21.2921 14.6569C21.7396 14.6534 22.1871 14.6567 22.6345 14.6652C22.8788 14.6651 23.1232 14.6649 23.375 14.6647C24.1835 14.6656 24.9917 14.6752 25.8002 14.6848C26.3604 14.6878 26.9206 14.6889 27.4809 14.6901C28.8052 14.694 30.1295 14.7041 31.4538 14.7165C32.9617 14.7303 34.4695 14.737 35.9774 14.7432C39.0789 14.7561 42.1802 14.7778 45.2816 14.8053C45.0134 15.4791 44.73 16.0985 44.3548 16.7211C44.2008 16.9776 44.2008 16.9776 44.0436 17.2393C43.9314 17.4243 43.8192 17.6092 43.7035 17.7998C43.5846 17.997 43.4656 18.1942 43.343 18.3974C42.0061 20.6078 40.6489 22.8062 39.2906 25.0039C38.543 26.2137 37.797 27.4244 37.0513 28.6353C36.6821 29.2347 36.3128 29.834 35.9436 30.4334C35.7958 30.6733 35.648 30.9132 35.5001 31.1531C34.6133 32.5925 34.6133 32.5925 34.3916 32.9524C34.2438 33.1923 34.0959 33.4323 33.9481 33.6722C33.579 34.2712 33.21 34.8702 32.841 35.4691C32.1701 36.558 31.4992 37.6469 30.8285 38.7359C30.524 39.2301 30.2196 39.7244 29.9151 40.2186C29.7099 40.5518 29.5047 40.885 29.2995 41.2182C29.0308 41.6545 28.7567 42.0876 28.4776 42.5175C28.0675 43.1754 27.7491 43.8484 27.434 44.5549C25.92 47.7209 25.92 47.7209 24.4525 48.3831C22.7489 48.7854 21.0132 48.6608 19.2776 48.5796C18.7203 48.5708 18.1632 48.5638 17.6059 48.5594C16.2955 48.5447 14.9871 48.5061 13.6775 48.4584C12.185 48.4052 10.6924 48.3794 9.19917 48.3558C6.13178 48.3065 3.06593 48.2235 0 48.1178C0.188805 47.2667 0.591227 46.5957 1.04335 45.8558C1.13385 45.706 1.22435 45.5562 1.31759 45.4018C2.5791 43.3202 3.86077 41.2503 5.14021 39.1793C5.89327 37.9603 6.64487 36.7405 7.39625 35.5205C7.76521 34.9215 8.13428 34.3225 8.50334 33.7235C8.65115 33.4836 8.79896 33.2437 8.94677 33.0038C9.83362 31.5644 9.83362 31.5644 10.0553 31.2045C10.2032 30.9646 10.351 30.7246 10.4988 30.4846C10.8679 29.8857 11.2369 29.2867 11.6059 28.6878C12.4286 27.3525 13.2512 26.0172 14.0737 24.6818C14.7354 23.6076 15.3973 22.5336 16.0593 21.4596C16.4824 20.7729 16.9051 20.086 17.3278 19.3991C17.5903 18.9731 17.8528 18.5471 18.1152 18.1211C18.2339 17.9281 18.3526 17.735 18.4749 17.5361C18.5856 17.3565 18.6964 17.1768 18.8105 16.9918C18.906 16.8367 19.0014 16.6817 19.0998 16.522C19.201 16.3626 19.3021 16.2033 19.4064 16.0391C19.5011 15.8285 19.5958 15.6178 19.6933 15.4008C20.3141 14.726 20.416 14.7125 21.2921 14.6569Z" fill="#83B3F6"/>
  <path d="M64.8223 78.1873C65.2685 78.2225 65.2685 78.2225 65.7617 78.3751C65.8857 78.6852 66.0097 78.9952 66.1375 79.3146C74.818 79.3146 83.4986 79.3146 92.4422 79.3146C92.3802 79.0046 92.3182 78.6946 92.2543 78.3751C93.1702 79.2676 93.1702 79.2676 93.3816 79.6904C89.8244 79.7255 86.2673 79.752 82.71 79.7683C81.0582 79.776 79.4066 79.7866 77.7549 79.8038C76.3152 79.8188 74.8756 79.8285 73.4358 79.8318C72.6735 79.8338 71.9114 79.8384 71.1491 79.8493C70.4313 79.8595 69.7138 79.8627 68.9959 79.8604C68.7328 79.8608 68.4696 79.8638 68.2066 79.8696C66.2132 79.9111 66.2132 79.9111 65.5364 79.3443C65.252 78.9695 65.0241 78.6114 64.8223 78.1873Z" fill="#588ED6"/>
  <path d="M58.2461 69.9202C58.7628 69.9084 58.7628 69.9084 59.3734 70.108C59.6113 70.5203 59.7685 70.9383 59.9356 71.3836C60.1885 71.9384 60.5915 72.1799 61.0645 72.5506C61.2171 73.1613 61.2171 73.1613 61.2523 73.678C60.5028 72.96 59.8571 72.1953 59.2208 71.3763C59.1264 71.2567 59.0321 71.137 58.9349 71.0137C58.2461 70.1328 58.2461 70.1328 58.2461 69.9202Z" fill="#4788E1"/>
  <path d="M27.6199 48.6885C27.9956 49.2521 27.9956 49.2521 27.9252 49.6632C27.8864 49.7755 27.8477 49.8879 27.8078 50.0037C27.6217 50.0037 27.4357 50.0037 27.2441 50.0037C27.553 51.8662 27.553 51.8662 28.1248 53.6558C28.4165 54.4474 28.4162 54.9932 28.3714 55.8283C27.4839 54.1507 26.6812 51.5183 27.0562 49.6279C27.338 49.0408 27.338 49.0408 27.6199 48.6885Z" fill="#5487CE"/>
  <path d="M35.1355 72.1748C35.3836 72.1748 35.6316 72.1748 35.8871 72.1748C35.6302 72.8505 35.3368 73.482 34.9829 74.1124C34.8925 74.2783 34.8022 74.4442 34.7091 74.6152C34.384 74.9932 34.384 74.9932 33.8768 75.0482C33.6628 75.021 33.6628 75.021 33.4445 74.9932C33.3499 74.7194 33.2561 74.4453 33.1627 74.1711C33.1104 74.0186 33.0581 73.866 33.0042 73.7088C32.8809 73.3021 32.8809 73.3021 32.8809 72.9264C33.0049 72.9264 33.1289 72.9264 33.2566 72.9264C33.3186 73.4844 33.3806 74.0424 33.4445 74.6174C33.7545 74.6174 34.0646 74.6174 34.384 74.6174C34.4072 74.4352 34.4305 74.2531 34.4544 74.0655C34.4932 73.8756 34.5319 73.6857 34.5719 73.49C34.6959 73.428 34.8199 73.366 34.9477 73.3021C34.9438 73.151 34.9399 72.9999 34.9359 72.8442C34.9477 72.3627 34.9477 72.3627 35.1355 72.1748Z" fill="#5488D3"/>
  <path d="M60.6886 39.1062C61.4138 39.8102 62.0727 40.5502 62.7202 41.3257C62.8145 41.4379 62.9089 41.5502 63.0061 41.6658C63.2361 41.9396 63.4655 42.2139 63.6949 42.4882C63.6329 42.6122 63.5709 42.7362 63.507 42.864C63.3907 42.7749 63.2745 42.6857 63.1547 42.5939C62.7729 42.2958 62.7729 42.2958 62.3796 42.1124C62.2739 41.7602 62.2739 41.7602 62.1917 41.3609C62.1297 41.1749 62.0677 40.9889 62.0039 40.7972C61.6318 40.8592 61.2598 40.9212 60.8765 40.9851C60.8765 40.7371 60.8765 40.4891 60.8765 40.2335C61.0005 40.2335 61.1245 40.2335 61.2523 40.2335C61.1903 40.1095 61.1283 39.9855 61.0644 39.8578C60.8784 39.7958 60.6924 39.7338 60.5007 39.6699C60.5627 39.4839 60.6247 39.2978 60.6886 39.1062Z" fill="#477FD5"/>
  <path d="M50.5426 46.6218C50.6046 46.8078 50.6666 46.9938 50.7305 47.1855C50.8545 47.1855 50.9785 47.1855 51.1062 47.1855C50.8119 47.9949 50.4142 48.7002 49.9789 49.4402C49.9169 49.4402 49.8549 49.4402 49.791 49.4402C49.791 48.8201 49.791 48.2001 49.791 47.5613C49.977 47.5613 50.163 47.5613 50.3547 47.5613C50.4167 47.2513 50.4787 46.9412 50.5426 46.6218Z" fill="#4988DF"/>
  <path d="M43.0269 23.3232C43.0889 23.4472 43.1509 23.5713 43.2147 23.699C42.9799 24.3684 42.9799 24.3684 42.6511 25.0143C42.4651 25.0763 42.279 25.1383 42.0874 25.2021C42.0952 25.4114 42.1029 25.6207 42.1109 25.8363C42.0874 26.5174 42.0874 26.5174 41.7116 26.8932C41.6496 26.7692 41.5876 26.6451 41.5237 26.5174C41.3997 26.5794 41.2757 26.6414 41.1479 26.7053C41.4351 25.9026 41.846 25.2034 42.2988 24.4858C42.3688 24.3736 42.4388 24.2613 42.5109 24.1456C42.6822 23.8711 42.8544 23.5971 43.0269 23.3232Z" fill="#5088D7"/>
  <path d="M46.9726 16.7471C47.1795 17.4473 47.1795 17.4473 47.0078 17.9096C46.7847 18.2502 46.7847 18.2502 46.4089 18.4381C46.3469 18.6241 46.2849 18.8101 46.221 19.0018C46.097 19.0018 45.973 19.0018 45.8452 19.0018C45.822 19.1103 45.7987 19.2188 45.7748 19.3306C45.6561 19.7577 45.4904 20.1151 45.2815 20.5049C45.1575 20.5049 45.0335 20.5049 44.9058 20.5049C45.2138 19.6332 45.6702 18.8818 46.1505 18.0975C46.2295 17.9673 46.3085 17.8372 46.3898 17.703C46.5834 17.384 46.7779 17.0655 46.9726 16.7471Z" fill="#5287D4"/>
  <path d="M9.58242 36.4756C9.77031 37.0393 9.77031 37.0393 9.50022 37.6382C9.3549 37.8997 9.3549 37.8997 9.20664 38.1666C9.08263 38.1666 8.95862 38.1666 8.83086 38.1666C8.81536 38.2984 8.79986 38.4301 8.78389 38.5659C8.60913 39.2358 8.31099 39.6867 7.89141 40.2334C7.7674 40.2334 7.64339 40.2334 7.51562 40.2334C7.82368 39.3617 8.2801 38.6103 8.7604 37.826C8.83936 37.6959 8.91832 37.5657 8.99967 37.4316C9.19329 37.1125 9.38777 36.794 9.58242 36.4756Z" fill="#8CADE4"/>
  <path d="M29.3108 45.8701C29.3728 45.9941 29.4348 46.1181 29.4987 46.2459C29.6227 46.2459 29.7467 46.2459 29.8745 46.2459C29.8125 46.5559 29.7505 46.8659 29.6866 47.1854C29.5006 47.1233 29.3146 47.0613 29.1229 46.9975C28.9369 47.4315 28.7509 47.8655 28.5593 48.3127C28.3733 48.3127 28.1873 48.3127 27.9956 48.3127C28.3041 47.4153 28.797 46.6604 29.3108 45.8701Z" fill="#4A89DA"/>
  <path d="M37.2023 68.9807C37.4503 69.0427 37.6983 69.1047 37.9538 69.1686C37.3958 70.0987 37.3958 70.0987 36.8265 71.0475C36.4339 70.2623 36.4196 70.1449 36.6386 69.3565C36.8866 69.3565 37.1346 69.3565 37.3901 69.3565C37.3281 69.2325 37.2661 69.1085 37.2023 68.9807Z" fill="#4B86DA"/>
  <path d="M44.7178 20.5049C45.0185 21.1063 44.7238 21.5801 44.5299 22.1959C44.6539 22.3199 44.7779 22.4439 44.9057 22.5717C44.4097 22.6957 43.9136 22.8197 43.4026 22.9475C43.7111 22.0501 44.204 21.2952 44.7178 20.5049Z" fill="#4C87D8"/>
  <path d="M89.06 74.4294C89.6725 75.025 90.2291 75.6318 90.751 76.3083C90.565 76.4014 90.565 76.4014 90.3752 76.4962C90.2899 76.4032 90.2047 76.3102 90.1168 76.2144C89.8348 75.8901 89.8348 75.8901 89.4357 75.9326C89.4357 75.8086 89.4357 75.6846 89.4357 75.5568C89.2497 75.5568 89.0637 75.5568 88.8721 75.5568C88.9341 75.1848 88.9961 74.8127 89.06 74.4294Z" fill="#4B86D7"/>
  <path d="M54.3002 41.5486C54.3622 41.6726 54.4243 41.7966 54.4881 41.9244C54.2188 42.4543 54.2188 42.4543 53.8423 43.0752C53.7185 43.2811 53.5947 43.4869 53.4672 43.699C53.3701 43.8574 53.273 44.0158 53.1729 44.1791C53.0489 43.931 52.9249 43.683 52.7971 43.4275C52.9831 43.3655 53.1691 43.3035 53.3608 43.2396C53.2988 43.0536 53.2368 42.8676 53.1729 42.6759C53.4209 42.4279 53.6689 42.1799 53.9245 41.9244C53.8005 41.8624 53.6764 41.8004 53.5487 41.7365C53.7967 41.6745 54.0447 41.6125 54.3002 41.5486Z" fill="#4B85D6"/>
  <path d="M69.1436 17.123C69.2056 17.2471 69.2676 17.3711 69.3315 17.4988C69.0687 17.9876 69.0687 17.9876 68.6974 18.5557C68.515 18.8384 68.515 18.8384 68.3289 19.1267C68.2257 19.2716 68.1226 19.4164 68.0163 19.5656C67.9543 19.5656 67.8923 19.5656 67.8284 19.5656C67.8284 19.0696 67.8284 18.5736 67.8284 18.0625C67.9756 18.0121 68.1229 17.9617 68.2746 17.9098C68.8206 17.7153 68.8206 17.7153 69.1436 17.123Z" fill="#4A83D8"/>
  <path d="M78.9141 61.6531C79.5319 62.2374 80.0109 62.7835 80.4172 63.532C80.1692 63.47 79.9212 63.408 79.6657 63.3441C79.6657 63.1581 79.6657 62.9721 79.6657 62.7804C79.2936 62.8424 78.9216 62.9044 78.5383 62.9683C78.7027 62.0758 78.7027 62.0758 78.9141 61.6531Z" fill="#417FD9"/>
  <path d="M49.4152 54.8889C49.4772 54.8889 49.5392 54.8889 49.6031 54.8889C49.65 55.3117 49.65 55.3117 49.6031 55.8284C49.4752 55.933 49.3473 56.0376 49.2156 56.1454C48.8034 56.5448 48.8034 56.5448 48.8434 57.0445C48.8936 57.5198 48.9568 57.9881 49.0394 58.4588C48.572 57.9102 48.3253 57.4957 48.2878 56.7678C48.5095 56.2651 48.5095 56.2651 48.828 55.7697C48.9322 55.6037 49.0363 55.4378 49.1436 55.2669C49.2332 55.1422 49.3229 55.0174 49.4152 54.8889Z" fill="#5086D2"/>
  <path d="M44.7179 56.5798C44.9039 56.6418 45.0899 56.7038 45.2816 56.7677C44.9731 57.6651 44.4801 58.42 43.9664 59.2103C43.8423 58.9623 43.7183 58.7143 43.5906 58.4587C43.7766 58.4587 43.9626 58.4587 44.1542 58.4587C44.1775 58.3231 44.2008 58.1875 44.2247 58.0477C44.3404 57.5273 44.5083 57.0689 44.7179 56.5798Z" fill="#4D86D1"/>
  <path d="M36.4506 34.0332C36.6915 34.7559 36.5348 34.9706 36.2275 35.6538C36.1473 35.8383 36.0672 36.0229 35.9846 36.213C35.6991 36.6637 35.6991 36.6637 35.2903 36.8207C35.1772 36.8309 35.064 36.8411 34.9475 36.8516C35.2055 36.1566 35.5231 35.5454 35.9104 34.9139C36.0117 34.748 36.1129 34.5821 36.2172 34.4112C36.2943 34.2865 36.3713 34.1617 36.4506 34.0332Z" fill="#4F89D2"/>
  <path d="M75.1562 57.1436C75.4694 57.4567 75.7826 57.7699 76.0957 58.083C76.2643 58.24 76.2643 58.24 76.4363 58.4001C76.6594 58.6467 76.6594 58.6467 76.6594 59.0225C76.4114 59.0845 76.1633 59.1465 75.9078 59.2103C75.9078 59.0243 75.9078 58.8383 75.9078 58.6467C75.7218 58.5847 75.5358 58.5227 75.3441 58.4588C75.4681 58.4588 75.5922 58.4588 75.7199 58.4588C75.7199 58.3348 75.7199 58.2108 75.7199 58.083C75.5339 58.021 75.3479 57.959 75.1562 57.8951C75.1562 57.6471 75.1562 57.3991 75.1562 57.1436Z" fill="#4A86DB"/>
  <path d="M55.6156 44.7429C55.8661 45.244 55.7417 45.5258 55.6156 46.0582C55.4916 46.0582 55.3676 46.0582 55.2398 46.0582C55.2398 46.3062 55.2398 46.5542 55.2398 46.8097C55.1158 46.8097 54.9918 46.8097 54.8641 46.8097C54.8021 46.9337 54.7401 47.0577 54.6762 47.1855C54.5477 46.8655 54.5477 46.8655 54.4883 46.4339C54.7165 45.9906 54.7165 45.9906 55.0402 45.5415C55.1465 45.3913 55.2529 45.2411 55.3624 45.0864C55.446 44.9731 55.5295 44.8597 55.6156 44.7429Z" fill="#4F86DE"/>
  <path d="M59.3733 71.4233C60.0244 71.7127 60.5524 72.0526 61.0643 72.5507C61.217 73.1613 61.217 73.1613 61.2522 73.678C60.5147 72.9827 59.9471 72.2595 59.3733 71.4233Z" fill="#4A85CF"/>
  <path d="M11.0855 34.0332C11.1475 34.1572 11.2095 34.2812 11.2734 34.409C11.3974 34.409 11.5214 34.409 11.6492 34.409C11.4613 34.7848 11.4613 34.7848 10.9916 35.2427C10.4881 35.6887 10.4881 35.6887 10.3339 36.2879C10.1479 36.3499 9.96191 36.4119 9.77026 36.4758C10.0787 35.5784 10.5717 34.8235 11.0855 34.0332Z" fill="#89AFE6"/>
  <path d="M51.482 45.1187C51.792 45.1187 52.1021 45.1187 52.4215 45.1187C51.9565 45.9557 51.9565 45.9557 51.482 46.8097C51.234 46.6237 50.986 46.4376 50.7305 46.246C50.7305 46.122 50.7305 45.998 50.7305 45.8702C51.1955 45.9632 51.1955 45.9632 51.6699 46.0581C51.7119 45.5084 51.7119 45.5084 51.482 45.1187Z" fill="#4B86DB"/>
  <path d="M12.5887 31.5906C12.6507 31.5906 12.7127 31.5906 12.7766 31.5906C12.8118 32.0368 12.8118 32.0368 12.7766 32.53C12.5905 32.654 12.4045 32.778 12.2129 32.9058C12.1858 33.0298 12.1586 33.1538 12.1307 33.2816C12.025 33.6574 12.025 33.6574 11.6375 33.8922C11.5173 33.9387 11.3972 33.9852 11.2734 34.0332C11.5785 33.1456 12.0457 32.3531 12.5887 31.5906Z" fill="#8FAFE6"/>
  <path d="M49.791 59.3982C49.977 59.3982 50.163 59.3982 50.3547 59.3982C50.4167 59.5842 50.4787 59.7702 50.5426 59.9619C50.7286 60.0239 50.9146 60.0859 51.1062 60.1498C51.1762 60.3983 51.239 60.6491 51.2941 60.9013C51.4181 60.9633 51.5422 61.0253 51.6699 61.0892C51.6079 61.2752 51.5459 61.4612 51.482 61.6529C51.1996 61.3128 50.9179 60.9721 50.6365 60.6312C50.4796 60.4416 50.3226 60.2519 50.1609 60.0565C49.791 59.5861 49.791 59.5861 49.791 59.3982Z" fill="#4D85D5"/>
  <path d="M52.0457 50.5674C52.2991 51.0743 52.1777 51.3411 52.0457 51.8826C51.9836 52.0686 51.9216 52.2546 51.8578 52.4463C51.6097 52.4463 51.3617 52.4463 51.1062 52.4463C51.357 51.771 51.6624 51.1771 52.0457 50.5674Z" fill="#4987DE"/>
  <path d="M39.8329 28.5842C40.1014 29.0266 40.2249 29.2381 40.1382 29.7585C40.0994 29.8671 40.0607 29.9756 40.0208 30.0874C39.8347 30.0253 39.6487 29.9633 39.4571 29.8995C39.2711 29.9925 39.2711 29.9925 39.0813 30.0874C39.2926 29.529 39.499 29.0851 39.8329 28.5842Z" fill="#4889DC"/>
  <path d="M66.1375 20.8809C66.4475 20.8809 66.7575 20.8809 67.077 20.8809C66.7826 21.6902 66.3849 22.3956 65.9496 23.1355C65.8876 22.9495 65.8256 22.7635 65.7617 22.5719C65.8857 22.3859 66.0097 22.1999 66.1375 22.0082C66.1689 21.421 66.1689 21.421 66.1375 20.8809Z" fill="#5085D2"/>
  <path d="M69.8952 14.8682C70.1432 14.9922 70.3912 15.1162 70.6468 15.2439C70.3368 15.802 70.0267 16.36 69.7073 16.935C69.5833 16.6869 69.4593 16.4389 69.3315 16.1834C69.5176 15.9974 69.7036 15.8114 69.8952 15.6197C69.7712 15.4957 69.6472 15.3717 69.5194 15.2439C69.6434 15.1199 69.7674 14.9959 69.8952 14.8682Z" fill="#4885D8"/>
  <path d="M55.9915 1.90381C56.1911 2.24436 56.1911 2.24436 56.3672 2.65537C56.3052 2.84138 56.2432 3.02739 56.1793 3.21904C55.9933 3.21904 55.8073 3.21904 55.6157 3.21904C55.5537 3.40505 55.4917 3.59106 55.4278 3.78271C55.3038 3.78271 55.1798 3.78271 55.052 3.78271C55.3028 3.10745 55.6082 2.51353 55.9915 1.90381Z" fill="#4981DC"/>
  <path d="M42.4631 60.9014C42.5871 60.9634 42.7111 61.0254 42.8389 61.0893C42.2809 62.0193 42.2809 62.0193 41.7116 62.9682C41.6496 62.7822 41.5876 62.5961 41.5237 62.4045C41.5857 62.2805 41.6477 62.1565 41.7116 62.0287C41.7116 61.7807 41.7116 61.5327 41.7116 61.2771C41.9596 61.2771 42.2076 61.2771 42.4631 61.2771C42.4631 61.1531 42.4631 61.0291 42.4631 60.9014Z" fill="#4B85D9"/>
  <path d="M74.4047 56.2041C74.7805 56.4625 74.7805 56.4625 75.1563 56.7678C75.1563 56.8918 75.1563 57.0158 75.1563 57.1436C75.0323 57.1436 74.9083 57.1436 74.7805 57.1436C74.7185 57.3296 74.6565 57.5156 74.5926 57.7072C74.3446 57.6452 74.0966 57.5832 73.8411 57.5193C73.8411 57.1436 73.8411 57.1436 74.2168 56.7678C74.2788 56.5818 74.3409 56.3957 74.4047 56.2041Z" fill="#4688DF"/>
  <path d="M34.0082 38.1667C34.1961 38.7304 34.1961 38.7304 34.1961 39.1062C34.0721 39.1062 33.9481 39.1062 33.8203 39.1062C33.8203 39.2922 33.8203 39.4782 33.8203 39.6699C33.3506 39.9869 33.3506 39.9869 32.8809 40.2335C33.1534 39.4614 33.5406 38.837 34.0082 38.1667Z" fill="#4C87D8"/>
  <path d="M64.0707 25.0144C64.2567 25.0764 64.4427 25.1384 64.6343 25.2023C64.3863 25.6363 64.1383 26.0703 63.8828 26.5175C63.8208 26.3315 63.7588 26.1455 63.6949 25.9539C63.5709 25.9539 63.4469 25.9539 63.3191 25.9539C63.3191 25.8298 63.3191 25.7058 63.3191 25.5781C63.4431 25.5781 63.5671 25.5781 63.6949 25.5781C63.6949 25.4541 63.6949 25.3301 63.6949 25.2023C63.8189 25.1403 63.9429 25.0783 64.0707 25.0144Z" fill="#4987DC"/>
  <path d="M80.417 63.7197C81.0263 64.1687 81.4521 64.5098 81.7322 65.2229C81.286 65.1641 81.286 65.1641 80.7928 65.035C80.417 64.4713 80.417 64.4713 80.417 63.7197Z" fill="#4D86D0"/>
  <path d="M74.5925 7.35254C74.7785 7.41454 74.9645 7.47655 75.1562 7.54043C74.9333 8.17457 74.7286 8.60149 74.2167 9.04355C74.1547 8.73353 74.0927 8.42351 74.0288 8.1041C74.1528 8.0421 74.2768 7.98009 74.4046 7.91621C74.4666 7.7302 74.5286 7.54419 74.5925 7.35254Z" fill="#4682DD"/>
  <path d="M63.695 42.864C64.6109 43.7565 64.6109 43.7565 64.8223 44.1792C64.4818 44.3084 64.4818 44.3084 64.0708 44.3671C63.7419 44.097 63.7419 44.097 63.5071 43.8035C63.6311 43.8035 63.7551 43.8035 63.8829 43.8035C63.8209 43.4934 63.7589 43.1834 63.695 42.864Z" fill="#4A85D9"/>
  <path d="M59.1854 38.9182C59.2474 39.1042 59.3094 39.2902 59.3733 39.4819C59.4973 39.5439 59.6213 39.6059 59.7491 39.6698C58.8566 40.4213 58.8566 40.4213 58.4338 40.4213C58.6451 39.8629 58.8515 39.4191 59.1854 38.9182Z" fill="#4A86DB"/>
  <path d="M78.7261 1.34009C78.7881 1.4641 78.8501 1.5881 78.914 1.71587C78.5852 2.27954 78.5852 2.27954 78.1625 2.84321C77.9144 2.84321 77.6664 2.84321 77.4109 2.84321C77.5635 2.47917 77.5635 2.47917 77.7867 2.09165C77.9727 2.02965 78.1587 1.96764 78.3503 1.90376C78.4743 1.71775 78.5984 1.53174 78.7261 1.34009Z" fill="#4A86DA"/>
  <path d="M70.4589 51.3191C71.1304 51.8227 71.6462 52.3386 72.1499 53.0101C72.0879 53.1341 72.0259 53.2581 71.962 53.3859C71.8872 53.2975 71.8123 53.2091 71.7352 53.118C71.6357 53.001 71.5361 52.884 71.4336 52.7635C71.3355 52.648 71.2374 52.5324 71.1363 52.4134C70.8588 52.098 70.5715 51.8003 70.271 51.507C70.333 51.445 70.395 51.383 70.4589 51.3191Z" fill="#4A8AD1"/>
  <path d="M54.8641 3.78271C54.9261 3.78271 54.9881 3.78271 55.052 3.78271C54.99 4.21674 54.928 4.65077 54.8641 5.09795C54.6161 5.15995 54.3681 5.22196 54.1125 5.28584C54.3238 4.72744 54.5302 4.28355 54.8641 3.78271Z" fill="#5183D8"/>
  <path d="M28.5593 56.5798C28.8073 56.6418 29.0554 56.7038 29.3109 56.7677C29.2489 57.3878 29.1869 58.0078 29.123 58.6466C28.7562 57.913 28.6521 57.3836 28.5593 56.5798Z" fill="#4E89D8"/>
  <path d="M20.1042 19.1897C20.2283 19.4377 20.3523 19.6857 20.48 19.9413C19.5875 20.8572 19.5875 20.8572 19.1648 21.0686C19.4156 20.3933 19.721 19.7994 20.1042 19.1897Z" fill="#8EB0E1"/>
  <path d="M35.1354 72.1748C35.3834 72.1748 35.6314 72.1748 35.887 72.1748C35.5582 73.0908 35.5582 73.0908 35.1354 73.3021C35.0636 72.991 35.0013 72.6775 34.9475 72.3627C35.0095 72.3007 35.0715 72.2387 35.1354 72.1748Z" fill="#4D87E0"/>
  <path d="M59.7491 37.9788C60.0591 38.2888 60.3691 38.5988 60.6885 38.9182C60.5025 39.0112 60.5025 39.0112 60.3127 39.1061C60.3127 38.9821 60.3127 38.8581 60.3127 38.7303C60.0027 38.7923 59.6927 38.8543 59.3733 38.9182C59.4973 38.6082 59.6213 38.2982 59.7491 37.9788Z" fill="#4D80CD"/>
  <path d="M27.6199 48.6885C27.9957 49.2521 27.9957 49.2521 27.9252 49.6632C27.8865 49.7755 27.8477 49.8879 27.8078 50.0037C27.6218 50.0037 27.4358 50.0037 27.2441 50.0037C27.4085 48.8999 27.4085 48.8999 27.6199 48.6885Z" fill="#4C87DC"/>
  <path d="M7.32773 40.2334C7.51562 40.7971 7.51562 40.7971 7.33948 41.2081C7.24066 41.3767 7.24066 41.3767 7.13984 41.5486C7.26385 41.6106 7.38786 41.6726 7.51562 41.7365C7.2056 41.6745 6.89559 41.6125 6.57617 41.5486C6.82419 41.1146 7.0722 40.6806 7.32773 40.2334Z" fill="#8AAFE4"/>
  <path d="M64.8223 22.5718C65.2873 22.6648 65.2873 22.6648 65.7617 22.7597C65.6913 23.2177 65.6913 23.2177 65.5738 23.6991C65.3878 23.7921 65.3878 23.7921 65.198 23.887C65.074 23.453 64.95 23.019 64.8223 22.5718Z" fill="#4787DF"/>
  <path d="M83.6113 67.6655C84.5273 68.558 84.5273 68.558 84.7387 68.9808C84.4287 68.9188 84.1186 68.8568 83.7992 68.7929C83.7372 68.4208 83.6752 68.0488 83.6113 67.6655Z" fill="#4B84D8"/>
  <path d="M52.9852 49.0642C53.1144 49.393 53.1144 49.393 53.1731 49.8158C52.9265 50.2385 52.9265 50.2385 52.6094 50.5673C52.4854 50.5673 52.3614 50.5673 52.2336 50.5673C52.4449 50.0089 52.6513 49.565 52.9852 49.0642Z" fill="#4A87D4"/>
  <path d="M58.0583 34.5967C58.2443 34.6587 58.4303 34.7207 58.6219 34.7846C58.4201 35.3323 58.2878 35.6823 57.8704 36.0998C57.8624 35.6615 57.8627 35.2229 57.8704 34.7846C57.9324 34.7226 57.9944 34.6606 58.0583 34.5967Z" fill="#4983DA"/>
  <path d="M40.9602 26.7053C41.0222 26.8293 41.0842 26.9533 41.1481 27.0811C40.9719 27.5743 40.9719 27.5743 40.7723 28.0206C40.6483 28.0206 40.5243 28.0206 40.3965 28.0206C40.3965 28.1446 40.3965 28.2686 40.3965 28.3963C40.2725 28.3343 40.1485 28.2723 40.0208 28.2084C40.3308 27.7124 40.6408 27.2164 40.9602 26.7053Z" fill="#5288D1"/>
  <g/>
  <path d="M89.7933 38V19.8182H93.087V28.1722H93.3089L100.402 19.8182H104.424L97.3928 27.9769L104.486 38H100.527L95.1023 30.2053L93.087 32.5845V38H89.7933ZM116.712 38V19.8182H123.53C124.927 19.8182 126.099 20.0608 127.046 20.5462C127.999 21.0315 128.718 21.7121 129.203 22.5881C129.695 23.4581 129.94 24.4731 129.94 25.6332C129.94 26.7991 129.692 27.8112 129.195 28.6694C128.703 29.5217 127.978 30.1816 127.019 30.6491C126.061 31.1108 124.883 31.3416 123.486 31.3416H118.63V28.6072H123.042C123.859 28.6072 124.528 28.4948 125.049 28.2699C125.569 28.0391 125.954 27.7047 126.203 27.2667C126.457 26.8228 126.584 26.2783 126.584 25.6332C126.584 24.988 126.457 24.4376 126.203 23.9819C125.948 23.5202 125.561 23.171 125.04 22.9343C124.519 22.6916 123.847 22.5703 123.024 22.5703H120.006V38H116.712ZM126.105 29.7614L130.606 38H126.931L122.509 29.7614H126.105ZM145.307 38H141.791L148.192 19.8182H152.258L158.668 38H155.152L150.296 23.5469H150.154L145.307 38ZM145.422 30.8711H155.01V33.5167H145.422V30.8711ZM185.771 25.9528H182.451C182.356 25.4083 182.182 24.9259 181.927 24.5057C181.673 24.0795 181.356 23.7185 180.977 23.4226C180.598 23.1267 180.166 22.9047 179.681 22.7567C179.202 22.6029 178.684 22.5259 178.127 22.5259C177.139 22.5259 176.263 22.7745 175.5 23.2717C174.736 23.7629 174.138 24.485 173.706 25.4379C173.274 26.3848 173.058 27.5419 173.058 28.9091C173.058 30.3 173.274 31.4718 173.706 32.4247C174.144 33.3717 174.742 34.0878 175.5 34.5732C176.263 35.0526 177.136 35.2923 178.119 35.2923C178.663 35.2923 179.172 35.2212 179.646 35.0792C180.125 34.9312 180.554 34.7152 180.933 34.4311C181.318 34.147 181.64 33.7978 181.9 33.3835C182.167 32.9692 182.35 32.4957 182.451 31.9631L185.771 31.9808C185.647 32.8449 185.378 33.6558 184.963 34.4134C184.555 35.1709 184.019 35.8397 183.356 36.4197C182.694 36.9938 181.918 37.4437 181.03 37.7692C180.143 38.0888 179.157 38.2486 178.074 38.2486C176.476 38.2486 175.05 37.8787 173.795 37.1388C172.54 36.399 171.552 35.3307 170.83 33.9339C170.108 32.5372 169.747 30.8622 169.747 28.9091C169.747 26.95 170.111 25.2751 170.839 23.8842C171.567 22.4875 172.558 21.4192 173.813 20.6793C175.068 19.9395 176.488 19.5696 178.074 19.5696C179.086 19.5696 180.027 19.7116 180.897 19.9957C181.767 20.2798 182.543 20.6971 183.223 21.2475C183.904 21.792 184.463 22.4608 184.901 23.2539C185.345 24.0411 185.635 24.9407 185.771 25.9528ZM198.787 38V19.8182H202.081V28.1722H202.303L209.396 19.8182H213.418L206.387 27.9769L213.48 38H209.521L204.096 30.2053L202.081 32.5845V38H198.787ZM231.992 38.2486C230.672 38.2486 229.5 38.0266 228.476 37.5827C227.458 37.1388 226.659 36.5322 226.079 35.7628C225.505 34.9875 225.221 34.1085 225.227 33.1261C225.221 32.3626 225.387 31.6612 225.724 31.022C226.062 30.3828 226.517 29.8501 227.091 29.424C227.671 28.992 228.316 28.7167 229.027 28.5984V28.4741C228.092 28.2669 227.334 27.7905 226.754 27.0447C226.18 26.2931 225.896 25.426 225.902 24.4435C225.896 23.5084 226.156 22.6739 226.683 21.94C227.21 21.2061 227.932 20.629 228.849 20.2088C229.767 19.7827 230.814 19.5696 231.992 19.5696C233.158 19.5696 234.197 19.7827 235.108 20.2088C236.025 20.629 236.747 21.2061 237.274 21.94C237.807 22.6739 238.073 23.5084 238.073 24.4435C238.073 25.426 237.78 26.2931 237.194 27.0447C236.614 27.7905 235.866 28.2669 234.948 28.4741V28.5984C235.658 28.7167 236.298 28.992 236.866 29.424C237.44 29.8501 237.896 30.3828 238.233 31.022C238.576 31.6612 238.748 32.3626 238.748 33.1261C238.748 34.1085 238.458 34.9875 237.878 35.7628C237.298 36.5322 236.499 37.1388 235.481 37.5827C234.469 38.0266 233.306 38.2486 231.992 38.2486ZM231.992 35.7095C232.673 35.7095 233.264 35.5941 233.767 35.3633C234.271 35.1265 234.661 34.7951 234.939 34.369C235.218 33.9428 235.36 33.4516 235.366 32.8952C235.36 32.3152 235.209 31.8033 234.913 31.3594C234.623 30.9096 234.223 30.5574 233.714 30.3029C233.211 30.0484 232.637 29.9212 231.992 29.9212C231.341 29.9212 230.761 30.0484 230.252 30.3029C229.743 30.5574 229.34 30.9096 229.044 31.3594C228.754 31.8033 228.612 32.3152 228.618 32.8952C228.612 33.4516 228.749 33.9428 229.027 34.369C229.305 34.7892 229.696 35.1177 230.199 35.3544C230.708 35.5911 231.305 35.7095 231.992 35.7095ZM231.992 27.4265C232.548 27.4265 233.04 27.314 233.466 27.0891C233.898 26.8642 234.238 26.5505 234.487 26.1481C234.735 25.7456 234.862 25.281 234.868 24.7543C234.862 24.2334 234.738 23.7777 234.495 23.3871C234.253 22.9905 233.915 22.6857 233.483 22.4727C233.051 22.2537 232.554 22.1442 231.992 22.1442C231.418 22.1442 230.912 22.2537 230.474 22.4727C230.042 22.6857 229.704 22.9905 229.462 23.3871C229.225 23.7777 229.11 24.2334 229.116 24.7543C229.11 25.281 229.228 25.7456 229.471 26.1481C229.719 26.5446 230.06 26.8583 230.492 27.0891C230.93 27.314 231.43 27.4265 231.992 27.4265Z" style="fill: rgb(255, 255, 255);"/>
  <text style="fill: rgb(131, 179, 246); font-family: Arial, sans-serif; font-size: 27.7964px; font-weight: 700; letter-spacing: 1.3px; white-space: pre;" transform="matrix(0.635934, 0, 0, 0.559997, 43.478329, 29.753387)" x="113.553" y="56.242">LIGHTHOUSE</text>
  <text style="white-space: pre; fill: rgb(51, 51, 51); font-family: Arial, sans-serif; font-size: 28px;" x="154.299" y="72.14"> </text>
</svg>