<svg width="156" height="54" viewBox="0 0 156 54" fill="none" xmlns="http://www.w3.org/2000/svg">
<path d="M21.0234 21.1786C22.6435 21.1786 24.2251 21.8297 25.5367 23.0935C32.1717 29.3361 38.691 35.8084 44.9403 42.3191C47.602 45.0765 47.5248 49.0595 44.8245 51.8169C43.4358 53.234 41.6228 53.9999 39.7711 53.9999C38.1124 53.9999 36.5693 53.3872 35.3349 52.1616C29.0085 46.1489 22.9522 40.0595 16.51 33.6255L15.9314 33.051C14.5812 31.7106 13.8483 29.9106 13.9255 27.9957C13.964 26.1574 14.7741 24.434 16.1628 23.2084L16.2014 23.1701L16.24 23.1318C17.6673 21.868 19.326 21.1786 21.0234 21.1786Z" fill="#E2E8F2"/>
<path d="M6.98219 7.35352C8.91097 7.35352 10.6469 8.08118 11.9584 9.3833C14.6202 12.0642 14.543 16.5833 11.8427 19.1876C10.5311 20.4514 8.83382 21.1408 7.02077 21.1408C5.13056 21.1408 3.35608 20.4131 2.00593 19.0344C0.694362 17.7322 0 15.9705 0 14.1322C0 12.2939 0.771513 10.5705 2.08308 9.26841C3.39466 8.04288 5.13056 7.35352 6.98219 7.35352Z" fill="#5BC4D6"/>
<path d="M39.1924 0C40.9283 1.68511 42.5484 3.25532 44.0143 4.86383C46.5603 7.69787 46.5603 11.0681 44.0915 13.6723C37.8036 20.2213 31.2844 26.6936 24.7265 32.8979C23.4535 34.0851 21.9105 34.7362 20.2903 34.7362C18.593 34.7362 16.9342 34.0468 15.6227 32.783C12.9609 30.217 12.8066 26.3489 15.2755 23.8596C21.3318 17.617 27.4654 11.566 33.9461 5.17021C35.6434 3.48511 37.4179 1.7234 39.1924 0Z" fill="#5BC4D6"/>
<path d="M57.2461 13.0207H60.7951V20.9866H60.9879L67.8544 13.0207H72.0977V13.2122L65.3084 20.9101L72.7921 31.4037V31.5952H68.5102L62.9553 23.6675L60.7951 26.1186V31.5569H57.2461V13.0207Z" fill="#E4EAF1"/>
<path d="M74.7598 13.0207H78.3087V28.3015H86.2167V31.6335H74.7598V13.0207Z" fill="#E4EAF1"/>
<path d="M97.2108 32.0167C95.8221 32.0167 94.5105 31.7486 93.3147 31.2508C92.1188 30.7529 91.0773 30.0635 90.2286 29.1827C89.3414 28.3018 88.6856 27.2678 88.1841 26.0806C87.6826 24.8933 87.4512 23.6295 87.4512 22.2891C87.4512 20.9486 87.6826 19.6848 88.1841 18.4976C88.6856 17.3103 89.38 16.2763 90.2286 15.3954C91.1159 14.5146 92.1188 13.8252 93.3147 13.3274C94.5105 12.8295 95.7835 12.5614 97.2108 12.5614C98.5995 12.5614 99.9111 12.8295 101.107 13.3274C102.303 13.8252 103.344 14.5146 104.193 15.3954C105.08 16.2763 105.736 17.3103 106.237 18.4976C106.739 19.6848 106.97 20.9486 106.97 22.2891C106.97 23.6295 106.739 24.8933 106.237 26.0806C105.736 27.2678 105.042 28.3018 104.193 29.1827C103.306 30.0635 102.303 30.7529 101.107 31.2508C99.8725 31.7869 98.5995 32.0167 97.2108 32.0167ZM97.2108 28.7231C98.098 28.7231 98.9081 28.5699 99.6411 28.2635C100.413 27.9571 101.068 27.5359 101.647 26.9614C102.226 26.4252 102.65 25.7359 102.997 24.9316C103.306 24.1274 103.499 23.2848 103.499 22.3274C103.499 21.3699 103.344 20.4891 102.997 19.7231C102.689 18.9188 102.226 18.2678 101.647 17.6933C101.068 17.1571 100.413 16.6976 99.6411 16.3912C98.8696 16.0848 98.0595 15.9316 97.2108 15.9316C96.3236 15.9316 95.5135 16.0848 94.7805 16.3912C94.009 16.6976 93.3532 17.1188 92.7746 17.6933C92.196 18.2295 91.7716 18.9188 91.4245 19.7231C91.1159 20.5274 90.923 21.3699 90.923 22.3274C90.923 23.2848 91.0773 24.1657 91.4245 24.9316C91.7331 25.7359 92.196 26.3869 92.7746 26.9614C93.3532 27.4976 94.009 27.9571 94.7805 28.2635C95.5135 28.5699 96.3236 28.7231 97.2108 28.7231Z" fill="#E4EAF1"/>
<path d="M107.472 13.0207H111.291L115.148 24.2037L115.843 26.5781H116.035L116.768 24.2037L120.78 13.0207H124.599L117.771 31.5952H114.068L107.472 13.0207Z" fill="#E4EAF1"/>
<path d="M130.347 16.3526V20.6803H137.869V24.0122H130.347V28.3398H138.679V31.6718H126.798V13.0207H138.679V16.3526H130.347V16.3526Z" fill="#E4EAF1"/>
<path d="M141.92 13.0207H148.748C149.674 13.0207 150.561 13.1739 151.294 13.4803C152.065 13.7866 152.721 14.1696 153.261 14.7058C153.801 15.242 154.226 15.8547 154.534 16.5441C154.843 17.2718 154.997 18.0377 154.997 18.8803C154.997 19.493 154.881 20.1058 154.688 20.642C154.496 21.1781 154.187 21.676 153.84 22.1356C153.493 22.5952 153.03 22.9781 152.567 23.3228C152.065 23.6675 151.564 23.9356 151.024 24.1271L150.985 24.3186L156 31.442V31.6335H151.95L147.128 24.6632H145.469V31.6335H141.92V13.0207ZM148.748 21.4079C149.558 21.4079 150.214 21.1781 150.715 20.6803C151.217 20.1824 151.487 19.5696 151.487 18.842C151.487 18.4973 151.448 18.1909 151.332 17.8845C151.217 17.5781 151.062 17.3101 150.831 17.042C150.599 16.8122 150.329 16.6207 149.982 16.4675C149.635 16.3143 149.249 16.2377 148.825 16.2377H145.507V21.4079H148.748V21.4079Z" fill="#E4EAF1"/>
<path d="M64.5364 44.9234C64.1506 45.3829 63.6877 45.7276 63.1477 45.9957C62.6076 46.2255 62.029 46.3787 61.3732 46.3787C60.7946 46.3787 60.2545 46.2638 59.753 46.0723C59.2515 45.8425 58.8272 45.5744 58.4414 45.2297C58.0943 44.8851 57.7857 44.4255 57.5928 43.9276C57.3613 43.4297 57.2842 42.8936 57.2842 42.3191C57.2842 41.7446 57.3999 41.2085 57.5928 40.7106C57.8242 40.2127 58.0943 39.7914 58.4414 39.4085C58.7886 39.0638 59.2515 38.7574 59.753 38.5659C60.2545 38.3361 60.7946 38.2595 61.3732 38.2595C61.9904 38.2595 62.569 38.3744 63.0319 38.6042C63.4949 38.834 63.9192 39.1404 64.3049 39.5616L63.2634 40.5574C63.0319 40.2893 62.7619 40.0595 62.4533 39.9063C62.1447 39.7531 61.7975 39.6765 61.3732 39.6765C61.026 39.6765 60.6788 39.7531 60.3317 39.868C60.0231 39.9829 59.7144 40.1744 59.483 40.4042C59.2515 40.634 59.0587 40.9021 58.9044 41.2468C58.7501 41.5914 58.7115 41.9361 58.7115 42.3574C58.7115 42.7787 58.7886 43.1234 58.9044 43.468C59.0587 43.8127 59.213 44.0808 59.483 44.3106C59.7144 44.5404 59.9845 44.7319 60.3317 44.8468C60.6403 44.9617 60.9874 45.0383 61.3732 45.0383C61.7975 45.0383 62.2219 44.9617 62.5305 44.7702C62.8776 44.5787 63.1862 44.3489 63.4177 44.0042L64.5364 44.9234Z" fill="#E4EAF1"/>
<path d="M81.0855 38.3743H82.5513V44.7701H85.8688V46.1488H81.0469V38.3743H81.0855Z" fill="#E4EAF1"/>
<path d="M105.889 46.3785C105.31 46.3785 104.77 46.2636 104.269 46.0721C103.767 45.8423 103.343 45.5742 102.957 45.1913C102.61 44.8083 102.301 44.387 102.108 43.8891C101.916 43.3913 101.8 42.8551 101.8 42.2806C101.8 41.7061 101.916 41.17 102.108 40.6721C102.301 40.1742 102.61 39.753 102.957 39.37C103.304 38.987 103.767 38.7189 104.269 38.4891C104.77 38.2593 105.31 38.1827 105.889 38.1827C106.467 38.1827 107.008 38.2976 107.509 38.4891C108.01 38.6806 108.435 38.987 108.821 39.37C109.168 39.753 109.476 40.1742 109.669 40.6721C109.862 41.17 109.978 41.7061 109.978 42.2806C109.978 42.8551 109.862 43.3913 109.669 43.8891C109.476 44.387 109.168 44.8083 108.821 45.1913C108.473 45.5742 108.01 45.8423 107.509 46.0721C107.008 46.2636 106.467 46.3785 105.889 46.3785ZM105.889 44.9615C106.236 44.9615 106.583 44.8849 106.93 44.77C107.239 44.6551 107.509 44.4636 107.779 44.2338C108.01 44.004 108.203 43.7359 108.358 43.3913C108.512 43.0466 108.551 42.7019 108.551 42.2806C108.551 41.8593 108.473 41.5147 108.358 41.17C108.203 40.8253 108.049 40.5572 107.779 40.3274C107.548 40.0976 107.278 39.9061 106.93 39.7913C106.622 39.6764 106.275 39.5998 105.889 39.5998C105.503 39.5998 105.194 39.6764 104.847 39.7913C104.539 39.9061 104.269 40.0976 103.999 40.3274C103.767 40.5572 103.574 40.8253 103.42 41.17C103.266 41.5147 103.227 41.8593 103.227 42.2806C103.227 42.7019 103.304 43.0466 103.42 43.3913C103.574 43.7359 103.729 44.004 103.999 44.2338C104.23 44.4636 104.5 44.6551 104.847 44.77C105.194 44.9232 105.542 44.9615 105.889 44.9615Z" fill="#E4EAF1"/>
<path d="M129.459 46.3786C128.996 46.3786 128.572 46.302 128.186 46.1488C127.8 45.9956 127.492 45.7658 127.222 45.4977C126.952 45.2296 126.759 44.885 126.605 44.4637C126.45 44.0424 126.373 43.5828 126.373 43.085V38.3743H127.839V43.1616C127.839 43.4296 127.877 43.6594 127.955 43.8892C128.032 44.119 128.109 44.3105 128.263 44.4637C128.418 44.6169 128.572 44.7318 128.765 44.8467C128.958 44.9233 129.189 44.9999 129.459 44.9999C129.729 44.9999 129.961 44.9616 130.153 44.8467C130.346 44.7701 130.501 44.6169 130.655 44.4637C130.771 44.3105 130.886 44.119 130.964 43.8892C131.041 43.6594 131.079 43.4296 131.079 43.1616V38.3743H132.545V43.085C132.545 43.5828 132.468 44.0041 132.314 44.4254C132.159 44.8467 131.967 45.1913 131.696 45.4594C131.426 45.7658 131.118 45.9573 130.732 46.1488C130.346 46.302 129.922 46.3786 129.459 46.3786Z" fill="#E4EAF1"/>
<path d="M149.287 38.3743H151.949C152.566 38.3743 153.145 38.4509 153.646 38.6424C154.148 38.8339 154.572 39.102 154.919 39.4467C155.266 39.7914 155.536 40.2126 155.729 40.6722C155.922 41.1701 155.999 41.6679 155.999 42.2424C155.999 42.8169 155.922 43.3531 155.729 43.8509C155.536 44.3488 155.266 44.7318 154.919 45.0765C154.572 45.4211 154.148 45.6892 153.646 45.8807C153.145 46.0722 152.605 46.1488 151.949 46.1488H149.287V38.3743ZM151.91 44.8084C152.335 44.8084 152.72 44.7318 153.068 44.6169C153.415 44.502 153.685 44.3105 153.878 44.119C154.109 43.8892 154.263 43.6211 154.379 43.3148C154.495 43.0084 154.533 42.6637 154.533 42.2807C154.533 41.8977 154.495 41.5531 154.379 41.2467C154.263 40.9403 154.109 40.6722 153.878 40.4424C153.646 40.2126 153.376 40.0594 153.068 39.9445C152.72 39.8296 152.373 39.7531 151.91 39.7531H150.792V44.7701H151.91V44.8084Z" fill="#E4EAF1"/>
</svg>
