<svg width="31" height="31" viewBox="0 0 31 31" fill="none" xmlns="http://www.w3.org/2000/svg">
<rect width="31" height="31" rx="8" fill="#EDF4FF"/>
<mask id="mask0_9094_7151" style="mask-type:alpha" maskUnits="userSpaceOnUse" x="0" y="0" width="31" height="31">
<rect width="31" height="31" fill="#CAEDF3"/>
</mask>
<g mask="url(#mask0_9094_7151)">
<path d="M20.5625 12C19.5674 12.0138 18.5655 12.4561 17.681 13.2852L13.0376 17.6523C12.3258 18.3295 11.6141 18.6197 10.9439 18.6335C10.2667 18.6404 9.61023 18.3779 9.00216 17.8113C7.8482 16.7333 7.85511 15.0749 9.00907 13.9832C10.2114 12.8499 11.6348 12.9605 12.6644 13.8311L14.385 15.4066C14.6061 15.6346 15.0207 15.6277 15.2349 15.3928C15.4491 15.1578 15.4215 14.7502 15.1796 14.5498C14.5923 14.0108 14.005 13.4718 13.4245 12.9328C11.9942 11.7236 9.7968 11.6269 8.20752 13.1263C6.60441 14.6465 6.59059 17.1617 8.20752 18.675C8.99525 19.4074 9.96264 19.8151 10.9646 19.8013C11.9596 19.7875 12.9616 19.3453 13.846 18.5092L18.4895 14.1421C19.2012 13.4649 19.9129 13.1816 20.5832 13.1678C21.2604 13.1609 21.9168 13.4165 22.5249 13.9832C23.6789 15.0611 23.6719 16.7264 22.518 17.8182C21.3226 18.9445 19.906 18.8408 18.8765 17.984C18.2684 17.4312 17.6603 16.8646 17.1421 16.3878C16.9209 16.1598 16.5063 16.1667 16.2921 16.4016C16.0779 16.6366 16.1056 17.0443 16.3474 17.2446C16.9348 17.7836 17.5152 18.3295 18.1025 18.8616C19.5329 20.0708 21.7303 20.1675 23.3195 18.6681C24.9226 17.1479 24.9365 14.6396 23.3195 13.1263C22.4973 12.3593 21.4539 12 20.5625 12Z" fill="#4164A9"/>
</g>
</svg>
