<svg width="30" height="30" viewBox="0 0 30 30" fill="none" xmlns="http://www.w3.org/2000/svg">
<rect width="30" height="30" rx="6" fill="#D7DCE3"/>
<path d="M21.6094 17.9531H20.6602V15.4922H15.5977V13.875H19.7812C19.9359 13.875 20.0625 13.7484 20.0625 13.5938V8.95312C20.0625 8.79844 19.9359 8.67188 19.7812 8.67188H10.2188C10.0641 8.67188 9.9375 8.79844 9.9375 8.95312V13.5938C9.9375 13.7484 10.0641 13.875 10.2188 13.875H14.4023V15.4922H9.33984V17.9531H8.39062C8.31328 17.9531 8.25 18.0164 8.25 18.0938V21.1875C8.25 21.2648 8.31328 21.3281 8.39062 21.3281H11.4844C11.5617 21.3281 11.625 21.2648 11.625 21.1875V18.0938C11.625 18.0164 11.5617 17.9531 11.4844 17.9531H10.5352V16.6875H14.4023V17.9531H13.4531C13.3758 17.9531 13.3125 18.0164 13.3125 18.0938V21.1875C13.3125 21.2648 13.3758 21.3281 13.4531 21.3281H16.5469C16.6242 21.3281 16.6875 21.2648 16.6875 21.1875V18.0938C16.6875 18.0164 16.6242 17.9531 16.5469 17.9531H15.5977V16.6875H19.4648V17.9531H18.5156C18.4383 17.9531 18.375 18.0164 18.375 18.0938V21.1875C18.375 21.2648 18.4383 21.3281 18.5156 21.3281H21.6094C21.6867 21.3281 21.75 21.2648 21.75 21.1875V18.0938C21.75 18.0164 21.6867 17.9531 21.6094 17.9531ZM10.5 20.1557C10.5 20.182 10.4789 20.2031 10.4525 20.2031H9.4207C9.39434 20.2031 9.37324 20.182 9.37324 20.1557V19.1238C9.37324 19.0975 9.39434 19.0764 9.4207 19.0764H10.4525C10.4789 19.0764 10.5 19.0975 10.5 19.1238V20.1557ZM15.5625 20.1557C15.5625 20.182 15.5414 20.2031 15.515 20.2031H14.4832C14.4568 20.2031 14.4357 20.182 14.4357 20.1557V19.1238C14.4357 19.0975 14.4568 19.0764 14.4832 19.0764H15.515C15.5414 19.0764 15.5625 19.0975 15.5625 19.1238V20.1557ZM11.0625 12.75V9.79688H18.9375V12.75H11.0625ZM20.625 20.1557C20.625 20.182 20.6039 20.2031 20.5775 20.2031H19.5457C19.5193 20.2031 19.4982 20.182 19.4982 20.1557V19.1238C19.4982 19.0975 19.5193 19.0764 19.5457 19.0764H20.5775C20.6039 19.0764 20.625 19.0975 20.625 19.1238V20.1557ZM12.3281 11.2734C12.3281 11.4599 12.4022 11.6388 12.5341 11.7706C12.6659 11.9025 12.8448 11.9766 13.0312 11.9766C13.2177 11.9766 13.3966 11.9025 13.5284 11.7706C13.6603 11.6388 13.7344 11.4599 13.7344 11.2734C13.7344 11.087 13.6603 10.9081 13.5284 10.7763C13.3966 10.6444 13.2177 10.5703 13.0312 10.5703C12.8448 10.5703 12.6659 10.6444 12.5341 10.7763C12.4022 10.9081 12.3281 11.087 12.3281 11.2734Z" fill="#5C638B"/>
</svg>
