<svg width="31" height="31" viewBox="0 0 31 31" fill="none" xmlns="http://www.w3.org/2000/svg">
<rect x="0.5" y="0.0644531" width="30" height="30" rx="6" fill="#D7DCE3"/>
<path d="M16 9C12.6915 9 10 11.6915 10 15C10 18.3085 12.6915 21 16 21C19.3085 21 22 18.3085 22 15C22 11.6915 19.3085 9 16 9ZM16 10C18.7675 10 21 12.2325 21 15C21 17.7675 18.7675 20 16 20C13.2325 20 11 17.7675 11 15C11 12.2325 13.2325 10 16 10ZM14.6095 11.25C14.0702 11.4514 13.5804 11.7663 13.1734 12.1734C12.7663 12.5804 12.4514 13.0702 12.25 13.6095L13.1875 13.953C13.3382 13.5495 13.5738 13.183 13.8784 12.8784C14.183 12.5738 14.5495 12.3382 14.953 12.1875L14.6095 11.25ZM16 13.5C15.1775 13.5 14.5 14.1775 14.5 15C14.5 15.8225 15.1775 16.5 16 16.5C16.8225 16.5 17.5 15.8225 17.5 15C17.5 14.1775 16.8225 13.5 16 13.5ZM16 14.5C16.2815 14.5 16.5 14.719 16.5 15C16.5 15.2815 16.281 15.5 16 15.5C15.7185 15.5 15.5 15.281 15.5 15C15.5 14.7185 15.719 14.5 16 14.5ZM18.8125 16.047C18.6618 16.4505 18.4262 16.817 18.1216 17.1216C17.817 17.4262 17.4505 17.6618 17.047 17.8125L17.3905 18.75C17.9298 18.5486 18.4196 18.2337 18.8266 17.8266C19.2337 17.4196 19.5486 16.9298 19.75 16.3905L18.8125 16.047Z" fill="#5C638B"/>
</svg>
