<svg width="30" height="31" viewBox="0 0 30 31" fill="none" xmlns="http://www.w3.org/2000/svg">
<rect y="0.0644531" width="30" height="30" rx="6" fill="#D7DCE3"/>
<path fill-rule="evenodd" clip-rule="evenodd" d="M18.4775 11.5225C18.9999 12.0449 19.4142 12.665 19.6969 13.3474C19.9796 14.0299 20.1251 14.7613 20.1251 15.5C20.1251 16.2387 19.9796 16.9702 19.6969 17.6526C19.4142 18.3351 18.9999 18.9552 18.4775 19.4775C17.9552 19.9999 17.3351 20.4142 16.6526 20.6969C15.9702 20.9796 15.2387 21.1251 14.5 21.1251C13.7613 21.1251 13.0299 20.9796 12.3474 20.6969C11.665 20.4142 11.0449 19.9999 10.5225 19.4775C9.46764 18.4226 8.875 16.9919 8.875 15.5C8.875 14.0082 9.46764 12.5774 10.5225 11.5225C11.5774 10.4676 13.0082 9.875 14.5 9.875C15.9919 9.875 17.4226 10.4676 18.4775 11.5225ZM17.12 19.0038L10.9957 12.88C10.365 13.7227 10.0592 14.7644 10.1343 15.8143C10.2094 16.8641 10.6605 17.8517 11.4047 18.596C12.149 19.3402 13.1366 19.7912 14.1864 19.8664C15.2363 19.9415 16.278 19.6357 17.1207 19.005L17.12 19.0038ZM17.5938 12.4063C18.3376 13.1503 18.7885 14.1373 18.8639 15.1866C18.9393 16.236 18.6342 17.2773 18.0044 18.12L11.8794 11.9957C12.7221 11.3656 13.7636 11.0603 14.8131 11.1357C15.8626 11.2111 16.8498 11.6622 17.5938 12.4063Z" fill="#5C638B"/>
</svg>
