<svg width="31" height="31" viewBox="0 0 31 31" fill="none" xmlns="http://www.w3.org/2000/svg">
<rect width="31" height="31" rx="8" fill="#EDF4FF"/>
<mask id="mask0_9094_7025" style="mask-type:alpha" maskUnits="userSpaceOnUse" x="0" y="0" width="31" height="31">
<rect width="31" height="31" fill="#CAEDF3"/>
</mask>
<g mask="url(#mask0_9094_7025)">
<path d="M15 5C9.48 5 5 9.48 5 15C5 20.52 9.48 25 15 25C20.52 25 25 20.52 25 15C25 9.48 20.52 5 15 5ZM15 23C10.59 23 7 19.41 7 15C7 10.59 10.59 7 15 7C19.41 7 23 10.59 23 15C23 19.41 19.41 23 15 23ZM9.5 20.5L17.01 17.01L20.5 9.5L12.99 12.99L9.5 20.5ZM15 13.9C15.61 13.9 16.1 14.39 16.1 15C16.1 15.61 15.61 16.1 15 16.1C14.39 16.1 13.9 15.61 13.9 15C13.9 14.39 14.39 13.9 15 13.9Z" fill="#4164A9"/>
</g>
</svg>
