<svg width="30" height="31" viewBox="0 0 30 31" fill="none" xmlns="http://www.w3.org/2000/svg">
<rect y="0.398438" width="30" height="30" rx="6" fill="#D7DCE3"/>
<path d="M17.0716 19.875H12.7383C12.4623 19.875 12.2383 19.651 12.2383 19.375C12.2383 19.099 12.4623 18.875 12.7383 18.875H17.0716C17.3476 18.875 17.5716 19.099 17.5716 19.375C17.5716 19.651 17.3476 19.875 17.0716 19.875Z" fill="#5C638B"/>
<path d="M21.1667 23.0651H8.83333C7.822 23.0651 7 22.2431 7 21.2318V10.2318C7 9.22044 7.822 8.39844 8.83333 8.39844H21.1667C22.178 8.39844 23 9.22044 23 10.2318V21.2318C23 22.2431 22.178 23.0651 21.1667 23.0651ZM8.83333 9.39844C8.374 9.39844 8 9.77244 8 10.2318V21.2318C8 21.6911 8.374 22.0651 8.83333 22.0651H21.1667C21.626 22.0651 22 21.6911 22 21.2318V10.2318C22 9.77244 21.626 9.39844 21.1667 9.39844H8.83333Z" fill="#5C638B"/>
<path d="M22.5 11.7305H7.5C7.224 11.7305 7 11.5065 7 11.2305C7 10.9545 7.224 10.7305 7.5 10.7305H22.5C22.776 10.7305 23 10.9545 23 11.2305C23 11.5065 22.776 11.7305 22.5 11.7305Z" fill="#5C638B"/>
<path d="M13.6872 17.8932C13.6899 17.8932 13.6917 17.8966 13.6942 17.898L13.7115 17.9049C13.7842 17.9389 13.8582 17.9687 13.9347 17.9964C13.9471 18.0008 13.9595 18.0057 13.972 18.0098C14.0439 18.0343 14.1171 18.0551 14.1917 18.0736C14.2086 18.0777 14.2252 18.0827 14.2421 18.0866C14.3125 18.102 14.384 18.1135 14.4567 18.1225C14.4761 18.1252 14.4952 18.1299 14.5147 18.1315C14.6966 18.152 14.8799 18.152 15.0618 18.1315C15.0814 18.1299 15.1004 18.1252 15.1199 18.1225C15.1926 18.1135 15.264 18.102 15.3344 18.0866C15.3513 18.0827 15.3663 18.0777 15.3848 18.0736C15.4594 18.0556 15.5328 18.0349 15.6046 18.0098C15.617 18.0057 15.6295 18.0008 15.642 17.9964C15.7178 17.9693 15.7916 17.9389 15.8649 17.9049L15.8822 17.898C15.8848 17.898 15.8867 17.8944 15.8892 17.8932C16.9642 17.3793 17.5402 16.1898 17.2768 15.0277C17.0135 13.8659 15.9807 13.041 14.7891 13.041C13.5977 13.041 12.5652 13.8659 12.3016 15.0277C12.0383 16.1898 12.6143 17.3793 13.6892 17.8932H13.6872ZM15.4253 17.397L15.4212 17.3985C15.3234 17.4329 15.2235 17.4593 15.1215 17.4774C15.1116 17.4793 15.1016 17.4806 15.0917 17.4822C14.8904 17.515 14.6849 17.515 14.4835 17.4822C14.4737 17.4806 14.4637 17.4793 14.4538 17.4774C14.3518 17.4593 14.2518 17.4329 14.1541 17.3985L14.15 17.397V16.8709C14.15 16.5187 14.4354 16.2332 14.7876 16.2332C15.1399 16.2332 15.4253 16.5187 15.4253 16.8709V17.397ZM14.4688 15.2767C14.4688 15.1006 14.6115 14.9579 14.7876 14.9579C14.9638 14.9579 15.1065 15.1006 15.1065 15.2767C15.1065 15.4529 14.9638 15.5956 14.7876 15.5956C14.6115 15.5956 14.4688 15.4529 14.4688 15.2767ZM14.7876 13.6825C15.5804 13.6816 16.2914 14.1702 16.5743 14.9105C16.8576 15.651 16.654 16.4893 16.063 17.0176V16.8709C16.0619 16.4688 15.8705 16.091 15.5468 15.8522C15.6742 15.6872 15.7434 15.4849 15.7442 15.2767C15.7442 14.7486 15.3158 14.3202 14.7876 14.3202C14.2595 14.3202 13.8311 14.7486 13.8311 15.2767C13.8322 15.4846 13.9014 15.6863 14.0285 15.8506C13.7044 16.0896 13.5127 16.4682 13.5123 16.8709V17.0176C12.9212 16.4893 12.7176 15.651 13.0009 14.9105C13.2839 14.1702 13.9949 13.6816 14.7876 13.6825Z" fill="#5C638B"/>
</svg>
