<svg width="30" height="30" viewBox="0 0 30 30" fill="none" xmlns="http://www.w3.org/2000/svg">
<rect width="30" height="30" rx="6" fill="#D7DCE3"/>
<path d="M19.356 17.8013C19.1744 16.6998 18.1959 15.9102 17.0811 15.9644C15.9664 16.0186 15.0699 16.9019 14.9981 18.0152C12.7496 17.9449 11.9512 17.419 12.0816 16.3497C12.1299 15.9498 12.3716 15.7359 12.8155 15.6319C13.085 15.5689 13.3838 15.5601 13.6548 15.585C13.6797 15.588 13.7061 15.5894 13.731 15.5924C13.8965 15.6319 14.065 15.6656 14.2335 15.692C14.733 15.774 15.2413 15.815 15.7247 15.7886C17.084 15.7154 18.0098 15.1163 18.0567 13.8448C18.1021 12.6129 17.2554 11.7398 15.8902 11.1553C15.4522 10.9678 14.9878 10.8228 14.5235 10.713C14.314 10.6632 14.1382 10.6295 14.0079 10.6075C13.8921 9.49568 12.9605 8.64753 11.8428 8.63874C10.7252 8.62995 9.77887 9.46052 9.6441 10.5709C9.50933 11.6812 10.23 12.7139 11.317 12.9718C12.4039 13.2296 13.5128 12.6304 13.8907 11.5787C14.0284 11.6036 14.1646 11.6314 14.3008 11.6636C14.7139 11.7603 15.127 11.8892 15.5079 12.0533C16.5435 12.4957 17.1089 13.0802 17.0826 13.8096C17.0591 14.463 16.5904 14.7647 15.6734 14.8145C15.2706 14.8365 14.8296 14.8013 14.3946 14.7296C14.273 14.7091 14.1617 14.6886 14.0635 14.6666C14.0064 14.6549 13.9669 14.6446 13.9493 14.6402L13.9039 14.6314C13.8716 14.627 13.8174 14.6197 13.7471 14.6124C13.3809 14.5787 12.9839 14.5904 12.5972 14.6798C11.7886 14.8687 11.2217 15.3712 11.1163 16.2296C10.8863 18.0782 12.2676 18.9351 15.1592 18.9967C15.5855 20.0279 16.7178 20.5772 17.7901 20.2711C18.8638 19.9649 19.5377 18.9029 19.356 17.8013ZM11.8209 12.0562C11.147 12.0562 10.6006 11.5098 10.6006 10.836C10.6006 10.1622 11.147 9.61579 11.8209 9.61579C12.4947 9.61579 13.0411 10.1622 13.0411 10.836C13.0411 11.5098 12.4947 12.0562 11.8209 12.0562ZM17.1895 19.3775C16.5157 19.3775 15.9693 18.8311 15.9693 18.1573C15.9693 17.4835 16.5157 16.9371 17.1895 16.9371C17.8633 16.9371 18.4097 17.4835 18.4097 18.1573C18.4097 18.8311 17.8633 19.3775 17.1895 19.3775Z" fill="#5C638B"/>
</svg>
