<svg width="160" height="100" viewBox="0 0 160 100" fill="none" xmlns="http://www.w3.org/2000/svg">
<mask id="mask0" mask-type="alpha" maskUnits="userSpaceOnUse" x="6" y="64" width="64" height="36">
<rect x="6" y="64" width="64" height="36" fill="#C4C4C4"/>
</mask>
<g mask="url(#mask0)">
<path fill-rule="evenodd" clip-rule="evenodd" d="M12.5278 75.3908H10V84.1888H12.495C13.8412 84.1888 14.793 83.8931 15.6466 83.1711C16.6316 82.3506 17.2551 81.1028 17.2551 79.7897C17.2551 77.1966 15.3181 75.3908 12.5278 75.3908ZM14.5304 82.0221C13.9725 82.4819 13.2826 82.7116 12.1668 82.7116H11.7073V76.9009H12.1668C13.2826 76.9009 13.9394 77.0978 14.5304 77.5901C15.1212 78.1152 15.4825 78.9364 15.4825 79.7897C15.4822 80.6433 15.1212 81.497 14.5304 82.0221ZM18.0431 84.1892H19.7501V75.3908H18.0431V84.1892ZM23.952 78.7723C22.9015 78.3784 22.6061 78.1487 22.6061 77.6561C22.6061 77.0981 23.164 76.7043 23.8864 76.7043C24.4115 76.7043 24.8385 76.9012 25.2651 77.3935L26.1844 76.2448C25.4292 75.5881 24.5431 75.2599 23.591 75.2599C22.0153 75.2599 20.8335 76.3433 20.8335 77.7877C20.8335 79.0023 21.3914 79.5934 23.0002 80.1842C23.6898 80.4139 24.018 80.578 24.1821 80.6765C24.5431 80.9065 24.7072 81.2344 24.7072 81.5957C24.7072 82.3181 24.1493 82.8432 23.3613 82.8432C22.5733 82.8432 21.884 82.4166 21.4899 81.6614L20.4068 82.7448C21.1948 83.8935 22.1466 84.4189 23.4597 84.4189C25.2323 84.4189 26.4801 83.2371 26.4801 81.5301C26.4798 80.1182 25.889 79.4943 23.952 78.7723ZM27.0052 79.7897C27.0052 82.3831 29.0407 84.3858 31.6666 84.3858C32.389 84.3858 33.0454 84.2542 33.8006 83.8931V81.8577C33.111 82.5469 32.5203 82.8426 31.7323 82.8426C30.0253 82.8426 28.7778 81.5623 28.7778 79.7894C28.7778 78.1152 30.0581 76.7693 31.6666 76.7693C32.4875 76.7693 33.111 77.0647 33.8006 77.7542V75.7515C33.0782 75.3574 32.4546 75.1936 31.6995 75.1936C29.106 75.1939 27.0052 77.2622 27.0052 79.7897Z" fill="#353535"/>
<path fill-rule="evenodd" clip-rule="evenodd" d="M39.1509 75.1938C36.5572 75.1938 34.4561 77.2293 34.4561 79.724C34.4561 82.4162 36.4587 84.3857 39.1509 84.3857C41.7765 84.3857 43.8451 82.383 43.8451 79.7896C43.8454 77.2293 41.8097 75.1938 39.1509 75.1938Z" fill="#DB8135"/>
<path fill-rule="evenodd" clip-rule="evenodd" d="M39.1509 75.1938C36.5572 75.1938 34.4561 77.2293 34.4561 79.724C34.4561 82.4162 36.4587 84.3857 39.1509 84.3857C41.7765 84.3857 43.8451 82.383 43.8451 79.7896C43.8454 77.2293 41.8097 75.1938 39.1509 75.1938ZM39.1509 79.7896H43.8451H39.1509Z" fill="#DB8135"/>
<path fill-rule="evenodd" clip-rule="evenodd" d="M39.1509 79.7896H43.8451C43.8451 77.229 41.8093 75.1938 39.1509 75.1938C36.5572 75.1938 34.4561 77.2293 34.4561 79.724C34.4561 82.4162 36.4587 84.3857 39.1509 84.3857C41.7765 84.3857 43.8451 82.383 43.8451 79.7896H39.1509Z" fill="#DB8135"/>
<path fill-rule="evenodd" clip-rule="evenodd" d="M39.1509 79.7896H43.8451C43.8451 77.229 41.8093 75.1938 39.1509 75.1938C36.5572 75.1938 34.4561 77.2293 34.4561 79.724C34.4561 82.4162 36.4587 84.3857 39.1509 84.3857C41.7765 84.3857 43.8451 82.383 43.8451 79.7896H39.1509Z" fill="#DB8137"/>
<path fill-rule="evenodd" clip-rule="evenodd" d="M39.1509 79.7896H43.8451C43.8451 77.229 41.8093 75.1938 39.1509 75.1938C36.5572 75.1938 34.4561 77.2293 34.4561 79.724C34.4561 82.4162 36.4587 84.3857 39.1509 84.3857C41.7765 84.3857 43.8451 82.383 43.8451 79.7896H39.1509Z" fill="#DC8337"/>
<path fill-rule="evenodd" clip-rule="evenodd" d="M39.1509 79.7896H43.8451C43.8451 77.229 41.8093 75.1938 39.1509 75.1938C36.5572 75.1938 34.4561 77.2293 34.4561 79.724C34.4561 82.4162 36.4587 84.3857 39.1509 84.3857C41.7765 84.3857 43.8451 82.383 43.8451 79.7896H39.1509Z" fill="#DC8539"/>
<path fill-rule="evenodd" clip-rule="evenodd" d="M39.1509 79.7896H43.8451C43.8451 77.229 41.8093 75.1938 39.1509 75.1938C36.5572 75.1938 34.4561 77.2293 34.4561 79.724C34.4561 82.4162 36.4587 84.3857 39.1509 84.3857C41.7765 84.3857 43.8451 82.383 43.8451 79.7896H39.1509Z" fill="#DC853A"/>
<path fill-rule="evenodd" clip-rule="evenodd" d="M39.1509 79.7896H43.8451C43.8451 77.229 41.8093 75.1938 39.1509 75.1938C36.5572 75.1938 34.4561 77.2293 34.4561 79.724C34.4561 82.4162 36.4587 84.3857 39.1509 84.3857C41.7765 84.3857 43.8451 82.383 43.8451 79.7896H39.1509Z" fill="#DC853C"/>
<path fill-rule="evenodd" clip-rule="evenodd" d="M39.1509 79.7896H43.8451C43.8451 77.229 41.8093 75.1938 39.1509 75.1938C36.5572 75.1938 34.4561 77.2293 34.4561 79.724C34.4561 82.4162 36.4587 84.3857 39.1509 84.3857C41.7765 84.3857 43.8451 82.383 43.8451 79.7896H39.1509Z" fill="#DD873E"/>
<path fill-rule="evenodd" clip-rule="evenodd" d="M39.1509 79.7896H43.8451C43.8451 77.229 41.8093 75.1938 39.1509 75.1938C36.5572 75.1938 34.4561 77.2293 34.4561 79.724C34.4561 82.4162 36.4587 84.3857 39.1509 84.3857C41.7765 84.3857 43.8451 82.383 43.8451 79.7896H39.1509Z" fill="#DD873E"/>
<path fill-rule="evenodd" clip-rule="evenodd" d="M39.1509 79.7896H43.8451C43.8451 77.229 41.8093 75.1938 39.1509 75.1938C36.5572 75.1938 34.4561 77.2293 34.4561 79.724C34.4561 82.4162 36.4587 84.3857 39.1509 84.3857C41.7765 84.3857 43.8451 82.383 43.8451 79.7896H39.1509Z" fill="#DD883F"/>
<path fill-rule="evenodd" clip-rule="evenodd" d="M39.1509 79.7896H43.8451C43.8451 77.229 41.8093 75.1938 39.1509 75.1938C36.5572 75.1938 34.4561 77.2293 34.4561 79.724C34.4561 82.4162 36.4587 84.3857 39.1509 84.3857C41.7765 84.3857 43.8451 82.383 43.8451 79.7896H39.1509Z" fill="#DD8841"/>
<path fill-rule="evenodd" clip-rule="evenodd" d="M39.1509 79.7896H43.8451C43.8451 77.229 41.8093 75.1938 39.1509 75.1938C36.5572 75.1938 34.4561 77.2293 34.4561 79.724C34.4561 82.4162 36.4587 84.3857 39.1509 84.3857C41.7765 84.3857 43.8451 82.383 43.8451 79.7896H39.1509Z" fill="#DE8A41"/>
<path fill-rule="evenodd" clip-rule="evenodd" d="M39.1509 79.7896H43.8451C43.8451 77.229 41.8093 75.1938 39.1509 75.1938C36.5572 75.1938 34.4561 77.2293 34.4561 79.724C34.4561 82.4162 36.4587 84.3857 39.1509 84.3857C41.7765 84.3857 43.8451 82.383 43.8451 79.7896H39.1509Z" fill="#DE8A43"/>
<path fill-rule="evenodd" clip-rule="evenodd" d="M39.1509 79.7896H43.8451C43.8451 77.229 41.8093 75.1938 39.1509 75.1938C36.5572 75.1938 34.4561 77.2293 34.4561 79.724C34.4561 82.4162 36.4587 84.3857 39.1509 84.3857C41.7765 84.3857 43.8451 82.383 43.8451 79.7896H39.1509Z" fill="#DE8A44"/>
<path fill-rule="evenodd" clip-rule="evenodd" d="M39.1509 79.7896H43.8451C43.8451 77.229 41.8093 75.1938 39.1509 75.1938C36.5572 75.1938 34.4561 77.2293 34.4561 79.724C34.4561 82.4162 36.4587 84.3857 39.1509 84.3857C41.7765 84.3857 43.8451 82.383 43.8451 79.7896H39.1509Z" fill="#DE8C46"/>
<path fill-rule="evenodd" clip-rule="evenodd" d="M39.1522 79.7897H43.8464H39.1522ZM43.8468 79.7897C43.8468 79.7499 43.8461 79.71 43.8449 79.6702V79.6686C43.844 79.6295 43.8425 79.5904 43.8404 79.5513V79.5482C43.8384 79.5099 43.836 79.4716 43.8331 79.4334C43.8331 79.4318 43.8331 79.4303 43.8324 79.4287C43.8298 79.3911 43.8268 79.3536 43.8232 79.3162C43.8226 79.314 43.8226 79.312 43.8226 79.3098C43.8188 79.2731 43.8145 79.2364 43.8095 79.1999V79.1989C43.805 79.164 43.8002 79.1292 43.7951 79.0944C43.7945 79.0909 43.7939 79.0874 43.7939 79.0839C43.7881 79.0495 43.7827 79.0154 43.7763 78.981L43.7744 78.9695L43.7646 78.9137L43.7515 78.8478L43.7448 78.8162C43.7391 78.7895 43.7336 78.7627 43.7273 78.7363C43.7247 78.7238 43.7209 78.7117 43.7187 78.6993L43.6999 78.6247L43.6811 78.5546L43.6718 78.5202C43.6651 78.4957 43.6575 78.4715 43.6508 78.4472L43.6396 78.4093C43.0584 76.5348 41.3107 75.1936 39.1525 75.1936C37.2528 75.1936 35.6179 76.2859 34.8786 77.8504C34.6048 78.449 34.4614 79.099 34.458 79.7572C34.4615 80.326 34.5549 80.8622 34.7247 81.3539L34.7394 81.395L34.7457 81.4122C34.9269 81.9036 35.1892 82.3611 35.5216 82.7658C36.366 83.7733 37.6521 84.3854 39.1525 84.3854C41.2858 84.3854 43.0508 83.0637 43.6384 81.1767L43.6683 81.0754V81.0751C43.754 80.7735 43.8091 80.464 43.8327 80.1513L43.8334 80.1507C43.8359 80.1112 43.8391 80.0714 43.8407 80.0315V80.0312C43.8446 79.9508 43.8467 79.8702 43.8468 79.7897Z" fill="#DF8E47"/>
<path fill-rule="evenodd" clip-rule="evenodd" d="M39.1523 79.7896H43.8137C43.8137 78.0039 42.7912 76.4582 41.3044 75.6858C40.6645 75.371 39.9358 75.1938 39.1523 75.1938C38.1438 75.1938 37.2111 75.502 36.4461 76.0239C35.2649 76.8629 34.4902 78.2353 34.4902 79.7896C34.4902 81.4994 35.4277 83.0044 36.8125 83.8156C37.4922 84.1818 38.2859 84.3857 39.1523 84.3857C40.2446 84.3857 41.2397 84.039 42.0299 83.4482C43.1133 82.5917 43.8137 81.2671 43.8137 79.7896H39.1523Z" fill="#DF8E48"/>
<path fill-rule="evenodd" clip-rule="evenodd" d="M39.1521 79.7896H43.7475C43.7475 77.2618 41.6795 75.1938 39.1521 75.1938C39.1122 75.1938 39.073 75.1945 39.0338 75.1954H39.0307C36.5586 75.2601 34.5557 77.3026 34.5557 79.7896C34.5545 80.752 34.8532 81.6908 35.4101 82.4756C35.967 83.2605 36.7546 83.8524 37.6634 84.169C38.1267 84.3102 38.626 84.386 39.1517 84.386C39.7935 84.386 40.4015 84.2659 40.9546 84.0476C41.785 83.6881 42.4919 83.0934 42.9882 82.3368C43.4844 81.5801 43.7483 80.6948 43.7472 79.7899H39.1521V79.7896Z" fill="#DF8E4A"/>
<path fill-rule="evenodd" clip-rule="evenodd" d="M39.1525 79.7898H43.7154C43.7154 77.2949 41.6796 75.2266 39.1525 75.2266C36.6244 75.2266 34.5889 77.2949 34.5889 79.7898C34.5876 80.3895 34.7047 80.9835 34.9336 81.5377C35.1625 82.092 35.4986 82.5955 35.9226 83.0196C36.3467 83.4436 36.8503 83.7796 37.4045 84.0085C37.9588 84.2373 38.5528 84.3544 39.1525 84.3531C39.752 84.3543 40.346 84.2372 40.9002 84.0083C41.4544 83.7794 41.9579 83.4433 42.3819 83.0193C42.8058 82.5953 43.1419 82.0918 43.3707 81.5376C43.5996 80.9834 43.7167 80.3894 43.7154 79.7898H39.1525Z" fill="#DF904A"/>
<path fill-rule="evenodd" clip-rule="evenodd" d="M39.1528 79.7899H43.6829C43.6829 77.2949 41.6471 75.2922 39.1528 75.2922C36.6575 75.2922 34.6221 77.2949 34.6221 79.7899C34.6221 82.2851 36.6575 84.3203 39.1528 84.3203C41.6471 84.3203 43.6829 82.2848 43.6829 79.7899H39.1528Z" fill="#E0914C"/>
<path fill-rule="evenodd" clip-rule="evenodd" d="M39.1513 79.7897H43.6482C43.6482 77.3275 41.6131 75.3252 39.1513 75.3252C36.6888 75.3252 34.6533 77.3275 34.6533 79.7897C34.6533 82.285 36.6888 84.2873 39.1513 84.2873C41.6134 84.2873 43.6482 82.285 43.6482 79.7897H39.1513Z" fill="#E0914E"/>
<path fill-rule="evenodd" clip-rule="evenodd" d="M39.152 79.7896H43.5837C43.5837 77.3603 41.6138 75.3577 39.152 75.3577C36.6896 75.3577 34.7197 77.3603 34.7197 79.7896C34.7197 82.2518 36.6896 84.2541 39.152 84.2541C41.6142 84.2541 43.5837 82.2518 43.5837 79.7896H39.152Z" fill="#DF924F"/>
<path fill-rule="evenodd" clip-rule="evenodd" d="M39.1524 79.79H43.5512C43.5512 77.3606 41.5814 75.3911 39.1524 75.3911C36.7228 75.3911 34.7529 77.361 34.7529 79.79C34.7529 82.219 36.7228 84.1891 39.1524 84.1891C41.5814 84.1891 43.5512 82.219 43.5512 79.79H39.1524Z" fill="#E09351"/>
<path fill-rule="evenodd" clip-rule="evenodd" d="M39.1518 79.7897H43.5175C43.5175 77.3932 41.5477 75.4565 39.1518 75.4565C36.755 75.4565 34.7852 77.3932 34.7852 79.7897C34.7852 82.2191 36.755 84.1561 39.1518 84.1561C41.548 84.1561 43.5175 82.2191 43.5175 79.7897H39.1518Z" fill="#E09552"/>
<path fill-rule="evenodd" clip-rule="evenodd" d="M39.1532 79.7899H43.4536C43.4536 77.4265 41.549 75.4895 39.1532 75.4895C36.7564 75.4895 34.8193 77.4265 34.8193 79.7899C34.8193 82.1864 36.7564 84.1231 39.1532 84.1231C41.5494 84.1231 43.4536 82.1864 43.4536 79.7899H39.1532Z" fill="#E09554"/>
<path fill-rule="evenodd" clip-rule="evenodd" d="M39.1517 79.7895H43.4192C43.4203 79.2288 43.3106 78.6734 43.0965 78.1552C42.8824 77.6369 42.5681 77.1661 42.1716 76.7696C41.7751 76.3731 41.3043 76.0588 40.786 75.8447C40.2678 75.6306 39.7124 75.5209 39.1517 75.522C38.5909 75.5208 38.0355 75.6305 37.5172 75.8445C36.9989 76.0586 36.5279 76.3729 36.1314 76.7694C35.7349 77.1659 35.4205 77.6368 35.2065 78.1551C34.9924 78.6733 34.8827 79.2288 34.8838 79.7895C34.8838 82.1532 36.7877 84.0902 39.1517 84.0902C41.5147 84.0902 43.4192 82.1532 43.4192 79.7895H39.1517Z" fill="#E09555"/>
<path fill-rule="evenodd" clip-rule="evenodd" d="M39.1533 79.7899H43.3878C43.3878 77.4591 41.4839 75.5552 39.1533 75.5552C36.8222 75.5552 34.918 77.4591 34.918 79.7899C34.918 82.1536 36.8222 84.025 39.1533 84.025C39.7098 84.0263 40.2611 83.9177 40.7755 83.7053C41.2899 83.493 41.7573 83.1811 42.1508 82.7875C42.5442 82.394 42.8561 81.9266 43.0684 81.4121C43.2807 80.8977 43.3892 80.3464 43.3878 79.7899H39.1533Z" fill="#E19756"/>
<path fill-rule="evenodd" clip-rule="evenodd" d="M39.1525 79.7899H43.3541C43.3541 77.4922 41.4833 75.6208 39.1525 75.6208C36.8213 75.6208 34.9502 77.4922 34.9502 79.7899C34.9485 80.3423 35.056 80.8895 35.2666 81.4001C35.4772 81.9107 35.7866 82.3746 36.1772 82.7651C36.5678 83.1556 37.0317 83.4651 37.5423 83.6756C38.0529 83.8862 38.6001 83.9936 39.1525 83.9919C39.7047 83.9936 40.2519 83.886 40.7624 83.6754C41.2729 83.4649 41.7368 83.1554 42.1273 82.7649C42.5178 82.3744 42.8272 81.9105 43.0377 81.3999C43.2483 80.8894 43.3558 80.3422 43.3541 79.7899H39.1525Z" fill="#E19757"/>
<path fill-rule="evenodd" clip-rule="evenodd" d="M39.1528 79.7896H43.2888C43.2888 77.4919 41.4502 75.6533 39.1528 75.6533C36.8545 75.6533 34.9834 77.4919 34.9834 79.7896C34.9834 82.0876 36.8548 83.9587 39.1528 83.9587C41.4505 83.9587 43.2888 82.0873 43.2888 79.7896H39.1528Z" fill="#E29959"/>
<path fill-rule="evenodd" clip-rule="evenodd" d="M39.1516 79.79H43.2548C43.2548 77.5248 41.4162 75.6865 39.1516 75.6865C36.8861 75.6865 35.0479 77.5248 35.0479 79.79C35.0479 82.0552 36.8864 83.9263 39.1516 83.9263C41.4162 83.9263 43.2548 82.0552 43.2548 79.79H39.1516Z" fill="#E2995B"/>
<path fill-rule="evenodd" clip-rule="evenodd" d="M39.152 79.7899H43.222C43.222 77.5578 41.3835 75.7192 39.152 75.7192C36.9193 75.7192 35.0811 77.5578 35.0811 79.7899C35.0811 82.0551 36.9196 83.8605 39.152 83.8605C41.3838 83.8605 43.222 82.0551 43.222 79.7899H39.152Z" fill="#E29B5B"/>
<path fill-rule="evenodd" clip-rule="evenodd" d="M39.1524 79.7899H43.1902C43.1902 77.5903 41.3842 75.7849 39.1524 75.7849C36.9197 75.7849 35.1143 77.5903 35.1143 79.7899C35.1143 82.0223 36.92 83.8277 39.1524 83.8277C41.3842 83.8277 43.1902 82.022 43.1902 79.7899H39.1524Z" fill="#E29B5D"/>
<path fill-rule="evenodd" clip-rule="evenodd" d="M39.1522 79.7898H43.124C43.1251 79.2679 43.023 78.751 42.8238 78.2686C42.6245 77.7862 42.332 77.348 41.963 76.9789C41.594 76.6099 41.1557 76.3173 40.6734 76.118C40.191 75.9188 39.6741 75.8167 39.1522 75.8176C36.9523 75.8176 35.1797 77.5902 35.1797 79.7898C35.1797 81.9894 36.9523 83.7951 39.1522 83.7951C41.3514 83.7951 43.124 81.9894 43.124 79.7898H39.1522Z" fill="#E39D5F"/>
<path fill-rule="evenodd" clip-rule="evenodd" d="M39.1516 79.7897H43.0903C43.0903 77.6229 41.318 75.8503 39.1516 75.8503C36.9845 75.8503 35.2119 77.6229 35.2119 79.7897C35.2119 81.9893 36.9845 83.7619 39.1516 83.7619C41.318 83.7619 43.0903 81.9893 43.0903 79.7897H39.1516Z" fill="#E39D61"/>
<path fill-rule="evenodd" clip-rule="evenodd" d="M39.152 79.7898H43.0585C43.0585 77.6559 41.3184 75.8833 39.152 75.8833C36.9849 75.8833 35.2451 77.6559 35.2451 79.7898C35.2451 81.9566 36.9849 83.6964 39.152 83.6964C41.3184 83.6964 43.0585 81.9566 43.0585 79.7898H39.152Z" fill="#E39F63"/>
<path fill-rule="evenodd" clip-rule="evenodd" d="M39.1524 79.7896H43.0258C43.0258 77.6557 41.2857 75.9487 39.1524 75.9487C37.0181 75.9487 35.2783 77.6557 35.2783 79.7896C35.2783 81.9236 37.0181 83.6637 39.1524 83.6637C41.2857 83.6637 43.0258 81.9236 43.0258 79.7896H39.1524Z" fill="#E39F63"/>
<path fill-rule="evenodd" clip-rule="evenodd" d="M39.1512 79.7895H42.9586C42.9586 77.6887 41.2523 75.9814 39.1512 75.9814C37.0497 75.9814 35.3428 77.6884 35.3428 79.7895C35.3428 81.9235 37.0497 83.6304 39.1512 83.6304C41.2523 83.6304 42.9586 81.9235 42.9586 79.7895H39.1512Z" fill="#E39F64"/>
<path fill-rule="evenodd" clip-rule="evenodd" d="M39.1525 79.7899H42.9278C42.9278 77.7219 41.2537 76.0146 39.1525 76.0146C37.0511 76.0146 35.377 77.7219 35.377 79.7899C35.377 81.891 37.0511 83.5983 39.1525 83.5983C41.2537 83.5983 42.9278 81.891 42.9278 79.7899H39.1525Z" fill="#E4A166"/>
<path fill-rule="evenodd" clip-rule="evenodd" d="M39.1519 79.7898H42.8941C42.8941 77.7218 41.2199 76.0474 39.1519 76.0474C37.0833 76.0474 35.4092 77.7215 35.4092 79.7898C35.4092 81.8581 37.0833 83.5326 39.1519 83.5326C41.2199 83.5326 42.8941 81.8581 42.8941 79.7898H39.1519Z" fill="#E4A367"/>
<path fill-rule="evenodd" clip-rule="evenodd" d="M39.1513 79.7901H42.8606C42.8606 77.7549 41.1865 76.1133 39.1513 76.1133C37.1155 76.1133 35.4414 77.7546 35.4414 79.7901C35.4414 81.8584 37.1155 83.4997 39.1513 83.4997C41.1865 83.4997 42.8606 81.8584 42.8606 79.7901H39.1513Z" fill="#E4A369"/>
<path fill-rule="evenodd" clip-rule="evenodd" d="M39.1521 79.7897H42.7961C42.7961 77.7874 41.1873 76.1458 39.1521 76.1458C37.1163 76.1458 35.5078 77.7874 35.5078 79.7897C35.5078 81.8252 37.1163 83.4665 39.1521 83.4665C41.1873 83.4665 42.7961 81.8252 42.7961 79.7897H39.1521Z" fill="#E4A36A"/>
<path fill-rule="evenodd" clip-rule="evenodd" d="M39.1525 79.7899H42.7634C42.7647 79.3153 42.6722 78.8452 42.4912 78.4064C42.3103 77.9677 42.0443 77.5691 41.7088 77.2335C41.3732 76.8979 40.9746 76.632 40.5359 76.451C40.0972 76.2699 39.6271 76.1774 39.1525 76.1787C38.6779 76.1773 38.2076 76.2697 37.7688 76.4507C37.3301 76.6317 36.9314 76.8976 36.5957 77.2332C36.2601 77.5688 35.9941 77.9675 35.8131 78.4062C35.6321 78.845 35.5396 79.3152 35.541 79.7899C35.541 81.7925 37.1495 83.4339 39.1525 83.4339C41.1545 83.4339 42.7634 81.7925 42.7634 79.7899H39.1525Z" fill="#E5A56C"/>
<path fill-rule="evenodd" clip-rule="evenodd" d="M39.1519 79.7899H42.7299C42.7299 77.8204 41.1211 76.2119 39.1519 76.2119C37.1817 76.2119 35.5732 77.8204 35.5732 79.7899C35.5732 81.7598 37.1817 83.3683 39.1519 83.3683C41.1211 83.3683 42.7299 81.7598 42.7299 79.7899H39.1519Z" fill="#E5A56C"/>
<path fill-rule="evenodd" clip-rule="evenodd" d="M39.1513 79.79H42.6962C42.6962 77.8533 41.088 76.2776 39.1513 76.2776C37.214 76.2776 35.6055 77.8533 35.6055 79.79C35.6055 81.7598 37.214 83.3352 39.1513 83.3352C41.088 83.3352 42.6962 81.7598 42.6962 79.79H39.1513Z" fill="#E5A76E"/>
<path fill-rule="evenodd" clip-rule="evenodd" d="M39.1518 79.7894H42.6313C42.6313 77.8855 41.0885 76.3098 39.1518 76.3098C37.2144 76.3098 35.6719 77.8855 35.6719 79.7894C35.6719 81.7264 37.2147 83.3021 39.1518 83.3021C41.0885 83.3021 42.6313 81.7264 42.6313 79.7894H39.1518Z" fill="#E5A770"/>
<path fill-rule="evenodd" clip-rule="evenodd" d="M39.1525 79.79H42.5989C42.5989 77.8861 41.056 76.3433 39.1525 76.3433C37.2479 76.3433 35.7051 77.8861 35.7051 79.79C35.7051 81.6942 37.2479 83.2371 39.1525 83.2371C41.0563 83.2371 42.5989 81.6942 42.5989 79.79H39.1525Z" fill="#E6A970"/>
<path fill-rule="evenodd" clip-rule="evenodd" d="M39.1519 79.7899H42.5655C42.5655 77.9188 41.0226 76.376 39.1519 76.376C37.2802 76.376 35.7373 77.9188 35.7373 79.7899C35.7373 81.6941 37.2802 83.2038 39.1519 83.2038C41.0226 83.2038 42.5655 81.6941 42.5655 79.7899H39.1519Z" fill="#E6A972"/>
<path fill-rule="evenodd" clip-rule="evenodd" d="M39.1522 79.7897H42.5333C42.5333 77.9514 41.023 76.4414 39.1522 76.4414C37.2806 76.4414 35.7705 77.9514 35.7705 79.7897C35.7699 80.2339 35.8569 80.674 36.0267 81.0845C36.1964 81.4951 36.4455 81.8681 36.7596 82.1822C37.0738 82.4964 37.4468 82.7454 37.8574 82.9151C38.268 83.0848 38.708 83.1718 39.1522 83.1711C39.5965 83.1717 40.0364 83.0846 40.4469 82.9149C40.8574 82.7452 41.2304 82.4961 41.5445 82.182C41.8586 81.8679 42.1076 81.4949 42.2773 81.0844C42.447 80.6739 42.534 80.2339 42.5333 79.7897H39.1522Z" fill="#E6AB74"/>
<path fill-rule="evenodd" clip-rule="evenodd" d="M39.152 79.7896H42.4672C42.4684 79.3539 42.3834 78.9223 42.2172 78.5195C42.0511 78.1167 41.8069 77.7508 41.4989 77.4427C41.1908 77.1346 40.8249 76.8904 40.4221 76.7242C40.0194 76.558 39.5877 76.473 39.152 76.4741C38.7163 76.4729 38.2845 76.5578 37.8817 76.7239C37.4788 76.8901 37.1128 77.1342 36.8046 77.4424C36.4965 77.7505 36.2522 78.1165 36.086 78.5193C35.9197 78.9221 35.8348 79.3538 35.8359 79.7896C35.8359 81.6282 37.3132 83.1382 39.152 83.1382C40.99 83.1382 42.4672 81.6282 42.4672 79.7896H39.152Z" fill="#E6AB75"/>
<path fill-rule="evenodd" clip-rule="evenodd" d="M39.1524 79.79H42.4347C42.4347 77.9842 40.9578 76.5073 39.1524 76.5073C37.3467 76.5073 35.8691 77.9845 35.8691 79.79C35.8691 81.6285 37.3464 83.0729 39.1524 83.0729C39.5839 83.0744 40.0115 82.9905 40.4104 82.826C40.8093 82.6615 41.1718 82.4198 41.4769 82.1146C41.782 81.8095 42.0237 81.447 42.1881 81.048C42.3525 80.649 42.4363 80.2215 42.4347 79.79H39.1524Z" fill="#E7AD77"/>
<path fill-rule="evenodd" clip-rule="evenodd" d="M39.1518 79.7896H42.4016C42.4016 78.017 40.9572 76.5398 39.1518 76.5398C37.3461 76.5398 35.9014 78.017 35.9014 79.7896C35.9014 81.5954 37.3458 83.0398 39.1518 83.0398C39.5791 83.0415 40.0025 82.9587 40.3976 82.796C40.7928 82.6332 41.1517 82.3939 41.4539 82.0917C41.756 81.7896 41.9953 81.4306 42.158 81.0355C42.3206 80.6403 42.4035 80.2169 42.4016 79.7896H39.1518Z" fill="#E7AD77"/>
<path fill-rule="evenodd" clip-rule="evenodd" d="M39.1522 79.7897H42.3692C42.3692 78.0171 40.9248 76.6052 39.1522 76.6052C37.3793 76.6052 35.9346 78.0171 35.9346 79.7897C35.9346 81.5626 37.379 83.007 39.1522 83.007C40.9245 83.007 42.3692 81.5626 42.3692 79.7897H39.1522Z" fill="#E8AF79"/>
<path fill-rule="evenodd" clip-rule="evenodd" d="M39.151 79.7898H42.3021C42.3021 78.05 40.8905 76.6384 39.151 76.6384C37.4109 76.6384 35.999 78.05 35.999 79.7898C35.999 81.5627 37.4106 82.9743 39.151 82.9743C40.8905 82.9743 42.3021 81.5627 42.3021 79.7898H39.151Z" fill="#E8AF7B"/>
<path fill-rule="evenodd" clip-rule="evenodd" d="M39.1524 79.79H42.2709C42.2709 78.083 40.8918 76.6711 39.1524 76.6711C37.4123 76.6711 36.0332 78.083 36.0332 79.79C36.0332 81.5298 37.412 82.9089 39.1524 82.9089C40.8918 82.9089 42.2709 81.5301 42.2709 79.79H39.1524Z" fill="#E8B17B"/>
<path fill-rule="evenodd" clip-rule="evenodd" d="M39.1518 79.7898H42.2375C42.2379 79.3845 42.1584 78.983 42.0035 78.6085C41.8486 78.2339 41.6213 77.8936 41.3347 77.607C41.048 77.3203 40.7077 77.0931 40.3331 76.9381C39.9586 76.7832 39.5571 76.7037 39.1518 76.7041C38.7464 76.7036 38.3449 76.7831 37.9702 76.938C37.5956 77.0928 37.2552 77.3201 36.9685 77.6067C36.6818 77.8934 36.4545 78.2337 36.2995 78.6083C36.1446 78.9829 36.065 79.3844 36.0654 79.7898C36.065 80.1952 36.1445 80.5968 36.2994 80.9714C36.4544 81.3461 36.6817 81.6865 36.9684 81.9731C37.2551 82.2598 37.5955 82.4871 37.9702 82.642C38.3448 82.7969 38.7464 82.8764 39.1518 82.8759C39.5571 82.8762 39.9586 82.7967 40.3332 82.6417C40.7077 82.4868 41.0481 82.2595 41.3347 81.9728C41.6213 81.6862 41.8486 81.3458 42.0035 80.9712C42.1584 80.5966 42.2379 80.1952 42.2375 79.7898H39.1518Z" fill="#E8B17D"/>
<path fill-rule="evenodd" clip-rule="evenodd" d="M39.1522 79.7901H42.2048C42.2048 78.116 40.8263 76.77 39.1522 76.77C37.4777 76.77 36.0986 78.116 36.0986 79.7901C36.0986 81.4642 37.4774 82.8433 39.1522 82.8433C40.8263 82.8433 42.2048 81.4646 42.2048 79.7901H39.1522Z" fill="#E8B17E"/>
<path fill-rule="evenodd" clip-rule="evenodd" d="M39.1507 79.7898H42.1379C42.1379 78.1484 40.7917 76.8025 39.1507 76.8025C38.758 76.8012 38.3689 76.8775 38.0059 77.0272C37.6428 77.1768 37.3129 77.3968 37.0353 77.6744C36.7576 77.9521 36.5375 78.2819 36.3879 78.645C36.2382 79.008 36.1618 79.3971 36.1631 79.7898C36.1631 81.4639 37.4762 82.8098 39.1507 82.8098C40.7917 82.8098 42.1379 81.4639 42.1379 79.7898H39.1507Z" fill="#E9B381"/>
<path fill-rule="evenodd" clip-rule="evenodd" d="M39.1511 79.7899H42.1052C42.1068 79.4015 42.0316 79.0166 41.8837 78.6574C41.7358 78.2983 41.5183 77.9719 41.2436 77.6973C40.969 77.4226 40.6427 77.205 40.2835 77.0571C39.9244 76.9092 39.5395 76.8339 39.1511 76.8355C38.7626 76.8338 38.3777 76.9091 38.0185 77.057C37.6593 77.2049 37.3329 77.4225 37.0582 77.6971C36.7835 77.9718 36.5659 78.2981 36.418 78.6573C36.27 79.0165 36.1947 79.4015 36.1963 79.7899C36.1947 80.1784 36.27 80.5633 36.418 80.9225C36.5659 81.2818 36.7835 81.6081 37.0582 81.8828C37.3329 82.1575 37.6592 82.3751 38.0184 82.523C38.3777 82.6709 38.7626 82.7463 39.1511 82.7447C39.5395 82.7462 39.9244 82.6709 40.2836 82.5229C40.6427 82.375 40.969 82.1574 41.2437 81.8827C41.5183 81.608 41.7358 81.2816 41.8837 80.9224C42.0316 80.5633 42.1068 80.1783 42.1052 79.7899H39.1511Z" fill="#E9B381"/>
<path fill-rule="evenodd" clip-rule="evenodd" d="M39.1524 79.7895H42.0737C42.0737 78.181 40.7606 76.8679 39.1524 76.8679C37.5436 76.8679 36.2305 78.181 36.2305 79.7895C36.2305 81.398 37.5436 82.7112 39.1524 82.7112C40.7606 82.7112 42.0737 81.398 42.0737 79.7895H39.1524Z" fill="#E9B583"/>
<path fill-rule="evenodd" clip-rule="evenodd" d="M39.1518 79.7901H42.0406C42.0406 78.2144 40.7269 76.9341 39.1518 76.9341C37.5758 76.9341 36.2627 78.2144 36.2627 79.7901C36.2627 81.3986 37.5758 82.6789 39.1518 82.6789C40.7269 82.6789 42.0406 81.3986 42.0406 79.7901H39.1518Z" fill="#E9B584"/>
<path fill-rule="evenodd" clip-rule="evenodd" d="M39.1516 79.7895H41.9744C41.9744 78.2466 40.7266 76.9663 39.1516 76.9663C37.5756 76.9663 36.3281 78.2466 36.3281 79.7895C36.3281 81.3651 37.5756 82.6455 39.1516 82.6455C40.7266 82.6455 41.9744 81.3651 41.9744 79.7895H39.1516Z" fill="#EAB786"/>
<path fill-rule="evenodd" clip-rule="evenodd" d="M39.151 79.7899H41.941C41.9414 79.4234 41.8694 79.0604 41.7293 78.7217C41.5893 78.383 41.3838 78.0753 41.1246 77.8161C40.8655 77.557 40.5578 77.3515 40.2191 77.2113C39.8805 77.0712 39.5175 76.9992 39.151 76.9995C37.6078 76.9995 36.3604 78.247 36.3604 79.7899C36.3604 81.3327 37.6078 82.5802 39.151 82.5802C39.5175 82.5805 39.8805 82.5085 40.2191 82.3684C40.5578 82.2283 40.8655 82.0227 41.1246 81.7636C41.3838 81.5044 41.5893 81.1967 41.7293 80.858C41.8694 80.5193 41.9414 80.1564 41.941 79.7899H39.151Z" fill="#EAB788"/>
<path fill-rule="evenodd" clip-rule="evenodd" d="M39.1514 79.7897H41.9083C41.9083 78.2797 40.6611 77.0322 39.1514 77.0322C37.641 77.0322 36.3936 78.2797 36.3936 79.7897C36.3936 81.3326 37.641 82.5473 39.1514 82.5473C40.6611 82.5473 41.9083 81.3326 41.9083 79.7897H39.1514Z" fill="#EBB989"/>
<path fill-rule="evenodd" clip-rule="evenodd" d="M39.1518 79.7898H41.8765C41.8765 78.3126 40.6618 77.0979 39.1518 77.0979C37.6414 77.0979 36.4268 78.3126 36.4268 79.7898C36.4259 80.1479 36.4958 80.5026 36.6324 80.8336C36.769 81.1646 36.9697 81.4653 37.223 81.7185C37.4762 81.9717 37.7769 82.1724 38.1079 82.309C38.439 82.4456 38.7937 82.5154 39.1518 82.5145C39.5098 82.5154 39.8646 82.4455 40.1955 82.3089C40.5265 82.1723 40.8272 81.9716 41.0804 81.7184C41.3336 81.4652 41.5343 81.1645 41.6709 80.8335C41.8075 80.5025 41.8774 80.1478 41.8765 79.7898H39.1518Z" fill="#EBB98A"/>
<path fill-rule="evenodd" clip-rule="evenodd" d="M39.1516 79.7897H41.8103C41.8118 79.4401 41.744 79.0937 41.6109 78.7704C41.4778 78.4472 41.2821 78.1535 41.0349 77.9063C40.7877 77.6591 40.494 77.4633 40.1708 77.3301C39.8475 77.197 39.5011 77.1292 39.1516 77.1306C37.674 77.1306 36.4922 78.3122 36.4922 79.7897C36.4922 81.2672 37.674 82.4819 39.1516 82.4819C40.6285 82.4819 41.8103 81.2672 41.8103 79.7897H39.1516Z" fill="#EBBB8C"/>
<path fill-rule="evenodd" clip-rule="evenodd" d="M39.1519 79.7901H41.7776C41.7776 78.3457 40.5963 77.1638 39.1519 77.1638C37.7072 77.1638 36.5254 78.3453 36.5254 79.7901C36.5254 81.2673 37.7072 82.4166 39.1519 82.4166C40.5963 82.4166 41.7776 81.2676 41.7776 79.7901H39.1519Z" fill="#EBBB8C"/>
<path fill-rule="evenodd" clip-rule="evenodd" d="M39.1514 79.7895H41.7448C41.7448 78.3779 40.5961 77.196 39.1514 77.196C37.7067 77.196 36.5577 78.3776 36.5577 79.7895C36.5556 80.1306 36.6213 80.4688 36.751 80.7844C36.8806 81.1 37.0716 81.3867 37.3128 81.6279C37.5541 81.8692 37.8408 82.0601 38.1564 82.1897C38.472 82.3193 38.8102 82.385 39.1514 82.3829C39.4926 82.385 39.8307 82.3193 40.1463 82.1897C40.4619 82.0601 40.7486 81.8691 40.9898 81.6279C41.2311 81.3867 41.422 81.1 41.5516 80.7844C41.6812 80.4688 41.7469 80.1306 41.7448 79.7895H39.1514Z" fill="#ECBD8F"/>
<path fill-rule="evenodd" clip-rule="evenodd" d="M39.1517 79.7897H41.712C41.712 78.3782 40.5633 77.262 39.1517 77.262C37.7398 77.262 36.5908 78.3778 36.5908 79.7897C36.5908 81.2016 37.7398 82.3507 39.1517 82.3507C40.5633 82.3507 41.712 81.2016 41.712 79.7897H39.1517Z" fill="#ECBD90"/>
<path fill-rule="evenodd" clip-rule="evenodd" d="M39.1515 79.7896H41.6458C41.646 79.462 41.5816 79.1375 41.4563 78.8348C41.331 78.5321 41.1473 78.257 40.9157 78.0253C40.684 77.7936 40.409 77.6098 40.1063 77.4844C39.8036 77.3591 39.4792 77.2946 39.1515 77.2947C38.8238 77.2945 38.4993 77.3589 38.1965 77.4842C37.8937 77.6096 37.6186 77.7933 37.3868 78.025C37.1551 78.2567 36.9713 78.5319 36.8459 78.8346C36.7206 79.1374 36.6561 79.4619 36.6563 79.7896C36.6563 81.1684 37.7724 82.3174 39.1515 82.3174C40.53 82.3174 41.6458 81.1684 41.6458 79.7896H39.1515Z" fill="#ECBF93"/>
<path fill-rule="evenodd" clip-rule="evenodd" d="M39.1519 79.79H41.6141C41.6141 78.4441 40.4975 77.3279 39.1519 77.3279C37.7728 77.3279 36.6895 78.4441 36.6895 79.79C36.6895 81.1688 37.7728 82.2522 39.1519 82.2522C40.4975 82.2522 41.6141 81.1688 41.6141 79.79H39.1519Z" fill="#ECBF93"/>
<path fill-rule="evenodd" clip-rule="evenodd" d="M39.1513 79.7897H41.5803C41.5803 78.4437 40.4969 77.3604 39.1513 77.3604C37.8051 77.3604 36.7217 78.4434 36.7217 79.7897C36.7217 81.1359 37.8051 82.219 39.1513 82.219C39.4705 82.2197 39.7867 82.1574 40.0818 82.0355C40.3768 81.9137 40.6449 81.7348 40.8706 81.509C41.0963 81.2833 41.2752 81.0152 41.397 80.7202C41.5188 80.4251 41.5811 80.1089 41.5803 79.7897H39.1513Z" fill="#EDC195"/>
<path fill-rule="evenodd" clip-rule="evenodd" d="M39.1507 79.7899H41.5469C41.5469 78.4768 40.4642 77.4265 39.1507 77.4265C37.8373 77.4265 36.7539 78.4771 36.7539 79.7899C36.7539 81.103 37.8373 82.1864 39.1507 82.1864C40.4638 82.1864 41.5469 81.103 41.5469 79.7899H39.1507Z" fill="#EDC196"/>
<path fill-rule="evenodd" clip-rule="evenodd" d="M39.1515 79.7901H41.482C41.482 78.5098 40.4315 77.4592 39.1515 77.4592C37.8709 77.4592 36.8203 78.5098 36.8203 79.7901C36.8203 81.1032 37.8709 82.1538 39.1515 82.1538C40.4318 82.1538 41.482 81.1032 41.482 79.7901H39.1515Z" fill="#EEC397"/>
<path fill-rule="evenodd" clip-rule="evenodd" d="M39.1519 79.7899H41.4496C41.4496 78.5424 40.4322 77.4922 39.1519 77.4922C37.8713 77.4922 36.8536 78.5427 36.8536 79.7899C36.8517 80.0922 36.9099 80.3919 37.0247 80.6716C37.1396 80.9513 37.3088 81.2054 37.5226 81.4191C37.7364 81.6329 37.9905 81.8021 38.2702 81.9169C38.5499 82.0317 38.8496 82.0899 39.1519 82.0879C39.4542 82.0898 39.7539 82.0316 40.0335 81.9168C40.3131 81.802 40.5672 81.6328 40.7809 81.419C40.9947 81.2052 41.1638 80.9512 41.2786 80.6715C41.3934 80.3919 41.4515 80.0922 41.4496 79.7899H39.1519Z" fill="#EEC399"/>
<path fill-rule="evenodd" clip-rule="evenodd" d="M39.1513 79.7899H41.4159C41.4159 78.5424 40.3984 77.5247 39.1513 77.5247C37.9035 77.5247 36.8857 78.5424 36.8857 79.7899C36.8857 81.0377 37.9035 82.0551 39.1513 82.0551C40.3984 82.0551 41.4159 81.0377 41.4159 79.7899H39.1513Z" fill="#EEC59B"/>
<path fill-rule="evenodd" clip-rule="evenodd" d="M39.1517 79.7899H41.3834C41.3834 78.5753 40.366 77.5903 39.1517 77.5903C37.9367 77.5903 36.9189 78.5753 36.9189 79.7899C36.9189 81.0377 37.9367 82.0223 39.1517 82.0223C40.366 82.0223 41.3834 81.0377 41.3834 79.7899H39.1517Z" fill="#EEC69D"/>
<path fill-rule="evenodd" clip-rule="evenodd" d="M39.1515 79.7898H41.3179C41.3179 78.6083 40.3658 77.623 39.1515 77.623C37.9365 77.623 36.9844 78.608 36.9844 79.7898C36.9844 81.0045 37.9365 81.9894 39.1515 81.9894C40.3658 81.9894 41.3179 81.0045 41.3179 79.7898H39.1515Z" fill="#EEC69F"/>
<path fill-rule="evenodd" clip-rule="evenodd" d="M39.1528 79.7897H41.2861C41.2867 79.5094 41.2319 79.2317 41.1249 78.9726C41.0178 78.7135 40.8607 78.478 40.6625 78.2798C40.4643 78.0815 40.229 77.9244 39.9699 77.8173C39.7108 77.7102 39.4331 77.6553 39.1528 77.6558C38.8724 77.6552 38.5946 77.71 38.3355 77.817C38.0763 77.924 37.8408 78.0812 37.6425 78.2795C37.4442 78.4777 37.287 78.7132 37.1799 78.9724C37.0728 79.2315 37.018 79.5093 37.0186 79.7897C37.018 80.0701 37.0728 80.3479 37.1799 80.607C37.287 80.8662 37.4442 81.1017 37.6425 81.3C37.8408 81.4982 38.0763 81.6554 38.3355 81.7624C38.5946 81.8694 38.8724 81.9242 39.1528 81.9236C39.4332 81.9242 39.7108 81.8693 39.9699 81.7622C40.229 81.6552 40.4644 81.498 40.6626 81.2997C40.8608 81.1014 41.0179 80.866 41.1249 80.6069C41.2319 80.3478 41.2867 80.07 41.2861 79.7897H39.1528Z" fill="#EFC89F"/>
<path fill-rule="evenodd" clip-rule="evenodd" d="M39.1513 79.7898H41.2524C41.2524 78.6411 40.3003 77.689 39.1513 77.689C38.0019 77.689 37.0498 78.6411 37.0498 79.7898C37.049 80.0659 37.1028 80.3396 37.2081 80.5949C37.3134 80.8502 37.4681 81.0822 37.6635 81.2775C37.8588 81.4727 38.0908 81.6275 38.3461 81.7328C38.6014 81.838 38.8751 81.8918 39.1513 81.8909C39.4274 81.8917 39.701 81.838 39.9563 81.7327C40.2116 81.6274 40.4436 81.4726 40.6388 81.2774C40.8341 81.0821 40.9889 80.8501 41.0941 80.5948C41.1994 80.3395 41.2532 80.0659 41.2524 79.7898H39.1513Z" fill="#EFC8A1"/>
<path fill-rule="evenodd" clip-rule="evenodd" d="M39.1516 79.7898H41.2196C41.2196 78.6739 40.3003 77.7546 39.1516 77.7546C38.0023 77.7546 37.083 78.6739 37.083 79.7898C37.0819 80.0618 37.1346 80.3313 37.2382 80.5827C37.3417 80.8342 37.4941 81.0627 37.6864 81.255C37.8787 81.4473 38.1072 81.5996 38.3587 81.7031C38.6102 81.8066 38.8797 81.8593 39.1516 81.8581C39.4235 81.8592 39.693 81.8064 39.9444 81.7029C40.1958 81.5993 40.4242 81.447 40.6165 81.2547C40.8087 81.0625 40.961 80.834 41.0645 80.5826C41.1681 80.3311 41.2208 80.0617 41.2196 79.7898H39.1516Z" fill="#EFCAA3"/>
<path fill-rule="evenodd" clip-rule="evenodd" d="M39.1524 79.7897H41.1545C41.1562 79.5263 41.1056 79.2652 41.0056 79.0215C40.9056 78.7778 40.7582 78.5564 40.572 78.3701C40.3857 78.1838 40.1643 78.0364 39.9206 77.9364C39.677 77.8363 39.4158 77.7857 39.1524 77.7874C38.889 77.7857 38.6278 77.8363 38.384 77.9363C38.1403 78.0363 37.9188 78.1837 37.7325 78.37C37.5461 78.5562 37.3987 78.7777 37.2986 79.0214C37.1985 79.2651 37.1478 79.5263 37.1495 79.7897C37.1495 80.9059 38.0359 81.8252 39.1524 81.8252C40.2683 81.8252 41.1545 80.9063 41.1545 79.7897H39.1524Z" fill="#EFCAA3"/>
<path fill-rule="evenodd" clip-rule="evenodd" d="M39.1518 79.7901H41.121C41.121 78.7067 40.2349 77.8206 39.1518 77.8206C38.0681 77.8206 37.1816 78.7067 37.1816 79.7901C37.1816 80.8735 38.0681 81.7599 39.1518 81.7599C40.2345 81.7599 41.121 80.8735 41.121 79.7901H39.1518Z" fill="#F0CCA6"/>
<path fill-rule="evenodd" clip-rule="evenodd" d="M39.1522 79.7895H41.0889C41.0889 78.7392 40.2021 77.8528 39.1522 77.8528C38.0685 77.8528 37.2148 78.7392 37.2148 79.7895C37.2148 80.8729 38.0685 81.7265 39.1522 81.7265C40.2021 81.7265 41.0889 80.8729 41.0889 79.7895H39.1522Z" fill="#F0CCA8"/>
<path fill-rule="evenodd" clip-rule="evenodd" d="M39.1516 79.7898H41.0555C41.0555 78.7395 40.2015 77.9187 39.1516 77.9187C38.101 77.9187 37.2471 78.7395 37.2471 79.7898C37.2474 80.2947 37.4482 80.7789 37.8053 81.136C38.1624 81.493 38.6466 81.6937 39.1516 81.694C39.6565 81.6935 40.1405 81.4928 40.4975 81.1357C40.8544 80.7787 41.0551 80.2946 41.0555 79.7898H39.1516Z" fill="#F1CEAA"/>
<path fill-rule="evenodd" clip-rule="evenodd" d="M39.1514 79.7899H40.9893C40.9898 79.5484 40.9425 79.3092 40.8503 79.086C40.7581 78.8628 40.6228 78.6599 40.452 78.4892C40.2813 78.3184 40.0785 78.183 39.8553 78.0907C39.6321 77.9985 39.3929 77.9512 39.1514 77.9517C38.1333 77.9517 37.3125 78.7722 37.3125 79.7899C37.3125 80.8076 38.1333 81.6613 39.1514 81.6613C40.1688 81.6613 40.9893 80.8076 40.9893 79.7899H39.1514Z" fill="#F1CEAA"/>
<path fill-rule="evenodd" clip-rule="evenodd" d="M39.1524 79.7899H40.9578C40.9578 78.8053 40.137 77.9841 39.1524 77.9841C38.1672 77.9841 37.3467 78.805 37.3467 79.7899C37.346 80.0272 37.3922 80.2623 37.4827 80.4817C37.5732 80.7011 37.7062 80.9005 37.874 81.0683C38.0418 81.2361 38.2412 81.3691 38.4606 81.4596C38.68 81.5501 38.9151 81.5963 39.1524 81.5956C39.3897 81.5963 39.6248 81.55 39.8442 81.4595C40.0636 81.369 40.2629 81.236 40.4307 81.0682C40.5985 80.9004 40.7314 80.7011 40.8219 80.4817C40.9124 80.2623 40.9586 80.0272 40.9578 79.7899H39.1524Z" fill="#F1D0AD"/>
<path fill-rule="evenodd" clip-rule="evenodd" d="M39.1518 79.7897H40.9241C40.9241 78.8376 40.1361 78.0171 39.1518 78.0171C38.1666 78.0171 37.3789 78.8376 37.3789 79.7897C37.3779 80.0228 37.4231 80.2538 37.5118 80.4694C37.6006 80.6849 37.7311 80.8808 37.8959 81.0456C38.0608 81.2104 38.2566 81.341 38.4722 81.4297C38.6877 81.5185 38.9187 81.5636 39.1518 81.5626C39.3849 81.5635 39.6158 81.5183 39.8313 81.4295C40.0468 81.3408 40.2426 81.2102 40.4073 81.0454C40.5721 80.8805 40.7026 80.6847 40.7913 80.4692C40.88 80.2537 40.9251 80.0227 40.9241 79.7897H39.1518Z" fill="#F1D0AE"/>
<path fill-rule="evenodd" clip-rule="evenodd" d="M39.1522 79.7897H40.8917C40.8917 78.8376 40.1037 78.0828 39.1522 78.0828C38.2001 78.0828 37.4121 78.8376 37.4121 79.7897C37.4121 80.7418 38.2001 81.5295 39.1522 81.5295C40.1037 81.5295 40.8917 80.7415 40.8917 79.7897H39.1522Z" fill="#F2D2B1"/>
<path fill-rule="evenodd" clip-rule="evenodd" d="M39.151 79.7901H40.8252C40.8252 78.8711 40.0697 78.116 39.151 78.116C38.2317 78.116 37.4766 78.8711 37.4766 79.7901C37.4766 80.7422 38.2321 81.4971 39.151 81.4971C40.0697 81.4971 40.8252 80.7419 40.8252 79.7901H39.151Z" fill="#F2D2B3"/>
<path fill-rule="evenodd" clip-rule="evenodd" d="M39.1514 79.79H40.7924C40.7924 78.9035 40.0697 78.1487 39.1514 78.1487C38.2321 78.1487 37.5098 78.9035 37.5098 79.79C37.5098 80.7093 38.2324 81.4313 39.1514 81.4313C40.07 81.4313 40.7924 80.709 40.7924 79.79H39.1514Z" fill="#F3D4B4"/>
<path fill-rule="evenodd" clip-rule="evenodd" d="M39.1508 79.7899H40.759C40.7584 79.3635 40.5888 78.9548 40.2873 78.6533C39.9859 78.3518 39.5772 78.1821 39.1508 78.1814C38.264 78.1814 37.542 78.9038 37.542 79.7899C37.542 80.676 38.264 81.3984 39.1508 81.3984C39.5771 81.3976 39.9858 81.2279 40.2872 80.9264C40.5887 80.6249 40.7583 80.2162 40.759 79.7899H39.1508Z" fill="#F3D4B5"/>
<path fill-rule="evenodd" clip-rule="evenodd" d="M39.1522 79.7899H40.7272C40.7272 78.9366 40.0052 78.2471 39.1522 78.2471C38.2982 78.2471 37.5762 78.9366 37.5762 79.7899C37.5762 80.6764 38.2985 81.3656 39.1522 81.3656C40.0055 81.3656 40.7272 80.6761 40.7272 79.7899H39.1522Z" fill="#F3D4B7"/>
<path fill-rule="evenodd" clip-rule="evenodd" d="M39.152 79.7898H40.6617C40.6622 79.5914 40.6236 79.3948 40.5479 79.2114C40.4722 79.028 40.361 78.8613 40.2207 78.721C40.0804 78.5806 39.9138 78.4694 39.7304 78.3937C39.547 78.318 39.3504 78.2793 39.152 78.2798C38.9535 78.2792 38.7568 78.3179 38.5734 78.3935C38.3899 78.4692 38.2231 78.5804 38.0828 78.7207C37.9424 78.8611 37.8312 79.0278 37.7555 79.2112C37.6798 79.3947 37.6411 79.5913 37.6416 79.7898C37.6416 80.6435 38.2983 81.3327 39.152 81.3327C40.0053 81.3327 40.6617 80.6432 40.6617 79.7898H39.152Z" fill="#F3D6B8"/>
<path fill-rule="evenodd" clip-rule="evenodd" d="M39.1514 79.7895H40.6283C40.6291 79.5953 40.5914 79.4029 40.5175 79.2233C40.4435 79.0437 40.3348 78.8806 40.1975 78.7433C40.0602 78.6059 39.8971 78.4971 39.7175 78.4232C39.538 78.3492 39.3456 78.3115 39.1514 78.3123C38.3305 78.3123 37.6738 78.969 37.6738 79.7895C37.6738 80.61 38.3305 81.2667 39.1514 81.2667C39.3456 81.2675 39.538 81.2298 39.7175 81.1558C39.8971 81.0818 40.0602 80.973 40.1975 80.8357C40.3348 80.6984 40.4435 80.5352 40.5175 80.3557C40.5914 80.1761 40.6291 79.9837 40.6283 79.7895H39.1514Z" fill="#F4D8BA"/>
<path fill-rule="evenodd" clip-rule="evenodd" d="M39.1517 79.7899H40.5961C40.5961 79.0019 39.9394 78.3455 39.1517 78.3455C38.3641 78.3455 37.707 79.0022 37.707 79.7899C37.707 80.6107 38.3641 81.2343 39.1517 81.2343C39.9394 81.2343 40.5961 80.6104 40.5961 79.7899H39.1517Z" fill="#F4D9BC"/>
<path fill-rule="evenodd" clip-rule="evenodd" d="M39.1512 79.7896H40.5627C40.5627 79.0345 39.9392 78.4109 39.1512 78.4109C38.3632 78.4109 37.7393 79.0345 37.7393 79.7896C37.7393 80.5776 38.3632 81.2012 39.1512 81.2012C39.9392 81.2012 40.5627 80.5773 40.5627 79.7896H39.1512Z" fill="#F4D9BE"/>
<path fill-rule="evenodd" clip-rule="evenodd" d="M39.1509 79.7898H40.4966C40.4966 79.0346 39.9058 78.4438 39.1509 78.4438C38.3954 78.4438 37.8047 79.0346 37.8047 79.7898C37.8047 80.545 38.3954 81.1685 39.1509 81.1685C39.9058 81.1685 40.4966 80.5446 40.4966 79.7898H39.1509Z" fill="#F4DBBF"/>
<path fill-rule="evenodd" clip-rule="evenodd" d="M39.1523 79.7897H40.4654C40.4644 79.4417 40.3257 79.1083 40.0797 78.8623C39.8337 78.6162 39.5003 78.4776 39.1523 78.4766C38.4296 78.4766 37.8389 79.0673 37.8389 79.7897C37.8389 80.512 38.4296 81.1028 39.1523 81.1028C39.5003 81.1018 39.8337 80.9631 40.0797 80.7171C40.3257 80.471 40.4644 80.1376 40.4654 79.7897H39.1523Z" fill="#F4DBC0"/>
<path fill-rule="evenodd" clip-rule="evenodd" d="M39.1507 79.7898H40.431C40.431 79.1003 39.84 78.5095 39.1507 78.5095C38.4612 78.5095 37.8701 79.1003 37.8701 79.7898C37.8701 80.5122 38.4612 81.0701 39.1507 81.0701C39.8396 81.0701 40.431 80.5122 40.431 79.7898H39.1507Z" fill="#F5DDC3"/>
<path fill-rule="evenodd" clip-rule="evenodd" d="M39.1531 79.7901H40.4002C40.4002 79.1334 39.842 78.5754 39.1531 78.5754C38.4635 78.5754 37.9053 79.1334 37.9053 79.7901C37.9053 80.121 38.0367 80.4383 38.2707 80.6722C38.5046 80.9061 38.8219 81.0376 39.1528 81.0376C39.4836 81.0376 39.8009 80.9061 40.0349 80.6722C40.2688 80.4383 40.4002 80.121 40.4002 79.7901H39.1531Z" fill="#F5DDC3"/>
<path fill-rule="evenodd" clip-rule="evenodd" d="M39.1519 79.7899H40.3331C40.3331 79.1332 39.8086 78.6084 39.1519 78.6084C38.4952 78.6084 37.9697 79.1335 37.9697 79.7899C37.9697 80.4463 38.4952 81.0046 39.1519 81.0046C39.8086 81.0046 40.3331 80.4466 40.3331 79.7899H39.1519Z" fill="#F6DFC6"/>
<path fill-rule="evenodd" clip-rule="evenodd" d="M39.1523 79.7896H40.301C40.301 79.1657 39.7758 78.6409 39.1523 78.6409C38.528 78.6409 38.0029 79.166 38.0029 79.7896C38.0029 80.4463 38.528 80.9386 39.1523 80.9386C39.7758 80.9386 40.301 80.4463 40.301 79.7896H39.1523Z" fill="#F6DFC7"/>
<path fill-rule="evenodd" clip-rule="evenodd" d="M39.1517 79.79H40.2676C40.2676 79.1992 39.7753 78.6741 39.1517 78.6741C38.5275 78.6741 38.0352 79.1992 38.0352 79.79C38.034 79.9369 38.062 80.0826 38.1177 80.2186C38.1734 80.3546 38.2556 80.4782 38.3595 80.5821C38.4634 80.686 38.587 80.7681 38.723 80.8238C38.859 80.8794 39.0048 80.9074 39.1517 80.9062C39.2986 80.9073 39.4443 80.8793 39.5802 80.8236C39.7162 80.7679 39.8397 80.6857 39.9435 80.5819C40.0474 80.478 40.1295 80.3544 40.1852 80.2185C40.2408 80.0825 40.2688 79.9369 40.2676 79.79H39.1517Z" fill="#F6E1CA"/>
<path fill-rule="evenodd" clip-rule="evenodd" d="M39.1511 79.7897H40.2338C40.2338 79.199 39.7415 78.7395 39.1511 78.7395C38.56 78.7395 38.0674 79.199 38.0674 79.7897C38.0674 80.3808 38.5597 80.8731 39.1511 80.8731C39.7418 80.8731 40.2338 80.3808 40.2338 79.7897H39.1511Z" fill="#F6E1CC"/>
<path fill-rule="evenodd" clip-rule="evenodd" d="M39.1518 79.7895H40.1693C40.1679 79.52 40.0603 79.262 39.8698 79.0714C39.6793 78.8808 39.4213 78.7732 39.1518 78.7717C38.8823 78.773 38.6241 78.8806 38.4335 79.0712C38.2428 79.2618 38.1351 79.5199 38.1338 79.7895C38.1338 80.3805 38.5936 80.84 39.1518 80.84C39.7095 80.84 40.1693 80.3805 40.1693 79.7895H39.1518Z" fill="#F7E3CD"/>
<path fill-rule="evenodd" clip-rule="evenodd" d="M39.1522 79.7898H40.1368C40.1368 79.2647 39.7099 78.8052 39.1522 78.8052C38.594 78.8052 38.167 79.2647 38.167 79.7898C38.167 80.3477 38.594 80.7747 39.1522 80.7747C39.7099 80.7747 40.1368 80.3477 40.1368 79.7898H39.1522Z" fill="#F7E3CF"/>
<path fill-rule="evenodd" clip-rule="evenodd" d="M39.1524 79.79H40.1039C40.1037 79.5376 40.0034 79.2957 39.825 79.1172C39.6467 78.9387 39.4047 78.8382 39.1524 78.8379C38.9041 78.8443 38.6682 78.9474 38.4949 79.1253C38.3216 79.3031 38.2246 79.5417 38.2246 79.79C38.2246 80.0383 38.3216 80.2768 38.4949 80.4547C38.6682 80.6325 38.9041 80.7357 39.1524 80.7421C39.4048 80.7418 39.6467 80.6414 39.8251 80.4629C40.0035 80.2844 40.1038 80.0424 40.1039 79.79H39.1524Z" fill="#F7E3D0"/>
<path fill-rule="evenodd" clip-rule="evenodd" d="M39.1517 79.7898H40.0703C40.0703 79.2975 39.644 78.9033 39.1517 78.9033C38.6588 78.9033 38.2324 79.2975 38.2324 79.7898C38.2322 79.9106 38.2558 80.0302 38.3019 80.1419C38.348 80.2535 38.4157 80.355 38.5011 80.4404C38.5865 80.5258 38.688 80.5935 38.7996 80.6396C38.9113 80.6857 39.0309 80.7093 39.1517 80.7091C39.2725 80.7093 39.3921 80.6856 39.5036 80.6395C39.6152 80.5934 39.7166 80.5257 39.802 80.4402C39.8873 80.3548 39.955 80.2534 40.001 80.1418C40.0471 80.0302 40.0706 79.9105 40.0703 79.7898H39.1517Z" fill="#F8E5D1"/>
<path fill-rule="evenodd" clip-rule="evenodd" d="M39.1528 79.7899H40.0061C40.0061 79.3304 39.6451 78.9365 39.1528 78.9365C39.0405 78.9357 38.9291 78.9572 38.8252 78.9998C38.7212 79.0423 38.6268 79.1052 38.5473 79.1845C38.4678 79.2639 38.405 79.3584 38.3623 79.4623C38.3197 79.5662 38.2981 79.6775 38.2988 79.7899C38.2988 80.2822 38.6599 80.6763 39.1528 80.6763C39.6451 80.6763 40.0061 80.2825 40.0061 79.7899H39.1528Z" fill="#F8E8D4"/>
<path fill-rule="evenodd" clip-rule="evenodd" d="M39.1519 79.7896H39.9721C39.9732 79.6816 39.9528 79.5744 39.9119 79.4743C39.8711 79.3743 39.8108 79.2834 39.7344 79.207C39.658 79.1305 39.5672 79.0701 39.4671 79.0292C39.3671 78.9883 39.26 78.9678 39.1519 78.9688C39.0438 78.9677 38.9366 78.9882 38.8365 79.0291C38.7365 79.07 38.6456 79.1304 38.5691 79.2068C38.4927 79.2833 38.4323 79.3742 38.3914 79.4742C38.3505 79.5743 38.33 79.6815 38.3311 79.7896C38.33 79.8977 38.3505 80.0049 38.3913 80.105C38.4322 80.2051 38.4926 80.296 38.569 80.3725C38.6455 80.4489 38.7364 80.5093 38.8365 80.5502C38.9366 80.5911 39.0438 80.6115 39.1519 80.6104C39.26 80.6115 39.3671 80.5909 39.4671 80.55C39.5672 80.5091 39.658 80.4487 39.7344 80.3723C39.8108 80.2958 39.8711 80.2049 39.9119 80.1049C39.9528 80.0048 39.9732 79.8977 39.9721 79.7896H39.1519Z" fill="#F8E8D6"/>
<path fill-rule="evenodd" clip-rule="evenodd" d="M39.1513 79.7898H39.9393C39.9393 79.3632 39.5776 79.0347 39.1513 79.0347C38.7243 79.0347 38.3633 79.3629 38.3633 79.7898C38.3633 80.2168 38.7243 80.5778 39.1513 80.5778C39.5776 80.5778 39.9393 80.2168 39.9393 79.7898H39.1513Z" fill="#F8E8D8"/>
<path fill-rule="evenodd" clip-rule="evenodd" d="M39.152 79.79H39.9068C39.9068 79.3961 39.5452 79.0676 39.152 79.0676C38.7575 79.0676 38.3965 79.3961 38.3965 79.79C38.3965 80.2166 38.7575 80.5452 39.152 80.5452C39.5452 80.5452 39.9068 80.217 39.9068 79.79H39.152Z" fill="#F9EAD9"/>
<path fill-rule="evenodd" clip-rule="evenodd" d="M39.1524 79.7896H39.8413C39.8413 79.4286 39.5456 79.1001 39.1524 79.1001C38.758 79.1001 38.4629 79.4283 38.4629 79.7896C38.4629 80.1838 38.758 80.512 39.1524 80.512C39.5456 80.512 39.8413 80.1838 39.8413 79.7896H39.1524Z" fill="#FAECDC"/>
<path fill-rule="evenodd" clip-rule="evenodd" d="M39.1518 79.7898H39.8086C39.808 79.6158 39.7386 79.4491 39.6156 79.3261C39.4925 79.203 39.3258 79.1336 39.1518 79.1331C38.7902 79.1331 38.4951 79.4284 38.4951 79.7898C38.4951 80.1511 38.7902 80.4465 39.1518 80.4465C39.3259 80.446 39.4926 80.3766 39.6157 80.2536C39.7387 80.1305 39.8081 79.9638 39.8086 79.7898H39.1518Z" fill="#FAECDD"/>
<path fill-rule="evenodd" clip-rule="evenodd" d="M39.1516 79.7895H39.7751C39.7751 79.4613 39.4794 79.1987 39.1516 79.1987C38.823 79.1987 38.5273 79.4613 38.5273 79.7895C38.5273 80.1505 38.823 80.4134 39.1516 80.4134C39.2335 80.4134 39.3146 80.3972 39.3903 80.3659C39.4659 80.3345 39.5347 80.2886 39.5926 80.2306C39.6505 80.1727 39.6964 80.1039 39.7278 80.0282C39.7591 79.9525 39.7752 79.8714 39.7751 79.7895H39.1516Z" fill="#FAECDF"/>
<path fill-rule="evenodd" clip-rule="evenodd" d="M39.1516 79.7901H39.7424C39.7424 79.4947 39.4798 79.2322 39.1516 79.2322C38.8231 79.2322 38.5605 79.4947 38.5605 79.7901C38.5605 80.1186 38.8231 80.3812 39.1516 80.3812C39.2293 80.3815 39.3063 80.3664 39.3781 80.3368C39.45 80.3072 39.5152 80.2637 39.5701 80.2087C39.625 80.1538 39.6685 80.0885 39.6981 80.0166C39.7277 79.9448 39.7427 79.8678 39.7424 79.7901H39.1516Z" fill="#FAEEE0"/>
<path fill-rule="evenodd" clip-rule="evenodd" d="M39.1517 79.7898H39.6769C39.6769 79.4944 39.4465 79.2646 39.1517 79.2646C38.856 79.2646 38.626 79.4944 38.626 79.7898C38.626 80.0851 38.8564 80.3477 39.1517 80.3477C39.4468 80.3477 39.6769 80.0851 39.6769 79.7898H39.1517Z" fill="#FBF0E3"/>
<path fill-rule="evenodd" clip-rule="evenodd" d="M39.1521 79.7897H39.6444C39.6444 79.5271 39.414 79.2974 39.1521 79.2974C38.8896 79.2974 38.6592 79.5271 38.6592 79.7897C38.6592 80.085 38.8896 80.282 39.1521 80.282C39.414 80.282 39.6444 80.085 39.6444 79.7897H39.1521Z" fill="#FBF1E5"/>
<path fill-rule="evenodd" clip-rule="evenodd" d="M39.1512 79.7897H39.6104C39.6104 79.56 39.4131 79.363 39.1512 79.363C38.8886 79.363 38.6914 79.56 38.6914 79.7897C38.6914 80.0526 38.8886 80.2495 39.1512 80.2495C39.4131 80.2495 39.6104 80.0526 39.6104 79.7897H39.1512Z" fill="#FBF1E7"/>
<path fill-rule="evenodd" clip-rule="evenodd" d="M39.1526 79.7898H39.5789C39.5789 79.5601 39.3823 79.396 39.1526 79.396C38.9222 79.396 38.7256 79.5601 38.7256 79.7898C38.7256 80.0199 38.9222 80.2165 39.1526 80.2165C39.3823 80.2165 39.5789 80.0196 39.5789 79.7898H39.1526Z" fill="#FCF3E8"/>
<path fill-rule="evenodd" clip-rule="evenodd" d="M39.1517 79.79H39.5127C39.5127 79.5931 39.3483 79.429 39.1517 79.429C38.9545 79.429 38.79 79.5934 38.79 79.79C38.79 80.02 38.9545 80.1841 39.1517 80.1841C39.3483 80.1841 39.5127 80.02 39.5127 79.79H39.1517Z" fill="#FCF3EA"/>
<path fill-rule="evenodd" clip-rule="evenodd" d="M39.1518 79.7896H39.4796C39.4796 79.6255 39.3484 79.4614 39.1518 79.4614C38.9545 79.4614 38.8232 79.6255 38.8232 79.7896C38.8232 79.9869 38.9545 80.1181 39.1518 80.1181C39.3484 80.1181 39.4796 79.9869 39.4796 79.7896H39.1518Z" fill="#FCF5ED"/>
<path fill-rule="evenodd" clip-rule="evenodd" d="M39.1521 79.7897H39.4472C39.4472 79.6256 39.3159 79.5271 39.1521 79.5271C38.9877 79.5271 38.8564 79.6256 38.8564 79.7897C38.8564 79.9538 38.9877 80.085 39.1521 80.085C39.191 80.0852 39.2294 80.0776 39.2653 80.0628C39.3012 80.048 39.3337 80.0262 39.3612 79.9988C39.3886 79.9713 39.4103 79.9387 39.4251 79.9028C39.4399 79.8669 39.4474 79.8285 39.4472 79.7897H39.1521Z" fill="#FCF5EF"/>
<path fill-rule="evenodd" clip-rule="evenodd" d="M39.1522 79.79H39.4141C39.4141 79.6588 39.2829 79.5603 39.1522 79.5603C39.0209 79.5603 38.8896 79.6591 38.8896 79.79C38.8896 79.9213 39.0209 80.0529 39.1522 80.0529C39.2829 80.0529 39.4141 79.9213 39.4141 79.79H39.1522Z" fill="#FDF8F1"/>
<path fill-rule="evenodd" clip-rule="evenodd" d="M39.1513 79.7899H39.3479C39.3479 79.6915 39.2495 79.593 39.1513 79.593C39.0522 79.593 38.9541 79.6915 38.9541 79.7899C38.9541 79.9212 39.0526 80.02 39.1513 80.02C39.2498 80.02 39.3479 79.9212 39.3479 79.7899H39.1513Z" fill="#FDF8F3"/>
<path fill-rule="evenodd" clip-rule="evenodd" d="M39.1517 79.7896H39.3155C39.3155 79.7239 39.2502 79.6255 39.1517 79.6255C39.0526 79.6255 38.9873 79.7239 38.9873 79.7896C38.9873 79.888 39.0526 79.9537 39.1517 79.9537C39.2502 79.9537 39.3155 79.888 39.3155 79.7896H39.1517Z" fill="#FDF8F5"/>
<path fill-rule="evenodd" clip-rule="evenodd" d="M39.1518 79.7899H39.2824C39.2824 79.7242 39.2171 79.6914 39.1518 79.6914C39.0858 79.6914 39.0205 79.7242 39.0205 79.7899C39.0205 79.8555 39.0858 79.9211 39.1518 79.9211C39.2171 79.9211 39.2824 79.8555 39.2824 79.7899H39.1518Z" fill="#FEFBF6"/>
<path fill-rule="evenodd" clip-rule="evenodd" d="M39.1528 79.79H39.2181C39.2181 79.7572 39.185 79.7244 39.1528 79.7244C39.1197 79.7244 39.0537 79.7572 39.0537 79.79C39.0537 79.8556 39.1197 79.8885 39.1528 79.8885C39.1853 79.8885 39.2181 79.8556 39.2181 79.79H39.1528Z" fill="#FFFFFB"/>
<path fill-rule="evenodd" clip-rule="evenodd" d="M39.1513 79.7897H39.1838C39.1838 79.7897 39.1838 79.7568 39.1513 79.7568C39.1182 79.7568 39.1182 79.7897 39.1182 79.7897C39.1182 79.8225 39.1182 79.8553 39.1513 79.8553C39.1838 79.8553 39.1838 79.8225 39.1838 79.7897H39.1513Z" fill="#353535"/>
<path fill-rule="evenodd" clip-rule="evenodd" d="M47.7197 81.3003L45.3888 75.3911H43.4846L47.2274 84.4189H48.1467L51.9547 75.3911H50.0834L47.7197 81.3003ZM52.7427 84.1894H57.6014V82.7119H54.4497V80.3482H57.4698V78.8382H54.4497V76.9012H57.6014V75.3911H52.7427V84.1894ZM64.3967 77.9845C64.3967 76.3432 63.2802 75.3911 61.2782 75.3911H58.7501V84.1891H60.457V80.6764H60.6868L63.0505 84.1891H65.1516L62.3941 80.4792C63.674 80.2169 64.3967 79.3305 64.3967 77.9845ZM60.9493 79.4621H60.457V76.7702H60.9822C62.0656 76.7702 62.6232 77.2297 62.6232 78.0833C62.6235 78.9695 62.0659 79.4621 60.9493 79.4621ZM10.3909 86.7727V87.561H11.3643V87.8799H10.3909V89.2533H10.041V86.4534H11.3962V86.7727H10.3909ZM12.9942 86.4534H13.3444V89.2533H12.9942V86.4534ZM15.0348 86.3189L17.1346 88.5223V86.4534H17.4845V89.3686L15.3824 87.1665V89.2533H15.0348V86.3189ZM20.7215 88.2327H19.7242L20.2226 87.0989L20.7215 88.2327ZM20.8649 88.5519L21.1842 89.2533H21.5608L20.2229 86.3345L18.8855 89.2533H19.2606L19.5808 88.5519H20.8649ZM22.9613 86.3189L25.0634 88.5223V86.4534H25.4135V89.3686L23.3089 87.1665V89.2533H22.9613V86.3189ZM29.148 86.9887C28.9489 86.8096 28.6729 86.7137 28.4088 86.7137C27.7826 86.7137 27.3034 87.2372 27.3034 87.8576C27.3034 88.4704 27.7779 88.9936 28.4024 88.9936C28.6777 88.9936 28.9403 88.8903 29.1477 88.7039V89.1169C28.9235 89.2439 28.6706 89.3114 28.4129 89.3129C27.6128 89.3129 26.9526 88.6781 26.9526 87.8681C26.9526 87.0397 27.6173 86.3928 28.4435 86.3928C28.6892 86.3928 28.9374 86.4534 29.1474 86.5831V86.9887H29.148ZM30.7549 86.4534H31.1029V89.2533H30.7549V86.4534ZM34.3648 88.2327H33.3678L33.8687 87.0989L34.3648 88.2327ZM34.5085 88.5519L34.8287 89.2533H35.2038L33.8687 86.3345L32.5307 89.2533H32.9048L33.2241 88.5519H34.5085ZM36.9869 88.9356H37.838V89.2533H36.6389V86.4534H36.9869V88.9356ZM42.7852 86.9849C42.6839 86.8093 42.5494 86.7204 42.3359 86.7204C42.1126 86.7204 41.8666 86.8724 41.8666 87.1184C41.8666 87.3366 42.0852 87.4526 42.2585 87.5192L42.4576 87.5979C42.8566 87.7531 43.1536 87.973 43.1536 88.4404C43.1536 88.9499 42.7591 89.3129 42.2585 89.3129C41.8048 89.3129 41.452 88.9792 41.394 88.5296L41.7461 88.456C41.7417 88.7635 41.987 88.9866 42.2862 88.9866C42.588 88.9866 42.8027 88.7348 42.8027 88.4404C42.8027 88.1403 42.5618 88.0096 42.321 87.9086L42.1285 87.828C41.8079 87.6903 41.5186 87.5087 41.5186 87.1184C41.5186 86.6646 41.9195 86.3928 42.3439 86.3928C42.6546 86.3928 42.9114 86.5461 43.0627 86.8166L42.7852 86.9849ZM44.7343 86.4534H46.2396V86.7727H45.0845V87.5575H46.2081V87.8764H45.0845V88.9356H46.2396V89.2533H44.7343V86.4534ZM48.2219 86.7653H48.3114C48.66 86.7653 49.0749 86.8284 49.0749 87.2675C49.0749 87.7126 48.6864 87.7789 48.3305 87.7789H48.2215V86.7653H48.2219ZM48.7298 88.0361C49.1345 87.987 49.4018 87.6537 49.4018 87.2519C49.4018 86.9849 49.2673 86.7204 49.0328 86.5827C48.8107 86.4569 48.5431 86.4534 48.2955 86.4534H47.8723V89.2533H48.2222V88.0702H48.3659L49.1905 89.2533H49.6131L48.7298 88.0361ZM52.0121 88.5258L52.8441 86.4534H53.2274L52.0121 89.4034L50.7946 86.4534H51.1773L52.0121 88.5258ZM54.6533 86.4534H55.0029V89.2533H54.6533V86.4534ZM58.7682 86.9887C58.5665 86.8096 58.2903 86.7137 58.0252 86.7137C57.3997 86.7137 56.9204 87.2372 56.9204 87.8576C56.9204 88.4704 57.3946 88.9936 58.0188 88.9936C58.2944 88.9936 58.5595 88.8903 58.7682 88.7039V89.1169C58.5433 89.2437 58.2898 89.3111 58.0316 89.3129C57.2337 89.3129 56.5703 88.6781 56.5703 87.8681C56.5703 87.0397 57.2381 86.3928 58.0609 86.3928C58.3065 86.3928 58.5551 86.4534 58.7686 86.5831V86.9887H58.7682ZM60.3812 86.4534H61.8862V86.7727H60.7317V87.5575H61.853V87.8764H60.7317V88.9356H61.8862V89.2533H60.3812V86.4534ZM64.76 86.9849C64.658 86.8093 64.5242 86.7204 64.3126 86.7204C64.0905 86.7204 63.8445 86.8724 63.8445 87.1184C63.8445 87.3366 64.0612 87.4526 64.2342 87.5192L64.4366 87.5979C64.8323 87.7531 65.1293 87.973 65.1293 88.4404C65.1293 88.9499 64.7354 89.3129 64.2342 89.3129C63.7824 89.3129 63.4271 88.9792 63.3704 88.5296L63.7215 88.456C63.7171 88.7635 63.9643 88.9866 64.2642 88.9866C64.5653 88.9866 64.7813 88.7348 64.7813 88.4404C64.7813 88.1403 64.5379 88.0096 64.2976 87.9086L64.1049 87.828C63.7843 87.6903 63.495 87.5087 63.495 87.1184C63.495 86.6646 63.8965 86.3928 64.3203 86.3928C64.6309 86.3928 64.8884 86.5461 65.0417 86.8166L64.76 86.9849ZM65.3998 76.1715C65.3998 76.239 65.3536 76.2747 65.2599 76.2747H65.2281V76.073H65.2622C65.3552 76.0733 65.3998 76.1052 65.3998 76.1715ZM65.6745 76.7046L65.4192 76.384C65.5282 76.356 65.591 76.2763 65.591 76.1667C65.591 76.015 65.4846 75.9293 65.2953 75.9293H65.0484V76.7046H65.2312V76.4044L65.4486 76.7046H65.6745ZM66.0004 76.3155C66.0004 75.9452 65.6993 75.64 65.3339 75.64C65.2449 75.6394 65.1567 75.6564 65.0744 75.6902C64.9921 75.7239 64.9173 75.7736 64.8543 75.8364C64.7913 75.8992 64.7414 75.9739 64.7075 76.0562C64.6736 76.1384 64.6564 76.2265 64.6567 76.3155C64.6567 76.6918 64.9591 76.992 65.3339 76.992C65.6993 76.9916 66.0004 76.6867 66.0004 76.3155ZM65.8641 76.3174C65.8641 76.6214 65.6251 76.8706 65.3307 76.8706C65.0343 76.8706 64.7906 76.6227 64.7906 76.3174C64.7906 76.0086 65.0321 75.7633 65.3307 75.7633C65.6251 75.7633 65.8641 76.0125 65.8641 76.3174Z" fill="#353535"/>
</g>
<mask id="mask1" mask-type="alpha" maskUnits="userSpaceOnUse" x="91" y="64" width="64" height="36">
<rect x="91" y="64" width="64" height="36" fill="#C4C4C4"/>
</mask>
<g mask="url(#mask1)">
<path fill-rule="evenodd" clip-rule="evenodd" d="M104.006 98.4428H103.88C103.88 98.3801 103.849 98.2858 103.849 98.2541C103.849 98.2229 103.849 98.1602 103.755 98.1602H103.566V98.4428H103.472V97.7828H103.755C103.88 97.7828 103.974 97.8145 103.974 97.9398C103.974 98.0342 103.943 98.0659 103.912 98.0969C103.943 98.1285 103.974 98.16 103.974 98.2229V98.3485C103.974 98.3801 103.974 98.3801 104.006 98.3801V98.4428ZM103.88 97.9715C103.88 97.8772 103.817 97.8772 103.786 97.8772H103.566V98.0659H103.755C103.817 98.0659 103.88 98.0342 103.88 97.9715ZM104.415 98.0971C104.415 97.7201 104.101 97.4054 103.692 97.4054C103.314 97.4054 103 97.7201 103 98.0971C103 98.5057 103.314 98.8204 103.692 98.8204C104.1 98.8202 104.415 98.5057 104.415 98.0971ZM104.32 98.0971C104.32 98.443 104.038 98.6944 103.692 98.6944C103.346 98.6944 103.094 98.4428 103.094 98.0971C103.094 97.7828 103.346 97.4998 103.692 97.4998C104.037 97.4998 104.32 97.7828 104.32 98.0971ZM143.052 85.3962C143.052 86.3395 142.455 86.7791 141.386 86.7791H139.343V85.8358H141.386C141.575 85.8358 141.732 85.8046 141.795 85.742C141.858 85.6788 141.92 85.5845 141.92 85.4589C141.92 85.3329 141.858 85.2073 141.795 85.1446C141.732 85.0815 141.606 85.0503 141.418 85.0503C140.443 85.0186 139.217 85.0815 139.217 83.6984C139.217 83.0694 139.626 82.3778 140.726 82.3778H142.832V83.321H140.883C140.695 83.321 140.569 83.321 140.474 83.3837C140.38 83.478 140.317 83.5724 140.317 83.7296C140.317 83.8869 140.412 83.9812 140.537 84.0444C140.663 84.0756 140.789 84.107 140.946 84.107H141.512C142.109 84.107 142.487 84.2326 142.738 84.453C142.926 84.6729 143.052 84.9562 143.052 85.3962ZM138.619 84.453C138.368 84.2326 137.99 84.107 137.393 84.107H136.827C136.67 84.107 136.544 84.0753 136.419 84.0444C136.293 83.9812 136.199 83.8869 136.199 83.7296C136.199 83.5724 136.23 83.478 136.356 83.3837C136.45 83.321 136.576 83.321 136.765 83.321H138.714V82.3778H136.608C135.476 82.3778 135.098 83.0694 135.098 83.6984C135.098 85.0813 136.325 85.0186 137.299 85.0503C137.487 85.0503 137.613 85.0815 137.676 85.1446C137.739 85.2073 137.802 85.3329 137.802 85.4589C137.802 85.5845 137.739 85.6788 137.676 85.742C137.582 85.8046 137.456 85.8358 137.268 85.8358H135.224V86.7791H137.268C138.336 86.7791 138.934 86.3393 138.934 85.3962C138.934 84.9562 138.808 84.6729 138.619 84.453ZM134.595 85.8677H132.112V84.9874H134.533V84.1075H132.112V83.2898H134.595V82.3782H131.074V86.7793H134.595V85.8677ZM129.943 82.5984C129.597 82.4097 129.188 82.378 128.654 82.378H126.233V86.7791H127.302V85.1759H128.434C128.811 85.1759 129.031 85.2075 129.188 85.3646C129.377 85.5845 129.377 85.9619 129.377 86.2449V86.7791H130.414V85.9302C130.414 85.5216 130.383 85.3329 130.257 85.113C130.163 84.9869 129.974 84.8299 129.723 84.7356C130.005 84.6417 130.477 84.2643 130.477 83.5724C130.477 83.0696 130.288 82.7866 129.943 82.5984ZM123.969 82.378H120.605L119.254 83.8242L117.965 82.378H113.72V86.7791H117.902L119.254 85.3329L120.543 86.7791H122.586V85.3019H123.907C124.818 85.3019 125.73 85.0503 125.73 83.8242C125.73 82.6296 124.787 82.378 123.969 82.378ZM129.094 84.2016C128.937 84.2643 128.779 84.2643 128.591 84.2643L127.302 84.296V83.2896H128.591C128.779 83.2896 128.968 83.2896 129.094 83.3839C129.22 83.447 129.314 83.5726 129.314 83.7613C129.314 83.95 129.22 84.1073 129.094 84.2016ZM123.969 84.4215H122.586V83.2896H123.969C124.347 83.2896 124.598 83.447 124.598 83.8242C124.598 84.2016 124.347 84.4215 123.969 84.4215ZM119.914 84.5785L121.548 82.8497V86.4022L119.914 84.5785ZM117.367 85.8677H114.758V84.9874H117.084V84.1075H114.758V83.2898H117.399L118.562 84.5788L117.367 85.8677ZM140.128 79.2027H138.619L136.639 75.9016V79.2027H134.501L134.092 78.228H131.892L131.483 79.2027H130.257C129.754 79.2027 129.094 79.0769 128.717 78.6995C128.371 78.3224 128.182 77.8194 128.182 77.0334C128.182 76.3732 128.276 75.7758 128.748 75.3043C129.062 74.9584 129.628 74.8014 130.351 74.8014H131.357V75.7446H130.351C129.974 75.7446 129.754 75.8075 129.534 75.9962C129.345 76.1849 129.251 76.5306 129.251 77.0021C129.251 77.4737 129.345 77.8196 129.534 78.0398C129.691 78.1968 129.974 78.2597 130.257 78.2597H130.728L132.237 74.8016H133.809L135.57 78.9513V74.8014H137.205L139.059 77.8508V74.8014H140.128V79.2027H140.128ZM127.648 74.8014H126.579V79.2027H127.648V74.8014ZM125.415 74.9901C125.069 74.8014 124.692 74.8014 124.158 74.8014H121.737V79.2027H122.775V77.5992H123.906C124.284 77.5992 124.535 77.6307 124.692 77.7879C124.881 78.0081 124.849 78.3855 124.849 78.6368V79.2027H125.918V78.3224C125.918 77.9452 125.887 77.7565 125.73 77.5363C125.635 77.4105 125.447 77.2533 125.227 77.1592C125.509 77.0334 125.981 76.6877 125.981 75.996C125.981 75.493 125.761 75.21 125.415 74.9901ZM120.983 78.2911H118.53V77.4108H120.951V76.4992H118.53V75.7132H120.983V74.8016H117.462V79.2029H120.983V78.2911ZM116.676 74.8014H114.947L113.658 77.7879L112.274 74.8014H110.577V78.9511L108.785 74.8014H107.213L105.327 79.2027H106.458L106.867 78.228H109.067L109.476 79.2027H111.614V75.7446L113.154 79.2027H114.066L115.607 75.7446V79.2027H116.675V74.8014H116.676ZM133.715 77.285L132.992 75.5559L132.269 77.285H133.715ZM124.598 76.5935C124.441 76.6879 124.284 76.6879 124.064 76.6879H122.775V75.7134H124.063C124.252 75.7134 124.472 75.7134 124.598 75.7763C124.723 75.8706 124.787 75.9964 124.787 76.1849C124.787 76.3734 124.724 76.5304 124.598 76.5935ZM107.244 77.285L107.967 75.5559L108.69 77.285H107.244ZM142.801 61H105.295V76.8449L106.584 73.9212H109.319L109.696 74.6443V73.9212H112.903L113.626 75.493L114.318 73.9212H124.535C125.007 73.9212 125.415 74.0156 125.73 74.2669V73.9212H128.528V74.2669C128.999 74.0153 129.596 73.9212 130.288 73.9212H134.344L134.721 74.6443V73.9212H137.708L138.148 74.6443V73.9212H141.071V80.0831H138.116L137.551 79.14V80.0831H133.872L133.464 79.0771H132.552L132.143 80.0831H130.226C129.471 80.0831 128.905 79.8944 128.528 79.7059V80.0831H123.969V78.6683C123.969 78.4796 123.938 78.4481 123.812 78.4481H123.655V80.0828H114.852V79.2968L114.538 80.0828H112.683L112.369 79.3283V80.0828H108.816L108.439 79.0769H107.527L107.119 80.0828H105.295V98.6629H142.801V87.3764C142.392 87.5651 141.826 87.6595 141.26 87.6595H138.525V87.2821C138.211 87.5339 137.645 87.6595 137.111 87.6595H128.496V86.2449C128.496 86.0562 128.465 86.0562 128.308 86.0562H128.151V87.6595H125.321V85.9933C124.85 86.2132 124.315 86.2132 123.844 86.2132H123.529V87.6595H120.071L119.254 86.7162L118.342 87.6595H112.777V81.4978H118.436L119.254 82.4407L120.134 81.4978H123.938C124.378 81.4978 125.101 81.5605 125.415 81.8748V81.4978H128.811C129.156 81.4978 129.817 81.5605 130.257 81.8748V81.4978H135.381V81.875C135.664 81.6234 136.199 81.4981 136.67 81.4981H139.531V81.875C139.846 81.6551 140.286 81.4981 140.852 81.4981H142.801V61Z" fill="#0077A6"/>
</g>
<line x1="0.5" y1="49.5" x2="159.5" y2="49.5" stroke="#D3DBEF" stroke-linecap="round"/>
<line x1="80.5" y1="0.5" x2="80.5" y2="99.5" stroke="#D3DBEF" stroke-linecap="round"/>
<mask id="mask2" mask-type="alpha" maskUnits="userSpaceOnUse" x="91" y="0" width="64" height="36">
<rect x="91" width="64" height="36" fill="#C4C4C4"/>
</mask>
<g mask="url(#mask2)">
<path d="M140.317 33.5635V33.6457H140.394C140.408 33.646 140.422 33.6423 140.435 33.6352C140.44 33.6317 140.444 33.627 140.447 33.6215C140.449 33.616 140.451 33.6099 140.45 33.6038C140.451 33.5978 140.449 33.5918 140.447 33.5865C140.444 33.5811 140.44 33.5765 140.435 33.5731C140.423 33.5657 140.408 33.562 140.394 33.5627H140.317V33.5635ZM140.395 33.5053C140.428 33.5033 140.46 33.5127 140.487 33.532C140.498 33.5408 140.506 33.5519 140.512 33.5646C140.517 33.5772 140.52 33.591 140.519 33.6048C140.52 33.6167 140.518 33.6286 140.513 33.6396C140.509 33.6506 140.502 33.6606 140.493 33.6688C140.473 33.6867 140.447 33.6974 140.42 33.6994L140.522 33.8166H140.443L140.349 33.7002H140.318V33.8166H140.252V33.5055H140.396L140.395 33.5053ZM140.374 33.924C140.409 33.9243 140.443 33.9173 140.475 33.9034C140.506 33.8902 140.534 33.8713 140.557 33.8477C140.581 33.8241 140.6 33.7962 140.613 33.7654C140.64 33.7002 140.64 33.627 140.613 33.5618C140.6 33.5312 140.581 33.5033 140.557 33.4796C140.534 33.456 140.506 33.4371 140.475 33.4239C140.443 33.4107 140.409 33.4042 140.374 33.4045C140.339 33.4042 140.304 33.4108 140.271 33.4239C140.24 33.4368 140.211 33.4557 140.187 33.4796C140.151 33.5169 140.126 33.5641 140.116 33.6153C140.107 33.6665 140.112 33.7194 140.132 33.7675C140.145 33.7983 140.164 33.8263 140.187 33.8497C140.211 33.8735 140.24 33.8925 140.271 33.9055C140.304 33.9193 140.339 33.9263 140.374 33.926V33.924ZM140.374 33.3297C140.465 33.3296 140.551 33.365 140.616 33.4284C140.647 33.4588 140.672 33.4951 140.689 33.5351C140.706 33.5762 140.715 33.6205 140.715 33.6652C140.715 33.7099 140.706 33.7541 140.689 33.7952C140.671 33.835 140.646 33.8712 140.616 33.902C140.584 33.9322 140.548 33.9566 140.507 33.9739C140.465 33.9918 140.42 34.0009 140.374 34.0007C140.328 34.001 140.282 33.9919 140.239 33.9739C140.199 33.957 140.162 33.9326 140.13 33.902C140.099 33.8701 140.075 33.8327 140.058 33.7917C140.041 33.7506 140.032 33.7064 140.032 33.6617C140.032 33.617 140.041 33.5727 140.058 33.5316C140.075 33.4916 140.1 33.4553 140.131 33.4249C140.162 33.3937 140.199 33.3692 140.24 33.3529C140.283 33.3349 140.329 33.3258 140.375 33.3262L140.374 33.3297ZM108.887 32.1281C108.887 31.5349 109.276 31.0475 109.911 31.0475C110.518 31.0475 110.928 31.5139 110.928 32.1281C110.928 32.7424 110.518 33.2088 109.911 33.2088C109.276 33.2088 108.887 32.7214 108.887 32.1281ZM111.62 32.1281V30.4399H110.886V30.8511C110.653 30.5472 110.3 30.3566 109.82 30.3566C108.874 30.3566 108.131 31.0985 108.131 32.129C108.131 33.1594 108.873 33.9013 109.82 33.9013C110.3 33.9013 110.653 33.7105 110.886 33.4068V33.8166H111.619V32.1281H111.62ZM136.418 32.1281C136.418 31.5349 136.806 31.0475 137.442 31.0475C138.049 31.0475 138.458 31.5139 138.458 32.1281C138.458 32.7424 138.049 33.2088 137.442 33.2088C136.807 33.2088 136.418 32.7214 136.418 32.1281ZM139.151 32.1281V29.0847H138.416V30.8511C138.184 30.5472 137.831 30.3566 137.35 30.3566C136.405 30.3566 135.662 31.0985 135.662 32.129C135.662 33.1594 136.404 33.9013 137.35 33.9013C137.831 33.9013 138.184 33.7105 138.416 33.4068V33.8166H139.151V32.1281ZM120.728 31.0128C121.201 31.0128 121.505 31.3093 121.583 31.8314H119.831C119.91 31.344 120.206 31.0128 120.729 31.0128H120.728ZM120.743 30.3547C119.754 30.3547 119.062 31.0745 119.062 32.1271C119.062 33.2003 119.782 33.8995 120.792 33.8995C121.301 33.8995 121.766 33.7726 122.176 33.4265L121.816 32.8826C121.533 33.1088 121.173 33.2357 120.834 33.2357C120.361 33.2357 119.931 33.0167 119.825 32.409H122.331C122.338 32.3177 122.346 32.2256 122.346 32.1269C122.338 31.0747 121.688 30.3545 120.743 30.3545L120.743 30.3547ZM129.604 32.1269C129.604 31.5336 129.992 31.0463 130.628 31.0463C131.235 31.0463 131.644 31.5127 131.644 32.1269C131.644 32.7411 131.235 33.2075 130.628 33.2075C129.992 33.2075 129.604 32.7202 129.604 32.1269H129.604ZM132.336 32.1269V30.4399H131.603V30.8511C131.369 30.5472 131.017 30.3566 130.536 30.3566C129.591 30.3566 128.848 31.0985 128.848 32.129C128.848 33.1594 129.59 33.9013 130.536 33.9013C131.017 33.9013 131.369 33.7105 131.603 33.4068V33.8166H132.336V32.1281L132.336 32.1269ZM125.459 32.1269C125.459 33.1508 126.172 33.8993 127.26 33.8993C127.768 33.8993 128.107 33.7862 128.473 33.4969L128.12 32.9036C127.845 33.1016 127.556 33.2075 127.236 33.2075C126.65 33.2003 126.22 32.7767 126.22 32.1269C126.22 31.4771 126.65 31.0537 127.236 31.0463C127.555 31.0463 127.844 31.1522 128.12 31.3502L128.473 30.757C128.106 30.4676 127.767 30.3545 127.26 30.3545C126.172 30.3545 125.459 31.1028 125.459 32.1269ZM134.92 30.3545C134.497 30.3545 134.221 30.5526 134.031 30.8491V30.4399H133.303V33.8148H134.038V31.9229C134.038 31.3644 134.278 31.0541 134.758 31.0541C134.915 31.0518 135.071 31.0807 135.217 31.139L135.443 30.4473C135.281 30.3833 135.069 30.3551 134.92 30.3551L134.92 30.3545ZM115.248 30.7082C114.895 30.4754 114.408 30.3551 113.872 30.3551C113.017 30.3551 112.466 30.765 112.466 31.4356C112.466 31.9858 112.876 32.3253 113.631 32.4312L113.977 32.4806C114.38 32.5371 114.57 32.643 114.57 32.8337C114.57 33.0946 114.303 33.2435 113.801 33.2435C113.292 33.2435 112.925 33.0811 112.678 32.8904L112.333 33.4627C112.736 33.7592 113.244 33.9007 113.794 33.9007C114.769 33.9007 115.334 33.4417 115.334 32.7991C115.334 32.2059 114.889 31.8956 114.155 31.7897L113.809 31.7395C113.491 31.6984 113.237 31.6344 113.237 31.4082C113.237 31.1614 113.477 31.013 113.879 31.013C114.31 31.013 114.727 31.1754 114.932 31.3023L115.249 30.709L115.248 30.7082ZM124.718 30.3558C124.294 30.3558 124.019 30.5538 123.829 30.8503V30.4399H123.102V33.8148H123.835V31.9229C123.835 31.3644 124.075 31.0541 124.555 31.0541C124.712 31.0518 124.868 31.0807 125.014 31.139L125.24 30.4473C125.078 30.3833 124.866 30.3551 124.717 30.3551L124.718 30.3558ZM118.455 30.4399H117.255V29.416H116.513V30.4399H115.828V31.1106H116.513V32.6502C116.513 33.4333 116.817 33.8997 117.685 33.8997C118.004 33.8997 118.37 33.801 118.603 33.6387L118.391 33.0103C118.172 33.1372 117.932 33.2011 117.741 33.2011C117.375 33.2011 117.255 32.9749 117.255 32.6363V31.1113H118.455V30.4399ZM107.482 33.8156V31.6975C107.482 30.8999 106.974 30.3632 106.155 30.356C105.724 30.3488 105.279 30.4828 104.968 30.9564C104.736 30.5822 104.369 30.356 103.853 30.356C103.492 30.356 103.14 30.4619 102.864 30.8571V30.4399H102.13V33.8148H102.87V31.9435C102.87 31.3576 103.195 31.0463 103.697 31.0463C104.184 31.0463 104.431 31.364 104.431 31.9361V33.8144H105.173V31.9431C105.173 31.3572 105.511 31.0459 105.999 31.0459C106.5 31.0459 106.739 31.3636 106.739 31.9357V33.8139L107.482 33.8156Z" fill="#323B6E"/>
<path d="M140.735 22.5895V22.0959H140.607L140.458 22.4346L140.31 22.0959H140.181V22.5895H140.273V22.2177L140.412 22.5385H140.506L140.645 22.2169V22.5895H140.736H140.735ZM139.92 22.5895V22.1805H140.084V22.0972H139.664V22.1805H139.829V22.5895H139.919H139.92Z" fill="#F79410"/>
<path d="M126.128 24.7061H115.006V4.71826H126.128L126.128 24.7061Z" fill="#FF5F00"/>
<path d="M115.711 14.7118C115.711 10.6573 117.609 7.04551 120.565 4.71791C118.328 2.95344 115.56 1.9958 112.71 2.00001C105.69 2.00001 100 7.69121 100 14.7118C100 21.7325 105.69 27.4237 112.71 27.4237C115.56 27.4279 118.328 26.4703 120.565 24.7058C117.609 22.3786 115.711 18.7666 115.711 14.7118Z" fill="#EB001B"/>
<path d="M141.132 14.7126C141.132 21.7332 135.442 27.4244 128.422 27.4244C125.572 27.4286 122.804 26.471 120.565 24.7065C123.522 22.3789 125.421 18.7673 125.421 14.7126C125.421 10.6578 123.522 7.04624 120.565 4.71864C122.804 2.95423 125.572 1.99661 128.422 2.00075C135.441 2.00075 141.132 7.69194 141.132 14.7126" fill="#F79E1B"/>
</g>
<mask id="mask3" mask-type="alpha" maskUnits="userSpaceOnUse" x="6" y="0" width="64" height="36">
<rect x="6" width="64" height="36" fill="#C4C4C4"/>
</mask>
<g mask="url(#mask3)">
<path d="M34.3888 26.6833H29.61L32.5967 8.32798H37.376L34.3888 26.6833ZM25.5897 8.32798L21.0338 20.9529L20.4947 18.2343L20.4952 18.2353L18.8871 9.98067C18.8871 9.98067 18.6927 8.32798 16.6202 8.32798H9.08838L9 8.63878C9 8.63878 11.3033 9.11799 13.9988 10.7368L18.1507 26.6838H23.1298L30.7329 8.32798H25.5897ZM63.1778 26.6833H67.5658L63.7399 8.32749H59.8984C58.1244 8.32749 57.6924 9.6954 57.6924 9.6954L50.5651 26.6833H55.5467L56.543 23.9568H62.618L63.1778 26.6833ZM57.9192 20.1904L60.4302 13.3214L61.8427 20.1904H57.9192ZM50.9388 12.742L51.6207 8.80032C51.6207 8.80032 49.5163 8 47.3226 8C44.9511 8 39.3194 9.03649 39.3194 14.0765C39.3194 18.8186 45.9291 18.8775 45.9291 21.3683C45.9291 23.8591 40.0004 23.4128 38.0438 21.8421L37.3333 25.9635C37.3333 25.9635 39.4672 27 42.7274 27C45.9885 27 50.9083 25.3115 50.9083 20.7158C50.9083 15.9433 44.2391 15.499 44.2391 13.424C44.2396 11.3486 48.8938 11.6152 50.9388 12.742Z" fill="#2566AF"/>
<path d="M20.4952 18.2349L18.8871 9.98032C18.8871 9.98032 18.6927 8.32764 16.6202 8.32764H9.08838L9 8.63844C9 8.63844 12.6201 9.38867 16.0924 12.1996C19.4125 14.8863 20.4952 18.2349 20.4952 18.2349Z" fill="#E6A540"/>
</g>
</svg>
