<svg width="28" height="16" viewBox="0 0 28 16" fill="none" xmlns="http://www.w3.org/2000/svg">
<path d="M7.95706 5.83636C7.95706 6.16164 7.99391 6.42537 8.05838 6.61878C8.13206 6.81219 8.22417 7.02318 8.35312 7.25175C8.39917 7.32208 8.41759 7.39241 8.41759 7.45394C8.41759 7.54186 8.36233 7.62977 8.24259 7.71768L7.66233 8.08691C7.57943 8.13966 7.49654 8.16603 7.42285 8.16603C7.33075 8.16603 7.23864 8.12208 7.14654 8.04296C7.01759 7.91109 6.90706 7.77043 6.81496 7.62977C6.72285 7.48032 6.63075 7.31329 6.52943 7.11109C5.81101 7.91988 4.90838 8.32427 3.82154 8.32427C3.04785 8.32427 2.43075 8.11329 1.97943 7.69131C1.52811 7.26933 1.29785 6.70669 1.29785 6.0034C1.29785 5.25614 1.57417 4.64955 2.13601 4.19241C2.69785 3.73526 3.4439 3.50669 4.39259 3.50669C4.70575 3.50669 5.02812 3.53307 5.3689 3.57702C5.70969 3.62098 6.05969 3.69131 6.42812 3.77043V3.12867C6.42812 2.46054 6.28075 1.9946 5.99522 1.72208C5.70048 1.44955 5.20311 1.31768 4.4939 1.31768C4.17154 1.31768 3.83996 1.35285 3.49917 1.43197C3.15838 1.51109 2.8268 1.60779 2.50443 1.73087C2.35706 1.79241 2.24654 1.82757 2.18206 1.84515C2.11759 1.86274 2.07154 1.87153 2.03469 1.87153C1.90575 1.87153 1.84127 1.78362 1.84127 1.599V1.16823C1.84127 1.02757 1.85969 0.922077 1.90575 0.860538C1.9518 0.799 2.03469 0.737461 2.16364 0.675923C2.48601 0.517681 2.87285 0.385813 3.32417 0.280318C3.77548 0.166033 4.25443 0.113286 4.76101 0.113286C5.85706 0.113286 6.65838 0.350648 7.17417 0.825373C7.68075 1.3001 7.93864 2.02098 7.93864 2.98801V5.83636H7.95706ZM4.21759 7.17263C4.52154 7.17263 4.83469 7.11988 5.16627 7.01438C5.49785 6.90889 5.79259 6.71548 6.04127 6.45175C6.18864 6.28471 6.29917 6.1001 6.35443 5.88911C6.40969 5.67812 6.44654 5.42318 6.44654 5.12427V4.75504C6.17943 4.69351 5.8939 4.64076 5.59917 4.60559C5.30443 4.57043 5.0189 4.55285 4.73338 4.55285C4.11627 4.55285 3.66496 4.66713 3.36101 4.90449C3.05706 5.14186 2.90969 5.47592 2.90969 5.91548C2.90969 6.32867 3.02022 6.63636 3.25048 6.84735C3.47154 7.06713 3.7939 7.17263 4.21759 7.17263ZM11.6136 8.12208C11.4479 8.12208 11.3373 8.0957 11.2636 8.03416C11.19 7.98142 11.1255 7.85834 11.0702 7.69131L8.90575 0.895703C8.85048 0.719879 8.82285 0.605593 8.82285 0.544055C8.82285 0.403395 8.89654 0.324275 9.04391 0.324275H9.94654C10.1215 0.324275 10.2413 0.350648 10.3057 0.412187C10.3794 0.464934 10.4347 0.588011 10.49 0.755044L12.0373 6.57482L13.4742 0.755044C13.5202 0.57922 13.5755 0.464934 13.6492 0.412187C13.7229 0.359439 13.8518 0.324275 14.0176 0.324275H14.7544C14.9294 0.324275 15.0492 0.350648 15.1229 0.412187C15.1965 0.464934 15.261 0.588011 15.2979 0.755044L16.7531 6.64515L18.3465 0.755044C18.4018 0.57922 18.4663 0.464934 18.5307 0.412187C18.6044 0.359439 18.7242 0.324275 18.89 0.324275H19.7465C19.8939 0.324275 19.9768 0.394604 19.9768 0.544055C19.9768 0.588011 19.9676 0.631967 19.9584 0.684714C19.9492 0.737461 19.9307 0.807791 19.8939 0.904494L17.6742 7.7001C17.6189 7.87592 17.5544 7.99021 17.4807 8.04296C17.4071 8.0957 17.2873 8.13087 17.1307 8.13087H16.3386C16.1636 8.13087 16.0439 8.10449 15.9702 8.04296C15.8965 7.98142 15.8321 7.86713 15.7952 7.69131L14.3676 2.02098L12.9492 7.68252C12.9031 7.85834 12.8479 7.97263 12.7742 8.03416C12.7005 8.0957 12.5715 8.12208 12.4057 8.12208H11.6136ZM23.4492 8.35944C22.9702 8.35944 22.4913 8.30669 22.0307 8.2012C21.5702 8.0957 21.211 7.98142 20.9715 7.84955C20.8242 7.77043 20.7229 7.68252 20.686 7.60339C20.6492 7.52427 20.6307 7.43636 20.6307 7.35724V6.90889C20.6307 6.72427 20.7044 6.63636 20.8426 6.63636C20.8979 6.63636 20.9531 6.64515 21.0084 6.66274C21.0636 6.68032 21.1465 6.71548 21.2386 6.75065C21.5518 6.88252 21.8926 6.98801 22.2518 7.05834C22.6202 7.12867 22.9794 7.16383 23.3479 7.16383C23.9281 7.16383 24.3794 7.06713 24.6926 6.87372C25.0058 6.68032 25.1715 6.399 25.1715 6.03856C25.1715 5.79241 25.0886 5.59021 24.9229 5.42318C24.7571 5.25614 24.4439 5.10669 23.9926 4.96603L22.6571 4.57043C21.9847 4.36823 21.4873 4.06933 21.1834 3.67372C20.8794 3.28691 20.7229 2.85614 20.7229 2.399C20.7229 2.02977 20.8057 1.70449 20.9715 1.42318C21.1373 1.14186 21.3584 0.895703 21.6347 0.702296C21.911 0.500099 22.2242 0.350648 22.5926 0.245154C22.961 0.139659 23.3479 0.0957031 23.7531 0.0957031C23.9557 0.0957031 24.1676 0.104494 24.3702 0.130868C24.5821 0.157242 24.7755 0.192406 24.9689 0.227571C25.1531 0.271527 25.3281 0.315483 25.4939 0.368231C25.6597 0.420978 25.7886 0.473725 25.8807 0.526472C26.0097 0.596802 26.1018 0.667132 26.1571 0.746253C26.2123 0.816582 26.24 0.913285 26.24 1.03636V1.44955C26.24 1.63416 26.1663 1.73087 26.0281 1.73087C25.9544 1.73087 25.8347 1.6957 25.6781 1.62537C25.1531 1.3968 24.5636 1.28252 23.9097 1.28252C23.3847 1.28252 22.9702 1.36164 22.6847 1.52867C22.3992 1.6957 22.2518 1.95065 22.2518 2.31109C22.2518 2.55724 22.3439 2.76823 22.5281 2.93526C22.7123 3.1023 23.0531 3.26933 23.5413 3.41878L24.8492 3.81438C25.5123 4.01658 25.9913 4.2979 26.2768 4.65834C26.5623 5.01878 26.7005 5.43197 26.7005 5.88911C26.7005 6.26713 26.6176 6.60999 26.461 6.90889C26.2952 7.20779 26.0742 7.47153 25.7886 7.68252C25.5031 7.9023 25.1623 8.06054 24.7663 8.17482C24.3518 8.2979 23.9189 8.35944 23.4492 8.35944Z" fill="white"/>
<path fill-rule="evenodd" clip-rule="evenodd" d="M25.1905 12.6335C22.1602 14.7697 17.7576 15.9038 13.9721 15.9038C8.6668 15.9038 3.88653 14.0313 0.276006 10.9192C-0.00952025 10.673 0.248375 10.339 0.589164 10.5324C4.49443 12.695 9.31153 14.0049 14.2944 14.0049C17.6563 14.0049 21.3497 13.3368 24.7484 11.9653C25.255 11.7456 25.6879 12.2818 25.1905 12.6335Z" fill="#FF9900"/>
<path fill-rule="evenodd" clip-rule="evenodd" d="M26.4522 11.2617C26.0654 10.787 23.8917 11.0332 22.9062 11.1475C22.6114 11.1826 22.5654 10.9365 22.8325 10.7519C24.5641 9.59141 27.4101 9.92548 27.7417 10.3123C28.0733 10.7079 27.6496 13.4244 26.0285 14.7255C25.7798 14.9277 25.5404 14.8222 25.6509 14.5584C26.0193 13.6881 26.8391 11.7277 26.4522 11.2617Z" fill="#FF9900"/>
</svg>
