<?xml version="1.0" encoding="UTF-8"?>
<svg _ngcontent-djr-c203="" width="54" height="54" viewBox="0 0 54 54" fill="none" xmlns="http://www.w3.org/2000/svg"><rect _ngcontent-djr-c203="" x="-55" y="-17.6016" width="164" height="116" rx="6" fill="#1A2C4A"></rect><path _ngcontent-djr-c203="" d="M18.9055 4.01032H33.2807L18.3579 48.225C18.2045 48.6794 17.9125 49.0742 17.523 49.3538C17.1335 49.6335 16.666 49.784 16.1865 49.7841H4.9991C4.63578 49.7841 4.27767 49.6977 3.9544 49.5319C3.63112 49.366 3.35198 49.1256 3.14006 48.8305C2.92814 48.5354 2.78953 48.1941 2.7357 47.8347C2.68188 47.4754 2.71438 47.1085 2.83052 46.7642L16.7336 5.5694C16.8869 5.11487 17.179 4.71989 17.5686 4.4401C17.9582 4.1603 18.4258 4.00979 18.9055 4.00977V4.01032Z" fill="url(#paint0_linear_10239_8376)"></path><path _ngcontent-djr-c203="" d="M39.7941 33.668H16.9986C16.7867 33.6677 16.5796 33.7313 16.4043 33.8505C16.229 33.9696 16.0937 34.1388 16.016 34.3359C15.9382 34.5331 15.9216 34.7491 15.9684 34.9558C16.0151 35.1625 16.1231 35.3503 16.2781 35.4948L30.926 49.1666C31.3525 49.5644 31.914 49.7856 32.4972 49.7855H45.4049L39.7941 33.668Z" fill="#0078D4"></path><path _ngcontent-djr-c203="" d="M18.9055 4.01174C18.4206 4.00987 17.9478 4.16312 17.5562 4.44907C17.1645 4.73503 16.8746 5.13872 16.7287 5.60118L2.84764 46.7281C2.72368 47.0736 2.68477 47.4439 2.73419 47.8076C2.7836 48.1713 2.91989 48.5178 3.13154 48.8177C3.34318 49.1176 3.62394 49.3622 3.95007 49.5306C4.2762 49.6991 4.63811 49.7865 5.00518 49.7855H16.4813C16.9088 49.7091 17.3082 49.5207 17.639 49.2394C17.9698 48.9581 18.2199 48.5941 18.3639 48.1845L21.1321 40.0263L31.0199 49.2489C31.4343 49.5916 31.954 49.7811 32.4918 49.7855H45.3514L39.7113 33.668L23.2698 33.6719L33.3326 4.01174H18.9055Z" fill="url(#paint1_linear_10239_8376)"></path><path _ngcontent-djr-c203="" d="M37.2657 5.56859C37.1126 5.1148 36.821 4.72048 36.4319 4.44117C36.0429 4.16187 35.576 4.01166 35.0971 4.01172H19.0762C19.5551 4.01175 20.0219 4.16198 20.4109 4.44127C20.8 4.72057 21.0916 5.11485 21.2448 5.56859L35.1484 46.7651C35.2646 47.1094 35.2972 47.4764 35.2434 47.8358C35.1897 48.1952 35.0511 48.5367 34.8392 48.8319C34.6272 49.1271 34.3481 49.3676 34.0247 49.5336C33.7014 49.6995 33.3432 49.786 32.9798 49.7861H49.0013C49.3646 49.786 49.7228 49.6993 50.046 49.5334C50.3693 49.3674 50.6484 49.1269 50.8602 48.8317C51.0721 48.5365 51.2106 48.1951 51.2644 47.8357C51.3181 47.4763 51.2855 47.1093 51.1693 46.7651L37.2657 5.56859Z" fill="url(#paint2_linear_10239_8376)"></path><defs _ngcontent-djr-c203=""><linearGradient _ngcontent-djr-c203="" id="paint0_linear_10239_8376" x1="24.1448" y1="7.40232" x2="9.21591" y2="51.506" gradientUnits="userSpaceOnUse"><stop _ngcontent-djr-c203="" stop-color="#114A8B"></stop><stop _ngcontent-djr-c203="" offset="1" stop-color="#0669BC"></stop></linearGradient><linearGradient _ngcontent-djr-c203="" id="paint1_linear_10239_8376" x1="28.8083" y1="27.9572" x2="25.355" y2="29.1249" gradientUnits="userSpaceOnUse"><stop _ngcontent-djr-c203="" stop-opacity="0.3"></stop><stop _ngcontent-djr-c203="" offset="0.071" stop-opacity="0.2"></stop><stop _ngcontent-djr-c203="" offset="0.321" stop-opacity="0.1"></stop><stop _ngcontent-djr-c203="" offset="0.623" stop-opacity="0.05"></stop><stop _ngcontent-djr-c203="" offset="1" stop-opacity="0"></stop></linearGradient><linearGradient _ngcontent-djr-c203="" id="paint2_linear_10239_8376" x1="26.9086" y1="6.11737" x2="43.2961" y2="49.7767" gradientUnits="userSpaceOnUse"><stop _ngcontent-djr-c203="" stop-color="#3CCBF4"></stop><stop _ngcontent-djr-c203="" offset="1" stop-color="#2892DF"></stop></linearGradient></defs></svg>
