<svg fill="#0062fe" width="120px" height="120px" viewBox="-3.2 -3.2 38.40 38.40" id="icon" xmlns="http://www.w3.org/2000/svg">
  <g id="SVGRepo_bgCarrier" stroke-width="0"/>
  <g id="SVGRepo_tracerCarrier" stroke-linecap="round" stroke-linejoin="round" stroke="#CCCCCC" stroke-width="0.96"/>
  <g id="SVGRepo_iconCarrier"> <defs> <style> .cls-1 { fill: none; } </style> </defs> <circle cx="9" cy="6" r="1"/> <path d="M26,10H6A2.0021,2.0021,0,0,1,4,8V4A2.0021,2.0021,0,0,1,6,2H26a2.0021,2.0021,0,0,1,2,2V8A2.0021,2.0021,0,0,1,26,10ZM6,4V8H26V4Z" transform="translate(0 0)"/> <circle cx="9" cy="16" r="1"/> <path d="M26,20H6a2.0021,2.0021,0,0,1-2-2V14a2.0021,2.0021,0,0,1,2-2H26a2.0021,2.0021,0,0,1,2,2v4A2.0021,2.0021,0,0,1,26,20ZM6,14v4H26V14Z" transform="translate(0 0)"/> <circle cx="9" cy="26" r="1"/> <path d="M26,30H6a2.0021,2.0021,0,0,1-2-2V24a2.0021,2.0021,0,0,1,2-2H26a2.0021,2.0021,0,0,1,2,2v4A2.0021,2.0021,0,0,1,26,30ZM6,24v4H26V24Z" transform="translate(0 0)"/> <rect id="_Transparent_Rectangle_" data-name="&lt;Transparent Rectangle&gt;" class="cls-1" width="32" height="32"/> </g>
</svg>