<svg width="64" height="64" viewBox="0 0 64 64" fill="none" xmlns="http://www.w3.org/2000/svg">
  <path
    d="M40.2577 17.6777L34.7735 8.12695H20.3851C19.1042 8.12695 17.9103 8.81093 17.2885 9.93016L5.64853 30.2131C5.01429 31.3199 5.01429 32.663 5.64853 33.7823L10.0757 41.505L15.5475 32.0039L23.7801 17.6777H40.2577Z"
    fill="#F8BB16"/>
  <path
    d="M58.3893 30.2132L46.7492 9.93016C46.1026 8.82336 44.9212 8.12695 43.6527 8.12695H34.7734L40.2577 17.6777L48.4903 32.0039L40.2577 46.3301H51.2013L58.3893 33.7823C59.0111 32.6755 59.0111 31.3199 58.3893 30.2132Z"
    fill="#EA4334"/>
  <path
    d="M51.1888 46.3184H23.7552L15.5226 31.9922L10.0508 41.4932L17.2636 54.0535C17.9103 55.1603 19.0917 55.8567 20.3602 55.8567H43.6278C44.9087 55.8567 46.1025 55.1727 46.7243 54.0535L51.1888 46.3184Z"
    fill="#0074BC"/>
  <path
    d="M40.2336 46.3164H23.7436L15.5234 31.9902L23.756 17.6641H40.2336L48.4911 31.9902L40.2336 46.3164ZM32.001 24.8396C28.034 24.8396 24.8379 28.0356 24.8379 32.0027C24.8379 35.9697 28.034 39.1658 32.001 39.1658C35.9681 39.1658 39.1641 35.9697 39.1641 32.0027C39.1641 28.0356 35.9557 24.8396 32.001 24.8396Z"
    fill="#E2E3E4"/>
</svg>