<svg width="200" height="200" viewBox="0 0 200 200" fill="none" xmlns="http://www.w3.org/2000/svg">
<path d="M191.645 88.5537C191.29 85.1819 190.758 81.2777 189.693 77.0186C188.629 72.7595 186.854 68.1455 184.548 63.1766C182.064 58.3851 179.047 53.2387 174.966 48.4472C173.369 46.4951 171.595 44.7205 169.821 42.7684C172.66 31.5883 166.449 21.8279 166.449 21.8279C155.626 21.118 148.883 25.1996 146.399 26.9743C146.044 26.7968 145.512 26.6193 145.157 26.4419C143.383 25.732 141.431 25.0222 139.479 24.3123C137.527 23.7799 135.576 23.0701 133.624 22.7152C131.672 22.1828 129.543 21.8279 127.414 21.4729C127.059 21.4729 126.704 21.2955 126.349 21.2955C121.736 6.38864 108.251 0 108.251 0C92.8139 9.93789 89.7975 23.2476 89.7975 23.2476C89.7975 23.2476 89.7975 23.6025 89.6201 23.9574C88.7329 24.1349 88.0231 24.4898 87.136 24.6673C86.0714 25.0222 84.8293 25.3771 83.7647 25.9095C82.7001 26.4419 81.4581 26.7968 80.3934 27.3292C78.0868 28.394 75.9576 29.4587 73.6509 30.701C71.5217 31.9432 69.3925 33.1854 67.4407 34.6051C67.0858 34.4277 66.9084 34.2502 66.9084 34.2502C46.1485 26.2644 27.6953 35.8474 27.6953 35.8474C26.0984 58.0302 36.0347 71.8722 37.9865 74.3567C37.4542 75.7764 37.0993 77.0186 36.567 78.4383C34.9701 83.4073 33.9055 88.5537 33.1958 93.8776C33.0183 94.5874 33.0183 95.4747 32.8409 96.1846C13.6779 105.59 8 125.111 8 125.111C23.9691 143.567 42.7772 144.632 42.7772 144.632C45.0839 148.891 47.9229 152.973 50.9392 156.699C52.1813 158.296 53.6008 159.716 55.0203 161.313C49.1649 177.995 55.9074 192.014 55.9074 192.014C73.8284 192.724 85.5391 184.206 88.0231 182.254C89.7975 182.786 91.5718 183.319 93.3462 183.851C98.8467 185.271 104.525 186.158 110.025 186.335C111.445 186.335 112.864 186.335 114.284 186.335H114.993H115.526H116.413H117.3C125.639 198.403 140.544 200 140.544 200C151.013 188.82 151.722 177.995 151.722 175.51C151.722 175.51 151.722 175.51 151.722 175.333C151.722 175.155 151.722 174.978 151.722 174.978C151.722 174.8 151.722 174.623 151.722 174.445C153.851 172.848 155.981 171.251 158.11 169.476C162.368 165.75 165.917 161.313 169.111 156.699C169.466 156.344 169.643 155.812 169.998 155.457C181.886 156.167 190.226 148.004 190.226 148.004C188.274 135.581 181.176 129.547 179.757 128.483C179.757 128.483 179.757 128.483 179.58 128.305L179.402 128.128L179.225 127.95C179.225 127.24 179.402 126.531 179.402 125.643C179.58 124.224 179.58 122.981 179.58 121.562V120.497V119.965V119.787C179.58 119.432 179.58 119.61 179.58 119.432V118.545V117.48C179.58 117.125 179.58 116.77 179.58 116.415C179.58 116.06 179.58 115.705 179.402 115.35L179.225 114.286L179.047 113.221C178.87 111.801 178.515 110.559 178.338 109.139C177.095 103.815 174.966 98.669 172.305 94.2325C169.466 89.6185 166.095 85.7143 162.191 82.165C158.287 78.7933 154.029 75.9539 149.416 74.0018C144.802 71.8722 140.189 70.63 135.398 70.0976C133.092 69.7427 130.608 69.7427 128.301 69.7427H127.414H127.236H126.881H126.527H125.639C125.284 69.7427 124.93 69.7427 124.752 69.7427C123.51 69.9201 122.268 70.0976 121.203 70.2751C116.413 71.1624 111.977 72.937 108.073 75.244C104.17 77.551 100.798 80.5679 97.9595 83.9397C95.1205 87.3114 92.9913 90.8607 91.5718 94.7649C90.1524 98.4916 89.2652 102.573 89.0877 106.3C89.0877 107.187 89.0877 108.252 89.0877 109.139C89.0877 109.317 89.0877 109.672 89.0877 109.849V110.559C89.0877 111.091 89.0877 111.446 89.2652 111.979C89.4426 113.931 89.7975 115.705 90.3298 117.48C91.3944 121.029 92.9913 124.224 95.1205 127.063C97.2498 129.902 99.5564 132.032 102.218 133.807C104.879 135.581 107.541 136.823 110.38 137.711C113.219 138.598 115.88 138.953 118.365 138.776C118.719 138.776 119.074 138.776 119.252 138.776C119.429 138.776 119.607 138.776 119.784 138.776C119.961 138.776 120.139 138.776 120.316 138.776C120.671 138.776 120.849 138.776 121.203 138.776H121.381H121.558C121.736 138.776 121.913 138.776 122.091 138.776C122.446 138.776 122.8 138.598 122.978 138.598C123.333 138.598 123.51 138.421 123.865 138.421C124.397 138.243 125.107 138.066 125.639 137.888C126.704 137.533 127.769 137.001 128.833 136.646C129.898 136.114 130.785 135.581 131.495 135.049C131.672 134.871 132.027 134.694 132.204 134.516C133.092 133.807 133.269 132.564 132.559 131.677C131.85 130.967 130.785 130.79 129.898 131.145C129.72 131.322 129.543 131.322 129.188 131.5C128.478 131.854 127.591 132.209 126.881 132.387C125.994 132.564 125.107 132.919 124.22 133.097C123.688 133.097 123.333 133.274 122.8 133.274C122.623 133.274 122.268 133.274 122.091 133.274C121.913 133.274 121.558 133.274 121.381 133.274C121.203 133.274 120.849 133.274 120.671 133.274C120.316 133.274 120.139 133.274 119.784 133.274C119.784 133.274 119.607 133.274 119.784 133.274H119.607H119.429C119.252 133.274 119.252 133.274 119.074 133.274C118.897 133.274 118.542 133.274 118.365 133.097C116.413 132.742 114.284 132.209 112.332 131.322C110.38 130.435 108.428 129.193 106.831 127.595C105.057 125.998 103.637 124.224 102.395 122.094C101.153 119.965 100.444 117.657 100.089 115.35C99.9113 114.108 99.7338 112.866 99.9113 111.624C99.9113 111.269 99.9113 110.914 99.9113 110.559C99.9113 110.736 99.9113 110.559 99.9113 110.559V110.382V110.204C99.9113 110.027 99.9113 109.849 99.9113 109.672C99.9113 108.962 100.089 108.429 100.266 107.72C101.153 102.396 103.815 97.2493 107.896 93.3452C108.96 92.2804 110.025 91.3931 111.267 90.6832C112.509 89.7959 113.751 89.0861 114.993 88.5537C116.235 88.0213 117.655 87.4889 119.074 87.134C120.494 86.7791 121.913 86.4241 123.333 86.4241C124.042 86.4241 124.752 86.2467 125.462 86.2467C125.639 86.2467 125.817 86.2467 125.994 86.2467H126.527H126.881C127.059 86.2467 126.881 86.2467 126.881 86.2467H127.059H127.591C129.188 86.4241 130.785 86.6016 132.204 86.9565C135.221 87.6664 138.237 88.7311 141.076 90.3283C146.754 93.5226 151.545 98.3141 154.384 104.17C155.803 107.01 156.868 110.204 157.4 113.576C157.578 114.463 157.578 115.173 157.755 116.06V116.593V117.125C157.755 117.303 157.755 117.48 157.755 117.658C157.755 117.835 157.755 118.012 157.755 118.19V118.722V119.255C157.755 119.61 157.755 120.319 157.755 120.674C157.755 121.562 157.578 122.449 157.578 123.336C157.4 124.224 157.4 125.111 157.223 125.998C157.045 126.886 156.868 127.773 156.69 128.66C156.336 130.435 155.626 132.032 155.094 133.807C153.851 137.178 152.077 140.373 149.948 143.212C145.689 149.068 139.834 153.86 133.269 156.877C129.898 158.296 126.527 159.539 122.978 160.071C121.203 160.426 119.429 160.603 117.655 160.603H117.3H116.945H116.413H115.526H114.993C115.171 160.603 114.993 160.603 114.993 160.603H114.816C113.929 160.603 112.864 160.603 111.977 160.426C108.073 160.071 104.347 159.361 100.621 158.296C96.8949 157.232 93.3462 155.812 89.9749 154.037C83.2324 150.488 77.1996 145.342 72.4089 139.485C70.1022 136.468 67.973 133.274 66.1987 129.902C64.4243 126.531 63.1823 122.981 62.1177 119.432C61.053 115.883 60.5207 112.156 60.3433 108.429V107.72V107.542V107.365V107.01V106.477V106.3V106.122V105.768V104.88V104.703V104.348C60.3433 103.815 60.3433 103.461 60.3433 102.928C60.3433 101.154 60.5207 99.2014 60.8756 97.2493C61.053 95.2972 61.4079 93.5226 61.7628 91.5705C62.1176 89.6185 62.65 87.8438 63.1823 85.8918C64.2469 82.165 65.4889 78.6158 67.0858 75.244C70.2797 68.5004 74.3607 62.4667 79.1514 57.6752C80.3934 56.433 81.6355 55.3682 83.055 54.3035C83.5873 53.7711 84.8293 52.7063 86.2488 51.819C87.6683 50.9317 89.0878 50.0444 90.6847 49.3345C91.3944 48.9796 92.1041 48.6247 92.9913 48.2697C93.3462 48.0923 93.7011 47.9148 94.2334 47.7374C94.5882 47.5599 94.9431 47.3824 95.4754 47.205C97.0723 46.4951 98.6692 45.9627 100.266 45.4303C100.621 45.2529 101.153 45.2529 101.508 45.0754C101.863 44.898 102.395 44.898 102.75 44.7205C103.637 44.543 104.347 44.3656 105.234 44.0106C105.589 43.8332 106.122 43.8332 106.476 43.6557C106.831 43.6557 107.364 43.4783 107.718 43.4783C108.073 43.4783 108.606 43.3008 108.96 43.3008L109.67 43.1233L110.38 42.9459C110.735 42.9459 111.267 42.7684 111.622 42.7684C112.154 42.7684 112.509 42.591 113.041 42.591C113.396 42.591 114.106 42.4135 114.461 42.4135C114.816 42.4135 114.993 42.4135 115.348 42.236H115.88H116.235H116.59C117.122 42.236 117.477 42.236 118.01 42.0586H118.719C118.719 42.0586 118.897 42.0586 118.719 42.0586H118.897H119.252C119.607 42.0586 120.139 42.0586 120.494 42.0586C122.091 42.0586 123.688 42.0586 125.284 42.0586C128.478 42.236 131.672 42.5909 134.689 43.1233C140.721 44.1881 146.577 46.1402 151.722 48.8021C156.868 51.2866 161.659 54.4809 165.562 57.8527C165.74 58.0302 166.094 58.2076 166.272 58.5626C166.449 58.74 166.804 58.9175 166.982 59.2724C167.514 59.6273 167.869 60.1597 168.401 60.5146C168.933 60.8696 169.288 61.402 169.821 61.7569C170.176 62.2893 170.708 62.6442 171.063 63.1766C172.837 64.9512 174.434 66.9033 175.853 68.6779C178.692 72.4046 180.999 76.1313 182.773 79.6806C182.951 79.858 182.951 80.0355 183.128 80.3904C183.306 80.5679 183.306 80.7453 183.483 81.1003C183.661 81.4552 183.838 81.9876 184.193 82.3425C184.37 82.6974 184.548 83.2298 184.725 83.5847C184.903 83.9397 185.08 84.472 185.257 84.827C185.967 86.4241 186.5 88.0213 187.032 89.6185C187.919 92.1029 188.451 94.2325 188.984 96.0071C189.161 96.7169 189.871 97.2493 190.581 97.2493C191.468 97.2493 192 96.5395 192 95.6522C191.823 93.5226 191.823 91.2156 191.645 88.5537Z" fill="url(#paint0_linear)"/>
<defs>
<linearGradient id="paint0_linear" x1="100" y1="245.094" x2="100" y2="62.5705" gradientUnits="userSpaceOnUse">
<stop stop-color="#FCEE1F"/>
<stop offset="1" stop-color="#F15B2A"/>
</linearGradient>
</defs>
</svg>
