<svg width="49" height="50" viewBox="0 0 49 50" fill="none" xmlns="http://www.w3.org/2000/svg">
<path d="M48.3692 29.9511C48.0777 29.0682 47.3141 28.4534 46.3266 28.3058C45.861 28.2363 45.3278 28.2659 44.6967 28.396C43.5968 28.6229 42.7809 28.7093 42.1853 28.726C44.4332 24.9309 46.2609 20.6031 47.3132 16.5292C49.0147 9.94186 48.1054 6.94089 47.0429 5.5835C44.2311 1.99062 40.1287 0.0604883 35.1796 0.00142988C32.5394 -0.0308529 30.2217 0.490419 29.0126 0.865278C27.8869 0.666644 26.6765 0.555744 25.4065 0.535235C23.0257 0.497255 20.9222 1.01625 19.1248 2.08291C18.1298 1.74641 16.5327 1.27204 14.6884 0.969343C10.3508 0.257223 6.85472 0.812107 4.29754 2.61861C1.20106 4.80586 -0.234382 8.60611 0.0310957 13.9138C0.115411 15.5989 1.05807 20.7262 2.54231 25.5887C3.39534 28.3837 4.30495 30.7046 5.2459 32.4878C6.58032 35.0162 8.00816 36.5052 9.61109 37.04C10.5095 37.3393 12.1419 37.5489 13.8587 36.119C14.0764 36.3826 14.3667 36.6444 14.752 36.8877C15.2414 37.1963 15.8398 37.4485 16.4374 37.5979C18.591 38.1363 20.6083 38.0016 22.3294 37.247C22.34 37.5531 22.3482 37.8455 22.355 38.0981C22.3664 38.5077 22.3778 38.9094 22.3928 39.285C22.4948 41.8247 22.6676 43.7994 23.1795 45.1811C23.2076 45.2571 23.2454 45.3729 23.2853 45.4958C23.5407 46.2778 23.9678 47.587 25.0544 48.6122C26.1795 49.6743 27.5406 50 28.787 50C29.4122 50 30.0087 49.918 30.5318 49.8059C32.3966 49.4062 34.5146 48.7974 36.0467 46.6158C37.4952 44.5535 38.1994 41.4474 38.3268 36.5531C38.3433 36.4147 38.3585 36.2825 38.3731 36.1566L38.4035 35.8979L38.7448 35.928L38.8327 35.9338C40.732 36.0204 43.0545 35.6177 44.4808 34.9551C45.6079 34.4321 49.2196 32.5253 48.3692 29.9511Z" fill="#182542"/>
<path d="M45.1215 30.4517C39.4739 31.6167 39.0856 29.7046 39.0856 29.7046C45.0484 20.8567 47.5412 9.6255 45.3902 6.87672C39.5216 -0.621424 29.363 2.92474 29.1934 3.01665L29.1389 3.02653C28.023 2.79485 26.7745 2.65698 25.3709 2.63401C22.8156 2.59223 20.8772 3.30397 19.4062 4.41943C19.4062 4.41943 1.2842 -3.04624 2.12715 13.8088C2.30642 17.3944 7.26657 40.9401 13.1827 33.8283C15.345 31.2276 17.4345 29.0288 17.4345 29.0288C18.4721 29.7181 19.7144 30.0698 21.0167 29.9435L21.118 29.8577C21.0864 30.1805 21.1009 30.4963 21.1584 30.8702C19.6343 32.573 20.0822 32.8719 17.0355 33.4992C13.9525 34.1346 15.7636 35.2656 16.9461 35.5615C18.3796 35.9198 21.696 36.4276 23.9368 33.2907L23.8476 33.6486C24.4446 34.127 24.8639 36.7597 24.7936 39.1466C24.7234 41.5332 24.6765 43.1718 25.1468 44.4518C25.6176 45.7317 26.0865 48.6115 30.0918 47.7533C33.4384 47.0361 35.1727 45.1775 35.4141 42.0773C35.5852 39.8733 35.9728 40.1992 35.9971 38.2286L36.3079 37.2958C36.6663 34.3081 36.3649 33.3442 38.4266 33.7926L38.928 33.8366C40.4453 33.9055 42.4316 33.5924 43.5974 33.0506C46.1075 31.8858 47.5963 29.9407 45.1211 30.4517H45.1215Z" fill="#316192"/>
<path d="M20.4666 15.4123C19.9577 15.3415 19.4968 15.407 19.2636 15.5836C19.1326 15.6829 19.0919 15.798 19.0809 15.8772C19.0517 16.087 19.1987 16.3191 19.2891 16.4387C19.5447 16.7775 19.918 17.0103 20.2875 17.0616C20.3411 17.0692 20.3945 17.0726 20.4474 17.0726C21.0637 17.0726 21.6241 16.5927 21.6734 16.2385C21.7351 15.7949 21.0912 15.4993 20.4666 15.4125V15.4123ZM37.3266 15.4263C37.278 15.0786 36.6593 14.9795 36.0721 15.0612C35.4857 15.1428 34.9171 15.4075 34.9646 15.756C35.0026 16.027 35.492 16.4896 36.0712 16.4896C36.1201 16.4896 36.1695 16.4864 36.2193 16.4793C36.6059 16.4258 36.8896 16.1802 37.0244 16.0388C37.2295 15.823 37.3484 15.5826 37.3266 15.4263Z" fill="white"/>
<path d="M47.0013 30.3193C46.7859 29.6681 46.0928 29.4587 44.9412 29.6964C41.5221 30.4021 40.2977 29.9133 39.8956 29.6172C42.5533 25.5686 44.7396 20.6745 45.919 16.1084C46.4777 13.9455 46.7863 11.9367 46.8116 10.2994C46.8395 8.50241 46.5334 7.18185 45.9021 6.37516C43.3571 3.12315 39.6218 1.37874 35.1003 1.33089C31.9919 1.29595 29.3656 2.09143 28.8565 2.31513C27.7843 2.04852 26.6155 1.88482 25.343 1.86393C23.0095 1.82614 20.9924 2.38483 19.3224 3.52365C18.597 3.25361 16.7223 2.61005 14.4297 2.24069C10.4661 1.60263 7.31646 2.08612 5.06882 3.67841C2.38688 5.57854 1.14874 8.97506 1.38858 13.7734C1.46929 15.3877 2.38916 20.354 3.84074 25.11C5.7515 31.3698 7.82861 34.9135 10.014 35.6425C10.2698 35.7278 10.5647 35.7874 10.89 35.7874C11.6872 35.7874 12.6646 35.4281 13.6815 34.2055C14.9218 32.7176 16.2049 31.2658 17.529 29.8519C18.3881 30.313 19.3319 30.5705 20.2972 30.5963C20.2991 30.6216 20.3015 30.6469 20.3038 30.6719C20.1376 30.8701 19.9749 31.0711 19.8158 31.2748C19.1469 32.1239 19.0077 32.3007 16.8549 32.7439C16.2424 32.8704 14.616 33.2055 14.592 34.3457C14.5662 35.5914 16.5148 36.1146 16.7368 36.17C17.5104 36.3637 18.2558 36.4593 18.9665 36.4593C20.6952 36.4593 22.2165 35.8911 23.4322 34.7918C23.3948 39.2327 23.5799 43.6088 24.1132 44.942C24.5499 46.0336 25.6168 48.7011 28.9867 48.7009C29.4812 48.7009 30.0255 48.6433 30.6242 48.515C34.1413 47.7611 35.6687 46.2066 36.2595 42.7795C36.5756 40.9479 37.1182 36.5743 37.3734 34.2283C37.912 34.3964 38.6053 34.4733 39.3548 34.4731C40.918 34.4731 42.7219 34.141 43.8531 33.6159C45.1239 33.0257 47.4171 31.5775 47.0013 30.3193ZM38.6256 14.4665C38.614 15.1591 38.5187 15.7879 38.4177 16.4442C38.3088 17.15 38.1964 17.8798 38.1681 18.7657C38.1402 19.6278 38.2479 20.5241 38.352 21.391C38.5624 23.1419 38.7783 24.9444 37.9425 26.723C37.8037 26.477 37.68 26.2227 37.5722 25.9617C37.4684 25.7099 37.2428 25.3054 36.9304 24.7456C35.7152 22.5663 32.8696 17.463 34.3263 15.3805C34.7602 14.7607 35.8614 14.1234 38.6256 14.4665ZM35.275 2.73329C39.3263 2.82273 42.531 4.33831 44.8 7.23768C46.5402 9.46158 44.6239 19.5807 39.0764 28.3105C39.0206 28.2396 38.9645 28.1689 38.9082 28.0984L38.8379 28.0107C40.2714 25.6432 39.9912 23.3008 39.7416 21.2241C39.6391 20.3718 39.5422 19.5668 39.5669 18.8107C39.5924 18.0093 39.6983 17.3219 39.8009 16.6572C39.9268 15.8382 40.055 14.9907 40.0196 13.9916C40.046 13.8868 40.0567 13.763 40.0428 13.616C39.9526 12.658 38.8588 9.79068 36.6294 7.19552C35.4099 5.77603 33.6315 4.18753 31.2032 3.11612C32.2477 2.89964 33.6759 2.69778 35.275 2.73329ZM12.6053 33.3107C11.4849 34.6579 10.7113 34.3996 10.4568 34.3149C8.79899 33.7619 6.87532 30.2579 5.17934 24.7015C3.7118 19.8937 2.85422 15.059 2.78624 13.7033C2.57203 9.41582 3.61135 6.42776 5.87551 4.82198C9.5603 2.20898 15.6184 3.77298 18.0527 4.56619C18.0178 4.60075 17.9813 4.63303 17.9468 4.66817C13.9521 8.70237 14.0468 15.5949 14.0567 16.0163C14.0563 16.1789 14.07 16.409 14.0886 16.7256C14.1574 17.8849 14.2854 20.0425 13.9435 22.486C13.626 24.7566 14.326 26.979 15.8636 28.5834C16.0214 28.7478 16.1873 28.9042 16.3606 29.0521C15.6762 29.7851 14.1887 31.4061 12.6053 33.3107ZM16.874 27.6151C15.6348 26.3219 15.0719 24.5232 15.3296 22.6797C15.6904 20.0986 15.5573 17.8505 15.4857 16.6428C15.4756 16.4738 15.4667 16.3257 15.4616 16.2089C16.0451 15.6914 18.7495 14.2425 20.6781 14.6844C21.5581 14.8858 22.0944 15.4852 22.3173 16.5159C23.4711 21.8526 22.47 24.0769 21.6656 25.8644C21.4998 26.2327 21.3431 26.5807 21.2094 26.9408L21.1057 27.2192C20.8433 27.9229 20.5991 28.5773 20.4477 29.1987C19.1302 29.1949 17.8486 28.632 16.874 27.6149V27.6151ZM17.0763 34.8123C16.6916 34.7162 16.3456 34.5493 16.1426 34.4108C16.3121 34.3311 16.6139 34.2225 17.1372 34.1146C19.6699 33.5933 20.0611 33.2253 20.9153 32.1408C21.1111 31.892 21.3331 31.6102 21.6405 31.2669L21.6409 31.2665C22.0987 30.7538 22.3082 30.8407 22.688 30.9984C22.9958 31.1256 23.2957 31.5115 23.4172 31.9361C23.4747 32.1366 23.5393 32.5172 23.3279 32.8134C21.5437 35.3117 18.9436 35.2796 17.0763 34.8123ZM30.331 47.1466C27.2326 47.8104 26.1356 46.2295 25.4126 44.4223C24.9461 43.2555 24.7167 37.9942 24.8794 32.1839C24.8815 32.1066 24.8705 32.032 24.8492 31.9617C24.8302 31.823 24.8013 31.6858 24.7626 31.5511C24.5207 30.7057 23.9311 29.9985 23.2237 29.7053C22.9426 29.5889 22.4269 29.3753 21.807 29.5339C21.9392 28.9892 22.1684 28.3741 22.417 27.7082L22.5213 27.4281C22.6386 27.1123 22.786 26.7851 22.9417 26.4387C23.7835 24.5686 24.9364 22.007 23.6851 16.2203C23.2165 14.0528 21.6513 12.9943 19.2787 13.2402C17.8564 13.3874 16.555 13.9612 15.9059 14.2903C15.7664 14.361 15.6388 14.4293 15.5195 14.4958C15.7007 12.312 16.3851 8.23066 18.9453 5.64842C20.5573 4.02289 22.7041 3.22 25.3198 3.2633C30.4736 3.34761 33.7786 5.99252 35.6438 8.19667C37.2511 10.0958 38.1214 12.0091 38.4687 13.041C35.8567 12.7753 34.0802 13.2909 33.1797 14.5784C31.2205 17.379 34.2515 22.8147 35.7082 25.4271C35.9754 25.9058 36.2059 26.3196 36.2785 26.4955C36.7528 27.6451 37.3669 28.4127 37.8153 28.9729C37.9528 29.1446 38.0861 29.3111 38.1875 29.4566C37.3964 29.6846 35.9754 30.2116 36.1049 32.8457C36.0004 34.1674 35.2577 40.3554 34.8804 42.5417C34.3823 45.4301 33.3195 46.5058 30.331 47.1468V47.1466ZM43.2639 32.3466C42.4549 32.7221 41.1011 33.0037 39.8151 33.0643C38.3947 33.1307 37.6715 32.9051 37.5014 32.7663C37.4216 31.1248 38.0325 30.9533 38.6791 30.7718C38.7807 30.7433 38.8799 30.7154 38.9756 30.682C39.035 30.7304 39.1002 30.7784 39.1716 30.8255C40.3132 31.5791 42.3495 31.6603 45.2244 31.0669L45.2559 31.0606C44.8681 31.4232 44.2046 31.9097 43.2639 32.3466Z" fill="white"/>
</svg>
