<svg width="32" height="32" viewBox="0 0 32 32" fill="none" xmlns="http://www.w3.org/2000/svg">
<path d="M2.27442 15.9993C2.27442 21.4323 5.43167 26.1271 10.0099 28.3522L3.46273 10.4134C2.67787 12.171 2.27293 14.0744 2.27442 15.9993ZM25.2655 15.3066C25.2655 13.6104 24.6562 12.4356 24.1336 11.5213C23.4378 10.3907 22.7859 9.43326 22.7859 8.30267C22.7859 7.04097 23.7426 5.8665 25.0905 5.8665C25.1513 5.8665 25.2091 5.87408 25.2686 5.87747C22.8264 3.64032 19.5731 2.27441 15.9998 2.27441C11.2048 2.27441 6.98613 4.73461 4.53194 8.46094C4.85396 8.4706 5.1577 8.47713 5.41521 8.47713C6.85085 8.47713 9.07312 8.30293 9.07312 8.30293C9.813 8.25932 9.90023 9.34603 9.16139 9.43352C9.16139 9.43352 8.41759 9.52101 7.59021 9.56437L12.5884 24.4313L15.5924 15.4229L13.4537 9.56411C12.7146 9.52075 12.0144 9.43326 12.0144 9.43326C11.2748 9.38991 11.3615 8.25906 12.1011 8.30267C12.1011 8.30267 14.3678 8.47687 15.7164 8.47687C17.1518 8.47687 19.3743 8.30267 19.3743 8.30267C20.1147 8.25906 20.2017 9.34577 19.4623 9.43326C19.4623 9.43326 18.7172 9.52075 17.8914 9.56411L22.8515 24.3185L24.2203 19.7436C24.8139 17.8452 25.2655 16.4816 25.2655 15.3066Z" fill="#00749A"/>
<path d="M16.2401 17.1997L12.1221 29.1659C13.3811 29.5369 14.6868 29.7253 15.9994 29.7253C17.5977 29.7253 19.1305 29.4487 20.5572 28.9473C20.519 28.8874 20.4863 28.8241 20.4596 28.7582L16.2401 17.1997ZM28.0428 9.41406C28.1018 9.85126 28.1353 10.3208 28.1353 10.8254C28.1353 12.2182 27.8751 13.7839 27.0916 15.7416L22.8991 27.8632C26.9796 25.4837 29.7242 21.0629 29.7242 15.9991C29.7279 13.6975 29.1495 11.4322 28.0428 9.41406Z" fill="#00749A"/>
<path d="M15.9996 0C7.17765 0 0 7.17713 0 15.9991C0 24.8221 7.17739 31.9992 15.9996 31.9992C24.8213 31.9992 32 24.8224 32 15.9991C31.9997 7.17713 24.8213 0 15.9996 0ZM15.9996 31.2656C7.5822 31.2656 0.733618 24.417 0.733618 15.9991C0.733618 7.58194 7.58194 0.733879 15.9996 0.733879C24.4168 0.733879 31.2648 7.58194 31.2648 15.9991C31.2648 24.417 24.4165 31.2656 15.9996 31.2656Z" fill="#00749A"/>
</svg>
