<svg width="573" height="367" viewBox="0 0 573 367" fill="none" xmlns="http://www.w3.org/2000/svg">
<path d="M53.0768 211.425C53.5669 196.787 59.8416 182.942 70.5251 172.923C81.2086 162.905 95.4289 157.532 110.068 157.983H110.273C124.934 158.479 138.797 164.779 148.813 175.496C158.829 186.214 164.177 200.471 163.681 215.132C163.185 229.792 156.885 243.656 146.168 253.671C135.45 263.687 121.193 269.035 106.532 268.539H106.327C91.7021 267.996 77.8882 261.682 67.9084 250.978C57.9285 240.274 52.5956 226.052 53.0768 211.425Z" fill="#3C5C9C"/>
<path d="M118.219 263.671C117.87 263.247 117.567 262.788 117.315 262.3C117.693 259.836 118.5 257.457 119.699 255.271L120.795 253.037C123.536 248.378 123.536 245.473 121.919 243.445C121.49 242.918 120.987 242.457 120.425 242.075L118.151 241.252C117.383 240.978 116.588 240.704 115.794 240.403C114.894 240.279 114.005 240.087 113.135 239.827C100.556 236.84 110.573 226.837 112.738 218.889C112.999 218.316 113.292 217.758 113.615 217.217C114.56 215.751 115.958 214.86 120.055 214.477C120.603 214.477 121.206 214.395 121.837 214.381C123.647 214.405 125.43 213.931 126.989 213.011C127.378 212.043 127.929 211.148 128.62 210.366C129.138 209.783 129.743 209.283 130.415 208.886C131.051 208.506 131.732 208.207 132.443 207.995C135.594 204.364 140.596 209.366 143.857 204.857C143.899 204.549 143.879 204.235 143.799 203.934C143.719 203.633 143.581 203.351 143.392 203.103C142.613 202.21 141.547 201.618 140.377 201.431C138.39 200.938 136.8 200.623 135.512 200.376C132.169 199.719 130.483 196.896 127.112 194.361C125.329 193.042 123.71 191.514 122.289 189.811C121.631 188.441 121.412 187.071 117.89 185.358C113.122 183.056 108.887 188.537 106.64 185.358C105.969 184.426 106.941 182.932 107.353 182.096C108.147 180.425 108.367 178.63 109.477 177.095C109.776 176.682 110.191 176.367 110.669 176.19C111.497 176.046 112.3 175.783 113.053 175.409C114.493 174.404 116.234 173.921 117.986 174.039L118.37 174.108C121.11 174.656 121.302 179.219 124.728 179.219C128.839 179.219 128.318 175.272 126.866 174.752C125.386 173.875 123.974 174.478 122.426 174.478C120.877 174.478 116.945 172.861 116.424 172.943C115.506 173.052 114.273 173.587 113.368 173.765L110.628 174.039C109.504 174.039 106.613 169.997 109.778 168.037C111.557 167.373 113.391 166.869 115.259 166.53C116.506 166.461 117.781 163.351 119.178 163.584C120.192 163.762 121.919 166.242 127.208 166.516C128.4 166.585 136.8 164.515 136.691 167.886C136.691 168.599 137.581 169.257 138.226 169.133C139.361 169.03 140.503 169.03 141.638 169.133C132.586 162.275 121.635 158.383 110.285 157.993H110.162C97.0255 157.574 84.1734 161.871 73.9309 170.106C74.9169 170.92 76.0596 171.521 77.2881 171.874C77.5028 171.929 77.6926 172.056 77.8269 172.232C77.9611 172.409 78.0321 172.625 78.0281 172.847C77.8774 174.889 74.1775 175.204 75.3971 179.424C75.9041 181.192 78.6585 181.617 80.4399 182.165C81.2758 182.398 82.2486 182.741 82.509 183.686C82.6942 184.33 83.01 184.928 83.4367 185.445C83.8635 185.961 84.3919 186.384 84.9892 186.687C85.311 186.793 85.6157 186.945 85.8937 187.139L86.7569 187.948C87.0151 188.314 87.1966 188.728 87.2908 189.166C87.385 189.604 87.3898 190.057 87.305 190.496C86.9076 192.894 84.4412 193.018 82.5775 192.36C82.5775 192.36 81.769 192.018 81.6183 191.935C81.4914 191.855 81.3721 191.763 81.262 191.661C80.9769 191.501 80.7293 191.281 80.5357 191.017L80.1521 190.743L77.5759 187.139C77.5759 187.139 74.8353 185.481 73.7664 187.29C73.4632 187.803 73.0459 188.239 72.5469 188.564C72.0673 188.866 67.929 190.14 68.8745 189.017C69.3952 188.386 70.0255 187.427 68.5867 186.523C67.1479 185.618 65.9146 187.386 65.2432 189.263C64.7499 190.633 63.1329 187.633 61.3789 188.77C61.0435 189.508 60.7596 190.268 60.5293 191.045C59.6797 192.415 58.9398 192.264 57.4599 191.853C57.0077 192.908 56.6102 193.991 56.2266 195.087C56.5494 195.114 56.8673 195.183 57.1721 195.292C60.6115 196.663 62.8315 193.278 66.0517 194.484C69.683 195.854 69.9845 192.141 73.0676 191.743C76.8086 191.223 76.6989 193.908 84.0301 194.69C87.5106 195.073 89.2646 197.43 92.3614 198.417C93.1018 198.611 93.7397 199.082 94.1447 199.731C94.5498 200.381 94.6913 201.161 94.5403 201.911C95.2665 208.119 95.198 218.547 86.4966 218.094C83.756 217.957 75.8219 215.902 74.342 218.725C72.2786 223.019 71.0641 227.672 70.7655 232.428C70.0338 235.438 69.0624 238.384 67.8604 241.239C67.1068 243.253 66.7505 248.721 66.3943 249.214C71.357 255.053 77.4816 259.793 84.3777 263.134C91.2739 266.475 98.7904 268.342 106.448 268.617H106.571C112.277 268.806 117.976 268.108 123.467 266.548C122.446 266.438 121.457 266.127 120.556 265.633C119.655 265.139 118.861 264.472 118.219 263.671Z" fill="url(#paint0_linear)"/>
<path d="M160.042 193.389L159.918 193.471C159.918 193.471 159.055 193.594 158.945 194.115V194.348C158.798 195.172 158.366 195.918 157.725 196.457C157.084 196.995 156.275 197.291 155.437 197.294C153.629 197.294 153.012 199.24 152.423 201.117C152.089 202.688 151.341 204.14 150.258 205.324C149.6 205.845 149.066 206.352 148.558 206.804C148.035 207.525 147.633 208.325 147.366 209.175C147.098 210.015 146.933 210.885 146.873 211.765C147.221 212.465 147.532 213.183 147.805 213.916C148.313 214.878 148.727 215.888 149.038 216.931C149.329 217.871 149.517 218.841 149.6 219.822C149.71 220.768 149.778 221.699 149.806 222.563C149.833 223.426 149.806 224.358 149.806 225.221C149.344 227.602 148.555 229.908 147.462 232.073C147.106 232.799 152.135 246.063 151.943 247.338C157.895 239.827 161.784 230.894 163.225 221.421C164.667 211.947 163.612 202.261 160.165 193.32L160.042 193.389Z" fill="url(#paint1_linear)"/>
<path d="M37.6737 223.412C40.2768 241.115 49.4093 257.204 63.2752 268.513C77.1411 279.823 94.7369 285.536 112.602 284.528C114.52 284.391 116.48 284.185 118.371 283.911C127.946 282.587 137.15 279.323 145.421 274.319C150.516 271.168 155.206 267.404 159.384 263.11C161.54 260.864 163.558 258.489 165.427 255.998C167.226 253.601 168.865 251.088 170.333 248.475C178.203 234.798 181.231 218.866 178.925 203.255C176.378 185.527 167.264 169.404 153.388 158.082C139.512 146.759 121.888 141.064 104.01 142.126C102.078 142.249 100.146 142.427 98.2 142.715C79.4817 145.409 62.598 155.422 51.2571 170.555C39.9162 185.688 35.0455 204.704 37.7148 223.426L37.6737 223.412ZM57.639 175.451C62.5961 168.768 68.8309 163.135 75.9818 158.88C83.1327 154.625 91.0574 151.831 99.2962 150.663C101.009 150.443 102.749 150.238 104.462 150.142C119.412 149.255 134.189 153.719 146.147 162.735C152.787 167.692 158.385 173.91 162.62 181.032C166.855 188.155 169.645 196.042 170.828 204.244C172.012 212.445 171.567 220.8 169.518 228.829C167.47 236.858 163.859 244.405 158.891 251.037L157.932 252.271C147.855 265.047 133.266 273.476 117.165 275.826C115.48 276.032 113.767 276.251 112.067 276.319C100.042 277.049 88.0591 274.324 77.5313 268.467C67.0036 262.61 58.3702 253.865 52.6492 243.263C46.9282 232.661 44.3581 220.643 45.2422 208.629C46.1263 196.614 50.4277 185.102 57.639 175.451Z" fill="url(#paint2_linear)"/>
<path d="M75.3993 167.931C75.5899 167.625 75.691 167.271 75.691 166.911C75.691 166.55 75.5899 166.196 75.3993 165.89C74.0878 164.531 72.8657 163.09 71.7406 161.573C70.7677 160.038 70.8773 159.312 70.0414 158.12C69.2055 156.928 68.3559 157.723 68.0408 158.846C67.9174 159.285 66.876 161.834 68.5478 163.149C69.7673 164.108 69.1096 166.547 69.5481 166.863C70.3958 167.22 71.2237 167.623 72.0284 168.068C72.514 168.452 73.1208 168.649 73.7392 168.624C74.3575 168.599 74.9465 168.353 75.3993 167.931Z" fill="#3C5C9C"/>
<path d="M106.465 177.343C106.105 177.323 105.746 177.403 105.429 177.575C105.112 177.747 104.849 178.003 104.67 178.316C104.057 180.099 103.325 181.839 102.477 183.523C101.545 185.099 100.847 185.318 100.161 186.606C99.4763 187.894 100.572 188.292 101.71 188.059C102.148 187.976 104.903 187.757 105.327 185.661C105.629 184.14 108.068 183.646 108.191 183.098C108.144 182.185 108.144 181.27 108.191 180.358C108.325 179.731 108.223 179.076 107.904 178.52C107.586 177.964 107.073 177.545 106.465 177.343Z" fill="#3C5C9C"/>
<g opacity="0.5">
<path opacity="0.5" d="M115.462 271.164L114.539 272.087L115.462 273.01L116.385 272.087L115.462 271.164Z" fill="white"/>
<path opacity="0.5" d="M115.462 276.588L114.539 277.511L115.462 278.434L116.385 277.511L115.462 276.588Z" fill="white"/>
<path opacity="0.5" d="M115.457 282.004L114.534 282.927L115.457 283.85L116.381 282.927L115.457 282.004Z" fill="white"/>
<path opacity="0.5" d="M115.457 287.429L114.534 288.353L115.457 289.276L116.381 288.353L115.457 287.429Z" fill="white"/>
<path opacity="0.5" d="M115.454 292.847L114.531 293.771L115.454 294.694L116.378 293.771L115.454 292.847Z" fill="white"/>
<path opacity="0.5" d="M115.457 265.731L114.534 266.654L115.457 267.578L116.381 266.654L115.457 265.731Z" fill="white"/>
<path opacity="0.5" d="M107.75 271.162L106.827 272.085L107.75 273.008L108.674 272.085L107.75 271.162Z" fill="white"/>
<path opacity="0.5" d="M107.75 276.586L106.827 277.509L107.75 278.432L108.674 277.509L107.75 276.586Z" fill="white"/>
<path opacity="0.5" d="M107.748 282.003L106.825 282.926L107.748 283.849L108.672 282.926L107.748 282.003Z" fill="white"/>
<path opacity="0.5" d="M107.748 287.426L106.825 288.35L107.748 289.273L108.672 288.35L107.748 287.426Z" fill="white"/>
<path opacity="0.5" d="M107.745 292.845L106.821 293.769L107.745 294.692L108.668 293.769L107.745 292.845Z" fill="white"/>
<path opacity="0.5" d="M107.747 265.729L106.824 266.652L107.747 267.576L108.671 266.652L107.747 265.729Z" fill="white"/>
<path opacity="0.5" d="M100.042 271.162L99.1191 272.085L100.042 273.008L100.966 272.085L100.042 271.162Z" fill="white"/>
<path opacity="0.5" d="M100.042 276.586L99.1191 277.509L100.042 278.432L100.966 277.509L100.042 276.586Z" fill="white"/>
<path opacity="0.5" d="M100.037 282.004L99.1143 282.927L100.037 283.85L100.961 282.927L100.037 282.004Z" fill="white"/>
<path opacity="0.5" d="M100.037 287.428L99.1143 288.352L100.037 289.275L100.961 288.352L100.037 287.428Z" fill="white"/>
<path opacity="0.5" d="M100.036 292.845L99.1133 293.769L100.037 294.692L100.96 293.769L100.036 292.845Z" fill="white"/>
<path opacity="0.5" d="M100.037 265.731L99.1143 266.654L100.037 267.578L100.961 266.654L100.037 265.731Z" fill="white"/>
<path opacity="0.5" d="M92.3324 271.16L91.4092 272.083L92.3324 273.006L93.2556 272.083L92.3324 271.16Z" fill="white"/>
<path opacity="0.5" d="M92.3334 276.586L91.4102 277.509L92.3334 278.432L93.2566 277.509L92.3334 276.586Z" fill="white"/>
<path opacity="0.5" d="M92.3305 282.004L91.4072 282.927L92.3304 283.85L93.2537 282.927L92.3305 282.004Z" fill="white"/>
<path opacity="0.5" d="M92.3305 287.428L91.4072 288.352L92.3304 289.275L93.2537 288.352L92.3305 287.428Z" fill="white"/>
<path opacity="0.5" d="M92.3285 292.847L91.4053 293.771L92.3285 294.694L93.2517 293.771L92.3285 292.847Z" fill="white"/>
<path opacity="0.5" d="M92.3295 265.729L91.4062 266.652L92.3295 267.576L93.2527 266.652L92.3295 265.729Z" fill="white"/>
<path opacity="0.5" d="M84.6263 271.164L83.7031 272.087L84.6263 273.01L85.5496 272.087L84.6263 271.164Z" fill="white"/>
<path opacity="0.5" d="M84.6263 276.588L83.7031 277.511L84.6263 278.434L85.5496 277.511L84.6263 276.588Z" fill="white"/>
<path opacity="0.5" d="M84.6224 282.005L83.6992 282.929L84.6224 283.852L85.5456 282.929L84.6224 282.005Z" fill="white"/>
<path opacity="0.5" d="M84.6224 287.428L83.6992 288.352L84.6224 289.275L85.5456 288.352L84.6224 287.428Z" fill="white"/>
<path opacity="0.5" d="M84.6215 292.847L83.6982 293.771L84.6215 294.694L85.5447 293.771L84.6215 292.847Z" fill="white"/>
<path opacity="0.5" d="M84.6224 265.733L83.6992 266.656L84.6224 267.579L85.5456 266.656L84.6224 265.733Z" fill="white"/>
<path opacity="0.5" d="M76.9154 271.162L75.9922 272.085L76.9154 273.008L77.8386 272.085L76.9154 271.162Z" fill="white"/>
<path opacity="0.5" d="M76.9154 276.586L75.9922 277.509L76.9154 278.432L77.8386 277.509L76.9154 276.586Z" fill="white"/>
<path opacity="0.5" d="M76.9125 282.004L75.9893 282.927L76.9125 283.85L77.8357 282.927L76.9125 282.004Z" fill="white"/>
<path opacity="0.5" d="M76.9125 287.428L75.9893 288.352L76.9125 289.275L77.8357 288.352L76.9125 287.428Z" fill="white"/>
<path opacity="0.5" d="M76.9115 292.845L75.9883 293.769L76.9115 294.692L77.8347 293.769L76.9115 292.845Z" fill="white"/>
<path opacity="0.5" d="M76.9115 265.731L75.9883 266.654L76.9115 267.578L77.8347 266.654L76.9115 265.731Z" fill="white"/>
<path opacity="0.5" d="M69.2055 271.162L68.2822 272.085L69.2054 273.008L70.1287 272.085L69.2055 271.162Z" fill="white"/>
<path opacity="0.5" d="M69.2064 276.586L68.2832 277.509L69.2064 278.432L70.1296 277.509L69.2064 276.586Z" fill="white"/>
<path opacity="0.5" d="M69.2035 282.004L68.2803 282.927L69.2035 283.85L70.1267 282.927L69.2035 282.004Z" fill="white"/>
<path opacity="0.5" d="M69.2035 287.428L68.2803 288.352L69.2035 289.275L70.1267 288.352L69.2035 287.428Z" fill="white"/>
<path opacity="0.5" d="M69.2015 292.847L68.2783 293.771L69.2015 294.694L70.1248 293.771L69.2015 292.847Z" fill="white"/>
<path opacity="0.5" d="M69.2025 265.731L68.2793 266.654L69.2025 267.578L70.1257 266.654L69.2025 265.731Z" fill="white"/>
<path opacity="0.5" d="M61.4994 271.16L60.5762 272.083L61.4994 273.006L62.4226 272.083L61.4994 271.16Z" fill="white"/>
<path opacity="0.5" d="M61.4994 276.585L60.5762 277.508L61.4994 278.431L62.4226 277.508L61.4994 276.585Z" fill="white"/>
<path opacity="0.5" d="M61.4955 282.004L60.5723 282.927L61.4955 283.85L62.4187 282.927L61.4955 282.004Z" fill="white"/>
<path opacity="0.5" d="M61.4955 287.426L60.5723 288.35L61.4955 289.273L62.4187 288.35L61.4955 287.426Z" fill="white"/>
<path opacity="0.5" d="M61.4945 292.845L60.5713 293.769L61.4945 294.692L62.4177 293.769L61.4945 292.845Z" fill="white"/>
<path opacity="0.5" d="M61.4955 265.731L60.5723 266.654L61.4955 267.578L62.4187 266.654L61.4955 265.731Z" fill="white"/>
<path opacity="0.5" d="M53.7914 271.164L52.8682 272.087L53.7914 273.01L54.7146 272.087L53.7914 271.164Z" fill="white"/>
<path opacity="0.5" d="M53.7914 276.588L52.8682 277.511L53.7914 278.434L54.7146 277.511L53.7914 276.588Z" fill="white"/>
<path opacity="0.5" d="M53.7894 282.005L52.8662 282.929L53.7894 283.852L54.7126 282.929L53.7894 282.005Z" fill="white"/>
<path opacity="0.5" d="M53.7894 287.429L52.8662 288.353L53.7894 289.276L54.7126 288.353L53.7894 287.429Z" fill="white"/>
<path opacity="0.5" d="M53.7875 292.849L52.8643 293.772L53.7875 294.696L54.7107 293.772L53.7875 292.849Z" fill="white"/>
<path opacity="0.5" d="M53.7885 265.731L52.8652 266.654L53.7884 267.578L54.7117 266.654L53.7885 265.731Z" fill="white"/>
<path opacity="0.5" d="M123.169 271.162L122.246 272.085L123.169 273.008L124.093 272.085L123.169 271.162Z" fill="white"/>
<path opacity="0.5" d="M123.169 276.586L122.246 277.509L123.169 278.432L124.093 277.509L123.169 276.586Z" fill="white"/>
<path opacity="0.5" d="M123.164 282.004L122.241 282.927L123.164 283.85L124.088 282.927L123.164 282.004Z" fill="white"/>
<path opacity="0.5" d="M123.164 287.428L122.241 288.352L123.164 289.275L124.088 288.352L123.164 287.428Z" fill="white"/>
<path opacity="0.5" d="M123.162 292.845L122.238 293.769L123.162 294.692L124.085 293.769L123.162 292.845Z" fill="white"/>
<path opacity="0.5" d="M123.164 265.729L122.241 266.652L123.164 267.576L124.088 266.652L123.164 265.729Z" fill="white"/>
<path opacity="0.5" d="M46.0814 271.162L45.1582 272.085L46.0814 273.008L47.0046 272.085L46.0814 271.162Z" fill="white"/>
<path opacity="0.5" d="M46.0814 276.586L45.1582 277.509L46.0814 278.432L47.0046 277.509L46.0814 276.586Z" fill="white"/>
<path opacity="0.5" d="M46.0785 282.004L45.1553 282.927L46.0785 283.85L47.0017 282.927L46.0785 282.004Z" fill="white"/>
<path opacity="0.5" d="M46.0785 287.428L45.1553 288.352L46.0785 289.275L47.0017 288.352L46.0785 287.428Z" fill="white"/>
<path opacity="0.5" d="M46.0765 292.847L45.1533 293.771L46.0765 294.694L46.9998 293.771L46.0765 292.847Z" fill="white"/>
<path opacity="0.5" d="M46.0775 265.733L45.1543 266.656L46.0775 267.579L47.0007 266.656L46.0775 265.733Z" fill="white"/>
</g>
<path d="M198.5 347C294.874 347 373 340.732 373 333C373 325.268 294.874 319 198.5 319C102.126 319 24 325.268 24 333C24 340.732 102.126 347 198.5 347Z" fill="url(#paint3_linear)" fill-opacity="0.18"/>
<path d="M51.4176 310.573C52.2298 312.071 53.9813 311.022 53.9813 311.022C53.9813 311.022 53.8813 310.528 53.0945 310.115C52.5078 309.808 51.6651 310.062 51.3667 310.171L50.4019 310.145H50.3883C50.173 310.155 49.9593 310.172 49.7474 310.193C52.5028 309.219 51.2039 305.964 51.2039 305.964C51.2039 305.964 50.3392 305.999 49.4218 307.222C48.6859 308.202 48.9759 309.865 49.0607 310.274C47.9775 310.433 46.9133 310.701 45.8847 311.076C46.0274 310.94 46.1616 310.796 46.2866 310.644C47.3379 309.387 46.8733 307 46.8733 307C43.1124 307.483 43.8602 311.022 44.084 311.834C42.8992 312.413 41.7648 313.089 40.6928 313.857C41.0379 313.362 41.2891 312.807 41.4337 312.221C41.9085 310.449 40.3163 308.244 40.3163 308.244C36.6284 310.564 39.2803 313.918 39.8077 314.518C39.1447 315.027 38.5376 315.536 37.9917 316.044C37.3914 316.587 36.8386 317.13 36.3367 317.65C36.5199 317.157 36.6759 316.377 36.5266 315.258C36.2621 313.27 33.7272 311.714 33.7272 311.714C31.0413 315.519 34.8853 317.774 35.7857 318.233C34.8074 319.279 33.901 320.39 33.0727 321.558L33.4118 321.784C33.9723 320.984 34.5746 320.214 35.2159 319.478C36.6402 323.987 41.5423 321.694 41.5423 321.694C41.5423 321.694 41.4202 320.465 39.6042 319.258C38.4325 318.481 36.6877 318.683 35.7484 318.873C36.5439 317.981 37.3855 317.132 38.2697 316.329C38.5885 316.039 38.9293 315.742 39.2871 315.446C40.5486 319.7 45.1014 317.572 45.1014 317.572C45.1014 317.572 44.9895 316.446 43.3295 315.344C42.2833 314.649 40.7385 314.808 39.867 314.978C40.9848 314.093 42.1761 313.306 43.4278 312.624C44.2078 316.646 48.4892 315.025 48.4892 315.025C48.4892 315.025 48.4655 314.008 47.0598 312.919C46.1408 312.204 44.686 312.273 43.9077 312.373C45.3594 311.624 46.9099 311.085 48.513 310.771C48.4451 314.422 52.3976 313.716 52.3976 313.716C52.3976 313.716 52.5367 312.868 51.5261 311.717C50.7376 310.825 49.1268 310.751 48.6435 310.747C49.2249 310.644 49.8121 310.576 50.4019 310.545L51.4176 310.573Z" fill="#4164A9"/>
<path d="M19.4963 332.266C19.4963 332.266 11.2929 313.749 17.2276 296.546C23.1622 279.342 37.5021 274.314 37.5021 274.314C37.5021 274.314 28.9952 284.164 33.9413 299.527C38.611 314.056 29.7022 332.266 29.7022 332.266H19.4963Z" fill="url(#paint4_linear)"/>
<path d="M22.3973 332.266C22.3973 332.266 20.2964 294.6 29.1798 284.692C21.0967 297.181 24.4625 332.266 24.4625 332.266H22.3973Z" fill="white"/>
<path d="M36.4841 332.266H27.7109C28.0602 330.721 29.3235 326.049 32.4722 322.528C36.2975 318.248 41.1199 318.663 41.1199 318.663C41.1199 318.663 38.4951 321.546 38.0915 326.718C37.9355 328.779 37.2386 330.712 36.4841 332.266Z" fill="#CAEDF3"/>
<path d="M16.1999 311.786C22.5873 320.113 24.0201 330.97 24.1694 332.266H11.7523C8.61036 329.366 4.7596 324.674 4.72908 319.031C4.67652 308.956 0 302.98 0 302.98C0 302.98 9.39713 302.918 16.1999 311.786Z" fill="#CAEDF3"/>
<path d="M30.5583 332.266H29.9004C31.1484 329.405 34.3344 322.704 37.3187 321.341C34.4006 323.298 31.7164 329.361 30.5583 332.266Z" fill="#00849D"/>
<path d="M20.2468 332.266H18.9582C17.4457 327.266 12.8251 313.343 6.99219 308.746C13.015 312.086 18.6428 327.539 20.2468 332.266Z" fill="#5BC4D6"/>
<path d="M5.31115 333.734H40.8615C41.267 333.734 41.5957 333.406 41.5957 333C41.5957 332.595 41.267 332.266 40.8615 332.266H5.31115C4.90565 332.266 4.57694 332.595 4.57694 333C4.57694 333.406 4.90565 333.734 5.31115 333.734Z" fill="#35425B"/>
<path d="M53.1953 261.938C53.1953 261.938 35.9829 287.6 38.4969 293.572C41.011 299.544 50.4935 308.62 50.4935 308.62L57.608 306.012C57.608 306.012 51.182 295.538 51.6932 293.384C52.2043 291.23 58.4999 279.15 58.4999 279.15L53.1953 261.938Z" fill="#5BC4D6"/>
<path d="M97.2219 261.809C97.2219 261.809 113.981 287.413 111.487 293.349C108.994 299.285 99.9185 308.23 99.9185 308.23L92.804 305.622C92.804 305.622 98.4633 293.944 98.8023 292.848C99.4595 290.71 91.9121 278.922 91.9121 278.922L97.2219 261.809Z" fill="#5BC4D6"/>
<path d="M97.4877 262.283C96.2254 259.743 79.8475 256.326 79.8475 256.326C79.8475 256.326 77.1456 259.456 76.8327 259.456C76.6084 259.456 75.7061 263.076 75.2053 265.193C74.6837 263.107 73.7761 259.487 73.5519 259.487C73.2389 259.487 70.5058 256.749 70.5058 256.749C70.5058 256.749 54.1592 259.821 52.9073 262.366C51.6555 264.912 54.7955 318.098 56.5585 319.147C58.3214 320.195 66.3174 322.177 68.8315 323.523C70.9178 324.644 74.256 323.888 75.294 323.606C76.3372 323.883 78.5539 322.928 80.6559 321.801C83.1648 320.445 92.0423 318.453 93.8209 317.404C95.5995 316.356 98.7499 264.823 97.4877 262.283Z" fill="#5BC4D6"/>
<path d="M45.8823 306.294C45.8823 306.294 36.9058 302.575 32.4201 304.473C27.9344 306.372 24.5962 314.034 29.2436 318.661C33.891 323.287 72.1079 337.323 75.4357 338.309C78.7634 339.295 87.041 339.217 87.041 339.217L88.8197 332.316C88.8197 332.316 59.8088 312.287 45.8823 306.294Z" fill="#263553"/>
<path d="M102.11 306.294C102.11 306.294 111.087 302.575 115.573 304.473C120.058 306.372 123.397 314.034 118.744 318.661C114.091 323.287 75.8797 337.323 72.5572 338.309C69.2347 339.295 60.9518 339.217 60.9518 339.217L59.168 332.316C59.168 332.316 88.184 312.287 102.11 306.294Z" fill="#263553"/>
<path d="M46.3569 328.186C46.3569 328.186 44.7296 326.882 43.3421 326.882C41.9547 326.882 41.0524 328.478 40.3274 330.783C39.6023 333.089 39.2424 340.172 40.15 340.892C41.0576 341.612 44.3697 341.132 44.3697 341.132L46.3569 328.186Z" fill="#23324E"/>
<path d="M60.7626 338.53C60.7626 338.53 51.4835 338.175 49.4336 339.004C47.3838 339.834 44.1864 342.196 43.4041 340.48C42.6217 338.764 43.3571 326.789 46.3563 328.186C47.9889 328.943 50.456 329.96 52.6884 330.961C54.9208 331.963 59.1665 332.317 59.1665 332.317L60.7626 338.53Z" fill="#2D3B55"/>
<path d="M101.468 328.186C101.468 328.186 103.095 326.882 104.483 326.882C105.87 326.882 106.772 328.478 107.497 330.783C108.222 333.089 108.582 340.172 107.68 340.892C106.778 341.612 103.46 341.132 103.46 341.132L101.468 328.186Z" fill="#23324E"/>
<path d="M87.0625 338.53C87.0625 338.53 96.3468 338.175 98.3967 339.004C100.447 339.834 103.639 342.196 104.426 340.48C105.214 338.764 104.473 326.789 101.469 328.186C99.8362 328.943 97.3691 329.96 95.1419 330.961C92.9147 331.963 88.6586 332.317 88.6586 332.317L87.0625 338.53Z" fill="#2D3B55"/>
<path d="M99.7826 317.343H47.6704C47.1737 317.347 46.6939 317.162 46.3279 316.827C45.9619 316.491 45.7371 316.028 45.6988 315.533L43.8524 287.79C43.8336 287.521 43.8709 287.25 43.9618 286.996C44.0527 286.742 44.1953 286.51 44.3806 286.314C44.5659 286.118 44.7898 285.962 45.0383 285.857C45.2867 285.752 45.5543 285.7 45.824 285.703H101.556C101.823 285.7 102.088 285.752 102.334 285.855C102.58 285.958 102.802 286.111 102.987 286.303C103.172 286.496 103.315 286.725 103.408 286.975C103.501 287.225 103.542 287.492 103.528 287.758L101.749 315.533C101.712 316.028 101.488 316.49 101.123 316.826C100.758 317.162 100.279 317.347 99.7826 317.343Z" fill="#F2F2F2"/>
<path d="M86.7911 248.879C86.79 248.72 86.7499 248.565 86.6744 248.426C86.5989 248.286 86.4903 248.168 86.3582 248.081C86.2525 248.038 86.1382 248.02 86.0244 248.028C85.4609 248.129 84.9449 248.409 84.5535 248.826C84.5535 248.237 84.5535 247.872 84.5535 247.872C84.7673 243.131 75.264 243.407 75.1649 243.423C75.0658 243.438 65.5833 243.131 65.7762 247.872C65.7762 247.872 65.7762 248.237 65.7762 248.826C65.3832 248.411 64.868 248.131 64.3054 248.028C64.1915 248.019 64.077 248.037 63.9715 248.081C63.8394 248.168 63.7306 248.287 63.6543 248.426C63.5779 248.565 63.5365 248.72 63.5334 248.879C63.3474 249.915 63.358 250.976 63.5647 252.008C63.7766 253.049 64.3092 253.998 65.0877 254.72C65.3624 254.982 65.6921 255.178 66.0527 255.294C66.104 256.312 66.2595 257.323 66.5169 258.309C67.2158 260.328 71.4146 264.891 75.1284 265.043C78.8473 264.891 83.0409 260.348 83.7398 258.309C83.9972 257.323 84.1527 256.312 84.204 255.294C84.5654 255.176 84.8965 254.98 85.1742 254.72C85.9494 253.996 86.4799 253.048 86.692 252.008C86.9212 250.981 86.9548 249.919 86.7911 248.879Z" fill="#FEAC84"/>
<path d="M86.4461 248.304C86.5869 247.464 86.6234 246.395 86.7381 245.55C86.8938 244.689 86.9062 243.808 86.7747 242.942C86.6341 242.346 86.424 241.768 86.1487 241.221C85.6288 239.883 84.8468 238.663 83.8485 237.632C82.2838 236.224 80.1191 235.739 78.0224 235.515C74.3086 235.113 70.5062 235.332 66.8812 234.435C65.8745 234.185 64.9669 233.392 64.1689 232.756C63.6473 232.349 63.0631 231.853 62.4372 232.041C62.1718 232.162 61.9491 232.36 61.7983 232.609C61.6475 232.859 61.5756 233.148 61.5923 233.439C61.5244 234.805 62.2651 236.078 62.5363 237.419C62.6928 238.185 62.698 238.983 62.8702 239.74C62.9341 240.129 63.0779 240.501 63.2924 240.832C63.5069 241.163 63.7876 241.447 64.1168 241.664L62.5833 240.877C62.7493 241.941 63.1998 242.942 63.8873 243.772C64.075 244.001 64.2472 244.403 63.9759 244.517C63.903 244.531 63.8326 244.555 63.7673 244.59C63.6786 244.669 63.7204 244.81 63.7673 244.919C64.3218 246.132 64.9417 247.315 65.6242 248.461C65.8485 248.826 65.6815 249.102 66.1145 249.092C66.6335 249.072 67.1271 248.862 67.5019 248.502C68.3208 247.271 69.3692 245.983 70.8505 245.759C71.5319 245.705 72.2175 245.74 72.8899 245.863C74.0008 245.994 75.1245 245.967 76.2281 245.785C77.0569 245.581 77.9103 245.495 78.763 245.529C79.6538 245.7 80.4928 246.075 81.2145 246.625C82.1212 247.236 82.992 247.9 83.8224 248.612C83.9502 248.743 84.1103 248.839 84.2867 248.888C84.4824 248.904 84.6792 248.873 84.8606 248.798C85.042 248.723 85.2029 248.605 85.3298 248.455C85.6584 248.148 86.3209 247.918 86.4461 248.304Z" fill="#394B5C"/>
<path d="M426.893 142.91C426.893 142.639 395.891 118 395.891 118C395.891 118 364.889 142.639 364.889 142.91V142.824H426.893V142.91Z" fill="#4164A9"/>
<path d="M426.893 142.821H364.889V151.846H426.893V142.821Z" fill="#354F94"/>
<path d="M426.894 166.068V211.618H442.921C444.474 211.616 445.996 211.187 447.321 210.378C448.646 209.569 449.722 208.411 450.432 207.03C451.142 205.65 451.459 204.1 451.347 202.552C451.234 201.003 450.698 199.516 449.796 198.252L426.894 166.068Z" fill="#4164A9"/>
<path d="M349.162 211.601H364.82V166.052L342.173 198.264C341.274 199.535 340.743 201.031 340.64 202.585C340.536 204.139 340.864 205.691 341.587 207.071C342.31 208.451 343.4 209.604 344.737 210.403C346.073 211.202 347.605 211.617 349.162 211.601Z" fill="#4164A9"/>
<path d="M364.89 151.917V231.885C364.838 234.094 365.232 236.291 366.049 238.344C366.865 240.398 368.087 242.266 369.642 243.836C371.196 245.407 373.052 246.648 375.097 247.485C377.142 248.322 379.335 248.739 381.544 248.709V255.101H409.671V248.709H410.112C412.334 248.742 414.539 248.328 416.597 247.491C418.655 246.654 420.524 245.412 422.093 243.839C423.661 242.265 424.897 240.392 425.727 238.331C426.556 236.27 426.963 234.063 426.923 231.842V151.917H364.89Z" fill="#2E4488"/>
<path d="M364.903 231.957C364.859 234.16 365.258 236.349 366.077 238.394C366.896 240.439 368.119 242.298 369.671 243.861C371.223 245.424 373.075 246.659 375.114 247.492C377.153 248.325 379.34 248.74 381.542 248.711V255.102H409.669V248.711H410.11C412.32 248.743 414.513 248.333 416.562 247.505C418.61 246.677 420.473 245.448 422.039 243.889C423.605 242.331 424.844 240.475 425.683 238.431C426.521 236.386 426.942 234.195 426.921 231.986L364.903 231.957Z" fill="#354F94"/>
<path d="M369.759 229.092C369.196 229.092 368.645 228.925 368.177 228.612C367.709 228.3 367.344 227.855 367.129 227.335C366.913 226.815 366.857 226.242 366.967 225.69C367.077 225.138 367.348 224.63 367.746 224.232C368.144 223.834 368.651 223.563 369.204 223.453C369.756 223.343 370.328 223.4 370.848 223.615C371.369 223.831 371.813 224.196 372.126 224.664C372.439 225.132 372.606 225.682 372.606 226.245C372.606 227 372.306 227.724 371.772 228.258C371.238 228.792 370.514 229.092 369.759 229.092Z" fill="#385CA4"/>
<path d="M378.597 229.092C378.034 229.092 377.483 228.925 377.015 228.612C376.547 228.3 376.182 227.855 375.967 227.335C375.751 226.815 375.695 226.242 375.805 225.69C375.915 225.138 376.186 224.63 376.584 224.232C376.982 223.834 377.489 223.563 378.041 223.453C378.594 223.343 379.166 223.4 379.686 223.615C380.206 223.831 380.651 224.196 380.964 224.664C381.277 225.132 381.444 225.682 381.444 226.245C381.444 227 381.144 227.724 380.61 228.258C380.076 228.792 379.352 229.092 378.597 229.092Z" fill="#385CA4"/>
<path d="M387.439 229.092C386.876 229.092 386.325 228.925 385.857 228.612C385.389 228.3 385.024 227.855 384.809 227.335C384.593 226.815 384.537 226.242 384.646 225.69C384.756 225.138 385.027 224.63 385.426 224.232C385.824 223.834 386.331 223.563 386.883 223.453C387.435 223.343 388.008 223.4 388.528 223.615C389.048 223.831 389.493 224.196 389.806 224.664C390.119 225.132 390.285 225.682 390.285 226.245C390.285 227 389.986 227.724 389.452 228.258C388.918 228.792 388.194 229.092 387.439 229.092Z" fill="#385CA4"/>
<path d="M396.263 229.092C395.7 229.092 395.149 228.925 394.681 228.612C394.213 228.3 393.848 227.855 393.633 227.335C393.417 226.815 393.361 226.242 393.471 225.69C393.581 225.138 393.852 224.63 394.25 224.232C394.648 223.834 395.155 223.563 395.707 223.453C396.26 223.343 396.832 223.4 397.352 223.615C397.872 223.831 398.317 224.196 398.63 224.664C398.943 225.132 399.11 225.682 399.11 226.245C399.11 227 398.81 227.724 398.276 228.258C397.742 228.792 397.018 229.092 396.263 229.092Z" fill="#385CA4"/>
<path d="M405.044 229.092C404.481 229.092 403.931 228.925 403.462 228.612C402.994 228.3 402.629 227.855 402.414 227.335C402.198 226.815 402.142 226.242 402.252 225.69C402.362 225.138 402.633 224.63 403.031 224.232C403.429 223.834 403.936 223.563 404.489 223.453C405.041 223.343 405.613 223.4 406.134 223.615C406.654 223.831 407.098 224.196 407.411 224.664C407.724 225.132 407.891 225.682 407.891 226.245C407.891 227 407.591 227.724 407.057 228.258C406.523 228.792 405.799 229.092 405.044 229.092Z" fill="#385CA4"/>
<path d="M413.941 229.092C413.378 229.092 412.827 228.925 412.359 228.612C411.891 228.3 411.526 227.855 411.31 227.335C411.095 226.815 411.039 226.242 411.148 225.69C411.258 225.138 411.529 224.63 411.928 224.232C412.326 223.834 412.833 223.563 413.385 223.453C413.937 223.343 414.51 223.4 415.03 223.615C415.55 223.831 415.995 224.196 416.308 224.664C416.62 225.132 416.787 225.682 416.787 226.245C416.787 227 416.487 227.724 415.954 228.258C415.42 228.792 414.696 229.092 413.941 229.092Z" fill="#385CA4"/>
<path d="M422.782 229.092C422.219 229.092 421.669 228.925 421.201 228.612C420.733 228.3 420.368 227.855 420.152 227.335C419.937 226.815 419.88 226.242 419.99 225.69C420.1 225.138 420.371 224.63 420.769 224.232C421.168 223.834 421.675 223.563 422.227 223.453C422.779 223.343 423.352 223.4 423.872 223.615C424.392 223.831 424.837 224.196 425.149 224.664C425.462 225.132 425.629 225.682 425.629 226.245C425.629 227 425.329 227.724 424.795 228.258C424.262 228.792 423.537 229.092 422.782 229.092Z" fill="#385CA4"/>
<path d="M410.24 178.606C410.243 181.445 409.404 184.22 407.829 186.582C406.254 188.943 404.014 190.784 401.393 191.872C398.771 192.96 395.886 193.247 393.102 192.695C390.317 192.143 387.759 190.777 385.751 188.771C383.743 186.765 382.375 184.209 381.821 181.425C381.266 178.641 381.549 175.756 382.635 173.133C383.72 170.51 385.559 168.269 387.919 166.692C390.279 165.114 393.054 164.272 395.892 164.272C399.695 164.272 403.342 165.782 406.033 168.47C408.723 171.158 410.236 174.803 410.24 178.606Z" fill="#5779BC"/>
<path d="M525.736 319.724C517.313 319.728 509.047 322.005 501.81 326.314C494.572 330.623 488.632 336.804 484.613 344.207C469.724 336.862 451.192 345.858 448.359 359.793C447.448 355.694 440.132 356.164 440.132 356.164C443.903 353.415 446.708 349.543 448.144 345.102C449.58 340.662 449.574 335.881 448.127 331.444C446.679 327.007 443.865 323.143 440.087 320.403C436.308 317.664 431.76 316.19 427.093 316.194C424.27 316.128 421.461 316.611 418.823 317.618L409.626 255.115H381.558L372.918 318.315C370.31 317.325 367.537 316.841 364.747 316.892C360.119 316.9 355.609 318.358 351.851 321.06C348.092 323.762 345.274 327.573 343.792 331.958C342.31 336.343 342.238 341.082 343.587 345.51C344.935 349.938 347.636 353.833 351.31 356.648C351.31 356.648 345.076 355.964 343.667 360.064C343.667 346.171 322.728 333.432 307.896 344.278C303.877 336.883 297.939 330.706 290.708 326.398C283.477 322.09 275.219 319.809 266.802 319.795C240.953 319.795 220 341.46 220 366.768H572.524C572.524 341.389 551.571 319.724 525.736 319.724Z" fill="url(#paint5_linear)"/>
<path d="M337.188 217.582H198.107C195.49 217.579 192.981 216.537 191.13 214.687C189.279 212.836 188.238 210.327 188.234 207.71V103.268C188.238 100.651 189.279 98.1418 191.13 96.2911C192.981 94.4404 195.49 93.3991 198.107 93.3955H337.188C339.805 93.3991 342.314 94.4404 344.165 96.2911C346.015 98.1418 347.057 100.651 347.06 103.268V207.71C347.057 210.327 346.015 212.836 344.165 214.687C342.314 216.537 339.805 217.579 337.188 217.582ZM198.107 94.0079C195.653 94.0115 193.3 94.9885 191.565 96.7245C189.831 98.4606 188.855 100.814 188.854 103.268V207.71C188.855 210.164 189.831 212.517 191.565 214.253C193.3 215.989 195.653 216.966 198.107 216.97H337.188C339.642 216.966 341.995 215.989 343.729 214.253C345.464 212.517 346.439 210.164 346.441 207.71V103.268C346.439 100.814 345.464 98.4606 343.729 96.7245C341.995 94.9885 339.642 94.0115 337.188 94.0079H198.107Z" fill="#305192"/>
<path d="M343.97 84.7812H204.897C199.613 84.7812 195.33 89.0643 195.33 94.3477V198.789C195.33 204.073 199.613 208.356 204.897 208.356H343.97C349.254 208.356 353.537 204.073 353.537 198.789V94.3477C353.537 89.0643 349.254 84.7812 343.97 84.7812Z" fill="url(#paint6_linear)"/>
<path d="M353.545 94.3477V97.0693H195.338V94.3477C195.338 91.8105 196.346 89.3772 198.14 87.5832C199.934 85.7891 202.367 84.7813 204.904 84.7812H343.978C346.515 84.7831 348.947 85.7915 350.741 87.5852C352.534 89.3788 353.543 91.8111 353.545 94.3477Z" fill="#4164A9"/>
<path d="M257.955 113.516H213.307C211.266 113.516 209.612 115.17 209.612 117.21V128.913C209.612 130.954 211.266 132.608 213.307 132.608H257.955C259.995 132.608 261.649 130.954 261.649 128.913V117.21C261.649 115.17 259.995 113.516 257.955 113.516Z" fill="#1B3F86"/>
<path d="M257.955 158.273H213.307C212.246 158.271 211.228 157.848 210.478 157.096C209.728 156.345 209.307 155.327 209.307 154.265V142.549C209.307 141.487 209.728 140.469 210.478 139.717C211.228 138.966 212.246 138.543 213.307 138.541H257.955C259.017 138.543 260.035 138.966 260.785 139.717C261.535 140.469 261.956 141.487 261.956 142.549V154.245C261.959 154.772 261.857 155.295 261.658 155.783C261.458 156.271 261.164 156.715 260.792 157.089C260.42 157.463 259.978 157.761 259.492 157.964C259.005 158.167 258.483 158.272 257.955 158.273ZM213.307 139.181C212.405 139.181 211.54 139.539 210.902 140.177C210.264 140.815 209.905 141.68 209.905 142.583V154.279C209.905 155.181 210.264 156.046 210.902 156.684C211.54 157.322 212.405 157.681 213.307 157.681H257.955C258.858 157.681 259.723 157.322 260.361 156.684C260.999 156.046 261.357 155.181 261.357 154.279V142.549C261.357 141.646 260.999 140.781 260.361 140.143C259.723 139.505 258.858 139.147 257.955 139.147L213.307 139.181Z" fill="#1E4799"/>
<path d="M314.781 164.219H274.311C273.781 164.219 273.352 164.648 273.352 165.178V166.342C273.352 166.871 273.781 167.301 274.311 167.301H314.781C315.311 167.301 315.741 166.871 315.741 166.342V165.178C315.741 164.648 315.311 164.219 314.781 164.219Z" fill="#375AA0"/>
<path d="M274.311 175.405H314.774C314.9 175.405 315.025 175.43 315.142 175.478C315.258 175.527 315.364 175.597 315.453 175.686C315.542 175.775 315.613 175.881 315.661 175.998C315.709 176.114 315.734 176.239 315.734 176.365V177.521C315.734 177.778 315.632 178.023 315.451 178.205C315.27 178.386 315.024 178.487 314.768 178.487H274.311C274.057 178.487 273.812 178.386 273.633 178.207C273.453 178.027 273.352 177.783 273.352 177.528V176.371C273.351 176.245 273.375 176.119 273.423 176.002C273.47 175.885 273.541 175.778 273.63 175.689C273.719 175.599 273.825 175.528 273.942 175.479C274.059 175.43 274.184 175.405 274.311 175.405Z" fill="#375AA0"/>
<path d="M334.139 158.273H278.612C277.135 158.271 275.719 157.683 274.676 156.638C273.632 155.594 273.046 154.177 273.046 152.7V118.782C273.048 117.306 273.634 115.891 274.678 114.846C275.721 113.802 277.135 113.214 278.612 113.21H334.139C335.615 113.214 337.03 113.802 338.073 114.846C339.116 115.891 339.703 117.306 339.705 118.782V152.7C339.705 154.177 339.119 155.594 338.075 156.638C337.031 157.683 335.616 158.271 334.139 158.273ZM278.612 113.829C277.298 113.831 276.04 114.353 275.111 115.282C274.182 116.21 273.66 117.469 273.658 118.782V152.7C273.658 154.014 274.18 155.274 275.109 156.203C276.038 157.132 277.298 157.654 278.612 157.654H334.139C335.452 157.652 336.711 157.129 337.64 156.201C338.568 155.272 339.091 154.014 339.092 152.7V118.782C339.091 117.469 338.568 116.21 337.64 115.282C336.711 114.353 335.452 113.831 334.139 113.829H278.612Z" fill="#5175BD"/>
<path d="M331.759 168.276L328.241 165.207C328.103 165.086 328.019 164.915 328.006 164.732C327.994 164.549 328.055 164.369 328.176 164.231C328.297 164.093 328.468 164.008 328.651 163.996C328.834 163.984 329.015 164.045 329.153 164.166L331.643 166.337L335.188 162.377C335.311 162.24 335.483 162.157 335.666 162.147C335.85 162.136 336.03 162.2 336.168 162.322C336.305 162.445 336.388 162.617 336.398 162.801C336.408 162.985 336.345 163.165 336.222 163.302L331.759 168.276Z" fill="#375AA0"/>
<path d="M331.759 180.154L328.241 177.085C328.103 176.964 328.019 176.793 328.006 176.61C327.994 176.427 328.055 176.247 328.176 176.109C328.297 175.971 328.468 175.886 328.651 175.874C328.834 175.862 329.015 175.923 329.153 176.044L331.643 178.215L335.188 174.255C335.311 174.117 335.483 174.035 335.666 174.025C335.85 174.014 336.03 174.077 336.168 174.2C336.305 174.323 336.388 174.495 336.398 174.679C336.408 174.863 336.345 175.043 336.222 175.18L331.759 180.154Z" fill="#375AA0"/>
<path d="M314.781 187.291H274.311C273.781 187.291 273.352 187.721 273.352 188.25V189.407C273.352 189.937 273.781 190.366 274.311 190.366H314.781C315.311 190.366 315.741 189.937 315.741 189.407V188.25C315.741 187.721 315.311 187.291 314.781 187.291Z" fill="#375AA0"/>
<path d="M331.759 192.034L328.241 188.965C328.103 188.844 328.019 188.673 328.006 188.49C327.994 188.307 328.055 188.127 328.176 187.989C328.297 187.851 328.468 187.766 328.651 187.754C328.834 187.742 329.015 187.803 329.153 187.924L331.643 190.094L335.188 186.135C335.311 185.997 335.483 185.915 335.666 185.904C335.85 185.894 336.03 185.957 336.168 186.08C336.305 186.203 336.388 186.375 336.398 186.559C336.408 186.742 336.345 186.923 336.222 187.06L331.759 192.034Z" fill="#375AA0"/>
<g opacity="0.83">
<path d="M252.961 37.1328H169.544C165.196 37.1328 161.672 40.6573 161.672 45.005V93.47C161.672 97.8177 165.196 101.342 169.544 101.342H252.961C257.309 101.342 260.833 97.8177 260.833 93.47V45.005C260.833 40.6573 257.309 37.1328 252.961 37.1328Z" fill="#4266B0"/>
</g>
<path d="M180.226 74.4546C182.457 75.2133 184.837 75.4327 187.17 75.0948C189.503 74.757 191.723 73.8715 193.647 72.5108C195.572 71.1501 197.147 69.353 198.244 67.2665C199.341 65.1799 199.928 62.8634 199.957 60.5063C199.957 60.1752 199.957 59.8418 199.957 59.5061C199.882 58.0419 199.589 56.597 199.086 55.2196C198.223 52.8502 196.773 50.7381 194.872 49.0806C192.972 47.423 190.682 46.274 188.217 45.7408C185.752 45.2076 183.192 45.3075 180.777 46.0313C178.361 46.7551 176.168 48.0791 174.402 49.8798C172.636 51.6805 171.356 53.8992 170.679 56.3288C170.003 58.7583 169.954 61.3196 170.535 63.7736C171.117 66.2275 172.31 68.4942 174.005 70.3619C175.7 72.2297 177.84 73.6377 180.226 74.4546ZM173.823 60.1661C173.852 57.5448 174.8 55.0167 176.502 53.0233C178.205 51.0298 180.553 49.6976 183.138 49.2593C185.722 48.821 188.379 49.3044 190.643 50.625C192.908 51.9457 194.637 54.0198 195.528 56.4852C195.911 57.5164 196.141 58.5985 196.208 59.6967C196.208 59.9416 196.208 60.1934 196.208 60.4451C196.189 61.914 195.882 63.3649 195.302 64.7148C194.723 66.0648 193.883 67.2874 192.831 68.3128C190.706 70.3837 187.846 71.5259 184.88 71.488C181.913 71.4501 179.083 70.2353 177.012 68.1107C174.941 65.9862 173.799 63.126 173.837 60.1593L173.823 60.1661Z" fill="#78C2FF"/>
<path d="M193.881 67.166L196.834 69.4522C194.928 71.9069 192.304 73.7073 189.328 74.6034C186.352 75.4995 183.171 75.447 180.226 74.4531L181.423 70.915C183.628 71.6569 186.009 71.6945 188.236 71.0228C190.464 70.3511 192.427 69.0032 193.854 67.166H193.881Z" fill="#1A598C"/>
<path d="M199.066 55.2207L195.556 56.493C196.197 58.2684 196.38 60.1771 196.088 62.0421C195.795 63.9071 195.036 65.6681 193.882 67.1617L196.835 69.4478C198.374 67.4546 199.386 65.1051 199.776 62.617C200.166 60.1289 199.922 57.5826 199.066 55.2139V55.2207Z" fill="#2273B5"/>
<path d="M176.062 48.394C177.925 46.9907 180.091 46.0435 182.386 45.6282C184.681 45.2129 187.042 45.3412 189.278 46.0027C191.515 46.6642 193.565 47.8405 195.265 49.4373C196.965 51.0342 198.267 53.0071 199.067 55.198L195.556 56.4771C194.957 54.8263 193.977 53.3397 192.697 52.1378C191.416 50.9358 189.871 50.0523 188.185 49.5587C186.5 49.0651 184.722 48.9754 182.995 49.2967C181.268 49.618 179.642 50.3413 178.247 51.4082L176.062 48.394Z" fill="#4DA8F2"/>
<path d="M225.133 123.137C225.133 123.048 225.133 122.953 225.133 122.858V122.769C225.105 122.223 224.995 121.684 224.806 121.17C224.485 120.289 223.946 119.504 223.239 118.888C222.532 118.272 221.681 117.845 220.764 117.648C219.847 117.45 218.896 117.488 217.998 117.759C217.1 118.029 216.285 118.523 215.63 119.193C214.975 119.864 214.5 120.69 214.251 121.594C214.001 122.497 213.985 123.45 214.204 124.362C214.422 125.273 214.869 126.115 215.501 126.807C216.133 127.5 216.93 128.021 217.819 128.321C218.998 128.73 220.28 128.73 221.459 128.321C222.455 127.966 223.329 127.334 223.978 126.498C224.626 125.663 225.022 124.659 225.119 123.606C225.133 123.436 225.133 123.286 225.133 123.137ZM215.43 123.014C215.449 122.044 215.807 121.111 216.44 120.376C217.074 119.641 217.944 119.151 218.901 118.99C219.858 118.828 220.841 119.006 221.681 119.493C222.52 119.979 223.164 120.743 223.5 121.653C223.639 122.038 223.719 122.442 223.738 122.851C223.738 122.939 223.738 123.035 223.738 123.13C223.722 124.22 223.28 125.26 222.506 126.028C222.115 126.417 221.649 126.724 221.138 126.931C220.626 127.138 220.078 127.24 219.526 127.233C219.226 127.226 218.927 127.187 218.635 127.117C218.508 127.09 218.379 127.056 218.247 127.015C217.414 126.732 216.692 126.192 216.185 125.474C215.678 124.755 215.411 123.894 215.424 123.014H215.43Z" fill="#78C2FF"/>
<path d="M244.946 45.3877H216.539C212.713 45.3877 209.612 48.4888 209.612 52.3142V85.7355C209.612 89.5608 212.713 92.6619 216.539 92.6619H244.946C248.771 92.6619 251.872 89.5608 251.872 85.7355V52.3142C251.872 48.4888 248.771 45.3877 244.946 45.3877Z" fill="#284A8C"/>
<path d="M199.835 81.7676H172.157C171.289 81.7676 170.585 82.4713 170.585 83.3393V83.5434C170.585 84.4115 171.289 85.1152 172.157 85.1152H199.835C200.703 85.1152 201.407 84.4115 201.407 83.5434V83.3393C201.407 82.4713 200.703 81.7676 199.835 81.7676Z" fill="#B3DCFF"/>
<path d="M199.835 89.3135H172.157C171.289 89.3135 170.585 90.0172 170.585 90.8852V91.0893C170.585 91.9574 171.289 92.661 172.157 92.661H199.835C200.703 92.661 201.407 91.9574 201.407 91.0893V90.8852C201.407 90.0172 200.703 89.3135 199.835 89.3135Z" fill="#B3DCFF"/>
<g opacity="0.78">
<path d="M367.316 111.595H311.789C308.884 111.595 306.529 113.949 306.529 116.854V150.779C306.529 153.684 308.884 156.039 311.789 156.039H367.316C370.221 156.039 372.576 153.684 372.576 150.779V116.854C372.576 113.949 370.221 111.595 367.316 111.595Z" fill="#4164A9"/>
</g>
<path d="M333.385 116.912H315.17C314.073 116.912 313.184 117.802 313.184 118.899V133.752C313.184 134.849 314.073 135.739 315.17 135.739H333.385C334.482 135.739 335.371 134.849 335.371 133.752V118.899C335.371 117.802 334.482 116.912 333.385 116.912Z" fill="#1B3F86"/>
<path d="M366.486 116.912H340.256C339.614 116.912 339.093 117.433 339.093 118.076V120.77C339.093 121.413 339.614 121.933 340.256 121.933H366.486C367.128 121.933 367.649 121.413 367.649 120.77V118.076C367.649 117.433 367.128 116.912 366.486 116.912Z" fill="#1B3F86"/>
<path d="M366.486 124.763H340.256C339.614 124.763 339.093 125.284 339.093 125.926V128.621C339.093 129.263 339.614 129.784 340.256 129.784H366.486C367.128 129.784 367.649 129.263 367.649 128.621V125.926C367.649 125.284 367.128 124.763 366.486 124.763Z" fill="#1B3F86"/>
<path d="M366.588 147.365H356.471C355.888 147.365 355.416 147.837 355.416 148.42V148.903C355.416 149.485 355.888 149.958 356.471 149.958H366.588C367.171 149.958 367.643 149.485 367.643 148.903V148.42C367.643 147.837 367.171 147.365 366.588 147.365Z" fill="#A7E7F5"/>
<g style="mix-blend-mode:multiply" opacity="0.78">
<g style="mix-blend-mode:multiply" opacity="0.78">
<path d="M230.835 141.324H186.187C184.146 141.324 182.492 142.978 182.492 145.019V156.722C182.492 158.762 184.146 160.416 186.187 160.416H230.835C232.875 160.416 234.529 158.762 234.529 156.722V145.019C234.529 142.978 232.875 141.324 230.835 141.324Z" fill="#4DA8F2"/>
</g>
</g>
<path d="M317.906 41.6248L317.77 41.0261C318.33 40.9008 318.882 40.7417 319.423 40.5498L319.654 41.1213C319.082 41.325 318.498 41.4931 317.906 41.6248Z" fill="#C2BEBC"/>
<path d="M122.883 165C122.272 163.293 121.694 161.477 121.149 159.606L122.098 159.333C122.632 161.182 123.188 162.976 123.81 164.661L122.883 165ZM119.72 154.125C119.294 152.33 118.902 150.47 118.552 148.589L119.523 148.403C119.872 150.263 120.265 152.112 120.68 153.873L119.72 154.125ZM117.614 143.02C117.342 141.171 117.102 139.289 116.894 137.407L117.876 137.298C118.083 139.168 118.323 141.039 118.585 142.867L117.614 143.02ZM116.393 131.783C116.262 129.912 116.153 128.02 116.087 126.138H117.08C117.145 127.998 117.244 129.891 117.374 131.74L116.393 131.783ZM116.982 120.481H116C116 118.611 116 116.707 116.109 114.836H117.091C117.014 116.74 116.982 118.632 116.982 120.492V120.481ZM117.385 109.267L116.404 109.19C116.534 107.309 116.709 105.416 116.916 103.556L117.898 103.676C117.691 105.525 117.527 107.407 117.385 109.267ZM118.629 98.1072L117.647 97.9541C117.931 96.0832 118.247 94.2122 118.596 92.3742L119.567 92.5711C119.272 94.3983 118.902 96.2582 118.629 98.1182V98.1072ZM120.734 87.0678L119.774 86.849C120.2 85.0109 120.68 83.1619 121.181 81.3786L122.13 81.6411C121.629 83.4245 121.16 85.2516 120.734 87.0788V87.0678ZM123.756 76.2691L122.818 75.9519C123.418 74.1576 124.05 72.3632 124.716 70.6236L125.643 70.9847C124.977 72.7133 124.345 74.4967 123.756 76.2801V76.2691ZM127.77 65.7878L126.864 65.3939C127.628 63.6652 128.435 61.9365 129.275 60.2735L130.159 60.7221C129.319 62.3851 128.523 64.0919 127.77 65.7987V65.7878ZM132.799 55.7768L131.948 55.2845C132.875 53.6433 133.867 52.0022 134.882 50.4486L135.711 50.9956C134.707 52.5602 133.726 54.1685 132.799 55.7878V55.7768ZM396.339 48.895V47.8993C398.248 47.8993 400.124 47.7681 401.902 47.5711L402 48.5558C400.222 48.7527 398.324 48.8621 396.339 48.895ZM390.688 48.7418C388.856 48.6214 386.969 48.4355 385.071 48.1729L385.202 47.1991C387.067 47.4508 388.943 47.6368 390.754 47.7571L390.688 48.7418ZM379.497 47.2538C377.686 46.8928 375.842 46.477 374.042 45.9956L374.282 45.0438C376.115 45.5142 377.948 45.93 379.737 46.2801L379.497 47.2538ZM138.907 46.3895L138.111 45.7987C139.202 44.2779 140.391 42.779 141.58 41.3348L142.343 41.9694C141.143 43.3917 139.998 44.8797 138.907 46.3895ZM368.632 44.453C366.876 43.9059 365.076 43.3042 363.287 42.6477L363.625 41.7177C365.403 42.3632 367.181 42.965 368.927 43.512L368.632 44.453ZM358.04 40.6127C356.328 39.9015 354.593 39.1466 352.87 38.3589L353.284 37.4508C354.997 38.2385 356.72 38.9934 358.411 39.639L358.04 40.6127ZM145.997 37.7571L145.277 37.0569C146.554 35.6893 147.895 34.3326 149.248 33.0416L149.924 33.7527C148.593 35.0547 147.263 36.4004 145.997 37.7571ZM347.798 35.9081C346.14 35.0766 344.471 34.1904 342.813 33.2823L343.282 32.407C344.929 33.3151 346.554 34.1904 348.234 35.0219L347.798 35.9081ZM337.915 30.4376C337.271 30.0547 336.617 29.6718 335.962 29.267C335.046 28.7199 334.075 28.1729 333.083 27.5711L333.573 26.7068C334.577 27.2867 335.548 27.8665 336.475 28.4245L338.417 29.5842L337.915 30.4376ZM154.113 29.9891L153.469 29.2341C154.462 28.4026 155.476 27.5711 156.491 26.7834L157.887 25.6893L158.487 26.477L157.102 27.5711C156.066 28.4026 155.062 29.2232 154.091 30.0438L154.113 29.9891ZM328.163 24.8687C326.549 24.0153 324.89 23.151 323.167 22.3195L323.603 21.4333C325.316 22.2648 327.007 23.1291 328.632 23.9934L328.163 24.8687ZM163.003 23.2713L162.447 22.4617C163.985 21.3676 165.577 20.3501 167.159 19.3545L167.683 20.1969C166.112 21.1816 164.541 22.221 163.003 23.2713ZM318.084 19.9891C316.404 19.2232 314.68 18.4573 312.957 17.7134L313.35 16.8053C315.073 17.5492 316.808 18.3151 318.498 19.0919L318.084 19.9891ZM172.482 17.3632L172.002 16.4989C173.628 15.5799 175.275 14.6827 176.965 13.8293L177.413 14.7155C175.766 15.5252 174.108 16.4114 172.482 17.3632ZM307.743 15.5689C306.019 14.8797 304.252 14.2013 302.507 13.5558L302.845 12.6258C304.601 13.2713 306.368 13.9606 308.103 14.6499L307.743 15.5689ZM182.43 12.2867L182.027 11.3895C183.729 10.6127 185.474 9.86871 187.219 9.20132L187.579 10.1203C185.888 10.7987 184.154 11.4989 182.463 12.2648L182.43 12.2867ZM297.227 11.663C295.46 11.0503 293.671 10.4705 291.893 9.91248L292.188 8.97156C293.966 9.52955 295.766 10.0656 297.544 10.7221L297.227 11.663ZM286.527 8.30416C284.727 7.78994 282.905 7.29759 281.073 6.83807L281.313 5.87528C283.112 6.33479 284.945 6.83808 286.767 7.3523L286.527 8.30416ZM192.826 8.15099L192.499 7.22101C194.266 6.60832 196.077 6.02845 197.876 5.49235L198.149 6.4442C196.404 6.94748 194.604 7.51641 192.859 8.1291L192.826 8.15099ZM275.662 5.52517C273.84 5.10941 271.997 4.71554 270.208 4.35449L270.394 3.38075C272.215 3.7418 274.07 4.13567 275.848 4.55143L275.662 5.52517ZM203.549 4.96718L203.309 4.01532C205.119 3.5558 206.974 3.14005 208.763 2.76806L208.959 3.7418C207.214 4.09191 205.381 4.50766 203.581 4.9453L203.549 4.96718ZM264.634 3.35886C262.791 3.04158 260.925 2.76806 259.104 2.51641L259.235 1.53173C261.067 1.78337 262.943 2.06784 264.798 2.37419L264.634 3.35886ZM214.457 2.74617L214.304 1.76149C216.137 1.46608 218.013 1.21444 219.878 0.984684L219.998 1.96937C218.231 2.16631 216.355 2.42889 214.544 2.72429L214.457 2.74617ZM253.519 1.85996C251.653 1.66302 249.777 1.50985 247.934 1.37856L247.999 0.393874C249.854 0.514224 251.741 0.67834 253.617 0.875277L253.519 1.85996ZM225.561 1.43327L225.485 0.448582C227.339 0.295409 229.237 0.185996 231.113 0.120351V1.10504C229.368 1.15974 227.492 1.26915 225.648 1.41138L225.561 1.43327ZM242.338 1.08316C240.549 1.08316 238.738 0.995628 236.971 0.995628H236.742V0H237.08C238.858 0 240.68 4.33666e-06 242.534 0.0984726L242.338 1.08316Z" fill="#6C8ED2"/>
<path d="M210.681 173.744H205.945V190.945H210.681V173.744Z" fill="#78C2FF"/>
<path d="M217.416 172.011H212.681V190.946H217.416V172.011Z" fill="#78C2FF"/>
<path d="M224.248 175.615H219.513V190.951H224.248V175.615Z" fill="#78C2FF"/>
<path d="M231.073 168.506H226.337V190.945H231.073V168.506Z" fill="#78C2FF"/>
<path d="M238.244 170.743H233.509V190.951H238.244V170.743Z" fill="#78C2FF"/>
<path d="M245.504 173.744H240.769V190.945H245.504V173.744Z" fill="#78C2FF"/>
<path d="M252.24 172.011H247.505V190.946H252.24V172.011Z" fill="#78C2FF"/>
<path d="M259.071 175.615H254.335V190.951H259.071V175.615Z" fill="#78C2FF"/>
<path d="M198.645 150.266V150.191C198.616 149.645 198.508 149.106 198.325 148.592C197.939 147.534 197.24 146.619 196.321 145.967C195.402 145.316 194.307 144.959 193.181 144.945C191.716 144.927 190.302 145.489 189.249 146.508C188.197 147.528 187.59 148.923 187.561 150.388C187.546 151.56 187.903 152.707 188.58 153.664C189.257 154.621 190.22 155.339 191.33 155.716C191.88 155.904 192.457 156.002 193.038 156.008C194.428 156.025 195.774 155.52 196.809 154.593C197.845 153.666 198.495 152.384 198.631 151C198.631 150.846 198.631 150.69 198.631 150.531C198.641 150.443 198.646 150.354 198.645 150.266ZM188.949 150.436C188.968 149.465 189.325 148.532 189.959 147.798C190.593 147.063 191.463 146.572 192.42 146.411C193.377 146.25 194.36 146.428 195.199 146.914C196.039 147.4 196.682 148.165 197.019 149.075C197.156 149.46 197.239 149.864 197.263 150.272C197.263 150.361 197.263 150.456 197.263 150.551C197.26 150.943 197.201 151.333 197.087 151.708C196.943 152.199 196.712 152.659 196.406 153.069C196.291 153.211 196.168 153.347 196.039 153.477C195.647 153.866 195.182 154.173 194.67 154.379C194.158 154.586 193.61 154.689 193.059 154.681C192.759 154.673 192.46 154.637 192.167 154.572L191.779 154.464C190.941 154.18 190.214 153.637 189.705 152.913C189.196 152.188 188.931 151.321 188.949 150.436Z" fill="#2E4488"/>
<g opacity="0.74">
<path d="M321.083 195.626H284.008C281.396 195.626 279.279 197.743 279.279 200.355V227.271C279.279 229.883 281.396 232 284.008 232H321.083C323.695 232 325.812 229.883 325.812 227.271V200.355C325.812 197.743 323.695 195.626 321.083 195.626Z" fill="#284A8C"/>
</g>
<path d="M320.137 199.35H303.528C301.931 199.35 300.637 200.644 300.637 202.241V224.722C300.637 226.319 301.931 227.613 303.528 227.613H320.137C321.734 227.613 323.029 226.319 323.029 224.722V202.241C323.029 200.644 321.734 199.35 320.137 199.35Z" fill="#365AA0"/>
<path d="M285.838 199.35H294.343C294.577 199.35 294.808 199.396 295.023 199.485C295.239 199.574 295.434 199.705 295.599 199.87C295.764 200.035 295.895 200.23 295.984 200.446C296.073 200.661 296.119 200.892 296.119 201.125V201.609C296.119 202.078 295.933 202.528 295.601 202.859C295.269 203.191 294.819 203.378 294.35 203.378H285.845C285.376 203.378 284.926 203.191 284.594 202.859C284.263 202.528 284.076 202.078 284.076 201.609V201.139C284.074 200.906 284.119 200.675 284.206 200.458C284.294 200.242 284.423 200.046 284.587 199.879C284.75 199.713 284.945 199.581 285.16 199.49C285.375 199.399 285.605 199.351 285.838 199.35Z" fill="#365AA0"/>
<path d="M294.349 206.874H285.837C284.86 206.874 284.068 207.666 284.068 208.643V209.133C284.068 210.11 284.86 210.902 285.837 210.902H294.349C295.326 210.902 296.118 210.11 296.118 209.133V208.643C296.118 207.666 295.326 206.874 294.349 206.874Z" fill="#365AA0"/>
<path d="M132.22 181.527L121 164L126.695 166.579L132.22 181.527Z" fill="#F3F7FF"/>
<path d="M132.22 181.527L131.533 170.961L127.457 168.641L132.22 181.527Z" fill="#9EBDFC"/>
<path d="M123.579 168.026L122.178 169.877L132.22 181.526L123.579 168.026Z" fill="#CFDFFF"/>
<defs>
<linearGradient id="paint0_linear" x1="104.323" y1="276.023" x2="104.323" y2="157.965" gradientUnits="userSpaceOnUse">
<stop stop-color="#193771"/>
<stop offset="1" stop-color="#345597"/>
</linearGradient>
<linearGradient id="paint1_linear" x1="156.19" y1="250.937" x2="156.19" y2="193.32" gradientUnits="userSpaceOnUse">
<stop stop-color="#193771"/>
<stop offset="1" stop-color="#345597"/>
</linearGradient>
<linearGradient id="paint2_linear" x1="115.29" y1="294.147" x2="115.29" y2="142" gradientUnits="userSpaceOnUse">
<stop stop-color="#193771"/>
<stop offset="1" stop-color="#345597"/>
</linearGradient>
<linearGradient id="paint3_linear" x1="198.5" y1="316.022" x2="198.5" y2="347" gradientUnits="userSpaceOnUse">
<stop stop-color="#6782B7"/>
<stop offset="1" stop-color="#1D2C48"/>
</linearGradient>
<linearGradient id="paint4_linear" x1="30.7545" y1="280.69" x2="12.752" y2="343.324" gradientUnits="userSpaceOnUse">
<stop stop-color="#5BC4D6"/>
<stop offset="1" stop-color="#5BC4D6" stop-opacity="0"/>
</linearGradient>
<linearGradient id="paint5_linear" x1="396.262" y1="255.115" x2="396.262" y2="366.768" gradientUnits="userSpaceOnUse">
<stop stop-color="#354F94"/>
<stop offset="1" stop-color="#233250"/>
</linearGradient>
<linearGradient id="paint6_linear" x1="282.141" y1="216.591" x2="282.141" y2="84.7812" gradientUnits="userSpaceOnUse">
<stop stop-color="#193771"/>
<stop offset="1" stop-color="#345597"/>
</linearGradient>
</defs>
</svg>
