<svg width="550" height="280" viewBox="0 0 550 280" fill="none" xmlns="http://www.w3.org/2000/svg" preserveAspectRatio="none">
<mask id="mask0" mask-type="alpha" maskUnits="userSpaceOnUse" x="0" y="0" width="550" height="280">
<rect x="0.5" y="0.5" width="549" height="279" rx="5.5" fill="#1A2C4A" stroke="#495C7D"/>
</mask>
<g mask="url(#mask0)">
<path d="M513.086 80.2115L515 80.5829C514.731 82.885 513.895 85.0842 512.566 86.983C510.852 89.3677 508.443 91.164 505.668 92.1259C504.732 90.9936 503.935 89.7522 503.297 88.4287C506.259 87.3189 508.771 85.2593 510.44 82.5715C511.642 80.5811 512.329 78.3226 512.44 76L513.086 80.2115Z" fill="#1C4589"/>
<path d="M512.298 97.1831L513.441 101.669C508.971 106.892 503.034 110.651 496.401 112.458L494.875 109.469C497.902 108.535 500.786 107.189 503.447 105.469C505.983 103.821 508.289 101.844 510.304 99.5888C511.104 98.7203 511.755 97.9031 512.298 97.1831Z" fill="#265096"/>
<path d="M512.296 97.1831C511.725 97.9031 511.102 98.7203 510.319 99.5888C509.423 98.8588 508.603 98.0393 507.873 97.1431C506.682 95.7083 505.719 94.0991 505.016 92.3716L503.268 88.4688C503.906 89.7922 504.702 91.0336 505.639 92.1659C505.879 92.4516 506.136 92.7374 506.41 93.0402C508.077 94.7998 510.078 96.2084 512.296 97.1831Z" fill="#5876A7"/>
<path d="M496.395 112.457L498.155 115.886C497.829 116.235 497.463 116.612 497.052 117.029L495.223 112.766L494.869 109.48L496.395 112.457Z" fill="#38517A"/>
<path d="M498.154 115.897L498.069 119.389C494.179 123.056 489.278 125.468 484 126.315L485.074 124.823L484.583 123.755C489.271 122.674 493.579 120.346 497.052 117.017C497.463 116.623 497.829 116.246 498.154 115.897Z" fill="#5572A1"/>
<g opacity="0.5">
<path d="M253.131 241.911L264.997 236L257.846 247.302L253.131 241.911Z" fill="#5BC4D6"/>
<path d="M264.997 236L261.215 247.223L257.846 247.302L264.997 236Z" fill="#CAEDF3"/>
</g>
<path d="M486.47 46.9398L499 34.4298L481.91 29.8298L486.47 46.9398Z" fill="#CAEDF3"/>
<path d="M460.39 38.4199L474.4 27.5999L458.02 20.8699L460.39 38.4199Z" fill="#5BC4D6"/>
<path d="M437.1 27.6881L452.039 18.1884L436.346 10L437.1 27.6881Z" fill="#28C37A"/>
<path d="M555.5 43.5C523.833 41 453 28.6 423 -1" stroke="url(#paint0_linear)" stroke-linecap="round"/>
<g style="mix-blend-mode:screen">
<path d="M383.08 106.13L377 100.08L383.08 94L389.16 100.08L383.08 106.13ZM379.08 100.05L383.08 104.05L387.08 100.05L383.08 96.05L379.08 100.05Z" fill="#56548C"/>
</g>
<g style="mix-blend-mode:screen">
<path d="M457.12 139.69H454.18V136.75C454.18 136.551 454.101 136.36 453.96 136.22C453.82 136.079 453.629 136 453.43 136C453.231 136 453.04 136.079 452.9 136.22C452.759 136.36 452.68 136.551 452.68 136.75V139.69H449.75C449.551 139.69 449.36 139.769 449.22 139.91C449.079 140.05 449 140.241 449 140.44C449 140.639 449.079 140.83 449.22 140.97C449.36 141.111 449.551 141.19 449.75 141.19H452.68V144.12C452.68 144.319 452.759 144.51 452.9 144.65C453.04 144.791 453.231 144.87 453.43 144.87C453.629 144.87 453.82 144.791 453.96 144.65C454.101 144.51 454.18 144.319 454.18 144.12V141.19H457.12C457.319 141.19 457.51 141.111 457.65 140.97C457.791 140.83 457.87 140.639 457.87 140.44C457.87 140.241 457.791 140.05 457.65 139.91C457.51 139.769 457.319 139.69 457.12 139.69Z" fill="#56548C"/>
</g>
<mask id="mask1" mask-type="alpha" maskUnits="userSpaceOnUse" x="273" y="150" width="224" height="130">
<rect x="273" y="150" width="224" height="129" fill="#C4C4C4"/>
</mask>
<g mask="url(#mask1)">
<path fill-rule="evenodd" clip-rule="evenodd" d="M368.777 229.64L368.954 229.864L369.141 230.088L369.318 230.311L369.486 230.544L369.663 230.768L369.831 231.001L370.008 231.224L370.176 231.457L370.344 231.69L370.502 231.932L370.67 232.164L370.829 232.406L370.987 232.639L371.146 232.88L371.304 233.122L371.453 233.364L371.603 233.614L371.752 233.856L371.91 234.098L372.05 234.348L372.172 234.563L372.293 234.823L372.423 235.082L372.545 235.342L372.675 235.593L372.796 235.861L372.918 236.121L373.03 236.38L373.151 236.64L373.263 236.909L373.375 237.168L373.487 237.437L373.589 237.696L373.701 237.965L373.804 238.233L373.906 238.502L374.009 238.761L374.102 239.03L374.205 239.307L374.298 239.576L374.391 239.844L374.484 240.113L374.578 240.382L374.662 240.659L374.755 240.928L374.839 241.196L374.923 241.474L375.007 241.742L375.081 242.02L375.165 242.288L375.24 242.566L375.314 242.843L375.389 243.112L375.464 243.389L375.529 243.667L375.603 243.935L375.669 244.213L375.734 244.49L375.799 244.759L375.865 245.036L375.93 245.314L375.986 245.591L376.042 245.86L376.088 246.039V246.137V246.325V246.522V246.71V246.907V247.095V247.292V247.48V247.668V247.865V248.053V248.25V248.438V248.626V248.823V249.011V249.198V249.386V249.583V249.771V249.959V250.147V250.344V250.532V250.72V250.908V251.096V251.284V251.481V251.669V256.897V257.084V257.451V257.639V257.818V258.006V258.185V258.373V258.552V258.74V258.919V259.099V259.286V259.466V259.653V259.833V260.012L376.032 260.379L375.977 260.737L375.921 261.104L375.855 261.462L375.79 261.82L375.725 262.178L375.65 262.536L375.576 262.894L375.492 263.252V263.315L375.426 263.601L375.342 263.959L375.258 264.317L375.165 264.666L375.072 265.015L374.969 265.373L374.867 265.722L374.764 266.071L374.662 266.412L374.55 266.761L374.438 267.11L374.317 267.45L374.195 267.799L374.074 268.139L373.953 268.479L373.822 268.82L373.692 269.169L373.552 269.5L373.421 269.84L373.281 270.18L373.132 270.511L372.983 270.851L372.834 271.183L372.684 271.514L372.526 271.845L372.367 272.176L372.209 272.507L372.041 272.839L371.882 273.161L371.705 273.483L371.537 273.814L371.36 274.137L371.183 274.459L371.006 274.781L370.819 275.094L370.633 275.417L370.437 275.73L370.25 276.052L370.055 276.365L369.859 276.679L369.654 276.992L369.448 277.296L369.243 277.61L369.038 277.914L368.824 278.227L368.609 278.532L368.395 278.836L368.18 279.14L368.003 279.373L367.956 279.436L367.732 279.74L367.509 280.035L367.275 280.34L367.042 280.635L366.809 280.93L366.576 281.226L366.334 281.512L366.091 281.808L365.849 282.094L365.597 282.381L365.354 282.667L365.103 282.953L364.841 283.24L364.59 283.517L364.328 283.795L364.067 284.081L363.797 284.359L363.536 284.627L363.265 284.905L362.995 285.182L362.724 285.451L362.445 285.719L362.165 285.988L361.885 286.256L361.596 286.516L361.316 286.785L361.027 287.044L360.738 287.304L360.44 287.563L360.15 287.823L360.337 288.082L360.039 288.342L359.731 288.593L359.488 288.799L359.237 289.004L359.115 289.094L358.985 289.21L358.733 289.416L358.481 289.622L358.229 289.828L357.978 290.034L357.716 290.24L357.465 290.446L357.204 290.651L356.691 291.063L356.178 291.475L355.655 291.878L355.124 292.29L354.602 292.692L354.079 293.104L353.548 293.507L352.951 293.963L352.485 294.321L351.431 295.136L350.899 295.539L350.368 295.951L349.845 296.362L349.323 296.774L348.801 297.186L348.54 297.392L348.288 297.598L348.027 297.803L347.766 298.009L347.514 298.224L347.262 298.43L347.001 298.645L346.917 298.716L346.749 298.851L346.488 299.048L346.227 299.254L345.975 299.459L345.714 299.665L345.462 299.871L345.21 300.077L344.959 300.283L344.707 300.489L344.455 300.704L344.213 300.91L343.961 301.124L343.718 301.339L343.476 301.545L343.233 301.76L342.991 301.975L342.758 302.19L342.525 302.404L342.282 302.628L342.058 302.843L341.825 303.067L341.592 303.291L341.368 303.505L341.144 303.729L340.921 303.962L340.697 304.186L340.603 304.284L340.482 304.409L340.258 304.642L340.044 304.866L339.82 305.09L339.606 305.322L339.4 305.546L339.195 305.788L338.99 306.021L338.785 306.253L338.589 306.495L338.393 306.737L338.197 306.978L338.011 307.22L337.815 307.471L337.722 307.587L337.628 307.712L337.545 307.838L337.451 307.963L337.358 308.088L337.274 308.214L337.181 308.339L337.097 308.464L337.004 308.59L336.92 308.715L336.836 308.84L336.752 308.975L336.668 309.1L336.584 309.225L336.5 309.359L336.416 309.494L336.332 309.619L336.258 309.753L336.174 309.879L336.099 310.013L336.015 310.147L335.941 310.281L335.866 310.416L335.791 310.541L335.707 310.675L335.623 310.81L335.549 310.935L335.465 311.069L335.39 311.203L335.316 311.338L335.232 311.472L335.157 311.606L335.083 311.74L335.008 311.884L334.933 312.018L334.868 312.152L334.793 312.295L334.719 312.43L334.654 312.573L334.579 312.716L334.514 312.85L334.448 312.994L334.383 313.137L334.318 313.28L334.253 313.423L334.187 313.567L334.122 313.719L334.066 313.862L334.01 314.005L333.945 314.157L333.889 314.301L333.833 314.453L333.777 314.605L333.721 314.748L333.665 314.9L333.609 315.052L333.562 315.205L333.506 315.357L333.46 315.518L333.404 315.67L333.357 315.822L333.311 315.983V316.136L333.264 316.297V316.449L333.217 316.61V316.771L333.171 316.932V317.093V317.254V317.416V317.586V317.747V317.917V318.078V318.248V318.409V318.579L332.714 318.937L332.359 318.49V318.311V318.141V317.962V317.791V317.612V317.442V317.272V317.102V316.923V316.753V316.583V316.413V316.252V316.082V315.912V315.742V315.581V315.41V315.249V315.079V314.918V314.748L332.406 314.587V314.426V314.265L332.453 314.095V313.934L332.499 313.772L332.546 313.611L332.593 313.459L332.639 313.298V313.137L332.686 312.976L332.732 312.815L332.788 312.662L332.835 312.501L332.891 312.349L332.947 312.188L333.003 312.036V311.875L333.068 311.723L333.124 311.57L333.18 311.418L333.236 311.257L333.301 311.105L333.357 310.953L333.423 310.801L333.488 310.648L333.553 310.496L333.618 310.344L333.684 310.201L333.749 310.049L333.814 309.897L333.879 309.753L333.945 309.61L334.029 309.467L334.103 309.324L334.187 309.18L334.262 309.037L334.346 308.894L334.42 308.751L334.504 308.608L334.588 308.473L334.672 308.33L334.756 308.187L334.84 308.044L334.924 307.909L335.017 307.775L335.101 307.632L335.194 307.498L335.278 307.354L335.372 307.22L335.456 307.086L335.549 306.952L335.642 306.817L335.735 306.683L335.829 306.549L335.922 306.415L336.118 306.146L336.304 305.877L336.5 305.618L336.705 305.358L336.901 305.099L337.106 304.839L337.311 304.588L337.526 304.329L337.731 304.078L337.946 303.828L338.16 303.577L338.384 303.326L338.598 303.085L338.72 302.95L338.822 302.843L339.055 302.601L339.279 302.36L339.512 302.118L339.745 301.885L339.979 301.644L340.212 301.411L340.454 301.178L340.687 300.945L340.93 300.722L341.172 300.489L341.424 300.265L341.667 300.032L341.909 299.809L342.161 299.585L342.413 299.361L342.664 299.137L342.916 298.922L343.168 298.699L343.42 298.484L343.681 298.26L343.933 298.045L344.194 297.83L344.455 297.615L344.716 297.401L344.977 297.186L345.145 297.052L345.238 296.98L345.509 296.774L345.779 296.577L346.05 296.371L346.32 296.174L346.591 295.968L346.861 295.772L347.141 295.575L347.682 295.181L348.232 294.787L348.782 294.393L349.332 293.999L349.883 293.614L350.974 292.845L351.459 292.513L352.074 292.075L352.615 291.69L353.156 291.314L353.697 290.929L354.238 290.544L354.769 290.159L355.301 289.783L355.823 289.389L356.084 289.201L356.346 289.004L356.607 288.816L356.858 288.62L357.12 288.423L357.371 288.235L357.623 288.038L357.763 287.93L357.875 287.841L358.127 287.644L358.369 287.438L358.668 287.196L358.966 286.955L359.255 286.713L359.544 286.462L359.833 286.212L360.113 285.961L360.393 285.71L360.673 285.46L360.953 285.2L361.232 284.941L361.503 284.681L361.773 284.421L362.044 284.162L362.305 283.902L362.575 283.634L362.836 283.365L363.097 283.106L363.349 282.837L363.601 282.56L363.853 282.291L364.105 282.014L364.356 281.745L364.599 281.468L364.841 281.19L365.084 280.913L365.317 280.626L365.55 280.349L365.783 280.062L366.016 279.776L366.24 279.489L366.464 279.203L366.688 278.916L366.912 278.63L366.958 278.558L367.126 278.335L367.341 278.039L367.555 277.744L367.76 277.448L367.966 277.153L368.171 276.858L368.376 276.562L368.572 276.258L368.768 275.954L368.963 275.649L369.15 275.345L369.336 275.041L369.523 274.736L369.71 274.432L369.887 274.119L370.064 273.805L370.241 273.501L370.409 273.188L370.577 272.874L370.745 272.552L370.913 272.239L371.071 271.926L371.23 271.603L371.379 271.29L371.537 270.968L371.687 270.646L371.827 270.323L371.976 270.001L372.116 269.67L372.255 269.348L372.386 269.016L372.517 268.694L372.647 268.363L372.778 268.032L372.899 267.701L373.02 267.369L373.141 267.038L373.253 266.707L373.365 266.367L373.477 266.036L373.58 265.696L373.682 265.364L373.776 265.024L373.878 264.684L373.971 264.344L374.065 264.004L374.149 263.664L374.233 263.315L374.298 263.046V262.974L374.372 262.625L374.447 262.285L374.522 261.936L374.587 261.596L374.652 261.247L374.718 260.898L374.773 260.549L374.829 260.191L374.885 259.841V259.671V259.492V259.313V259.143V258.964V258.785V258.606V258.436V258.257V258.078V257.899V257.72V257.541V257.362V257.183V257.004V256.825V251.759V251.571V251.204V251.025V250.837V250.649V250.47V250.282V250.103V249.915V249.727V249.548V249.36V249.172V248.993V248.805V248.617V248.429V248.25V248.062V247.874V247.686V247.498V247.319V247.131V246.943V246.755V246.567V246.379V246.289V246.11L374.829 245.842L374.773 245.573L374.718 245.305L374.662 245.036L374.596 244.768L374.54 244.49L374.475 244.222L374.41 243.953L374.344 243.685L374.27 243.416L374.205 243.147L374.13 242.879L374.055 242.61L373.981 242.342L373.906 242.082L373.832 241.814L373.748 241.545L373.673 241.277L373.589 241.008L373.505 240.749L373.421 240.48L373.328 240.22L373.244 239.952L373.151 239.692L373.058 239.424L372.964 239.164L372.871 238.905L372.768 238.645L372.666 238.377L372.573 238.117L372.47 237.857L372.358 237.607L372.255 237.347L372.144 237.088L372.041 236.837L371.92 236.577L371.808 236.327L371.696 236.067L371.575 235.816L371.453 235.566L371.342 235.315L371.211 235.065L371.108 234.85L370.996 234.599L370.885 234.348L370.763 234.089L370.642 233.838L370.521 233.588L370.4 233.346L370.269 233.095L370.139 232.845L370.008 232.603L369.877 232.361L369.737 232.111L369.598 231.869L369.458 231.627L369.318 231.395L369.169 231.153L369.019 230.92L368.87 230.678L368.721 230.446L368.562 230.213L368.404 229.98L368.469 229.586L368.777 229.64Z" fill="#3C5278"/>
<path fill-rule="evenodd" clip-rule="evenodd" d="M390.59 204.649L390.721 204.738L390.851 204.837L390.982 204.926L391.122 205.025L391.252 205.114L391.383 205.213L391.523 205.302L391.663 205.401L391.793 205.49L391.933 205.588L392.073 205.687L392.213 205.776L392.353 205.875L392.502 205.964L392.642 206.063L392.744 206.188L392.847 206.314L392.95 206.448L393.052 206.573L393.155 206.698L393.257 206.833L393.36 206.958L393.453 207.092L393.556 207.227L393.752 207.486L393.947 207.755L394.134 208.032L394.33 208.301L394.516 208.578L394.703 208.856L394.889 209.133L395.066 209.411L395.244 209.697L395.421 209.984L395.598 210.27L395.775 210.556L395.943 210.843L396.111 211.138L396.279 211.434L396.447 211.729L396.605 212.024L396.773 212.32L396.932 212.615L397.081 212.92L397.239 213.215L397.389 213.519L397.547 213.824L397.687 214.128L397.836 214.432L397.985 214.737L398.125 215.041L398.191 215.175L398.265 215.345L398.396 215.659L398.526 215.963L398.657 216.267L398.778 216.581L398.899 216.885L399.03 217.198L399.151 217.503L399.263 217.807L399.384 218.12L399.496 218.424L399.608 218.729L399.72 219.042L399.832 219.346L399.935 219.651L400.037 219.955L400.14 220.251L400.242 220.555L400.345 220.859L400.438 221.155L400.531 221.459L400.625 221.754L400.718 222.05L400.811 222.345L400.895 222.632L400.97 222.873L401.035 223.115L401.1 223.357L401.175 223.598L401.24 223.84L401.305 224.082L401.371 224.323L401.427 224.565L401.492 224.798L401.557 225.039L401.613 225.281L401.669 225.523L401.734 225.764L401.79 226.006L401.846 226.248L401.893 226.49L401.949 226.731L402.005 226.973L402.052 227.206L402.108 227.447V227.689L402.154 227.931L402.201 228.172L402.247 228.414L402.294 228.656V228.897L402.341 229.13L402.387 229.372V229.613V229.855V230.097V230.339V230.571V230.813V231.055V231.296V231.538V231.771V232.012V232.254V232.496V232.737V232.97V233.212V233.454V233.695V233.928V234.17V234.411V234.653V234.886V235.127V235.369V235.611V235.844V236.327V236.56V242.27V242.503V242.978V243.219V243.452V243.694V243.926V244.159V244.401V244.634V244.875V245.108V245.341V245.573V245.815V246.048V246.281V246.522V246.755V246.988V247.22V247.462V247.695V247.928L402.322 248.393L402.247 248.867L402.182 249.333L402.098 249.798L402.024 250.264L401.94 250.729L401.856 251.195L401.762 251.66L401.669 252.126L401.576 252.591L401.473 253.057L401.371 253.522L401.268 253.988L401.166 254.444L401.054 254.91L400.96 255.268V255.366L400.839 255.832L400.718 256.288L400.597 256.753L400.466 257.21L400.336 257.667L400.205 258.123L400.074 258.58L399.935 259.036L399.795 259.493L399.645 259.949L399.506 260.406L399.356 260.862L399.198 261.31L399.049 261.766L398.89 262.214L398.732 262.67L398.564 263.118L398.405 263.565L398.237 264.022L398.06 264.469L397.892 264.917L397.715 265.365L397.538 265.812L397.361 266.26L397.174 266.698L396.988 267.146L396.801 267.593L396.605 268.032L396.419 268.48L396.223 268.918L396.027 269.357L395.822 269.804L395.626 270.243L395.421 270.682L395.216 271.12L395.001 271.559L394.796 271.988L394.582 272.427L394.367 272.866L394.143 273.295L393.929 273.734L393.705 274.164L393.481 274.593L393.257 275.023L393.024 275.453L392.8 275.882L392.567 276.312L392.334 276.742L392.092 277.171L391.858 277.592L391.765 277.771L391.616 278.022L391.373 278.442L391.131 278.863L390.879 279.293L390.637 279.713L390.385 280.134L390.133 280.546L389.881 280.966L389.62 281.387L389.396 281.754L389.163 282.121L388.939 282.488L388.706 282.855L388.473 283.222L388.24 283.58L387.997 283.947L387.764 284.305L387.531 284.672L387.289 285.03L387.046 285.388L386.813 285.746L386.571 286.104L386.328 286.463L386.086 286.821L385.843 287.179L385.358 287.895L384.864 288.602L384.379 289.309L383.885 290.007L383.4 290.714L382.906 291.413L381.973 292.818L381.488 293.516L381.432 293.597L380.994 294.205L380.499 294.895L380.015 295.584L379.53 296.282L379.287 296.622L379.045 296.971L378.802 297.311L378.569 297.66L378.336 298.01L378.093 298.35L377.86 298.699L377.627 299.048L377.441 299.325L377.394 299.388L377.161 299.737L376.928 300.086L376.694 300.426L376.471 300.775L376.238 301.125L376.014 301.474L375.79 301.814L375.575 302.163L375.352 302.512L375.137 302.861L374.913 303.21L374.699 303.559L374.494 303.917L374.279 304.266L374.074 304.616L373.869 304.974L373.664 305.323L373.458 305.681L373.263 306.03L373.067 306.388L372.908 306.683V306.746L372.722 307.104L372.526 307.462L372.339 307.82L372.153 308.178L371.976 308.536L371.789 308.903L371.612 309.261L371.444 309.628L371.267 309.995L371.099 310.353L371.024 310.541L370.94 310.72L370.856 310.908L370.773 311.087L370.698 311.275L370.614 311.463L370.539 311.651L370.465 311.83L370.39 312.018L370.306 312.206L370.232 312.394L370.157 312.573L370.092 312.761L370.017 312.949L369.943 313.137L369.877 313.325L369.803 313.513L369.737 313.701L369.672 313.898L369.597 314.086L369.532 314.274L369.467 314.462L369.402 314.65L369.346 314.847L369.28 315.035L369.215 315.232L369.159 315.42L369.094 315.617L369.038 315.805L368.982 316.001L368.926 316.189L368.87 316.386L368.814 316.583L368.758 316.78L368.712 316.968L368.656 317.165V317.362L368.6 317.559L368.553 317.756L368.506 317.953L368.46 318.15L368.413 318.347V318.553V318.749L368.366 318.946V319.036V319.143V319.349L368.32 319.546L368.273 319.743L368.227 319.949V320.146L368.18 320.352V320.558V320.755V320.96V321.166V321.372V321.578V321.784V321.99V322.196V322.402V322.616V322.822V323.028V323.243V323.449V323.664V323.878V324.084V324.299V324.514V324.729V324.944V328.927L367.9 329.258L367.564 328.981V328.748V328.524V328.291V328.068V327.844V327.611V327.387V327.164V326.94V326.716V326.483V326.26V321.659V321.444V321.202V320.987V320.772V320.558V320.343V320.137V319.922V319.707V319.492V319.287V319.072V318.866V318.741V318.651V318.445V318.23V318.024V317.819V317.613V317.407V317.201L367.611 316.995V316.78V316.574L367.658 316.377L367.704 316.172L367.751 315.966L367.807 315.76L367.854 315.554L367.91 315.357L367.956 315.151L368.012 314.945L368.068 314.748L368.124 314.542L368.171 314.345L368.236 314.14L368.292 313.943L368.348 313.737L368.404 313.54L368.469 313.343L368.534 313.137L368.59 312.94L368.656 312.743L368.721 312.546L368.786 312.349L368.851 312.152L368.917 311.956L368.982 311.759L369.057 311.553L369.122 311.365L369.196 311.168L369.262 310.971L369.336 310.774L369.411 310.577L369.486 310.38L369.56 310.192L369.635 309.995L369.709 309.798L369.784 309.601L369.943 309.216L370.101 308.832L370.269 308.447L370.428 308.062L370.595 307.686L370.763 307.301L370.94 306.925L371.118 306.54L371.295 306.164L371.472 305.788V305.725L371.621 305.412L371.528 305.09L371.714 304.714L371.91 304.347L372.097 303.971L372.302 303.604L372.498 303.237L372.703 302.861L372.899 302.494L373.104 302.127L373.319 301.76L373.524 301.393L373.738 301.035L373.953 300.668L374.167 300.301L374.382 299.934L374.596 299.576L374.811 299.209L375.034 298.851L375.258 298.493L375.482 298.126V298.063L375.669 297.768L375.902 297.41L376.126 297.052L376.359 296.694L376.592 296.345L376.825 295.987L377.058 295.629L377.291 295.27L377.524 294.921L378 294.205L378.476 293.498L378.951 292.791L379.371 292.173L379.427 292.084L379.921 291.386L380.854 289.989L381.348 289.282L381.833 288.584L382.327 287.886L382.812 287.179L383.288 286.48L383.773 285.773L384.015 285.424L384.248 285.066L384.491 284.717L384.724 284.359L384.967 284.01L385.2 283.652L385.433 283.294L385.666 282.945L385.899 282.587L386.123 282.229L386.356 281.871L386.58 281.512L386.813 281.154L387.037 280.796L387.261 280.438L387.485 280.08L387.727 279.669L387.979 279.257L388.221 278.854L388.473 278.442L388.716 278.03L388.958 277.619L389.191 277.198L389.434 276.786L389.574 276.536L389.667 276.375L389.9 275.954L390.18 275.551L390.413 275.13L390.637 274.71L390.87 274.298L391.094 273.877L391.317 273.456L391.532 273.036L391.756 272.615L391.97 272.194L392.185 271.774L392.399 271.344L392.604 270.923L392.81 270.503L393.015 270.073L393.22 269.652L393.425 269.223L393.621 268.793L393.817 268.363L394.013 267.934L394.209 267.504L394.395 267.074L394.582 266.645L394.768 266.215L394.955 265.785L395.132 265.356L395.309 264.917L395.486 264.487L395.654 264.049L395.831 263.619L395.99 263.18L396.158 262.742L396.325 262.312L396.484 261.874L396.643 261.435L396.792 260.996L396.95 260.558L397.1 260.119L397.239 259.681L397.389 259.242L397.529 258.794L397.668 258.356L397.808 257.917L397.939 257.47L398.069 257.031L398.191 256.583L398.321 256.145L398.442 255.697L398.564 255.259L398.676 254.811V254.713L398.76 254.364L398.871 253.916L398.983 253.468L399.086 253.021L399.189 252.582L399.291 252.135L399.384 251.687L399.478 251.231L399.562 250.783L399.655 250.335L399.739 249.888L399.813 249.44L399.897 248.984L399.972 248.536L400.037 248.089L400.102 247.632V247.408V247.185V246.952V246.728V246.504V246.272V246.048V245.824V245.6V245.368V245.144V244.911V244.687V244.464V244.231V244.007V243.783V243.55V243.327V243.094V242.87V242.637V242.414V241.724V241.501V236.166V235.933V235.477V235.244V235.011V234.778V234.555V234.322V234.089V233.856V233.633V233.4V233.167V232.943V232.711V232.478V232.245V232.012V231.789V231.556V231.323V231.09V230.858V230.634V230.401V230.168V229.936V229.703L400.056 229.47V229.238V229.014V228.781V228.548L400.009 228.316V228.083L399.963 227.85V227.617L399.916 227.385L399.869 227.161L399.813 226.928L399.767 226.695L399.711 226.463L399.664 226.23L399.608 225.997L399.552 225.764L399.496 225.532L399.44 225.299L399.384 225.066L399.319 224.834L399.263 224.601L399.198 224.368L399.142 224.135L399.077 223.903L399.011 223.67L398.946 223.437L398.881 223.204L398.797 222.927L398.713 222.64L398.629 222.354L398.536 222.068L398.452 221.772L398.359 221.486L398.265 221.19L398.172 220.904L398.069 220.609L397.976 220.313L397.64 220.054L397.538 219.758L397.435 219.463L397.323 219.167L397.221 218.863L397.109 218.568L396.997 218.272L396.885 217.968L396.764 217.673L396.652 217.377L396.531 217.082L396.409 216.777L396.288 216.482L396.158 216.187L396.092 216.017L396.036 215.891L395.915 215.587L395.785 215.292L395.663 214.996L395.533 214.692L395.402 214.396L395.262 214.11L395.132 213.815L394.992 213.519L394.852 213.224L394.712 212.937L394.572 212.642L394.423 212.356L394.283 212.069L394.134 211.783L393.975 211.505L393.826 211.219L393.668 210.941L393.518 210.664L393.36 210.386L393.192 210.109L393.033 209.84L392.866 209.572L392.698 209.303L392.53 209.035L392.362 208.775L392.185 208.516L392.008 208.256L391.924 208.131L391.84 208.005L391.746 207.88L391.653 207.755L391.569 207.629L391.476 207.504L391.383 207.379L391.289 207.253L391.196 207.137L391.15 206.994L391.094 206.842L391.028 206.698L390.972 206.555L390.916 206.403L390.851 206.26L390.786 206.117L390.711 205.982L390.646 205.839L390.571 205.705L390.497 205.571L390.422 205.436L390.338 205.302L390.264 205.168L390.18 205.034V204.64L390.59 204.649Z" fill="#3C5278"/>
<path fill-rule="evenodd" clip-rule="evenodd" d="M423.698 212.991V213.323V213.645V213.976L423.744 214.298L423.791 214.621L423.837 214.943L423.903 215.265L423.977 215.578V215.739V215.892V216.196V218.881V219.177V219.472V219.767V220.063V220.349V220.636V220.931V221.218V221.504V221.79V222.077V222.363V222.641L424.024 222.927V223.205L424.071 223.491L424.117 223.769L424.173 224.046V224.261V224.324L424.229 224.601L424.285 224.879L424.341 225.156L424.397 225.425L424.462 225.702L424.518 225.971L424.584 226.248L424.649 226.517L424.723 226.785L424.789 227.054L424.863 227.322L424.938 227.591L425.013 227.859L425.087 228.128L425.171 228.396L425.246 228.656L425.33 228.925L425.414 229.184L425.507 229.453L425.591 229.712L425.637 229.838L425.684 229.972L425.768 230.231L425.861 230.5L425.954 230.76L426.048 231.019L426.141 231.279L426.234 231.538L426.337 231.798L426.439 232.049L426.542 232.308L426.645 232.568L426.747 232.818L426.859 233.078L426.962 233.329L427.018 233.463L427.074 233.588L427.176 233.848L427.279 234.098L427.391 234.358L427.503 234.609L427.614 234.859L427.726 235.119L427.838 235.369L427.959 235.62L428.071 235.88L428.193 236.13L428.314 236.381L428.435 236.632L428.556 236.882L428.678 237.133L428.799 237.383L428.929 237.634L429.051 237.885L429.181 238.135L429.312 238.386L429.442 238.637L429.573 238.878L429.703 239.129L429.834 239.38L429.974 239.621L430.104 239.872L430.244 240.122L430.384 240.364L430.524 240.615L430.664 240.857L430.804 241.107L430.944 241.349L431.084 241.599L431.224 241.841L431.373 242.092L431.513 242.333L431.811 242.826L432.1 243.309L432.399 243.801L432.706 244.285L433.005 244.777L433.313 245.26L433.62 245.744L433.937 246.227L434.152 246.567L434.245 246.72L434.562 247.203L434.879 247.686L435.196 248.17L435.513 248.662L435.831 249.145L436.148 249.629L436.474 250.112L437.117 251.088L438.423 253.03L439.608 254.068L439.934 254.561L440.26 255.044L440.577 255.536L440.904 256.029L441.221 256.521L441.547 257.013L441.864 257.506L442.181 257.998L442.489 258.499L442.806 258.992L443.114 259.493L443.431 259.994L443.739 260.495L444.037 260.997L444.345 261.498L444.643 261.999L444.793 262.259L444.942 262.509L445.082 262.76L445.231 263.02L445.38 263.27L445.52 263.53L445.669 263.781L445.809 264.04L445.949 264.3L446.089 264.55L446.229 264.81L446.369 265.069L446.509 265.329L446.649 265.589L446.779 265.848L446.919 266.108L447.05 266.367L447.18 266.627L447.32 266.896L447.451 267.155L447.581 267.415L447.702 267.674L447.833 267.943L447.963 268.211L448.085 268.471L448.206 268.739L448.327 269.008L448.448 269.268L448.57 269.536L448.691 269.805L448.812 270.073L448.924 270.342L449.036 270.619L449.148 270.888L449.26 271.156L449.372 271.434L449.484 271.702L449.586 271.98L449.698 272.248L449.801 272.526L449.903 272.803L450.006 273.081L450.108 273.358L450.202 273.636L450.295 273.913L450.398 274.191L450.491 274.468L450.575 274.755L450.668 275.032L450.761 275.319L450.845 275.596L450.929 275.883L451.013 276.169L451.097 276.455L451.172 276.733L451.246 277.028L451.33 277.315L451.395 277.601L451.47 277.888L451.545 278.183L451.61 278.469L451.675 278.765L451.74 279.06L451.796 279.356L451.862 279.642L451.918 279.937L451.974 280.242L452.03 280.537V280.752V280.967V281.182V281.396V281.611V281.835V282.05V282.265V282.48V282.694V282.909V283.124V283.339V283.554V283.769V283.983V287.385V287.6V287.806V288.02V288.226V288.441V288.647V288.862V289.077V289.282V289.497V289.703V289.918V290.124V290.33V290.545V290.75V290.965V291.171V291.377V291.592V291.798V292.004V292.218L451.983 292.424V292.63V292.836L451.936 293.051V293.257L451.89 293.463V293.669L451.806 294.089L451.713 294.501L451.61 294.913L451.507 295.325L451.405 295.745L451.302 296.157L451.19 296.569L451.088 296.98L450.976 297.392L450.855 297.804L450.743 298.216L450.621 298.627V298.744L450.537 299.039L450.416 299.451L450.295 299.863L450.174 300.266L450.053 300.677L449.922 301.089L449.801 301.501L449.67 301.913L449.54 302.315L449.288 303.139L449.027 303.953L448.504 305.583L448.243 306.397L447.982 307.212L447.861 307.615L447.73 308.026L447.609 308.429L447.488 308.832L447.357 309.244L447.236 309.646L447.124 310.049L447.003 310.461L446.882 310.864L446.77 311.267L446.658 311.678L446.546 312.081L446.443 312.484L446.331 312.896L446.229 313.299L446.136 313.701L446.089 313.88L446.033 314.104L445.94 314.516L445.847 314.919L445.763 315.321L445.679 315.724V315.93V316.136V316.333L445.632 316.539V316.745V316.942V317.148V317.344V317.55V317.756V317.953V318.159V318.365V318.562V318.768V318.965V319.17V319.376V319.573V319.779V319.976V320.182V320.388V320.585V320.791V320.997V321.193V325.051V325.257V325.463V325.66V325.866V326.072V326.269V326.475V326.681V326.886V327.083V327.289V327.45V327.468V327.674V327.88V328.086V328.292V328.498V328.704V328.909V329.115L445.679 329.321L445.725 329.527L445.772 329.733L445.819 329.939V330.145L445.875 330.351L445.93 330.556L445.986 330.762L446.042 330.977L446.098 331.183L446.164 331.389L446.229 331.595L446.294 331.801L446.369 332.015L446.434 332.221L446.509 332.427L446.583 332.642L446.658 332.848L446.742 333.054L446.826 333.269L446.658 333.654L446.257 333.483L446.164 333.278L446.07 333.072L445.977 332.857L445.893 332.651L445.809 332.436L445.725 332.23L445.641 332.015L445.557 331.81L445.483 331.595L445.408 331.389L445.334 331.174L445.259 330.968L445.194 330.762L445.128 330.547L445.063 330.342L444.998 330.127L444.933 329.921L444.877 329.706L444.821 329.5L444.765 329.285L444.709 329.079L444.653 328.865V328.659L444.606 328.453L444.55 328.238V328.032L444.504 327.817V327.611V327.558V327.397V327.191V326.976V326.77V326.555V326.349V326.135V325.929V325.714V325.508V325.293V325.087V324.872V324.667V324.452V321.113V320.907V320.692V320.486V320.28V320.075V319.86V319.654V319.448V319.242V319.036V318.83V318.616V318.41V318.204V317.998V317.792V317.586V317.371V317.165V316.96V316.754V316.548V316.342V316.136V315.93L444.55 315.724V315.518L444.634 315.107L444.718 314.686L444.811 314.274L444.905 313.862L444.961 313.639V313.451L445.063 313.039L445.166 312.627L445.268 312.215L445.38 311.813L445.203 311.356L445.315 310.944L445.427 310.533L445.548 310.121L445.66 309.709L445.781 309.306L445.902 308.895L446.024 308.483L446.145 308.071L446.266 307.668L446.397 307.256L446.518 306.845L446.77 306.03L447.022 305.207L447.535 303.578L447.786 302.763L448.047 301.948L448.169 301.537L448.29 301.125L448.411 300.722L448.542 300.31L448.663 299.908L448.775 299.496L448.896 299.093L449.008 298.681L449.092 298.386V298.269L449.204 297.867L449.306 297.455L449.418 297.052L449.521 296.64L449.624 296.229L449.717 295.826L449.81 295.414L449.903 295.011L449.997 294.599L450.09 294.188L450.174 293.785L450.258 293.373V293.167V292.97V292.764V292.559V292.353V292.147V291.95V291.744V291.538V291.332V291.126V290.929V290.724V290.518V290.312V290.106V289.909V289.703V289.497V289.291V289.094V288.889V288.683V288.477V288.271V288.083V287.886V284.413V284.207V284.001V283.804V283.607V283.402V283.196V282.99V282.784V282.578V282.381V282.175V281.969V281.763V281.558V281.352V281.146L450.211 280.94V280.743L450.155 280.457L450.099 280.17L450.034 279.884L449.969 279.597L449.903 279.32L449.838 279.033L449.763 278.756L449.698 278.469L449.624 278.192L449.549 277.914L449.465 277.637L449.39 277.359L449.306 277.082L449.222 276.804L449.139 276.536L449.055 276.258L448.971 275.99L448.877 275.712L448.784 275.444L448.691 275.166L448.598 274.898L448.504 274.629L448.411 274.361L448.309 274.092L448.206 273.824L448.103 273.564L448.001 273.296L447.898 273.027L447.786 272.767L447.684 272.499L447.572 272.239L447.46 271.971L447.348 271.711L447.236 271.452L447.115 271.192L447.003 270.933L446.882 270.673L446.76 270.413L446.639 270.154L446.518 269.894L446.397 269.635L446.266 269.384L446.145 269.124L446.014 268.865L445.884 268.614L446.136 268.39L446.005 268.14L445.875 267.889L445.744 267.63L445.604 267.379L445.474 267.128L445.334 266.878L445.194 266.627L445.054 266.376L444.914 266.126L444.774 265.875L444.634 265.624L444.494 265.374L444.345 265.123L444.205 264.882L444.056 264.631L443.916 264.38L443.786 264.165L443.636 263.915L443.487 263.664L443.338 263.422L443.189 263.172L443.03 262.93L442.732 262.438L442.415 261.954L442.107 261.462L441.79 260.979L441.482 260.495L441.156 260.003L440.839 259.52L440.512 259.036L440.186 258.553L439.859 258.079L439.533 257.595L439.207 257.112L438.871 256.637L438.535 256.154L438.209 255.671L437.873 255.196L437.201 254.239L435.793 252.278L435.122 251.32L434.786 250.837L434.45 250.363L434.115 249.879L433.779 249.396L433.443 248.913L433.117 248.429L432.79 247.946L432.688 247.803L432.464 247.462L432.137 246.979L431.811 246.487L431.494 246.003L431.168 245.511L430.86 245.019L430.543 244.526L430.235 244.034L429.918 243.542L429.769 243.291L429.62 243.05L429.461 242.799L429.312 242.548L429.163 242.298L429.013 242.047L428.864 241.796L428.715 241.546L428.575 241.295L428.426 241.044L428.277 240.794L428.137 240.534L427.997 240.284L427.848 240.033L427.708 239.773L427.568 239.523L427.428 239.263L427.297 239.013L427.157 238.753L427.027 238.493L426.887 238.243L426.756 237.983L426.626 237.724L426.495 237.464L426.365 237.204L426.234 236.945L426.104 236.685L425.982 236.417L425.852 236.157L425.731 235.898L425.609 235.629L425.488 235.369L425.367 235.101L425.255 234.841L425.134 234.573L425.078 234.438L425.022 234.304L424.919 234.036L424.807 233.767L424.686 233.481L424.584 233.212L424.481 232.935L424.378 232.666L424.276 232.389L424.182 232.12L424.089 231.843L423.996 231.565L423.903 231.288L423.809 231.01L423.716 230.733V230.598L423.67 230.455L423.586 230.178L423.502 229.891L423.427 229.614L423.353 229.327L423.269 229.05L423.203 228.763L423.129 228.477L423.054 228.191L422.989 227.904L422.923 227.618L422.858 227.331L422.793 227.045L422.737 226.758L422.681 226.463L422.625 226.177L422.569 225.881L422.513 225.586V225.299L422.467 225.004L422.42 224.709V224.646V224.413V224.118V223.813V223.518V223.214V222.918V222.614V222.319V222.014V221.71V221.406V221.101V217.682V217.36V217.046V216.724V216.411V216.089V215.766V215.605L422.476 215.444L422.597 215.131L422.718 214.817L422.84 214.495L422.952 214.182L423.063 213.869L423.175 213.546L423.278 213.233L423.39 212.911L423.716 212.669L423.698 212.991Z" fill="#3C5278"/>
<path fill-rule="evenodd" clip-rule="evenodd" d="M341.031 199.01C348.772 193.398 359.972 194.535 366.64 203.414C374.371 213.672 373.756 231.163 371.508 233.437C369.4 235.603 348.072 236.032 338.578 223.751C331.808 214.988 333.291 204.623 341.031 199.01Z" fill="#FF6E98"/>
<path fill-rule="evenodd" clip-rule="evenodd" d="M372.986 164.906C382.163 161.881 392.421 166.329 395.9 176.722C399.938 188.779 393.708 205.196 390.827 206.717C388.122 208.14 367.698 202.197 362.653 187.705C359.053 177.348 363.809 167.941 372.986 164.906Z" fill="#FCD5FF"/>
<path fill-rule="evenodd" clip-rule="evenodd" d="M423.252 169.006C432.942 169.408 440.794 177.16 440.039 188.054C439.199 200.693 427.141 213.771 423.877 214.182C420.809 214.558 404.078 201.848 404.917 186.586C405.533 175.683 413.553 168.603 423.252 169.006Z" fill="#FFFFEB"/>
</g>
<g style="mix-blend-mode:screen">
<path d="M94.2607 249.498C93.4057 250.157 92.594 249.997 91.9006 249.836C91.2072 249.676 90.7205 249.606 90.145 250.049C89.5696 250.493 89.534 251.025 89.4919 251.693C89.4498 252.361 89.3858 253.255 88.5432 253.905C87.7006 254.554 86.8724 254.406 86.1584 254.262C85.4445 254.118 84.9824 254.028 84.4029 254.475C83.8233 254.922 83.796 255.447 83.7539 256.115C83.7118 256.783 83.6477 257.678 82.801 258.33C81.9543 258.983 81.1302 258.832 80.4163 258.688C79.7023 258.543 79.2362 258.457 78.6607 258.901C78.0853 259.344 78.0497 259.876 78.0076 260.544C77.9655 261.212 77.9015 262.107 77.0506 262.762C76.9689 262.825 76.8654 262.853 76.7631 262.84C76.6607 262.827 76.5678 262.773 76.5048 262.692C76.4418 262.61 76.4138 262.506 76.4271 262.404C76.4403 262.302 76.4937 262.209 76.5754 262.146C77.155 261.699 77.1865 261.17 77.2286 260.502C77.2706 259.834 77.3347 258.94 78.1855 258.284C79.0364 257.628 79.8522 257.786 80.5703 257.927C81.2883 258.068 81.7463 258.161 82.3258 257.714C82.9054 257.267 82.9327 256.742 82.9789 256.07C83.0251 255.399 83.0851 254.508 83.9071 253.874C84.7292 253.241 85.5779 253.373 86.2919 253.517C87.0058 253.661 87.4679 253.751 88.0474 253.304C88.627 252.857 88.6544 252.332 88.6964 251.664C88.7385 250.996 88.8026 250.101 89.6493 249.449C90.496 248.796 91.316 248.95 92.034 249.092C92.7521 249.233 93.21 249.325 93.7855 248.882C93.8672 248.819 93.9707 248.791 94.0731 248.804C94.1754 248.817 94.2683 248.871 94.3314 248.952C94.3944 249.034 94.4223 249.138 94.4091 249.24C94.3958 249.342 94.3424 249.435 94.2607 249.498Z" fill="#56548C"/>
</g>
</g>
<defs>
<linearGradient id="paint0_linear" x1="423" y1="-1.99999" x2="525.5" y2="44" gradientUnits="userSpaceOnUse">
<stop stop-color="#1A2C4A" stop-opacity="0"/>
<stop offset="0.485656" stop-color="#98C3DB"/>
<stop offset="1" stop-color="#1A2C4A" stop-opacity="0"/>
</linearGradient>
</defs>
</svg>
