<svg width="239" height="84" viewBox="0 0 239 84" fill="none" xmlns="http://www.w3.org/2000/svg">
<line x1="36" y1="16" x2="190" y2="16" stroke="#CAEDF3" stroke-width="6" stroke-linecap="round"/>
<line x1="36" y1="16" x2="114" y2="16" stroke="#52BACC" stroke-width="6" stroke-linecap="round"/>
<circle cx="33" cy="15" r="15" fill="#52BACC"/>
<path d="M31.208 11.416V9.704H34.824V21H32.904V11.416H31.208Z" fill="white"/>
<circle cx="195" cy="15" r="15" fill="#CAEDF3"/>
<path d="M191.101 19.576C192.829 18.392 194.21 17.2347 195.245 16.104C196.29 14.9627 196.813 13.9067 196.813 12.936C196.813 12.36 196.669 11.9013 196.381 11.56C196.104 11.2187 195.65 11.048 195.021 11.048C194.37 11.048 193.88 11.2613 193.549 11.688C193.218 12.104 193.032 12.7013 192.989 13.48H191.213C191.288 12.1893 191.682 11.2027 192.397 10.52C193.122 9.83733 194.045 9.496 195.165 9.496C196.264 9.496 197.122 9.78933 197.741 10.376C198.37 10.952 198.685 11.752 198.685 12.776C198.685 13.5973 198.429 14.4293 197.917 15.272C197.416 16.1147 196.776 16.8933 195.997 17.608C195.218 18.312 194.413 18.92 193.581 19.432H198.941V20.92H191.101V19.576Z" fill="#52BACC"/>
<path d="M7.462 66.368C7.462 66.8533 7.34533 67.306 7.112 67.726C6.87867 68.1367 6.524 68.468 6.048 68.72C5.572 68.972 4.98867 69.098 4.298 69.098C3.626 69.098 3.024 68.9813 2.492 68.748C1.96 68.5053 1.53533 68.1693 1.218 67.74C0.900667 67.3107 0.718667 66.816 0.672 66.256H2.38C2.42667 66.6853 2.60867 67.054 2.926 67.362C3.25267 67.67 3.68667 67.824 4.228 67.824C4.71333 67.824 5.08667 67.6933 5.348 67.432C5.61867 67.1707 5.754 66.8347 5.754 66.424C5.754 66.0693 5.656 65.78 5.46 65.556C5.264 65.3227 5.02133 65.1407 4.732 65.01C4.44267 64.8793 4.046 64.73 3.542 64.562C2.926 64.366 2.422 64.17 2.03 63.974C1.64733 63.778 1.32067 63.4933 1.05 63.12C0.779333 62.7467 0.644 62.2567 0.644 61.65C0.644 61.118 0.774667 60.6513 1.036 60.25C1.29733 59.8487 1.67067 59.5407 2.156 59.326C2.64133 59.102 3.20133 58.99 3.836 58.99C4.844 58.99 5.642 59.2327 6.23 59.718C6.82733 60.2033 7.168 60.838 7.252 61.622H5.53C5.46467 61.2487 5.28733 60.9313 4.998 60.67C4.718 60.3993 4.33067 60.264 3.836 60.264C3.388 60.264 3.02867 60.3807 2.758 60.614C2.48733 60.838 2.352 61.1647 2.352 61.594C2.352 61.93 2.44533 62.21 2.632 62.434C2.81867 62.6487 3.052 62.8213 3.332 62.952C3.62133 63.0733 4.01333 63.218 4.508 63.386C5.13333 63.582 5.642 63.7827 6.034 63.988C6.43533 64.184 6.77133 64.4733 7.042 64.856C7.322 65.2387 7.462 65.7427 7.462 66.368ZM9.13575 59.046C9.13575 58.7753 9.22908 58.5513 9.41575 58.374C9.60242 58.1967 9.84975 58.108 10.1578 58.108C10.4658 58.108 10.7131 58.1967 10.8998 58.374C11.0958 58.5513 11.1938 58.7753 11.1938 59.046C11.1938 59.3167 11.0958 59.536 10.8998 59.704C10.7131 59.872 10.4658 59.956 10.1578 59.956C9.84975 59.956 9.60242 59.872 9.41575 59.704C9.22908 59.536 9.13575 59.3167 9.13575 59.046ZM10.9558 61.286V69H9.35975V61.286H10.9558ZM16.2811 61.188C16.9811 61.188 17.5784 61.3607 18.0731 61.706C18.5678 62.0513 18.9178 62.5087 19.1231 63.078V61.286H20.7191V69.084C20.7191 69.8027 20.5698 70.4373 20.2711 70.988C19.9818 71.548 19.5618 71.9867 19.0111 72.304C18.4604 72.6213 17.8071 72.78 17.0511 72.78C15.9684 72.78 15.0911 72.5233 14.4191 72.01C13.7564 71.4967 13.3411 70.8013 13.1731 69.924H14.7551C14.8858 70.3813 15.1378 70.736 15.5111 70.988C15.8844 71.2493 16.3604 71.38 16.9391 71.38C17.5738 71.38 18.0964 71.184 18.5071 70.792C18.9178 70.4 19.1231 69.8307 19.1231 69.084V67.208C18.9178 67.7773 18.5678 68.2347 18.0731 68.58C17.5784 68.9253 16.9811 69.098 16.2811 69.098C15.6091 69.098 15.0071 68.9393 14.4751 68.622C13.9524 68.3047 13.5418 67.8473 13.2431 67.25C12.9444 66.6527 12.7951 65.948 12.7951 65.136C12.7951 64.3333 12.9444 63.6333 13.2431 63.036C13.5418 62.4387 13.9524 61.9813 14.4751 61.664C15.0071 61.3467 15.6091 61.188 16.2811 61.188ZM16.7711 62.588C16.0618 62.588 15.4924 62.8167 15.0631 63.274C14.6431 63.722 14.4331 64.3427 14.4331 65.136C14.4331 65.9293 14.6431 66.5547 15.0631 67.012C15.4924 67.46 16.0618 67.684 16.7711 67.684C17.2191 67.684 17.6204 67.5813 17.9751 67.376C18.3298 67.1613 18.6098 66.8627 18.8151 66.48C19.0204 66.0973 19.1231 65.6493 19.1231 65.136C19.1231 64.632 19.0204 64.1887 18.8151 63.806C18.6098 63.414 18.3298 63.1153 17.9751 62.91C17.6204 62.6953 17.2191 62.588 16.7711 62.588ZM27.2464 61.16C28.1424 61.16 28.861 61.4493 29.4024 62.028C29.9437 62.6067 30.2144 63.4327 30.2144 64.506V69H28.6184V64.674C28.6184 63.9833 28.441 63.4513 28.0864 63.078C27.7317 62.6953 27.2464 62.504 26.6304 62.504C25.9957 62.504 25.487 62.7093 25.1044 63.12C24.7217 63.5213 24.5304 64.114 24.5304 64.898V69H22.9344V61.286H24.5304V62.98C24.7357 62.4013 25.081 61.9533 25.5664 61.636C26.0517 61.3187 26.6117 61.16 27.2464 61.16ZM37.4881 59.116V64.982C37.4881 65.8593 37.6794 66.5127 38.0621 66.942C38.4541 67.3713 39.0001 67.586 39.7001 67.586C40.3908 67.586 40.9274 67.3713 41.3101 66.942C41.7021 66.5127 41.8981 65.8593 41.8981 64.982V59.116H43.4941V64.982C43.4941 66.3353 43.1441 67.362 42.4441 68.062C41.7441 68.7527 40.8201 69.098 39.6721 69.098C38.5334 69.098 37.6188 68.7527 36.9281 68.062C36.2374 67.362 35.8921 66.3353 35.8921 64.982V59.116H37.4881ZM50.0787 61.188C50.7507 61.188 51.348 61.3467 51.8707 61.664C52.4027 61.9813 52.818 62.4387 53.1167 63.036C53.4153 63.6333 53.5647 64.3333 53.5647 65.136C53.5647 65.948 53.4153 66.6527 53.1167 67.25C52.818 67.8473 52.4027 68.3047 51.8707 68.622C51.348 68.9393 50.7507 69.098 50.0787 69.098C49.3787 69.098 48.7813 68.9253 48.2867 68.58C47.792 68.2347 47.4467 67.7773 47.2507 67.208V72.668H45.6547V61.286H47.2507V63.078C47.4467 62.5087 47.792 62.0513 48.2867 61.706C48.7813 61.3607 49.3787 61.188 50.0787 61.188ZM49.5887 62.588C49.1407 62.588 48.7393 62.6953 48.3847 62.91C48.03 63.1153 47.75 63.414 47.5447 63.806C47.3393 64.1887 47.2367 64.632 47.2367 65.136C47.2367 65.6493 47.3393 66.0973 47.5447 66.48C47.75 66.8627 48.03 67.1613 48.3847 67.376C48.7393 67.5813 49.1407 67.684 49.5887 67.684C50.298 67.684 50.8673 67.46 51.2967 67.012C51.726 66.5547 51.9407 65.9293 51.9407 65.136C51.9407 64.352 51.726 63.7313 51.2967 63.274C50.8673 62.8167 50.298 62.588 49.5887 62.588Z" fill="white"/>
<path d="M179.349 50.404V53.4H182.989V54.632H179.349V57.698H183.409V59H177.753V49.116H183.409V50.404H179.349ZM194.904 51.16C195.818 51.16 196.546 51.4493 197.088 52.028C197.638 52.6067 197.914 53.4327 197.914 54.506V59H196.318V54.674C196.318 54.002 196.15 53.484 195.814 53.12C195.478 52.7467 195.016 52.56 194.428 52.56C193.802 52.56 193.303 52.7607 192.93 53.162C192.566 53.554 192.384 54.1327 192.384 54.898V59H190.788V54.674C190.788 54.002 190.62 53.484 190.284 53.12C189.948 52.7467 189.486 52.56 188.898 52.56C188.272 52.56 187.773 52.7607 187.4 53.162C187.036 53.554 186.854 54.1327 186.854 54.898V59H185.258V51.286H186.854V52.896C187.05 52.336 187.376 51.9067 187.834 51.608C188.291 51.3093 188.828 51.16 189.444 51.16C190.088 51.16 190.643 51.3187 191.11 51.636C191.586 51.9533 191.931 52.4107 192.146 53.008C192.37 52.4293 192.729 51.9767 193.224 51.65C193.718 51.3233 194.278 51.16 194.904 51.16ZM203.171 51.188C203.871 51.188 204.469 51.3607 204.963 51.706C205.458 52.0513 205.808 52.5087 206.013 53.078V51.286H207.609V59H206.013V57.208C205.808 57.7773 205.458 58.2347 204.963 58.58C204.469 58.9253 203.871 59.098 203.171 59.098C202.499 59.098 201.897 58.9393 201.365 58.622C200.843 58.3047 200.432 57.8473 200.133 57.25C199.835 56.6527 199.685 55.948 199.685 55.136C199.685 54.3333 199.835 53.6333 200.133 53.036C200.432 52.4387 200.843 51.9813 201.365 51.664C201.897 51.3467 202.499 51.188 203.171 51.188ZM203.661 52.588C202.952 52.588 202.383 52.8167 201.953 53.274C201.533 53.722 201.323 54.3427 201.323 55.136C201.323 55.9293 201.533 56.5547 201.953 57.012C202.383 57.46 202.952 57.684 203.661 57.684C204.109 57.684 204.511 57.5813 204.865 57.376C205.22 57.1613 205.5 56.8627 205.705 56.48C205.911 56.0973 206.013 55.6493 206.013 55.136C206.013 54.632 205.911 54.1887 205.705 53.806C205.5 53.414 205.22 53.1153 204.865 52.91C204.511 52.6953 204.109 52.588 203.661 52.588ZM209.601 49.046C209.601 48.7753 209.694 48.5513 209.881 48.374C210.067 48.1967 210.315 48.108 210.623 48.108C210.931 48.108 211.178 48.1967 211.365 48.374C211.561 48.5513 211.659 48.7753 211.659 49.046C211.659 49.3167 211.561 49.536 211.365 49.704C211.178 49.872 210.931 49.956 210.623 49.956C210.315 49.956 210.067 49.872 209.881 49.704C209.694 49.536 209.601 49.3167 209.601 49.046ZM211.421 51.286V59H209.825V51.286H211.421ZM215.248 48.64V59H213.652V48.64H215.248ZM156.314 69.116L159.156 77.292L162.012 69.116H163.748L160.178 79H158.134L154.578 69.116H156.314ZM172.399 74.772C172.399 75.0333 172.381 75.262 172.343 75.458H166.407C166.435 76.2513 166.655 76.8393 167.065 77.222C167.476 77.6047 167.985 77.796 168.591 77.796C169.123 77.796 169.571 77.6607 169.935 77.39C170.309 77.1193 170.537 76.76 170.621 76.312H172.329C172.227 76.8533 172.012 77.334 171.685 77.754C171.359 78.174 170.934 78.5053 170.411 78.748C169.889 78.9813 169.305 79.098 168.661 79.098C167.915 79.098 167.252 78.9393 166.673 78.622C166.104 78.3047 165.656 77.8473 165.329 77.25C165.003 76.6527 164.839 75.948 164.839 75.136C164.839 74.3333 165.003 73.6333 165.329 73.036C165.656 72.4387 166.104 71.9813 166.673 71.664C167.252 71.3467 167.915 71.188 168.661 71.188C169.417 71.188 170.075 71.3467 170.635 71.664C171.205 71.972 171.639 72.4013 171.937 72.952C172.245 73.4933 172.399 74.1 172.399 74.772ZM170.789 74.73C170.808 74.226 170.719 73.806 170.523 73.47C170.337 73.1247 170.075 72.8727 169.739 72.714C169.413 72.546 169.053 72.462 168.661 72.462C168.036 72.462 167.513 72.6533 167.093 73.036C166.673 73.4187 166.445 73.9833 166.407 74.73H170.789ZM175.836 72.798C176.098 72.294 176.471 71.8973 176.956 71.608C177.442 71.3093 178.002 71.16 178.636 71.16V72.896H178.16C177.46 72.896 176.896 73.0687 176.466 73.414C176.046 73.75 175.836 74.31 175.836 75.094V79H174.24V71.286H175.836V72.798ZM179.908 69.046C179.908 68.7753 180.001 68.5513 180.188 68.374C180.375 68.1967 180.622 68.108 180.93 68.108C181.238 68.108 181.485 68.1967 181.672 68.374C181.868 68.5513 181.966 68.7753 181.966 69.046C181.966 69.3167 181.868 69.536 181.672 69.704C181.485 69.872 181.238 69.956 180.93 69.956C180.622 69.956 180.375 69.872 180.188 69.704C180.001 69.536 179.908 69.3167 179.908 69.046ZM181.728 71.286V79H180.132V71.286H181.728ZM187.557 69.69C186.932 69.662 186.493 69.7647 186.241 69.998C185.989 70.222 185.863 70.6093 185.863 71.16V71.286H187.557V72.658H185.863V79H184.253V72.658H183.203V71.286H184.253V71.034C184.253 70.0913 184.529 69.3867 185.079 68.92C185.63 68.444 186.456 68.234 187.557 68.29V69.69ZM188.916 69.046C188.916 68.7753 189.01 68.5513 189.196 68.374C189.383 68.1967 189.63 68.108 189.938 68.108C190.246 68.108 190.494 68.1967 190.68 68.374C190.876 68.5513 190.974 68.7753 190.974 69.046C190.974 69.3167 190.876 69.536 190.68 69.704C190.494 69.872 190.246 69.956 189.938 69.956C189.63 69.956 189.383 69.872 189.196 69.704C189.01 69.536 188.916 69.3167 188.916 69.046ZM190.736 71.286V79H189.14V71.286H190.736ZM196.398 71.188C197.396 71.188 198.222 71.454 198.876 71.986C199.529 72.5087 199.935 73.2227 200.094 74.128H198.4C198.306 73.6427 198.078 73.2647 197.714 72.994C197.359 72.714 196.911 72.574 196.37 72.574C195.754 72.574 195.24 72.7933 194.83 73.232C194.419 73.6613 194.214 74.296 194.214 75.136C194.214 75.976 194.419 76.6153 194.83 77.054C195.24 77.4927 195.754 77.712 196.37 77.712C196.911 77.712 197.359 77.572 197.714 77.292C198.078 77.012 198.306 76.6293 198.4 76.144H200.094C199.935 77.0493 199.529 77.768 198.876 78.3C198.222 78.832 197.396 79.098 196.398 79.098C195.651 79.098 194.988 78.9393 194.41 78.622C193.84 78.3047 193.392 77.8473 193.066 77.25C192.739 76.6527 192.576 75.948 192.576 75.136C192.576 74.3333 192.739 73.6333 193.066 73.036C193.392 72.4387 193.84 71.9813 194.41 71.664C194.988 71.3467 195.651 71.188 196.398 71.188ZM205.03 71.188C205.73 71.188 206.327 71.3607 206.822 71.706C207.316 72.0513 207.666 72.5087 207.872 73.078V71.286H209.468V79H207.872V77.208C207.666 77.7773 207.316 78.2347 206.822 78.58C206.327 78.9253 205.73 79.098 205.03 79.098C204.358 79.098 203.756 78.9393 203.224 78.622C202.701 78.3047 202.29 77.8473 201.992 77.25C201.693 76.6527 201.544 75.948 201.544 75.136C201.544 74.3333 201.693 73.6333 201.992 73.036C202.29 72.4387 202.701 71.9813 203.224 71.664C203.756 71.3467 204.358 71.188 205.03 71.188ZM205.52 72.588C204.81 72.588 204.241 72.8167 203.812 73.274C203.392 73.722 203.182 74.3427 203.182 75.136C203.182 75.9293 203.392 76.5547 203.812 77.012C204.241 77.46 204.81 77.684 205.52 77.684C205.968 77.684 206.369 77.5813 206.724 77.376C207.078 77.1613 207.358 76.8627 207.564 76.48C207.769 76.0973 207.872 75.6493 207.872 75.136C207.872 74.632 207.769 74.1887 207.564 73.806C207.358 73.414 207.078 73.1153 206.724 72.91C206.369 72.6953 205.968 72.588 205.52 72.588ZM215.561 77.614V79H214.581C213.759 79 213.134 78.804 212.705 78.412C212.285 78.0107 212.075 77.348 212.075 76.424V72.644H210.969V71.286H212.075V69.368H213.685V71.286H215.547V72.644H213.685V76.452C213.685 76.8907 213.764 77.194 213.923 77.362C214.091 77.53 214.38 77.614 214.791 77.614H215.561ZM217.132 69.046C217.132 68.7753 217.225 68.5513 217.412 68.374C217.599 68.1967 217.846 68.108 218.154 68.108C218.462 68.108 218.709 68.1967 218.896 68.374C219.092 68.5513 219.19 68.7753 219.19 69.046C219.19 69.3167 219.092 69.536 218.896 69.704C218.709 69.872 218.462 69.956 218.154 69.956C217.846 69.956 217.599 69.872 217.412 69.704C217.225 69.536 217.132 69.3167 217.132 69.046ZM218.952 71.286V79H217.356V71.286H218.952ZM224.711 71.188C225.458 71.188 226.13 71.3467 226.727 71.664C227.325 71.9813 227.791 72.4387 228.127 73.036C228.463 73.6333 228.631 74.3333 228.631 75.136C228.631 75.948 228.463 76.6527 228.127 77.25C227.791 77.8473 227.325 78.3047 226.727 78.622C226.13 78.9393 225.458 79.098 224.711 79.098C223.965 79.098 223.293 78.9393 222.695 78.622C222.107 78.3047 221.641 77.8473 221.295 77.25C220.959 76.6433 220.791 75.9387 220.791 75.136C220.791 74.3333 220.959 73.6333 221.295 73.036C221.641 72.4387 222.107 71.9813 222.695 71.664C223.293 71.3467 223.965 71.188 224.711 71.188ZM224.711 72.574C224.301 72.574 223.923 72.6673 223.577 72.854C223.232 73.0407 222.952 73.33 222.737 73.722C222.532 74.1047 222.429 74.576 222.429 75.136C222.429 75.7053 222.532 76.1813 222.737 76.564C222.952 76.9467 223.232 77.2313 223.577 77.418C223.923 77.6047 224.301 77.698 224.711 77.698C225.122 77.698 225.5 77.6047 225.845 77.418C226.191 77.2313 226.466 76.9467 226.671 76.564C226.886 76.1813 226.993 75.7053 226.993 75.136C226.993 74.576 226.886 74.1047 226.671 73.722C226.466 73.33 226.191 73.0407 225.845 72.854C225.5 72.6673 225.122 72.574 224.711 72.574ZM234.778 71.16C235.674 71.16 236.392 71.4493 236.934 72.028C237.475 72.6067 237.746 73.4327 237.746 74.506V79H236.15V74.674C236.15 73.9833 235.972 73.4513 235.618 73.078C235.263 72.6953 234.778 72.504 234.162 72.504C233.527 72.504 233.018 72.7093 232.636 73.12C232.253 73.5213 232.062 74.114 232.062 74.898V79H230.466V71.286H232.062V72.98C232.267 72.4013 232.612 71.9533 233.098 71.636C233.583 71.3187 234.143 71.16 234.778 71.16Z" fill="white"/>
</svg>
