<svg width="151" height="91" viewBox="0 0 151 91" fill="none" xmlns="http://www.w3.org/2000/svg">
<path d="M59.4134 80.9929C59.1951 80.2409 58.9844 79.4856 58.7812 78.7271L59.536 78.5249C59.7377 79.2781 59.947 80.0281 60.1638 80.775L59.4134 80.9929Z" fill="#CCCCCC"/>
<path d="M144.357 11.1348H137.13V72.2785C137.128 73.8322 136.51 75.3217 135.411 76.4203C134.312 77.519 132.823 78.137 131.269 78.1389H13.084V83.4133C13.0865 85.174 13.787 86.862 15.0321 88.107C16.2771 89.3521 17.965 90.0526 19.7258 90.0551H144.357C146.118 90.0526 147.806 89.3521 149.051 88.107C150.296 86.862 150.997 85.174 150.999 83.4133V17.7766C150.997 16.0158 150.296 14.3279 149.051 13.0829C147.806 11.8378 146.118 11.1373 144.357 11.1348Z" fill="#253B5E"/>
<path d="M131.273 0H6.64181C4.88106 0.00249083 3.19313 0.703055 1.94809 1.9481C0.703049 3.19314 0.00249083 4.88106 0 6.64181V72.2785C0.00249186 74.0393 0.703055 75.7272 1.9481 76.9722C3.19314 78.2173 4.88106 78.9178 6.64181 78.9203H131.273C133.034 78.9178 134.722 78.2173 135.967 76.9722C137.212 75.7272 137.913 74.0393 137.915 72.2785V6.64181C137.913 4.88106 137.212 3.19314 135.967 1.9481C134.722 0.703055 133.034 0.00249083 131.273 0ZM137.134 72.2785C137.132 73.8322 136.514 75.3217 135.415 76.4204C134.317 77.519 132.827 78.137 131.273 78.1389H6.64181C5.08811 78.137 3.59859 77.519 2.49995 76.4204C1.40132 75.3217 0.783279 73.8322 0.781389 72.2785V6.64181C0.783279 5.08811 1.40132 3.59859 2.49995 2.49995C3.59859 1.40132 5.08811 0.783279 6.64181 0.781389H131.273C132.827 0.783279 134.317 1.40132 135.415 2.49995C136.514 3.59859 137.132 5.08811 137.134 6.64181V72.2785Z" fill="#C5CEDD"/>
<path d="M121.872 48.4462H78.1138C77.2849 48.4462 76.4899 48.1169 75.9037 47.5307C75.3176 46.9446 74.9883 46.1496 74.9883 45.3206C74.9883 44.4917 75.3176 43.6967 75.9037 43.1105C76.4899 42.5244 77.2849 42.1951 78.1138 42.1951H121.872C122.701 42.1951 123.496 42.5244 124.082 43.1105C124.668 43.6967 124.997 44.4917 124.997 45.3206C124.997 46.1496 124.668 46.9446 124.082 47.5307C123.496 48.1169 122.701 48.4462 121.872 48.4462Z" fill="#7889A7"/>
<path d="M94.523 35.1627H78.1138C77.2849 35.1627 76.4899 34.8334 75.9037 34.2473C75.3176 33.6611 74.9883 32.8661 74.9883 32.0372C74.9883 31.2082 75.3176 30.4132 75.9037 29.8271C76.4899 29.2409 77.2849 28.9116 78.1138 28.9116H94.523C95.352 28.9116 96.147 29.2409 96.7331 29.8271C97.3193 30.4132 97.6486 31.2082 97.6486 32.0372C97.6486 32.8661 97.3193 33.6611 96.7331 34.2473C96.147 34.8334 95.352 35.1627 94.523 35.1627Z" fill="#CAEDF3"/>
<path d="M58.4081 64.0738H18.5572C17.6768 64.0728 16.8327 63.7226 16.2101 63.1C15.5875 62.4774 15.2373 61.6333 15.2363 60.7528V16.6044C15.2373 15.7239 15.5875 14.8798 16.2101 14.2572C16.8327 13.6346 17.6768 13.2844 18.5572 13.2834H58.4081C59.2885 13.2844 60.1326 13.6346 60.7552 14.2572C61.3778 14.8798 61.728 15.7239 61.729 16.6044V60.7528C61.728 61.6333 61.3778 62.4774 60.7552 63.1C60.1326 63.7226 59.2885 64.0728 58.4081 64.0738Z" fill="#4D6080"/>
</svg>
