<svg width="554" height="284" viewBox="0 0 554 284" fill="none" xmlns="http://www.w3.org/2000/svg">
<path d="M61.7334 243.21H62.3411C60.7281 238.531 57.6939 234.472 53.6617 231.598C49.6294 228.725 44.8002 227.181 39.8475 227.181C34.8948 227.181 30.0656 228.725 26.0334 231.598C22.0012 234.472 18.967 238.531 17.354 243.21H15.3676C13.6127 243.208 11.8747 243.552 10.2529 244.222C8.63115 244.892 7.15743 245.875 5.91598 247.114C4.67453 248.353 3.6897 249.825 3.01777 251.445C2.34584 253.065 2 254.801 2 256.554V259.8H75.0893V256.554C75.0893 254.802 74.7439 253.067 74.0727 251.447C73.4015 249.828 72.4177 248.357 71.1775 247.118C69.9373 245.879 68.4649 244.896 66.8445 244.225C65.2241 243.555 63.4874 243.21 61.7334 243.21Z" fill="#182641" stroke="#374C75" stroke-width="2.42" stroke-linecap="round" stroke-linejoin="round"/>
<path d="M60.004 244.529H60.4247C59.2742 241.186 57.1075 238.285 54.2271 236.231C51.3468 234.177 47.8965 233.073 44.3579 233.073C40.8193 233.073 37.369 234.177 34.4886 236.231C31.6083 238.285 29.4416 241.186 28.2911 244.529H26.8772C24.3484 244.529 21.9231 245.533 20.135 247.32C18.3469 249.106 17.3423 251.53 17.3423 254.056V256.391H69.5389V254.056C69.5389 252.805 69.2923 251.566 68.8131 250.411C68.334 249.255 67.6316 248.204 66.7462 247.32C65.8608 246.435 64.8097 245.733 63.6529 245.255C62.496 244.776 61.2562 244.529 60.004 244.529Z" fill="#3A4E75"/>
<path d="M542.924 22.9817H543.333C542.228 19.7762 540.149 16.9953 537.386 15.0267C534.624 13.0581 531.315 12 527.922 12C524.529 12 521.22 13.0581 518.458 15.0267C515.695 16.9953 513.616 19.7762 512.511 22.9817H511.15C508.724 22.9817 506.396 23.9449 504.68 25.6595C502.964 27.3741 502 29.6995 502 32.1243V34.348H552.043V32.1243C552.043 29.7051 551.083 27.3844 549.374 25.6708C547.665 23.9571 545.346 22.9902 542.924 22.9817Z" fill="#182641" stroke="#374C75" stroke-width="2.42" stroke-linecap="round" stroke-linejoin="round"/>
<path d="M541.739 23.8859H542.028C541.239 21.5952 539.755 19.6076 537.782 18.2005C535.808 16.7934 533.444 16.0371 531.02 16.0371C528.596 16.0371 526.232 16.7934 524.258 18.2005C522.285 19.6076 520.801 21.5952 520.012 23.8859H519.044C517.311 23.8859 515.65 24.5736 514.425 25.7976C513.199 27.0217 512.511 28.6819 512.511 30.4129V32.0127H548.28V30.4129C548.278 28.6811 547.588 27.021 546.361 25.7971C545.135 24.5733 543.473 23.8859 541.739 23.8859Z" fill="#3A4E75"/>
<path d="M427.741 216.288H404.792C404.526 216.288 404.27 216.393 404.081 216.582C403.893 216.77 403.787 217.025 403.787 217.292C403.787 217.558 403.893 217.813 404.081 218.002C404.27 218.19 404.526 218.296 404.792 218.296H427.741C428.008 218.296 428.263 218.19 428.452 218.002C428.64 217.813 428.746 217.558 428.746 217.292C428.746 217.025 428.64 216.77 428.452 216.582C428.263 216.393 428.008 216.288 427.741 216.288Z" fill="#374C75"/>
<path d="M397.477 216.288H393.025C392.758 216.288 392.503 216.393 392.314 216.582C392.126 216.77 392.02 217.025 392.02 217.292C392.02 217.558 392.126 217.813 392.314 218.002C392.503 218.19 392.758 218.296 393.025 218.296H397.512C397.778 218.296 398.034 218.19 398.223 218.002C398.411 217.813 398.517 217.558 398.517 217.292C398.517 217.025 398.411 216.77 398.223 216.582C398.034 216.393 397.778 216.288 397.512 216.288H397.477Z" fill="#374C75"/>
<path d="M416.956 224.284C416.956 224.551 416.85 224.806 416.661 224.994C416.473 225.183 416.217 225.288 415.951 225.288H413.076C412.81 225.288 412.554 225.183 412.366 224.994C412.177 224.806 412.071 224.551 412.071 224.284C412.071 224.018 412.177 223.763 412.366 223.574C412.554 223.386 412.81 223.28 413.076 223.28H415.951C416.083 223.279 416.215 223.304 416.337 223.354C416.46 223.404 416.571 223.477 416.665 223.571C416.758 223.664 416.832 223.776 416.882 223.898C416.932 224.021 416.957 224.152 416.956 224.284ZM409.068 224.284C409.065 224.55 408.958 224.803 408.771 224.991C408.583 225.179 408.329 225.285 408.063 225.288H403.039C402.772 225.288 402.517 225.183 402.328 224.994C402.14 224.806 402.034 224.551 402.034 224.284C402.034 224.018 402.14 223.763 402.328 223.574C402.517 223.386 402.772 223.28 403.039 223.28H408.063C408.33 223.28 408.586 223.386 408.774 223.574C408.962 223.763 409.068 224.018 409.068 224.284ZM399.019 224.284C399.019 224.416 398.993 224.547 398.943 224.669C398.892 224.79 398.818 224.901 398.725 224.994C398.632 225.088 398.521 225.162 398.399 225.212C398.277 225.262 398.146 225.288 398.014 225.288H393.025C392.758 225.288 392.503 225.183 392.314 224.994C392.126 224.806 392.02 224.551 392.02 224.284C392.02 224.018 392.126 223.763 392.314 223.574C392.503 223.386 392.758 223.28 393.025 223.28H398.049C398.311 223.286 398.559 223.395 398.741 223.583C398.922 223.771 399.022 224.023 399.019 224.284Z" fill="#374C75"/>
<path d="M432.029 236.987C431.763 236.99 431.509 237.097 431.322 237.285C431.134 237.472 431.027 237.726 431.024 237.991V240.326C431.024 240.593 431.13 240.848 431.318 241.036C431.507 241.225 431.762 241.33 432.029 241.33C432.295 241.33 432.551 241.225 432.739 241.036C432.928 240.848 433.034 240.593 433.034 240.326V237.991C433.034 237.725 432.928 237.47 432.739 237.281C432.551 237.093 432.295 236.987 432.029 236.987Z" fill="#374C75"/>
<path d="M429.4 234.652H427.063C426.797 234.652 426.541 234.758 426.352 234.946C426.164 235.135 426.058 235.39 426.058 235.656C426.058 235.923 426.164 236.178 426.352 236.366C426.541 236.555 426.797 236.66 427.063 236.66H429.4C429.667 236.66 429.922 236.555 430.111 236.366C430.299 236.178 430.405 235.923 430.405 235.656C430.405 235.39 430.299 235.135 430.111 234.946C429.922 234.758 429.667 234.652 429.4 234.652Z" fill="#374C75"/>
<path d="M432.029 229.831C431.763 229.834 431.509 229.94 431.322 230.128C431.134 230.316 431.027 230.569 431.024 230.835V233.17C431.024 233.436 431.13 233.691 431.318 233.88C431.507 234.068 431.762 234.174 432.029 234.174C432.295 234.174 432.551 234.068 432.739 233.88C432.928 233.691 433.034 233.436 433.034 233.17V230.835C433.034 230.568 432.928 230.313 432.739 230.125C432.551 229.936 432.295 229.831 432.029 229.831Z" fill="#374C75"/>
<path d="M436.995 234.501H434.658C434.392 234.501 434.136 234.607 433.948 234.795C433.759 234.983 433.653 235.239 433.653 235.505C433.653 235.771 433.759 236.027 433.948 236.215C434.136 236.403 434.392 236.509 434.658 236.509H436.995C437.262 236.509 437.517 236.403 437.706 236.215C437.894 236.027 438 235.771 438 235.505C438 235.239 437.894 234.983 437.706 234.795C437.517 234.607 437.262 234.501 436.995 234.501Z" fill="#374C75"/>
<path d="M399.861 40.0653C400.127 40.0623 400.381 39.9555 400.569 39.7679C400.756 39.5802 400.863 39.3266 400.866 39.0612V36.7262C400.866 36.4599 400.76 36.2046 400.572 36.0163C400.383 35.828 400.128 35.7222 399.861 35.7222C399.595 35.7222 399.339 35.828 399.151 36.0163C398.962 36.2046 398.856 36.4599 398.856 36.7262V39.0612C398.856 39.3275 398.962 39.5829 399.151 39.7712C399.339 39.9595 399.595 40.0653 399.861 40.0653Z" fill="#374C75"/>
<path d="M402.49 42.4002H404.827C404.959 42.4002 405.09 42.3742 405.212 42.3238C405.334 42.2733 405.445 42.1994 405.538 42.1061C405.631 42.0129 405.705 41.9022 405.756 41.7804C405.806 41.6586 405.832 41.528 405.832 41.3961C405.832 41.2643 405.806 41.1337 405.756 41.0119C405.705 40.8901 405.631 40.7794 405.538 40.6862C405.445 40.5929 405.334 40.519 405.212 40.4685C405.09 40.4181 404.959 40.3921 404.827 40.3921H402.49C402.224 40.3921 401.968 40.4979 401.78 40.6862C401.591 40.8745 401.485 41.1299 401.485 41.3961C401.485 41.6624 401.591 41.9178 401.78 42.1061C401.968 42.2944 402.224 42.4002 402.49 42.4002Z" fill="#374C75"/>
<path d="M399.861 47.222C400.127 47.219 400.381 47.1122 400.569 46.9246C400.756 46.737 400.863 46.4833 400.866 46.218V43.883C400.866 43.6167 400.76 43.3613 400.572 43.173C400.383 42.9847 400.128 42.8789 399.861 42.8789C399.595 42.8789 399.339 42.9847 399.151 43.173C398.962 43.3613 398.856 43.6167 398.856 43.883V46.218C398.856 46.4843 398.962 46.7397 399.151 46.928C399.339 47.1163 399.595 47.222 399.861 47.222Z" fill="#374C75"/>
<path d="M394.895 2.55159H397.232C397.372 2.56677 397.514 2.55227 397.648 2.50902C397.783 2.46578 397.906 2.39476 398.011 2.3006C398.116 2.20643 398.2 2.09123 398.258 1.96248C398.315 1.83374 398.345 1.69435 398.345 1.55338C398.345 1.4124 398.315 1.273 398.258 1.14426C398.2 1.01552 398.116 0.90032 398.011 0.806155C397.906 0.71199 397.783 0.640968 397.648 0.597723C397.514 0.554477 397.372 0.539975 397.232 0.555154H394.895C394.755 0.539975 394.613 0.554477 394.478 0.597723C394.344 0.640968 394.22 0.71199 394.115 0.806155C394.01 0.90032 393.926 1.01552 393.869 1.14426C393.811 1.273 393.782 1.4124 393.782 1.55338C393.782 1.69435 393.811 1.83374 393.869 1.96248C393.926 2.09123 394.01 2.20643 394.115 2.3006C394.22 2.39476 394.344 2.46578 394.478 2.50902C394.613 2.55227 394.755 2.56677 394.895 2.55159Z" fill="#374C75"/>
<path d="M28.8638 37.8802H51.8247C52.0912 37.8802 52.3468 37.7744 52.5353 37.5861C52.7237 37.3978 52.8296 37.1424 52.8296 36.8761C52.8296 36.6098 52.7237 36.3545 52.5353 36.1662C52.3468 35.9779 52.0912 35.8721 51.8247 35.8721H28.8638C28.5973 35.8721 28.3417 35.9779 28.1532 36.1662C27.9648 36.3545 27.8589 36.6098 27.8589 36.8761C27.8589 37.1424 27.9648 37.3978 28.1532 37.5861C28.3417 37.7744 28.5973 37.8802 28.8638 37.8802Z" fill="#374C75"/>
<path d="M17.0738 37.8802H21.5608C21.8273 37.8802 22.0829 37.7744 22.2713 37.5861C22.4598 37.3978 22.5657 37.1424 22.5657 36.8761C22.5657 36.6098 22.4598 36.3545 22.2713 36.1662C22.0829 35.9779 21.8273 35.8721 21.5608 35.8721H17.0738C16.8072 35.8721 16.5516 35.9779 16.3632 36.1662C16.1747 36.3545 16.0688 36.6098 16.0688 36.8761C16.0688 37.1424 16.1747 37.3978 16.3632 37.5861C16.5516 37.7744 16.8072 37.8802 17.0738 37.8802Z" fill="#374C75"/>
<path d="M390.688 84.7559C390.688 84.7559 391.167 88.165 387.183 88.0833C387.183 88.0833 390.606 88.0833 390.513 91.3173C390.68 90.5018 391.105 89.7617 391.726 89.2066C392.347 88.6515 393.13 88.3109 393.96 88.235C393.96 88.235 391.307 88.8421 390.688 84.7559Z" fill="#374C75"/>
<path d="M11.1608 83.4131C11.1608 83.4131 11.6398 86.8105 7.65527 86.7405C7.65527 86.7405 11.079 86.7405 10.9855 89.9745C11.1556 89.1501 11.5897 88.4034 12.2221 87.8474C12.8546 87.2913 13.651 86.956 14.491 86.8923C14.491 86.8923 11.7801 87.5227 11.1608 83.4131Z" fill="#374C75"/>
<path d="M42.979 217.781C42.979 217.116 43.1764 216.466 43.5462 215.913C43.916 215.36 44.4415 214.929 45.0564 214.675C45.6714 214.42 46.348 214.354 47.0008 214.484C47.6536 214.613 48.2532 214.934 48.7239 215.404C49.1945 215.874 49.515 216.473 49.6449 217.125C49.7747 217.778 49.7081 218.454 49.4534 219.068C49.1987 219.683 48.7673 220.208 48.2139 220.577C47.6605 220.947 47.0099 221.144 46.3443 221.144C45.4527 221.141 44.5985 220.785 43.9681 220.156C43.3376 219.526 42.9821 218.672 42.979 217.781ZM44.6383 217.781C44.6188 218.016 44.6482 218.253 44.7248 218.476C44.8014 218.699 44.9234 218.903 45.0832 219.077C45.243 219.25 45.4371 219.389 45.6531 219.483C45.8692 219.578 46.1025 219.627 46.3384 219.627C46.5744 219.627 46.8077 219.578 47.0238 219.483C47.2398 219.389 47.4339 219.25 47.5936 219.077C47.7534 218.903 47.8755 218.699 47.952 218.476C48.0286 218.253 48.0581 218.016 48.0386 217.781C48.0032 217.355 47.8088 216.958 47.4938 216.668C47.1789 216.379 46.7665 216.218 46.3384 216.218C45.9104 216.218 45.498 216.379 45.1831 216.668C44.8681 216.958 44.6737 217.355 44.6383 217.781Z" fill="#374C75"/>
<path d="M330.896 152.226C330.896 151.561 331.094 150.911 331.464 150.358C331.833 149.805 332.359 149.374 332.974 149.12C333.589 148.865 334.265 148.799 334.918 148.928C335.571 149.058 336.171 149.378 336.641 149.849C337.112 150.319 337.433 150.918 337.562 151.57C337.692 152.222 337.626 152.899 337.371 153.513C337.116 154.127 336.685 154.652 336.131 155.022C335.578 155.391 334.927 155.589 334.262 155.589C333.369 155.589 332.513 155.234 331.882 154.604C331.251 153.973 330.896 153.118 330.896 152.226ZM332.567 152.226C332.567 152.561 332.667 152.888 332.853 153.167C333.039 153.445 333.304 153.662 333.613 153.79C333.923 153.918 334.264 153.952 334.592 153.887C334.921 153.821 335.223 153.66 335.46 153.423C335.697 153.186 335.858 152.885 335.924 152.556C335.989 152.228 335.955 151.888 335.827 151.578C335.699 151.269 335.482 151.005 335.203 150.819C334.924 150.633 334.597 150.533 334.262 150.533C333.812 150.533 333.381 150.712 333.064 151.029C332.746 151.347 332.567 151.777 332.567 152.226Z" fill="#374C75"/>
<path d="M228.723 252.702C228.723 252.037 228.92 251.387 229.29 250.834C229.66 250.281 230.185 249.85 230.8 249.596C231.415 249.341 232.092 249.275 232.744 249.404C233.397 249.534 233.997 249.854 234.467 250.325C234.938 250.795 235.259 251.394 235.389 252.046C235.518 252.699 235.452 253.375 235.197 253.989C234.942 254.603 234.511 255.129 233.958 255.498C233.404 255.867 232.753 256.065 232.088 256.065C231.195 256.065 230.339 255.71 229.708 255.08C229.077 254.449 228.723 253.594 228.723 252.702ZM230.382 252.702C230.382 253.039 230.482 253.369 230.669 253.649C230.857 253.93 231.123 254.148 231.435 254.277C231.747 254.406 232.09 254.44 232.421 254.374C232.752 254.308 233.056 254.146 233.294 253.908C233.533 253.669 233.695 253.365 233.761 253.035C233.827 252.704 233.793 252.361 233.664 252.05C233.535 251.739 233.316 251.472 233.036 251.285C232.755 251.098 232.425 250.998 232.088 250.998C231.635 250.998 231.201 251.177 230.882 251.497C230.562 251.817 230.382 252.25 230.382 252.702Z" fill="#374C75"/>
<path d="M175.311 26.0299C175.311 25.3649 175.508 24.7148 175.878 24.1618C176.248 23.6089 176.774 23.1779 177.388 22.9234C178.003 22.6689 178.68 22.6024 179.333 22.7321C179.986 22.8618 180.585 23.1821 181.056 23.6523C181.527 24.1226 181.847 24.7217 181.977 25.3739C182.107 26.0262 182.04 26.7022 181.785 27.3166C181.531 27.931 181.099 28.4562 180.546 28.8257C179.993 29.1951 179.342 29.3923 178.676 29.3923C177.784 29.3923 176.928 29.0381 176.297 28.4075C175.666 27.7769 175.311 26.9217 175.311 26.0299ZM176.982 26.0299C176.984 26.3642 177.086 26.6904 177.273 26.9672C177.461 27.2441 177.726 27.4592 178.036 27.5856C178.346 27.7119 178.686 27.7438 179.014 27.6772C179.342 27.6105 179.643 27.4484 179.878 27.2112C180.114 26.974 180.274 26.6723 180.339 26.3442C180.403 26.0162 180.369 25.6764 180.24 25.3677C180.112 25.0591 179.895 24.7954 179.616 24.6099C179.338 24.4243 179.011 24.3254 178.676 24.3253C178.453 24.3253 178.232 24.3695 178.025 24.4553C177.819 24.5411 177.632 24.6669 177.474 24.8253C177.317 24.9837 177.192 25.1717 177.108 25.3785C177.023 25.5852 176.98 25.8066 176.982 26.0299Z" fill="#374C75"/>
<path d="M293.551 49.4985H289.835C289.615 49.4985 289.404 49.5859 289.248 49.7413C289.093 49.8968 289.005 50.1076 289.005 50.3275C289.005 50.5473 289.093 50.7582 289.248 50.9136C289.404 51.0691 289.615 51.1564 289.835 51.1564H293.551C293.771 51.1564 293.982 51.0691 294.137 50.9136C294.293 50.7582 294.38 50.5473 294.38 50.3275C294.38 50.1076 294.293 49.8968 294.137 49.7413C293.982 49.5859 293.771 49.4985 293.551 49.4985Z" fill="#374C75"/>
<path d="M318.674 49.4985H299.616C299.411 49.5227 299.223 49.6211 299.086 49.7749C298.949 49.9288 298.874 50.1275 298.874 50.3333C298.874 50.5391 298.949 50.7378 299.086 50.8916C299.223 51.0455 299.411 51.1438 299.616 51.1681H318.674C318.792 51.182 318.912 51.1708 319.025 51.1353C319.138 51.0997 319.243 51.0405 319.332 50.9617C319.421 50.8828 319.492 50.786 319.54 50.6777C319.589 50.5694 319.614 50.452 319.614 50.3333C319.614 50.2145 319.589 50.0971 319.54 49.9888C319.492 49.8805 319.421 49.7838 319.332 49.7049C319.243 49.626 319.138 49.5669 319.025 49.5313C318.912 49.4957 318.792 49.4845 318.674 49.4985Z" fill="#374C75"/>
<path d="M309.723 56.1297C309.725 56.2395 309.705 56.3486 309.664 56.4505C309.623 56.5524 309.562 56.6452 309.485 56.7234C309.407 56.8016 309.315 56.8637 309.214 56.9061C309.113 56.9485 309.004 56.9703 308.894 56.9703H306.557C306.439 56.9843 306.319 56.9731 306.206 56.9375C306.092 56.9019 305.988 56.8428 305.899 56.7639C305.81 56.685 305.739 56.5883 305.69 56.48C305.642 56.3717 305.616 56.2543 305.616 56.1355C305.616 56.0168 305.642 55.8994 305.69 55.7911C305.739 55.6828 305.81 55.586 305.899 55.5071C305.988 55.4283 306.092 55.3691 306.206 55.3335C306.319 55.298 306.439 55.2868 306.557 55.3008H308.894C309.114 55.3008 309.325 55.3881 309.48 55.5435C309.636 55.699 309.723 55.9098 309.723 56.1297ZM303.168 56.1297C303.17 56.2395 303.149 56.3486 303.108 56.4505C303.067 56.5524 303.006 56.6452 302.929 56.7234C302.852 56.8016 302.76 56.8637 302.659 56.9061C302.557 56.9485 302.448 56.9703 302.338 56.9703H298.167C297.962 56.9461 297.774 56.8477 297.637 56.6939C297.5 56.54 297.425 56.3413 297.425 56.1355C297.425 55.9297 297.5 55.731 297.637 55.5772C297.774 55.4233 297.962 55.325 298.167 55.3008H302.338C302.447 55.3008 302.555 55.3222 302.656 55.3639C302.757 55.4055 302.848 55.4666 302.925 55.5435C303.002 55.6205 303.063 55.7119 303.105 55.8125C303.147 55.913 303.168 56.0208 303.168 56.1297ZM294.837 56.1297C294.838 56.2395 294.818 56.3486 294.777 56.4505C294.736 56.5524 294.675 56.6452 294.598 56.7234C294.521 56.8016 294.429 56.8637 294.327 56.9061C294.226 56.9485 294.117 56.9703 294.007 56.9703H289.836C289.631 56.9461 289.442 56.8477 289.306 56.6939C289.169 56.54 289.093 56.3413 289.093 56.1355C289.093 55.9297 289.169 55.731 289.306 55.5772C289.442 55.4233 289.631 55.325 289.836 55.3008H294.007C294.119 55.296 294.231 55.314 294.335 55.3535C294.44 55.393 294.536 55.4534 294.617 55.5308C294.697 55.6083 294.762 55.7012 294.805 55.8042C294.849 55.9071 294.872 56.0178 294.872 56.1297H294.837Z" fill="#374C75"/>
<path d="M62.3414 186.294C62.1213 186.294 61.9103 186.382 61.7547 186.537C61.5991 186.693 61.5117 186.904 61.5117 187.123V189.061C61.5117 189.281 61.5991 189.492 61.7547 189.648C61.9103 189.803 62.1213 189.89 62.3414 189.89C62.5614 189.89 62.7724 189.803 62.928 189.648C63.0836 189.492 63.171 189.281 63.171 189.061V187.123C63.171 186.904 63.0836 186.693 62.928 186.537C62.7724 186.382 62.5614 186.294 62.3414 186.294Z" fill="#374C75"/>
<path d="M60.1326 184.356H58.2046C57.9846 184.356 57.7736 184.443 57.618 184.599C57.4624 184.754 57.375 184.965 57.375 185.185C57.375 185.405 57.4624 185.616 57.618 185.771C57.7736 185.927 57.9846 186.014 58.2046 186.014H60.1326C60.3527 186.014 60.5637 185.927 60.7193 185.771C60.8749 185.616 60.9623 185.405 60.9623 185.185C60.9623 184.965 60.8749 184.754 60.7193 184.599C60.5637 184.443 60.3527 184.356 60.1326 184.356Z" fill="#374C75"/>
<path d="M62.3414 180.316C62.1213 180.316 61.9103 180.404 61.7547 180.559C61.5991 180.715 61.5117 180.925 61.5117 181.145V183.083C61.5117 183.303 61.5991 183.514 61.7547 183.67C61.9103 183.825 62.1213 183.912 62.3414 183.912C62.5614 183.912 62.7724 183.825 62.928 183.67C63.0836 183.514 63.171 183.303 63.171 183.083V181.145C63.171 180.925 63.0836 180.715 62.928 180.559C62.7724 180.404 62.5614 180.316 62.3414 180.316Z" fill="#374C75"/>
<path d="M66.4303 184.216H64.5023C64.3843 184.202 64.2647 184.213 64.1513 184.249C64.0379 184.285 63.9334 184.344 63.8445 184.423C63.7557 184.502 63.6846 184.598 63.6359 184.707C63.5872 184.815 63.562 184.932 63.562 185.051C63.562 185.17 63.5872 185.287 63.6359 185.395C63.6846 185.504 63.7557 185.601 63.8445 185.679C63.9334 185.758 64.0379 185.817 64.1513 185.853C64.2647 185.889 64.3843 185.9 64.5023 185.886H66.4303C66.5483 185.9 66.668 185.889 66.7814 185.853C66.8947 185.817 66.9993 185.758 67.0881 185.679C67.177 185.601 67.2481 185.504 67.2968 185.395C67.3454 185.287 67.3706 185.17 67.3706 185.051C67.3706 184.932 67.3454 184.815 67.2968 184.707C67.2481 184.598 67.177 184.502 67.0881 184.423C66.9993 184.344 66.8947 184.285 66.7814 184.249C66.668 184.213 66.5483 184.202 66.4303 184.216Z" fill="#374C75"/>
<path d="M319.631 122.058C319.522 122.058 319.413 122.079 319.311 122.122C319.21 122.164 319.118 122.226 319.041 122.305C318.963 122.383 318.903 122.475 318.862 122.577C318.821 122.679 318.8 122.788 318.802 122.898V124.825C318.802 125.044 318.889 125.255 319.045 125.411C319.2 125.566 319.411 125.654 319.631 125.654C319.851 125.654 320.063 125.566 320.218 125.411C320.374 125.255 320.461 125.044 320.461 124.825V122.898C320.463 122.788 320.442 122.679 320.401 122.577C320.36 122.475 320.299 122.383 320.222 122.305C320.145 122.226 320.053 122.164 319.952 122.122C319.85 122.079 319.741 122.058 319.631 122.058Z" fill="#374C75"/>
<path d="M317.447 120.12H315.519C315.401 120.106 315.281 120.117 315.168 120.153C315.055 120.188 314.95 120.248 314.861 120.326C314.772 120.405 314.701 120.502 314.652 120.61C314.604 120.719 314.579 120.836 314.579 120.955C314.579 121.074 314.604 121.191 314.652 121.299C314.701 121.408 314.772 121.504 314.861 121.583C314.95 121.662 315.055 121.721 315.168 121.757C315.281 121.792 315.401 121.804 315.519 121.79H317.447C317.565 121.804 317.685 121.792 317.798 121.757C317.911 121.721 318.016 121.662 318.105 121.583C318.194 121.504 318.265 121.408 318.313 121.299C318.362 121.191 318.387 121.074 318.387 120.955C318.387 120.836 318.362 120.719 318.313 120.61C318.265 120.502 318.194 120.405 318.105 120.326C318.016 120.248 317.911 120.188 317.798 120.153C317.685 120.117 317.565 120.106 317.447 120.12Z" fill="#374C75"/>
<path d="M319.631 116.104C319.522 116.102 319.413 116.122 319.312 116.163C319.211 116.205 319.119 116.266 319.041 116.343C318.964 116.42 318.903 116.512 318.862 116.613C318.821 116.715 318.8 116.823 318.802 116.933V118.859C318.802 119.079 318.889 119.29 319.045 119.445C319.2 119.601 319.411 119.688 319.631 119.688C319.851 119.688 320.063 119.601 320.218 119.445C320.374 119.29 320.461 119.079 320.461 118.859V116.933C320.461 116.824 320.44 116.716 320.398 116.615C320.356 116.515 320.295 116.423 320.218 116.346C320.141 116.269 320.05 116.208 319.949 116.167C319.848 116.125 319.74 116.104 319.631 116.104Z" fill="#374C75"/>
<path d="M323.745 119.991H321.817C321.699 119.977 321.579 119.988 321.466 120.024C321.352 120.06 321.248 120.119 321.159 120.198C321.07 120.276 320.999 120.373 320.95 120.482C320.902 120.59 320.876 120.707 320.876 120.826C320.876 120.945 320.902 121.062 320.95 121.17C320.999 121.279 321.07 121.375 321.159 121.454C321.248 121.533 321.352 121.592 321.466 121.628C321.579 121.664 321.699 121.675 321.817 121.661H323.745C323.949 121.637 324.138 121.538 324.275 121.384C324.412 121.23 324.487 121.032 324.487 120.826C324.487 120.62 324.412 120.421 324.275 120.268C324.138 120.114 323.949 120.015 323.745 119.991Z" fill="#374C75"/>
<path d="M217.12 41.7329C216.9 41.7329 216.689 41.8202 216.534 41.9757C216.378 42.1311 216.291 42.342 216.291 42.5618V44.4999C216.291 44.7197 216.378 44.9306 216.534 45.086C216.689 45.2415 216.9 45.3288 217.12 45.3288C217.34 45.3288 217.551 45.2415 217.707 45.086C217.862 44.9306 217.95 44.7197 217.95 44.4999V42.5502C217.947 42.3323 217.858 42.1245 217.703 41.9716C217.547 41.8186 217.338 41.7329 217.12 41.7329Z" fill="#374C75"/>
<path d="M214.934 39.7949H213.006C212.888 39.7809 212.769 39.7921 212.655 39.8277C212.542 39.8632 212.437 39.9224 212.348 40.0013C212.26 40.0801 212.188 40.1769 212.14 40.2852C212.091 40.3935 212.066 40.5109 212.066 40.6297C212.066 40.7484 212.091 40.8658 212.14 40.9741C212.188 41.0824 212.26 41.1792 212.348 41.2581C212.437 41.3369 212.542 41.3961 212.655 41.4317C212.769 41.4672 212.888 41.4784 213.006 41.4644H214.934C215.052 41.4784 215.172 41.4672 215.285 41.4317C215.399 41.3961 215.503 41.3369 215.592 41.2581C215.681 41.1792 215.752 41.0824 215.801 40.9741C215.849 40.8658 215.875 40.7484 215.875 40.6297C215.875 40.5109 215.849 40.3935 215.801 40.2852C215.752 40.1769 215.681 40.0801 215.592 40.0013C215.503 39.9224 215.399 39.8632 215.285 39.8277C215.172 39.7921 215.052 39.7809 214.934 39.7949Z" fill="#374C75"/>
<path d="M217.12 35.791C216.9 35.791 216.689 35.8783 216.534 36.0338C216.378 36.1892 216.291 36.4001 216.291 36.6199V38.558C216.291 38.7778 216.378 38.9887 216.534 39.1441C216.689 39.2996 216.9 39.3869 217.12 39.3869C217.34 39.3869 217.551 39.2996 217.707 39.1441C217.862 38.9887 217.95 38.7778 217.95 38.558V36.6199C217.95 36.5111 217.928 36.4033 217.887 36.3027C217.845 36.2022 217.784 36.1108 217.707 36.0338C217.63 35.9568 217.538 35.8958 217.438 35.8541C217.337 35.8124 217.229 35.791 217.12 35.791Z" fill="#374C75"/>
<path d="M221.256 39.6553H219.328C219.21 39.6413 219.09 39.6524 218.977 39.688C218.864 39.7236 218.759 39.7828 218.67 39.8616C218.581 39.9405 218.51 40.0373 218.462 40.1456C218.413 40.2539 218.388 40.3713 218.388 40.49C218.388 40.6088 218.413 40.7261 218.462 40.8344C218.51 40.9428 218.581 41.0395 218.67 41.1184C218.759 41.1973 218.864 41.2564 218.977 41.292C219.09 41.3276 219.21 41.3388 219.328 41.3248H221.256C221.461 41.3006 221.649 41.2022 221.786 41.0483C221.923 40.8945 221.998 40.6958 221.998 40.49C221.998 40.2842 221.923 40.0855 221.786 39.9317C221.649 39.7778 221.461 39.6795 221.256 39.6553Z" fill="#374C75"/>
<path d="M318.919 197.222H337.977C338.095 197.236 338.214 197.225 338.328 197.189C338.441 197.153 338.546 197.094 338.635 197.015C338.723 196.937 338.795 196.84 338.843 196.731C338.892 196.623 338.917 196.506 338.917 196.387C338.917 196.268 338.892 196.151 338.843 196.043C338.795 195.934 338.723 195.837 338.635 195.759C338.546 195.68 338.441 195.621 338.328 195.585C338.214 195.549 338.095 195.538 337.977 195.552H318.919C318.714 195.576 318.525 195.675 318.389 195.829C318.252 195.983 318.176 196.181 318.176 196.387C318.176 196.593 318.252 196.791 318.389 196.945C318.525 197.099 318.714 197.198 318.919 197.222Z" fill="#374C75"/>
<path d="M309.139 197.222H312.855C312.973 197.236 313.092 197.225 313.206 197.189C313.319 197.153 313.424 197.094 313.513 197.015C313.601 196.937 313.673 196.84 313.721 196.731C313.77 196.623 313.795 196.506 313.795 196.387C313.795 196.268 313.77 196.151 313.721 196.043C313.673 195.934 313.601 195.837 313.513 195.759C313.424 195.68 313.319 195.621 313.206 195.585C313.092 195.549 312.973 195.538 312.855 195.552H309.139C309.021 195.538 308.901 195.549 308.788 195.585C308.675 195.621 308.57 195.68 308.481 195.759C308.392 195.837 308.321 195.934 308.273 196.043C308.224 196.151 308.199 196.268 308.199 196.387C308.199 196.506 308.224 196.623 308.273 196.731C308.321 196.84 308.392 196.937 308.481 197.015C308.57 197.094 308.675 197.153 308.788 197.189C308.901 197.225 309.021 197.236 309.139 197.222Z" fill="#374C75"/>
<path d="M67.5526 278.994H86.5991C86.7171 279.008 86.8367 278.997 86.9501 278.961C87.0635 278.926 87.168 278.867 87.2569 278.788C87.3457 278.709 87.4168 278.612 87.4655 278.504C87.5142 278.396 87.5394 278.278 87.5394 278.159C87.5394 278.041 87.5142 277.923 87.4655 277.815C87.4168 277.707 87.3457 277.61 87.2569 277.531C87.168 277.452 87.0635 277.393 86.9501 277.357C86.8367 277.322 86.7171 277.311 86.5991 277.325H67.5526C67.4346 277.311 67.315 277.322 67.2016 277.357C67.0882 277.393 66.9837 277.452 66.8948 277.531C66.806 277.61 66.7349 277.707 66.6862 277.815C66.6375 277.923 66.6123 278.041 66.6123 278.159C66.6123 278.278 66.6375 278.396 66.6862 278.504C66.7349 278.612 66.806 278.709 66.8948 278.788C66.9837 278.867 67.0882 278.926 67.2016 278.961C67.315 278.997 67.4346 279.008 67.5526 278.994Z" fill="#374C75"/>
<path d="M57.7604 278.994H61.4879C61.6925 278.97 61.881 278.871 62.0178 278.717C62.1547 278.563 62.2302 278.365 62.2302 278.159C62.2302 277.953 62.1547 277.755 62.0178 277.601C61.881 277.447 61.6925 277.348 61.4879 277.324H57.7604C57.5559 277.348 57.3673 277.447 57.2305 277.601C57.0937 277.755 57.0181 277.953 57.0181 278.159C57.0181 278.365 57.0937 278.563 57.2305 278.717C57.3673 278.871 57.5559 278.97 57.7604 278.994Z" fill="#374C75"/>
<path d="M281.563 243.689C281.43 243.687 281.299 243.712 281.176 243.762C281.054 243.812 280.942 243.886 280.849 243.979C280.755 244.073 280.681 244.184 280.631 244.307C280.581 244.429 280.556 244.56 280.558 244.693V247.028C280.558 247.294 280.664 247.549 280.852 247.738C281.04 247.926 281.296 248.032 281.563 248.032C281.829 248.032 282.085 247.926 282.273 247.738C282.462 247.549 282.567 247.294 282.567 247.028V244.693C282.567 244.561 282.542 244.43 282.491 244.308C282.441 244.187 282.366 244.076 282.273 243.983C282.18 243.889 282.069 243.815 281.947 243.765C281.825 243.715 281.695 243.689 281.563 243.689Z" fill="#374C75"/>
<path d="M278.933 241.354H276.596C276.33 241.354 276.074 241.459 275.886 241.648C275.697 241.836 275.591 242.091 275.591 242.358C275.591 242.624 275.697 242.879 275.886 243.068C276.074 243.256 276.33 243.362 276.596 243.362H278.933C279.2 243.362 279.455 243.256 279.644 243.068C279.832 242.879 279.938 242.624 279.938 242.358C279.938 242.091 279.832 241.836 279.644 241.648C279.455 241.459 279.2 241.354 278.933 241.354Z" fill="#374C75"/>
<path d="M281.563 236.532C281.43 236.53 281.299 236.555 281.176 236.605C281.054 236.655 280.942 236.729 280.849 236.822C280.755 236.916 280.681 237.027 280.631 237.15C280.581 237.272 280.556 237.404 280.558 237.536V239.871C280.558 240.137 280.664 240.393 280.852 240.581C281.04 240.769 281.296 240.875 281.563 240.875C281.829 240.875 282.085 240.769 282.273 240.581C282.462 240.393 282.567 240.137 282.567 239.871V237.536C282.567 237.27 282.462 237.014 282.273 236.826C282.085 236.638 281.829 236.532 281.563 236.532Z" fill="#374C75"/>
<path d="M286.517 241.19H284.18C283.914 241.19 283.658 241.296 283.47 241.484C283.281 241.673 283.175 241.928 283.175 242.194C283.175 242.461 283.281 242.716 283.47 242.904C283.658 243.093 283.914 243.199 284.18 243.199H286.517C286.784 243.199 287.039 243.093 287.228 242.904C287.416 242.716 287.522 242.461 287.522 242.194C287.522 241.928 287.416 241.673 287.228 241.484C287.039 241.296 286.784 241.19 286.517 241.19Z" fill="#374C75"/>
<path d="M298.308 67.9672C255.72 81.5693 120.826 14.5164 131.381 106.107C133.035 119.72 141.805 138.959 134.395 151.669C129.031 161.19 119.162 166.773 109.684 170.473C84.8644 180.571 75.6264 199.516 81.9048 226.546C98.727 299.399 190.259 282.118 238.321 260.518C272.498 244.446 312.802 241.682 348.22 255.284C375.945 266.351 393.224 289.583 425.77 282.771C454.626 276.982 458.979 249.735 450.557 224.369C445.769 208.678 442.331 202.051 451.819 186.904C459.827 171.865 473.908 160.461 474.996 142.844C475.224 123.757 466.454 104.519 449.49 97.2933C435.595 91.3736 423.006 93.7676 409.23 90.1331C378.676 81.5366 359.036 34.0599 321.093 50.3933C311.648 54.8548 306.328 65.1271 296.067 68.1304" fill="url(#paint0_linear)"/>
<path d="M343.271 161.395C337.245 146.062 318.682 136.867 302.961 142.952C285.015 149.898 290.965 178.442 274.664 184.214C265.859 187.332 252.842 175.685 243.946 173.899C227.553 170.608 212.713 182.175 209.058 198.193C205.33 214.535 211.31 236.361 229.264 240.797C250.652 246.08 261.792 226.854 279.734 221.334C298.145 215.668 318.617 229.048 333.859 212.769C345.12 200.742 349.237 176.579 343.271 161.395Z" fill="url(#paint1_linear)"/>
<path opacity="0.1" d="M336.525 168.136C336.525 157.49 327.895 148.86 317.249 148.86C309.002 148.86 301.967 154.042 299.215 161.326H229.512C226.535 161.326 224.122 163.74 224.122 166.717V226.394C224.122 229.371 226.535 231.784 229.512 231.784H324.488C327.466 231.784 329.879 229.371 329.879 226.394V182.692C333.948 179.158 336.525 173.95 336.525 168.136Z" fill="#CAEDF3"/>
<path d="M324.49 225.046H229.513C226.536 225.046 224.123 222.633 224.123 219.655V159.979C224.123 157.001 226.536 154.588 229.513 154.588H324.489C327.466 154.588 329.88 157.001 329.88 159.979V219.655C329.88 222.633 327.466 225.046 324.49 225.046Z" fill="#52BACC"/>
<path d="M329.879 159.98V182.755C326.497 185.691 322.082 187.469 317.249 187.469C306.603 187.469 297.972 178.839 297.972 168.195C297.972 162.886 300.12 158.074 303.595 154.589H324.489C327.464 154.589 329.879 157.002 329.879 159.98Z" fill="#45A4B5"/>
<path d="M329.879 159.98V166.775L281.927 203.612C280.52 204.693 278.771 205.286 277 205.286C275.229 205.286 273.48 204.693 272.073 203.612L224.121 166.775V159.98C224.121 157.002 226.536 154.59 229.511 154.59H324.489C327.464 154.59 329.879 157.002 329.879 159.98Z" fill="#92E4F2"/>
<path d="M278.642 180.297L329.879 219.655C329.879 222.633 327.465 225.046 324.488 225.046H229.512C226.534 225.046 224.121 222.633 224.121 219.655L275.358 180.297C276.326 179.553 277.673 179.553 278.642 180.297Z" fill="#74D4E5"/>
<path d="M295.46 193.216L281.927 203.612C280.52 204.692 278.771 205.285 277 205.285C275.229 205.285 273.48 204.692 272.073 203.612L258.54 193.216L275.358 180.297C276.326 179.553 277.674 179.553 278.641 180.297L295.46 193.216Z" fill="#52BACC"/>
<path d="M275.359 199.337L224.123 159.979C224.123 157.001 226.536 154.588 229.513 154.588H324.489C327.466 154.588 329.88 157.001 329.88 159.979L278.643 199.337C277.675 200.081 276.328 200.081 275.359 199.337Z" fill="#3EA7B9"/>
<path d="M307.982 217.874H299.321C298.577 217.874 297.973 217.27 297.973 216.526V210.555C297.973 209.811 298.577 209.207 299.321 209.207H307.982C308.726 209.207 309.33 209.811 309.33 210.555V216.526C309.33 217.27 308.726 217.874 307.982 217.874Z" fill="#52BACC"/>
<path d="M292.059 212.38H284.557C283.813 212.38 283.209 211.776 283.209 211.032C283.209 210.288 283.813 209.685 284.557 209.685H292.059C292.803 209.685 293.407 210.288 293.407 211.032C293.407 211.776 292.803 212.38 292.059 212.38Z" fill="#52BACC"/>
<path d="M292.059 217.874H265.69C264.945 217.874 264.342 217.27 264.342 216.526C264.342 215.782 264.945 215.178 265.69 215.178H292.059C292.803 215.178 293.407 215.782 293.407 216.526C293.407 217.27 292.803 217.874 292.059 217.874Z" fill="#52BACC"/>
<path d="M317.249 180.674C327.895 180.674 336.525 172.044 336.525 161.398C336.525 150.752 327.895 142.122 317.249 142.122C306.603 142.122 297.973 150.752 297.973 161.398C297.973 172.044 306.603 180.674 317.249 180.674Z" fill="#CAEDF3"/>
<path d="M317.249 182.022C328.621 182.022 337.873 172.77 337.873 161.398C337.873 150.026 328.621 140.774 317.249 140.774C305.877 140.774 296.625 150.026 296.625 161.398C296.625 168.014 299.76 173.907 304.618 177.683L277.821 198.268C277.338 198.64 276.663 198.64 276.179 198.268L225.517 159.352C225.82 157.419 227.496 155.936 229.512 155.936H291.333C292.078 155.936 292.681 155.332 292.681 154.588C292.681 153.844 292.078 153.24 291.333 153.24H229.512C225.797 153.24 222.774 156.263 222.774 159.979V219.655C222.774 223.371 225.797 226.394 229.512 226.394H324.488C328.204 226.394 331.227 223.371 331.227 219.655V184.04C331.227 183.295 330.623 182.692 329.879 182.692C329.134 182.692 328.531 183.295 328.531 184.04V216.921L293.247 189.817L306.977 179.27C310.004 181.017 313.511 182.022 317.249 182.022ZM260.753 189.817L225.469 216.921V162.713L260.753 189.817ZM328.478 220.279C328.177 222.212 326.505 223.698 324.488 223.698H229.512C227.495 223.698 225.824 222.212 225.522 220.279L262.965 191.516L274.537 200.406C275.262 200.962 276.131 201.241 277 201.241C277.869 201.241 278.738 200.963 279.463 200.406L291.035 191.516L328.478 220.279ZM299.321 161.398C299.321 151.513 307.363 143.47 317.249 143.47C327.135 143.47 335.178 151.512 335.178 161.398C335.178 171.284 327.135 179.327 317.249 179.327C307.363 179.327 299.321 171.284 299.321 161.398Z" fill="#52BACC"/>
<path d="M308.835 154.824L311.586 161.398L308.835 167.972C308.368 169.088 309.495 170.207 310.608 169.731L327.216 162.637C328.307 162.171 328.307 160.625 327.216 160.159L310.608 153.065C309.495 152.59 308.368 153.708 308.835 154.824Z" fill="#52BACC"/>
<path d="M317.861 162.656L309.58 166.195L311.586 161.398L309.578 156.6L317.861 160.139C318.895 160.581 318.895 162.217 317.861 162.656Z" fill="#90D4DF"/>
<defs>
<linearGradient id="paint0_linear" x1="289.592" y1="47" x2="269.439" y2="433.939" gradientUnits="userSpaceOnUse">
<stop stop-color="#182641"/>
<stop offset="1" stop-color="#1C2C4C"/>
</linearGradient>
<linearGradient id="paint1_linear" x1="277" y1="141.055" x2="277" y2="241.706" gradientUnits="userSpaceOnUse">
<stop stop-color="#CAEDF3"/>
<stop offset="1" stop-color="#CAEDF3"/>
</linearGradient>
</defs>
</svg>
