<svg width="138" height="138" viewBox="0 0 138 138" fill="none" xmlns="http://www.w3.org/2000/svg">
<g clip-path="url(#clip0)">
<path d="M135.271 41.3953C129.245 26.0622 110.682 16.8671 94.9605 22.9521C77.0146 29.8976 82.9648 58.4421 66.6644 64.2141C57.859 67.332 44.8423 55.685 35.9461 53.8991C19.553 50.6081 4.71259 62.1751 1.05829 78.1931C-2.66987 94.5347 3.30968 116.361 21.2642 120.797C42.6515 126.08 53.7921 106.854 71.7337 101.334C90.1454 95.6684 110.617 109.048 125.859 92.769C137.12 80.7423 141.237 56.5785 135.271 41.3953Z" fill="url(#paint0_linear)"/>
<path opacity="0.1" d="M128.525 48.1364C128.525 37.4905 119.895 28.8604 109.249 28.8604C101.002 28.8604 93.9671 34.0421 91.2149 41.3262H21.5122C18.535 41.3262 16.1216 43.7396 16.1216 46.7168V106.394C16.1216 109.371 18.535 111.784 21.5122 111.784H116.488C119.466 111.784 121.879 109.371 121.879 106.394V62.6919C125.948 59.1576 128.525 53.9497 128.525 48.1364Z" fill="#CAEDF3"/>
<path d="M116.49 105.046H21.5132C18.5359 105.046 16.1226 102.633 16.1226 99.6554V39.9785C16.1226 37.0013 18.5359 34.5879 21.5132 34.5879H116.489C119.466 34.5879 121.88 37.0013 121.88 39.9785V99.6554C121.88 102.633 119.466 105.046 116.49 105.046Z" fill="#52BACC"/>
<path d="M121.879 39.98V62.7554C118.497 65.6906 114.082 67.4695 109.249 67.4695C98.6026 67.4695 89.9722 58.8391 89.9722 48.1953C89.9722 42.8855 92.1203 38.0744 95.5946 34.5894H116.489C119.464 34.5894 121.879 37.0017 121.879 39.98Z" fill="#45A4B5"/>
<path d="M121.879 39.9805V46.7754L73.927 83.6122C72.52 84.693 70.7708 85.286 68.9999 85.286C67.2291 85.286 65.4799 84.693 64.0729 83.6122L16.1206 46.7754V39.9805C16.1206 37.0021 18.5356 34.5898 21.5112 34.5898H116.489C119.464 34.5898 121.879 37.0021 121.879 39.9805Z" fill="#92E4F2"/>
<path d="M70.6419 60.2972L121.879 99.6555C121.879 102.633 119.465 105.046 116.488 105.046H21.5117C18.5345 105.046 16.1211 102.633 16.1211 99.6555L67.3579 60.2972C68.3263 59.5533 69.6735 59.5533 70.6419 60.2972Z" fill="#74D4E5"/>
<path d="M87.4599 73.2158L73.9268 83.6116C72.5198 84.6925 70.7706 85.2854 68.9998 85.2854C67.2289 85.2854 65.4797 84.6925 64.0727 83.6116L50.5396 73.2158L67.3583 60.2972C68.3259 59.5533 69.6736 59.5533 70.6412 60.2972L87.4599 73.2158Z" fill="#52BACC"/>
<path d="M67.3594 79.3371L16.1226 39.9785C16.1226 37.0013 18.5359 34.5879 21.5132 34.5879H116.489C119.466 34.5879 121.88 37.0013 121.88 39.9785L70.6433 79.3371C69.6749 80.0807 68.3278 80.0807 67.3594 79.3371Z" fill="#3EA7B9"/>
<path d="M99.9819 97.8735H91.3208C90.5766 97.8735 89.9731 97.2701 89.9731 96.5259V90.5547C89.9731 89.8105 90.5766 89.207 91.3208 89.207H99.9819C100.726 89.207 101.33 89.8105 101.33 90.5547V96.5259C101.33 97.2703 100.726 97.8735 99.9819 97.8735Z" fill="#52BACC"/>
<path d="M84.059 92.3799H76.5571C75.8127 92.3799 75.2095 91.7764 75.2095 91.0322C75.2095 90.2881 75.8127 89.6846 76.5571 89.6846H84.059C84.8034 89.6846 85.4066 90.2881 85.4066 91.0322C85.4066 91.7764 84.8034 92.3799 84.059 92.3799Z" fill="#52BACC"/>
<path d="M84.059 97.8735H57.6899C56.9455 97.8735 56.3423 97.2701 56.3423 96.5259C56.3423 95.7817 56.9455 95.1782 57.6899 95.1782H84.059C84.8034 95.1782 85.4067 95.7817 85.4067 96.5259C85.4067 97.2701 84.8034 97.8735 84.059 97.8735Z" fill="#52BACC"/>
<path d="M109.249 60.6742C119.895 60.6742 128.525 52.044 128.525 41.3981C128.525 30.7523 119.895 22.1221 109.249 22.1221C98.6033 22.1221 89.9731 30.7523 89.9731 41.3981C89.9731 52.044 98.6033 60.6742 109.249 60.6742Z" fill="#CAEDF3"/>
<path d="M109.249 62.0219C120.621 62.0219 129.873 52.7702 129.873 41.3981C129.873 30.0261 120.621 20.7744 109.249 20.7744C97.8772 20.7744 88.6255 30.0261 88.6255 41.3981C88.6255 48.0135 91.7599 53.9071 96.6179 57.6835L69.8211 78.2681C69.3384 78.6395 68.6629 78.6398 68.1791 78.2681L17.5175 39.3516C17.8196 37.4191 19.4961 35.9356 21.5119 35.9356H83.3333C84.0777 35.9356 84.6809 35.3321 84.6809 34.5879C84.6809 33.8437 84.0777 33.2402 83.3333 33.2402H21.5122C17.7967 33.2402 14.7739 36.263 14.7739 39.9785V99.6554C14.7739 103.371 17.7967 106.394 21.5122 106.394H116.488C120.204 106.394 123.227 103.371 123.227 99.6554V64.0396C123.227 63.2954 122.623 62.6919 121.879 62.6919C121.134 62.6919 120.531 63.2954 120.531 64.0396V96.9208L85.2475 69.817L98.9774 59.2702C102.004 61.0168 105.511 62.0219 109.249 62.0219ZM52.7528 69.817L17.4692 96.9208V42.7132L52.7528 69.817ZM120.478 100.279C120.177 102.212 118.505 103.698 116.488 103.698H21.5122C19.4953 103.698 17.8237 102.212 17.5223 100.279L54.9654 71.5164L66.5374 80.4055C67.2624 80.9624 68.1314 81.2411 69.0004 81.2411C69.8694 81.2411 70.7381 80.9626 71.4634 80.4055L83.0354 71.5161L120.478 100.279ZM91.3208 41.3981C91.3208 31.5125 99.3633 23.4697 109.249 23.4697C119.135 23.4697 127.178 31.5123 127.178 41.3981C127.178 51.284 119.135 59.3265 109.249 59.3265C99.3633 59.3265 91.3208 51.2837 91.3208 41.3981Z" fill="#52BACC"/>
<path d="M100.835 34.8245L103.586 41.3981L100.835 47.9717C100.368 49.0881 101.495 50.2066 102.608 49.7312L119.216 42.6374C120.307 42.1714 120.307 40.6248 119.216 40.1588L102.608 33.065C101.495 32.5895 100.368 33.7081 100.835 34.8245Z" fill="#52BACC"/>
<path d="M109.861 42.6565L101.58 46.1954L103.586 41.3978L101.578 36.6001L109.861 40.139C110.895 40.5811 110.895 42.2171 109.861 42.6565Z" fill="#90D4DF"/>
</g>
<defs>
<linearGradient id="paint0_linear" x1="69.0001" y1="21.0552" x2="69.0001" y2="121.706" gradientUnits="userSpaceOnUse">
<stop stop-color="#CAEDF3"/>
<stop offset="1" stop-color="#CAEDF3"/>
</linearGradient>
<clipPath id="clip0">
<rect width="138" height="138" fill="white"/>
</clipPath>
</defs>
</svg>
