<svg width="245" height="234" viewBox="0 0 245 234" fill="none" xmlns="http://www.w3.org/2000/svg">
<path d="M53.7096 233.683L163.975 233.687L163.975 126.6C163.975 113.968 152.321 131.749 152.128 131.497C151.936 131.246 151.671 131.047 151.362 130.922L118.782 113.968C117.971 113.593 117.073 113.398 116.162 113.398C115.25 113.398 114.352 113.593 113.541 113.968L81.1626 130.922C80.8548 131.047 80.5914 131.246 80.4019 131.497C80.2124 131.749 53.7095 118.795 53.7095 125.133L53.7096 233.683Z" fill="url(#paint0_linear)"/>
<ellipse cx="108.842" cy="123.422" rx="55.1325" ry="13.1084" fill="#243C67"/>
<g filter="url(#filter0_d)">
<ellipse cx="109.615" cy="86.0242" rx="55.1325" ry="11.1807" fill="#243C67"/>
</g>
<path d="M163.977 78.699V123.422H53.3262V78.699H163.977Z" fill="url(#paint1_linear)"/>
<path d="M149.95 72.0138C151.877 71.084 153.985 70.5984 156.122 70.5924H156.144C158.065 70.5393 159.977 70.874 161.767 71.5768C163.556 72.2796 165.188 73.3362 166.565 74.6842C167.943 76.0322 169.037 77.6442 169.785 79.425C170.532 81.2059 170.917 83.1194 170.917 85.0525C170.917 86.9856 170.532 88.8991 169.785 90.68C169.037 92.4608 167.943 94.0729 166.565 95.4209C165.188 96.7689 163.556 97.8255 161.767 98.5283C159.977 99.231 158.065 99.5657 156.144 99.5126H68.8667C66.2914 99.5741 63.7299 99.1168 61.3328 98.1678C58.9357 97.2187 56.7514 95.7969 54.9084 93.9861C53.0654 92.1753 51.6008 90.0121 50.6009 87.6235C49.601 85.235 49.0859 82.6693 49.0859 80.0776C49.0859 77.4858 49.601 74.9202 50.6009 72.5317C51.6008 70.1431 53.0654 67.9798 54.9084 66.169C56.7514 64.3582 58.9357 62.9365 61.3328 61.9874C63.7299 61.0384 66.2914 60.5811 68.8667 60.6425C69.0818 54.6591 71.3376 48.9325 75.2551 44.4254C79.1726 39.9183 84.5128 36.9055 90.3782 35.8933C96.2436 34.8811 102.277 35.9313 107.463 38.8674C112.649 41.8034 116.673 46.4464 118.858 52.0157C122.209 50.6973 125.822 50.1946 129.403 50.5489C132.984 50.9031 136.43 52.1042 139.462 54.0541C142.493 56.0039 145.024 58.6474 146.847 61.7686C148.669 64.8898 149.733 68.4004 149.95 72.0138Z" fill="url(#paint2_linear)"/>
<path d="M143.936 72.6769C145.778 71.7695 147.793 71.2956 149.835 71.2897H149.856C151.692 71.2379 153.519 71.5645 155.229 72.2504C156.94 72.9362 158.5 73.9674 159.816 75.2829C161.132 76.5984 162.178 78.1716 162.892 79.9095C163.607 81.6474 163.975 83.5149 163.975 85.4014C163.975 87.2879 163.607 89.1553 162.892 90.8933C162.178 92.6312 161.132 94.2044 159.816 95.5199C158.5 96.8354 156.94 97.8666 155.229 98.5524C153.519 99.2383 151.692 99.5649 149.856 99.513H66.4454C63.9842 99.573 61.5362 99.1268 59.2453 98.2006C56.9543 97.2744 54.8668 95.8869 53.1055 94.1197C51.3441 92.3526 49.9445 90.2414 48.9889 87.9104C48.0333 85.5794 47.541 83.0756 47.541 80.5463C47.541 78.017 48.0333 75.5133 48.9889 73.1823C49.9445 70.8513 51.3441 68.7401 53.1055 66.9729C54.8668 65.2058 56.9543 63.8183 59.2453 62.8921C61.5362 61.9659 63.9842 61.5196 66.4454 61.5796C66.6509 55.7403 68.8069 50.1518 72.5508 45.7533C76.2947 41.3548 81.3984 38.4145 87.0039 37.4267C92.6094 36.4389 98.3751 37.4638 103.332 40.3292C108.288 43.1945 112.134 47.7255 114.221 53.1607C117.424 51.874 120.877 51.3835 124.299 51.7292C127.722 52.0749 131.016 53.247 133.913 55.1499C136.81 57.0528 139.229 59.6325 140.97 62.6785C142.712 65.7245 143.729 69.1505 143.936 72.6769Z" fill="url(#paint3_linear)"/>
<path d="M151.621 72.0559L151.586 71.4826C151.575 71.3059 151.563 71.1294 151.548 70.9532C151.531 70.742 151.687 70.5565 151.898 70.5374C151.834 69.8975 151.746 69.2614 151.632 68.6306C151.424 68.6698 151.223 68.534 151.182 68.3261C151.114 67.9788 151.038 67.6331 150.954 67.2895C150.904 67.0836 151.03 66.8761 151.235 66.8244C151.073 66.2031 150.886 65.5886 150.676 64.9822C150.476 65.0533 150.257 64.9505 150.184 64.7515C150.063 64.4193 149.934 64.0897 149.797 63.763C149.716 63.5675 149.807 63.3429 150.002 63.26C149.746 62.6724 149.466 62.0944 149.162 61.5275C148.977 61.6287 148.744 61.5614 148.641 61.3762C148.555 61.2216 148.467 61.068 148.378 60.9152C148.288 60.7626 148.197 60.6111 148.105 60.4608C147.994 60.2804 148.049 60.0443 148.228 59.932C147.883 59.3909 147.517 58.8648 147.131 58.3548C146.964 58.4838 146.723 58.4537 146.592 58.2868C146.375 58.0083 146.151 57.7349 145.921 57.4668C145.783 57.3059 145.801 57.0641 145.96 56.9252C145.536 56.4454 145.092 55.9828 144.63 55.5386C144.485 55.6922 144.243 55.7001 144.088 55.5556C143.829 55.3148 143.565 55.0798 143.296 54.8507C143.135 54.7133 143.115 54.4717 143.251 54.3096C142.757 53.9027 142.246 53.5152 141.72 53.1481C141.6 53.3226 141.362 53.3682 141.187 53.2498C141.04 53.1512 140.893 53.0541 140.744 52.9586C140.595 52.8633 140.446 52.7697 140.295 52.6778C140.114 52.5674 140.057 52.3319 140.165 52.1505C139.613 51.8257 139.05 51.5236 138.475 51.2449C138.385 51.436 138.157 51.5183 137.965 51.4289C137.645 51.2799 137.321 51.1382 136.995 51.0039C136.8 50.9231 136.706 50.6996 136.785 50.5034C136.19 50.2694 135.586 50.0593 134.974 49.8737C134.914 50.0766 134.702 50.1937 134.498 50.1355C134.159 50.0385 133.818 49.9492 133.474 49.8676C133.268 49.8186 133.14 49.6125 133.188 49.4064C132.564 49.2687 131.935 49.1559 131.3 49.0685C131.273 49.2782 131.082 49.4272 130.872 49.4016C130.697 49.3804 130.521 49.3611 130.346 49.3437C130.17 49.3264 129.994 49.311 129.819 49.2977C129.607 49.2816 129.449 49.0981 129.463 48.8871C128.824 48.8489 128.185 48.8365 127.547 48.8495C127.553 49.061 127.388 49.2381 127.176 49.2459C126.823 49.2588 126.471 49.2796 126.12 49.3084C125.909 49.3257 125.723 49.1693 125.704 48.9587C125.068 49.0211 124.435 49.109 123.806 49.2222C123.845 49.43 123.71 49.6309 123.502 49.6718C123.156 49.7398 122.811 49.8156 122.469 49.8992C122.263 49.9494 122.055 49.8241 122.003 49.619C121.386 49.7801 120.774 49.9661 120.17 50.1769C120.241 50.376 120.139 50.5957 119.94 50.6687C119.774 50.7294 119.609 50.7919 119.445 50.8564L119.087 50.9972L118.946 50.6386C118.892 50.5029 118.838 50.3678 118.782 50.2332C118.702 50.0371 118.794 49.8129 118.989 49.7309C118.799 49.2873 118.598 48.8497 118.386 48.4184C118.196 48.5133 117.966 48.4378 117.869 48.249C117.737 47.9893 117.6 47.732 117.46 47.4772C117.357 47.2915 117.424 47.0582 117.609 46.9547C117.37 46.5358 117.12 46.1238 116.86 45.719C116.683 45.8347 116.445 45.7858 116.328 45.6091C116.167 45.3661 116.002 45.1259 115.834 44.8886C115.711 44.7157 115.751 44.4763 115.922 44.3526C115.638 43.9637 115.343 43.5826 115.039 43.2097C114.876 43.3447 114.634 43.3231 114.498 43.1608C114.31 42.9377 114.119 42.7178 113.925 42.501C113.783 42.3431 113.796 42.1008 113.952 41.9583C113.626 41.6045 113.29 41.2593 112.945 40.9231C112.798 41.0757 112.555 41.0816 112.401 40.9358C112.19 40.7356 111.975 40.5387 111.757 40.3453C111.599 40.2046 111.584 39.9624 111.723 39.8031C111.359 39.4888 110.986 39.184 110.604 38.8889C110.476 39.0573 110.236 39.0907 110.066 38.9633C109.834 38.7885 109.598 38.6173 109.359 38.4499C109.186 38.3281 109.143 38.0892 109.264 37.9151C108.866 37.6445 108.461 37.3841 108.048 37.1341C107.94 37.3159 107.705 37.3765 107.522 37.2693C107.396 37.1956 107.27 37.1229 107.143 37.0513C107.016 36.9797 106.889 36.9092 106.762 36.8398C106.575 36.7386 106.506 36.5061 106.606 36.3194C106.18 36.0956 105.749 35.8836 105.313 35.6835C105.226 35.8765 105 35.9634 104.806 35.8776C104.54 35.7599 104.272 35.6466 104.003 35.5379C103.806 35.4584 103.711 35.2353 103.788 35.0385C103.34 34.8648 102.888 34.7032 102.432 34.5538C102.367 34.7554 102.152 34.8675 101.95 34.8044C101.672 34.7178 101.393 34.6357 101.113 34.5582C100.909 34.5017 100.789 34.2909 100.844 34.0865C100.379 33.965 99.911 33.8559 99.4407 33.7594C99.3996 33.967 99.1986 34.1029 98.9903 34.0632C98.7047 34.0088 98.4183 33.959 98.1311 33.9139C97.9216 33.8811 97.7782 33.6853 97.8096 33.476C97.3343 33.4083 96.8571 33.3532 96.3786 33.3107C96.3614 33.5217 96.1772 33.6796 95.9657 33.6639C95.6759 33.6424 95.3857 33.6255 95.0951 33.6135C94.8832 33.6047 94.7185 33.4265 94.7258 33.215C94.2462 33.2019 93.7659 33.2015 93.2852 33.2139C93.2922 33.4254 93.1271 33.6033 92.9153 33.6118C92.6251 33.6234 92.3349 33.6398 92.0447 33.6609C91.8332 33.6763 91.6492 33.5181 91.6324 33.3071C91.1548 33.3487 90.6776 33.403 90.2011 33.4701C90.2321 33.6795 90.0884 33.875 89.8789 33.9076C89.7353 33.9299 89.5918 33.9534 89.4484 33.9781C89.305 34.0028 89.1618 34.0287 89.0189 34.0557C88.8106 34.095 88.6097 33.9588 88.569 33.7511C88.097 33.8473 87.6285 33.9558 87.164 34.0765C87.2187 34.281 87.0982 34.4916 86.8938 34.5478C86.613 34.6251 86.3338 34.7068 86.0562 34.793C85.8537 34.8558 85.6387 34.7434 85.5745 34.5417C85.1169 34.6909 84.6639 34.8521 84.2158 35.025C84.2934 35.222 84.1977 35.4449 84.001 35.5241C83.731 35.6327 83.4628 35.7457 83.1967 35.863C83.0027 35.9485 82.7762 35.8613 82.6895 35.6682C82.2522 35.8684 81.8205 36.0801 81.3946 36.3031C81.4942 36.4899 81.4245 36.7224 81.2381 36.8234C80.9823 36.962 80.7287 37.1047 80.4776 37.2516C80.2945 37.3586 80.0596 37.2977 79.9515 37.1158C79.5401 37.3642 79.1352 37.6236 78.7372 37.8937C78.8574 38.068 78.8145 38.3069 78.6408 38.4284C78.4025 38.5951 78.1668 38.7658 77.9338 38.9403C77.7642 39.0674 77.5238 39.0336 77.3958 38.8651C77.0155 39.1585 76.6427 39.4622 76.2777 39.776C76.4168 39.9355 76.4013 40.1777 76.2425 40.3182C76.0249 40.5108 75.8101 40.7071 75.5984 40.907C75.4442 41.0526 75.2016 41.0463 75.0552 40.8934C74.711 41.2277 74.3751 41.5718 74.0477 41.9253C74.2041 42.068 74.2162 42.3103 74.0743 42.4679C73.977 42.576 73.8806 42.6849 73.7849 42.7947C73.689 42.9047 73.5941 43.0155 73.5002 43.1269C73.3636 43.289 73.1218 43.3102 72.959 43.1749C72.6528 43.5488 72.3571 43.93 72.0721 44.3182C72.2436 44.4422 72.2831 44.6817 72.1601 44.8543C71.9907 45.092 71.8253 45.3322 71.664 45.5748C71.5467 45.7513 71.3089 45.7999 71.1318 45.6839C70.8701 46.0898 70.6196 46.5021 70.3802 46.9204C70.5647 47.0242 70.6311 47.2576 70.5284 47.4431C70.3872 47.6983 70.2501 47.9557 70.1173 48.2152C70.0206 48.4039 69.7899 48.4791 69.6008 48.3839C69.387 48.8165 69.1847 49.2545 68.9942 49.6976C69.1892 49.7798 69.2816 50.0042 69.2006 50.2001C69.0892 50.4696 68.9821 50.7409 68.8795 51.0138C68.8048 51.2123 68.5841 51.3131 68.3854 51.2399C68.222 51.6936 68.0706 52.1517 67.9313 52.6138C68.1344 52.6734 68.2516 52.8859 68.1933 53.0898C68.1131 53.37 68.0374 53.6516 67.9662 53.9346C67.9145 54.1402 67.7066 54.2653 67.5009 54.2151C67.39 54.684 67.2913 55.1563 67.2051 55.6315C67.4136 55.6678 67.5541 55.8657 67.5192 56.0749C67.4712 56.3622 67.4278 56.6506 67.3891 56.9398C67.361 57.15 67.1685 57.2978 66.9585 57.2712C66.9014 57.7493 66.8567 58.2297 66.8247 58.712C67.036 58.7244 67.198 58.9052 67.1869 59.1169C67.1793 59.2625 67.1729 59.4082 67.1676 59.554L67.1539 59.9346L66.7731 59.9256C66.584 59.9211 66.395 59.9193 66.2061 59.9202C65.9944 59.9212 65.8217 59.7514 65.8187 59.5401C65.1113 59.557 64.4063 59.611 63.7063 59.7015C63.7354 59.9107 63.5906 60.1048 63.3812 60.136C63.0072 60.1916 62.6349 60.2579 62.2647 60.3348C62.0574 60.3779 61.8544 60.2458 61.8095 60.0394C61.1215 60.1961 60.4411 60.3888 59.7713 60.6172C59.8414 60.8165 59.738 61.0355 59.5389 61.1076C59.3613 61.172 59.1845 61.2389 59.0086 61.3084C58.8324 61.378 58.6574 61.45 58.4836 61.5245C58.289 61.6078 58.0639 61.5187 57.9789 61.3253C57.3331 61.6166 56.7038 61.9412 56.0934 62.2976C56.2017 62.479 56.1438 62.7142 55.963 62.8244C55.6399 63.0214 55.3224 63.2276 55.011 63.4427C54.8368 63.563 54.5984 63.5203 54.4767 63.3476C53.9031 63.7602 53.3506 64.203 52.8216 64.6745C52.9637 64.8309 52.9535 65.0728 52.7981 65.2167C52.6594 65.3452 52.5224 65.4757 52.3871 65.6083C52.2517 65.741 52.1182 65.8756 51.9868 66.012C51.8399 66.1644 51.5978 66.1698 51.4443 66.0246C50.9616 66.5449 50.507 67.0896 50.082 67.6562C50.2523 67.7813 50.2902 68.0205 50.1664 68.1922C49.9448 68.4997 49.7319 68.8134 49.5281 69.1331C49.4142 69.3116 49.1779 69.3647 48.9988 69.2528C48.6295 69.8568 48.2913 70.4805 47.986 71.1215C48.1776 71.2105 48.262 71.4375 48.1746 71.6303C48.0964 71.8028 48.0206 71.9765 47.9472 72.1514C47.8738 72.3265 47.8028 72.5024 47.7345 72.6793C47.6581 72.8768 47.437 72.9755 47.2393 72.9012C46.9955 73.5689 46.7871 74.2481 46.6145 74.9359C46.8199 74.9853 46.9476 75.1912 46.8999 75.3974C46.8146 75.7672 46.7397 76.1392 46.6754 76.5132C46.6396 76.7219 46.4423 76.8624 46.2337 76.8285C46.1268 77.5294 46.0563 78.2364 46.0228 78.9465C46.2339 78.9544 46.3996 79.1311 46.3936 79.3427C46.3882 79.5322 46.3855 79.7219 46.3855 79.9118C46.3855 80.1016 46.3882 80.2914 46.3936 80.4809C46.3996 80.6925 46.2339 80.8692 46.0228 80.8771C46.0563 81.5872 46.1268 82.2941 46.2337 82.9951C46.4423 82.9612 46.6396 83.1017 46.6754 83.3103C46.7397 83.6843 46.8146 84.0564 46.8999 84.4261C46.9476 84.6324 46.8199 84.8383 46.6145 84.8877C46.7871 85.5755 46.9955 86.2547 47.2393 86.9224C47.437 86.8481 47.6581 86.9468 47.7345 87.1443C47.8028 87.3212 47.8738 87.4971 47.9472 87.6722C48.0206 87.8471 48.0964 88.0208 48.1746 88.1933C48.262 88.3861 48.1776 88.6131 47.986 88.7021C48.2913 89.3431 48.6295 89.9668 48.9988 90.5708C49.1779 90.4589 49.4142 90.512 49.5281 90.6905C49.7319 91.0102 49.9448 91.3239 50.1664 91.6314C50.2902 91.8031 50.2523 92.0423 50.082 92.1674C50.507 92.734 50.9616 93.2786 51.4443 93.799C51.5978 93.6538 51.8399 93.6591 51.9868 93.8116C52.1182 93.948 52.2517 94.0825 52.3871 94.2153C52.5224 94.3479 52.6594 94.4784 52.7981 94.6069C52.9535 94.7507 52.9637 94.9927 52.8216 95.149C53.3506 95.6206 53.9031 96.0634 54.4767 96.476C54.5984 96.3033 54.8368 96.2605 55.011 96.3809C55.3224 96.596 55.6399 96.8022 55.963 96.9992C56.1438 97.1094 56.2017 97.3446 56.0934 97.526C56.7038 97.8824 57.3331 98.207 57.9789 98.4983C58.0639 98.3049 58.289 98.2158 58.4836 98.2991C58.6574 98.3736 58.8324 98.4456 59.0086 98.5152C59.1845 98.5847 59.3613 98.6516 59.5389 98.716C59.738 98.7881 59.8414 99.0071 59.7713 99.2064C60.4411 99.4348 61.1215 99.6275 61.8095 99.7842C61.8544 99.5778 62.0574 99.4457 62.2647 99.4888C62.6349 99.5657 63.0072 99.632 63.3812 99.6876C63.5906 99.7188 63.7354 99.9128 63.7063 100.122C64.4063 100.213 65.1113 100.267 65.8187 100.283C65.8217 100.072 65.9944 99.9024 66.2061 99.9034C66.395 99.9043 66.584 99.9025 66.7731 99.898L66.7823 99.8978L67.2502 99.8979C67.4631 99.8979 67.6357 100.071 67.6357 100.283H69.2038C69.2038 100.071 69.3764 99.8979 69.5894 99.8979H70.525C70.738 99.8979 70.9106 100.071 70.9106 100.283H72.4787C72.4787 100.071 72.6513 99.8979 72.8642 99.8979H73.7999C74.0128 99.8979 74.1855 100.071 74.1855 100.283H75.7536C75.7536 100.071 75.9262 99.8979 76.1391 99.8979H77.0748C77.2877 99.8979 77.4603 100.071 77.4603 100.283H79.0285C79.0285 100.071 79.2011 99.8979 79.414 99.8979H80.3497C80.5626 99.8979 80.7352 100.071 80.7352 100.283H82.3033C82.3033 100.071 82.4759 99.8979 82.6889 99.8979H83.6246C83.8375 99.8979 84.0101 100.071 84.0101 100.283H85.5782C85.5782 100.071 85.7508 99.8979 85.9638 99.8979H86.8994C87.1124 99.8979 87.285 100.071 87.285 100.283H88.8531C88.8531 100.071 89.0257 99.8979 89.2386 99.8979H90.1743C90.3872 99.8979 90.5599 100.071 90.5599 100.283H92.128C92.128 100.071 92.3006 99.8979 92.5135 99.8979H93.4492C93.6621 99.8979 93.8347 100.071 93.8347 100.283H95.4029C95.4029 100.071 95.5755 99.8979 95.7884 99.8979H96.7241C96.937 99.8979 97.1096 100.071 97.1096 100.283H98.6777C98.6777 100.071 98.8503 99.8979 99.0633 99.8979H99.999C100.212 99.8979 100.384 100.071 100.384 100.283H101.953C101.953 100.071 102.125 99.8979 102.338 99.8979H103.274C103.487 99.8979 103.659 100.071 103.659 100.283H105.227C105.227 100.071 105.4 99.8979 105.613 99.8979H106.549C106.762 99.8979 106.934 100.071 106.934 100.283H108.502C108.502 100.071 108.675 99.8979 108.888 99.8979H109.824C110.037 99.8979 110.209 100.071 110.209 100.283H111.777C111.777 100.071 111.95 99.8979 112.163 99.8979H113.098C113.311 99.8979 113.484 100.071 113.484 100.283H115.052C115.052 100.071 115.225 99.8979 115.438 99.8979H116.373C116.586 99.8979 116.759 100.071 116.759 100.283H118.327C118.327 100.071 118.5 99.8979 118.713 99.8979H119.648C119.861 99.8979 120.034 100.071 120.034 100.283H121.602C121.602 100.071 121.774 99.8979 121.987 99.8979H122.923C123.136 99.8979 123.309 100.071 123.309 100.283H124.877C124.877 100.071 125.049 99.8979 125.262 99.8979H126.198C126.411 99.8979 126.584 100.071 126.584 100.283H128.152C128.152 100.071 128.324 99.8979 128.537 99.8979H129.473C129.686 99.8979 129.858 100.071 129.858 100.283H131.427C131.427 100.071 131.599 99.8979 131.812 99.8979H132.748C132.961 99.8979 133.133 100.071 133.133 100.283H134.701C134.701 100.071 134.874 99.8979 135.087 99.8979H136.023C136.236 99.8979 136.408 100.071 136.408 100.283H137.976C137.976 100.071 138.149 99.8979 138.362 99.8979H139.298C139.51 99.8979 139.683 100.071 139.683 100.283H141.251C141.251 100.071 141.424 99.8979 141.637 99.8979H142.572C142.785 99.8979 142.958 100.071 142.958 100.283H144.526C144.526 100.071 144.699 99.8979 144.912 99.8979H145.847C146.06 99.8979 146.233 100.071 146.233 100.283H147.801C147.801 100.071 147.974 99.8979 148.186 99.8979H149.122C149.335 99.8979 149.508 100.071 149.508 100.283H151.076C151.076 100.071 151.248 99.8979 151.461 99.8979H152.397C152.61 99.8979 152.783 100.071 152.783 100.283H154.351C154.351 100.071 154.523 99.8979 154.736 99.8979H155.672C155.885 99.8979 156.057 100.071 156.057 100.283H157.626C157.626 100.071 157.798 99.8979 158.011 99.8979H158.479H158.49L158.49 99.898C158.63 99.9019 158.77 99.9038 158.91 99.9036C159.121 99.9034 159.293 100.073 159.296 100.284C159.758 100.271 160.218 100.238 160.676 100.183C160.649 99.9744 160.794 99.7816 161.003 99.7512C161.28 99.7109 161.556 99.6627 161.831 99.6066C162.038 99.5643 162.24 99.6965 162.285 99.9023C162.734 99.7984 163.179 99.6739 163.618 99.5288C163.549 99.3297 163.653 99.1117 163.852 99.0403C163.984 98.993 164.115 98.9438 164.245 98.8927C164.376 98.8415 164.506 98.7885 164.635 98.7337C164.829 98.651 165.054 98.7403 165.138 98.9331C165.56 98.7412 165.971 98.5302 166.372 98.3008C166.265 98.1193 166.324 97.885 166.505 97.7755C166.744 97.6301 166.98 97.4779 167.211 97.319C167.385 97.1994 167.623 97.2422 167.744 97.4143C168.118 97.1431 168.48 96.8545 168.828 96.5494C168.687 96.3927 168.698 96.1515 168.853 96.0082C168.956 95.9132 169.058 95.8167 169.158 95.7187C169.259 95.6205 169.358 95.521 169.456 95.4201C169.602 95.2682 169.844 95.263 169.997 95.4076C170.311 95.0661 170.609 94.7106 170.89 94.3424C170.72 94.2169 170.683 93.9782 170.807 93.807C170.972 93.5795 171.13 93.3472 171.281 93.1106C171.395 92.9326 171.63 92.8796 171.809 92.991C172.049 92.5948 172.27 92.1875 172.473 91.7701C172.282 91.6805 172.198 91.4539 172.286 91.2616C172.344 91.1338 172.4 91.0052 172.455 90.8756C172.509 90.746 172.562 90.6157 172.613 90.4847C172.689 90.2876 172.91 90.1891 173.107 90.2628C173.264 89.8254 173.4 89.3815 173.516 88.9326C173.312 88.8825 173.185 88.677 173.232 88.4712C173.296 88.1973 173.351 87.9216 173.399 87.6445C173.435 87.4363 173.632 87.296 173.84 87.3292C173.907 86.8705 173.953 86.4084 173.978 85.9443C173.767 85.9357 173.602 85.7594 173.608 85.5482C173.612 85.4077 173.614 85.2672 173.614 85.1265C173.614 84.9858 173.612 84.8452 173.608 84.7048C173.602 84.4936 173.767 84.3172 173.978 84.3086C173.953 83.8446 173.907 83.3825 173.84 82.9238C173.632 82.9569 173.435 82.8167 173.399 82.6085C173.351 82.3314 173.296 82.0557 173.232 81.7818C173.185 81.5759 173.312 81.3704 173.516 81.3204C173.4 80.8714 173.264 80.4276 173.107 79.9902C172.91 80.0639 172.689 79.9653 172.613 79.7683C172.562 79.6373 172.509 79.507 172.455 79.3773C172.4 79.2478 172.344 79.1191 172.286 78.9914C172.198 78.799 172.282 78.5725 172.473 78.4829C172.27 78.0655 172.049 77.6581 171.809 77.262C171.63 77.3733 171.395 77.3203 171.281 77.1423C171.13 76.9057 170.972 76.6735 170.807 76.4459C170.683 76.2747 170.72 76.0361 170.89 75.9105C170.609 75.5423 170.311 75.1869 169.997 74.8453C169.844 74.9899 169.602 74.9847 169.456 74.8328C169.358 74.732 169.259 74.6324 169.158 74.5343C169.058 74.4362 168.956 74.3397 168.853 74.2447C168.698 74.1015 168.687 73.8602 168.828 73.7036C168.48 73.3984 168.118 73.1099 167.744 72.8386C167.623 73.0107 167.385 73.0536 167.211 72.9339C166.98 72.775 166.744 72.6228 166.505 72.4775C166.324 72.3679 166.265 72.1336 166.372 71.9521C165.971 71.7228 165.56 71.5118 165.138 71.3198C165.054 71.5127 164.829 71.6019 164.635 71.5193C164.506 71.4645 164.376 71.4114 164.245 71.3603C164.115 71.3092 163.984 71.2599 163.852 71.2126C163.653 71.1412 163.549 70.9233 163.618 70.7241C163.179 70.5791 162.734 70.4545 162.285 70.3506C162.24 70.5565 162.038 70.6886 161.831 70.6463C161.556 70.5903 161.28 70.542 161.003 70.5018C160.794 70.4714 160.649 70.2785 160.676 70.0697C160.218 70.0151 159.758 69.9815 159.296 69.9691C159.293 70.1798 159.121 70.3496 158.91 70.3493C158.77 70.3492 158.63 70.351 158.49 70.3549L158.479 70.3552V70.3551H158.476C158.473 70.3551 158.47 70.355 158.468 70.355C158.465 70.355 158.462 70.3551 158.459 70.3551L158.457 70.3551L158.456 70.3551M151.621 72.0559L158.456 70.3551M151.621 72.0559L152.138 71.8068M151.621 72.0559L152.138 71.8068M158.456 70.3551V70.3546C158.254 70.3445 158.093 70.1789 158.09 69.975C158.052 69.976 158.015 69.9772 157.977 69.9785C157.848 69.983 157.72 69.9891 157.592 69.9968C157.602 70.2072 157.779 70.3711 157.99 70.3638C158.145 70.3584 158.301 70.3555 158.456 70.3551ZM152.138 71.8068C152.278 71.7392 152.42 71.6739 152.562 71.6109C152.755 71.5254 152.843 71.3005 152.76 71.1068L152.138 71.8068ZM154.293 70.5692C154.417 70.5333 154.541 70.499 154.665 70.4662C154.974 70.3848 155.285 70.3132 155.599 70.2516C155.725 70.2268 155.851 70.2037 155.978 70.1821C156.016 70.3893 155.88 70.5892 155.673 70.6299C155.368 70.6899 155.064 70.7597 154.763 70.839C154.559 70.8929 154.35 70.7723 154.293 70.5692Z" stroke="url(#paint4_linear)" stroke-width="0.771084" stroke-linecap="round" stroke-dasharray="0.95 2.38"/>
<path d="M98.0923 72.2681C98.8386 72.2681 99.5671 72.5682 100.171 73.1507C103.227 76.028 106.23 79.0112 109.109 82.012C110.335 83.283 110.299 85.1188 109.056 86.3897C108.416 87.0429 107.581 87.3959 106.728 87.3959C105.964 87.3959 105.253 87.1135 104.685 86.5486C101.77 83.7772 98.9807 80.9706 96.0134 78.005L95.7468 77.7402C95.1249 77.1224 94.7873 76.2927 94.8229 75.4101C94.8406 74.5628 95.2138 73.7685 95.8534 73.2036L95.8712 73.186L95.889 73.1683C96.5464 72.5858 97.3105 72.2681 98.0923 72.2681Z" fill="#4164A9"/>
<path d="M91.6243 65.8958C92.5128 65.8958 93.3124 66.2311 93.9165 66.8313C95.1426 68.067 95.107 70.1499 93.8632 71.3503C93.2591 71.9328 92.4772 72.2505 91.6421 72.2505C90.7714 72.2505 89.9541 71.9151 89.3322 71.2796C88.728 70.6795 88.4082 69.8675 88.4082 69.0202C88.4082 68.1729 88.7636 67.3785 89.3677 66.7784C89.9719 66.2135 90.7714 65.8958 91.6243 65.8958Z" fill="#5BC4D6"/>
<path d="M106.46 62.5066C107.259 63.2833 108.006 64.007 108.681 64.7484C109.854 66.0547 109.854 67.608 108.716 68.8084C105.82 71.8269 102.817 74.8101 99.7965 77.6697C99.2101 78.217 98.4994 78.517 97.7531 78.517C96.9712 78.517 96.2072 78.1993 95.6031 77.6168C94.377 76.4341 94.3059 74.6512 95.4431 73.5038C98.2328 70.6266 101.058 67.8375 104.043 64.8896C104.825 64.1129 105.642 63.3009 106.46 62.5066Z" fill="#5BC4D6"/>
<defs>
<filter id="filter0_d" x="0.506521" y="0.819414" width="264.482" height="176.578" filterUnits="userSpaceOnUse" color-interpolation-filters="sRGB">
<feFlood flood-opacity="0" result="BackgroundImageFix"/>
<feColorMatrix in="SourceAlpha" type="matrix" values="0 0 0 0 0 0 0 0 0 0 0 0 0 0 0 0 0 0 127 0"/>
<feOffset dx="23.1325" dy="3.08434"/>
<feGaussianBlur stdDeviation="38.5542"/>
<feColorMatrix type="matrix" values="0 0 0 0 0 0 0 0 0 0 0 0 0 0 0 0 0 0 1 0"/>
<feBlend mode="normal" in2="BackgroundImageFix" result="effect1_dropShadow"/>
<feBlend mode="normal" in="SourceGraphic" in2="effect1_dropShadow" result="shape"/>
</filter>
<linearGradient id="paint0_linear" x1="116.243" y1="-27.4194" x2="116.243" y2="227.251" gradientUnits="userSpaceOnUse">
<stop stop-color="#182642"/>
<stop offset="1" stop-color="#003286" stop-opacity="0"/>
</linearGradient>
<linearGradient id="paint1_linear" x1="108.651" y1="78.699" x2="108.651" y2="132.675" gradientUnits="userSpaceOnUse">
<stop stop-color="#5BC4D6" stop-opacity="0.28"/>
<stop offset="1" stop-color="#182540" stop-opacity="0"/>
</linearGradient>
<linearGradient id="paint2_linear" x1="81.5093" y1="33.4405" x2="134.981" y2="109.822" gradientUnits="userSpaceOnUse">
<stop stop-color="#5879B9"/>
<stop offset="1" stop-color="#425D95"/>
</linearGradient>
<linearGradient id="paint3_linear" x1="78.5279" y1="35.0331" x2="131.076" y2="108.54" gradientUnits="userSpaceOnUse">
<stop stop-color="#F3F7FF"/>
<stop offset="1" stop-color="#BDD3FF"/>
</linearGradient>
<linearGradient id="paint4_linear" x1="101.69" y1="33.2048" x2="167.43" y2="114.472" gradientUnits="userSpaceOnUse">
<stop stop-color="#93A4C4"/>
<stop offset="1" stop-color="#4A5C7F" stop-opacity="0"/>
</linearGradient>
</defs>
</svg>
