<svg width="216" height="58" viewBox="0 0 216 58" fill="none" xmlns="http://www.w3.org/2000/svg">
<path d="M49.1401 57.7801H4.86001C3.57151 57.7787 2.33621 57.2662 1.4251 56.355C0.513991 55.4439 0.00147352 54.2086 0 52.9201V4.86001C0.00147209 3.57151 0.51399 2.33621 1.4251 1.4251C2.33621 0.51399 3.57151 0.00147209 4.86001 0H49.1401C50.4286 0.00147352 51.6639 0.513991 52.575 1.4251C53.4861 2.33621 53.9986 3.57151 54.0001 4.86001V52.9201C53.9986 54.2086 53.4861 55.4439 52.575 56.355C51.6639 57.2662 50.4286 57.7787 49.1401 57.7801ZM4.86001 1.08C3.85783 1.08112 2.89703 1.47974 2.18838 2.18838C1.47974 2.89703 1.08112 3.85783 1.08 4.86001V52.9201C1.08113 53.9223 1.47974 54.8831 2.18838 55.5917C2.89703 56.3004 3.85783 56.699 4.86001 56.7001H49.1401C50.1423 56.699 51.1031 56.3004 51.8117 55.5917C52.5204 54.8831 52.919 53.9223 52.9201 52.9201V4.86001C52.919 3.85784 52.5204 2.89703 51.8117 2.18838C51.1031 1.47974 50.1423 1.08113 49.1401 1.08H4.86001Z" fill="#4B6185"/>
<path d="M130.14 57.7801H85.86C84.5715 57.7787 83.3362 57.2662 82.4251 56.355C81.514 55.4439 81.0015 54.2086 81 52.9201V4.86001C81.0015 3.57151 81.514 2.33621 82.4251 1.4251C83.3362 0.51399 84.5715 0.00147209 85.86 0H130.14C131.429 0.00147352 132.664 0.513991 133.575 1.4251C134.486 2.33621 134.999 3.57151 135 4.86001V52.9201C134.999 54.2086 134.486 55.4439 133.575 56.355C132.664 57.2662 131.429 57.7787 130.14 57.7801ZM85.86 1.08C84.8578 1.08112 83.897 1.47974 83.1884 2.18838C82.4797 2.89703 82.0811 3.85783 82.08 4.86001V52.9201C82.0811 53.9223 82.4797 54.8831 83.1884 55.5917C83.897 56.3004 84.8578 56.699 85.86 56.7001H130.14C131.142 56.699 132.103 56.3004 132.812 55.5917C133.52 54.8831 133.919 53.9223 133.92 52.9201V4.86001C133.919 3.85784 133.52 2.89703 132.812 2.18838C132.103 1.47974 131.142 1.08113 130.14 1.08H85.86Z" fill="#4B6185"/>
<path d="M13.7774 19.9801H9.45735C8.81309 19.9794 8.19541 19.7231 7.73985 19.2675C7.28429 18.812 7.02806 18.1943 7.02734 17.5501V13.2301C7.02806 12.5858 7.28429 11.9681 7.73985 11.5126C8.19541 11.057 8.81309 10.8008 9.45735 10.8H13.7774C14.4216 10.8008 15.0393 11.057 15.4948 11.5126C15.9504 11.9681 16.2066 12.5858 16.2074 13.2301V17.5501C16.2066 18.1943 15.9504 18.812 15.4948 19.2675C15.0393 19.7231 14.4216 19.9794 13.7774 19.9801Z" fill="#5BC4D6"/>
<path d="M13.7774 33.4801H9.45735C8.81309 33.4794 8.19541 33.2231 7.73985 32.7675C7.28429 32.312 7.02806 31.6943 7.02734 31.0501V26.7301C7.02806 26.0858 7.28429 25.4681 7.73985 25.0126C8.19541 24.557 8.81309 24.3008 9.45735 24.3H13.7774C14.4216 24.3008 15.0393 24.557 15.4948 25.0126C15.9504 25.4681 16.2066 26.0858 16.2074 26.7301V31.0501C16.2066 31.6943 15.9504 32.312 15.4948 32.7675C15.0393 33.2231 14.4216 33.4794 13.7774 33.4801Z" fill="#D2E1FF"/>
<path d="M45.3532 17.354H25.1845C24.7549 17.3535 24.3432 17.1827 24.0395 16.8789C23.7358 16.5752 23.5649 16.1635 23.5645 15.734V15.046C23.5649 14.6165 23.7358 14.2047 24.0395 13.901C24.3432 13.5973 24.7549 13.4265 25.1845 13.426H45.3532C45.7827 13.4265 46.1944 13.5973 46.4982 13.901C46.8019 14.2047 46.9727 14.6165 46.9732 15.046V15.734C46.9727 16.1635 46.8019 16.5752 46.4982 16.8789C46.1944 17.1827 45.7827 17.3535 45.3532 17.354Z" fill="#5BC4D6"/>
<path d="M95.1504 19.1329H90.8304C90.1861 19.1322 89.5685 18.8759 89.1129 18.4204C88.6573 17.9648 88.4011 17.3472 88.4004 16.7029V12.3829C88.4011 11.7386 88.6573 11.121 89.1129 10.6654C89.5685 10.2098 90.1861 9.9536 90.8304 9.95288H95.1504C95.7947 9.9536 96.4123 10.2098 96.8679 10.6654C97.3234 11.121 97.5797 11.7386 97.5804 12.3829V16.7029C97.5797 17.3472 97.3234 17.9648 96.8679 18.4204C96.4123 18.8759 95.7947 19.1322 95.1504 19.1329Z" fill="#D2E1FF"/>
<path d="M126.724 16.507H106.556C106.126 16.5066 105.714 16.3357 105.411 16.032C105.107 15.7283 104.936 15.3165 104.936 14.887V14.1991C104.936 13.7696 105.107 13.3578 105.411 13.0541C105.714 12.7504 106.126 12.5796 106.556 12.5791H126.724C127.154 12.5796 127.566 12.7504 127.869 13.0541C128.173 13.3578 128.344 13.7696 128.344 14.1991V14.887C128.344 15.3165 128.173 15.7283 127.869 16.032C127.566 16.3357 127.154 16.5066 126.724 16.507Z" fill="#D2E1FF"/>
<path d="M126.723 29.467H89.2743C88.8448 29.4665 88.433 29.2957 88.1293 28.992C87.8256 28.6883 87.6548 28.2765 87.6543 27.847V27.1591C87.6548 26.7296 87.8256 26.3178 88.1293 26.0141C88.433 25.7104 88.8448 25.5395 89.2743 25.5391H126.723C127.153 25.5395 127.564 25.7104 127.868 26.0141C128.172 26.3178 128.343 26.7296 128.343 27.1591V27.847C128.343 28.2765 128.172 28.6883 127.868 28.992C127.564 29.2957 127.153 29.4665 126.723 29.467Z" fill="#5BC4D6"/>
<path d="M126.723 38.6469H89.2743C88.8448 38.6465 88.433 38.4756 88.1293 38.1719C87.8256 37.8682 87.6548 37.4564 87.6543 37.0269V36.339C87.6548 35.9095 87.8256 35.4977 88.1293 35.194C88.433 34.8903 88.8448 34.7195 89.2743 34.719H126.723C127.153 34.7195 127.564 34.8903 127.868 35.194C128.172 35.4977 128.343 35.9095 128.343 36.339V37.0269C128.343 37.4564 128.172 37.8682 127.868 38.1719C127.564 38.4756 127.153 38.6465 126.723 38.6469Z" fill="#D2E1FF"/>
<path d="M126.723 47.8269H89.2743C88.8448 47.8264 88.433 47.6556 88.1293 47.3518C87.8256 47.0481 87.6548 46.6364 87.6543 46.2069V45.5189C87.6548 45.0894 87.8256 44.6776 88.1293 44.3739C88.433 44.0702 88.8448 43.8994 89.2743 43.8989H126.723C127.153 43.8994 127.564 44.0702 127.868 44.3739C128.172 44.6776 128.343 45.0894 128.343 45.5189V46.2069C128.343 46.6364 128.172 47.0481 127.868 47.3518C127.564 47.6556 127.153 47.8264 126.723 47.8269Z" fill="#D2E1FF"/>
<path d="M211.14 57.7801H166.86C165.572 57.7787 164.336 57.2662 163.425 56.355C162.514 55.4439 162.001 54.2086 162 52.9201V4.86001C162.001 3.57151 162.514 2.33621 163.425 1.4251C164.336 0.51399 165.572 0.00147209 166.86 0H211.14C212.429 0.00147352 213.664 0.513991 214.575 1.4251C215.486 2.33621 215.999 3.57151 216 4.86001V52.9201C215.999 54.2086 215.486 55.4439 214.575 56.355C213.664 57.2662 212.429 57.7787 211.14 57.7801ZM166.86 1.08C165.858 1.08112 164.897 1.47974 164.188 2.18838C163.48 2.89703 163.081 3.85783 163.08 4.86001V52.9201C163.081 53.9223 163.48 54.8831 164.188 55.5917C164.897 56.3004 165.858 56.699 166.86 56.7001H211.14C212.142 56.699 213.103 56.3004 213.812 55.5917C214.52 54.8831 214.919 53.9223 214.92 52.9201V4.86001C214.919 3.85784 214.52 2.89703 213.812 2.18838C213.103 1.47974 212.142 1.08113 211.14 1.08H166.86Z" fill="#4B6185"/>
<path d="M207.726 16.507H187.558C187.128 16.5066 186.716 16.3357 186.413 16.032C186.109 15.7283 185.938 15.3165 185.938 14.887V14.1991C185.938 13.7696 186.109 13.3578 186.413 13.0541C186.716 12.7504 187.128 12.5796 187.558 12.5791H207.726C208.156 12.5796 208.567 12.7504 208.871 13.0541C209.175 13.3578 209.346 13.7696 209.346 14.1991V14.887C209.346 15.3165 209.175 15.7283 208.871 16.032C208.567 16.3357 208.156 16.5066 207.726 16.507Z" fill="#D2E1FF"/>
<path d="M207.725 29.467H170.276C169.847 29.4665 169.435 29.2957 169.131 28.992C168.828 28.6883 168.657 28.2765 168.656 27.847V27.1591C168.657 26.7296 168.828 26.3178 169.131 26.0141C169.435 25.7104 169.847 25.5395 170.276 25.5391H207.725C208.155 25.5395 208.566 25.7104 208.87 26.0141C209.174 26.3178 209.345 26.7296 209.345 27.1591V27.847C209.345 28.2765 209.174 28.6883 208.87 28.992C208.566 29.2957 208.155 29.4665 207.725 29.467Z" fill="#D2E1FF"/>
<path d="M207.725 38.6469H170.276C169.847 38.6465 169.435 38.4756 169.131 38.1719C168.828 37.8682 168.657 37.4564 168.656 37.0269V36.339C168.657 35.9095 168.828 35.4977 169.131 35.194C169.435 34.8903 169.847 34.7195 170.276 34.719H207.725C208.155 34.7195 208.566 34.8903 208.87 35.194C209.174 35.4977 209.345 35.9095 209.345 36.339V37.0269C209.345 37.4564 209.174 37.8682 208.87 38.1719C208.566 38.4756 208.155 38.6465 207.725 38.6469Z" fill="#D2E1FF"/>
<path d="M207.725 47.8269H170.276C169.847 47.8264 169.435 47.6556 169.131 47.3518C168.828 47.0481 168.657 46.6364 168.656 46.2069V45.5189C168.657 45.0894 168.828 44.6776 169.131 44.3739C169.435 44.0702 169.847 43.8994 170.276 43.8989H207.725C208.155 43.8994 208.566 44.0702 208.87 44.3739C209.174 44.6776 209.345 45.0894 209.345 45.5189V46.2069C209.345 46.6364 209.174 47.0481 208.87 47.3518C208.566 47.6556 208.155 47.8264 207.725 47.8269Z" fill="#D2E1FF"/>
<path d="M45.3532 30.854H25.1845C24.7549 30.8535 24.3432 30.6827 24.0395 30.3789C23.7358 30.0752 23.5649 29.6635 23.5645 29.234V28.546C23.5649 28.1165 23.7358 27.7047 24.0395 27.401C24.3432 27.0973 24.7549 26.9265 25.1845 26.926H45.3532C45.7827 26.9265 46.1944 27.0973 46.4982 27.401C46.8019 27.7047 46.9727 28.1165 46.9732 28.546V29.234C46.9727 29.6635 46.8019 30.0752 46.4982 30.3789C46.1944 30.6827 45.7827 30.8535 45.3532 30.854Z" fill="#D2E1FF"/>
<path d="M13.7774 46.9801H9.45735C8.81309 46.9794 8.19541 46.7231 7.73985 46.2675C7.28429 45.812 7.02806 45.1943 7.02734 44.5501V40.2301C7.02806 39.5858 7.28429 38.9681 7.73985 38.5126C8.19541 38.057 8.81309 37.8008 9.45735 37.8H13.7774C14.4216 37.8008 15.0393 38.057 15.4948 38.5126C15.9504 38.9681 16.2066 39.5858 16.2074 40.2301V44.5501C16.2066 45.1943 15.9504 45.812 15.4948 46.2675C15.0393 46.7231 14.4216 46.9794 13.7774 46.9801Z" fill="#D2E1FF"/>
<path d="M45.3532 44.354H25.1845C24.7549 44.3535 24.3432 44.1827 24.0395 43.8789C23.7358 43.5752 23.5649 43.1635 23.5645 42.734V42.046C23.5649 41.6165 23.7358 41.2047 24.0395 40.901C24.3432 40.5973 24.7549 40.4265 25.1845 40.426H45.3532C45.7827 40.4265 46.1944 40.5973 46.4982 40.901C46.8019 41.2047 46.9727 41.6165 46.9732 42.046V42.734C46.9727 43.1635 46.8019 43.5752 46.4982 43.8789C46.1944 44.1827 45.7827 44.3535 45.3532 44.354Z" fill="#D2E1FF"/>
<path d="M178.739 14.0401C178.739 14.0276 178.741 14.0156 178.741 14.0031C178.741 13.3648 178.615 12.7329 178.371 12.1432C178.127 11.5536 177.769 11.0178 177.317 10.5665C176.866 10.1152 176.33 9.75723 175.741 9.513C175.151 9.26876 174.519 9.14306 173.881 9.14307V14.0401H178.739Z" fill="#5BC4D6"/>
<path d="M173.34 14.5801V9.68311C172.381 9.68277 171.442 9.96659 170.644 10.4988C169.845 11.031 169.222 11.7877 168.852 12.6736C168.483 13.5594 168.385 14.5348 168.569 15.4766C168.753 16.4185 169.212 17.2846 169.888 17.966C170.564 18.6473 171.427 19.1132 172.367 19.3051C173.307 19.4969 174.284 19.406 175.172 19.0439C176.061 18.6818 176.823 18.0646 177.361 17.2702C177.9 16.4758 178.191 15.5398 178.198 14.5801H173.34Z" fill="#D2E1FF"/>
</svg>
