<svg width="321" height="437" viewBox="0 0 321 437" fill="none" xmlns="http://www.w3.org/2000/svg" preserveAspectRatio="none">
<g opacity="0.05">
<path d="M320.294 343.939V308.493H308.264C298.96 296.271 287.185 286.147 273.706 278.781C211.374 242.77 110.204 242.77 47.6294 278.781C34.1508 286.147 22.3758 296.271 13.072 308.493H0.879883V343.939C0.879883 367.516 16.4631 391.173 47.6294 409.178C109.962 445.189 211.132 445.189 273.706 409.178C304.711 391.173 320.294 367.516 320.294 343.939Z" fill="#4164A9"/>
<path d="M160.666 400.708C248.87 400.708 320.373 359.426 320.373 308.501C320.373 257.576 248.87 216.294 160.666 216.294C72.4623 216.294 0.958984 257.576 0.958984 308.501C0.958984 359.426 72.4623 400.708 160.666 400.708Z" fill="#BECEFA"/>
<path d="M160.666 400.708C248.87 400.708 320.373 359.426 320.373 308.501C320.373 257.576 248.87 216.294 160.666 216.294C72.4623 216.294 0.958984 257.576 0.958984 308.501C0.958984 359.426 72.4623 400.708 160.666 400.708Z" fill="#D2E1FF"/>
<path d="M236.637 352.413C194.652 376.635 126.586 376.635 84.6004 352.413C73.292 346.425 63.9133 337.354 57.5521 326.252C46.7327 305.098 73.7004 289.757 102.687 273.124C144.672 248.902 174.466 242.846 216.452 267.068C245.277 283.782 274.586 305.098 263.686 326.172C257.402 337.354 248.005 346.47 236.637 352.413Z" fill="#24126A"/>
<path d="M84.6004 300.096C126.586 275.873 194.652 275.873 236.637 300.096C247.997 306.013 257.393 315.101 263.686 326.256C274.586 305.102 265.543 281.283 236.637 264.65C194.652 240.428 126.586 240.428 84.6004 264.65C55.6948 281.283 46.7327 305.021 57.5521 326.256C63.8667 315.118 73.2574 306.035 84.6004 300.096Z" fill="#4164A9"/>
</g>
<path d="M257.119 304.658C257.119 305.271 256.649 306 255.415 306.81C254.207 307.603 252.391 308.387 250.005 309.144C245.241 310.656 238.321 312.025 229.74 313.178C212.584 315.481 188.868 316.907 162.661 316.907C136.454 316.907 112.737 315.481 95.5814 313.178C86.9997 312.025 80.0799 310.656 75.3157 309.144C72.9301 308.387 71.1146 307.603 69.9057 306.81C68.6717 306 68.2021 305.271 68.2021 304.658C68.2021 304.045 68.6717 303.316 69.9057 302.507C71.1146 301.714 72.9301 300.93 75.3157 300.172C80.0799 298.66 86.9997 297.291 95.5814 296.139C112.737 293.836 136.454 292.409 162.661 292.409C188.868 292.409 212.584 293.836 229.74 296.139C238.321 297.291 245.241 298.66 250.005 300.172C252.391 300.93 254.207 301.714 255.415 302.507C256.649 303.316 257.119 304.045 257.119 304.658Z" fill="#202F4D" stroke="#354668"/>
<path d="M200.517 24.6122C198.569 24.6079 196.64 24.9966 194.846 25.7552C194.888 25.3757 194.909 24.9941 194.907 24.6122C194.911 22.6983 194.406 20.8179 193.445 19.1628C192.484 17.5077 191.101 16.1372 189.438 15.1913C187.774 14.2455 185.889 13.7581 183.975 13.7789C182.061 13.7997 180.187 14.328 178.545 15.3098C178.187 11.043 176.204 7.07651 173.007 4.22915C169.809 1.3818 165.64 -0.129005 161.36 0.00864325C157.081 0.146292 153.017 1.92188 150.009 4.96885C147.001 8.01582 145.278 12.1015 145.195 16.3825C142.548 15.3287 139.701 14.8727 136.857 15.0471C134.013 15.2215 131.243 16.0219 128.744 17.3912C126.246 18.7605 124.081 20.6648 122.403 22.9681C120.726 25.2713 119.579 27.9166 119.043 30.7149C118.507 33.5131 118.595 36.3953 119.303 39.1553C120.01 41.9152 121.318 44.4849 123.133 46.6806C124.949 48.8764 127.227 50.6439 129.805 51.8569C132.383 53.0699 135.197 53.6985 138.047 53.6976H200.517C202.427 53.6976 204.318 53.3214 206.082 52.5906C207.847 51.8598 209.45 50.7885 210.8 49.4381C212.151 48.0877 213.222 46.4846 213.953 44.7201C214.683 42.9557 215.06 41.0647 215.06 39.1549C215.06 37.2451 214.683 35.354 213.953 33.5896C213.222 31.8252 212.151 30.2221 210.8 28.8716C209.45 27.5212 207.847 26.45 206.082 25.7192C204.318 24.9883 202.427 24.6122 200.517 24.6122Z" fill="url(#paint0_linear)"/>
<path d="M206.673 24.6122C204.725 24.6079 202.796 24.9966 201.002 25.7552C201.045 25.3757 201.065 24.9941 201.064 24.6122C201.067 22.6983 200.562 20.8179 199.601 19.1628C198.641 17.5077 197.258 16.1372 195.594 15.1913C193.93 14.2455 192.045 13.7581 190.131 13.7789C188.218 13.7997 186.344 14.328 184.701 15.3098C184.343 11.043 182.361 7.07651 179.163 4.22915C175.965 1.3818 171.796 -0.129005 167.517 0.00864325C163.237 0.146292 159.174 1.92188 156.166 4.96885C153.157 8.01582 151.434 12.1015 151.351 16.3825C148.704 15.3287 145.857 14.8727 143.013 15.0471C140.169 15.2215 137.399 16.0219 134.9 17.3912C132.402 18.7605 130.237 20.6648 128.56 22.9681C126.883 25.2713 125.735 27.9166 125.199 30.7149C124.663 33.5131 124.752 36.3953 125.459 39.1553C126.166 41.9152 127.474 44.4849 129.29 46.6806C131.105 48.8764 133.383 50.6439 135.962 51.8569C138.54 53.0699 141.354 53.6985 144.203 53.6976H206.673C208.583 53.6976 210.474 53.3214 212.238 52.5906C214.003 51.8598 215.606 50.7885 216.956 49.4381C218.307 48.0877 219.378 46.4846 220.109 44.7201C220.84 42.9557 221.216 41.0647 221.216 39.1549C221.216 37.2451 220.84 35.354 220.109 33.5896C219.378 31.8252 218.307 30.2221 216.956 28.8716C215.606 27.5212 214.003 26.45 212.238 25.7192C210.474 24.9883 208.583 24.6122 206.673 24.6122Z" fill="url(#paint1_linear)"/>
<g opacity="0.3">
<path d="M194.126 65.5652C194.021 65.5981 193.92 65.6389 193.822 65.6872C193.048 66.0753 192.578 66.9313 192.555 68.1281C192.533 69.325 193.011 70.6761 193.77 71.8605C194.507 73.0491 195.534 74.0304 196.756 74.712L211.735 82.5749C212.758 83.1099 213.683 83.1696 214.36 82.8238L217.756 81.1218C218.431 80.7834 218.854 80.0494 218.864 78.9968C218.822 77.8314 218.454 76.701 217.801 75.7347C217.16 74.6971 216.264 73.8406 215.199 73.2465C214.834 73.0545 214.442 72.9194 214.037 72.8459C213.793 71.2212 213.199 69.6691 212.295 68.2973C211.175 66.5381 209.62 64.9979 207.893 64.0922C206.534 63.3781 204.818 62.9725 203.449 63.6592L201.118 64.8262C200.02 64.0101 198.445 63.3532 197.218 63.9678L193.819 65.6697C193.919 65.6273 194.021 65.5923 194.126 65.5652Z" fill="url(#paint2_linear)"/>
<path d="M193.769 71.8703C193.01 70.676 192.545 69.3348 192.555 68.138C192.575 65.7219 194.491 64.7614 196.835 65.9931C197.438 66.3168 197.993 66.7248 198.482 67.2049C199.303 65.0052 201.692 64.3508 204.498 65.8214C206.223 66.7271 207.778 68.2673 208.9 70.0265C209.804 71.3991 210.399 72.9521 210.642 74.5776C211.048 74.6504 211.441 74.7847 211.806 74.9757C212.87 75.5718 213.766 76.4279 214.409 77.4639C215.061 78.4298 215.428 79.5592 215.469 80.7235C215.449 82.8286 213.782 83.6646 211.737 82.5947L196.758 74.7318C195.534 74.0477 194.506 73.0628 193.769 71.8703Z" fill="url(#paint3_linear)"/>
</g>
<g opacity="0.3">
<path d="M103.871 76.116C103.975 76.1489 104.076 76.1896 104.174 76.2379C104.948 76.6261 105.418 77.4821 105.441 78.6789C105.463 79.8758 104.985 81.2269 104.226 82.4113C103.489 83.5998 102.462 84.5812 101.24 85.2628L86.2612 93.1257C85.2385 93.6607 84.3129 93.7204 83.6361 93.3745L80.2396 91.6726C79.5653 91.3342 79.1423 90.6001 79.1324 89.5476C79.1737 88.3821 79.5419 87.2518 80.1948 86.2855C80.8362 85.2479 81.7321 84.3914 82.7975 83.7972C83.1622 83.6052 83.5541 83.4701 83.9596 83.3966C84.2031 81.772 84.7975 80.2199 85.7013 78.8481C86.8211 77.0889 88.3762 75.5487 90.1031 74.643C91.4616 73.9288 93.1785 73.5233 94.5471 74.21L96.8786 75.377C97.9759 74.5609 99.551 73.904 100.778 74.5186L104.177 76.2205C104.077 76.178 103.975 76.1431 103.871 76.116Z" fill="url(#paint4_linear)"/>
<path d="M104.227 82.4211C104.986 81.2267 105.451 79.8856 105.441 78.6887C105.421 76.2726 103.505 75.3122 101.161 76.5439C100.558 76.8675 100.003 77.2756 99.5142 77.7556C98.6931 75.556 96.3044 74.9016 93.4976 76.3722C91.7733 77.2779 90.2181 78.8181 89.0959 80.5773C88.1919 81.9499 87.5975 83.5029 87.3542 85.1283C86.948 85.2012 86.5554 85.3355 86.1896 85.5264C85.1257 86.1226 84.2303 86.9787 83.5869 88.0147C82.9353 88.9805 82.568 90.11 82.5269 91.2743C82.5468 93.3794 84.214 94.2154 86.2593 93.1455L101.239 85.2826C102.462 84.5985 103.49 83.6136 104.227 82.4211Z" fill="url(#paint5_linear)"/>
</g>
<rect width="42.1694" height="57.1726" rx="5" transform="matrix(-0.965926 -0.258819 -0.258819 0.965926 232.121 98.5127)" fill="#273C65"/>
<rect width="24.9963" height="3.40859" rx="1.70429" transform="matrix(-0.866025 -0.5 -0.5 0.866025 221.516 115.626)" fill="#365082"/>
<rect width="24.9963" height="3.40859" rx="1.70429" transform="matrix(-0.866025 -0.5 -0.5 0.866025 218.863 120.217)" fill="#365082"/>
<rect width="24.9963" height="3.40859" rx="1.70429" transform="matrix(-0.866025 -0.5 -0.5 0.866025 216.213 124.81)" fill="#365082"/>
<rect width="42.1694" height="52.44" rx="5" transform="matrix(-0.977606 0.210445 0.210445 0.977606 198.881 81.1602)" fill="url(#paint6_linear)"/>
<rect width="42.1694" height="57.1726" rx="5" transform="matrix(-0.977606 0.210445 0.210445 0.977606 195.092 77.373)" fill="url(#paint7_linear)"/>
<rect width="24.9963" height="3.40859" rx="1.70429" transform="matrix(-0.977369 0.211542 0.211542 0.977369 189.391 100.476)" fill="#6EBDDD"/>
<rect width="24.9963" height="3.40859" rx="1.70429" transform="matrix(-0.977369 0.211542 0.211542 0.977369 190.51 105.657)" fill="#6EBDDD"/>
<rect width="24.9963" height="3.40859" rx="1.70429" transform="matrix(-0.977369 0.211542 0.211542 0.977369 191.633 110.841)" fill="#6EBDDD"/>
<rect x="105.51" y="80.9277" width="42.1694" height="57.1726" rx="5" transform="rotate(-15 105.51 80.9277)" fill="#273C65"/>
<rect x="116.113" y="98.04" width="24.9963" height="3.40859" rx="1.70429" transform="rotate(-30 116.113 98.04)" fill="#365082"/>
<rect x="118.768" y="102.631" width="24.9963" height="3.40859" rx="1.70429" transform="rotate(-30 118.768 102.631)" fill="#365082"/>
<rect x="121.416" y="107.223" width="24.9963" height="3.40859" rx="1.70429" transform="rotate(-30 121.416 107.223)" fill="#365082"/>
<rect x="138.748" y="63.5752" width="42.1694" height="52.44" rx="5" transform="rotate(12.1484 138.748 63.5752)" fill="url(#paint8_linear)"/>
<rect x="142.537" y="59.7881" width="42.1694" height="57.1726" rx="5" transform="rotate(12.1484 142.537 59.7881)" fill="url(#paint9_linear)"/>
<rect x="148.24" y="82.8906" width="24.9963" height="3.40859" rx="1.70429" transform="rotate(12.2127 148.24 82.8906)" fill="#5C80C7"/>
<rect x="147.121" y="88.0723" width="24.9963" height="3.40859" rx="1.70429" transform="rotate(12.2127 147.121 88.0723)" fill="#5C80C7"/>
<rect x="145.998" y="93.2549" width="24.9963" height="3.40859" rx="1.70429" transform="rotate(12.2127 145.998 93.2549)" fill="#5C80C7"/>
<path d="M292.319 350.233C292.212 350.235 292.106 350.213 292.008 350.169C291.911 350.126 291.823 350.061 291.753 349.98C291.687 349.906 291.635 349.819 291.602 349.725C291.569 349.631 291.555 349.531 291.561 349.432C291.567 349.332 291.592 349.235 291.635 349.145C291.679 349.055 291.739 348.975 291.814 348.909C309.863 332.73 318.347 313.942 316.335 294.639C314.039 272.585 297.81 251.806 270.63 236.112C268.84 235.101 266.979 234.09 265.109 233.079C264.939 232.981 264.812 232.822 264.754 232.635C264.696 232.447 264.71 232.245 264.795 232.068C264.841 231.981 264.903 231.904 264.979 231.841C265.055 231.778 265.142 231.731 265.236 231.702C265.33 231.672 265.428 231.662 265.526 231.671C265.624 231.68 265.719 231.708 265.806 231.754C267.687 232.766 269.568 233.777 271.378 234.788C298.983 250.724 315.485 271.928 317.841 294.447C319.864 314.246 311.248 333.458 292.815 350.001C292.684 350.137 292.508 350.22 292.319 350.233Z" fill="#243555"/>
<path d="M158.906 392.249C116.962 392.249 76.8591 382.744 46.7667 365.372C16.6742 348 0 324.783 0 300.111C0 275.438 16.6034 252.232 46.7464 234.83C89.7414 210.005 152.242 201.552 209.879 212.756C210.074 212.797 210.246 212.914 210.358 213.08C210.469 213.246 210.511 213.449 210.475 213.646C210.457 213.744 210.42 213.837 210.365 213.921C210.31 214.004 210.239 214.076 210.156 214.132C210.073 214.187 209.98 214.226 209.882 214.245C209.784 214.264 209.683 214.263 209.585 214.242C152.303 203.119 90.1964 211.492 47.5048 236.144C17.8472 253.233 1.51676 275.954 1.51676 300.111C1.51676 324.268 17.8472 346.969 47.5048 364.088C81.5813 383.765 128.631 393.27 176.611 390.196C176.711 390.189 176.811 390.202 176.905 390.234C177 390.266 177.087 390.316 177.163 390.382C177.238 390.448 177.299 390.528 177.343 390.617C177.388 390.707 177.414 390.804 177.42 390.904C177.431 391.105 177.363 391.302 177.231 391.453C177.099 391.604 176.913 391.697 176.712 391.713C170.746 392.077 164.811 392.256 158.906 392.249Z" fill="#243555"/>
<path d="M208.503 196.597V165.867C208.503 165.867 163.254 162.045 160.635 162.045C158.016 162.045 111.279 166.09 111.279 166.09V196.748C111.277 197.006 111.34 197.26 111.461 197.486C111.7 197.909 112.05 198.259 112.473 198.498C113.756 199.165 115.228 199.379 116.649 199.104C145.244 194.19 174.464 194.149 203.073 198.983C205.298 199.367 207.634 198.639 208.291 197.355C208.432 197.127 208.506 196.864 208.503 196.597Z" fill="#7CD8E8"/>
<path d="M112.522 167.778C112.1 167.539 111.75 167.19 111.511 166.767C110.844 165.483 112.098 164.128 114.322 163.734C144.504 158.547 175.345 158.505 205.54 163.612C207.765 163.986 209.039 165.341 208.381 166.646C207.724 167.95 205.348 168.668 203.164 168.274C174.555 163.44 145.334 163.481 116.739 168.395C115.304 168.676 113.816 168.459 112.522 167.778Z" fill="url(#paint10_linear)"/>
<path d="M313.14 257.166V232.524L283.553 196.456L265.463 188.366V219.217C265.512 219.572 265.65 219.91 265.863 220.198C266.077 220.486 266.36 220.716 266.686 220.865C292.34 235.679 307.133 255.023 310.096 275.003C312.533 271.821 314.6 268.371 316.254 264.72C315.38 262.137 314.34 259.614 313.14 257.166Z" fill="#7CD8E8"/>
<path d="M319.165 280.898V250.279L313.21 260.674L306.132 277.702L296.495 292.02L291.561 294.811V325.49C291.597 325.86 291.73 326.213 291.947 326.515C292.163 326.817 292.456 327.056 292.794 327.209C293.09 327.375 293.401 327.511 293.724 327.614C295.747 328.261 298.315 327.836 299.438 326.663C312.724 312.78 319.509 296.884 319.145 280.968L319.165 280.898Z" fill="url(#paint11_linear)"/>
<path d="M292.796 296.48C291.501 295.731 291.158 294.558 292.088 293.588C324.314 259.916 313.868 217.376 266.697 190.145C265.059 189.194 265.059 187.657 266.697 186.717C267.616 186.248 268.633 186.004 269.665 186.004C270.697 186.004 271.714 186.248 272.633 186.717C297.498 201.076 313.08 219.267 317.772 239.298C322.281 258.733 315.749 278.825 299.439 295.923C298.317 297.096 295.758 297.521 293.726 296.874C293.403 296.775 293.091 296.642 292.796 296.48Z" fill="url(#paint12_linear)"/>
<path d="M317.769 239.339C313.108 219.267 297.495 201.076 272.631 186.758C271.668 186.245 270.586 186 269.496 186.05C270.473 186.057 271.434 186.3 272.297 186.758C297.162 201.117 312.744 219.308 317.426 239.339C321.935 258.774 315.403 278.866 299.093 295.965C298.182 296.759 297.016 297.2 295.807 297.208C297.13 297.267 298.427 296.823 299.437 295.965C315.767 278.876 322.279 258.774 317.769 239.339Z" fill="white"/>
<path d="M100.896 200.722V170.084L81.8456 175.383L66.314 180.337C66.314 180.337 55.7675 186.526 55.272 186.718C54.7765 186.91 46.4141 191.662 46.4141 191.662L34.0374 198.427L25.6548 206.618C25.6548 206.618 18.5766 216.143 18.3238 216.234C18.071 216.325 3.15625 237.812 3.15625 237.812V268.572C3.21023 268.924 3.35006 269.258 3.56342 269.544C3.77678 269.83 4.05713 270.058 4.37977 270.21C5.09849 270.598 5.8911 270.828 6.70546 270.888C8.99071 271.09 11.1445 270.19 11.4984 268.865C16.4329 250.583 31.0545 233.99 53.7755 220.875C67.7929 212.954 82.8119 206.955 98.4288 203.038C100.057 202.644 100.987 201.693 100.896 200.722Z" fill="url(#paint13_linear)"/>
<path d="M4.42981 239.441C3.51976 238.905 3.0344 238.147 3.24674 237.348C8.46439 218.055 23.8948 200.531 47.8899 186.668C62.6743 178.322 78.5126 172 94.9802 167.87C97.0935 167.324 99.581 167.87 100.531 169.084C101.482 170.297 100.531 171.743 98.4283 172.289C82.8299 176.204 67.8281 182.196 53.8255 190.106C31.1045 203.251 16.483 219.814 11.5485 238.096C11.1945 239.421 9.04075 240.321 6.7555 240.118C5.94114 240.059 5.14853 239.828 4.42981 239.441Z" fill="url(#paint14_linear)"/>
<path d="M3.75118 237.883C8.95871 218.59 24.4195 201.066 48.3843 187.213C63.1689 178.866 79.0071 172.54 95.4745 168.406C96.3244 168.176 97.2129 168.125 98.0833 168.258C98.9538 168.39 99.7872 168.702 100.53 169.174V169.124C99.5798 167.91 97.0924 167.364 94.979 167.91C78.5115 172.04 62.6732 178.362 47.8888 186.708C23.8937 200.571 8.45312 218.054 3.24559 237.388C3.17462 237.738 3.21322 238.101 3.35615 238.429C3.49908 238.756 3.73939 239.032 4.04442 239.218C3.8938 239.034 3.78872 238.818 3.73776 238.586C3.6868 238.354 3.6914 238.113 3.75118 237.883Z" fill="#68D2E4"/>
<path d="M177.106 371.216V340.477L155.235 341.377L133.232 338.141L115.233 335.785L102.472 333.378L82.4707 328.322L60.316 319.95L48.6875 311.658L29.7483 298.897L23.4588 291.405L12.2854 274.69L7.43175 259.098L2.0321 260.109V290.929C2.02706 291.01 2.02706 291.091 2.0321 291.172C5.55097 312.295 21.8207 332.205 47.8482 347.231C80.9034 366.312 126.608 375.999 173.233 373.795C175.559 373.663 177.258 372.521 177.106 371.216Z" fill="url(#paint15_linear)"/>
<path d="M47.8898 316.471C21.8623 301.445 5.59256 281.536 2.07368 260.412C1.86134 259.077 3.54999 257.894 5.85546 257.773C8.16093 257.652 10.2136 258.612 10.4361 259.947C13.7628 279.948 29.1731 298.806 53.8355 313.044C85.1818 331.113 128.43 340.285 172.598 338.202C174.913 338.09 176.935 339.091 177.128 340.426C177.32 341.761 175.591 342.924 173.285 343.035C126.65 345.239 80.945 335.552 47.8898 316.471Z" fill="url(#paint16_linear)"/>
<path d="M173.871 342.58C127.236 344.784 81.5314 335.097 48.4863 316.017C22.4486 300.94 6.21934 281.04 2.67013 259.917C2.6375 259.675 2.66063 259.429 2.73775 259.198C2.81487 258.966 2.94394 258.756 3.11505 258.582C2.78691 258.756 2.51654 259.022 2.33696 259.347C2.15738 259.672 2.07639 260.042 2.10388 260.412C5.62275 281.536 21.8925 301.446 47.92 316.472C80.9752 335.552 126.68 345.239 173.305 343.035C174.556 343.046 175.764 342.579 176.683 341.731C175.836 342.255 174.867 342.548 173.871 342.58Z" fill="#68D2E4"/>
<circle cx="76.1989" cy="172.915" r="11.1344" fill="#6FB4CA"/>
<path d="M72.9785 127.489H253.224L240.898 300.452C240.712 303.069 238.534 305.097 235.911 305.097H89.8663C87.2381 305.097 85.0585 303.062 84.8781 300.44L72.9785 127.489Z" fill="url(#paint17_linear)"/>
<path d="M94.0801 127.489H230.363L221.048 300.366C220.905 303.019 218.713 305.097 216.056 305.097H108.066C105.406 305.097 103.211 303.013 103.073 300.356L94.0801 127.489Z" fill="url(#paint18_linear)" fill-opacity="0.2"/>
<rect x="58.0312" y="109.025" width="211.898" height="28.1358" rx="6" fill="#48A2B1"/>
<rect x="58.0303" y="102.871" width="211.898" height="29.8943" rx="6" fill="#5BC4D6"/>
<path d="M76.4941 178.486C89.513 211.661 124.797 258.106 161.781 178.486" stroke="url(#paint19_linear)" stroke-width="8" stroke-linecap="round"/>
<circle cx="161.802" cy="172.036" r="11.1344" fill="#6FB4CA"/>
<defs>
<linearGradient id="paint0_linear" x1="87.0445" y1="60.6679" x2="253.4" y2="-67.6967" gradientUnits="userSpaceOnUse">
<stop offset="0.218763" stop-color="#B1C9FA"/>
<stop offset="1" stop-color="#33518D"/>
</linearGradient>
<linearGradient id="paint1_linear" x1="93.2007" y1="60.6679" x2="256.274" y2="-6.16996" gradientUnits="userSpaceOnUse">
<stop stop-color="#6B8ED1"/>
<stop offset="1" stop-color="#33518D"/>
</linearGradient>
<linearGradient id="paint2_linear" x1="177.128" y1="51.1132" x2="227.639" y2="80.4746" gradientUnits="userSpaceOnUse">
<stop stop-color="#212E47"/>
<stop offset="1" stop-color="#43A0B0"/>
</linearGradient>
<linearGradient id="paint3_linear" x1="188.821" y1="74.005" x2="217.685" y2="67.0379" gradientUnits="userSpaceOnUse">
<stop stop-color="#1D6572"/>
<stop offset="1" stop-color="#5BC4D6"/>
</linearGradient>
<linearGradient id="paint4_linear" x1="120.869" y1="61.664" x2="70.357" y2="91.0254" gradientUnits="userSpaceOnUse">
<stop stop-color="#212E47"/>
<stop offset="1" stop-color="#43A0B0"/>
</linearGradient>
<linearGradient id="paint5_linear" x1="109.175" y1="84.5558" x2="80.311" y2="77.5887" gradientUnits="userSpaceOnUse">
<stop stop-color="#1D6572"/>
<stop offset="1" stop-color="#5BC4D6"/>
</linearGradient>
<linearGradient id="paint6_linear" x1="21.0847" y1="1.05449e-07" x2="25.4848" y2="77.8802" gradientUnits="userSpaceOnUse">
<stop stop-color="#304F8D"/>
<stop offset="1" stop-color="#4164A9"/>
</linearGradient>
<linearGradient id="paint7_linear" x1="21.0847" y1="0" x2="21.0847" y2="57.1726" gradientUnits="userSpaceOnUse">
<stop stop-color="#59B0C9"/>
<stop offset="1" stop-color="#4C71B9"/>
</linearGradient>
<linearGradient id="paint8_linear" x1="159.833" y1="63.5752" x2="164.233" y2="141.455" gradientUnits="userSpaceOnUse">
<stop stop-color="#304F8D"/>
<stop offset="1" stop-color="#4164A9"/>
</linearGradient>
<linearGradient id="paint9_linear" x1="163.622" y1="59.7881" x2="163.622" y2="116.961" gradientUnits="userSpaceOnUse">
<stop stop-color="#4164A9"/>
<stop offset="1" stop-color="#4C71B9"/>
</linearGradient>
<linearGradient id="paint10_linear" x1="29509.4" y1="1770.88" x2="34672.9" y2="1770.88" gradientUnits="userSpaceOnUse">
<stop stop-color="#55BDCF"/>
<stop offset="0.29" stop-color="#7EDEEF"/>
<stop offset="0.64" stop-color="#ABE2EB"/>
<stop offset="1" stop-color="white"/>
</linearGradient>
<linearGradient id="paint11_linear" x1="283.824" y1="233.908" x2="319.404" y2="237.624" gradientUnits="userSpaceOnUse">
<stop offset="0.21" stop-color="#243658"/>
<stop offset="1" stop-color="#405E99"/>
</linearGradient>
<linearGradient id="paint12_linear" x1="16501.8" y1="20767.4" x2="19353.6" y2="20767.4" gradientUnits="userSpaceOnUse">
<stop stop-color="#55BDCF"/>
<stop offset="0.29" stop-color="#7EDEEF"/>
<stop offset="0.64" stop-color="#ABE2EB"/>
<stop offset="1" stop-color="white"/>
</linearGradient>
<linearGradient id="paint13_linear" x1="-24.2372" y1="148.821" x2="93.569" y2="182.369" gradientUnits="userSpaceOnUse">
<stop offset="0.21" stop-color="#243658"/>
<stop offset="1" stop-color="#405E99"/>
</linearGradient>
<linearGradient id="paint14_linear" x1="29546.7" y1="13587.4" x2="34735.7" y2="13587.4" gradientUnits="userSpaceOnUse">
<stop stop-color="#55BDCF"/>
<stop offset="0.29" stop-color="#7EDEEF"/>
<stop offset="0.64" stop-color="#ABE2EB"/>
<stop offset="1" stop-color="white"/>
</linearGradient>
<linearGradient id="paint15_linear" x1="-47.0402" y1="234.846" x2="143.068" y2="319.869" gradientUnits="userSpaceOnUse">
<stop offset="0.21" stop-color="#243658"/>
<stop offset="1" stop-color="#405E99"/>
</linearGradient>
<linearGradient id="paint16_linear" x1="52944.7" y1="16101.3" x2="62243.6" y2="16101.3" gradientUnits="userSpaceOnUse">
<stop stop-color="#55BDCF"/>
<stop offset="0.29" stop-color="#7EDEEF"/>
<stop offset="0.64" stop-color="#ABE2EB"/>
<stop offset="1" stop-color="white"/>
</linearGradient>
<linearGradient id="paint17_linear" x1="151.003" y1="305.097" x2="151.003" y2="-39.5672" gradientUnits="userSpaceOnUse">
<stop stop-color="#5BC4D6"/>
<stop offset="1" stop-color="#182642" stop-opacity="0.96"/>
</linearGradient>
<linearGradient id="paint18_linear" x1="153.074" y1="284.874" x2="153.074" y2="-21.9823" gradientUnits="userSpaceOnUse">
<stop stop-color="#5BC4D6"/>
<stop offset="1" stop-color="#6A80AB"/>
</linearGradient>
<linearGradient id="paint19_linear" x1="201.886" y1="187.932" x2="-24.7048" y2="187.932" gradientUnits="userSpaceOnUse">
<stop stop-color="#3F8097"/>
<stop offset="1" stop-color="#5BC4D6"/>
</linearGradient>
</defs>
</svg>
