<svg width="1120" height="405" viewBox="0 0 1120 405" fill="none" xmlns="http://www.w3.org/2000/svg" preserveAspectRatio="none">
<rect width="1120" height="405" rx="36" fill="url(#paint0_linear)"/>
<rect x="122.347" y="337.079" width="54" height="51.3731" rx="25.6865" transform="rotate(-30 122.347 337.079)" fill="url(#paint1_linear)"/>
<rect x="564" y="27" width="54" height="87.0416" rx="27" transform="rotate(-30 564 27)" fill="url(#paint2_linear)"/>
<rect x="111.097" y="56.6553" width="54" height="61.3104" rx="27" transform="rotate(120 111.097 56.6553)" fill="url(#paint3_linear)"/>
<rect x="453.803" y="101.768" width="54" height="199.536" rx="27" transform="rotate(120 453.803 101.768)" fill="url(#paint4_linear)"/>
<path d="M1058.97 317.494L1001.69 286.204C1001.38 286.036 1001.12 285.789 1000.94 285.486C1000.76 285.184 1000.67 284.838 1000.67 284.486C1000.67 284.134 1000.76 283.789 1000.94 283.486C1001.12 283.184 1001.38 282.936 1001.69 282.769L1055.24 253.534C1055.55 253.368 1055.81 253.12 1055.99 252.818C1056.17 252.515 1056.27 252.169 1056.27 251.816C1056.27 251.464 1056.17 251.117 1055.99 250.815C1055.81 250.512 1055.55 250.265 1055.24 250.099L996.205 217.87C995.895 217.704 995.635 217.456 995.455 217.154C995.274 216.851 995.178 216.505 995.178 216.152C995.178 215.799 995.274 215.453 995.455 215.15C995.635 214.848 995.895 214.6 996.205 214.434C996.513 214.267 996.771 214.019 996.951 213.717C997.131 213.414 997.225 213.069 997.225 212.717C997.225 212.365 997.131 212.019 996.951 211.717C996.771 211.414 996.513 211.166 996.205 210.999L927.185 173.337C926.611 173.02 925.966 172.854 925.311 172.854C924.656 172.854 924.012 173.02 923.437 173.337L903.952 184.215C903.378 184.532 902.733 184.698 902.078 184.698C901.423 184.698 900.779 184.532 900.204 184.215L874.867 170.485C874.293 170.167 873.648 170 872.993 170C872.337 170 871.693 170.167 871.119 170.485L829.08 194.023C828.475 194.36 827.971 194.853 827.62 195.452C827.269 196.05 827.084 196.732 827.084 197.427C827.084 198.121 827.269 198.803 827.62 199.402C827.971 200 828.475 200.493 829.08 200.831L837.79 205.72C838.395 206.057 838.899 206.551 839.25 207.149C839.601 207.748 839.786 208.43 839.786 209.124C839.786 209.818 839.601 210.5 839.25 211.099C838.899 211.697 838.395 212.191 837.79 212.528L761.212 255.406C760.638 255.723 759.993 255.889 759.338 255.889C758.683 255.889 758.038 255.723 757.464 255.406L738.681 245.152C738.107 244.834 737.462 244.667 736.807 244.667C736.151 244.667 735.507 244.834 734.933 245.152L702.99 263.038C702.386 263.377 701.884 263.871 701.534 264.469C701.184 265.067 701 265.748 701 266.442C701 267.136 701.184 267.817 701.534 268.415C701.884 269.014 702.386 269.508 702.99 269.846L734.425 287.446C735.154 287.855 735.974 288.071 736.809 288.076C737.644 288.081 738.466 287.875 739.2 287.475L757.236 277.627C757.97 277.227 758.792 277.021 759.627 277.026C760.462 277.031 761.282 277.247 762.01 277.656L767.441 280.696C768.211 281.126 768.852 281.755 769.299 282.518C769.745 283.28 769.98 284.149 769.98 285.033C769.98 285.917 769.745 286.786 769.299 287.548C768.852 288.311 768.211 288.94 767.441 289.37L727.312 311.831C726.846 312.095 726.458 312.478 726.187 312.942C725.917 313.406 725.775 313.933 725.775 314.471C725.775 315.008 725.917 315.536 726.187 316C726.458 316.463 726.846 316.847 727.312 317.11L779.134 346.121C779.579 346.367 780.078 346.495 780.586 346.495C781.093 346.495 781.593 346.367 782.038 346.121L791.438 340.969C791.882 340.722 792.382 340.593 792.89 340.593C793.398 340.593 793.897 340.722 794.341 340.969L847.247 370.592C847.692 370.837 848.191 370.966 848.699 370.966C849.206 370.966 849.706 370.837 850.151 370.592L892.515 347.461C892.96 347.216 893.459 347.088 893.967 347.088C894.474 347.088 894.974 347.216 895.419 347.461L951.091 378.757C951.378 378.916 951.701 379 952.029 379C952.358 379 952.68 378.916 952.968 378.757L1058.97 320.929C1059.28 320.763 1059.54 320.516 1059.72 320.213C1059.9 319.911 1060 319.564 1060 319.212C1060 318.859 1059.9 318.512 1059.72 318.21C1059.54 317.907 1059.28 317.66 1058.97 317.494Z" fill="url(#paint5_linear)"/>
<path d="M567.831 309.59L542.183 295.64C541.558 295.302 540.859 295.125 540.149 295.125C539.438 295.125 538.739 295.302 538.115 295.64L513.164 309.64C512.508 310.005 511.962 310.538 511.581 311.185C511.201 311.832 511 312.569 511 313.32C511 314.07 511.201 314.807 511.581 315.454C511.962 316.101 512.508 316.635 513.164 317L538.1 330.914C538.723 331.258 539.423 331.438 540.134 331.438C540.846 331.438 541.546 331.258 542.168 330.914L567.817 316.971C568.477 316.608 569.028 316.074 569.411 315.426C569.795 314.777 569.999 314.038 570 313.285C570.001 312.531 569.801 311.791 569.42 311.141C569.038 310.492 568.49 309.956 567.831 309.59Z" fill="url(#paint6_linear)"/>
<path d="M567.831 302.465L542.183 288.515C541.558 288.177 540.859 288 540.149 288C539.438 288 538.739 288.177 538.115 288.515L513.164 302.515C512.508 302.88 511.962 303.413 511.581 304.06C511.201 304.707 511 305.444 511 306.195C511 306.945 511.201 307.682 511.581 308.329C511.962 308.976 512.508 309.51 513.164 309.875L538.1 323.789C538.723 324.133 539.423 324.313 540.134 324.313C540.846 324.313 541.546 324.133 542.168 323.789L567.817 309.846C568.477 309.483 569.028 308.949 569.411 308.301C569.795 307.652 569.999 306.913 570 306.16C570.001 305.406 569.801 304.666 569.42 304.016C569.038 303.367 568.49 302.831 567.831 302.465Z" fill="url(#paint7_linear)"/>
<path d="M435.768 322.303L399.768 302.723C398.891 302.248 397.91 302 396.913 302C395.916 302 394.934 302.248 394.058 302.723L359.038 322.373C358.117 322.885 357.35 323.634 356.816 324.542C356.282 325.45 356 326.484 356 327.538C356 328.591 356.282 329.626 356.816 330.534C357.35 331.442 358.117 332.191 359.038 332.703L394.038 352.233C394.912 352.715 395.894 352.968 396.893 352.968C397.891 352.968 398.873 352.715 399.748 352.233L435.748 332.663C436.674 332.153 437.447 331.404 437.985 330.494C438.524 329.584 438.81 328.546 438.812 327.489C438.814 326.431 438.532 325.392 437.997 324.48C437.462 323.568 436.692 322.817 435.768 322.303Z" fill="url(#paint8_linear)"/>
<path d="M435.768 312.303L399.768 292.723C398.891 292.248 397.91 292 396.913 292C395.916 292 394.934 292.248 394.058 292.723L359.038 312.373C358.117 312.885 357.35 313.634 356.816 314.542C356.282 315.45 356 316.484 356 317.538C356 318.591 356.282 319.626 356.816 320.534C357.35 321.442 358.117 322.191 359.038 322.703L394.038 342.233C394.912 342.715 395.894 342.968 396.893 342.968C397.891 342.968 398.873 342.715 399.748 342.233L435.748 322.663C436.674 322.153 437.447 321.404 437.985 320.494C438.524 319.584 438.81 318.546 438.812 317.489C438.814 316.431 438.532 315.392 437.997 314.48C437.462 313.568 436.692 312.817 435.768 312.303Z" fill="url(#paint9_linear)"/>
<path d="M765.768 250.303L729.768 230.723C728.891 230.248 727.91 230 726.913 230C725.916 230 724.934 230.248 724.058 230.723L689.038 250.373C688.117 250.885 687.35 251.634 686.816 252.542C686.282 253.45 686 254.484 686 255.538C686 256.591 686.282 257.626 686.816 258.534C687.35 259.442 688.117 260.191 689.038 260.703L724.038 280.233C724.912 280.715 725.894 280.968 726.893 280.968C727.891 280.968 728.873 280.715 729.748 280.233L765.748 260.663C766.674 260.153 767.447 259.404 767.985 258.494C768.524 257.584 768.81 256.546 768.812 255.489C768.814 254.431 768.532 253.392 767.997 252.48C767.462 251.568 766.692 250.817 765.768 250.303Z" fill="url(#paint10_linear)"/>
<path d="M744.199 195.95L722.897 184.425C722.379 184.146 721.798 184 721.208 184C720.618 184 720.038 184.146 719.519 184.425L698.797 195.991C698.253 196.293 697.799 196.734 697.483 197.268C697.167 197.803 697 198.412 697 199.032C697 199.652 697.167 200.261 697.483 200.795C697.799 201.33 698.253 201.77 698.797 202.072L719.507 213.567C720.024 213.851 720.606 214 721.196 214C721.787 214 722.368 213.851 722.886 213.567L744.187 202.048C744.735 201.748 745.192 201.307 745.511 200.771C745.83 200.236 745.999 199.625 746 199.003C746.001 198.38 745.835 197.769 745.518 197.232C745.201 196.695 744.746 196.253 744.199 195.95Z" fill="url(#paint11_linear)"/>
<path d="M1030.61 312.934L1002.35 297.567C1001.67 297.195 1000.9 297 1000.11 297C999.33 297 998.56 297.195 997.872 297.567L970.384 312.989C969.662 313.391 969.059 313.978 968.64 314.691C968.221 315.404 968 316.215 968 317.042C968 317.869 968.221 318.681 968.64 319.393C969.059 320.106 969.662 320.694 970.384 321.096L997.856 336.423C998.542 336.801 999.313 337 1000.1 337C1000.88 337 1001.65 336.801 1002.34 336.423L1030.59 321.064C1031.32 320.664 1031.93 320.076 1032.35 319.362C1032.77 318.648 1033 317.834 1033 317.004C1033 316.174 1032.78 315.358 1032.36 314.643C1031.94 313.927 1031.34 313.337 1030.61 312.934Z" fill="url(#paint12_linear)"/>
<defs>
<linearGradient id="paint0_linear" x1="1246" y1="135.435" x2="1184.32" y2="576.773" gradientUnits="userSpaceOnUse">
<stop stop-color="#2C3D5E"/>
<stop offset="1" stop-color="#182641"/>
</linearGradient>
<linearGradient id="paint1_linear" x1="180.913" y1="348.874" x2="170.363" y2="410.697" gradientUnits="userSpaceOnUse">
<stop stop-color="#1E2F4E"/>
<stop offset="1" stop-color="#334465"/>
</linearGradient>
<linearGradient id="paint2_linear" x1="626.122" y1="47.3905" x2="571.995" y2="191.276" gradientUnits="userSpaceOnUse">
<stop stop-color="#1E2F4E"/>
<stop offset="1" stop-color="#334465"/>
</linearGradient>
<linearGradient id="paint3_linear" x1="169.663" y1="70.7318" x2="154.815" y2="143.639" gradientUnits="userSpaceOnUse">
<stop stop-color="#1E2F4E"/>
<stop offset="1" stop-color="#334465"/>
</linearGradient>
<linearGradient id="paint4_linear" x1="555.91" y1="22.9379" x2="369.04" y2="298.499" gradientUnits="userSpaceOnUse">
<stop stop-color="#1E2F4E"/>
<stop offset="1" stop-color="#334465"/>
</linearGradient>
<linearGradient id="paint5_linear" x1="830.865" y1="274.507" x2="670.425" y2="274.507" gradientUnits="userSpaceOnUse">
<stop stop-color="#20304E"/>
<stop offset="1" stop-color="#2D4065"/>
</linearGradient>
<linearGradient id="paint6_linear" x1="570.882" y1="308.668" x2="502.842" y2="314.724" gradientUnits="userSpaceOnUse">
<stop stop-color="#1D2A43"/>
<stop offset="1" stop-color="#31466F"/>
</linearGradient>
<linearGradient id="paint7_linear" x1="570.882" y1="301.543" x2="480.043" y2="302.968" gradientUnits="userSpaceOnUse">
<stop stop-color="#1D2A43"/>
<stop offset="1" stop-color="#576E99" stop-opacity="0"/>
</linearGradient>
<linearGradient id="paint8_linear" x1="440.05" y1="321.008" x2="344.55" y2="329.508" gradientUnits="userSpaceOnUse">
<stop stop-color="#1D2A43"/>
<stop offset="1" stop-color="#31466F"/>
</linearGradient>
<linearGradient id="paint9_linear" x1="440.05" y1="311.008" x2="344.55" y2="319.508" gradientUnits="userSpaceOnUse">
<stop stop-color="#1D2A43"/>
<stop offset="1" stop-color="#3B517C"/>
</linearGradient>
<linearGradient id="paint10_linear" x1="770.05" y1="249.008" x2="674.55" y2="257.508" gradientUnits="userSpaceOnUse">
<stop stop-color="#1D2A43"/>
<stop offset="1" stop-color="#3B517C"/>
</linearGradient>
<linearGradient id="paint11_linear" x1="746.733" y1="195.188" x2="690.23" y2="200.244" gradientUnits="userSpaceOnUse">
<stop stop-color="#1D2A43"/>
<stop offset="1" stop-color="#3B517C"/>
</linearGradient>
<linearGradient id="paint12_linear" x1="1033.97" y1="311.918" x2="959.013" y2="318.59" gradientUnits="userSpaceOnUse">
<stop stop-color="#1D2A43"/>
<stop offset="1" stop-color="#3B517C"/>
</linearGradient>
</defs>
</svg>
