<svg width="175" height="261" viewBox="0 0 175 261" fill="none" xmlns="http://www.w3.org/2000/svg">
<path d="M163.51 250.35C163.51 250.806 163.159 251.382 162.151 252.043C161.167 252.689 159.684 253.33 157.727 253.951C153.819 255.192 148.139 256.316 141.089 257.262C126.996 259.154 107.512 260.326 85.9793 260.326C64.4467 260.326 44.9622 259.154 30.8696 257.262C23.8196 256.316 18.1392 255.192 14.2316 253.951C12.2742 253.33 10.7913 252.689 9.80784 252.043C8.7994 251.382 8.44824 250.806 8.44824 250.35C8.44824 249.894 8.7994 249.318 9.80784 248.657C10.7913 248.011 12.2742 247.37 14.2316 246.749C18.1392 245.508 23.8196 244.384 30.8696 243.438C44.9622 241.545 64.4467 240.374 85.9793 240.374C107.512 240.374 126.996 241.545 141.089 243.438C148.139 244.384 153.819 245.508 157.727 246.749C159.684 247.37 161.167 248.011 162.151 248.657C163.159 249.318 163.51 249.894 163.51 250.35Z" fill="#202F4D" stroke="#354668"/>
<path d="M117.088 20.2253C115.487 20.2217 113.902 20.5412 112.428 21.1645C112.463 20.8527 112.48 20.5391 112.478 20.2253C112.481 18.6526 112.067 17.1074 111.277 15.7473C110.487 14.3872 109.351 13.2611 107.984 12.4838C106.616 11.7066 105.067 11.306 103.495 11.3231C101.922 11.3402 100.382 11.7743 99.0324 12.5811C98.7384 9.07497 97.1094 5.81553 94.4817 3.47575C91.8539 1.13597 88.4281 -0.105521 84.9114 0.00759078C81.3948 0.120702 78.0558 1.57978 75.5838 4.08359C73.1119 6.5874 71.6957 9.94478 71.6276 13.4626C69.4524 12.5967 67.1127 12.222 64.7759 12.3653C62.439 12.5086 60.1626 13.1663 58.1095 14.2915C56.0564 15.4167 54.2771 16.9816 52.899 18.8743C51.5209 20.7669 50.5779 22.9407 50.1374 25.2401C49.6969 27.5396 49.7698 29.9079 50.3509 32.1759C50.932 34.4439 52.0069 36.5555 53.4989 38.3598C54.9908 40.1641 56.8629 41.6166 58.9814 42.6134C61.0999 43.6102 63.4124 44.1266 65.7536 44.1259H117.088C118.657 44.1259 120.211 43.8168 121.661 43.2163C123.111 42.6157 124.428 41.7354 125.538 40.6258C126.648 39.5161 127.528 38.1987 128.129 36.7488C128.729 35.2989 129.038 33.7449 129.038 32.1756C129.038 30.6063 128.729 29.0523 128.129 27.6024C127.528 26.1525 126.648 24.8351 125.538 23.7255C124.428 22.6158 123.111 21.7355 121.661 21.135C120.211 20.5344 118.657 20.2253 117.088 20.2253Z" fill="url(#paint0_linear)"/>
<path d="M122.146 20.2248C120.545 20.2213 118.96 20.5407 117.485 21.1641C117.52 20.8522 117.537 20.5386 117.536 20.2248C117.539 18.6521 117.124 17.1069 116.335 15.7468C115.545 14.3867 114.408 13.2606 113.041 12.4833C111.674 11.7061 110.125 11.3055 108.552 11.3226C106.98 11.3397 105.44 11.7738 104.09 12.5806C103.796 9.07448 102.167 5.81505 99.5393 3.47526C96.9115 1.13548 93.4857 -0.106009 89.969 0.0071025C86.4524 0.120214 83.1134 1.57929 80.6414 4.0831C78.1695 6.58691 76.7533 9.94429 76.6852 13.4621C74.51 12.5962 72.1703 12.2215 69.8335 12.3648C67.4966 12.5081 65.2203 13.1659 63.1671 14.2911C61.114 15.4163 59.3348 16.9811 57.9566 18.8738C56.5785 20.7665 55.6355 22.9402 55.195 25.2396C54.7545 27.5391 54.8274 29.9074 55.4085 32.1754C55.9896 34.4434 57.0645 36.555 58.5565 38.3593C60.0484 40.1636 61.9206 41.6161 64.039 42.6129C66.1575 43.6097 68.47 44.1262 70.8112 44.1254H122.146C123.715 44.1254 125.269 43.8163 126.719 43.2158C128.169 42.6152 129.486 41.735 130.596 40.6253C131.705 39.5156 132.586 38.1982 133.186 36.7483C133.787 35.2984 134.096 33.7445 134.096 32.1751C134.096 30.6058 133.787 29.0518 133.186 27.6019C132.586 26.152 131.705 24.8347 130.596 23.725C129.486 22.6153 128.169 21.735 126.719 21.1345C125.269 20.5339 123.715 20.2248 122.146 20.2248Z" fill="url(#paint1_linear)"/>
<g opacity="0.3">
<path d="M111.834 53.8778C111.748 53.9048 111.665 53.9383 111.584 53.978C110.948 54.2969 110.562 55.0003 110.544 55.9838C110.525 56.9673 110.918 58.0776 111.541 59.0509C112.147 60.0275 112.992 60.8339 113.995 61.3941L126.304 67.8553C127.144 68.2949 127.905 68.344 128.461 68.0598L131.252 66.6612C131.806 66.3831 132.154 65.78 132.162 64.915C132.128 63.9573 131.826 63.0285 131.289 62.2344C130.762 61.3818 130.026 60.678 129.15 60.1897C128.851 60.032 128.529 59.921 128.195 59.8606C127.995 58.5255 127.507 57.2501 126.764 56.1229C125.844 54.6773 124.566 53.4116 123.147 52.6673C122.031 52.0805 120.62 51.7472 119.495 52.3115L117.579 53.2705C116.678 52.5998 115.383 52.06 114.375 52.5651L111.582 53.9637C111.664 53.9287 111.748 53.9 111.834 53.8778Z" fill="url(#paint2_linear)"/>
<path d="M111.541 59.0591C110.917 58.0776 110.535 56.9755 110.543 55.992C110.559 54.0066 112.134 53.2174 114.06 54.2295C114.556 54.4955 115.012 54.8308 115.414 55.2253C116.088 53.4178 118.051 52.88 120.358 54.0884C121.775 54.8327 123.053 56.0984 123.975 57.544C124.718 58.6719 125.206 59.948 125.406 61.2837C125.74 61.3436 126.062 61.4539 126.363 61.6109C127.237 62.1007 127.973 62.8042 128.502 63.6556C129.037 64.4492 129.339 65.3773 129.373 66.3341C129.356 68.0639 127.986 68.7509 126.306 67.8717L113.997 61.4105C112.991 60.8483 112.146 60.039 111.541 59.0591Z" fill="url(#paint3_linear)"/>
</g>
<g opacity="0.3">
<path d="M37.6682 62.5477C37.7538 62.5747 37.8371 62.6082 37.9176 62.6479C38.5535 62.9669 38.94 63.6702 38.9584 64.6537C38.9768 65.6372 38.5842 66.7475 37.9606 67.7208C37.3548 68.6975 36.5104 69.5038 35.5069 70.064L23.1979 76.5252C22.3575 76.9649 21.5968 77.0139 21.0407 76.7297L18.2497 75.3311C17.6956 75.0531 17.348 74.4499 17.3398 73.585C17.3738 72.6273 17.6763 71.6984 18.2129 70.9044C18.7399 70.0517 19.4761 69.3479 20.3516 68.8597C20.6513 68.7019 20.9733 68.5909 21.3065 68.5305C21.5067 67.1955 21.9951 65.92 22.7378 64.7928C23.6579 63.3472 24.9358 62.0815 26.3549 61.3372C27.4713 60.7504 28.8821 60.4171 30.0067 60.9815L31.9226 61.9404C32.8243 61.2698 34.1186 60.73 35.1266 61.235L37.9197 62.6336C37.8381 62.5987 37.754 62.57 37.6682 62.5477Z" fill="url(#paint4_linear)"/>
<path d="M37.9601 67.729C38.5837 66.7475 38.9661 65.6455 38.9579 64.662C38.9415 62.6766 37.3671 61.8873 35.441 62.8994C34.9448 63.1654 34.4891 63.5007 34.0874 63.8952C33.4127 62.0877 31.4498 61.5499 29.1433 62.7583C27.7264 63.5026 26.4484 64.7683 25.5263 66.2139C24.7834 67.3418 24.295 68.6179 24.095 69.9536C23.7613 70.0135 23.4386 70.1238 23.1381 70.2808C22.2638 70.7707 21.528 71.4741 20.9993 72.3255C20.4639 73.1191 20.1621 74.0472 20.1283 75.004C20.1446 76.7338 21.5146 77.4209 23.1953 76.5416L35.5044 70.0804C36.5096 69.5183 37.3549 68.7089 37.9601 67.729Z" fill="url(#paint5_linear)"/>
</g>
<rect width="34.6523" height="46.981" rx="5" transform="matrix(-0.965926 -0.258819 -0.258819 0.965926 143.056 80.9517)" fill="#273C65"/>
<rect width="20.5405" height="2.80097" rx="1.40049" transform="matrix(-0.866025 -0.5 -0.5 0.866025 134.342 95.0146)" fill="#365082"/>
<rect width="20.5405" height="2.80097" rx="1.40049" transform="matrix(-0.866025 -0.5 -0.5 0.866025 132.162 98.7871)" fill="#365082"/>
<rect width="20.5405" height="2.80097" rx="1.40049" transform="matrix(-0.866025 -0.5 -0.5 0.866025 129.985 102.561)" fill="#365082"/>
<rect width="34.6523" height="43.092" rx="5" transform="matrix(-0.977606 0.210445 0.210445 0.977606 115.74 66.6929)" fill="url(#paint6_linear)"/>
<rect width="34.6523" height="46.981" rx="5" transform="matrix(-0.977606 0.210445 0.210445 0.977606 112.627 63.5806)" fill="url(#paint7_linear)"/>
<rect width="20.5405" height="2.80097" rx="1.40049" transform="matrix(-0.977369 0.211542 0.211542 0.977369 107.941 82.5649)" fill="#6EBDDD"/>
<rect width="20.5405" height="2.80097" rx="1.40049" transform="matrix(-0.977369 0.211542 0.211542 0.977369 108.861 86.8228)" fill="#6EBDDD"/>
<rect width="20.5405" height="2.80097" rx="1.40049" transform="matrix(-0.977369 0.211542 0.211542 0.977369 109.783 91.082)" fill="#6EBDDD"/>
<rect x="39.0146" y="66.5015" width="34.6523" height="46.981" rx="5" transform="rotate(-15 39.0146 66.5015)" fill="#273C65"/>
<rect x="47.7295" y="80.563" width="20.5405" height="2.80097" rx="1.40049" transform="rotate(-30 47.7295 80.563)" fill="#365082"/>
<rect x="49.9092" y="84.3354" width="20.5405" height="2.80097" rx="1.40049" transform="rotate(-30 49.9092 84.3354)" fill="#365082"/>
<rect x="52.0869" y="88.1089" width="20.5405" height="2.80097" rx="1.40049" transform="rotate(-30 52.0869 88.1089)" fill="#365082"/>
<rect x="66.3271" y="52.2427" width="34.6523" height="43.092" rx="5" transform="rotate(12.1484 66.3271 52.2427)" fill="url(#paint8_linear)"/>
<rect x="69.4404" y="49.1299" width="34.6523" height="46.981" rx="5" transform="rotate(12.1484 69.4404 49.1299)" fill="url(#paint9_linear)"/>
<rect x="74.127" y="68.1143" width="20.5405" height="2.80097" rx="1.40049" transform="rotate(12.2127 74.127 68.1143)" fill="#5C80C7"/>
<rect x="73.207" y="72.3726" width="20.5405" height="2.80097" rx="1.40049" transform="rotate(12.2127 73.207 72.3726)" fill="#5C80C7"/>
<rect x="72.2832" y="76.6313" width="20.5405" height="2.80097" rx="1.40049" transform="rotate(12.2127 72.2832 76.6313)" fill="#5C80C7"/>
<circle cx="14.9299" cy="142.091" r="9.14958" fill="#6FB4CA"/>
<path d="M12.2832 104.763H160.398L150.328 246.065C150.142 248.682 147.965 250.71 145.341 250.71H26.9927C24.3645 250.71 22.1849 248.675 22.0045 246.053L12.2832 104.763Z" fill="url(#paint10_linear)"/>
<path d="M29.623 104.763H141.612L134.003 245.979C133.86 248.632 131.668 250.71 129.011 250.71H41.9622C39.3017 250.71 37.1071 248.626 36.9689 245.97L29.623 104.763Z" fill="url(#paint11_linear)" fill-opacity="0.2"/>
<rect x="0.000976562" y="89.5908" width="174.125" height="23.1203" rx="6" fill="#48A2B1"/>
<rect y="84.5332" width="174.125" height="24.5653" rx="6" fill="#5BC4D6"/>
<path d="M15.1729 146.67C25.871 173.931 54.865 212.097 85.2563 146.67" stroke="url(#paint12_linear)" stroke-width="8" stroke-linecap="round"/>
<circle cx="85.2736" cy="141.369" r="9.14958" fill="#6FB4CA"/>
<defs>
<linearGradient id="paint0_linear" x1="23.8431" y1="49.8537" x2="160.544" y2="-55.6286" gradientUnits="userSpaceOnUse">
<stop offset="0.218763" stop-color="#B1C9FA"/>
<stop offset="1" stop-color="#33518D"/>
</linearGradient>
<linearGradient id="paint1_linear" x1="28.9008" y1="49.8532" x2="162.904" y2="-5.07011" gradientUnits="userSpaceOnUse">
<stop stop-color="#6B8ED1"/>
<stop offset="1" stop-color="#33518D"/>
</linearGradient>
<linearGradient id="paint2_linear" x1="97.8659" y1="42.002" x2="139.373" y2="66.1294" gradientUnits="userSpaceOnUse">
<stop stop-color="#212E47"/>
<stop offset="1" stop-color="#43A0B0"/>
</linearGradient>
<linearGradient id="paint3_linear" x1="107.475" y1="60.8132" x2="131.194" y2="55.0881" gradientUnits="userSpaceOnUse">
<stop stop-color="#1D6572"/>
<stop offset="1" stop-color="#5BC4D6"/>
</linearGradient>
<linearGradient id="paint4_linear" x1="51.6361" y1="50.6719" x2="10.1288" y2="74.7993" gradientUnits="userSpaceOnUse">
<stop stop-color="#212E47"/>
<stop offset="1" stop-color="#43A0B0"/>
</linearGradient>
<linearGradient id="paint5_linear" x1="42.0259" y1="69.4831" x2="18.3074" y2="63.758" gradientUnits="userSpaceOnUse">
<stop stop-color="#1D6572"/>
<stop offset="1" stop-color="#5BC4D6"/>
</linearGradient>
<linearGradient id="paint6_linear" x1="17.3261" y1="8.66519e-08" x2="20.9418" y2="63.9973" gradientUnits="userSpaceOnUse">
<stop stop-color="#304F8D"/>
<stop offset="1" stop-color="#4164A9"/>
</linearGradient>
<linearGradient id="paint7_linear" x1="17.3261" y1="0" x2="17.3261" y2="46.981" gradientUnits="userSpaceOnUse">
<stop stop-color="#59B0C9"/>
<stop offset="1" stop-color="#4C71B9"/>
</linearGradient>
<linearGradient id="paint8_linear" x1="83.6533" y1="52.2427" x2="87.269" y2="116.24" gradientUnits="userSpaceOnUse">
<stop stop-color="#304F8D"/>
<stop offset="1" stop-color="#4164A9"/>
</linearGradient>
<linearGradient id="paint9_linear" x1="86.7666" y1="49.1299" x2="86.7666" y2="96.1109" gradientUnits="userSpaceOnUse">
<stop stop-color="#4164A9"/>
<stop offset="1" stop-color="#4C71B9"/>
</linearGradient>
<linearGradient id="paint10_linear" x1="76.3988" y1="250.71" x2="76.3989" y2="-32.5142" gradientUnits="userSpaceOnUse">
<stop stop-color="#5BC4D6"/>
<stop offset="1" stop-color="#182642" stop-opacity="0.96"/>
</linearGradient>
<linearGradient id="paint11_linear" x1="78.1007" y1="234.092" x2="78.1008" y2="-18.064" gradientUnits="userSpaceOnUse">
<stop stop-color="#5BC4D6"/>
<stop offset="1" stop-color="#6A80AB"/>
</linearGradient>
<linearGradient id="paint12_linear" x1="118.213" y1="154.432" x2="-67.9863" y2="154.432" gradientUnits="userSpaceOnUse">
<stop stop-color="#3F8097"/>
<stop offset="1" stop-color="#5BC4D6"/>
</linearGradient>
</defs>
</svg>
