<svg width="266" height="230" viewBox="0 0 266 230" fill="none" xmlns="http://www.w3.org/2000/svg">
<rect x="1.5" y="1.5" width="263" height="227" rx="4.5" fill="#213556" stroke="#8899B7" stroke-width="3"/>
<path opacity="0.1" d="M245.625 223.03H23.3026C18.6861 223.03 14.9434 219.29 14.9434 214.676V39.6434C14.9434 35.0295 18.6861 31.289 23.3026 31.289H245.625C250.242 31.289 253.984 35.0295 253.984 39.6434V214.676C253.984 219.29 250.242 223.03 245.625 223.03Z" fill="#F5F8FF"/>
<path d="M245.625 209.663H23.3026C18.6861 209.663 14.9434 205.923 14.9434 201.309V26.2764C14.9434 21.6626 18.6861 17.9221 23.3026 17.9221H245.625C250.242 17.9221 253.984 21.6626 253.984 26.2764V201.309C253.984 205.923 250.242 209.663 245.625 209.663Z" fill="#1B2C4B"/>
<path d="M253.984 113.968V26.2764C253.984 21.6626 250.242 17.9221 245.625 17.9221H23.3026C18.6861 17.9221 14.9434 21.6626 14.9434 26.2764V113.969H253.984V113.968Z" fill="#243C64"/>
<path d="M253.984 56.5264V26.2764C253.984 21.6626 250.242 17.9221 245.625 17.9221H23.3026C18.6861 17.9221 14.9434 21.6626 14.9434 26.2764V56.5264H253.984Z" fill="#192648"/>
<path d="M39.5144 44.5457C42.8695 44.5457 45.5893 41.8275 45.5893 38.4743C45.5893 35.1212 42.8695 32.403 39.5144 32.403C36.1593 32.403 33.4395 35.1212 33.4395 38.4743C33.4395 41.8275 36.1593 44.5457 39.5144 44.5457Z" fill="#FF5BA8"/>
<path d="M58.907 44.5457C62.2621 44.5457 64.9819 41.8275 64.9819 38.4743C64.9819 35.1212 62.2621 32.403 58.907 32.403C55.5519 32.403 52.832 35.1212 52.832 38.4743C52.832 41.8275 55.5519 44.5457 58.907 44.5457Z" fill="white"/>
<path d="M78.2996 44.5457C81.6547 44.5457 84.3745 41.8275 84.3745 38.4743C84.3745 35.1212 81.6547 32.403 78.2996 32.403C74.9445 32.403 72.2246 35.1212 72.2246 38.4743C72.2246 41.8275 74.9445 44.5457 78.2996 44.5457Z" fill="#AEE0C8"/>
<path d="M167.389 100.337H101.542C100.004 100.337 98.7559 99.0895 98.7559 97.5518V88.2473C98.7559 86.7095 100.004 85.4625 101.542 85.4625H167.389C168.927 85.4625 170.175 86.7095 170.175 88.2473V97.5518C170.175 99.0901 168.927 100.337 167.389 100.337Z" fill="#344E78"/>
<path d="M45.9946 67.4573H32.7981C31.2595 67.4573 30.0117 68.7044 30.0117 70.2421C30.0117 71.7799 31.2595 73.0269 32.7981 73.0269H45.9952C47.5338 73.0269 48.7816 71.7799 48.7816 70.2421C48.7816 68.7044 47.5333 67.4573 45.9946 67.4573Z" fill="white"/>
<path d="M135.612 127.455H105.697C104.158 127.455 102.91 128.702 102.91 130.24C102.91 131.777 104.158 133.024 105.697 133.024H135.612C137.151 133.024 138.399 131.777 138.399 130.24C138.399 128.702 137.151 127.455 135.612 127.455Z" fill="#243C64"/>
<path d="M163.23 127.455H150.033C148.494 127.455 147.246 128.702 147.246 130.24C147.246 131.777 148.494 133.024 150.033 133.024H163.23C164.768 133.024 166.016 131.777 166.016 130.24C166.016 128.702 164.768 127.455 163.23 127.455Z" fill="#5B6289"/>
<path d="M59.8428 67.4573H46.6458C45.1071 67.4573 43.8594 68.7043 43.8594 70.2421C43.8594 71.7798 45.1071 73.0268 46.6458 73.0268H59.8428C61.3815 73.0268 62.6292 71.7798 62.6292 70.2421C62.6292 68.7043 61.3815 67.4573 59.8428 67.4573Z" fill="#C5CEDA"/>
<path d="M92.2214 198.441H46.7806C45.2419 198.441 43.9941 197.194 43.9941 195.656V150.242C43.9941 148.704 45.2419 147.457 46.7806 147.457H92.2214C93.7601 147.457 95.0078 148.704 95.0078 150.242V195.656C95.0078 197.194 93.7601 198.441 92.2214 198.441Z" fill="#243C64"/>
<path d="M157.182 198.441H111.741C110.203 198.441 108.955 197.194 108.955 195.656V150.242C108.955 148.704 110.203 147.457 111.741 147.457H157.182C158.721 147.457 159.969 148.704 159.969 150.242V195.656C159.969 197.194 158.722 198.441 157.182 198.441Z" fill="#243C64"/>
<path d="M222.141 198.441H176.7C175.162 198.441 173.914 197.194 173.914 195.656V150.242C173.914 148.704 175.162 147.457 176.7 147.457H222.141C223.68 147.457 224.928 148.704 224.928 150.242V195.656C224.928 197.194 223.68 198.441 222.141 198.441Z" fill="#243C64"/>
<path d="M92.2214 198.441H46.7806C45.2419 198.441 43.9941 197.194 43.9941 195.656V187.555H95.0078V195.656C95.0078 197.194 93.7601 198.441 92.2214 198.441Z" fill="#2A4470"/>
<path d="M157.184 198.441H111.743C110.205 198.441 108.957 197.194 108.957 195.656V187.555H159.971V195.656C159.971 197.194 158.724 198.441 157.184 198.441Z" fill="#2A4470"/>
<path d="M222.145 198.441H176.704C175.166 198.441 173.918 197.194 173.918 195.656V187.555H224.932V195.656C224.932 197.194 223.684 198.441 222.145 198.441Z" fill="#2A4470"/>
</svg>
