<svg width="720" height="699" viewBox="0 0 720 699" fill="none" xmlns="http://www.w3.org/2000/svg"  preserveAspectRatio="none">
<mask id="mask0" mask-type="alpha" maskUnits="userSpaceOnUse" x="0" y="51" width="720" height="648">
<rect y="51" width="720" height="648" fill="url(#paint0_linear)"/>
</mask>
<g mask="url(#mask0)">
<rect x="404" y="460" width="264" height="239" fill="url(#paint1_linear)"/>
<rect x="190" y="371" width="169" height="328" fill="url(#paint2_linear)"/>
<rect y="481" width="84" height="218" fill="url(#paint3_linear)"/>
<rect x="565" y="718" width="54" height="138.315" rx="27" transform="rotate(-30 565 718)" fill="url(#paint4_linear)"/>
<g opacity="0.5">
<path opacity="0.95" d="M127.956 231H91.6499C89.6341 231 88 232.634 88 234.65V270.956C88 272.971 89.6341 274.605 91.6499 274.605H127.956C129.971 274.605 131.605 272.971 131.605 270.956V234.65C131.605 232.634 129.971 231 127.956 231Z" fill="url(#paint5_linear)"/>
<path d="M102.461 255.036H99.4995V252.077H100.046V254.49H102.461V255.036Z" fill="#F8FDFF"/>
<path d="M120.106 255.036H117.145V254.49H119.56V252.077H120.106V255.036Z" fill="#F8FDFF"/>
<path d="M100.046 237.391H99.4995V234.431H102.461V234.978H100.046V237.391Z" fill="#F8FDFF"/>
<path d="M120.106 237.391H119.56V234.978H117.145V234.432H120.106V237.391Z" fill="#F8FDFF"/>
<path d="M117.314 252.246H102.291V237.222H117.314V252.246ZM103.689 250.847H115.916V238.621H103.689V250.847Z" fill="#F8FDFF"/>
<path d="M114.025 240.573H105.57V242.223H114.025V240.573Z" fill="#F8FDFF"/>
<path d="M111.271 256.724H108.324V257.27H111.271V256.724Z" fill="#F8FDFF"/>
<path d="M121.928 263.098H97.6772V264.592H121.928V263.098Z" fill="#B6D1E3"/>
<path d="M109.174 266.686H97.6772V268.18H109.174V266.686Z" fill="#B6D1E3"/>
</g>
<path opacity="0.5" d="M483.511 306.635C477.876 304.54 474.108 308.965 474.108 308.965C474.108 308.965 470.39 304.497 464.735 306.531C459.079 308.565 460.066 312.911 460.066 312.911C460.456 321.603 474.008 330.813 474.008 330.813C474.008 330.813 487.64 321.754 488.126 313.07C488.126 313.07 489.141 308.734 483.511 306.635Z" fill="#2D4063"/>
<g opacity="0.5">
<path d="M467.332 113.092L438.33 120.864L438.95 123.179L467.953 115.407L467.332 113.092Z" fill="url(#paint6_linear)"/>
<path d="M463.234 109.769L440.217 115.936L440.838 118.251L463.854 112.084L463.234 109.769Z" fill="url(#paint7_linear)"/>
<path d="M448.104 79.746C448.361 80.7063 448.327 81.7212 448.007 82.6623C447.687 83.6034 447.095 84.4284 446.306 85.033C445.517 85.6375 444.566 85.9945 443.574 86.0587C442.582 86.1229 441.593 85.8915 440.733 85.3937C439.873 84.8959 439.179 84.1542 438.74 83.2622C438.301 82.3703 438.137 81.3682 438.268 80.3828C438.399 79.3974 438.819 78.4729 439.475 77.7262C440.131 76.9796 440.994 76.4443 441.955 76.1882C443.242 75.8449 444.613 76.0268 445.766 76.6939C446.919 77.3611 447.76 78.4589 448.104 79.746Z" fill="url(#paint8_linear)"/>
<path d="M456.249 94.5397L458.723 103.771C456.294 105.761 453.469 107.211 450.436 108.024C447.403 108.837 444.232 108.994 441.133 108.484L438.66 99.2527C438.035 96.9202 438.362 94.435 439.569 92.3437C440.777 90.2524 442.765 88.7265 445.098 88.1015C447.43 87.4765 449.916 87.8037 452.007 89.0111C454.098 90.2185 455.624 92.2072 456.249 94.5397Z" fill="url(#paint9_linear)"/>
<path d="M450.585 108.588C447.469 109.432 444.208 109.593 441.024 109.061C435.921 108.215 431.261 105.647 427.821 101.784C424.381 97.9211 422.367 92.9966 422.115 87.83C421.863 82.6634 423.388 77.5663 426.436 73.387C429.484 69.2076 433.871 66.1981 438.868 64.8593C443.864 63.5205 449.169 63.9331 453.898 66.0285C458.627 68.1239 462.496 71.7757 464.861 76.3761C467.226 80.9766 467.945 86.2482 466.897 91.3137C465.849 96.3792 463.098 100.933 459.101 104.217C456.61 106.27 453.705 107.76 450.585 108.588ZM439.175 66.0047C434.434 67.2657 430.268 70.1145 427.374 74.0756C424.48 78.0367 423.031 82.8706 423.271 87.7706C423.51 92.6707 425.422 97.3405 428.689 101.001C431.955 104.661 436.378 107.091 441.219 107.884C444.235 108.378 447.322 108.225 450.274 107.434C453.226 106.643 455.976 105.232 458.341 103.296C462.137 100.189 464.752 95.8735 465.751 91.0707C466.75 86.2678 466.071 81.2677 463.829 76.9046C461.586 72.5415 457.916 69.0793 453.429 67.0957C448.942 65.112 443.911 64.727 439.175 66.0047Z" fill="url(#paint10_linear)"/>
</g>
<path opacity="0.5" d="M686.425 187.967L682.037 195.567L674.442 191.181L671.985 195.436L679.581 199.821L675.193 207.421L679.452 209.88L683.839 202.28L691.435 206.665L693.891 202.411L686.296 198.025L690.683 190.426L686.425 187.967Z" fill="url(#paint11_linear)"/>
<path d="M176.926 371.497L122.984 371.745L123.165 410.844L123.204 419.077L131.398 410.804L177.106 410.59L176.926 371.497Z" fill="#315B9F"/>
<path d="M154.173 392.719C154.176 393.534 153.937 394.332 153.487 395.012C153.036 395.692 152.394 396.223 151.642 396.538C150.89 396.853 150.061 396.938 149.26 396.782C148.46 396.625 147.724 396.235 147.145 395.66C146.566 395.086 146.171 394.352 146.01 393.553C145.848 392.753 145.927 391.924 146.237 391.17C146.546 390.415 147.073 389.77 147.75 389.314C148.427 388.859 149.223 388.615 150.039 388.613C150.58 388.611 151.116 388.715 151.617 388.921C152.117 389.126 152.573 389.428 152.957 389.809C153.341 390.19 153.646 390.643 153.854 391.143C154.063 391.642 154.171 392.177 154.173 392.719Z" fill="white"/>
<path d="M156.421 392.679C156.423 393.494 156.183 394.292 155.732 394.971C155.281 395.65 154.639 396.181 153.886 396.495C153.134 396.809 152.305 396.893 151.505 396.736C150.705 396.579 149.969 396.188 149.391 395.613C148.813 395.038 148.418 394.305 148.257 393.506C148.096 392.706 148.175 391.877 148.485 391.123C148.795 390.369 149.322 389.724 149.999 389.269C150.675 388.814 151.472 388.57 152.287 388.568C152.829 388.566 153.365 388.67 153.866 388.876C154.367 389.081 154.823 389.384 155.207 389.766C155.591 390.148 155.896 390.602 156.104 391.101C156.312 391.601 156.42 392.137 156.421 392.679Z" fill="white"/>
<path d="M140.952 392.764C140.954 393.579 140.714 394.377 140.263 395.056C139.812 395.735 139.17 396.265 138.417 396.579C137.665 396.893 136.836 396.977 136.036 396.82C135.236 396.663 134.501 396.273 133.922 395.698C133.344 395.123 132.95 394.389 132.788 393.59C132.627 392.791 132.707 391.962 133.017 391.208C133.326 390.454 133.853 389.808 134.53 389.353C135.206 388.899 136.003 388.655 136.818 388.652C137.36 388.65 137.896 388.755 138.397 388.96C138.899 389.166 139.354 389.468 139.738 389.85C140.122 390.232 140.427 390.686 140.635 391.186C140.844 391.686 140.951 392.222 140.952 392.764Z" fill="white"/>
<path d="M83.2377 389.002C83.2377 389.002 70.1599 388.562 65.9867 399.277C61.8135 409.992 64.966 418.215 66.1559 422.117C69.2632 432.313 69.5395 436.013 68.0169 442.165C66.6803 447.618 65.4566 450.438 63.917 455.536C62.3774 460.634 64.9434 460.048 65.1634 460.437C65.3833 460.826 115.202 471.547 115.202 471.547C115.202 471.547 113.617 458.79 110.324 453.771C107.905 450.083 104.278 448.831 107.008 437.902C109.737 426.973 111.474 421.903 109.94 413.979C108.17 404.793 107.053 399.057 98.419 393.034C93.9808 389.967 88.6129 388.542 83.2377 389.002Z" fill="#3B3B40"/>
<path d="M68.5198 525.623C68.0643 533.732 66.2158 541.703 63.0552 549.185C63.0552 549.185 52.3402 553.6 47.2083 546.929C45.1725 544.289 43.4018 535.43 42.6517 524.123C41.5238 506.72 46.5993 481.827 53.1354 466.685C53.1354 466.663 70.33 493.14 68.5198 525.623Z" fill="#323657"/>
<path d="M68.5204 525.623C68.065 533.732 66.2164 541.703 63.0558 549.185C63.0558 549.185 52.3409 553.6 47.209 546.929C45.1731 544.29 43.4024 535.43 42.6523 524.123L68.5204 525.623Z" fill="#323657"/>
<path d="M150.1 454.921C150.1 454.921 152.091 450.072 152.824 448.966C153.557 447.861 151.267 445.458 149.829 448.34C148.391 451.222 147.506 453.066 147.506 453.066L150.1 454.921Z" fill="#EEA886"/>
<path d="M159.37 459.484L166.138 438.618C166.243 438.293 166.278 437.95 166.241 437.61C166.204 437.271 166.095 436.943 165.921 436.649C165.748 436.355 165.515 436.101 165.236 435.904C164.957 435.706 164.64 435.571 164.305 435.505L154.154 433.509C153.542 433.386 152.906 433.506 152.38 433.843C151.855 434.179 151.48 434.706 151.334 435.313L146.208 456.743C146.131 457.065 146.122 457.4 146.18 457.726C146.238 458.051 146.362 458.362 146.545 458.638C146.728 458.914 146.966 459.149 147.243 459.33C147.521 459.51 147.833 459.632 148.159 459.687L156.686 461.131C157.256 461.222 157.84 461.106 158.333 460.804C158.825 460.502 159.193 460.033 159.37 459.484Z" fill="#525252"/>
<path d="M162.123 458.085C162.123 458.085 162.98 456.275 160.014 453.247C156.066 449.22 150.562 444.573 149.254 444.787C147.376 445.075 147.742 446.564 150.382 448.662C153.021 450.76 153.912 451.442 153.912 451.442C153.912 451.442 148.222 448.718 146.637 448.938C145.052 449.158 144.381 450.765 145.255 451.386C146.249 451.993 147.281 452.534 148.346 453.004C148.346 453.004 145.808 452.181 145.188 453.094C144.731 453.771 144.252 454.786 146.457 456.111C146.457 456.111 144.201 457.301 146.186 459.332C148.171 461.362 148.442 462.585 148.126 465.23C147.81 467.875 149.496 472.031 149.496 472.031L157.177 471.174C157.177 471.174 158.587 464.277 159.591 462.67C160.595 461.063 162.123 458.085 162.123 458.085Z" fill="#EEA886"/>
<path d="M113.691 501.965C117.21 507.233 121.811 512.804 125.533 512.754C127.924 512.72 158.045 473.96 158.033 472.015C158.033 469.815 146.946 466.787 146.946 466.787C146.946 466.787 141.662 475.945 136.795 479.808C131.929 483.671 126.03 491.91 124.812 492.779C123.593 493.647 119.172 484.162 119.172 484.162C117.717 479.599 115.918 471.524 111.677 464.04C107.436 456.557 97.9171 453.325 97.9171 453.325C79.369 461.649 108.254 492.83 108.254 492.83C108.254 492.83 112.016 499.557 113.691 501.965Z" fill="#EDDAD3"/>
<path d="M93.582 445.786C93.582 445.786 108.154 456.286 113.01 481.314C113.01 481.314 99.3342 454.521 94.8734 449.733C94.8734 449.778 92.9898 447.979 93.582 445.786Z" fill="#EDDAD3"/>
<path d="M116.275 487.782C116.275 487.782 116.083 545.908 116.275 559.313C116.467 572.718 99.2891 527.101 99.2891 527.101C99.2891 527.101 108.447 498.633 116.275 487.782Z" fill="#EDDAD3"/>
<path d="M39.877 627.392C39.877 627.392 81.479 622.881 106.913 637.453C132.347 652.025 83.137 594.227 83.137 594.227C83.137 594.227 40.4465 611.032 39.877 627.392Z" fill="#C2B2AD"/>
<path d="M87.0733 595.755C87.5752 598.174 90.7897 608.319 94.4046 619.587L97.5401 629.4C99.7958 636.511 101.961 643.318 103.439 648.218C104.245 650.886 104.849 652.989 105.131 654.275C107.206 662.734 104.877 676.021 104.121 687.125C103.366 698.229 115.344 752.835 115.344 752.835C118.163 754.149 130.689 750.664 130.689 750.664C128.619 746.717 125.839 678.722 126.967 674.397C128.095 670.071 128.845 658.042 127.717 653.322C127.463 652.079 127.34 650.812 127.35 649.544C127.254 643.605 128.478 633.793 129.222 623.038C130.164 609.504 124.897 575.808 124.147 572.797C124.074 572.52 123.966 572.131 123.826 571.669C122.438 566.943 117.977 553.532 117.977 553.532C108.954 550.842 102.108 550.352 97.0213 551.389C90.2878 552.766 86.5827 556.803 84.7273 561.935C80.306 574.167 86.4248 592.608 87.0733 595.755Z" fill="#292C47"/>
<path d="M35.6367 732.161L47.9983 737.412C49.5491 729.889 84.0906 677.605 86.3464 671.774C88.6022 665.943 91.0384 654.647 91.0384 650.508C91.0384 649.769 91.0891 648.523 91.1963 646.904C91.5967 640.628 92.7472 628.796 94.3939 619.587C94.6984 617.895 95.0255 616.243 95.3638 614.76C97.191 606.814 97.5069 579.677 97.5238 563.712C97.5238 556.612 97.4899 551.722 97.4899 551.722L97.0332 551.373C93.6044 548.778 71.5936 532.948 63.9184 547.746C61.9216 551.677 60.5226 555.883 59.7678 560.226C57.3033 573.637 55.4706 590.803 57.4613 604.569C59.1531 616.339 62.8413 629.659 65.3565 641.789C66.7269 648.41 67.9337 655.561 66.3997 658.228C62.0687 665.757 57.8391 672.13 49.0867 698.686C46.2163 707.32 35.6367 732.161 35.6367 732.161Z" fill="#292C47"/>
<path d="M67.4196 524.535C65.4119 532.565 55.1989 572.661 55.4526 575.047C55.5429 575.944 66.7315 577.816 77.0404 579.626C94.1673 582.638 116.274 576.242 123.848 571.652C123.69 571.088 113.567 533.304 112.823 528.928C112.078 524.551 113.736 508.062 114.108 503.437C114.249 501.712 114.988 499.253 115.851 496.602C117.306 492.119 119.127 487.083 119.026 484.156C118.927 481.946 118.41 479.774 117.503 477.755C116.303 475.149 114.892 472.644 113.285 470.266C112.276 468.699 111.215 467.097 110.155 465.546C106.704 460.471 103.258 455.886 101.566 454.301C100.488 453.293 99.3317 452.371 98.1093 451.543C97.1048 450.856 96.0335 450.273 94.9118 449.801C94.6805 449.705 94.5565 449.666 94.5565 449.666L79.6289 447.286C79.6289 447.286 78.0329 447.85 75.7885 448.622C73.0308 449.564 69.2919 450.782 66.303 451.566C65.8462 451.684 65.4006 451.797 64.9833 451.893C64.9833 451.893 62.4343 452.846 59.7387 455.88C57.1727 458.773 54.4602 463.522 54.3812 473.159C54.3135 481.658 64.081 501.971 65.5867 508.242C67.0925 514.513 69.4272 516.51 67.4196 524.535Z" fill="#5BC4D6"/>
<path d="M98.0645 451.521L106.715 465.157L114.701 477.744C114.701 477.677 114.137 475.771 113.251 470.25C113.077 469.201 112.891 467.994 112.688 466.702C112.629 466.322 112.546 465.945 112.439 465.574C109.022 457.679 98.4536 451.758 98.0701 451.561L98.0645 451.521Z" fill="#EDDAD3"/>
<path d="M76.3307 448.87C76.3307 448.87 76.7537 431.191 75.248 428.349C73.7423 425.506 93.4802 440.191 93.4802 440.191C93.4802 440.191 93.4069 440.885 93.3787 441.381C93.3787 441.477 93.3787 441.562 93.3787 441.635C93.3266 442.742 93.3701 443.851 93.5084 444.951C93.5084 445.126 93.5423 445.318 93.5648 445.515C93.7957 447.882 94.419 450.193 95.4089 452.356C97.5688 456.918 76.3307 448.87 76.3307 448.87Z" fill="#EEA886"/>
<path d="M112.422 465.45C112.422 465.45 112.885 466.403 113.263 470.25L110.133 465.529C110.133 465.529 104.544 457.516 102.627 455.435C101.25 453.992 99.7396 452.683 98.1152 451.527C98.1152 451.527 109.078 456.805 112.422 465.45Z" fill="#EDDAD3"/>
<path d="M94.5167 449.643C94.5167 449.643 104.527 465.033 101.137 466.381C97.7481 467.729 79.4087 464.587 71.6094 449.964C71.6094 449.964 83.2717 443.987 94.5167 449.643Z" fill="#EEA886"/>
<path d="M114.07 503.68C114.07 503.471 114.11 503.353 114.11 503.33C114.108 503.362 114.108 503.394 114.11 503.426C114.082 503.488 114.076 503.573 114.07 503.68Z" fill="#2F4563"/>
<path d="M70.8381 476.549C70.8381 476.549 58.0817 472.037 54.1172 471.705C54.1172 471.705 57.0892 448.995 70.2572 451.279C83.4253 453.563 70.8381 476.549 70.8381 476.549Z" fill="#EDDAD3"/>
<path d="M93.7337 446.868C93.7337 446.868 92.9611 449.784 76.3812 444.697L75.5973 448.459C75.5973 448.459 73.4092 448.786 67.4258 451.228C67.4258 451.228 97.3147 479.425 101.826 467.904C106.338 456.382 94.8615 449.778 94.8615 449.778L93.7337 446.868Z" fill="#5BC4D6"/>
<path d="M94.873 449.778L117.482 477.739C116.281 475.132 114.87 472.627 113.263 470.249C112.254 468.682 111.194 467.08 110.133 465.529C106.682 460.454 103.236 455.869 101.545 454.284C100.466 453.276 99.31 452.354 98.0876 451.527C97.0831 450.84 96.0117 450.256 94.89 449.784L94.873 449.778Z" fill="#CAEDF3"/>
<path d="M114.108 503.33C115.563 498.819 119.477 488.521 119.183 484.156C118.988 481.942 118.416 479.777 117.491 477.756C116.296 475.067 114.885 472.48 113.273 470.018C112.264 468.445 110.453 465.794 109.382 464.243C105.931 459.168 103.241 455.835 101.549 454.25C100.469 453.223 99.3111 452.28 98.0863 451.431C97.0866 450.771 96.0135 450.23 94.8887 449.818C94.8887 449.818 118.693 471.276 114.108 503.33Z" fill="#EDDAD3"/>
<path d="M62.8301 545.305C62.8301 545.305 64.4599 547.825 65.475 548.322C66.4901 548.818 67.6349 551.187 67.6349 551.187L61.1777 555.929C61.1777 555.929 58.8205 550.346 55.8598 548.598C52.8991 546.85 62.8301 545.305 62.8301 545.305Z" fill="#EEA886"/>
<path d="M53.0504 464.706C53.0504 464.706 58.3346 449.524 69.2976 454.273C79.8264 458.835 65.6263 477.361 64.3575 479.65C63.0886 481.94 51.1838 500.189 49.9826 502.654C46.1872 510.436 47.4618 514.299 48.7476 518.032C53.0786 530.552 61.5265 542.282 63.5849 544.278C65.6433 546.275 57.2349 553.555 53.9132 551.277C49.4919 548.243 41.5742 532.469 39.3974 528.882C36.7355 524.489 30.0134 516.583 34.773 502.845C37.9819 493.58 53.0504 464.706 53.0504 464.706Z" fill="#EDDAD3"/>
<path d="M69.3029 546.545L55.4355 557.678C55.4355 557.678 66.314 574.032 71.5304 567.158C76.7469 560.283 69.3029 546.545 69.3029 546.545Z" fill="#DBCAC3"/>
<path d="M98.2062 483.671C95.9166 459.23 76.3817 444.455 76.3817 444.455L75.6259 448.086C55.527 453.765 55.0477 458.237 54.1172 471.699C53.7562 476.87 55.2056 483.761 57.0666 491.183C57.828 494.194 58.6513 497.29 59.4577 500.392C61.8319 509.573 63.9692 518.81 63.5745 526.04C62.6496 541.74 20.7148 610.823 20.7148 610.823C20.7148 625.424 57.0723 646.352 57.0723 646.352C55.3523 627.076 101.449 503.059 98.2062 483.671Z" fill="#EDDAD3"/>
<path d="M59.4577 500.398C65.7175 493.066 69.4057 471.546 69.4057 471.546C65.678 482.041 57.0723 491.183 57.0723 491.183C57.8279 494.2 58.6513 497.296 59.4577 500.398Z" fill="#C2B2AC"/>
<path d="M94.3828 619.587L97.5184 629.4C102.554 609.955 103.423 588.283 103.423 588.283C101.895 600.368 94.3828 619.587 94.3828 619.587Z" fill="#151624"/>
<path d="M93.4285 395.86C93.4285 395.86 107.854 405.278 103.168 428.039C98.4814 450.799 81.4503 438.285 79.6006 436.994C77.7509 435.702 72.0325 421.457 71.8069 415.243C71.5982 409.395 68.5473 385.935 93.4285 395.86Z" fill="#EEA987"/>
<path d="M92.4255 400.428C90.9197 399.988 85.8442 409.8 83.1091 412.22C80.374 414.639 75.3493 420.718 74.8586 427.378C74.368 434.039 68.7511 412.823 70.6911 404.956C72.6311 397.089 75.2027 385.54 92.809 394.698C110.415 403.856 105.842 420.216 105.842 420.216C105.842 420.216 100.039 402.672 92.4255 400.428Z" fill="#3B3B40"/>
<path d="M80.2623 416.162C79.7942 413.472 73.8502 411.193 73.9405 415.237C74.0307 419.28 77.3241 423.955 79.1682 423.662C81.0123 423.369 80.6909 418.626 80.2623 416.162Z" fill="#EEA987"/>
<path d="M93.4971 444.962H93.4632C83.0247 444.838 79.6016 436.994 79.6016 436.994C86.8313 442.453 92.623 441.545 93.3786 441.392C93.3786 441.488 93.3786 441.573 93.3786 441.646C93.3228 442.753 93.3625 443.862 93.4971 444.962Z" fill="#A87860"/>
<path d="M466.826 452.852C466.826 452.852 463.866 448.34 463.381 445.724C463.117 444.191 462.436 442.761 461.413 441.59C461.413 441.59 450.184 439.954 445.876 435.95C441.567 431.946 432.42 421.04 428.106 424.311C423.792 427.582 431.236 441.33 435.64 445.487C440.045 449.643 446 456.923 451.431 456.382C456.862 455.841 464.204 453.275 466.826 452.852Z" fill="#2C3566"/>
<path d="M466.828 452.164L461.414 441.59C461.414 441.59 487.327 436.842 494.907 432.274C496.807 431.146 498.696 429.984 500.456 428.89C504.46 426.42 507.787 424.283 508.949 423.285C512.693 420.104 527.694 409.479 531.749 405.571C535.804 401.663 540.58 404.048 546.902 404.116C553.224 404.184 576.103 410.517 582.944 411.447C589.784 412.378 614.524 416.946 614.524 416.946C610.16 428.822 466.828 452.164 466.828 452.164Z" fill="#25354D"/>
<path d="M615.951 416.545C615.951 416.545 602.005 418.559 598.424 418.801C594.753 419.083 573.982 420.752 563.967 421.717C553.951 422.681 534.281 422.1 530.379 423.815C526.476 425.529 503.918 433.176 496.542 435.562C489.166 437.947 441.185 446.728 441.185 446.728C441.185 446.728 440.362 453.23 444.614 458.215C444.614 458.215 465.756 456.332 476.917 457.973C488.077 459.614 507.567 457.11 519.399 451.769C531.23 446.429 549.981 451.296 560.459 454.978C570.937 458.661 611.005 461.621 616.007 460.499C621.01 459.377 630.98 454.561 638.204 446.705C645.428 438.849 615.951 416.545 615.951 416.545Z" fill="#323B6E"/>
<path d="M444.6 458.243C444.6 458.243 442.807 453.168 442.976 450.5C443.145 447.833 442.328 446.553 442.328 446.553C442.328 446.553 431.573 441.714 428.359 436.785C425.144 431.856 418.913 419.066 413.933 421.192C408.954 423.318 412.85 438.466 416.121 443.564C419.392 448.662 421.405 462.225 426.791 463.008C432.177 463.792 441.955 458.023 444.6 458.243Z" fill="#323B6E"/>
<path d="M647.304 407.618C647.304 407.618 664.933 447.619 637.571 457.318C615.746 465.056 575.537 457.933 575.537 457.933L600.289 418.931L647.304 407.618Z" fill="#323B6E"/>
<path d="M601.936 256.673C608.647 258.168 604.649 275.018 609.143 298.574C613.638 322.13 627.844 325.818 627.844 325.818C627.844 325.818 621.539 315.374 622.204 304.45C622.768 295.912 633.083 272.627 622.864 257.406C614.969 245.648 601.051 256.323 601.051 256.323L601.936 256.673Z" fill="#323657"/>
<path d="M612.036 305.725L598.987 319.164C598.863 316.694 597.955 313.693 597.03 311.195C596.573 309.971 596.105 308.86 595.733 308.003C595.237 306.875 594.893 306.176 594.893 306.176L606.532 293.865L612.036 305.725Z" fill="#EEA886"/>
<path d="M596.5 317.838C596.015 322.204 594.646 326.425 592.479 330.245C588.96 336.2 583.146 346.092 583.97 352.521C584.793 358.95 587.528 361.29 590.004 363.602C592.479 365.915 599.258 382.63 600.081 389.064C600.905 395.499 601.423 408.853 599.861 418.683C599.861 418.683 645.625 423.989 650.227 415.993C650.227 415.993 644.548 390.282 641.869 383.848C639.191 377.413 633.585 338.857 631.155 332.304C628.724 325.751 623.079 319.412 619.611 314.866C616.509 310.806 610.864 303.249 610.864 303.249L596.5 317.838Z" fill="#CAEDF3"/>
<path d="M590.781 258.043C584.741 258.444 571.765 263.006 571.551 279.157C572.155 281.713 572.96 284.218 573.959 286.647C575.391 289.901 573.519 300.181 574.365 300.587C575.211 300.993 578.538 301.236 578.538 301.236C578.538 301.236 583.298 311.691 587.099 311.161C590.9 310.631 604.987 305.979 610.22 291.683C615.454 277.387 615.166 256.414 590.781 258.043Z" fill="#EEA886"/>
<path d="M571.552 279.158C571.552 279.158 582.069 284.679 591.904 284.904C601.739 285.13 609.793 300.892 609.793 300.892C609.793 300.892 621.697 274.184 608.061 260.632C594.425 247.081 567.305 260.863 571.552 279.158Z" fill="#323657"/>
<path d="M594.2 284.808C594.036 282.93 595.796 279.879 599.163 282.084C602.529 284.289 599.428 293.673 596.811 293.092C594.194 292.512 594.369 286.754 594.2 284.808Z" fill="#EEA886"/>
<path d="M605.048 300.553C604.868 300.858 600.074 308.702 597.012 311.212C596.555 309.988 596.087 308.877 595.715 308.02C595.732 307.998 602.572 303.937 605.048 300.553Z" fill="#A77860"/>
<path d="M507.604 431.748L571.559 419.675L570.508 414.111L506.553 426.184L507.604 431.748Z" fill="#C4C4C4"/>
<path d="M470.719 378.11L507.527 431.787L512.197 428.585L475.389 374.908L470.719 378.11Z" fill="#C4C4C4"/>
<path d="M519.825 423.707C519.504 422.286 519.825 419.912 524.297 417.504C528.77 415.096 538.441 409.654 541.842 409.524C545.242 409.394 551.936 409.93 553.307 409.925C554.677 409.919 551.158 418.012 551.158 418.012L519.825 423.707Z" fill="#EEA886"/>
<path d="M551.739 410.55C551.739 410.55 570.394 403.219 573.428 401.747C576.462 400.275 590.583 395.544 591.841 394.907C593.098 394.269 598.997 359.006 599.522 350.124C600.046 341.242 600.565 322.44 610.592 323.275C620.619 324.109 623.027 330.691 621.775 343.65C620.523 356.609 613.101 402.988 609.966 404.556C606.83 406.124 570.856 414.143 551.88 417.949C533.732 421.576 551.739 410.55 551.739 410.55Z" fill="#EEA886"/>
<path d="M598.496 352.887C598.496 352.887 612.95 355.583 621.28 356.418C621.28 356.418 631.651 326.884 617.535 322.164C600.803 316.569 597.064 339.465 598.496 352.887Z" fill="#AEDDE6"/>
<path d="M325.248 137.665C325.248 137.665 321.644 131.382 321.125 130.407C320.607 129.431 320.917 126.352 321.588 122.855C322.259 119.359 324.723 114.96 325.293 114.695C325.666 114.446 326.088 114.28 326.531 114.209C326.974 114.138 327.427 114.163 327.859 114.283C328.857 114.532 329.774 115.036 330.521 115.744C330.521 115.744 332.613 115.259 333.904 116.754C334.527 116.674 335.16 116.78 335.723 117.059C336.286 117.338 336.754 117.777 337.068 118.321C337.068 118.321 339.019 118.017 339.752 119.494C339.752 119.494 339.437 122.579 339.651 123.752C339.865 124.925 338.083 132.854 336.104 138.798C336.087 138.798 333.013 142.216 325.248 137.665Z" fill="#EEA886"/>
<path d="M328.311 127.84C328.311 127.84 331.209 130.04 331.694 131.066C332.179 132.092 338.862 127.316 338.862 127.316C338.862 127.316 331.074 124.383 328.311 127.84Z" fill="#CF8C6C"/>
<path d="M325.079 115.58C325.079 115.58 323.602 124.491 325.006 124.902C325.364 125.04 325.75 125.086 326.13 125.037C326.51 124.988 326.872 124.844 327.183 124.62L328.237 128.568C328.237 128.568 330.409 130.784 332.185 127.773C332.185 127.773 334.001 130.028 335.371 126.938C335.371 126.938 337.238 127.908 338.129 126.577C339.02 125.246 339.736 119.477 339.736 119.477C339.736 119.477 339.488 118 337.204 118.112C336.895 117.569 336.43 117.133 335.868 116.86C335.306 116.587 334.675 116.491 334.057 116.584C333.634 116.13 333.098 115.796 332.503 115.616C331.909 115.437 331.277 115.419 330.674 115.563C330.674 115.563 327.95 112.744 325.311 114.678C325.294 114.695 325.141 115.231 325.079 115.58Z" fill="#DB9C7C"/>
<path d="M321.139 130.119C321.139 130.119 324.832 125.145 328.041 123.312C328.763 122.895 329.547 122.624 330.201 123.143C330.855 123.662 330.946 125.275 329.457 127.508C327.968 129.741 327.071 133.322 327.071 133.322C327.071 133.322 324.866 135.172 321.139 130.119Z" fill="#EEA886"/>
<path d="M189.424 141.922C189.424 141.922 191.494 134.98 191.776 133.909C192.058 132.837 191.048 129.922 189.593 126.668C188.138 123.414 184.721 119.675 184.117 119.573C183.696 119.415 183.245 119.351 182.796 119.384C182.348 119.417 181.911 119.547 181.518 119.765C180.603 120.236 179.826 120.936 179.262 121.795C179.262 121.795 177.113 121.795 176.211 123.555C175.585 123.617 174.993 123.866 174.51 124.268C174.026 124.67 173.674 125.207 173.498 125.811C173.498 125.811 171.53 125.963 171.152 127.564C171.152 127.564 172.162 130.491 172.224 131.687C172.286 132.882 175.839 140.185 179.132 145.515C179.11 145.509 182.882 148.131 189.424 141.922Z" fill="#EEA886"/>
<path d="M184.162 133.062C184.162 133.062 181.845 135.882 181.591 137.01C181.337 138.138 173.752 135.008 173.752 135.008C173.752 135.008 180.683 130.333 184.162 133.062Z" fill="#CF8C6C"/>
<path d="M184.5 120.413C184.5 120.413 187.985 128.743 186.711 129.47C186.394 129.686 186.029 129.819 185.647 129.858C185.266 129.896 184.881 129.839 184.528 129.69L184.41 133.773C184.41 133.773 182.803 136.424 180.378 133.903C180.378 133.903 179.137 136.537 177.09 133.818C177.09 133.818 175.494 135.194 174.321 134.1C173.148 133.006 171.129 127.559 171.129 127.559C171.129 127.559 171.073 126.104 173.323 125.692C173.323 125.692 173.887 123.521 176.075 123.374C176.075 123.374 176.859 121.823 179.205 121.682C179.205 121.682 181.077 118.299 184.088 119.573C184.088 119.573 184.348 120.058 184.5 120.413Z" fill="#DB9C7C"/>
<path d="M191.679 133.627C191.679 133.627 186.942 129.628 183.4 128.579C182.6 128.342 181.776 128.258 181.257 128.912C180.739 129.566 181.021 131.168 182.983 132.995C184.946 134.822 186.643 138.099 186.643 138.099C186.643 138.099 189.198 139.407 191.679 133.627Z" fill="#EEA886"/>
<path d="M275.142 211.276C275.142 211.276 254.981 225.076 255.968 216.645C256.955 208.214 254.795 199.473 254.795 199.473C254.795 199.473 274.809 190.782 273.901 197.048C273.698 198.542 273.628 200.052 273.693 201.559C273.761 203.244 273.926 204.924 274.189 206.589C274.578 209.325 275.142 211.276 275.142 211.276Z" fill="#EEA886"/>
<path d="M173.752 147.071L190.439 141.589C190.439 141.589 201.413 164.187 203.252 169.646C204.994 174.828 212.331 188.679 213.837 191.403C215.704 194.786 233.677 220.66 237.083 220.66C239.203 220.66 245.147 218.483 249.946 216.549C252.851 215.376 255.338 214.293 256.319 213.847C258.924 212.646 273.124 208.811 278.064 209.336C278.064 209.336 279.237 209.494 281.025 209.669C285.108 210.069 292.383 210.543 296.105 209.336C301.446 207.599 304.254 203.324 307.457 199.85C310.66 196.376 321.223 184.173 322.024 181.635C322.825 179.097 323.389 156.551 323.716 150.19C323.961 145.437 323.961 140.675 323.716 135.922C323.58 135.121 342.145 135.082 341.88 137.354C341.615 139.627 341.762 158.113 340.921 167.097C340.171 175.059 338.897 183.417 337.425 187.021C335.953 190.624 320.326 214.146 318.454 218.421C316.582 222.696 308.952 233.647 308.303 235.255C307.655 236.862 305.483 254.739 303.47 259.95C301.457 265.161 303.369 300.723 304.169 306.469C304.772 310.294 305.822 314.034 307.299 317.613C307.299 317.613 275.544 324.504 244.138 326.907C244.138 326.907 246.185 311.849 245.784 306.103C245.384 300.356 238.453 264.371 235.481 258.771C232.509 253.171 205.553 213.611 204.464 212.009C203.376 210.407 194.652 199.636 192.74 195.531C192.723 195.519 174.378 150.28 173.752 147.071Z" fill="#3C5076"/>
<path d="M274.167 206.589C262.042 208.845 257.52 201.779 257.52 201.779C265.415 207.103 273.665 201.615 273.755 201.559C273.797 203.242 273.935 204.922 274.167 206.589Z" fill="#A77860"/>
<path d="M377.341 324.724C376.862 328.108 356.611 342.279 352.623 345.116C349.42 347.372 346.64 348.432 341.796 350.248C330.799 353.141 261.806 373.73 261.806 373.73C261.67 373.005 261.441 372.3 261.124 371.633C258.547 372.659 255.896 373.324 254.215 373.849C251.644 374.65 231.257 375.293 227.084 376.105C222.911 376.917 214.559 378.191 211.192 374.977C207.825 371.762 213.279 364.865 217.96 363.1C222.64 361.335 239.632 360.844 242.683 360.529C245.734 360.213 249.749 359.085 251.672 359.728C252.281 359.931 254.971 359.164 258.372 357.968C258.287 356.716 258.265 355.927 258.265 355.927L276.378 350.705L272.995 318.633C272.995 318.633 280.89 288.93 312.364 311.59C312.364 311.59 319.39 313.654 321.798 314.297C322.066 314.337 322.338 314.337 322.605 314.297C327.41 313.936 348.05 307.693 355.511 307.693C363.536 307.693 366.107 307.208 368.995 308.657C371.882 310.106 377.826 321.351 377.341 324.724Z" fill="#23314E"/>
<path d="M345.071 374.994C341.687 378.208 333.352 376.923 329.179 376.122C325.005 375.321 304.619 374.673 302.047 373.866C299.476 373.06 294.665 371.937 291.293 369.693C290.718 369.376 290.116 369.112 289.494 368.903L284.419 372.58L213.531 350.023C209.284 348.861 205.912 347.084 203.668 345.139C199.979 341.924 179.418 328.119 178.95 324.747C178.482 321.374 184.403 310.141 187.296 308.697C190.189 307.253 192.755 307.733 200.78 307.733C208.805 307.733 232.085 314.957 234.493 314.314C235.587 314.021 237.876 312.864 240.002 311.691C242.574 310.287 244.982 308.872 244.982 308.872C279.456 293.482 283.296 318.667 283.296 318.667L281.255 349.758C281.255 349.758 284.131 351.184 287.864 352.955L304.952 357.788L302.696 359.401C303.304 359.663 303.963 359.786 304.625 359.762C306.548 359.119 310.563 360.241 313.614 360.563C316.665 360.884 333.679 361.369 338.337 363.134C342.995 364.899 348.454 371.763 345.071 374.994Z" fill="#23314E"/>
<path d="M239.986 311.669C242.366 311.838 258.427 321.143 262.239 323.371C256.448 320.342 234.477 314.291 234.477 314.291C235.571 313.998 237.838 312.842 239.986 311.669Z" fill="#474747"/>
<path d="M322.604 314.314C322.604 314.314 294.926 321.03 289.861 323.839C290.093 323.675 304.451 312.768 311.985 311.313C311.985 311.313 319.389 313.648 321.797 314.291C322.065 314.332 322.337 314.332 322.604 314.291V314.314Z" fill="#474747"/>
<path d="M345.071 374.994C341.687 378.208 333.352 376.923 329.179 376.122C325.006 375.321 304.619 374.673 302.048 373.866C301.309 373.635 300.39 373.381 299.363 373.077C296.831 372.326 293.724 371.294 291.293 369.693C290.719 369.376 290.116 369.112 289.494 368.903L302.318 359.643L302.69 359.378C303.299 359.64 303.957 359.763 304.619 359.739C306.542 359.096 310.557 360.219 313.608 360.54C316.659 360.862 333.673 361.347 338.332 363.112C342.99 364.877 348.454 371.763 345.071 374.994Z" fill="#314368"/>
<path d="M345.071 374.994C341.687 378.208 333.352 376.922 329.179 376.122C325.006 375.321 304.619 374.672 302.048 373.866C301.309 373.635 300.39 373.381 299.363 373.076C299.363 373.076 305.003 367.527 302.324 359.649L302.696 359.384C303.304 359.645 303.963 359.769 304.625 359.745C306.548 359.102 310.563 360.224 313.614 360.546C316.665 360.867 333.679 361.352 338.337 363.117C342.996 364.882 348.455 371.762 345.071 374.994Z" fill="#2A3959"/>
<path d="M247.025 318.758C247.059 318.842 247.025 318.904 246.996 318.95C246.681 319.164 246.731 319.085 247.025 318.758Z" fill="#E55353"/>
<path d="M255.45 341.614C255.45 341.614 233.034 328.175 223.238 326.066C213.984 324.064 210.611 320.607 210.611 320.607C210.611 320.607 225.325 320.607 235.12 327.561C241.769 332.287 255.45 341.614 255.45 341.614Z" fill="#2C3B5A"/>
<path d="M275.375 350.981C275.375 350.981 314.372 330.505 330.292 326.066C339.411 323.517 342.918 320.607 342.918 320.607C342.918 320.607 318.81 322.959 304.147 331.79C297.138 335.997 275.375 350.981 275.375 350.981Z" fill="#2C3B5A"/>
<path d="M261.124 371.61C258.547 372.636 255.896 373.302 254.215 373.826C251.644 374.627 231.257 375.27 227.084 376.082C222.911 376.894 214.559 378.169 211.192 374.954C207.825 371.74 213.279 364.843 217.96 363.078C222.64 361.313 239.632 360.822 242.683 360.506C245.734 360.19 249.749 359.062 251.672 359.705C252.281 359.908 254.971 359.141 258.372 357.946C258.445 359.999 261.124 371.61 261.124 371.61Z" fill="#314368"/>
<path d="M275.375 369.693L313.723 358.346L306.138 356.029C306.138 356.029 275.493 367.138 275.375 369.693Z" fill="#2D384F"/>
<path d="M275.369 369.693L293.314 364.217L280.873 371.441L275.369 369.693Z" fill="#314368"/>
<path d="M263.045 323.839L262.238 323.371C262.517 323.509 262.786 323.666 263.045 323.839Z" fill="#525252"/>
<path d="M254.215 373.866C251.644 374.667 231.257 375.31 227.084 376.122C222.911 376.934 214.559 378.209 211.192 374.994C207.825 371.78 213.279 364.883 217.96 363.117C222.64 361.352 239.632 360.862 242.683 360.546C245.734 360.23 249.749 359.102 251.672 359.745C251.644 359.723 246.501 367.59 254.215 373.866Z" fill="#2A3959"/>
<path d="M241.537 320.608L235.633 287.019L312.013 285.254L307.096 318.324C307.096 318.324 282.716 327.245 274.438 332.422C274.438 332.433 253.527 323.839 241.537 320.608Z" fill="#DBCAC2"/>
<path d="M258.551 158.671C258.551 158.671 277.99 151.808 278.892 175.843C279.806 200.228 275.582 203.583 269.255 204.756C261.314 206.24 252.675 203.86 245.761 185.706C239.174 168.416 246.319 160.098 258.551 158.671Z" fill="#EEA886"/>
<path d="M247.848 190.585C247.848 190.585 245.902 187.201 247.69 185.927C247.914 185.754 248.171 185.629 248.445 185.561C248.719 185.492 249.004 185.481 249.283 185.528C249.562 185.575 249.828 185.68 250.064 185.835C250.3 185.99 250.502 186.192 250.656 186.429L252.579 186.107C252.579 186.107 248.756 179.904 254.773 178.618C260.79 177.332 273.631 176.165 276.88 173.751C276.88 173.751 278.007 178.387 278.115 179.441C278.222 180.496 279 179.193 279 179.193C279 179.193 280.128 161.801 268.956 155.947C257.785 150.094 245.558 157.075 243.579 163.696C241.599 170.317 241.041 176.887 247.848 190.585Z" fill="#323B6E"/>
<path d="M248.073 181.562C248.073 181.562 245.93 179.87 245.603 181.641C245.276 183.411 249.235 190.906 250.261 190.957C251.288 191.008 250.639 183.626 248.073 181.562Z" fill="#EEA886"/>
<path d="M252.539 215.483C252.539 215.483 260.902 223.857 271.313 220.558C281.723 217.259 279.016 209.431 279.016 209.431C279.016 209.431 271.55 207.029 252.539 215.483Z" fill="#C4B5AE"/>
<path d="M256.195 210.943L267.886 216.188L268.343 215.009L269.392 215.833L274.287 207.3L256.195 210.943Z" fill="#EEA886"/>
<path d="M256.194 210.943C256.194 210.943 264.862 213.599 268.341 215.009L265.843 222.25L255.309 214.299L256.194 210.943Z" fill="#EAD8CF"/>
<path d="M268.342 215.009C268.342 215.009 272.701 210.593 274.286 207.3L276.367 209.257L274.41 220.079L268.342 215.009Z" fill="#EAD8CF"/>
</g>
<rect x="213" y="56.6526" width="218.889" height="47" rx="23.5" transform="rotate(-15 213 56.6526)" fill="url(#paint12_linear)"/>
<path d="M246.129 72.5085C245.848 71.4575 245.837 70.4499 246.098 69.4856C246.369 68.5185 246.86 67.6914 247.57 67.0041C248.288 66.3038 249.146 65.8197 250.146 65.5519C251.289 65.2455 252.38 65.2569 253.418 65.5861C254.464 65.9023 255.325 66.5218 256.003 67.4444L253.886 68.0117C253.456 67.5196 252.956 67.2007 252.387 67.055C251.818 66.9094 251.209 66.9235 250.56 67.0974C249.849 67.2879 249.258 67.6174 248.787 68.0859C248.317 68.5543 248.002 69.1302 247.842 69.8133C247.693 70.4937 247.725 71.2306 247.938 72.024C248.15 72.8173 248.491 73.4714 248.96 73.9861C249.44 74.4981 250.002 74.8444 250.647 75.0251C251.289 75.1954 251.965 75.1853 252.676 74.9948C253.325 74.8209 253.86 74.5286 254.28 74.1179C254.7 73.7072 254.973 73.1812 255.099 72.54L257.217 71.9727C257.091 73.1107 256.654 74.0779 255.907 74.8745C255.17 75.6683 254.23 76.2184 253.086 76.5248C252.076 76.7954 251.092 76.8107 250.133 76.5706C249.172 76.3203 248.332 75.8441 247.614 75.1421C246.906 74.4373 246.411 73.5594 246.129 72.5085ZM259.927 66.7907C260.068 66.2889 260.319 65.8629 260.678 65.5128C261.044 65.1496 261.521 64.8893 262.108 64.7319L262.597 66.5556L262.149 66.6757C261.458 66.8606 260.98 67.1766 260.713 67.6235C260.457 68.0677 260.444 68.7225 260.676 69.588L261.877 74.0699L260.115 74.542L257.834 66.0264L259.595 65.5543L259.927 66.7907ZM272.655 66.3949C272.74 66.7143 272.797 67.0084 272.825 67.277L266.318 69.0204C266.552 69.6866 266.951 70.165 267.514 70.4557C268.078 70.7463 268.69 70.8033 269.349 70.6266C270.297 70.3726 270.861 69.7965 271.039 68.8983L272.94 68.3889C272.893 69.241 272.596 70.0105 272.052 70.6976C271.514 71.3716 270.746 71.8425 269.747 72.1103C268.933 72.3284 268.153 72.3441 267.407 72.1574C266.669 71.9577 266.026 71.5778 265.479 71.0178C264.938 70.4447 264.551 69.7203 264.316 68.8445C264.082 67.9687 264.051 67.1542 264.225 66.4009C264.406 65.6346 264.768 64.9855 265.31 64.4537C265.862 63.9192 266.556 63.5401 267.39 63.3165C268.194 63.1012 268.957 63.0845 269.679 63.2664C270.402 63.4483 271.024 63.8117 271.545 64.3566C272.064 64.8912 272.434 65.5707 272.655 66.3949ZM270.666 66.3314C270.482 65.685 270.111 65.2268 269.553 64.9568C268.994 64.6867 268.38 64.6414 267.711 64.8209C267.103 64.9838 266.635 65.3189 266.307 65.8264C265.977 66.3236 265.858 66.9129 265.953 67.5944L270.666 66.3314ZM273.847 66.2577C273.618 65.4026 273.59 64.5983 273.763 63.8451C273.947 63.089 274.295 62.4493 274.806 61.9258C275.325 61.3892 275.955 61.0216 276.697 60.8228C277.367 60.6433 277.985 60.6213 278.551 60.7567C279.125 60.879 279.614 61.0959 280.018 61.4073L279.686 60.1709L281.464 59.6947L283.745 68.2103L281.968 68.6865L281.628 67.4192C281.437 67.9011 281.12 68.345 280.677 68.7509C280.233 69.1569 279.682 69.4482 279.023 69.6249C278.291 69.8209 277.572 69.8149 276.864 69.6068C276.154 69.3885 275.529 68.9928 274.989 68.4197C274.457 67.8336 274.076 67.1129 273.847 66.2577ZM280.825 64.421C280.668 63.8337 280.407 63.3568 280.044 62.9904C279.691 62.6211 279.289 62.3756 278.836 62.2539C278.384 62.1321 277.931 62.132 277.478 62.2534C277.025 62.3749 276.633 62.6014 276.302 62.933C275.968 63.2543 275.736 63.6644 275.605 64.1634C275.481 64.6493 275.498 65.1859 275.655 65.7732C275.812 66.3605 276.069 66.8439 276.424 67.2235C276.79 67.6002 277.201 67.8547 277.656 67.9867C278.119 68.1057 278.571 68.1059 279.014 67.9872C279.468 67.8657 279.86 67.6392 280.191 67.3076C280.521 66.976 280.747 66.5621 280.868 66.0659C280.997 65.5566 280.982 65.0083 280.825 64.421ZM286.218 59.9612L287.481 64.6749C287.567 64.9943 287.701 65.2068 287.884 65.3124C288.075 65.4049 288.35 65.4029 288.711 65.3062L289.792 65.0164L290.186 66.4846L288.795 66.8573C288.002 67.0698 287.344 67.0473 286.822 66.7895C286.3 66.5318 285.928 65.9857 285.704 65.1511L284.441 60.4374L283.436 60.7066L283.051 59.2693L284.056 59.0001L283.489 56.8828L285.266 56.4066L285.833 58.5239L287.904 57.969L288.289 59.4063L286.218 59.9612ZM298.418 59.4918C298.503 59.8112 298.56 60.1052 298.588 60.3738L292.081 62.1172C292.315 62.7834 292.714 63.2618 293.277 63.5525C293.841 63.8431 294.453 63.9001 295.112 63.7234C296.06 63.4695 296.624 62.8933 296.803 61.9951L298.703 61.4857C298.656 62.3378 298.359 63.1074 297.815 63.7944C297.278 64.4684 296.509 64.9393 295.51 65.2071C294.696 65.4252 293.916 65.4409 293.17 65.2542C292.432 65.0545 291.789 64.6746 291.242 64.1146C290.702 63.5415 290.314 62.8171 290.08 61.9413C289.845 61.0655 289.814 60.251 289.988 59.4977C290.169 58.7314 290.531 58.0823 291.073 57.5506C291.625 57.016 292.319 56.6369 293.154 56.4133C293.957 56.198 294.72 56.1813 295.443 56.3632C296.165 56.5451 296.787 56.9085 297.308 57.4534C297.827 57.9881 298.197 58.6675 298.418 59.4918ZM296.429 59.4282C296.245 58.7818 295.874 58.3236 295.316 58.0536C294.757 57.7835 294.143 57.7382 293.474 57.9177C292.866 58.0806 292.398 58.4157 292.07 58.9232C291.74 59.4204 291.621 60.0097 291.716 60.6912L296.429 59.4282ZM310.747 51.8483L308.877 65.7664L307.054 66.2551L307.675 61.6494L302.077 54.1715L304.039 53.6456L308.174 59.4947L308.923 52.337L310.747 51.8483ZM318.089 59.157C317.285 59.3724 316.511 59.3867 315.765 59.2C315.016 59.003 314.368 58.6245 313.821 58.0645C313.27 57.4942 312.878 56.7711 312.643 55.8953C312.411 55.0299 312.396 54.2112 312.598 53.4394C312.8 52.6675 313.182 52.0129 313.745 51.4756C314.308 50.9383 314.996 50.5606 315.81 50.3425C316.624 50.1244 317.409 50.1073 318.165 50.2913C318.921 50.4752 319.579 50.8509 320.14 51.4185C320.701 51.9861 321.097 52.7026 321.329 53.568C321.561 54.4335 321.571 55.2536 321.359 56.0282C321.147 56.8028 320.75 57.4667 320.17 58.0198C319.597 58.5598 318.903 58.9389 318.089 59.157ZM317.679 57.627C318.132 57.5055 318.526 57.2841 318.859 56.9629C319.203 56.6388 319.441 56.2273 319.572 55.7283C319.703 55.2293 319.686 54.6707 319.521 54.0526C319.355 53.4344 319.097 52.9458 318.747 52.5869C318.394 52.2176 317.993 51.9773 317.543 51.8658C317.094 51.7544 316.642 51.7594 316.189 51.8808C315.736 52.0023 315.342 52.2237 315.009 52.545C314.686 52.8635 314.469 53.2695 314.358 53.7629C314.244 54.2461 314.27 54.7968 314.436 55.415C314.682 56.332 315.104 56.9808 315.703 57.3614C316.309 57.7289 316.968 57.8175 317.679 57.627ZM329.644 46.7849L331.925 55.3005L330.164 55.7726L329.894 54.768C329.71 55.1928 329.419 55.569 329.021 55.8966C328.63 56.211 328.182 56.4359 327.678 56.5712C327.008 56.7506 326.368 56.7731 325.758 56.6384C325.158 56.501 324.63 56.2007 324.174 55.7375C323.729 55.2715 323.403 54.6521 323.196 53.8793L321.855 48.872L323.601 48.404L324.872 53.1487C325.077 53.9111 325.424 54.4473 325.916 54.7573C326.405 55.057 326.979 55.1185 327.639 54.9418C328.298 54.7651 328.764 54.4248 329.038 53.9208C329.319 53.4038 329.357 52.764 329.153 52.0016L327.882 47.257L329.644 46.7849ZM334.061 46.9263C334.203 46.4245 334.453 45.9986 334.812 45.6484C335.179 45.2852 335.656 45.0249 336.243 44.8675L336.732 46.6912L336.283 46.8113C335.593 46.9963 335.115 47.3122 334.848 47.7591C334.591 48.2033 334.579 48.8581 334.811 49.7236L336.012 54.2055L334.25 54.6776L331.968 46.162L333.73 45.6899L334.061 46.9263ZM342.458 47.8735C342.228 47.0183 342.201 46.2141 342.374 45.4608C342.558 44.7048 342.906 44.065 343.417 43.5415C343.936 43.005 344.566 42.6373 345.308 42.4385C345.978 42.2591 346.596 42.2371 347.162 42.3724C347.736 42.4947 348.225 42.7116 348.628 43.0231L348.297 41.7867L350.075 41.3105L352.356 49.8261L350.579 50.3023L350.239 49.035C350.048 49.5169 349.731 49.9608 349.288 50.3667C348.844 50.7726 348.293 51.0639 347.633 51.2406C346.902 51.4366 346.183 51.4306 345.475 51.2226C344.765 51.0043 344.14 50.6085 343.6 50.0355C343.068 49.4493 342.687 48.7287 342.458 47.8735ZM349.436 46.0368C349.279 45.4495 349.018 44.9726 348.655 44.6061C348.302 44.2369 347.9 43.9914 347.447 43.8696C346.995 43.7479 346.542 43.7477 346.089 43.8692C345.636 43.9907 345.244 44.2172 344.913 44.5488C344.579 44.87 344.347 45.2802 344.215 45.7792C344.092 46.2651 344.108 46.8017 344.266 47.389C344.423 47.9763 344.68 48.4597 345.035 48.8392C345.401 49.216 345.812 49.4704 346.267 49.6025C346.729 49.7215 347.182 49.7216 347.625 49.6029C348.079 49.4815 348.471 49.2549 348.801 48.9233C349.132 48.5918 349.358 48.1779 349.479 47.6816C349.608 47.1723 349.593 46.624 349.436 46.0368ZM352.94 45.0978C352.705 44.2221 352.675 43.4075 352.849 42.6543C353.03 41.8879 353.386 41.2403 353.918 40.7112C354.45 40.1822 355.123 39.8087 355.937 39.5906C356.967 39.3145 357.883 39.334 358.686 39.6491C359.495 39.9512 360.14 40.5238 360.62 41.367L358.719 41.8763C358.452 41.4953 358.116 41.2318 357.712 41.086C357.309 40.9401 356.85 40.9362 356.334 41.0742C355.613 41.2675 355.105 41.6797 354.811 42.3108C354.523 42.9288 354.503 43.6963 354.748 44.6133C354.994 45.5303 355.397 46.1898 355.958 46.5918C356.528 46.991 357.174 47.0939 357.896 46.9007C358.916 46.6274 359.47 45.9984 359.56 45.0136L361.461 44.5043C361.445 45.436 361.167 46.2506 360.625 46.9479C360.08 47.635 359.303 48.1138 358.293 48.3844C357.479 48.6025 356.71 48.6154 355.985 48.4232C355.257 48.2207 354.624 47.838 354.087 47.2753C353.557 46.6994 353.175 45.9736 352.94 45.0978ZM362.207 42.6148C361.972 41.739 361.942 40.9245 362.115 40.1712C362.297 39.4049 362.653 38.7572 363.185 38.2282C363.717 37.6992 364.39 37.3256 365.204 37.1075C366.234 36.8314 367.15 36.851 367.953 37.1661C368.762 37.4681 369.407 38.0407 369.887 38.8839L367.986 39.3933C367.718 39.0122 367.383 38.7488 366.979 38.6029C366.576 38.4571 366.116 38.4531 365.601 38.5912C364.88 38.7844 364.372 39.1966 364.077 39.8277C363.79 40.4458 363.77 41.2133 364.015 42.1303C364.261 43.0473 364.664 43.7067 365.224 44.1087C365.795 44.5079 366.441 44.6109 367.162 44.4176C368.182 44.1443 368.737 43.5153 368.827 42.5306L370.728 42.0212C370.712 42.953 370.434 43.7675 369.892 44.4649C369.347 45.1519 368.57 45.6308 367.56 45.9013C366.746 46.1194 365.977 46.1324 365.251 45.9401C364.524 45.7376 363.891 45.355 363.354 44.7922C362.824 44.2164 362.442 43.4906 362.207 42.6148ZM376.935 43.3893C376.131 43.6046 375.357 43.6189 374.611 43.4323C373.862 43.2353 373.214 42.8568 372.667 42.2967C372.116 41.7264 371.724 41.0034 371.489 40.1276C371.257 39.2621 371.242 38.4435 371.444 37.6716C371.646 36.8998 372.028 36.2452 372.591 35.7079C373.154 35.1706 373.842 34.7929 374.656 34.5748C375.47 34.3567 376.255 34.3396 377.011 34.5235C377.767 34.7074 378.425 35.0832 378.986 35.6508C379.547 36.2183 379.943 36.9348 380.175 37.8003C380.407 38.6658 380.417 39.4858 380.205 40.2604C379.993 41.035 379.596 41.6989 379.016 42.252C378.443 42.7921 377.749 43.1712 376.935 43.3893ZM376.525 41.8593C376.978 41.7378 377.372 41.5164 377.705 41.1951C378.049 40.8711 378.287 40.4596 378.418 39.9606C378.55 39.4616 378.532 38.903 378.367 38.2848C378.201 37.6666 377.943 37.1781 377.593 36.8191C377.24 36.4499 376.839 36.2095 376.389 36.0981C375.94 35.9866 375.488 35.9916 375.035 36.1131C374.582 36.2346 374.188 36.4559 373.855 36.7772C373.532 37.0957 373.315 37.5017 373.204 37.9952C373.09 38.4784 373.116 39.029 373.282 39.6472C373.528 40.5642 373.95 41.213 374.549 41.5936C375.155 41.9612 375.814 42.0497 376.525 41.8593ZM388.49 31.0171L390.771 39.5327L389.01 40.0048L388.74 39.0003C388.556 39.4251 388.265 39.8013 387.867 40.1288C387.476 40.4433 387.028 40.6682 386.524 40.8035C385.854 40.9829 385.214 41.0053 384.604 40.8707C384.004 40.7333 383.476 40.433 383.02 39.9697C382.575 39.5037 382.249 38.8843 382.042 38.1116L380.701 33.1042L382.447 32.6363L383.718 37.3809C383.923 38.1434 384.27 38.6796 384.762 38.9896C385.251 39.2892 385.825 39.3507 386.485 39.174C387.144 38.9974 387.61 38.657 387.884 38.1531C388.165 37.636 388.204 36.9963 387.999 36.2338L386.728 31.4892L388.49 31.0171ZM395.074 29.1039C395.743 28.9245 396.378 28.9035 396.978 29.0408C397.588 29.1755 398.116 29.4758 398.561 29.9418C399.006 30.4078 399.332 31.0272 399.539 31.7999L400.885 36.8227L399.139 37.2907L397.863 32.5306C397.659 31.7682 397.313 31.2371 396.824 30.9374C396.332 30.6274 395.757 30.5608 395.097 30.7375C394.438 30.9142 393.967 31.261 393.686 31.7781C393.413 32.282 393.378 32.9152 393.583 33.6777L394.858 38.4378L393.096 38.9099L390.814 30.3943L392.576 29.9222L392.837 30.8958C393.032 30.4682 393.324 30.0972 393.715 29.7827C394.116 29.4655 394.569 29.2392 395.074 29.1039ZM403.292 28.5915L404.555 33.3052C404.64 33.6246 404.774 33.8371 404.957 33.9427C405.148 34.0352 405.423 34.0332 405.784 33.9366L406.866 33.6467L407.259 35.1149L405.868 35.4876C405.075 35.7002 404.417 35.6776 403.895 35.4199C403.374 35.1621 403.001 34.616 402.777 33.7814L401.514 29.0677L400.51 29.3369L400.125 27.8996L401.129 27.6304L400.562 25.5131L402.339 25.0369L402.906 27.1542L404.977 26.5993L405.362 28.0366L403.292 28.5915Z" fill="#D7DCE3"/>
<defs>
<linearGradient id="paint0_linear" x1="360" y1="596.18" x2="360" y2="1161.2" gradientUnits="userSpaceOnUse">
<stop stop-color="#4164A9"/>
<stop offset="0.270833" stop-color="#4164A9" stop-opacity="0.729167"/>
<stop offset="0.479167" stop-color="#7792C8" stop-opacity="0.520833"/>
<stop offset="0.65625" stop-color="#A0B5DE" stop-opacity="0.34375"/>
<stop offset="0.838542" stop-color="#B4C6E8" stop-opacity="0.161458"/>
<stop offset="1" stop-color="#F4F6F9" stop-opacity="0"/>
</linearGradient>
<linearGradient id="paint1_linear" x1="536" y1="507" x2="536" y2="878" gradientUnits="userSpaceOnUse">
<stop stop-color="#0D1C39"/>
<stop offset="1" stop-color="#3D4C6A"/>
</linearGradient>
<linearGradient id="paint2_linear" x1="274.5" y1="433" x2="274.5" y2="713" gradientUnits="userSpaceOnUse">
<stop stop-color="#1B2C4F"/>
<stop offset="1" stop-color="#3C4B69"/>
</linearGradient>
<linearGradient id="paint3_linear" x1="42" y1="481" x2="42" y2="699" gradientUnits="userSpaceOnUse">
<stop stop-color="#22355C"/>
<stop offset="1" stop-color="#374259"/>
</linearGradient>
<linearGradient id="paint4_linear" x1="566.17" y1="705.974" x2="576.776" y2="959.656" gradientUnits="userSpaceOnUse">
<stop stop-color="#4164A9"/>
<stop offset="0.994792" stop-color="white"/>
</linearGradient>
<linearGradient id="paint5_linear" x1="56060.4" y1="30190.1" x2="26794.6" y2="30190.1" gradientUnits="userSpaceOnUse">
<stop stop-color="#192742"/>
<stop offset="1" stop-color="#354463"/>
</linearGradient>
<linearGradient id="paint6_linear" x1="40470.6" y1="-9044.06" x2="40311.4" y2="-9638.23" gradientUnits="userSpaceOnUse">
<stop stop-color="#C7D7F0"/>
<stop offset="1" stop-color="#EDFFFE"/>
</linearGradient>
<linearGradient id="paint7_linear" x1="32290.5" y1="-6856.62" x2="32131.3" y2="-7450.84" gradientUnits="userSpaceOnUse">
<stop stop-color="#C7D7F0"/>
<stop offset="1" stop-color="#EDFFFE"/>
</linearGradient>
<linearGradient id="paint8_linear" x1="15345.4" y1="2632.01" x2="14677.7" y2="140.097" gradientUnits="userSpaceOnUse">
<stop stop-color="#C7D7F0"/>
<stop offset="1" stop-color="#EDFFFE"/>
</linearGradient>
<linearGradient id="paint9_linear" x1="27838" y1="6187.8" x2="26467.8" y2="1074.13" gradientUnits="userSpaceOnUse">
<stop stop-color="#C7D7F0"/>
<stop offset="1" stop-color="#EDFFFE"/>
</linearGradient>
<linearGradient id="paint10_linear" x1="67570.8" y1="11576.5" x2="64563.2" y2="352.139" gradientUnits="userSpaceOnUse">
<stop stop-color="#C7D7F0"/>
<stop offset="1" stop-color="#EDFFFE"/>
</linearGradient>
<linearGradient id="paint11_linear" x1="47100.5" y1="-37946.1" x2="44639.6" y2="-39366.9" gradientUnits="userSpaceOnUse">
<stop stop-color="#C7D7F0"/>
<stop offset="1" stop-color="#EDFFFE"/>
</linearGradient>
<linearGradient id="paint12_linear" x1="25.6475" y1="-22.3733" x2="132.019" y2="224.612" gradientUnits="userSpaceOnUse">
<stop stop-color="#1F2E4B"/>
<stop offset="0.484375" stop-color="#1F2E4B"/>
<stop offset="1" stop-color="#263658"/>
</linearGradient>
</defs>
</svg>
