<svg width="720" height="648" viewBox="0 0 720 648" fill="none" xmlns="http://www.w3.org/2000/svg">
<mask id="mask0_9375_8808" style="mask-type:alpha" maskUnits="userSpaceOnUse" x="0" y="0" width="720" height="648">
<rect width="720" height="648" fill="url(#paint0_linear_9375_8808)"/>
</mask>
<g mask="url(#mask0_9375_8808)">
<rect x="404" y="409" width="264" height="239" fill="url(#paint1_linear_9375_8808)"/>
<rect x="190" y="320" width="169" height="328" fill="url(#paint2_linear_9375_8808)"/>
<rect y="430" width="84" height="218" fill="url(#paint3_linear_9375_8808)"/>
<rect x="565" y="667" width="54" height="138.315" rx="27" transform="rotate(-30 565 667)" fill="url(#paint4_linear_9375_8808)"/>
<g opacity="0.5">
<path opacity="0.95" d="M127.956 180H91.6499C89.6341 180 88 181.634 88 183.65V219.956C88 221.971 89.6341 223.605 91.6499 223.605H127.956C129.971 223.605 131.605 221.971 131.605 219.956V183.65C131.605 181.634 129.971 180 127.956 180Z" fill="url(#paint5_linear_9375_8808)"/>
<path d="M102.462 204.036H99.5V201.076H100.046V203.489H102.462V204.036Z" fill="#4BADCC"/>
<path d="M120.106 204.036H117.145V203.489H119.56V201.076H120.106V204.036Z" fill="#4BADCC"/>
<path d="M100.046 186.391H99.5V183.432H102.462V183.978H100.046V186.391Z" fill="#4BADCC"/>
<path d="M120.106 186.391H119.56V183.978H117.145V183.432H120.106V186.391Z" fill="#4BADCC"/>
<path d="M117.314 201.246H102.291V186.223H117.314V201.246ZM103.689 199.848H115.916V187.621H103.689V199.848Z" fill="#4BADCC"/>
<path d="M114.025 189.572H105.57V191.222H114.025V189.572Z" fill="#4BADCC"/>
<path d="M111.271 205.725H108.324V206.271H111.271V205.725Z" fill="#4BADCC"/>
<path d="M121.929 212.098H97.6777V213.592H121.929V212.098Z" fill="#3F8BC0"/>
<path d="M109.175 215.686H97.6777V217.18H109.175V215.686Z" fill="#3F8BC0"/>
</g>
<path opacity="0.5" d="M483.511 255.635C477.876 253.54 474.108 257.965 474.108 257.965C474.108 257.965 470.39 253.497 464.735 255.531C459.079 257.565 460.066 261.911 460.066 261.911C460.456 270.603 474.008 279.813 474.008 279.813C474.008 279.813 487.64 270.754 488.126 262.07C488.126 262.07 489.141 257.734 483.511 255.635Z" fill="#5BC4D6"/>
<g opacity="0.5">
<path d="M467.333 62.092L438.33 69.8633L438.95 72.1783L467.953 64.407L467.333 62.092Z" fill="url(#paint6_linear_9375_8808)"/>
<path d="M463.233 58.7682L440.217 64.9355L440.837 67.2506L463.854 61.0833L463.233 58.7682Z" fill="url(#paint7_linear_9375_8808)"/>
<path d="M448.103 28.7459C448.36 29.7062 448.326 30.7211 448.006 31.6622C447.686 32.6033 447.094 33.4283 446.305 34.0328C445.516 34.6374 444.565 34.9944 443.573 35.0586C442.581 35.1228 441.593 34.8914 440.732 34.3936C439.872 33.8958 439.178 33.154 438.739 32.2621C438.301 31.3701 438.136 30.3681 438.267 29.3827C438.398 28.3973 438.818 27.4728 439.474 26.7261C440.13 25.9795 440.993 25.4442 441.954 25.1881C443.241 24.8447 444.612 25.0266 445.765 25.6938C446.918 26.361 447.759 27.4588 448.103 28.7459Z" fill="url(#paint8_linear_9375_8808)"/>
<path d="M456.249 43.5387L458.722 52.7703C456.294 54.7605 453.469 56.2102 450.436 57.0228C447.403 57.8355 444.231 57.9925 441.133 57.4834L438.659 48.2518C438.034 45.9193 438.361 43.434 439.569 41.3427C440.776 39.2515 442.765 37.7255 445.097 37.1005C447.43 36.4755 449.915 36.8027 452.007 38.0101C454.098 39.2175 455.624 41.2062 456.249 43.5387Z" fill="url(#paint9_linear_9375_8808)"/>
<path d="M450.585 57.5883C447.469 58.4319 444.208 58.5932 441.024 58.0612C435.921 57.215 431.261 54.6468 427.821 50.784C424.381 46.9211 422.367 41.9966 422.115 36.83C421.863 31.6634 423.388 26.5663 426.436 22.387C429.484 18.2076 433.871 15.1981 438.868 13.8593C443.864 12.5205 449.169 12.9331 453.898 15.0285C458.627 17.1239 462.496 20.7757 464.861 25.3761C467.226 29.9766 467.945 35.2482 466.897 40.3137C465.849 45.3792 463.098 49.933 459.101 53.2173C456.61 55.2695 453.705 56.7604 450.585 57.5883ZM439.175 15.0047C434.434 16.2657 430.268 19.1145 427.374 23.0756C424.48 27.0367 423.031 31.8706 423.271 36.7706C423.51 41.6707 425.422 46.3405 428.689 50.0008C431.955 53.6611 436.378 56.0906 441.219 56.8838C444.235 57.3783 447.322 57.225 450.274 56.434C453.226 55.643 455.976 54.2324 458.341 52.2961C462.137 49.1887 464.752 44.8735 465.751 40.0707C466.75 35.2678 466.071 30.2677 463.829 25.9046C461.586 21.5415 457.916 18.0793 453.429 16.0957C448.942 14.112 443.911 13.727 439.175 15.0047Z" fill="url(#paint10_linear_9375_8808)"/>
</g>
<path opacity="0.5" d="M686.425 136.967L682.037 144.566L674.442 140.181L671.985 144.436L679.581 148.821L675.193 156.42L679.452 158.879L683.839 151.28L691.435 155.665L693.891 151.41L686.296 147.025L690.683 139.426L686.425 136.967Z" fill="url(#paint11_linear_9375_8808)"/>
<path d="M176.926 320.498L122.984 320.746L123.165 359.844L123.204 368.078L131.398 359.805L177.106 359.591L176.926 320.498Z" fill="#315B9F"/>
<path d="M154.173 341.719C154.176 342.534 153.937 343.333 153.487 344.013C153.036 344.692 152.394 345.223 151.642 345.538C150.89 345.853 150.061 345.938 149.26 345.782C148.46 345.626 147.724 345.235 147.145 344.661C146.566 344.086 146.171 343.352 146.01 342.553C145.848 341.754 145.927 340.924 146.237 340.17C146.546 339.415 147.073 338.77 147.75 338.315C148.427 337.86 149.223 337.616 150.039 337.613C150.58 337.611 151.116 337.716 151.617 337.921C152.117 338.126 152.573 338.428 152.957 338.809C153.341 339.19 153.646 339.644 153.854 340.143C154.063 340.642 154.171 341.178 154.173 341.719Z" fill="white"/>
<path d="M156.421 341.68C156.423 342.495 156.183 343.293 155.732 343.972C155.281 344.651 154.639 345.181 153.886 345.495C153.134 345.809 152.305 345.893 151.505 345.736C150.705 345.579 149.969 345.189 149.391 344.614C148.813 344.039 148.418 343.305 148.257 342.506C148.096 341.707 148.175 340.878 148.485 340.124C148.795 339.37 149.322 338.724 149.999 338.269C150.675 337.815 151.472 337.571 152.287 337.568C152.829 337.566 153.365 337.671 153.866 337.876C154.367 338.082 154.823 338.384 155.207 338.766C155.591 339.148 155.896 339.602 156.104 340.102C156.312 340.602 156.42 341.138 156.421 341.68Z" fill="white"/>
<path d="M140.952 341.764C140.954 342.579 140.714 343.377 140.263 344.056C139.812 344.735 139.17 345.265 138.417 345.579C137.665 345.893 136.836 345.977 136.036 345.82C135.236 345.663 134.501 345.273 133.922 344.698C133.344 344.123 132.95 343.389 132.788 342.59C132.627 341.791 132.707 340.962 133.017 340.208C133.326 339.454 133.853 338.808 134.53 338.353C135.206 337.899 136.003 337.655 136.818 337.652C137.36 337.65 137.896 337.755 138.397 337.96C138.899 338.166 139.354 338.468 139.738 338.85C140.122 339.232 140.427 339.686 140.635 340.186C140.844 340.686 140.951 341.222 140.952 341.764Z" fill="white"/>
<path d="M83.2377 338.003C83.2377 338.003 70.1599 337.563 65.9867 348.278C61.8135 358.993 64.966 367.215 66.1559 371.118C69.2632 381.314 69.5395 385.013 68.0169 391.166C66.6803 396.619 65.4566 399.439 63.917 404.537C62.3774 409.635 64.9434 409.048 65.1634 409.437C65.3833 409.827 115.202 420.547 115.202 420.547C115.202 420.547 113.617 407.791 110.324 402.772C107.905 399.083 104.278 397.831 107.008 386.902C109.737 375.973 111.474 370.903 109.94 362.98C108.17 353.793 107.053 348.058 98.419 342.035C93.9808 338.968 88.6129 337.542 83.2377 338.003Z" fill="#3B3B40"/>
<path d="M68.5198 474.623C68.0643 482.733 66.2158 490.703 63.0552 498.185C63.0552 498.185 52.3402 502.6 47.2083 495.929C45.1725 493.29 43.4018 484.43 42.6517 473.123C41.5238 455.72 46.5993 430.827 53.1354 415.686C53.1354 415.663 70.33 442.14 68.5198 474.623Z" fill="#323657"/>
<path d="M68.5204 474.623C68.065 482.732 66.2164 490.703 63.0558 498.185C63.0558 498.185 52.3409 502.6 47.209 495.929C45.1731 493.29 43.4024 484.43 42.6523 473.123L68.5204 474.623Z" fill="#323657"/>
<path d="M150.1 403.922C150.1 403.922 152.091 399.072 152.824 397.967C153.557 396.861 151.267 394.459 149.829 397.341C148.391 400.222 147.506 402.066 147.506 402.066L150.1 403.922Z" fill="#EEA886"/>
<path d="M159.37 408.485L166.138 387.619C166.243 387.294 166.278 386.951 166.241 386.611C166.204 386.272 166.095 385.944 165.921 385.65C165.748 385.356 165.515 385.102 165.236 384.905C164.957 384.707 164.64 384.572 164.305 384.506L154.154 382.51C153.542 382.387 152.906 382.507 152.38 382.844C151.855 383.18 151.48 383.707 151.334 384.314L146.208 405.744C146.131 406.066 146.122 406.401 146.18 406.726C146.238 407.052 146.362 407.363 146.545 407.639C146.728 407.915 146.966 408.15 147.243 408.331C147.521 408.511 147.833 408.633 148.159 408.688L156.686 410.131C157.256 410.223 157.84 410.107 158.333 409.805C158.825 409.503 159.193 409.034 159.37 408.485Z" fill="#525252"/>
<path d="M162.123 407.086C162.123 407.086 162.98 405.276 160.014 402.248C156.066 398.221 150.562 393.574 149.254 393.788C147.376 394.076 147.742 395.565 150.382 397.663C153.021 399.761 153.912 400.443 153.912 400.443C153.912 400.443 148.222 397.719 146.637 397.939C145.052 398.159 144.381 399.766 145.255 400.386C146.249 400.994 147.281 401.535 148.346 402.005C148.346 402.005 145.808 401.182 145.188 402.095C144.731 402.772 144.252 403.787 146.457 405.112C146.457 405.112 144.201 406.302 146.186 408.332C148.171 410.363 148.442 411.586 148.126 414.231C147.81 416.876 149.496 421.032 149.496 421.032L157.177 420.175C157.177 420.175 158.587 413.278 159.591 411.671C160.595 410.064 162.123 407.086 162.123 407.086Z" fill="#EEA886"/>
<path d="M113.691 450.966C117.21 456.233 121.811 461.805 125.533 461.754C127.924 461.721 158.045 422.961 158.033 421.015C158.033 418.816 146.946 415.787 146.946 415.787C146.946 415.787 141.662 424.946 136.795 428.809C131.929 432.672 126.03 440.911 124.812 441.78C123.593 442.648 119.172 433.163 119.172 433.163C117.717 428.6 115.918 420.525 111.677 413.041C107.436 405.558 97.9171 402.326 97.9171 402.326C79.369 410.65 108.254 441.83 108.254 441.83C108.254 441.83 112.016 448.558 113.691 450.966Z" fill="#EDDAD3"/>
<path d="M93.582 394.785C93.582 394.785 108.154 405.286 113.01 430.314C113.01 430.314 99.3342 403.521 94.8734 398.733C94.8734 398.778 92.9898 396.979 93.582 394.785Z" fill="#EDDAD3"/>
<path d="M116.275 436.783C116.275 436.783 116.083 494.909 116.275 508.314C116.467 521.719 99.2891 476.101 99.2891 476.101C99.2891 476.101 108.447 447.633 116.275 436.783Z" fill="#EDDAD3"/>
<path d="M39.877 576.392C39.877 576.392 81.479 571.881 106.913 586.453C132.347 601.025 83.137 543.227 83.137 543.227C83.137 543.227 40.4465 560.032 39.877 576.392Z" fill="#C2B2AD"/>
<path d="M87.0733 544.755C87.5752 547.174 90.7897 557.319 94.4046 568.587L97.5401 578.4C99.7958 585.511 101.961 592.318 103.439 597.218C104.245 599.886 104.849 601.989 105.131 603.275C107.206 611.734 104.877 625.021 104.121 636.125C103.366 647.229 115.344 701.835 115.344 701.835C118.163 703.149 130.689 699.664 130.689 699.664C128.619 695.717 125.839 627.722 126.967 623.397C128.095 619.071 128.845 607.042 127.717 602.322C127.463 601.079 127.34 599.812 127.35 598.544C127.254 592.605 128.478 582.793 129.222 572.038C130.164 558.504 124.897 524.808 124.147 521.797C124.074 521.52 123.966 521.131 123.826 520.669C122.438 515.943 117.977 502.532 117.977 502.532C108.954 499.842 102.108 499.352 97.0213 500.389C90.2878 501.766 86.5827 505.803 84.7273 510.935C80.306 523.167 86.4248 541.608 87.0733 544.755Z" fill="#292C47"/>
<path d="M35.6367 681.161L47.9983 686.412C49.5491 678.889 84.0906 626.606 86.3464 620.775C88.6022 614.943 91.0384 603.648 91.0384 599.508C91.0384 598.77 91.0891 597.523 91.1963 595.905C91.5967 589.628 92.7472 577.796 94.3939 568.587C94.6984 566.895 95.0255 565.243 95.3638 563.76C97.191 555.814 97.5069 528.677 97.5238 512.712C97.5238 505.612 97.4899 500.722 97.4899 500.722L97.0332 500.373C93.6044 497.779 71.5936 481.949 63.9184 496.747C61.9216 500.677 60.5226 504.883 59.7678 509.227C57.3033 522.637 55.4706 539.804 57.4613 553.569C59.1531 565.339 62.8413 578.659 65.3565 590.79C66.7269 597.41 67.9337 604.561 66.3997 607.229C62.0687 614.757 57.8391 621.13 49.0867 647.686C46.2163 656.32 35.6367 681.161 35.6367 681.161Z" fill="#292C47"/>
<path d="M67.4196 473.534C65.4119 481.565 55.1989 521.661 55.4526 524.046C55.5429 524.943 66.7315 526.815 77.0404 528.626C94.1673 531.637 116.274 525.242 123.848 520.651C123.69 520.087 113.567 482.303 112.823 477.927C112.078 473.551 113.736 457.061 114.108 452.437C114.249 450.711 114.988 448.253 115.851 445.602C117.306 441.119 119.127 436.083 119.026 433.156C118.927 430.945 118.41 428.773 117.503 426.755C116.303 424.148 114.892 421.644 113.285 419.266C112.276 417.698 111.215 416.096 110.155 414.546C106.704 409.47 103.258 404.885 101.566 403.301C100.488 402.293 99.3317 401.371 98.1093 400.543C97.1048 399.856 96.0335 399.272 94.9118 398.8C94.6805 398.705 94.5565 398.665 94.5565 398.665L79.6289 396.285C79.6289 396.285 78.0329 396.849 75.7885 397.622C73.0308 398.564 69.2919 399.782 66.303 400.566C65.8462 400.684 65.4006 400.797 64.9833 400.893C64.9833 400.893 62.4343 401.846 59.7387 404.88C57.1727 407.773 54.4602 412.521 54.3812 422.159C54.3135 430.657 64.081 450.971 65.5867 457.242C67.0925 463.513 69.4272 465.509 67.4196 473.534Z" fill="#5BC4D6"/>
<path d="M98.0645 400.521L106.715 414.158L114.701 426.745C114.701 426.677 114.137 424.771 113.251 419.25C113.077 418.201 112.891 416.994 112.688 415.703C112.629 415.322 112.546 414.945 112.439 414.575C109.022 406.68 98.4536 400.758 98.0701 400.561L98.0645 400.521Z" fill="#EDDAD3"/>
<path d="M76.3307 397.871C76.3307 397.871 76.7537 380.192 75.248 377.349C73.7423 374.507 93.4802 389.192 93.4802 389.192C93.4802 389.192 93.4069 389.886 93.3787 390.382C93.3787 390.478 93.3787 390.563 93.3787 390.636C93.3266 391.743 93.3701 392.852 93.5084 393.952C93.5084 394.127 93.5423 394.319 93.5648 394.516C93.7957 396.883 94.419 399.194 95.4089 401.357C97.5688 405.919 76.3307 397.871 76.3307 397.871Z" fill="#EEA886"/>
<path d="M112.422 414.451C112.422 414.451 112.885 415.404 113.263 419.25L110.133 414.53C110.133 414.53 104.544 406.516 102.627 404.435C101.25 402.993 99.7396 401.684 98.1152 400.527C98.1152 400.527 109.078 405.806 112.422 414.451Z" fill="#EDDAD3"/>
<path d="M94.5167 398.642C94.5167 398.642 104.527 414.032 101.137 415.38C97.7481 416.728 79.4087 413.587 71.6094 398.964C71.6094 398.964 83.2717 392.986 94.5167 398.642Z" fill="#EEA886"/>
<path d="M114.07 452.68C114.07 452.471 114.11 452.353 114.11 452.33C114.108 452.362 114.108 452.394 114.11 452.426C114.082 452.488 114.076 452.573 114.07 452.68Z" fill="#2F4563"/>
<path d="M70.8381 425.549C70.8381 425.549 58.0817 421.037 54.1172 420.705C54.1172 420.705 57.0892 397.995 70.2572 400.279C83.4253 402.563 70.8381 425.549 70.8381 425.549Z" fill="#EDDAD3"/>
<path d="M93.7337 395.868C93.7337 395.868 92.9611 398.784 76.3812 393.697L75.5973 397.459C75.5973 397.459 73.4092 397.786 67.4258 400.228C67.4258 400.228 97.3147 428.425 101.826 416.904C106.338 405.382 94.8615 398.778 94.8615 398.778L93.7337 395.868Z" fill="#5BC4D6"/>
<path d="M94.873 398.779L117.482 426.74C116.281 424.133 114.87 421.628 113.263 419.25C112.254 417.683 111.194 416.081 110.133 414.53C106.682 409.455 103.236 404.87 101.545 403.285C100.466 402.277 99.31 401.355 98.0876 400.528C97.0831 399.841 96.0117 399.257 94.89 398.785L94.873 398.779Z" fill="#CAEDF3"/>
<path d="M114.108 452.331C115.563 447.819 119.477 437.522 119.183 433.157C118.988 430.942 118.416 428.778 117.491 426.756C116.296 424.068 114.885 421.48 113.273 419.019C112.264 417.445 110.453 414.795 109.382 413.244C105.931 408.169 103.241 404.836 101.549 403.251C100.469 402.224 99.3111 401.281 98.0863 400.431C97.0866 399.771 96.0135 399.23 94.8887 398.818C94.8887 398.818 118.693 420.276 114.108 452.331Z" fill="#EDDAD3"/>
<path d="M62.8301 494.305C62.8301 494.305 64.4599 496.825 65.475 497.322C66.4901 497.818 67.6349 500.187 67.6349 500.187L61.1777 504.929C61.1777 504.929 58.8205 499.346 55.8598 497.598C52.8991 495.85 62.8301 494.305 62.8301 494.305Z" fill="#EEA886"/>
<path d="M53.0504 413.706C53.0504 413.706 58.3346 398.525 69.2976 403.273C79.8264 407.836 65.6263 426.361 64.3575 428.651C63.0886 430.94 51.1838 449.19 49.9826 451.654C46.1872 459.436 47.4618 463.299 48.7476 467.033C53.0786 479.552 61.5265 491.282 63.5849 493.279C65.6433 495.275 57.2349 502.555 53.9132 500.277C49.4919 497.243 41.5742 481.47 39.3974 477.883C36.7355 473.49 30.0134 465.583 34.773 451.846C37.9819 442.58 53.0504 413.706 53.0504 413.706Z" fill="#EDDAD3"/>
<path d="M69.3029 495.545L55.4355 506.677C55.4355 506.677 66.314 523.032 71.5304 516.157C76.7469 509.283 69.3029 495.545 69.3029 495.545Z" fill="#DBCAC3"/>
<path d="M98.2062 432.672C95.9166 408.23 76.3817 393.455 76.3817 393.455L75.6259 397.087C55.527 402.766 55.0477 407.238 54.1172 420.699C53.7562 425.87 55.2056 432.762 57.0666 440.183C57.828 443.195 58.6513 446.291 59.4577 449.393C61.8319 458.574 63.9692 467.811 63.5745 475.041C62.6496 490.741 20.7148 559.824 20.7148 559.824C20.7148 574.424 57.0723 595.352 57.0723 595.352C55.3523 576.077 101.449 452.06 98.2062 432.672Z" fill="#EDDAD3"/>
<path d="M59.4577 449.398C65.7175 442.067 69.4057 420.547 69.4057 420.547C65.678 431.042 57.0723 440.183 57.0723 440.183C57.8279 443.2 58.6513 446.297 59.4577 449.398Z" fill="#C2B2AC"/>
<path d="M94.3828 568.588L97.5184 578.4C102.554 558.956 103.423 537.283 103.423 537.283C101.895 549.368 94.3828 568.588 94.3828 568.588Z" fill="#151624"/>
<path d="M93.4285 344.859C93.4285 344.859 107.854 354.277 103.168 377.038C98.4814 399.799 81.4503 387.285 79.6006 385.993C77.7509 384.702 72.0325 370.457 71.8069 364.242C71.5982 358.394 68.5473 334.934 93.4285 344.859Z" fill="#EEA987"/>
<path d="M92.4255 349.429C90.9197 348.989 85.8442 358.801 83.1091 361.221C80.374 363.64 75.3493 369.719 74.8586 376.379C74.368 383.04 68.7511 361.824 70.6911 353.957C72.6311 346.09 75.2027 334.541 92.809 343.699C110.415 352.857 105.842 369.217 105.842 369.217C105.842 369.217 100.039 351.673 92.4255 349.429Z" fill="#3B3B40"/>
<path d="M80.2623 365.163C79.7942 362.473 73.8502 360.194 73.9405 364.238C74.0307 368.281 77.3241 372.956 79.1682 372.663C81.0123 372.37 80.6909 367.627 80.2623 365.163Z" fill="#EEA987"/>
<path d="M93.4971 393.963H93.4632C83.0247 393.839 79.6016 385.994 79.6016 385.994C86.8313 391.453 92.623 390.545 93.3786 390.393C93.3786 390.489 93.3786 390.573 93.3786 390.647C93.3228 391.753 93.3625 392.863 93.4971 393.963Z" fill="#A87860"/>
<path d="M466.826 401.852C466.826 401.852 463.866 397.34 463.381 394.723C463.117 393.191 462.436 391.76 461.413 390.59C461.413 390.59 450.184 388.954 445.876 384.95C441.567 380.946 432.42 370.04 428.106 373.31C423.792 376.581 431.236 390.33 435.64 394.486C440.045 398.643 446 405.923 451.431 405.382C456.862 404.84 464.204 402.275 466.826 401.852Z" fill="#2C3566"/>
<path d="M466.828 401.164L461.414 390.59C461.414 390.59 487.327 385.842 494.907 381.274C496.807 380.146 498.696 378.984 500.456 377.89C504.46 375.42 507.787 373.283 508.949 372.285C512.693 369.104 527.694 358.479 531.749 354.571C535.804 350.663 540.58 353.049 546.902 353.116C553.224 353.184 576.103 359.517 582.944 360.448C589.784 361.378 614.524 365.946 614.524 365.946C610.16 377.823 466.828 401.164 466.828 401.164Z" fill="#25354D"/>
<path d="M615.951 365.545C615.951 365.545 602.005 367.558 598.424 367.801C594.753 368.083 573.982 369.752 563.967 370.716C553.951 371.681 534.281 371.1 530.379 372.814C526.476 374.528 503.918 382.176 496.542 384.561C489.166 386.947 441.185 395.727 441.185 395.727C441.185 395.727 440.362 402.229 444.614 407.215C444.614 407.215 465.756 405.331 476.917 406.972C488.077 408.613 507.567 406.109 519.399 400.769C531.23 395.428 549.981 400.295 560.459 403.978C570.937 407.66 611.005 410.621 616.007 409.499C621.01 408.376 630.98 403.56 638.204 395.705C645.428 387.849 615.951 365.545 615.951 365.545Z" fill="#323B6E"/>
<path d="M444.6 407.242C444.6 407.242 442.807 402.167 442.976 399.499C443.145 396.832 442.328 395.552 442.328 395.552C442.328 395.552 431.573 390.713 428.359 385.784C425.144 380.855 418.913 368.065 413.933 370.191C408.954 372.317 412.85 387.465 416.121 392.563C419.392 397.661 421.405 411.224 426.791 412.008C432.177 412.792 441.955 407.022 444.6 407.242Z" fill="#323B6E"/>
<path d="M647.304 356.619C647.304 356.619 664.933 396.62 637.571 406.319C615.746 414.057 575.537 406.934 575.537 406.934L600.289 367.932L647.304 356.619Z" fill="#323B6E"/>
<path d="M601.936 205.674C608.647 207.168 604.649 224.019 609.143 247.575C613.638 271.131 627.844 274.819 627.844 274.819C627.844 274.819 621.539 264.375 622.204 253.451C622.768 244.913 633.083 221.628 622.864 206.407C614.969 194.649 601.051 205.324 601.051 205.324L601.936 205.674Z" fill="#323657"/>
<path d="M612.036 254.725L598.987 268.164C598.863 265.694 597.955 262.693 597.03 260.195C596.573 258.971 596.105 257.86 595.733 257.003C595.237 255.875 594.893 255.176 594.893 255.176L606.532 242.865L612.036 254.725Z" fill="#EEA886"/>
<path d="M596.5 266.839C596.015 271.205 594.646 275.426 592.479 279.246C588.96 285.201 583.146 295.093 583.97 301.522C584.793 307.951 587.528 310.291 590.004 312.603C592.479 314.915 599.258 331.631 600.081 338.065C600.905 344.5 601.423 357.854 599.861 367.683C599.861 367.683 645.625 372.99 650.227 364.993C650.227 364.993 644.548 339.283 641.869 332.849C639.191 326.414 633.585 287.857 631.155 281.304C628.724 274.751 623.079 268.413 619.611 263.867C616.509 259.807 610.864 252.25 610.864 252.25L596.5 266.839Z" fill="#CAEDF3"/>
<path d="M590.781 207.043C584.741 207.443 571.765 212.005 571.551 228.157C572.155 230.713 572.96 233.217 573.959 235.646C575.391 238.9 573.519 249.181 574.365 249.587C575.211 249.993 578.538 250.235 578.538 250.235C578.538 250.235 583.298 260.691 587.099 260.16C590.9 259.63 604.987 254.978 610.22 240.682C615.454 226.386 615.166 205.413 590.781 207.043Z" fill="#EEA886"/>
<path d="M571.552 228.159C571.552 228.159 582.069 233.68 591.904 233.905C601.739 234.131 609.793 249.893 609.793 249.893C609.793 249.893 621.697 223.185 608.061 209.633C594.425 196.082 567.305 209.864 571.552 228.159Z" fill="#323657"/>
<path d="M594.2 233.809C594.036 231.931 595.796 228.88 599.163 231.085C602.529 233.29 599.428 242.674 596.811 242.093C594.194 241.513 594.369 235.755 594.2 233.809Z" fill="#EEA886"/>
<path d="M605.048 249.553C604.868 249.857 600.074 257.702 597.012 260.211C596.555 258.988 596.087 257.877 595.715 257.019C595.732 256.997 602.572 252.936 605.048 249.553Z" fill="#A77860"/>
<path d="M507.604 380.749L571.559 368.676L570.508 363.112L506.553 375.185L507.604 380.749Z" fill="#C4C4C4"/>
<path d="M470.719 327.111L507.527 380.787L512.197 377.585L475.389 323.908L470.719 327.111Z" fill="#C4C4C4"/>
<path d="M519.825 372.707C519.504 371.286 519.825 368.912 524.297 366.504C528.77 364.096 538.441 358.654 541.842 358.524C545.242 358.394 551.936 358.93 553.307 358.925C554.677 358.919 551.158 367.012 551.158 367.012L519.825 372.707Z" fill="#EEA886"/>
<path d="M551.739 359.551C551.739 359.551 570.394 352.219 573.428 350.748C576.462 349.276 590.583 344.544 591.841 343.907C593.098 343.27 598.997 308.006 599.522 299.124C600.046 290.242 600.565 271.44 610.592 272.275C620.619 273.11 623.027 279.691 621.775 292.65C620.523 305.61 613.101 351.988 609.966 353.556C606.83 355.124 570.856 363.143 551.88 366.95C533.732 370.576 551.739 359.551 551.739 359.551Z" fill="#EEA886"/>
<path d="M598.496 301.888C598.496 301.888 612.95 304.584 621.28 305.419C621.28 305.419 631.651 275.885 617.535 271.165C600.803 265.57 597.064 288.466 598.496 301.888Z" fill="#AEDDE6"/>
<path d="M325.248 86.665C325.248 86.665 321.644 80.3827 321.125 79.4071C320.607 78.4314 320.917 75.3523 321.588 71.8559C322.259 68.3594 324.723 63.9607 325.293 63.6956C325.666 63.4462 326.088 63.2803 326.531 63.2092C326.974 63.1382 327.427 63.1637 327.859 63.284C328.857 63.5329 329.774 64.0361 330.521 64.7445C330.521 64.7445 332.613 64.2596 333.904 65.754C334.527 65.6743 335.16 65.7807 335.723 66.0596C336.286 66.3386 336.754 66.7777 337.068 67.3218C337.068 67.3218 339.019 67.0173 339.752 68.4948C339.752 68.4948 339.437 71.5795 339.651 72.7525C339.865 73.9255 338.083 81.8546 336.104 87.7985C336.087 87.7985 333.013 91.216 325.248 86.665Z" fill="#EEA886"/>
<path d="M328.311 76.8396C328.311 76.8396 331.209 79.039 331.694 80.0653C332.179 81.0917 338.862 76.3151 338.862 76.3151C338.862 76.3151 331.074 73.3826 328.311 76.8396Z" fill="#CF8C6C"/>
<path d="M325.079 64.5802C325.079 64.5802 323.602 73.4906 325.006 73.9022C325.364 74.0398 325.75 74.086 326.13 74.0368C326.51 73.9876 326.872 73.8444 327.183 73.6203L328.237 77.5679C328.237 77.5679 330.409 79.7841 332.185 76.7727C332.185 76.7727 334.001 79.0285 335.371 75.9381C335.371 75.9381 337.238 76.908 338.129 75.5771C339.02 74.2462 339.736 68.4771 339.736 68.4771C339.736 68.4771 339.488 66.9996 337.204 67.1123C336.895 66.5695 336.43 66.1329 335.868 65.8601C335.306 65.5873 334.675 65.4911 334.057 65.5841C333.634 65.1297 333.098 64.7957 332.503 64.6164C331.909 64.4371 331.277 64.4187 330.674 64.5633C330.674 64.5633 327.95 61.7436 325.311 63.678C325.294 63.6949 325.141 64.2306 325.079 64.5802Z" fill="#DB9C7C"/>
<path d="M321.139 79.1183C321.139 79.1183 324.832 74.1443 328.041 72.3115C328.763 71.8942 329.547 71.6235 330.201 72.1423C330.855 72.6611 330.946 74.2741 329.457 76.5073C327.968 78.7405 327.071 82.3215 327.071 82.3215C327.071 82.3215 324.866 84.1712 321.139 79.1183Z" fill="#EEA886"/>
<path d="M189.424 90.9219C189.424 90.9219 191.494 83.9797 191.776 82.9082C192.058 81.8367 191.048 78.9211 189.593 75.6672C188.138 72.4132 184.721 68.6743 184.117 68.5728C183.696 68.4149 183.245 68.3503 182.796 68.3834C182.348 68.4165 181.911 68.5465 181.518 68.7645C180.603 69.2357 179.826 69.9351 179.262 70.7947C179.262 70.7947 177.113 70.7947 176.211 72.5542C175.585 72.6169 174.993 72.8652 174.51 73.2671C174.026 73.6691 173.674 74.2064 173.498 74.81C173.498 74.81 171.53 74.9623 171.152 76.5639C171.152 76.5639 172.162 79.4907 172.224 80.6863C172.286 81.8818 175.839 89.1849 179.132 94.5142C179.11 94.5085 182.882 97.1309 189.424 90.9219Z" fill="#EEA886"/>
<path d="M184.162 82.0625C184.162 82.0625 181.845 84.8822 181.591 86.0101C181.337 87.138 173.752 84.0081 173.752 84.0081C173.752 84.0081 180.683 79.333 184.162 82.0625Z" fill="#CF8C6C"/>
<path d="M184.5 69.4144C184.5 69.4144 187.985 77.7438 186.711 78.4713C186.394 78.6872 186.029 78.8204 185.647 78.8588C185.266 78.8972 184.881 78.8396 184.528 78.6912L184.41 82.7742C184.41 82.7742 182.803 85.4247 180.378 82.9039C180.378 82.9039 179.137 85.5375 177.09 82.8193C177.09 82.8193 175.494 84.1953 174.321 83.1013C173.148 82.0072 171.129 76.5595 171.129 76.5595C171.129 76.5595 171.073 75.1045 173.323 74.6929C173.323 74.6929 173.887 72.5217 176.075 72.3751C176.075 72.3751 176.859 70.8242 179.205 70.6832C179.205 70.6832 181.077 67.2996 184.088 68.5741C184.088 68.5741 184.348 69.0591 184.5 69.4144Z" fill="#DB9C7C"/>
<path d="M191.679 82.626C191.679 82.626 186.942 78.6277 183.4 77.5788C182.6 77.3419 181.776 77.2573 181.257 77.9115C180.739 78.5657 181.021 80.1673 182.983 81.9944C184.946 83.8216 186.643 87.0981 186.643 87.0981C186.643 87.0981 189.198 88.4065 191.679 82.626Z" fill="#EEA886"/>
<path d="M275.142 160.276C275.142 160.276 254.981 174.076 255.968 165.645C256.955 157.214 254.795 148.473 254.795 148.473C254.795 148.473 274.809 139.782 273.901 146.048C273.698 147.542 273.628 149.052 273.693 150.559C273.761 152.244 273.926 153.924 274.189 155.589C274.578 158.325 275.142 160.276 275.142 160.276Z" fill="#EEA886"/>
<path d="M173.752 96.071L190.439 90.5895C190.439 90.5895 201.413 113.187 203.252 118.646C204.994 123.828 212.331 137.679 213.837 140.403C215.704 143.786 233.677 169.66 237.083 169.66C239.203 169.66 245.147 167.483 249.946 165.549C252.851 164.376 255.338 163.293 256.319 162.847C258.924 161.646 273.124 157.811 278.064 158.336C278.064 158.336 279.237 158.494 281.025 158.669C285.108 159.069 292.383 159.543 296.105 158.336C301.446 156.599 304.254 152.324 307.457 148.85C310.66 145.376 321.223 133.173 322.024 130.635C322.825 128.097 323.389 105.551 323.716 99.1896C323.961 94.4368 323.961 89.6746 323.716 84.9218C323.58 84.121 342.145 84.0816 341.88 86.3542C341.615 88.6269 341.762 107.113 340.921 116.097C340.171 124.059 338.897 132.417 337.425 136.021C335.953 139.624 320.326 163.146 318.454 167.421C316.582 171.696 308.952 182.647 308.303 184.255C307.655 185.862 305.483 203.739 303.47 208.95C301.457 214.161 303.369 249.723 304.169 255.469C304.772 259.294 305.822 263.034 307.299 266.613C307.299 266.613 275.544 273.504 244.138 275.907C244.138 275.907 246.185 260.849 245.784 255.103C245.384 249.356 238.453 213.371 235.481 207.771C232.509 202.171 205.553 162.611 204.464 161.009C203.376 159.407 194.652 148.636 192.74 144.531C192.723 144.519 174.378 99.2798 173.752 96.071Z" fill="#323657"/>
<path d="M274.167 155.589C262.042 157.845 257.52 150.779 257.52 150.779C265.415 156.102 273.665 150.615 273.755 150.559C273.797 152.242 273.935 153.921 274.167 155.589Z" fill="#A77860"/>
<path d="M377.341 273.724C376.862 277.107 356.611 291.279 352.623 294.116C349.42 296.372 346.64 297.432 341.796 299.248C330.799 302.141 261.806 322.73 261.806 322.73C261.67 322.004 261.441 321.299 261.124 320.632C258.547 321.659 255.896 322.324 254.215 322.849C251.644 323.649 231.257 324.292 227.084 325.104C222.911 325.916 214.559 327.191 211.192 323.977C207.825 320.762 213.279 313.865 217.96 312.1C222.64 310.335 239.632 309.844 242.683 309.528C245.734 309.213 249.749 308.085 251.672 308.728C252.281 308.931 254.971 308.164 258.372 306.968C258.287 305.716 258.265 304.927 258.265 304.927L276.378 299.704L272.995 267.633C272.995 267.633 280.89 237.93 312.364 260.589C312.364 260.589 319.39 262.653 321.798 263.296C322.066 263.337 322.338 263.337 322.605 263.296C327.41 262.935 348.05 256.693 355.511 256.693C363.536 256.693 366.107 256.208 368.995 257.657C371.882 259.106 377.826 270.351 377.341 273.724Z" fill="#5C638B"/>
<path d="M345.071 323.994C341.687 327.208 333.352 325.923 329.179 325.122C325.005 324.321 304.619 323.673 302.047 322.866C299.476 322.06 294.665 320.937 291.293 318.693C290.718 318.376 290.116 318.112 289.494 317.903L284.419 321.58L213.531 299.023C209.284 297.861 205.912 296.084 203.668 294.139C199.979 290.924 179.418 277.119 178.95 273.747C178.482 270.374 184.403 259.141 187.296 257.697C190.189 256.253 192.755 256.733 200.78 256.733C208.805 256.733 232.085 263.957 234.493 263.314C235.587 263.021 237.876 261.864 240.002 260.691C242.574 259.287 244.982 257.872 244.982 257.872C279.456 242.482 283.296 267.667 283.296 267.667L281.255 298.758C281.255 298.758 284.131 300.184 287.864 301.955L304.952 306.788L302.696 308.401C303.304 308.663 303.963 308.786 304.625 308.762C306.548 308.119 310.563 309.241 313.614 309.563C316.665 309.884 333.679 310.369 338.337 312.134C342.995 313.899 348.454 320.763 345.071 323.994Z" fill="#5C638B"/>
<path d="M239.986 260.67C242.366 260.839 258.427 270.144 262.239 272.372C256.448 269.343 234.477 263.292 234.477 263.292C235.571 262.999 237.838 261.843 239.986 260.67Z" fill="#474747"/>
<path d="M322.604 263.315C322.604 263.315 294.926 270.031 289.861 272.84C290.093 272.676 304.451 261.769 311.985 260.314C311.985 260.314 319.389 262.649 321.797 263.292C322.065 263.333 322.337 263.333 322.604 263.292V263.315Z" fill="#474747"/>
<path d="M345.071 323.994C341.687 327.209 333.352 325.923 329.179 325.122C325.006 324.322 304.619 323.673 302.048 322.867C301.309 322.635 300.39 322.382 299.363 322.077C296.831 321.327 293.724 320.295 291.293 318.693C290.719 318.376 290.116 318.112 289.494 317.904L302.318 308.644L302.69 308.379C303.299 308.641 303.957 308.764 304.619 308.74C306.542 308.097 310.557 309.219 313.608 309.541C316.659 309.862 333.673 310.347 338.332 312.112C342.99 313.877 348.454 320.763 345.071 323.994Z" fill="#292929"/>
<path d="M345.071 323.995C341.687 327.209 333.352 325.923 329.179 325.123C325.006 324.322 304.619 323.673 302.048 322.867C301.309 322.636 300.39 322.382 299.363 322.077C299.363 322.077 305.003 316.528 302.324 308.65L302.696 308.385C303.304 308.646 303.963 308.77 304.625 308.746C306.548 308.103 310.563 309.225 313.614 309.547C316.665 309.868 333.679 310.353 338.337 312.118C342.996 313.883 348.455 320.763 345.071 323.995Z" fill="#292929"/>
<path d="M247.025 267.758C247.059 267.842 247.025 267.904 246.996 267.95C246.681 268.164 246.731 268.085 247.025 267.758Z" fill="#E55353"/>
<path d="M255.45 290.614C255.45 290.614 233.034 277.175 223.238 275.066C213.984 273.064 210.611 269.607 210.611 269.607C210.611 269.607 225.325 269.607 235.12 276.561C241.769 281.287 255.45 290.614 255.45 290.614Z" fill="#292929"/>
<path d="M275.375 299.981C275.375 299.981 314.372 279.505 330.292 275.066C339.411 272.517 342.918 269.607 342.918 269.607C342.918 269.607 318.81 271.959 304.147 280.79C297.138 284.997 275.375 299.981 275.375 299.981Z" fill="#292929"/>
<path d="M261.124 320.61C258.547 321.636 255.896 322.301 254.215 322.826C251.644 323.627 231.257 324.27 227.084 325.082C222.911 325.894 214.559 327.168 211.192 323.954C207.825 320.739 213.279 313.842 217.96 312.077C222.64 310.312 239.632 309.821 242.683 309.506C245.734 309.19 249.749 308.062 251.672 308.705C252.281 308.908 254.971 308.141 258.372 306.945C258.445 308.998 261.124 320.61 261.124 320.61Z" fill="#292929"/>
<path d="M275.375 318.694L313.723 307.347L306.138 305.029C306.138 305.029 275.493 316.139 275.375 318.694Z" fill="#474747"/>
<path d="M275.369 318.693L293.314 313.217L280.873 320.441L275.369 318.693Z" fill="#292929"/>
<path d="M263.045 272.839L262.238 272.371C262.517 272.51 262.786 272.666 263.045 272.839Z" fill="#525252"/>
<path d="M254.215 322.867C251.644 323.667 231.257 324.31 227.084 325.122C222.911 325.935 214.559 327.209 211.192 323.995C207.825 320.78 213.279 313.883 217.96 312.118C222.64 310.353 239.632 309.862 242.683 309.546C245.734 309.231 249.749 308.103 251.672 308.746C251.644 308.723 246.501 316.59 254.215 322.867Z" fill="#292929"/>
<path d="M241.537 269.608L235.633 236.019L312.013 234.254L307.096 267.324C307.096 267.324 282.716 276.245 274.438 281.422C274.438 281.433 253.527 272.839 241.537 269.608Z" fill="#DBCAC2"/>
<path d="M258.551 107.671C258.551 107.671 277.99 100.807 278.892 124.843C279.806 149.227 275.582 152.583 269.255 153.756C261.314 155.239 252.675 152.859 245.761 134.706C239.174 117.415 246.319 109.097 258.551 107.671Z" fill="#EEA886"/>
<path d="M247.848 139.585C247.848 139.585 245.902 136.201 247.69 134.926C247.914 134.754 248.171 134.629 248.445 134.56C248.719 134.492 249.004 134.481 249.283 134.528C249.562 134.575 249.828 134.679 250.064 134.834C250.3 134.989 250.502 135.192 250.656 135.428L252.579 135.107C252.579 135.107 248.756 128.903 254.773 127.618C260.79 126.332 273.631 125.165 276.88 122.751C276.88 122.751 278.007 127.386 278.115 128.441C278.222 129.496 279 128.193 279 128.193C279 128.193 280.128 110.801 268.956 104.947C257.785 99.0935 245.558 106.075 243.579 112.696C241.599 119.316 241.041 125.886 247.848 139.585Z" fill="#323B6E"/>
<path d="M248.073 130.561C248.073 130.561 245.93 128.869 245.603 130.64C245.276 132.411 249.235 139.906 250.261 139.956C251.288 140.007 250.639 132.625 248.073 130.561Z" fill="#EEA886"/>
<path d="M252.539 164.482C252.539 164.482 260.902 172.856 271.313 169.557C281.723 166.258 279.016 158.431 279.016 158.431C279.016 158.431 271.55 156.028 252.539 164.482Z" fill="#C4B5AE"/>
<path d="M256.195 159.944L267.886 165.189L268.343 164.01L269.392 164.833L274.287 156.301L256.195 159.944Z" fill="#EEA886"/>
<path d="M256.194 159.943C256.194 159.943 264.862 162.6 268.341 164.009L265.843 171.25L255.309 163.299L256.194 159.943Z" fill="#EAD8CF"/>
<path d="M268.342 164.01C268.342 164.01 272.701 159.594 274.286 156.301L276.367 158.258L274.41 169.08L268.342 164.01Z" fill="#EAD8CF"/>
</g>
<defs>
<linearGradient id="paint0_linear_9375_8808" x1="360" y1="545.18" x2="360" y2="1110.2" gradientUnits="userSpaceOnUse">
<stop stop-color="#4164A9"/>
<stop offset="0.270833" stop-color="#4164A9" stop-opacity="0.729167"/>
<stop offset="0.479167" stop-color="#7792C8" stop-opacity="0.520833"/>
<stop offset="0.65625" stop-color="#A0B5DE" stop-opacity="0.34375"/>
<stop offset="0.838542" stop-color="#B4C6E8" stop-opacity="0.161458"/>
<stop offset="1" stop-color="#F4F6F9" stop-opacity="0"/>
</linearGradient>
<linearGradient id="paint1_linear_9375_8808" x1="536" y1="409" x2="536" y2="648" gradientUnits="userSpaceOnUse">
<stop stop-color="#275699"/>
<stop offset="1" stop-color="#5B7AB4"/>
</linearGradient>
<linearGradient id="paint2_linear_9375_8808" x1="274.5" y1="320" x2="274.5" y2="648" gradientUnits="userSpaceOnUse">
<stop stop-color="#2A468D"/>
<stop offset="1" stop-color="#5A78B3"/>
</linearGradient>
<linearGradient id="paint3_linear_9375_8808" x1="42" y1="430" x2="42" y2="648" gradientUnits="userSpaceOnUse">
<stop stop-color="#1F3981"/>
<stop offset="1" stop-color="#5774B0"/>
</linearGradient>
<linearGradient id="paint4_linear_9375_8808" x1="566.17" y1="654.974" x2="576.776" y2="908.656" gradientUnits="userSpaceOnUse">
<stop stop-color="#4164A9"/>
<stop offset="0.994792" stop-color="white"/>
</linearGradient>
<linearGradient id="paint5_linear_9375_8808" x1="56060.4" y1="30139.1" x2="26794.6" y2="30139.1" gradientUnits="userSpaceOnUse">
<stop stop-color="#EDF4FF"/>
<stop offset="1" stop-color="#EDFFFE"/>
</linearGradient>
<linearGradient id="paint6_linear_9375_8808" x1="40470.6" y1="-9095.06" x2="40311.4" y2="-9689.23" gradientUnits="userSpaceOnUse">
<stop stop-color="#C7D7F0"/>
<stop offset="1" stop-color="#EDFFFE"/>
</linearGradient>
<linearGradient id="paint7_linear_9375_8808" x1="32290.5" y1="-6907.63" x2="32131.3" y2="-7501.84" gradientUnits="userSpaceOnUse">
<stop stop-color="#C7D7F0"/>
<stop offset="1" stop-color="#EDFFFE"/>
</linearGradient>
<linearGradient id="paint8_linear_9375_8808" x1="15345.4" y1="2581.01" x2="14677.7" y2="89.0971" gradientUnits="userSpaceOnUse">
<stop stop-color="#C7D7F0"/>
<stop offset="1" stop-color="#EDFFFE"/>
</linearGradient>
<linearGradient id="paint9_linear_9375_8808" x1="27838" y1="6136.8" x2="26467.8" y2="1023.13" gradientUnits="userSpaceOnUse">
<stop stop-color="#C7D7F0"/>
<stop offset="1" stop-color="#EDFFFE"/>
</linearGradient>
<linearGradient id="paint10_linear_9375_8808" x1="67570.8" y1="11525.5" x2="64563.2" y2="301.139" gradientUnits="userSpaceOnUse">
<stop stop-color="#C7D7F0"/>
<stop offset="1" stop-color="#EDFFFE"/>
</linearGradient>
<linearGradient id="paint11_linear_9375_8808" x1="47100.5" y1="-37997.1" x2="44639.6" y2="-39417.9" gradientUnits="userSpaceOnUse">
<stop stop-color="#C7D7F0"/>
<stop offset="1" stop-color="#EDFFFE"/>
</linearGradient>
</defs>
</svg>
